<?xml version="1.0" encoding="UTF-8" standalone="no"?>
<svg
   preserveAspectRatio="xMidYMid"
   version="1.0"
   viewBox="0 0 511.99998 511.99998"
   id="svg73"
   sodipodi:docname="icon_monochrome.svg"
   inkscape:version="1.3.2 (091e20e, 2023-11-25, custom)"
   width="512"
   height="512"
   xmlns:inkscape="http://www.inkscape.org/namespaces/inkscape"
   xmlns:sodipodi="http://sodipodi.sourceforge.net/DTD/sodipodi-0.dtd"
   xmlns="http://www.w3.org/2000/svg"
   xmlns:svg="http://www.w3.org/2000/svg">
  <sodipodi:namedview
     id="namedview1"
     pagecolor="#37ffff"
     bordercolor="#000000"
     borderopacity="0.25"
     inkscape:showpageshadow="2"
     inkscape:pageopacity="0.0"
     inkscape:pagecheckerboard="0"
     inkscape:deskcolor="#d1d1d1"
     inkscape:zoom="1.7324219"
     inkscape:cx="256"
     inkscape:cy="256"
     inkscape:window-width="1920"
     inkscape:window-height="1129"
     inkscape:window-x="-8"
     inkscape:window-y="-8"
     inkscape:window-maximized="1"
     inkscape:current-layer="svg73" />
  <defs
     id="defs77" />
  <metadata
     id="metadata67">Created by potrace 1.16, written by Peter Selinger 2001-2019</metadata>
  <path
     d="m 299.5028,449.89869 c -0.92293,-0.057 -4.4933,-0.23548 -7.93396,-0.41589 -37.76485,-1.98278 -83.03544,-9.04451 -126.17796,-19.68211 -20.05774,-4.94564 -35.73213,-9.45527 -57.19914,-16.45642 -5.42496,-1.76989 -10.953793,-3.43781 -12.286342,-3.70785 -4.163052,-0.84317 -6.336111,-0.21459 -12.751602,3.69095 -8.450491,5.14409 -17.603243,8.74921 -27.241007,10.72952 -3.652972,0.75011 -4.660028,0.82987 -10.597153,0.83177 -5.818436,0.003 -6.836886,-0.076 -9.001969,-0.66656 -5.271706,-1.44706 -8.915373,-3.99575 -10.477135,-7.3274 -0.733025,-1.5648 -0.812784,-2.08039 -0.812784,-5.24417 0,-2.85291 0.132932,-3.90858 0.708337,-5.64525 1.940998,-5.85736 5.680567,-11.9804 12.58012,-20.59725 2.217307,-2.76935 4.700288,-5.98327 5.51782,-7.14225 1.485041,-2.10564 1.485041,-2.10811 0.953313,-2.94786 -0.29435,-0.46147 -2.11305,-2.65409 -4.043034,-4.87044 -1.930173,-2.21636 -4.240722,-5.00926 -5.134975,-6.20641 -4.019675,-5.38204 -7.2203,-12.49903 -9.838681,-21.87777 -0.864059,-3.09447 -1.993032,-6.42726 -2.509188,-7.40659 -1.272349,-2.41576 -3.40382,-4.21832 -7.993774,-6.76377 -14.1703673,-7.85819 -15.1079181,-8.48411 -15.1079181,-10.08689 0,-2.92223 4.9213346,-5.9903 15.3067461,-9.54262 6.115825,-2.09197 7.906419,-2.92679 9.381016,-4.37328 1.380594,-1.354 1.853452,-2.49437 3.852181,-9.2948 0.930524,-3.16853 4.016257,-12.69558 6.855116,-21.17113 2.838859,-8.47537 5.502817,-16.78306 5.920034,-18.46123 1.817371,-7.31031 2.30903,-13.06818 2.316246,-27.09232 l 0.0046,-9.39374 1.448959,0.15192 c 0.797593,0.0949 3.234617,0.30575 5.416412,0.48046 8.560444,0.68934 16.397549,2.5428 24.635918,5.82622 2.472916,0.9856 4.685665,1.79268 4.917346,1.79268 0.47096,0 11.226113,-5.09414 25.175808,-11.92552 l 9.26252,-4.53602 -0.1899,-4.05139 c -0.4102,-9.06863 -0.86976,-30.30927 -0.73683,-33.99946 0.2051,-5.66937 0.51464,-6.25541 5.83534,-11.04305 l 4.15508,-3.73862 -0.15193,-3.87763 c -0.1899,-4.73276 -1.25715,-51.24341 -1.50213,-65.364778 -0.22598,-12.966193 0.1899,-25.632908 0.86976,-26.675855 0.69504,-1.059658 4.64274,-3.421671 7.13902,-4.270727 5.71646,-1.944227 11.87615,-1.853453 18.85907,0.275359 4.21755,1.285643 4.92057,2.349099 6.05942,9.157879 0.83368,4.984383 1.22677,8.963798 4.60762,46.534952 1.87434,20.82799 3.48054,34.57202 4.11614,35.21218 0.57351,0.57541 2.39278,-0.67225 5.98043,-4.10418 7.17149,-6.85891 11.34404,-8.83219 22.85595,-10.8087 9.32803,-1.60278 17.50088,-2.2608 30.97222,-2.49799 30.40573,-0.53552 59.31276,3.54549 68.19395,9.62675 2.55647,1.75091 5.84198,4.86532 5.32811,5.05123 -0.24118,0.095 -2.70498,0.71594 -5.47434,1.39579 -9.07736,2.23003 -23.08688,3.65183 -51.11199,5.1872 -20.65062,1.13182 -36.85048,2.26231 -37.41677,2.6123 -0.52793,0.32663 -0.25447,1.31793 0.53553,1.93834 1.06156,0.83557 4.79011,1.99227 9.37095,2.90912 8.35896,1.67305 15.5295,2.30581 28.42676,2.50957 20.22409,0.31904 32.56551,-0.95331 58.74059,-6.05638 4.62831,-0.90204 5.51573,-0.9818 10.98531,-0.97421 7.00096,0.008 9.75152,0.42729 23.75192,3.62126 10.81573,2.46741 33.56971,7.93586 33.74139,8.10886 0.095,0.11394 0.90014,16.09275 1.14701,22.99421 l 0.057,1.81167 -7.15288,2.70308 c -25.73812,9.72683 -44.91319,12.52638 -114.56465,16.72665 -23.95796,1.44516 -42.20972,3.06256 -44.5385,3.94789 -4.93235,1.87624 12.02864,2.54603 64.52579,2.55173 54.48467,0.006 55.62769,-0.057 90.47583,-5.43844 33.27024,-5.13213 44.59453,-6.60217 54.39105,-7.06059 6.46544,-0.30195 10.07131,0.46716 10.95019,2.33884 0.1937,0.41019 0.62668,1.3654 0.9628,2.12065 1.32743,2.97711 3.50865,4.72022 12.42345,9.92774 16.37306,9.56389 34.43301,23.80301 45.58335,35.93971 10.20843,11.11141 15.47064,18.25898 19.58735,26.60502 3.90422,7.91478 6.87905,17.5007 9.59808,30.92817 l 0.20699,1.02357 -1.1755,-0.17091 c -0.64567,-0.095 -4.26522,-0.47096 -8.04125,-0.82608 -8.77807,-0.82797 -18.84388,-0.70264 -25.47984,0.31524 -10.46707,1.60468 -18.78045,3.80224 -35.70214,9.434 -26.99014,8.98279 -48.05493,14.0211 -72.1671,17.26123 -18.61808,2.50159 -33.0978,3.41369 -60.90833,3.83661 -22.81836,0.34752 -28.33978,0.69694 -28.13032,1.78508 0.30195,1.5629 9.88464,3.08118 25.72064,4.07304 8.22071,0.51464 42.14041,0.51084 52.18001,-0.007 35.12597,-1.81168 53.19599,-4.85183 90.32354,-15.20041 16.77298,-4.67522 26.48728,-6.79605 37.53298,-8.1945 3.6619,-0.46336 23.99272,-1.7452 24.21168,-1.52492 0.23168,0.23168 -1.52112,12.28672 -2.27846,15.68029 -1.69963,7.61644 -3.73425,13.13558 -8.05207,21.84928 -5.99163,12.09207 -13.2896,22.60434 -23.09068,33.26112 -13.03361,14.17151 -27.49491,24.58749 -45.56436,32.81827 -26.79739,12.20658 -57.95344,19.06682 -95.51092,21.03023 -5.20239,0.27156 -32.00871,0.35512 -36.61747,0.11394 z m -82.38958,-70.59243 c 8.61722,-2.90001 14.55416,-12.83706 16.49953,-27.61663 0.59629,-4.52805 0.20129,-14.42294 -0.75392,-18.95346 -2.44196,-11.56528 -7.12003,-18.83096 -15.20173,-23.61044 -4.02917,-2.3829 -4.9238,-2.65465 -7.11965,-2.16318 -2.20781,0.49374 -5.93864,2.38917 -8.15348,4.1414 -6.25711,4.95058 -11.11483,15.16641 -12.45023,26.18306 -0.51843,4.28345 -0.20509,13.58053 0.583,17.21736 1.82687,8.43833 5.93371,16.705 10.56962,21.27311 2.01601,1.98639 4.92039,3.65734 7.17871,4.12982 2.18142,0.45577 6.59799,0.15193 8.84929,-0.60199 z m -86.9273,-17.47468 c 4.24281,-2.19623 7.50724,-8.31015 9.32575,-17.46537 0.71214,-3.5905 0.79569,-17.70047 0.13293,-21.0553 -0.91533,-4.56489 -2.70991,-8.59672 -5.36286,-12.0444 -2.72966,-3.54739 -4.82752,-4.89627 -7.59649,-4.8845 -5.85243,0.019 -11.35183,8.16317 -13.5021,19.98045 -0.76721,4.2149 -0.77291,13.7917 -0.0127,17.69857 1.92657,9.88901 4.25763,14.38648 8.85119,17.07684 3.4118,1.99834 5.33741,2.16185 8.17342,0.69314 z m -62.641006,-8.91575 c 3.197206,-2.88843 4.932539,-9.33468 5.525796,-20.52604 0.638074,-12.0482 -1.147014,-24.32182 -3.97163,-27.29076 -1.01788,-1.07105 -1.241966,-1.16411 -2.757391,-1.16221 -2.820438,0.004 -5.989539,2.31606 -7.329494,5.3452 -1.331219,3.00768 -1.606579,6.28123 -1.619872,19.21628 -0.01443,13.49545 0.170913,15.59274 1.661651,18.65151 1.230571,2.52665 5.551812,6.6785 7.087747,6.80897 0.132932,0.01 0.757713,-0.45957 1.403383,-1.04257 z"
     id="path196"
     style="fill:#ffffff;fill-opacity:1;stroke:none;stroke-width:0.305146;stroke-opacity:1" />
</svg>
