<?xml version="1.0" encoding="utf-8"?>
<!-- Generator: Adobe Illustrator 21.1.0, SVG Export Plug-In . SVG Version: 6.00 Build 0)  -->
<svg version="1.1" id="Calque_1" xmlns="http://www.w3.org/2000/svg" xmlns:xlink="http://www.w3.org/1999/xlink" x="0px" y="0px"
	 viewBox="0 0 550 154.9499969" style="enable-background:new 0 0 550 154.9499969;" xml:space="preserve">
<style type="text/css">
	.st0{fill:#FF0000;}
</style>
<g>
	<g>
		<path class="st0" d="M48.3538933,66.8663559c-2.8481979,0-7.6897125-0.569519-7.6897125,3.8445511
			c0,2.2780762,1.7085571,3.1329575,3.7024765,3.987236l34.1753502,15.5214996
			c8.8287506,3.9878387,13.3855057,9.5403442,13.3855057,19.3660507c0,13.8135452-9.3982697,20.3636169-22.4990158,20.3636169
			h-21.074604c-7.1201935,0-11.9617081-0.2853699-17.0879784-4.2719955C28.7024765,123.6833954,25,121.119957,25,117.7028503
			c0-3.8451614,3.2756386-6.835434,7.1201935-6.835434c2.1359978,0,3.7024727,0.7121964,5.2689514,2.4207535
			c2.4207573,2.7061234,6.6927528,2.9902725,10.9647484,2.9902725h18.511776c4.841507,0,11.3915787,0.4280472,11.3915787-7.5464249
			c0-3.2756348-3.987236-5.411026-7.1195908-6.8354263L38.9550209,87.2293701
			c-7.5470295-3.4171143-11.9611015-7.8323975-11.9611015-16.6611404c0-10.8220673,8.5439911-17.3721352,18.7965355-17.3721352
			h23.3532829c7.5470352,0,10.6799927,0.4268341,15.8062592,4.6988297c2.5634384,2.1359978,5.4110336,3.8451576,5.4110336,7.6897087
			c0,3.8445587-3.275032,6.8348312-6.9775085,6.8348312c-2.5628357,0-4.1293106-0.9963531-5.8384781-2.8475952
			c-2.2780685-2.4207535-4.6988297-2.705513-8.4013062-2.705513H48.3538933z"/>
		<path class="st0" d="M104.7374496,78.685379c0-9.1135101,1.8512344-12.2464676,8.6866684-17.8001785
			c6.692749-5.5531082,9.8251038-7.689106,19.3660583-7.689106h10.822052c9.5409546,0,12.6739044,2.1359978,19.3666687,7.689106
			c6.8348236,5.5537109,8.6860657,8.6866684,8.6860657,17.8001785v25.7746506
			c0,8.9708252-2.2780762,12.3879318-9.3982697,18.3684845c-7.1201935,5.9817581-9.9677887,7.1207962-18.6544647,7.1207962
			h-10.822052c-8.6860733,0-11.5342712-1.1390381-18.6544647-7.1207962
			c-7.1195831-5.9805527-9.398262-9.3976593-9.398262-18.3684845V78.685379z M118.4077072,104.4600296
			c0,2.8475876,0.9969635,4.6988297,4.9841995,8.1159363c2.9902725,2.563446,5.1262665,3.7024765,9.3982697,3.7024765h10.822052
			c4.2720032,0,6.4079895-1.1390305,9.3982697-3.7024765c3.9872437-3.4171066,4.9841919-5.2683487,4.9841919-8.1159363V78.685379
			c0-2.8481979-0.9969482-4.69944-4.9841919-8.1171494c-2.9902802-2.5628357-5.1262665-3.7018738-9.3982697-3.7018738h-10.822052
			c-4.2720032,0-6.4079971,1.1390381-9.3982697,3.7018738c-3.987236,3.4177094-4.9841995,5.2689514-4.9841995,8.1171494V104.4600296
			z"/>
		<path class="st0" d="M224.7734833,76.1219406v44.4284973c0,4.6988297-0.9963684,9.3988724-6.8342285,9.3988724
			c-5.8390808,0-6.835434-4.7000427-6.835434-9.3988724V74.8402176c0-2.2780685,0.2841492-6.5500641-3.2756348-6.5500641
			c-1.5658722,0-2.563446,1.2817154-3.7024841,2.2780762l-5.980545,5.5537109v44.4284973
			c0,4.6988297-0.9963531,9.3988724-6.8348236,9.3988724c-5.8384857,0-6.835434-4.7000427-6.835434-9.3988724V62.8791199
			c0-4.8415146,1.2817078-9.6830254,7.1201935-9.6830254c3.4177094,0,5.6963959,2.2780724,6.5500641,5.4110298l1.1390381-0.8542786
			c3.5597839-2.705513,5.6963959-4.5567513,10.3952179-4.5567513c5.2695618,0,9.39888,2.5628319,12.5318298,6.8348274
			l1.1390381-1.1390381c4.2720032-4.2719917,5.9805603-5.6957893,11.9611053-5.6957893
			c4.5573578,0,8.686676,1.9933128,11.3915863,5.5531082c3.4183197,4.4146767,3.1329498,8.4019127,3.2756348,13.6702614
			l1.424408,47.2773056c0.1414642,4.841507-0.5707397,10.2525406-6.6927643,10.2525406
			c-5.5537109,0-6.692749-4.7000427-6.835434-9.2561874l-1.4243927-45.1407013
			c-0.1426849-2.4207535,0.569519-7.2622681-3.1329651-7.2622681c-1.9927063,0-4.5561371,3.417717-5.6951752,4.6988297
			L224.7734833,76.1219406z"/>
		<path class="st0" d="M287.1381836,66.8663559c-3.9860229,0-9.3982544-0.8548813-9.3982544-6.835434
			c0-5.8384743,4.8414917-6.8348274,9.3982544-6.8348274h18.7965393c7.1195984,0,12.24646,0.7115936,17.6575012,6.12323
			c5.2683411,5.2683525,5.9805298,9.3982658,6.12323,16.2330971l1.424408,46.4224167
			c0.141449,3.9866333-1.8512573,7.974472-6.4085999,7.974472c-3.5598145,0-7.1195984-2.9902725-6.9769287-6.835434
			l-9.3988647,4.8415146c-3.8451538,1.9939194-3.9866333,1.9939194-8.4013062,1.9939194h-13.1013489
			c-6.1213989,0-10.5360718-0.712204-15.5202942-4.8415146c-5.6963806-4.7000351-7.1195679-9.6830215-7.1195679-16.8038177
			v-5.9805527c0-6.5500717,1.5658569-10.6793823,6.692749-15.2367401c4.698822-4.1293106,9.9671631-5.1262741,15.947113-5.1262741
			h29.3344421v-3.1329575c0-10.2525406-2.2780762-11.9610977-12.1037598-11.9610977H287.1381836z M286.9955139,95.6306763
			c-3.7018738,0-9.112915,0.9975586-9.112915,5.980545v9.1135101c0,4.5573578,5.5537109,5.5537109,8.8287659,5.5537109h15.0940552
			l15.0940552-7.8317871v-2.9902725c0-7.5476379-2.1365967-9.8257065-9.6830444-9.8257065H286.9955139z"/>
	</g>
	<g>
		<path class="st0" d="M409.789032,66.8663559h-3.8451538c-3.9866333,0-9.397644-0.8548813-9.397644-6.835434
			c0-5.8384743,4.8414917-6.8348274,9.397644-6.8348274h3.8451538v-1.8512383c0-7.8317871,0.4268494-13.528183,6.5500793-19.5087337
			c6.5500793-6.2653103,12.6733093-6.835434,21.0746155-6.835434h9.2561951c4.698822,0,9.9683838,0.4274406,9.9683838,6.835434
			c0,5.8384724-4.698822,6.8348293-9.3988647,6.8348293h-10.6793823c-9.2561951,0-13.1013489,1.8512344-13.1013489,11.8196259
			v2.7055168h12.1037598c4.557373,0,9.3988953,0.9963531,9.3988953,6.8348274c0,5.9805527-5.4110413,6.835434-9.3988953,6.835434
			h-12.1037598v53.684082c0,4.6988297-0.9963684,9.3988724-6.8342285,9.3988724
			c-5.8390808,0-6.8354492-4.7000427-6.8354492-9.3988724V66.8663559z"/>
		<path class="st0" d="M498.355835,76.1219406v44.4284973c0,4.6988297-0.9975586,9.3988724-6.8354187,9.3988724
			c-5.8390808,0-6.8354492-4.7000427-6.8354492-9.3988724V74.8402176c0-2.2780685,0.2853699-6.5500641-3.2744141-6.5500641
			c-1.5670776,0-2.563446,1.2817154-3.7024841,2.2780762l-5.9817505,5.5537109v44.4284973
			c0,4.6988297-0.9963684,9.3988724-6.8342285,9.3988724c-5.8390808,0-6.8354187-4.7000427-6.8354187-9.3988724V62.8791199
			c0-4.8415146,1.2817078-9.6830254,7.1195679-9.6830254c3.418335,0,5.6964111,2.2780724,6.5500793,5.4110298l1.1402283-0.8542786
			c3.5598145-2.705513,5.6951904-4.5567513,10.394043-4.5567513c5.2695618,0,9.3988647,2.5628319,12.5318298,6.8348274
			l1.1390381-1.1390381c4.2719727-4.2719917,5.9805298-5.6957893,11.9610901-5.6957893
			c4.5573425,0,8.686676,1.9933128,11.3927917,5.5531082c3.4171143,4.4146767,3.1317139,8.4019127,3.2744141,13.6702614
			l1.4244385,47.2773056c0.1426392,4.841507-0.569519,10.2525406-6.692749,10.2525406
			c-5.5537109,0-6.6927795-4.7000427-6.8354492-9.2561874l-1.424408-45.1407013
			c-0.1414795-2.4207535,0.569519-7.2622681-3.1317444-7.2622681c-1.993927,0-4.557373,3.417717-5.6964111,4.6988297
			L498.355835,76.1219406z"/>
	</g>
</g>
</svg>
