<svg xmlns="http://www.w3.org/2000/svg" width="512" height="512" viewBox="0 0 512 512" version="1.1"><path d="M 27.500 183.965 C 21.734 185.468, 18.982 186.975, 14.560 191.051 C 6.348 198.621, 6.500 197.395, 6.500 256 C 6.500 297.064, 6.778 308.286, 7.871 311.381 C 10.747 319.523, 21.062 327.504, 29.593 328.187 L 33.500 328.500 33.500 256.014 C 33.500 176.380, 33.991 182.273, 27.500 183.965 M 478 256.066 L 478 329.223 481.750 328.574 C 491.950 326.811, 501.658 318.699, 504.007 309.975 C 504.709 307.366, 504.972 288.366, 504.784 253.767 C 504.503 202.053, 504.477 201.456, 502.294 197.376 C 498.563 190.402, 490.753 185.153, 481.750 183.569 L 478 182.909 478 256.066 M 75.852 224.391 C 67.859 227.246, 60.813 235.766, 58.926 244.858 C 57.452 251.956, 58.216 267.291, 60.287 272.190 C 62.453 277.311, 69.713 284.942, 74.500 287.129 C 76.700 288.134, 80.188 288.966, 82.250 288.978 L 86 289 86 256 L 86 223 82.750 223.044 C 80.963 223.068, 77.858 223.674, 75.852 224.391 M 426 256 L 426 289 429.250 288.990 C 434.014 288.976, 442.023 284.876, 445.889 280.474 C 451.905 273.621, 452.953 269.995, 452.978 255.946 C 452.998 244.428, 452.787 242.965, 450.416 238.207 C 446.014 229.375, 436.884 223, 428.634 223 L 426 223 426 256" stroke="none" fill="#040404" fill-rule="evenodd"/><path d="M 244.500 1.039 C 225.111 5.014, 209.028 20.820, 204.498 40.353 C 203.161 46.116, 202.993 58.330, 203.228 132.250 L 203.500 217.500 206.490 222.899 C 209.917 229.087, 216.792 234.222, 224.050 236.013 C 227.064 236.757, 238.707 237.029, 258.550 236.818 L 288.500 236.500 293.590 233.814 C 299.267 230.819, 304.120 225.803, 306.752 220.213 C 308.373 216.769, 308.500 210.306, 308.500 131 C 308.500 50.876, 308.383 45.043, 306.638 38.231 C 302.325 21.400, 287.148 6.288, 270.081 1.833 C 263.158 0.026, 251.246 -0.344, 244.500 1.039 M 150.760 106.558 C 135.803 110.183, 121.974 121.961, 115.405 136.670 C 111.098 146.313, 110.886 152.644, 111.220 261.500 C 111.567 374.839, 111.183 367.804, 117.683 379.629 C 121.778 387.077, 133.571 398.223, 141.110 401.772 C 146.910 404.501, 157.292 407, 162.832 407 L 165 407 165 256 L 165 105 160.750 105.083 C 158.412 105.129, 153.917 105.793, 150.760 106.558 M 347 256 L 347 407 350.750 406.985 C 356.541 406.962, 366.789 404.236, 372.404 401.223 C 384.761 394.594, 396.596 378.968, 398.995 366.114 C 399.629 362.718, 399.995 321.884, 399.985 255.614 C 399.969 140.883, 400.094 143.551, 394.223 132.587 C 390.721 126.046, 378.954 114.279, 372.413 110.777 C 366.786 107.763, 356.537 105.038, 350.750 105.015 L 347 105 347 256 M 221.882 276.354 C 216.294 278.392, 211.210 281.858, 208.394 285.550 C 202.929 292.715, 202.999 291.476, 203.017 381.409 C 203.036 471.013, 203.107 472.372, 208.319 482.631 C 214.304 494.411, 227.733 506.061, 239.276 509.489 C 258.840 515.299, 279.029 510.254, 293 496.065 C 300.561 488.385, 304.347 481.873, 306.459 472.913 C 308.753 463.180, 308.752 298.383, 306.457 291.879 C 304.633 286.708, 300.217 281.847, 294 278.165 L 289.500 275.500 257.500 275.267 C 233.019 275.090, 224.650 275.345, 221.882 276.354" stroke="none" fill="#ca2d1a" fill-rule="evenodd"/></svg>
