<?xml version="1.0" standalone="no"?>
<!DOCTYPE svg PUBLIC "-//W3C//DTD SVG 20010904//EN"
 "http://www.w3.org/TR/2001/REC-SVG-20010904/DTD/svg10.dtd">
<svg version="1.0" xmlns="http://www.w3.org/2000/svg"
 width="2048.000000pt" height="2048.000000pt" viewBox="0 0 2048.000000 2048.000000"
 preserveAspectRatio="xMidYMid meet">
<metadata>
Created by potrace 1.16, written by Peter Selinger 2001-2019
</metadata>
<g transform="translate(0.000000,2048.000000) scale(0.100000,-0.100000)"
fill="#18bcf2" stroke="none">
<path d="M9880 17910 c-619 -40 -1133 -140 -1682 -326 -507 -173 -898 -360
-1363 -655 -94 -59 -187 -123 -207 -143 -115 -111 -111 -301 8 -406 58 -50
119 -74 194 -74 80 0 131 22 280 121 460 305 1027 559 1585 712 907 249 1840
276 2765 80 676 -144 1317 -409 1907 -789 176 -113 230 -135 312 -126 69 8
152 47 186 88 102 121 96 288 -14 397 -47 47 -351 241 -546 348 -773 426
-1588 673 -2505 759 -195 18 -729 26 -920 14z"/>
<path d="M9900 16760 c-527 -38 -1104 -167 -1580 -355 -172 -67 -508 -229
-567 -273 -65 -48 -96 -110 -101 -201 -4 -68 -1 -84 22 -134 49 -102 137 -159
256 -165 l75 -3 165 81 c865 428 1833 574 2800 424 481 -74 918 -212 1328
-417 142 -71 171 -82 227 -85 82 -5 150 17 210 70 122 108 135 285 27 400 -38
41 -77 65 -227 138 -249 123 -367 171 -605 251 -390 129 -788 215 -1185 254
-188 19 -667 27 -845 15z"/>
<path d="M9820 15453 c-30 -1 -140 -7 -245 -13 -1283 -72 -2365 -371 -2770
-767 -140 -136 -200 -265 -199 -428 1 -154 54 -264 194 -405 138 -140 321
-249 600 -357 752 -292 1770 -438 2975 -427 822 7 1511 88 2180 255 352 88
750 248 955 384 81 54 226 189 275 255 79 107 112 264 86 405 -38 207 -250
418 -576 575 -595 287 -1477 467 -2544 520 -181 9 -785 11 -931 3z m1000 -583
c770 -51 1306 -138 1820 -297 278 -85 533 -205 628 -293 22 -21 22 -23 6 -41
-30 -34 -174 -121 -289 -174 -341 -161 -946 -306 -1565 -374 -461 -52 -650
-60 -1250 -56 -488 3 -588 8 -955 40 -721 65 -1457 243 -1822 442 -92 49 -203
128 -203 142 0 12 145 108 215 144 535 270 1480 446 2585 481 160 5 667 -4
830 -14z"/>
<path d="M4866 14795 c-93 -36 -138 -93 -274 -355 -308 -591 -490 -1149 -591
-1820 -37 -244 -50 -397 -57 -690 -14 -570 65 -1131 241 -1710 261 -855 775
-1699 1416 -2326 151 -146 176 -160 291 -152 105 6 187 59 236 153 22 41 27
63 27 125 0 112 -21 148 -178 309 -402 413 -693 829 -957 1366 -168 343 -275
648 -374 1068 -101 424 -142 930 -111 1347 33 432 79 718 171 1055 95 350 286
812 458 1110 89 153 106 242 66 347 -42 114 -132 179 -254 185 -46 2 -85 -2
-110 -12z"/>
<path d="M15440 14801 c-87 -27 -171 -110 -196 -197 -24 -84 -14 -151 37 -249
344 -664 464 -991 583 -1585 44 -221 68 -423 87 -725 34 -562 -76 -1294 -280
-1860 -244 -677 -649 -1324 -1160 -1850 -163 -168 -181 -198 -182 -311 -1
-101 55 -196 149 -251 35 -21 62 -27 122 -31 124 -7 152 10 347 214 88 93 198
214 244 269 46 55 104 125 129 155 124 147 346 469 454 660 27 47 66 114 86
150 49 85 195 376 219 437 10 27 40 100 66 163 90 219 212 610 260 835 44 204
92 519 111 725 22 245 26 643 9 830 -54 573 -121 928 -256 1355 -110 345 -307
795 -469 1069 -66 112 -99 149 -162 180 -54 27 -141 34 -198 17z"/>
<path d="M5699 13769 c-56 -9 -115 -38 -153 -75 -81 -82 -242 -519 -321 -874
-139 -628 -145 -1259 -19 -1875 120 -586 404 -1220 757 -1690 128 -170 241
-305 276 -329 74 -51 175 -57 264 -18 64 29 103 67 136 134 26 51 31 73 31
132 0 92 -23 142 -125 266 -94 116 -281 396 -363 545 -204 369 -329 711 -415
1135 -46 222 -59 352 -64 628 -9 435 30 753 142 1153 31 112 120 370 145 419
84 169 28 346 -135 427 -50 25 -97 32 -156 22z"/>
<path d="M14681 13765 c-69 -19 -108 -44 -158 -98 -49 -54 -67 -102 -68 -187
0 -55 8 -84 52 -195 236 -596 324 -1231 257 -1845 -79 -722 -369 -1423 -822
-1989 -109 -136 -132 -184 -132 -276 1 -136 78 -240 210 -279 67 -20 93 -20
161 0 71 20 137 89 313 325 181 243 265 378 391 629 250 496 399 987 454 1500
52 482 23 998 -84 1469 -60 265 -177 624 -256 788 -63 129 -191 193 -318 158z"/>
<path d="M6610 13247 c0 -329 54 -1149 106 -1607 81 -717 143 -1052 271 -1460
127 -406 298 -765 526 -1105 289 -432 605 -752 1010 -1024 43 -29 80 -58 83
-65 3 -7 -15 -107 -40 -222 -25 -115 -68 -319 -96 -454 -62 -296 -103 -491
-124 -585 -8 -38 -44 -212 -81 -385 -36 -173 -77 -367 -91 -430 -14 -63 -52
-244 -84 -401 -32 -158 -70 -338 -84 -400 -14 -63 -48 -222 -76 -354 -28 -132
-68 -321 -90 -420 -77 -358 -82 -409 -55 -571 35 -204 117 -359 277 -522 237
-242 626 -437 1123 -561 630 -157 1461 -160 2088 -6 518 126 918 324 1158 572
182 187 266 380 276 633 4 113 2 139 -27 270 -17 80 -56 264 -86 410 -30 146
-82 389 -114 540 -94 436 -194 911 -259 1225 -33 160 -97 461 -141 670 -78
366 -181 852 -199 945 -5 24 -7 48 -4 52 2 5 37 30 76 55 246 160 504 388 713
628 126 145 272 337 334 440 13 22 38 63 55 90 169 270 326 611 437 950 61
188 141 519 178 740 34 208 112 840 130 1065 5 69 12 148 15 175 2 28 11 156
20 285 8 129 17 264 20 300 10 148 27 641 22 647 -3 3 -33 -15 -66 -40 -308
-231 -978 -480 -1581 -587 -69 -12 -131 -24 -137 -26 -9 -2 -13 -34 -14 -111
0 -59 -2 -124 -4 -143 -2 -19 -6 -125 -9 -235 -42 -1355 -283 -2754 -623
-3615 -104 -262 -98 -254 -206 -305 -95 -45 -252 -100 -380 -134 -123 -33
-347 -69 -347 -55 0 3 24 32 54 64 164 178 340 549 479 1015 260 866 409 1897
442 3065 3 107 8 232 11 277 3 50 1 84 -6 88 -5 3 -81 -1 -168 -9 -358 -35
-666 -45 -1197 -40 -247 2 -470 6 -495 8 -25 3 -99 7 -165 11 -66 3 -195 12
-287 21 -93 9 -174 14 -180 11 -10 -3 -12 -61 -6 -268 14 -533 66 -1234 117
-1580 78 -519 133 -810 237 -1249 55 -232 162 -563 260 -802 98 -238 211 -435
324 -561 l52 -58 -43 7 c-130 18 -236 38 -339 64 -182 46 -419 139 -452 177
-37 43 -192 456 -271 723 -127 430 -245 983 -312 1465 -28 204 -71 558 -80
655 -3 36 -8 81 -10 100 -5 40 -22 242 -30 370 -20 314 -26 450 -32 728 -6
307 -7 312 -27 317 -12 2 -73 14 -136 25 -228 41 -575 134 -829 222 -303 104
-567 235 -743 367 l-68 50 0 -132z"/>
<path d="M13441 7854 c-31 -26 -31 -27 -102 -264 -62 -211 -114 -256 -371
-326 -73 -20 -145 -43 -160 -52 -37 -22 -62 -75 -54 -117 10 -49 52 -79 148
-104 208 -55 266 -79 328 -137 58 -54 83 -104 116 -232 60 -231 79 -262 159
-262 57 0 89 31 110 106 55 198 79 274 103 318 27 49 82 101 137 129 32 16
193 66 284 88 31 8 66 25 84 41 27 26 29 33 25 80 -7 66 -33 90 -131 118 -276
80 -321 101 -376 176 -35 47 -71 139 -107 273 -15 53 -34 112 -44 132 -32 61
-98 76 -149 33z"/>
<path d="M7030 7734 c-152 -41 -281 -176 -321 -337 -6 -26 -10 -86 -7 -135 19
-401 514 -574 787 -275 115 125 146 284 90 460 -72 222 -316 350 -549 287z"/>
<path d="M5565 7007 c-94 -31 -165 -92 -206 -175 -20 -40 -24 -62 -24 -147 0
-83 4 -107 22 -140 33 -63 98 -124 166 -156 83 -39 195 -41 273 -5 58 27 143
107 168 159 43 92 41 205 -5 293 -31 59 -106 130 -162 154 -62 27 -176 35
-232 17z"/>
<path d="M14640 6379 c-164 -22 -315 -137 -365 -280 -109 -308 103 -619 423
-619 244 0 430 167 458 412 7 64 -16 180 -48 245 -83 166 -279 268 -468 242z"/>
<path d="M6812 5265 c-14 -10 -29 -41 -43 -88 -49 -172 -82 -232 -142 -264
-18 -9 -81 -31 -142 -49 -120 -36 -145 -55 -145 -108 0 -48 31 -70 160 -111
122 -39 169 -67 201 -119 18 -28 59 -152 73 -218 10 -45 48 -81 85 -80 18 0
41 8 51 17 9 9 32 67 50 129 18 62 42 131 54 152 27 48 105 92 220 124 94 26
132 49 139 87 6 33 -15 78 -43 93 -11 6 -66 24 -123 41 -56 17 -118 41 -137
53 -46 30 -82 98 -115 216 -15 52 -36 105 -48 118 -24 26 -63 29 -95 7z"/>
<path d="M13639 5170 c-210 -38 -333 -279 -238 -468 34 -68 96 -129 167 -164
34 -17 69 -24 130 -26 74 -4 88 -1 139 24 123 60 196 172 196 298 -1 215 -187
374 -394 336z"/>
</g>
</svg>
