<?xml version="1.0" standalone="no"?>
<!DOCTYPE svg PUBLIC "-//W3C//DTD SVG 20010904//EN"
 "http://www.w3.org/TR/2001/REC-SVG-20010904/DTD/svg10.dtd">
<svg version="1.0" xmlns="http://www.w3.org/2000/svg"
 width="2048.000000pt" height="2048.000000pt" viewBox="0 0 2048.000000 2048.000000"
 preserveAspectRatio="xMidYMid meet">
<metadata>
Created by potrace 1.16, written by Peter Selinger 2001-2019
</metadata>
<g transform="translate(0.000000,2048.000000) scale(0.100000,-0.100000)"
fill="#18bcf2" stroke="none">
<path d="M12420 16378 c-343 -20 -685 -146 -970 -357 -161 -120 -371 -352
-470 -522 l-32 -55 -97 -11 c-136 -16 -256 -54 -406 -128 -152 -75 -268 -159
-383 -279 -478 -499 -484 -1297 -12 -1831 149 -168 352 -297 594 -376 193 -63
138 -61 1621 -61 1919 0 2007 1 2095 18 192 36 381 120 537 238 261 196 419
458 488 806 24 121 14 358 -19 488 -51 199 -109 321 -223 473 -206 274 -499
436 -876 484 l-47 6 -46 97 c-179 384 -531 714 -939 879 -266 109 -517 149
-815 131z m245 -779 c242 -30 446 -130 611 -300 133 -139 206 -264 258 -444
52 -180 122 -276 244 -333 54 -26 65 -27 232 -28 96 -1 197 -5 225 -9 141 -18
283 -140 346 -296 27 -69 38 -227 19 -296 -35 -132 -133 -249 -259 -311 l-75
-37 -1640 -3 c-1128 -2 -1657 1 -1691 8 -69 15 -201 81 -256 129 -60 52 -133
159 -161 236 -30 83 -37 259 -13 341 55 192 221 355 410 405 30 7 114 13 210
14 186 1 220 8 302 69 76 56 118 114 180 252 58 129 122 224 210 311 171 171
349 255 623 297 52 7 138 6 225 -5z"/>
<path d="M6790 12740 c-401 -24 -757 -80 -1164 -182 -317 -79 -865 -274 -1206
-428 -340 -154 -825 -415 -927 -498 -119 -98 -182 -226 -190 -382 -13 -256
134 -466 380 -542 57 -17 86 -20 170 -16 90 5 119 11 252 57 702 245 1197 360
1865 432 235 26 829 37 1031 20 690 -59 1208 -217 1765 -536 129 -74 508 -326
604 -402 41 -32 140 -107 220 -165 80 -59 217 -164 305 -234 526 -414 873
-655 1231 -852 281 -155 565 -246 894 -288 200 -25 559 -16 765 20 310 53 643
160 1025 329 394 174 1003 494 1380 725 379 233 912 619 926 670 13 46 20 48
-231 -61 -431 -187 -951 -349 -1421 -442 -582 -116 -1118 -131 -1539 -45 -453
93 -864 276 -1377 613 -284 187 -379 261 -1138 893 -289 240 -388 315 -605
459 -293 194 -508 317 -746 426 -496 227 -1000 366 -1509 414 -201 20 -564 27
-760 15z"/>
<path d="M16521 12384 c-78 -21 -157 -63 -274 -147 -56 -41 -203 -141 -327
-223 -813 -540 -1374 -843 -1965 -1062 -342 -126 -544 -180 -885 -234 -117
-19 -179 -22 -464 -23 -326 -2 -330 -2 -344 -23 -13 -19 -12 -25 2 -47 48 -73
492 -229 796 -279 495 -82 1145 -23 1785 163 506 146 1038 358 1560 621 401
202 565 300 637 380 269 297 123 773 -269 875 -71 19 -181 18 -252 -1z"/>
<path d="M6560 10745 c-393 -49 -843 -180 -1310 -382 -399 -173 -954 -490
-1051 -601 -18 -20 -46 -66 -63 -102 -28 -60 -31 -74 -31 -170 0 -99 2 -109
33 -173 46 -93 124 -169 221 -216 71 -34 82 -36 171 -36 105 1 62 -14 415 145
346 156 623 254 976 344 428 110 684 142 1063 133 340 -7 562 -43 852 -138
474 -154 938 -414 1524 -854 347 -261 790 -565 1037 -714 141 -84 432 -227
588 -289 187 -73 401 -129 635 -164 126 -19 496 -16 647 5 525 74 1018 258
1598 597 311 182 747 485 1001 697 326 271 501 432 510 469 8 32 -4 64 -24 64
-10 0 -49 -18 -87 -41 -482 -282 -1161 -617 -1560 -769 -345 -132 -722 -228
-1070 -271 -165 -21 -523 -16 -695 10 -407 62 -777 187 -1103 373 -329 187
-633 402 -1285 908 -166 129 -385 296 -487 370 -478 351 -1041 628 -1500 738
-264 64 -348 74 -630 78 -182 2 -295 -1 -375 -11z"/>
<path d="M9755 6114 c-538 -20 -873 -42 -1300 -84 -782 -79 -1317 -166 -2120
-345 -472 -105 -1051 -264 -1555 -427 -197 -64 -746 -262 -965 -350 -367 -146
-419 -179 -477 -296 -30 -60 -33 -75 -33 -152 1 -115 27 -180 104 -259 87 -87
199 -124 315 -102 32 6 163 44 290 86 1026 331 2188 575 3381 709 509 58 1060
105 1400 121 72 3 139 8 150 10 63 12 627 20 1395 20 1060 -1 1517 -21 2340
-105 1076 -110 1891 -248 2780 -470 488 -121 687 -178 1035 -295 241 -80 314
-94 397 -75 79 19 127 47 190 111 48 49 61 70 79 130 49 163 -8 327 -146 414
-120 77 -783 330 -1330 508 -1005 328 -2169 590 -3185 716 -357 45 -980 99
-1400 121 -191 11 -1168 21 -1345 14z"/>
</g>
</svg>
