<?xml version="1.0" standalone="no"?>
<!DOCTYPE svg PUBLIC "-//W3C//DTD SVG 20010904//EN"
 "http://www.w3.org/TR/2001/REC-SVG-20010904/DTD/svg10.dtd">
<svg version="1.0" xmlns="http://www.w3.org/2000/svg"
 width="2048.000000pt" height="2048.000000pt" viewBox="0 0 2048.000000 2048.000000"
 preserveAspectRatio="xMidYMid meet">
<metadata>
Created by potrace 1.16, written by Peter Selinger 2001-2019
</metadata>
<g transform="translate(0.000000,2048.000000) scale(0.100000,-0.100000)"
fill="#18bcf2" stroke="none">
<path d="M8183 16380 c-38 -16 -43 -42 -43 -209 0 -209 6 -201 -161 -201 -115
0 -154 -8 -171 -34 -4 -6 -8 -129 -8 -274 0 -259 -4 -294 -34 -314 -6 -4 -221
-8 -478 -8 -478 0 -509 -2 -524 -39 -9 -22 -17 -278 -10 -307 4 -13 16 -33 28
-44 20 -18 35 -20 157 -20 75 0 141 -4 147 -8 28 -18 34 -56 34 -201 l0 -150
26 -20 c24 -19 40 -21 165 -21 178 0 169 11 169 -202 0 -207 8 -198 -174 -198
-117 0 -137 -2 -157 -19 l-24 -19 -3 -425 -3 -425 23 -26 23 -26 289 -1 c360
0 330 -16 333 179 3 179 -4 172 182 172 75 0 141 4 147 8 26 17 34 56 34 170
0 154 -3 151 150 152 188 2 207 1 224 -16 13 -12 16 -40 16 -135 0 -115 8
-154 34 -171 6 -4 74 -8 152 -8 185 0 179 6 179 -176 0 -192 -28 -177 331
-177 285 1 288 1 306 23 17 21 18 53 18 450 l0 429 -26 20 c-24 19 -40 21
-153 21 -94 0 -132 4 -147 14 -17 13 -19 30 -22 184 -4 213 -14 202 174 202
118 0 134 2 158 21 l26 20 0 160 c0 209 -9 199 179 199 195 0 187 -9 184 202
-2 162 -2 163 -28 185 l-26 23 -478 0 c-433 0 -480 2 -492 17 -11 12 -15 79
-19 295 -6 344 8 318 -176 318 -171 0 -164 -8 -164 199 0 155 -1 161 -24 188
l-24 28 -149 2 c-81 1 -158 -2 -170 -7z"/>
<path d="M11984 16379 c-47 -13 -54 -42 -54 -212 0 -206 7 -197 -159 -197
-185 0 -170 27 -173 -311 -3 -256 -4 -279 -22 -298 -19 -21 -24 -21 -497 -21
l-478 0 -27 -23 -27 -24 -1 -156 c-1 -151 0 -156 23 -181 24 -26 27 -26 162
-26 190 0 180 10 182 -199 2 -210 -6 -201 187 -201 120 0 139 -2 153 -18 14
-16 17 -44 17 -185 0 -208 9 -197 -171 -197 -113 0 -129 -2 -153 -21 l-26 -20
0 -424 0 -424 23 -26 22 -25 250 -2 c326 -1 321 -2 345 22 18 18 20 33 20 153
0 72 4 137 8 143 18 27 56 34 185 34 173 0 167 -6 167 161 0 178 -10 169 196
169 213 0 204 8 204 -168 0 -169 -8 -162 178 -162 189 0 182 6 182 -175 0
-165 6 -175 98 -175 31 0 162 -1 291 -2 233 -2 234 -2 252 21 18 22 19 48 19
438 0 435 -2 460 -45 477 -9 3 -74 6 -145 6 -127 0 -129 0 -149 26 -19 24 -21
40 -21 180 0 203 -9 194 180 194 136 0 142 1 165 25 24 24 25 28 25 184 0 201
-9 191 176 191 118 0 134 2 158 21 l26 20 0 160 c0 156 -1 160 -25 184 l-24
25 -479 0 c-474 0 -479 0 -498 21 -17 19 -19 44 -24 300 -4 209 -8 281 -18
291 -9 9 -57 15 -152 18 -95 3 -143 9 -152 18 -9 9 -14 58 -16 170 -1 86 -5
167 -7 179 -10 42 -52 53 -192 52 -70 0 -142 -5 -159 -10z"/>
<path d="M5025 14146 c-53 -24 -75 -59 -107 -168 -78 -270 -161 -358 -415
-438 -55 -18 -115 -40 -131 -50 -39 -24 -67 -95 -57 -146 12 -64 55 -96 185
-137 252 -80 349 -178 416 -420 43 -155 86 -202 177 -194 80 7 109 45 152 197
68 240 163 336 423 424 53 18 107 38 119 44 67 37 70 168 5 226 -12 10 -75 36
-139 58 -249 83 -329 161 -403 393 -41 133 -64 181 -94 200 -35 23 -95 28
-131 11z"/>
<path d="M15341 14143 c-44 -22 -65 -58 -102 -178 -64 -204 -120 -287 -242
-354 -40 -22 -113 -53 -162 -69 -119 -39 -149 -55 -174 -95 -35 -57 -24 -134
27 -180 10 -10 70 -35 132 -57 268 -95 338 -168 424 -442 29 -93 42 -121 67
-142 37 -32 68 -40 117 -33 62 10 95 57 137 193 49 156 76 207 146 276 66 65
156 112 290 152 97 29 135 54 155 102 19 46 18 78 -6 124 -24 47 -59 67 -185
105 -238 72 -329 170 -410 440 -31 104 -55 142 -101 161 -43 18 -71 17 -113
-3z"/>
<path d="M3833 12791 c-229 -59 -265 -373 -54 -483 44 -23 66 -28 125 -28 60
0 79 5 123 30 62 35 100 82 119 146 40 133 -8 254 -121 309 -57 28 -140 39
-192 26z"/>
<path d="M16490 12784 c-62 -22 -105 -56 -137 -112 -24 -41 -28 -58 -28 -127
0 -65 5 -89 25 -128 27 -55 77 -103 126 -123 48 -20 160 -17 209 5 102 46 150
124 149 241 0 90 -22 140 -86 194 -71 61 -169 80 -258 50z"/>
<path d="M7000 12384 c-14 -2 -65 -9 -115 -15 -332 -39 -701 -177 -982 -365
-265 -179 -567 -501 -780 -834 -252 -394 -498 -943 -713 -1590 -175 -525 -373
-1322 -464 -1868 -138 -818 -159 -1570 -60 -2134 81 -469 234 -811 475 -1062
198 -207 480 -355 767 -402 138 -23 357 -21 502 5 329 57 677 231 975 486 170
146 210 184 353 340 255 276 432 496 692 855 266 368 317 429 468 558 190 162
405 249 677 272 55 5 739 8 1520 7 l1420 -3 110 -23 c190 -40 336 -109 490
-232 159 -128 225 -207 631 -759 180 -245 398 -509 569 -689 350 -370 678
-604 1030 -736 342 -128 727 -133 1045 -14 841 316 1165 1261 1004 2929 -68
708 -261 1602 -511 2365 -138 421 -194 577 -310 850 -281 663 -617 1182 -957
1478 -39 34 -73 65 -76 68 -3 3 -50 39 -105 80 -390 289 -865 439 -1392 439
-247 0 -494 -43 -758 -132 -131 -44 -396 -164 -515 -232 -739 -426 -1649 -567
-2484 -385 -332 73 -565 160 -955 357 -360 182 -465 228 -657 287 -240 75
-380 96 -644 100 -124 2 -236 2 -250 -1z m6471 -1510 c139 -41 264 -146 320
-269 90 -198 51 -413 -101 -565 -111 -111 -231 -157 -391 -148 -76 5 -98 11
-172 46 -182 88 -287 252 -287 447 0 227 152 433 361 489 73 20 203 20 270 0z
m-6300 -188 c87 -19 141 -47 204 -107 64 -61 113 -153 125 -239 5 -36 10 -183
10 -327 l0 -261 313 -4 c365 -4 383 -8 487 -105 104 -96 146 -213 137 -383
-10 -194 -91 -311 -267 -386 -40 -17 -80 -19 -360 -24 l-315 -5 -1 -300 c0
-261 -2 -306 -18 -350 -60 -168 -187 -270 -353 -284 -212 -17 -341 32 -444
168 -72 96 -79 141 -79 477 l0 294 -294 0 c-261 0 -301 2 -355 19 -124 38
-216 122 -263 238 -20 51 -23 75 -23 203 0 138 1 148 26 195 36 68 103 141
164 181 94 59 126 64 452 64 l293 0 0 293 c0 317 5 358 55 443 101 173 287
246 506 200z m5292 -934 c134 -66 233 -190 272 -337 54 -209 -60 -463 -250
-555 -133 -65 -269 -75 -399 -30 -110 38 -211 121 -271 224 -55 95 -78 245
-54 358 34 160 183 320 347 373 33 10 79 14 159 12 109 -3 115 -5 196 -45z
m2076 38 c83 -15 160 -59 232 -130 270 -267 178 -701 -178 -833 -82 -30 -242
-29 -328 2 -160 58 -278 184 -320 342 -18 68 -19 189 -1 254 42 159 181 307
334 356 64 20 181 24 261 9z m-1058 -1100 c241 -75 390 -315 351 -565 -15 -97
-50 -170 -115 -242 -198 -216 -517 -228 -728 -27 -106 102 -155 234 -147 394
7 130 42 205 137 300 82 81 146 121 232 144 79 21 195 20 270 -4z"/>
<path d="M16672 11727 c-28 -13 -53 -60 -77 -142 -9 -33 -25 -76 -35 -95 -37
-73 -130 -136 -251 -169 -25 -7 -59 -23 -75 -36 -25 -20 -29 -30 -29 -70 0
-59 26 -84 122 -115 93 -31 119 -45 174 -97 32 -29 54 -62 69 -101 12 -31 31
-80 42 -108 27 -72 50 -94 98 -94 54 0 80 31 114 138 51 155 91 196 244 255
113 43 143 69 145 122 1 51 -39 85 -141 119 -144 48 -201 107 -252 260 -17 52
-40 102 -53 113 -28 26 -66 34 -95 20z"/>
<path d="M3722 11723 c-17 -7 -39 -52 -64 -131 -27 -87 -41 -115 -89 -167 -38
-42 -81 -64 -211 -110 -58 -20 -88 -56 -88 -102 0 -47 40 -83 116 -107 165
-52 228 -117 278 -290 21 -72 61 -116 106 -116 63 0 80 20 124 153 51 151 119
215 278 261 147 42 143 168 -8 211 -172 50 -233 110 -283 285 -26 90 -54 120
-109 119 -20 0 -43 -3 -50 -6z"/>
</g>
</svg>
