<?xml version="1.0" standalone="no"?>
<!DOCTYPE svg PUBLIC "-//W3C//DTD SVG 20010904//EN"
 "http://www.w3.org/TR/2001/REC-SVG-20010904/DTD/svg10.dtd">
<svg version="1.0" xmlns="http://www.w3.org/2000/svg"
 width="2048.000000pt" height="2048.000000pt" viewBox="0 0 2048.000000 2048.000000"
 preserveAspectRatio="xMidYMid meet">
<metadata>
Created by potrace 1.16, written by Peter Selinger 2001-2019
</metadata>
<g transform="translate(0.000000,2048.000000) scale(0.100000,-0.100000)"
fill="#18bcf2" stroke="none">
<path d="M12767 16375 c-55 -14 -90 -43 -120 -100 -19 -36 -22 -62 -27 -235
-3 -107 -9 -202 -15 -211 -19 -31 -127 -144 -219 -227 -487 -445 -967 -716
-1367 -772 -55 -8 -141 -10 -250 -5 l-166 6 -30 -25 c-56 -47 -51 -105 19
-208 92 -137 214 -241 383 -326 151 -76 346 -132 456 -132 21 0 29 -5 29 -17
0 -10 1 -160 1 -335 2 -315 1 -318 -21 -351 -79 -113 -426 -322 -635 -382
-165 -47 -244 -56 -452 -53 -189 3 -193 3 -215 -20 -18 -18 -23 -34 -23 -76 0
-45 6 -62 39 -112 151 -229 482 -418 811 -464 50 -6 108 -15 130 -19 l40 -7 1
-293 c1 -161 6 -296 10 -300 5 -4 88 -20 184 -35 591 -93 839 -183 1050 -382
113 -107 195 -240 249 -406 13 -38 25 -68 27 -68 3 0 35 18 71 40 70 42 140
71 233 97 80 22 345 28 437 10 40 -7 75 -12 78 -9 3 3 5 35 5 71 0 131 45 237
140 331 47 47 77 87 104 143 116 239 352 330 680 261 65 -13 80 -14 87 -2 5 7
7 133 6 281 -1 147 -2 267 -2 268 0 0 20 2 45 5 302 32 422 69 629 193 177
106 351 304 351 400 0 41 -19 79 -44 88 -12 4 -120 8 -241 8 -246 1 -323 13
-494 79 -183 71 -387 195 -506 309 -62 60 -65 64 -66 112 0 28 0 176 0 330 1
154 1 285 1 291 0 6 40 16 90 22 159 22 376 103 519 196 84 54 221 188 274
268 64 97 59 175 -13 210 -30 15 -46 16 -115 6 -113 -14 -342 -4 -435 21 -249
66 -464 170 -750 363 -132 89 -313 226 -415 315 -70 62 -296 287 -307 307 -5
10 -12 107 -15 215 -6 216 -13 244 -73 295 -28 23 -44 29 -100 40 -9 2 -37 -2
-63 -9z m1023 -2555 l0 -300 -975 0 -975 0 0 300 0 300 975 0 975 0 0 -300z"/>
<path d="M9578 14565 c-183 -50 -373 -208 -456 -378 -65 -132 -86 -234 -86
-417 -1 -212 31 -352 86 -381 59 -32 277 19 454 106 181 89 312 216 394 380
51 104 71 192 71 319 0 175 -16 189 -168 158 -95 -20 -98 -20 -114 -3 -8 11
-23 59 -33 107 -23 124 -43 138 -148 109z"/>
<path d="M6460 14448 c-14 -5 -50 -36 -81 -70 l-55 -62 -67 62 c-36 34 -78 64
-93 68 -24 6 -33 1 -71 -41 -49 -54 -114 -183 -134 -265 -22 -88 -17 -232 10
-320 66 -218 281 -484 376 -465 64 12 214 192 284 338 57 120 74 193 73 318
-1 136 -60 299 -143 393 -43 48 -63 57 -99 44z"/>
<path d="M8190 13414 c-17 -15 -51 -66 -75 -114 -61 -121 -80 -126 -195 -50
-155 102 -208 90 -265 -60 -72 -192 -89 -394 -47 -556 23 -86 68 -199 103
-259 12 -20 19 -38 16 -41 -3 -3 -54 7 -114 21 -196 49 -401 31 -585 -53 -93
-42 -213 -127 -239 -169 -32 -51 -15 -96 67 -181 59 -60 84 -96 84 -122 0 -5
-38 -40 -84 -79 -131 -109 -143 -162 -59 -247 99 -98 285 -198 437 -234 98
-24 298 -29 382 -10 25 6 49 8 52 6 2 -3 -13 -29 -34 -58 -41 -58 -114 -206
-114 -232 0 -9 8 -19 18 -23 97 -34 178 -69 227 -98 32 -20 59 -34 61 -33 1 2
18 45 37 96 84 222 221 393 411 510 l49 30 -37 12 c-58 19 -139 100 -170 170
-25 55 -28 71 -24 148 2 65 9 99 26 134 31 62 89 121 154 155 48 25 63 28 153
28 85 0 107 -4 148 -23 65 -33 124 -95 159 -168 37 -79 40 -172 9 -255 -12
-30 -21 -57 -21 -60 0 -3 28 0 63 8 61 13 148 29 424 78 163 29 227 50 333
111 164 94 288 229 375 407 55 113 70 177 55 223 -15 43 -49 61 -160 84 -48
10 -97 23 -109 29 -27 15 -27 54 -1 146 35 123 24 176 -43 213 -27 14 -59 17
-192 17 -185 0 -260 -16 -399 -86 -112 -57 -161 -92 -242 -175 l-71 -72 -7
106 c-16 243 -95 425 -263 603 -132 139 -226 179 -293 123z"/>
<path d="M5283 13040 c-77 -11 -191 -45 -220 -65 -34 -24 -29 -68 17 -153 22
-40 40 -82 40 -92 0 -22 -26 -41 -90 -66 -72 -27 -110 -60 -110 -95 0 -100
187 -292 365 -375 156 -72 374 -84 560 -29 194 56 315 115 350 169 13 20 13
29 0 79 -30 115 -110 241 -234 371 -120 124 -249 206 -383 242 -68 18 -215 25
-295 14z"/>
<path d="M15120 11678 c-107 -59 -206 -162 -259 -269 -40 -82 -81 -217 -81
-267 0 -23 -6 -19 -57 37 -70 78 -143 133 -236 177 -124 58 -296 81 -372 50
-53 -22 -61 -50 -46 -156 7 -49 10 -93 7 -98 -3 -5 -40 -15 -83 -22 -107 -17
-140 -32 -147 -67 -13 -58 49 -238 110 -319 13 -18 122 -97 243 -177 399 -265
630 -446 926 -727 133 -127 287 -285 362 -372 36 -43 69 -78 74 -78 34 0 64
289 40 396 -16 68 -54 163 -87 216 l-26 41 23 -7 c227 -64 466 -22 637 113 82
65 80 99 -12 198 -31 34 -56 64 -56 69 0 5 34 41 76 80 73 68 77 73 70 105
-13 65 -130 162 -259 214 -115 47 -225 61 -344 43 -51 -8 -93 -11 -93 -6 0 4
15 32 34 61 41 64 82 158 97 224 25 113 5 312 -42 405 -28 55 -55 58 -147 15
-42 -20 -86 -37 -96 -39 -21 -3 -21 -2 -77 112 -17 36 -36 71 -41 78 -18 22
-61 13 -138 -30z m-42 -974 c210 -105 175 -424 -52 -475 -104 -23 -205 16
-263 103 -57 84 -66 143 -33 231 54 145 212 209 348 141z"/>
<path d="M9750 11374 c-339 -28 -776 -98 -1030 -164 -173 -46 -267 -94 -360
-188 -111 -111 -168 -235 -185 -402 -14 -139 -22 -116 503 -1440 27 -69 73
-186 102 -260 29 -74 107 -274 175 -445 67 -170 157 -400 200 -510 122 -315
155 -385 202 -434 l42 -43 73 5 c40 2 123 16 183 30 179 42 308 58 516 64 254
7 468 -14 684 -68 142 -36 183 -40 223 -23 71 29 94 67 182 294 88 226 160
410 200 510 43 109 153 386 264 670 42 107 92 231 110 275 18 44 71 175 116
290 45 116 118 300 162 410 198 492 203 510 195 655 -11 187 -60 304 -177 421
-124 124 -240 170 -614 244 -201 40 -547 91 -681 100 -49 4 -101 9 -115 12
-14 2 -198 6 -410 8 -279 3 -433 0 -560 -11z"/>
<path d="M5252 11303 c-11 -16 -34 -58 -52 -95 -39 -83 -49 -85 -161 -26 -76
40 -83 41 -107 27 -56 -30 -102 -176 -102 -325 0 -129 42 -261 122 -383 l22
-34 -30 6 c-165 35 -278 33 -401 -8 -130 -44 -261 -132 -284 -193 -15 -39 -1
-66 72 -138 38 -38 69 -72 69 -75 0 -4 -27 -37 -61 -74 -64 -71 -83 -106 -74
-136 8 -25 114 -103 190 -139 92 -44 204 -70 299 -70 72 0 102 4 194 26 l24 5
-22 -30 c-51 -73 -119 -275 -108 -326 2 -12 43 27 128 121 68 77 189 203 269
281 l144 142 -46 51 c-100 111 -99 254 2 356 48 48 92 65 171 65 53 0 80 -6
118 -25 49 -25 112 -89 112 -113 0 -21 12 -15 85 43 75 60 334 246 425 305 30
20 95 62 145 95 l90 58 -39 9 c-32 8 -37 13 -32 31 13 47 29 194 23 210 -4 9
-22 23 -42 31 -45 20 -201 19 -283 0 -114 -27 -240 -103 -336 -204 -32 -34
-60 -61 -61 -59 -2 2 -8 43 -14 91 -22 162 -78 279 -192 397 -117 120 -216
160 -257 103z"/>
<path d="M7215 10609 c-95 -7 -130 -18 -250 -75 -199 -95 -580 -333 -820 -514
-365 -275 -733 -626 -1055 -1010 -286 -340 -358 -451 -401 -619 -49 -192 -1
-388 136 -554 90 -108 148 -146 480 -313 440 -221 1233 -623 1410 -714 83 -43
238 -122 345 -175 237 -119 1156 -587 1295 -660 55 -29 386 -197 735 -375 692
-351 723 -367 718 -380 -2 -5 -66 -40 -143 -78 -206 -102 -320 -168 -351 -205
-43 -51 -64 -106 -64 -172 0 -50 7 -73 42 -145 36 -71 59 -102 148 -190 166
-166 355 -270 570 -313 212 -43 436 -24 636 53 287 110 546 350 586 542 21
100 -21 212 -98 263 -16 11 -126 70 -244 131 -118 61 -215 115 -217 120 -2 5
79 50 180 99 100 50 317 160 482 244 522 267 712 364 1005 514 157 79 391 199
520 265 260 133 594 303 1070 544 173 88 437 222 585 298 149 76 425 215 615
310 345 173 421 218 494 294 135 141 187 267 187 450 0 107 -28 223 -73 308
-60 113 -313 434 -534 678 -490 541 -1065 988 -1659 1290 -148 75 -214 93
-336 92 -183 -1 -343 -73 -475 -214 -91 -98 -78 -69 -396 -878 -55 -140 -174
-439 -263 -665 -238 -600 -423 -1065 -504 -1270 -81 -205 -87 -245 -45 -294
14 -17 69 -56 122 -87 206 -120 336 -219 515 -393 137 -134 177 -188 177 -242
0 -60 4 -58 -585 -359 -132 -67 -303 -155 -380 -195 -377 -194 -594 -305 -599
-305 -7 0 45 89 137 233 43 67 126 203 185 302 59 99 146 241 193 315 129 203
189 303 189 315 0 6 -34 29 -76 50 -55 28 -93 58 -135 104 -33 35 -59 68 -59
72 0 26 -30 1 -64 -53 -166 -263 -467 -754 -633 -1030 -35 -60 -69 -108 -74
-108 -5 0 -10 261 -11 653 l-3 652 -185 0 -185 0 -5 -657 -5 -657 -69 112
c-38 62 -79 128 -91 147 -33 53 -172 279 -260 425 -44 72 -110 180 -148 240
-38 61 -92 147 -119 193 -28 45 -55 85 -60 88 -5 3 -17 -4 -25 -17 -36 -54
-133 -137 -200 -172 -40 -21 -73 -40 -73 -42 0 -6 97 -164 533 -867 65 -105
132 -218 148 -250 l30 -59 -53 31 c-29 17 -154 83 -278 147 -713 367 -910 468
-1046 536 -160 80 -194 108 -194 161 0 48 32 91 174 231 132 132 270 243 404
325 226 139 257 163 267 204 11 45 13 37 -132 401 -134 335 -503 1264 -708
1785 -42 107 -99 251 -127 320 -27 69 -70 179 -95 245 -60 158 -80 196 -147
282 -105 134 -280 232 -436 245 -25 2 -81 1 -125 -3z"/>
</g>
</svg>
