<?xml version="1.0" standalone="no"?>
<!DOCTYPE svg PUBLIC "-//W3C//DTD SVG 20010904//EN"
 "http://www.w3.org/TR/2001/REC-SVG-20010904/DTD/svg10.dtd">
<svg version="1.0" xmlns="http://www.w3.org/2000/svg"
 width="2048.000000pt" height="2048.000000pt" viewBox="0 0 2048.000000 2048.000000"
 preserveAspectRatio="xMidYMid meet">
<metadata>
Created by potrace 1.16, written by Peter Selinger 2001-2019
</metadata>
<g transform="translate(0.000000,2048.000000) scale(0.100000,-0.100000)"
fill="#18bcf2" stroke="none">
<path d="M7610 17061 c-79 -24 -122 -68 -146 -148 -12 -39 -12 -54 1 -107 8
-33 147 -461 309 -950 163 -488 294 -892 291 -896 -3 -4 -31 -11 -62 -15 -75
-9 -173 -40 -246 -76 -55 -28 -168 -117 -214 -169 -106 -118 -160 -294 -134
-435 36 -193 191 -340 397 -376 152 -26 302 3 493 98 208 103 351 320 351 534
0 91 -10 122 -310 1013 -141 419 -178 541 -168 547 23 15 140 9 233 -11 211
-47 399 -180 504 -358 58 -96 81 -172 88 -280 7 -109 21 -136 72 -134 43 1 65
22 89 85 60 155 59 356 -3 543 -89 266 -305 464 -640 588 -228 85 -287 110
-364 154 -95 55 -216 162 -277 245 -108 146 -165 178 -264 148z"/>
<path d="M15400 16665 c-36 -8 -101 -33 -145 -54 -98 -49 -152 -97 -280 -256
-22 -27 -58 -70 -80 -95 -23 -25 -61 -70 -85 -100 -25 -30 -50 -61 -57 -68 -7
-7 -29 -34 -50 -60 -21 -26 -40 -49 -43 -52 -7 -6 -144 -172 -190 -229 -19
-24 -83 -101 -141 -171 -184 -223 -220 -283 -259 -435 -29 -114 -47 -323 -31
-374 9 -31 54 -83 214 -243 342 -345 530 -523 572 -543 37 -17 49 -17 155 -6
312 34 366 61 714 360 93 81 214 184 270 230 56 46 135 114 176 150 41 37 100
87 130 111 112 91 266 230 305 276 122 144 167 300 144 501 -21 189 -98 366
-242 558 -169 225 -450 419 -703 486 -104 27 -285 34 -374 14z"/>
<path d="M10855 16071 c-73 -18 -127 -66 -153 -136 -12 -33 -72 -365 -103
-569 -10 -71 -28 -179 -39 -240 -40 -220 -170 -1023 -170 -1052 0 -51 -10 -56
-71 -35 -97 35 -215 54 -292 48 -264 -21 -452 -130 -538 -313 -69 -144 -49
-343 46 -468 65 -85 218 -185 355 -232 77 -26 349 -27 429 -2 62 20 167 76
229 121 50 38 132 154 160 229 11 30 39 173 62 318 22 146 52 330 65 410 14
80 29 174 34 210 28 186 99 601 103 606 12 11 109 -36 166 -79 74 -57 140
-130 205 -227 129 -191 160 -426 81 -613 -45 -107 -51 -134 -33 -165 15 -28
45 -38 84 -28 37 9 130 101 178 174 96 148 139 294 139 472 -1 263 -95 464
-340 729 -228 246 -309 393 -347 628 -21 131 -56 179 -149 208 -54 16 -57 16
-101 6z"/>
<path d="M4695 14916 c-91 -42 -133 -112 -140 -231 -3 -44 7 -75 94 -275 158
-365 206 -478 261 -610 75 -181 353 -837 370 -875 6 -11 23 -51 39 -90 15 -38
65 -155 110 -259 45 -104 79 -191 76 -194 -3 -3 -45 -16 -93 -28 -177 -46
-305 -119 -438 -252 -96 -95 -168 -206 -201 -311 -31 -95 -35 -256 -8 -348 57
-198 211 -346 410 -396 369 -93 847 130 1018 475 63 129 80 194 79 308 0 113
-16 178 -77 325 -26 61 -77 184 -115 275 -62 150 -85 203 -140 325 -17 37 -96
221 -227 530 -30 72 -75 173 -98 225 -127 281 -127 283 -101 293 8 3 54 9 103
12 254 20 584 -104 761 -286 116 -119 208 -311 232 -487 15 -104 28 -122 88
-122 48 0 69 15 96 68 33 65 49 156 49 287 2 291 -109 562 -312 764 -144 143
-316 228 -666 330 -16 5 -55 15 -85 21 -98 22 -287 88 -372 131 -163 82 -277
173 -413 332 -58 67 -99 86 -190 86 -42 1 -75 -6 -110 -23z"/>
<path d="M13695 14488 c-46 -16 -105 -65 -265 -221 -81 -78 -254 -245 -386
-372 -131 -126 -262 -252 -290 -280 -28 -27 -102 -99 -165 -160 -63 -60 -260
-251 -437 -424 -178 -173 -333 -323 -345 -333 -12 -11 -130 -126 -262 -256
-463 -457 -906 -883 -925 -890 -5 -2 -51 30 -103 72 -95 76 -188 141 -332 232
-287 182 -557 301 -820 360 -136 31 -418 43 -560 25 -372 -49 -701 -234 -956
-539 -156 -187 -261 -364 -413 -697 -101 -220 -206 -422 -254 -488 -74 -100
-182 -201 -288 -269 -178 -114 -476 -215 -784 -264 -184 -29 -667 -147 -785
-191 -277 -103 -495 -216 -707 -366 -173 -123 -456 -387 -628 -587 -36 -41
-70 -80 -77 -87 -38 -41 -191 -287 -242 -388 -296 -589 -337 -1277 -119 -1965
69 -218 168 -435 303 -665 251 -428 480 -711 925 -1140 641 -619 1343 -1017
1995 -1130 22 -4 49 -9 60 -11 115 -21 292 -36 440 -39 517 -9 954 104 1374
355 419 250 869 747 1108 1223 81 163 112 236 169 402 38 110 90 303 108 395
2 14 16 81 30 150 32 159 29 143 57 320 10 58 36 195 59 305 17 76 69 221 123
335 42 89 132 216 211 298 49 50 85 92 80 93 -5 0 -47 0 -94 -1 -60 -1 -113 6
-180 23 -173 45 -282 107 -411 236 -121 122 -179 232 -268 514 -22 67 -44 135
-50 151 l-11 28 -56 -83 c-132 -200 -357 -358 -595 -418 -97 -24 -325 -28
-424 -7 -389 83 -667 343 -773 724 -24 87 -27 114 -26 252 0 160 9 214 55 339
105 286 337 512 622 606 311 102 649 46 916 -150 48 -34 144 -132 174 -175 16
-24 17 -24 32 -5 9 11 25 37 36 58 11 22 64 83 117 136 76 76 115 106 177 138
89 46 208 95 333 139 91 32 87 27 96 130 10 113 82 273 176 392 45 58 152 137
250 186 68 34 154 68 525 207 28 10 142 50 255 89 113 39 232 82 265 95 33 13
151 56 262 96 l202 72 59 61 c32 34 84 90 117 126 32 36 106 115 164 175 162
168 266 279 386 410 61 65 151 162 201 215 49 52 162 172 249 265 88 94 198
211 245 260 47 50 117 123 156 164 38 41 85 91 104 111 19 20 100 106 180 190
80 84 163 172 185 195 323 335 335 352 335 462 0 109 13 92 -436 535 -160 158
-244 233 -274 247 -49 22 -126 26 -175 9z m-7439 -6777 c53 -24 343 -302 1006
-968 457 -459 477 -480 492 -532 20 -69 20 -105 -1 -189 -15 -59 -23 -74 -77
-128 -77 -77 -135 -99 -240 -92 -116 8 -139 25 -451 331 -743 729 -1114 1103
-1136 1147 -32 64 -38 181 -13 251 21 59 77 127 131 160 83 51 199 59 289 20z"/>
<path d="M15075 11690 c-22 -5 -53 -14 -70 -20 -37 -15 -234 -86 -755 -273
-223 -80 -466 -168 -540 -195 -74 -28 -205 -75 -290 -105 -85 -31 -254 -92
-375 -137 -121 -45 -290 -106 -375 -136 -237 -85 -586 -212 -670 -244 -41 -16
-145 -54 -230 -84 -85 -30 -218 -78 -295 -106 -657 -242 -615 -226 -670 -264
-98 -70 -165 -195 -165 -309 0 -64 17 -118 163 -527 144 -404 137 -390 199
-421 51 -26 86 -22 213 26 49 18 153 56 230 84 77 28 176 65 220 81 44 16 157
57 250 91 94 34 224 82 290 106 125 46 384 140 615 223 74 26 259 94 410 150
151 56 325 119 385 140 61 21 202 73 315 115 113 42 311 114 440 161 129 47
278 100 330 120 52 19 100 35 105 36 6 1 37 12 70 25 61 25 180 68 445 162
250 89 384 142 417 164 37 25 63 75 63 121 0 28 -86 285 -190 566 -17 47 -41
112 -52 145 -60 174 -123 242 -268 291 -74 25 -140 29 -215 14z"/>
<path d="M16260 11591 c-47 -9 -355 -114 -402 -138 l-27 -13 54 -153 c29 -83
81 -230 115 -326 34 -95 65 -198 70 -229 19 -116 -25 -259 -108 -353 -47 -52
-136 -101 -287 -155 -55 -19 -140 -50 -190 -68 -176 -65 -483 -176 -720 -261
-132 -47 -262 -94 -290 -105 -27 -10 -133 -49 -235 -86 -102 -36 -300 -109
-440 -161 -140 -52 -329 -121 -420 -153 -155 -55 -331 -119 -670 -244 -80 -30
-201 -74 -270 -99 -151 -55 -544 -199 -730 -267 -606 -223 -600 -221 -713
-202 -92 16 -168 54 -233 117 -76 74 -77 76 -255 604 -32 95 -60 175 -62 178
-5 5 -352 -119 -397 -142 -79 -40 -164 -121 -204 -196 -40 -72 -56 -141 -56
-241 0 -82 4 -98 76 -305 42 -120 107 -307 145 -417 38 -109 81 -221 96 -249
42 -78 126 -156 217 -202 74 -37 84 -40 180 -43 108 -3 114 -2 339 77 49 17
90 31 91 31 2 0 19 -33 40 -74 61 -124 159 -199 297 -228 51 -10 72 -10 137 4
64 13 370 120 642 225 36 14 126 46 200 73 195 68 577 207 632 229 13 5 55 21
93 35 106 38 537 194 645 233 52 19 181 65 285 103 105 37 228 82 275 100 47
18 128 47 180 66 52 18 124 44 160 58 195 73 438 163 535 196 61 21 207 74
325 118 118 44 269 99 335 122 66 23 161 57 210 76 50 18 160 59 245 90 194
71 239 102 299 207 60 105 74 240 36 348 -9 24 -12 46 -8 50 5 3 58 24 118 44
230 79 331 154 398 297 82 173 77 235 -53 598 -28 80 -74 210 -102 290 -108
316 -144 377 -269 462 -102 69 -222 98 -329 79z m314 -714 c98 -56 100 -187 4
-248 -41 -25 -122 -22 -161 7 -39 29 -61 85 -53 134 8 54 31 87 75 110 48 25
88 24 135 -3z m-730 -917 c36 -13 51 -41 107 -201 81 -229 81 -230 68 -262
-14 -34 -49 -52 -194 -102 -60 -21 -129 -46 -153 -57 -56 -23 -107 -23 -130 0
-17 17 -87 204 -137 364 -26 81 -13 107 68 143 47 21 332 124 344 125 1 0 13
-4 27 -10z m-783 -311 c25 -25 47 -77 103 -238 55 -162 60 -193 36 -224 -11
-13 -32 -29 -47 -35 -84 -31 -341 -120 -362 -125 -54 -13 -70 12 -144 218 -72
205 -77 225 -61 256 14 28 15 29 109 64 298 113 329 121 366 84z m-820 -279
c26 -15 38 -41 108 -240 67 -189 71 -227 28 -255 -12 -8 -72 -32 -132 -54 -61
-21 -145 -52 -187 -67 -129 -48 -142 -34 -233 241 -48 144 -55 174 -46 197 17
44 70 71 306 152 109 38 127 41 156 26z m-786 -325 c11 -17 49 -117 84 -222
64 -188 64 -191 47 -217 -20 -31 -11 -27 -221 -102 -178 -63 -213 -71 -244
-55 -30 16 -43 47 -112 250 -58 174 -59 181 -44 210 19 38 28 42 183 96 70 24
143 51 162 59 19 9 55 15 80 13 37 -2 48 -7 65 -32z m-822 -277 c26 -26 147
-366 147 -411 0 -63 -19 -76 -209 -143 -69 -25 -145 -52 -169 -61 -47 -17 -86
-8 -115 25 -22 25 -139 387 -135 418 2 15 15 36 29 46 34 25 365 147 402 147
16 1 37 -8 50 -21z m-2203 -126 c82 -60 77 -202 -9 -247 -67 -34 -164 -7 -196
55 -21 41 -19 109 5 148 40 66 140 88 200 44z m1395 -176 c13 -13 35 -59 48
-102 14 -44 42 -124 62 -178 43 -118 44 -169 5 -198 -14 -10 -111 -48 -214
-83 -176 -60 -190 -63 -216 -50 -32 17 -48 52 -124 276 -75 221 -82 207 134
280 63 21 138 48 165 58 69 27 110 27 140 -3z"/>
<path d="M14605 7629 c-93 -5 -158 -14 -230 -33 -271 -72 -440 -171 -600 -353
-94 -107 -149 -196 -198 -318 -59 -150 -72 -227 -71 -420 0 -163 2 -174 33
-275 54 -173 133 -316 215 -388 20 -17 36 -34 36 -37 0 -9 -260 -5 -385 6 -66
5 -199 23 -295 40 -398 67 -472 74 -760 73 -200 -1 -239 -4 -351 -27 -413 -85
-709 -250 -890 -499 -27 -38 -47 -68 -44 -68 3 0 32 11 65 25 98 41 320 102
452 124 407 67 714 53 1373 -64 287 -51 462 -66 745 -66 315 1 431 15 643 77
133 39 259 98 299 141 39 41 59 98 60 168 0 66 -13 100 -59 151 -40 46 -79 62
-175 74 -160 20 -261 70 -361 181 -66 73 -122 179 -137 258 -39 209 25 423
170 567 87 86 161 132 287 175 96 33 101 34 268 34 198 0 257 -12 400 -81 268
-130 460 -387 526 -704 27 -132 27 -343 -1 -479 -102 -500 -459 -836 -1015
-955 -67 -14 -217 -30 -374 -40 -100 -6 -425 14 -643 39 -142 17 -307 45 -538
90 -399 79 -614 105 -900 110 -722 13 -1328 -212 -1775 -659 -141 -142 -182
-200 -194 -275 -12 -73 3 -131 47 -181 44 -53 101 -79 168 -80 83 0 137 34
262 168 253 270 561 443 935 526 339 75 717 67 1187 -25 85 -16 200 -38 255
-49 123 -24 385 -64 520 -80 55 -6 114 -13 130 -15 192 -26 572 -34 745 -15
304 32 545 97 764 207 281 141 530 375 692 650 69 118 154 348 186 503 20 101
23 142 22 335 -1 203 -3 229 -28 338 -57 249 -124 399 -258 579 -99 133 -261
286 -378 355 -253 150 -498 207 -825 192z"/>
</g>
</svg>
