<?xml version="1.0" standalone="no"?>
<!DOCTYPE svg PUBLIC "-//W3C//DTD SVG 20010904//EN"
 "http://www.w3.org/TR/2001/REC-SVG-20010904/DTD/svg10.dtd">
<svg version="1.0" xmlns="http://www.w3.org/2000/svg"
 width="2048.000000pt" height="2048.000000pt" viewBox="0 0 2048.000000 2048.000000"
 preserveAspectRatio="xMidYMid meet">
<metadata>
Created by potrace 1.16, written by Peter Selinger 2001-2019
</metadata>
<g transform="translate(0.000000,2048.000000) scale(0.100000,-0.100000)"
fill="#18bcf2" stroke="none">
<path d="M12570 16069 c-25 -4 -121 -6 -215 -2 -156 5 -175 4 -233 -16 -124
-42 -207 -115 -258 -226 -41 -91 -60 -169 -79 -336 -31 -272 -72 -344 -274
-482 -84 -57 -111 -82 -142 -130 -22 -33 -44 -76 -50 -96 -7 -20 -15 -148 -19
-286 -8 -260 -14 -299 -57 -375 -23 -40 -254 -392 -560 -851 l-104 -156 30
-65 c17 -35 45 -100 64 -144 93 -215 132 -305 164 -374 20 -41 55 -122 80
-180 25 -58 49 -109 53 -114 5 -5 20 13 33 40 14 27 63 114 109 194 46 80 112
192 145 250 33 58 145 254 248 435 104 182 208 363 232 402 23 40 43 76 43 79
0 14 102 144 139 177 50 45 150 100 227 125 243 79 374 207 404 395 19 119 39
197 64 246 32 62 136 159 221 206 225 124 351 246 383 370 40 154 14 273 -97
445 -22 34 -52 93 -67 133 -81 218 -128 292 -208 328 -45 20 -188 24 -276 8z"/>
<path d="M11493 16033 c-65 -36 -148 -170 -160 -259 -18 -132 102 -230 221
-180 49 21 83 62 129 155 62 127 54 215 -25 274 -38 29 -123 34 -165 10z"/>
<path d="M11135 15320 c-68 -34 -154 -170 -170 -267 -12 -74 39 -155 113 -178
13 -4 44 -4 69 0 38 5 55 16 97 58 58 59 126 183 126 232 0 40 -18 94 -39 119
-22 26 -89 56 -126 56 -16 0 -48 -9 -70 -20z"/>
<path d="M9265 15057 c-84 -32 -151 -80 -178 -130 -19 -36 -22 -56 -20 -139
l1 -96 -55 -64 c-94 -107 -106 -168 -51 -270 37 -70 81 -103 160 -119 119 -26
165 -67 204 -186 23 -72 25 -86 13 -97 -8 -8 -60 -31 -116 -51 -101 -37 -104
-38 -140 -22 -90 38 -159 29 -216 -28 -45 -45 -61 -93 -54 -161 7 -66 40 -127
89 -167 97 -78 254 -21 285 103 9 33 14 37 109 72 54 20 104 37 110 37 6 1 16
-16 22 -36 5 -21 24 -87 42 -146 17 -59 30 -113 27 -120 -2 -6 -41 -28 -86
-48 l-83 -37 -55 25 c-100 46 -201 12 -247 -82 -43 -90 2 -232 89 -283 33 -19
52 -22 105 -20 83 4 122 30 158 106 26 53 29 56 102 83 41 15 81 28 87 28 7 1
22 -18 34 -41 12 -24 48 -70 79 -103 69 -72 71 -76 131 -240 120 -332 259
-715 355 -975 134 -365 183 -500 290 -795 48 -132 118 -325 155 -430 38 -104
69 -192 69 -195 0 -4 -43 -31 -96 -61 -208 -117 -444 -323 -552 -481 -61 -90
-131 -246 -164 -368 -20 -74 -23 -109 -23 -260 0 -159 3 -184 27 -270 56 -202
123 -328 273 -515 53 -66 113 -151 132 -190 34 -66 36 -77 40 -185 5 -130 13
-160 55 -195 35 -29 87 -33 162 -10 69 21 181 19 232 -4 132 -60 268 -316 325
-613 17 -91 20 -136 16 -237 -5 -138 -18 -187 -74 -283 -41 -71 -95 -110 -194
-143 -113 -38 -142 -60 -153 -118 -11 -58 0 -85 71 -173 27 -33 60 -85 73
-115 25 -58 26 -67 34 -459 6 -323 57 -505 209 -760 63 -104 247 -293 354
-363 318 -207 730 -271 1188 -186 352 65 680 177 1026 349 403 201 705 447
892 727 82 124 114 189 165 338 50 145 63 230 63 393 0 137 -10 208 -47 329
-73 245 -182 419 -412 659 -101 104 -130 142 -163 209 -37 75 -42 91 -48 187
-7 115 -19 144 -74 179 -43 27 -95 21 -188 -22 -65 -30 -83 -34 -159 -34 -77
0 -91 3 -153 35 -185 94 -367 343 -468 640 -28 81 -33 109 -33 195 0 83 3 109
22 151 30 66 58 93 154 144 90 48 118 84 118 153 0 41 -6 52 -61 118 -109 130
-133 203 -149 450 -16 238 -58 398 -147 559 -132 239 -362 433 -609 516 -239
80 -542 85 -841 14 -47 -11 -91 -20 -99 -20 -8 0 -25 24 -38 53 -132 294 -265
590 -342 767 -52 118 -99 224 -104 235 -59 129 -113 252 -120 269 -4 12 -42
100 -85 196 -42 96 -99 227 -127 290 -55 127 -123 280 -170 380 -17 36 -37 81
-45 100 -8 19 -23 53 -33 75 -10 22 -26 58 -35 80 -11 24 -21 83 -25 150 -6
79 -15 131 -34 185 -15 41 -28 79 -29 83 -1 4 38 25 86 46 l88 38 37 -18 c71
-34 150 -29 198 13 47 42 64 83 64 156 0 118 -75 210 -180 220 -73 7 -151 -33
-179 -92 -12 -23 -21 -49 -21 -58 0 -9 -6 -20 -12 -25 -18 -13 -178 -76 -183
-72 -2 2 -36 66 -75 143 -59 115 -69 141 -58 151 7 7 55 29 106 50 l94 37 49
-22 c127 -54 254 31 253 170 -1 246 -310 320 -374 90 -9 -33 -16 -37 -107 -72
-149 -56 -140 -56 -154 -6 -17 64 -7 173 20 209 67 91 70 98 67 162 -4 87 -45
160 -106 192 -14 7 -56 16 -95 20 -88 9 -133 32 -185 94 -70 83 -165 102 -285
58z m3491 -6921 c71 -33 116 -76 178 -170 51 -78 79 -139 181 -389 90 -222
184 -339 272 -339 53 0 67 20 55 75 -11 53 3 95 39 121 72 50 149 -14 149
-124 0 -64 -27 -118 -79 -159 -58 -46 -102 -61 -181 -61 -89 0 -143 26 -232
109 -83 77 -134 169 -228 406 -42 104 -89 214 -105 244 -33 60 -114 151 -135
151 -7 0 -33 -21 -56 -46 -69 -73 -150 -73 -174 1 -10 30 -9 41 10 79 53 110
190 156 306 102z m-1052 -400 c18 -7 42 -25 53 -40 17 -21 19 -33 12 -64 -9
-40 -40 -72 -71 -72 -10 0 -39 5 -64 11 -39 10 -47 9 -64 -6 -41 -37 -20 -188
55 -395 141 -390 157 -499 96 -660 -41 -110 -152 -186 -259 -178 -79 6 -129
32 -163 87 -55 86 -29 171 53 171 30 0 43 -6 65 -32 52 -60 63 -68 87 -68 16
0 33 11 48 33 21 29 23 42 22 142 -1 119 1 112 -109 420 -75 209 -101 372 -75
465 5 19 24 60 42 90 56 93 177 136 272 96z"/>
<path d="M13298 14946 c-62 -17 -108 -53 -156 -126 -96 -143 -89 -256 19 -311
83 -42 172 -4 254 108 85 117 95 205 32 276 -46 53 -90 68 -149 53z"/>
<path d="M14294 14866 l-34 -34 -1 -446 c-1 -245 -3 -450 -4 -456 -1 -5 -3
-14 -4 -19 0 -4 -45 -11 -99 -14 -179 -9 -310 -85 -374 -214 -92 -188 19 -365
240 -380 148 -10 275 37 362 135 89 99 89 102 90 550 1 213 5 394 10 401 6 10
23 12 63 8 106 -11 193 -76 257 -193 23 -40 46 -76 51 -80 19 -12 56 6 68 33
22 47 25 181 7 253 -39 153 -114 240 -284 329 -59 31 -126 76 -160 107 -52 49
-61 53 -105 54 -43 0 -54 -5 -83 -34z"/>
<path d="M12781 14316 c-132 -47 -231 -262 -173 -376 41 -82 163 -99 249 -34
35 27 94 110 118 167 21 51 19 135 -4 173 -45 74 -111 99 -190 70z"/>
<path d="M7225 13526 c-85 -20 -172 -54 -305 -121 -172 -86 -360 -218 -649
-454 -280 -229 -336 -275 -512 -416 -596 -478 -1177 -885 -1660 -1162 -48 -28
-95 -53 -104 -57 -46 -17 -172 -101 -194 -128 -35 -43 -40 -116 -12 -161 42
-68 111 -90 196 -62 76 25 311 143 490 245 324 186 828 531 1270 868 218 167
386 303 731 592 329 276 618 455 801 496 181 40 344 -13 549 -179 43 -35 153
-135 244 -222 320 -307 435 -404 565 -475 33 -19 62 -35 64 -37 9 -7 -66 -77
-164 -153 -204 -158 -424 -298 -663 -420 -106 -54 -127 -73 -138 -127 -9 -44
36 -92 92 -100 93 -12 313 56 530 165 180 90 396 234 647 431 315 247 434 331
582 411 44 24 82 45 84 46 4 4 -96 292 -109 314 -12 19 -68 -7 -270 -128 -85
-51 -173 -97 -195 -103 -63 -17 -173 -14 -235 6 -117 39 -284 167 -530 409
-273 268 -391 361 -565 449 -125 62 -194 79 -345 83 -91 2 -154 -1 -195 -10z"/>
<path d="M12390 13098 c-36 -5 -110 -6 -165 -3 -89 5 -104 3 -133 -15 -88 -54
-74 -98 197 -645 121 -242 516 -1038 880 -1769 364 -730 661 -1329 661 -1331
0 -1 172 -349 381 -771 362 -729 497 -1002 1001 -2024 305 -618 341 -677 429
-700 52 -14 96 -2 221 62 72 37 105 48 123 44 20 -5 38 -32 89 -134 35 -70 77
-139 93 -154 56 -53 157 -43 200 21 40 59 32 102 -42 243 -134 253 -1828 3652
-2490 4993 -106 215 -373 753 -593 1197 -369 740 -406 811 -458 868 -101 109
-212 142 -394 118z m270 -453 c18 -18 59 -88 98 -170 37 -77 217 -444 402
-815 184 -371 435 -877 557 -1125 122 -247 462 -934 756 -1525 294 -591 571
-1149 615 -1240 44 -91 129 -266 190 -390 188 -386 242 -523 242 -622 0 -49
-4 -63 -25 -83 -30 -31 -77 -33 -105 -5 -11 11 -101 183 -199 383 -98 199
-315 637 -481 972 -166 336 -436 880 -600 1210 -538 1086 -1039 2093 -1255
2525 -219 438 -418 848 -429 887 -9 28 6 32 116 30 82 -2 89 -4 118 -32z"/>
<path d="M13940 12575 c-82 -17 -145 -38 -239 -81 -91 -42 -282 -155 -288
-171 -3 -8 123 -274 144 -302 1 -2 42 19 90 47 235 134 303 157 468 156 131
-1 187 -15 309 -76 103 -52 311 -199 536 -379 349 -280 559 -433 810 -591 298
-188 690 -368 800 -368 73 0 146 72 144 145 -2 87 -14 97 -300 240 -350 175
-603 341 -919 598 -681 556 -945 728 -1202 782 -83 18 -265 18 -353 0z"/>
<path d="M11360 12418 c-47 -74 -150 -265 -150 -278 0 -8 11 -22 23 -31 12 -9
72 -52 132 -95 383 -276 544 -361 796 -418 94 -21 264 -32 273 -17 7 11 -134
323 -158 348 -6 7 -51 24 -101 38 -174 50 -368 161 -660 378 -71 53 -132 97
-135 97 -3 0 -12 -10 -20 -22z"/>
<path d="M9791 11953 c-59 -92 -218 -335 -434 -663 -85 -129 -230 -350 -322
-490 -398 -607 -764 -1161 -776 -1176 -8 -9 -28 -6 -87 16 -218 79 -516 127
-808 129 -461 4 -838 -84 -1245 -290 -325 -165 -584 -374 -860 -694 -256 -296
-473 -747 -554 -1149 -47 -235 -57 -351 -52 -606 5 -257 19 -370 69 -570 128
-518 382 -952 768 -1316 443 -418 968 -661 1575 -728 187 -20 502 -14 665 14
483 83 896 262 1260 547 185 144 412 385 559 591 248 351 422 824 462 1263 23
254 -3 627 -62 864 -61 244 -184 555 -289 731 -61 101 -182 284 -202 305 -7 8
-33 39 -58 69 -24 30 -93 105 -154 167 l-109 112 105 178 c58 98 145 248 193
333 128 226 235 413 457 800 227 394 338 591 338 599 0 5 -36 107 -81 228 -44
120 -103 281 -130 358 -28 77 -56 156 -64 175 -8 19 -33 90 -56 158 -23 67
-45 122 -50 122 -4 0 -31 -35 -58 -77z m-2186 -2789 c55 -7 132 -21 170 -30
73 -17 286 -82 293 -89 4 -4 -15 -35 -190 -315 -117 -187 -183 -294 -355 -575
-77 -126 -189 -309 -248 -405 -60 -96 -135 -220 -168 -275 -172 -288 -331
-535 -344 -535 -9 0 -56 24 -107 54 -112 67 -148 75 -209 48 -52 -23 -77 -55
-84 -109 -10 -79 57 -135 432 -360 127 -76 321 -194 432 -264 261 -163 316
-178 382 -104 53 61 50 142 -7 201 -15 15 -61 49 -102 75 -124 80 -117 72
-100 105 15 29 93 158 328 544 69 113 134 221 145 240 11 19 30 51 42 70 12
19 37 60 55 90 18 30 61 100 95 155 58 95 114 187 193 320 20 33 55 90 79 127
24 37 65 103 91 147 26 44 92 154 146 245 l99 165 38 -30 c61 -48 236 -237
303 -326 277 -373 421 -822 411 -1283 -6 -261 -53 -521 -129 -703 -124 -299
-259 -506 -470 -721 -150 -153 -240 -226 -391 -318 -288 -177 -534 -261 -895
-307 -233 -30 -708 27 -893 108 -45 19 -47 22 -35 43 7 12 54 70 103 128 271
319 305 368 305 440 0 79 -33 114 -195 210 -49 29 -106 63 -125 75 -297 188
-365 222 -425 211 -61 -12 -90 -47 -138 -169 -70 -174 -176 -429 -190 -456 -6
-14 -17 -26 -23 -28 -23 -8 -263 248 -279 296 -5 15 2 32 22 59 77 99 113 193
113 293 0 61 -7 88 -55 212 -83 212 -118 375 -130 596 -6 104 7 292 26 386 5
28 12 66 15 85 3 19 21 82 39 140 47 147 59 223 46 296 -13 71 -57 168 -98
214 -16 19 -35 44 -40 54 -13 24 -6 35 86 155 161 209 341 375 556 513 236
152 550 267 827 303 133 17 425 17 553 -1z m787 -276 c48 -29 88 -57 88 -62 0
-5 -17 -37 -38 -70 -41 -65 -60 -96 -302 -491 -84 -137 -177 -288 -205 -335
-29 -47 -130 -213 -225 -370 -96 -157 -230 -377 -298 -490 -69 -113 -147 -243
-175 -288 -28 -46 -56 -86 -64 -89 -12 -5 -136 62 -175 95 -16 14 -16 17 4 56
11 22 38 68 60 100 22 33 49 78 60 100 23 45 228 378 238 386 3 3 62 97 129
210 68 113 166 275 219 360 121 197 150 245 410 675 158 262 160 265 175 265
6 0 50 -23 99 -52z"/>
<path d="M6590 11914 c-66 -27 -64 -11 -66 -524 l-3 -465 -88 -8 c-205 -18
-335 -93 -399 -231 -30 -64 -32 -153 -5 -211 22 -50 88 -110 149 -137 61 -27
194 -29 272 -5 119 36 229 136 271 247 18 46 19 80 19 434 0 323 2 387 14 399
13 13 23 13 78 0 107 -24 193 -94 247 -200 12 -24 33 -50 47 -60 25 -16 27
-16 40 2 39 53 46 205 14 306 -45 144 -104 207 -279 301 -53 29 -118 73 -146
99 -79 73 -101 80 -165 53z"/>
</g>
</svg>
