<?xml version="1.0" standalone="no"?>
<!DOCTYPE svg PUBLIC "-//W3C//DTD SVG 20010904//EN"
 "http://www.w3.org/TR/2001/REC-SVG-20010904/DTD/svg10.dtd">
<svg version="1.0" xmlns="http://www.w3.org/2000/svg"
 width="2048.000000pt" height="2048.000000pt" viewBox="0 0 2048.000000 2048.000000"
 preserveAspectRatio="xMidYMid meet">
<metadata>
Created by potrace 1.16, written by Peter Selinger 2001-2019
</metadata>
<g transform="translate(0.000000,2048.000000) scale(0.100000,-0.100000)"
fill="#18bcf2" stroke="none">
<path d="M11705 16419 c-101 -7 -141 -27 -166 -82 -26 -59 -24 -92 12 -156 58
-102 378 -568 408 -594 35 -29 107 -47 189 -47 124 0 323 -50 450 -113 l62
-31 -132 -33 c-220 -54 -293 -103 -291 -193 1 -47 23 -89 136 -256 51 -76 122
-188 156 -249 34 -60 74 -122 88 -137 36 -37 98 -56 228 -67 61 -6 126 -15
145 -20 41 -13 100 -47 100 -59 0 -4 -48 -31 -107 -59 -60 -28 -119 -63 -133
-78 -38 -40 -33 -106 14 -220 21 -49 41 -97 44 -105 3 -8 -23 9 -59 38 -150
121 -185 147 -277 209 -180 121 -449 234 -669 283 -48 11 -156 25 -239 31
-442 35 -891 -87 -1254 -340 -312 -218 -516 -453 -697 -806 -83 -162 -92 -197
-68 -249 22 -45 87 -86 139 -86 20 0 105 13 189 30 83 16 245 45 360 64 114
20 220 42 236 51 33 17 57 47 94 121 35 69 101 169 155 233 51 59 212 204 220
197 2 -3 -5 -31 -16 -63 -47 -128 -65 -309 -37 -363 35 -67 61 -70 315 -40 91
10 235 24 320 30 209 15 253 37 336 168 72 112 161 202 202 202 8 0 11 -7 8
-17 -13 -45 -24 -221 -16 -258 13 -59 55 -92 127 -99 104 -11 332 -56 416 -82
124 -39 267 -96 267 -105 0 -5 -15 -30 -34 -56 -121 -172 -486 -829 -520 -939
-4 -15 9 -47 45 -110 59 -101 266 -523 325 -661 21 -51 42 -93 46 -93 8 0 19
39 88 300 66 252 150 501 262 770 101 245 212 480 227 480 36 0 248 -334 333
-525 90 -203 85 -195 124 -211 48 -20 94 -9 223 52 51 24 98 44 102 44 35 0
-30 -148 -121 -276 -34 -47 -65 -97 -71 -111 -17 -45 -9 -129 22 -233 16 -57
57 -206 89 -332 60 -233 73 -267 113 -292 49 -30 88 -28 167 10 79 37 184 107
237 157 18 17 35 28 38 25 3 -3 -11 -54 -30 -114 -52 -157 -136 -308 -233
-418 -43 -49 -72 -111 -72 -158 0 -20 20 -115 44 -210 24 -95 65 -263 91 -373
26 -110 56 -214 66 -231 40 -66 149 -87 214 -43 57 39 231 264 335 435 63 102
159 330 196 463 149 540 111 1053 -112 1511 -171 351 -459 673 -801 894 -40
26 -73 49 -73 52 0 3 4 3 8 0 4 -3 84 -37 177 -76 189 -80 210 -83 262 -27 17
17 45 66 62 107 42 101 54 124 66 124 19 1 56 -128 76 -267 28 -197 39 -214
189 -307 129 -80 255 -166 360 -245 116 -88 148 -105 197 -105 48 0 78 20 103
70 24 48 66 189 81 275 6 36 15 68 20 71 13 8 63 -106 93 -208 29 -101 43
-187 56 -342 9 -114 19 -147 54 -181 19 -18 579 -437 611 -457 41 -25 118 -24
160 2 55 34 60 61 59 295 0 230 -15 343 -75 560 -72 265 -168 461 -335 686
-390 524 -1014 828 -1699 829 -115 0 -387 -23 -465 -40 -58 -12 -62 -12 -55
-1 3 5 62 28 130 51 145 48 160 62 159 144 0 29 -14 93 -33 150 -17 54 -30
101 -27 103 20 20 126 -47 241 -152 124 -112 134 -117 240 -112 50 3 135 12
190 20 55 9 181 23 280 32 99 8 191 18 205 21 38 7 78 49 86 89 9 51 -43 208
-105 315 -27 47 -47 87 -45 89 6 7 133 -58 196 -100 83 -56 111 -80 249 -214
95 -93 123 -115 155 -121 51 -9 756 20 793 34 26 9 65 42 78 65 19 34 15 106
-7 152 -27 57 -156 210 -271 322 -173 170 -303 263 -516 371 -271 138 -523
201 -833 209 -212 6 -349 -9 -539 -58 -260 -67 -511 -198 -746 -387 -101 -83
-291 -275 -358 -365 -61 -81 -80 -95 -69 -49 13 58 5 436 -12 542 -53 338
-200 682 -383 897 -245 289 -502 476 -831 603 -263 102 -551 148 -807 129z"/>
<path d="M9609 15112 c-74 -38 -111 -93 -117 -171 -5 -71 10 -121 51 -167 60
-69 144 -95 229 -70 96 28 157 112 158 214 0 67 -18 109 -68 159 -69 68 -164
82 -253 35z"/>
<path d="M6365 14728 c-85 -31 -145 -98 -160 -180 -24 -127 89 -258 221 -258
122 0 224 107 224 235 -1 137 -158 248 -285 203z"/>
<path d="M9285 14580 c-67 -15 -106 -55 -190 -195 -260 -432 -347 -969 -235
-1460 35 -157 188 -209 283 -96 36 44 41 88 18 178 -60 235 -53 529 19 798 47
179 118 331 229 495 42 62 51 82 51 118 0 105 -85 183 -175 162z"/>
<path d="M6940 14388 c-55 -28 -83 -74 -82 -134 0 -60 28 -103 90 -139 28 -16
100 -58 159 -93 366 -212 686 -526 923 -904 35 -57 114 -202 175 -322 70 -139
119 -226 136 -238 41 -31 100 -34 151 -9 54 27 79 61 86 116 5 47 -33 145
-130 339 -215 430 -537 824 -896 1096 -118 89 -402 265 -468 289 -69 27 -89
26 -144 -1z"/>
<path d="M4626 13666 c-168 -62 -206 -266 -72 -384 99 -86 272 -56 336 58 38
68 36 160 -5 226 -56 90 -169 133 -259 100z"/>
<path d="M5260 13612 c-73 -39 -101 -156 -53 -220 48 -65 53 -66 306 -74 230
-7 378 -22 553 -58 494 -102 883 -275 1270 -566 62 -46 191 -160 287 -253 102
-100 186 -173 201 -177 41 -10 102 2 137 26 38 28 59 75 59 134 0 56 -32 98
-198 257 -343 330 -716 568 -1137 724 -402 149 -785 220 -1215 224 -153 1
-179 -1 -210 -17z"/>
<path d="M10805 12649 c-857 -65 -1894 -396 -2717 -868 -674 -386 -1028 -783
-970 -1091 39 -214 203 -332 547 -396 155 -29 617 -27 850 5 478 63 1054 213
1517 395 795 311 1445 712 1729 1066 63 79 129 193 150 260 28 88 28 206 1
278 -51 134 -201 252 -384 302 -171 47 -481 68 -723 49z m505 -314 c188 -28
285 -75 310 -150 46 -139 -236 -434 -675 -706 -507 -314 -1186 -595 -1800
-744 -487 -118 -774 -159 -1125 -159 -277 -1 -406 20 -517 84 -69 40 -89 76
-73 138 6 24 19 61 30 81 31 61 146 186 253 276 93 79 353 258 502 347 88 53
358 194 445 233 41 18 122 54 180 80 594 264 1306 461 1895 524 136 14 470 12
575 -4z"/>
<path d="M6116 12429 c-201 -27 -477 -107 -601 -172 -104 -56 -134 -141 -80
-232 45 -77 121 -94 221 -49 146 65 343 121 509 144 129 17 373 13 500 -9 197
-34 276 -60 478 -155 136 -64 183 -71 237 -33 103 70 89 202 -30 274 -133 80
-371 168 -564 209 -107 23 -149 26 -361 29 -132 2 -271 -1 -309 -6z"/>
<path d="M4914 11996 c-91 -41 -140 -124 -132 -223 14 -191 245 -273 382 -136
93 94 69 265 -48 337 -57 36 -150 46 -202 22z"/>
<path d="M12147 11808 c-8 -13 -31 -52 -52 -87 -224 -376 -833 -819 -1605
-1166 -400 -180 -915 -351 -1352 -449 -438 -98 -762 -139 -1118 -140 -310 -1
-517 34 -732 121 -48 20 -90 34 -92 32 -6 -5 35 -248 64 -384 70 -325 196
-743 305 -1010 122 -299 256 -555 418 -798 143 -213 236 -327 427 -518 215
-216 389 -349 615 -474 358 -197 731 -299 1145 -312 462 -14 891 84 1311 300
383 198 707 492 961 875 204 309 362 742 413 1137 19 143 36 432 30 515 -2 36
-7 119 -10 185 -20 436 -162 1020 -371 1522 -93 223 -319 673 -339 673 -2 0
-11 -10 -18 -22z m-309 -965 c55 -41 247 -451 342 -728 202 -592 255 -1180
150 -1667 -28 -131 -99 -336 -129 -370 -66 -79 -179 -74 -237 11 -29 44 -32
108 -5 166 82 181 128 498 118 810 -15 448 -157 973 -392 1447 -84 169 -91
194 -75 253 29 104 142 142 228 78z m-1484 -749 c24 -12 49 -41 88 -101 29
-47 75 -119 101 -160 86 -134 241 -456 323 -671 106 -276 234 -757 234 -881 0
-117 -129 -191 -227 -130 -45 28 -61 62 -83 177 -53 281 -169 657 -270 882
-91 201 -217 442 -294 563 -41 64 -79 131 -85 149 -21 66 19 152 81 177 36 15
94 12 132 -5z m-2060 -469 c47 -23 74 -78 96 -202 71 -392 241 -877 413 -1178
211 -371 433 -624 683 -780 113 -70 141 -97 155 -146 31 -103 -65 -206 -174
-185 -36 7 -169 86 -278 166 -74 54 -251 227 -337 331 -209 249 -406 598 -546
967 -100 262 -212 692 -223 853 -5 67 -3 82 17 117 38 67 121 91 194 57z
m1702 -208 c18 -19 37 -53 42 -74 220 -953 544 -1590 987 -1938 114 -90 127
-106 133 -165 5 -60 -10 -101 -50 -135 -66 -55 -134 -42 -259 53 -314 235
-611 663 -828 1192 -122 296 -271 824 -271 959 0 55 26 103 72 132 26 16 45
19 87 16 47 -3 59 -9 87 -40z"/>
<path d="M6395 11089 c-129 -65 -346 -231 -443 -338 -296 -325 -442 -702 -442
-1137 0 -280 71 -537 230 -828 38 -70 70 -129 70 -131 0 -2 -25 11 -55 30
-202 121 -507 208 -780 221 -592 29 -1172 -335 -1442 -906 -73 -154 -142 -390
-145 -491 -1 -63 23 -98 79 -118 35 -13 48 -13 99 1 82 21 543 203 574 226 18
14 36 51 65 138 46 137 110 266 169 342 l41 52 6 -157 c6 -166 11 -187 55
-222 36 -28 86 -27 170 5 38 14 141 48 229 76 282 87 274 82 345 247 51 118
109 196 121 165 4 -11 8 -43 8 -72 1 -83 19 -139 54 -168 31 -26 34 -26 137
-20 l105 6 -110 -36 c-347 -111 -583 -247 -808 -464 -254 -244 -422 -548 -498
-900 -30 -139 -37 -427 -15 -575 25 -160 68 -317 127 -460 79 -192 116 -238
194 -238 63 0 96 30 161 146 32 56 85 149 119 207 35 58 84 147 111 198 47 90
48 94 37 140 -6 26 -27 88 -46 138 -43 110 -67 238 -67 358 l0 90 59 -90 c101
-152 169 -204 247 -190 40 8 46 16 129 166 35 63 90 157 122 209 142 231 141
224 93 390 -32 109 -50 241 -33 241 5 0 27 -18 48 -41 90 -93 162 -121 217
-85 14 9 58 59 98 111 39 52 74 95 77 95 2 0 -14 -33 -37 -72 -255 -449 -332
-953 -215 -1414 52 -207 169 -453 297 -624 160 -215 414 -431 668 -568 157
-84 225 -88 275 -14 31 46 33 108 6 253 -11 57 -32 172 -46 254 -40 229 -44
248 -65 282 -11 18 -39 42 -62 54 -63 32 -156 88 -216 132 -65 47 -189 163
-204 190 -9 17 -7 19 13 14 240 -53 305 -59 355 -28 58 35 60 57 20 257 -19
99 -45 238 -57 309 -31 189 -29 186 -207 299 -73 46 -162 122 -162 137 0 5 48
8 108 7 109 -1 151 9 181 46 9 10 13 81 15 253 3 225 18 375 43 442 9 23 13
21 134 -76 259 -209 608 -535 805 -753 103 -115 201 -226 225 -256 13 -17 79
-99 146 -182 67 -83 139 -177 162 -209 22 -32 66 -94 98 -138 358 -492 729
-1207 948 -1829 31 -88 48 -122 63 -127 16 -6 138 -6 645 0 l49 1 -35 41 c-48
55 -102 161 -120 234 -24 95 -31 174 -43 520 -6 179 -6 180 -40 248 -71 142
-353 590 -518 822 -153 215 -312 414 -520 650 -132 149 -531 542 -701 691
-341 297 -666 540 -948 708 -54 32 -97 62 -97 68 0 35 298 295 423 369 31 19
55 38 53 44 -31 70 -96 234 -136 340 -51 138 -172 531 -184 598 -4 20 -10 37
-14 37 -12 0 -103 -97 -164 -175 -95 -120 -221 -348 -259 -465 -20 -63 -21
-61 -39 82 -10 71 -16 90 -37 110 -24 22 -31 23 -144 20 -65 -1 -119 0 -119 3
0 23 72 102 137 151 105 79 130 106 141 151 6 21 13 130 16 243 3 113 9 246
12 297 7 88 6 92 -19 117 -14 14 -38 28 -54 32 -35 9 -178 -19 -256 -51 -31
-12 -59 -20 -62 -16 -8 14 92 157 146 207 30 27 88 75 129 106 127 95 127 94
139 233 20 241 34 511 27 546 -11 61 -57 99 -118 99 -18 -1 -60 -14 -93 -31z"/>
<path d="M13430 9812 c-61 -34 -75 -63 -74 -150 8 -473 6 -594 -10 -727 -59
-480 -188 -868 -422 -1266 -73 -124 -79 -138 -79 -190 0 -46 5 -62 29 -93 46
-61 124 -83 186 -51 39 20 87 83 147 190 231 414 358 780 424 1225 25 170 31
248 36 455 6 276 -7 486 -33 541 -35 73 -134 105 -204 66z"/>
<path d="M14090 8870 c-46 -8 -88 -36 -106 -73 -9 -16 -22 -88 -30 -161 -35
-323 -110 -590 -241 -865 -48 -100 -54 -120 -49 -154 14 -88 71 -138 155 -139
62 0 100 21 132 76 37 62 153 337 193 456 92 280 153 700 112 778 -33 64 -95
94 -166 82z"/>
<path d="M12305 7163 c-392 -416 -1004 -722 -1635 -819 -86 -14 -178 -18 -370
-19 -140 0 -280 2 -310 4 l-55 5 1 -45 c5 -170 46 -1025 52 -1069 l7 -55 80
-17 c464 -99 963 -52 1540 144 540 184 990 454 1309 786 84 88 176 207 176
229 0 9 -50 81 -111 162 -61 80 -217 289 -347 463 -131 174 -241 317 -247 316
-5 0 -46 -39 -90 -85z"/>
<path d="M13250 6008 c-59 -85 -256 -285 -365 -373 -498 -399 -1167 -688
-1858 -803 -149 -24 -185 -26 -452 -26 -254 -1 -306 2 -416 21 -69 13 -133 25
-143 29 -15 6 -16 -6 -11 -127 11 -272 14 -299 42 -361 53 -119 208 -223 407
-273 709 -179 2083 248 2761 858 281 252 395 459 364 657 -16 102 -68 188
-259 428 l-26 32 -44 -62z"/>
</g>
</svg>
