<?xml version="1.0" standalone="no"?>
<!DOCTYPE svg PUBLIC "-//W3C//DTD SVG 20010904//EN"
 "http://www.w3.org/TR/2001/REC-SVG-20010904/DTD/svg10.dtd">
<svg version="1.0" xmlns="http://www.w3.org/2000/svg"
 width="2048.000000pt" height="2048.000000pt" viewBox="0 0 2048.000000 2048.000000"
 preserveAspectRatio="xMidYMid meet">
<metadata>
Created by potrace 1.16, written by Peter Selinger 2001-2019
</metadata>
<g transform="translate(0.000000,2048.000000) scale(0.100000,-0.100000)"
fill="#18bcf2" stroke="none">
<path d="M10450 13813 c-20 -8 -213 -185 -316 -290 -45 -46 -87 -83 -93 -83
-7 0 -40 16 -74 37 -333 196 -366 213 -426 213 -67 0 -97 -21 -190 -130 -40
-47 -104 -121 -141 -165 -38 -44 -78 -91 -89 -105 l-20 -25 -73 36 c-40 21
-114 56 -165 79 -90 42 -92 43 -114 96 -35 87 -80 138 -155 175 -116 58 -143
54 -739 -94 -342 -86 -530 -137 -571 -157 -80 -39 -163 -120 -199 -195 -25
-50 -30 -74 -33 -156 -3 -63 0 -104 8 -119 10 -18 9 -25 -2 -35 -7 -7 -244
-70 -527 -139 -294 -73 -538 -138 -570 -153 -76 -35 -195 -157 -243 -249 -76
-145 -87 -278 -39 -466 16 -62 36 -147 45 -188 9 -41 32 -142 51 -225 20 -82
51 -220 70 -305 45 -201 117 -508 149 -635 14 -55 64 -266 111 -470 106 -458
123 -530 195 -830 83 -346 128 -538 255 -1088 25 -108 77 -326 115 -485 39
-158 77 -316 85 -352 21 -93 68 -181 131 -249 109 -118 232 -171 409 -178
l110 -4 385 96 c211 53 432 107 491 120 59 14 114 27 122 30 9 4 18 -5 26 -27
35 -92 60 -134 110 -184 94 -94 234 -144 361 -130 50 6 229 49 830 198 227 56
305 90 363 158 53 62 97 161 97 218 0 20 4 42 8 48 12 20 171 112 230 134 183
69 411 107 572 95 171 -11 363 -59 495 -121 173 -83 215 -117 215 -176 0 -12
18 -59 40 -104 69 -143 129 -180 411 -254 391 -102 706 -179 793 -195 188 -32
320 -13 506 73 62 28 185 130 235 194 110 142 125 184 259 708 41 162 91 358
112 435 42 159 158 610 244 950 32 127 92 361 134 520 41 160 122 475 180 700
57 226 118 464 136 530 17 66 71 278 120 470 49 193 110 427 135 520 168 630
177 671 177 800 -1 227 -75 412 -222 553 -119 115 -183 143 -535 238 -570 152
-781 204 -836 204 -74 0 -172 -32 -230 -74 -50 -37 -107 -115 -116 -158 -3
-15 -11 -32 -18 -38 -17 -14 -316 -150 -330 -150 -6 0 -36 30 -66 68 -29 37
-56 69 -59 72 -3 3 -52 62 -108 132 -159 196 -167 196 -483 14 -120 -69 -221
-126 -224 -126 -2 0 -64 60 -137 133 -263 264 -286 279 -374 252 -40 -12 -206
-122 -378 -252 -60 -45 -73 -51 -87 -40 -10 6 -100 73 -200 147 -100 74 -192
140 -203 147 -21 12 -109 16 -136 6z m495 -654 c73 -32 110 -17 293 119 40 30
75 52 78 49 3 -3 -1 -110 -10 -239 -9 -128 -23 -359 -31 -513 -8 -154 -17
-307 -20 -340 -3 -33 -12 -184 -20 -335 -9 -151 -20 -333 -25 -405 -10 -131
-20 -293 -40 -655 -10 -174 -32 -522 -45 -700 -2 -36 -9 -150 -15 -255 -6
-104 -12 -208 -15 -230 -3 -22 -16 -229 -30 -460 -13 -231 -27 -449 -30 -485
-3 -36 -12 -186 -20 -335 -8 -148 -17 -305 -21 -347 l-6 -78 -44 0 c-28 0 -44
4 -44 13 -1 6 -3 50 -5 97 -3 47 -9 204 -15 350 -6 146 -13 301 -15 345 -3 44
-10 220 -15 390 -11 334 -18 518 -25 660 -3 50 -7 167 -10 260 -3 94 -12 323
-20 510 -8 187 -24 590 -35 895 -11 305 -24 674 -30 820 -10 286 -27 659 -39
890 -4 80 -6 148 -4 152 2 4 51 -29 109 -73 58 -45 125 -90 149 -100z m-561
-56 c4 -120 11 -294 16 -388 5 -93 12 -249 15 -345 7 -214 22 -640 35 -975 9
-237 13 -321 25 -572 3 -60 14 -328 25 -598 11 -269 24 -600 30 -735 5 -135
14 -375 20 -535 17 -482 29 -783 36 -916 l6 -127 -42 -4 c-24 -2 -43 1 -45 7
-4 15 -57 375 -150 1029 -47 325 -103 713 -125 861 -35 236 -258 1787 -280
1950 -4 33 -29 202 -54 375 -25 173 -63 443 -85 600 -22 157 -47 332 -56 389
-9 57 -14 105 -12 108 3 2 44 -20 93 -48 149 -88 175 -99 221 -99 25 0 54 5
66 11 37 20 170 140 205 185 18 24 37 44 41 44 4 0 11 -98 15 -217z m1361 91
c171 -171 182 -172 413 -31 51 31 95 57 97 57 12 0 -10 -153 -106 -720 -56
-328 -116 -687 -204 -1230 -86 -528 -182 -1108 -255 -1540 -28 -162 -61 -367
-75 -455 -14 -88 -41 -250 -60 -360 -20 -110 -44 -256 -55 -325 -30 -189 -66
-409 -91 -562 l-23 -137 -26 5 c-57 13 -60 15 -56 37 3 12 7 90 11 172 6 153
17 366 35 650 18 278 20 306 30 490 15 266 49 828 60 1005 9 145 16 264 55
950 8 146 17 283 20 305 3 22 14 184 25 360 11 176 22 347 25 380 2 33 9 141
15 240 5 99 12 214 15 255 2 41 7 125 10 185 4 61 10 162 16 225 5 63 9 123 9
133 0 9 2 17 5 17 2 0 52 -48 110 -106z m-2305 -44 c0 -13 102 -726 135 -945
14 -93 46 -316 70 -495 24 -179 51 -368 60 -420 8 -52 37 -255 65 -450 27
-195 72 -510 100 -700 28 -190 66 -460 85 -600 37 -271 77 -551 150 -1060 90
-620 97 -672 92 -684 -5 -14 -76 -51 -83 -44 -6 7 -40 144 -95 383 -28 121
-65 281 -84 355 -19 74 -46 187 -60 250 -29 125 -142 597 -260 1080 -41 168
-117 487 -170 710 -52 223 -122 518 -156 655 -33 138 -87 365 -120 505 -32
140 -61 264 -64 275 -7 30 -67 281 -128 540 -68 284 -118 517 -114 521 2 2 55
-21 117 -51 124 -60 183 -69 239 -40 28 14 100 92 170 183 31 40 51 53 51 32z
m3226 -103 c133 -167 171 -176 359 -85 58 28 107 49 110 46 3 -2 -19 -96 -49
-209 -52 -198 -91 -350 -215 -839 -33 -129 -76 -298 -96 -375 -81 -312 -130
-506 -212 -825 -47 -184 -116 -456 -154 -605 -38 -148 -118 -463 -179 -700
-60 -236 -137 -536 -170 -665 -78 -298 -122 -470 -204 -794 -36 -142 -68 -261
-71 -264 -7 -8 -78 33 -90 52 -6 9 -5 41 3 88 6 40 25 161 43 268 32 201 57
352 153 930 88 534 153 928 191 1171 19 124 42 263 50 310 35 198 172 1018
306 1839 16 102 39 232 49 290 28 150 70 416 70 445 0 14 6 25 13 24 6 0 48
-46 93 -102z m-5500 -591 c12 -31 84 -360 79 -364 -2 -2 -119 -32 -260 -67
-154 -38 -268 -71 -284 -83 -121 -89 -100 -276 39 -349 58 -30 73 -28 370 46
155 39 237 56 241 49 4 -6 12 -38 19 -72 6 -34 23 -107 37 -164 14 -57 22
-106 19 -109 -3 -4 -119 -35 -258 -69 -265 -67 -314 -87 -342 -143 -45 -85
-37 -173 21 -241 68 -79 131 -87 313 -40 63 16 170 43 238 61 68 17 124 30
126 28 8 -12 79 -309 80 -333 1 -25 -4 -31 -29 -37 -16 -4 -122 -28 -235 -53
-241 -55 -299 -79 -335 -140 -41 -71 -30 -190 23 -249 29 -33 89 -57 139 -57
49 0 305 53 439 90 38 11 77 20 85 20 11 0 24 -43 52 -172 21 -94 34 -174 30
-178 -9 -8 -205 -57 -377 -96 -141 -31 -190 -59 -222 -127 -52 -113 -14 -230
91 -278 64 -30 82 -27 465 65 79 19 146 33 148 31 7 -7 82 -310 82 -332 0 -15
-7 -24 -22 -28 -471 -108 -499 -116 -548 -168 -55 -56 -72 -128 -49 -198 29
-86 101 -139 188 -139 27 0 141 22 253 49 111 27 220 52 240 55 l36 7 15 -53
c34 -121 69 -290 61 -297 -5 -5 -121 -35 -258 -67 -267 -63 -303 -78 -346
-142 -19 -30 -24 -50 -25 -102 0 -80 25 -133 83 -174 59 -42 116 -44 243 -12
204 53 403 96 410 89 4 -5 21 -69 38 -143 17 -74 36 -152 42 -173 6 -22 9 -40
7 -42 -2 -2 -129 -35 -283 -74 -154 -39 -376 -95 -494 -126 -117 -30 -223 -55
-235 -55 -36 1 -102 36 -125 68 -12 17 -28 59 -36 94 -8 35 -29 124 -46 198
-34 151 -35 156 -153 655 -46 198 -101 432 -120 520 -20 88 -51 223 -70 300
-67 276 -116 487 -211 900 -53 231 -112 481 -130 555 -19 74 -52 218 -75 320
-23 102 -72 309 -110 460 -87 350 -160 677 -160 719 0 41 26 97 53 116 30 21
81 35 387 109 151 37 354 86 450 110 210 52 189 49 196 32z m7119 -849 c21
-12 53 -41 69 -65 25 -36 30 -51 30 -104 -1 -71 -16 -108 -66 -154 -80 -75
-204 -69 -280 12 -35 38 -48 74 -48 133 0 82 39 144 115 184 45 24 132 21 180
-6z m-745 -207 c45 -23 64 -44 89 -100 27 -60 26 -106 -5 -168 -21 -42 -34
-56 -79 -77 -87 -43 -174 -33 -233 28 -162 167 21 422 228 317z m512 -510
c113 -32 170 -167 117 -276 -92 -191 -384 -110 -367 101 6 75 44 129 111 161
57 26 84 29 139 14z m-681 -224 c21 -14 50 -46 65 -71 23 -40 26 -54 22 -110
-5 -74 -22 -104 -87 -150 -57 -40 -144 -42 -209 -5 -94 53 -127 181 -69 268
26 41 83 84 123 95 39 11 117 -2 155 -27z m529 -516 c65 -33 110 -111 110
-190 0 -44 -44 -117 -91 -151 -49 -35 -142 -39 -205 -9 -132 64 -142 261 -18
340 60 37 142 42 204 10z m-740 -202 c117 -60 146 -211 57 -305 -111 -118
-297 -70 -338 87 -16 62 1 120 52 174 62 68 149 84 229 44z m573 -534 c61 -43
82 -86 82 -165 0 -88 -33 -140 -112 -176 -200 -92 -372 143 -225 306 68 77
175 91 255 35z m-736 -200 c67 -41 96 -100 91 -181 -3 -51 -9 -69 -34 -99 -54
-68 -77 -79 -158 -79 -64 0 -78 4 -114 29 -46 32 -92 112 -92 160 0 56 21 107
59 145 67 67 165 76 248 25z"/>
<path d="M3660 13559 c-171 -34 -321 -191 -350 -364 -18 -107 9 -249 68 -355
44 -79 245 -289 412 -428 63 -53 158 -137 209 -185 52 -49 104 -92 115 -96 39
-15 71 4 195 118 69 64 142 129 161 145 19 15 71 61 115 101 44 40 92 83 107
96 15 13 62 63 105 110 179 199 229 416 139 605 -47 99 -111 165 -204 211 -68
34 -84 38 -172 41 -166 7 -280 -44 -367 -162 -25 -34 -49 -61 -53 -61 -4 0
-28 27 -52 60 -48 64 -115 115 -195 145 -59 22 -173 32 -233 19z"/>
<path d="M16906 11999 c-42 -10 -70 -30 -89 -64 -9 -15 -12 -226 -14 -780 0
-418 -2 -783 -2 -812 l-1 -51 -55 19 c-62 22 -192 26 -277 8 -99 -20 -213 -83
-293 -162 -116 -115 -159 -228 -136 -354 16 -86 49 -149 104 -200 152 -140
420 -164 630 -57 123 63 234 182 274 297 22 62 22 66 23 720 l0 657 24 0 c30
0 146 -43 205 -77 121 -69 208 -171 242 -284 17 -56 20 -87 16 -166 -2 -54
-10 -124 -18 -156 -12 -52 -12 -59 4 -75 17 -16 20 -16 55 4 23 14 57 51 92
103 190 281 164 583 -70 834 -36 39 -135 127 -220 197 -163 133 -223 196 -282
295 -20 33 -47 70 -60 82 -27 25 -96 35 -152 22z"/>
<path d="M3437 11792 c-19 -2 -34 -14 -47 -35 -17 -27 -18 -45 -14 -146 11
-280 52 -464 152 -683 53 -116 144 -220 216 -248 20 -7 149 -11 394 -10 401 0
398 0 478 65 40 33 134 161 134 183 0 14 26 22 74 22 103 0 275 70 355 145 57
53 104 143 121 230 27 137 -36 276 -151 335 -40 21 -139 40 -206 40 -42 0 -43
1 -43 33 0 71 42 67 -736 70 -384 1 -712 1 -727 -1z m1621 -328 c66 -42 43
-185 -40 -247 -36 -28 -163 -75 -173 -65 -3 3 1 30 9 59 8 30 20 92 26 139 17
123 18 128 38 133 28 8 115 -4 140 -19z"/>
<path d="M15379 11007 c-32 -25 -39 -56 -39 -172 0 -116 -9 -155 -34 -155 -8
0 -41 -27 -75 -60 l-61 -61 0 -123 0 -124 30 -12 c30 -12 30 -13 30 -95 0
-262 -126 -1312 -165 -1375 -3 -5 -23 -14 -45 -20 -85 -23 -107 -110 -45 -179
l35 -39 -30 -118 c-33 -131 -120 -401 -155 -480 l-23 -51 -63 -6 c-52 -6 -68
-12 -87 -33 -22 -25 -24 -34 -20 -125 2 -77 7 -101 22 -118 18 -20 17 -22 -46
-138 -104 -189 -114 -206 -217 -366 -173 -271 -178 -284 -140 -326 20 -22 23
-22 261 -19 l240 3 22 26 c12 14 36 71 54 125 53 169 140 273 283 342 111 54
184 72 294 72 173 0 333 -67 444 -185 69 -75 108 -145 141 -258 13 -42 33 -89
46 -102 l23 -25 234 0 c231 0 234 0 255 23 41 43 34 58 -121 302 -109 172
-184 297 -234 392 l-56 106 18 31 c26 45 33 182 11 224 -9 18 -18 32 -19 33
-1 0 -35 6 -75 12 l-73 12 -40 105 c-75 199 -159 483 -159 537 0 13 10 29 23
38 42 27 60 93 36 136 -5 11 -34 30 -63 43 -43 19 -56 30 -65 57 -22 70 -85
490 -110 739 -25 242 -41 426 -47 551 l-7 136 32 12 31 13 0 123 0 123 -52 54
c-29 29 -65 61 -79 70 -27 17 -27 19 -30 147 -4 113 -7 133 -25 158 -24 32
-42 38 -65 20z m138 -2602 c6 -22 29 -114 52 -205 22 -91 47 -186 55 -212 l15
-48 -229 0 c-168 0 -230 3 -230 12 0 9 100 429 116 486 3 9 29 12 106 10 l103
-3 12 -40z"/>
<path d="M2905 10456 c-65 -21 -98 -42 -144 -91 -57 -62 -83 -124 -88 -215 -4
-60 -1 -86 16 -131 41 -108 136 -186 253 -208 36 -6 329 -10 805 -10 l748 0 3
-1196 2 -1195 -152 0 c-205 0 -263 -10 -378 -67 -150 -73 -259 -198 -305 -350
-22 -71 -19 -139 5 -163 20 -20 33 -20 1115 -20 1082 0 1095 0 1115 20 41 41
13 182 -60 304 -47 77 -152 175 -225 210 -110 52 -190 66 -377 66 l-168 0 2
1197 3 1197 372 0 c204 1 374 4 378 8 8 8 -5 71 -81 391 -30 126 -59 237 -64
248 -10 19 -42 19 -1373 18 -1069 0 -1371 -3 -1402 -13z"/>
</g>
</svg>
