<?xml version="1.0" standalone="no"?>
<!DOCTYPE svg PUBLIC "-//W3C//DTD SVG 20010904//EN"
 "http://www.w3.org/TR/2001/REC-SVG-20010904/DTD/svg10.dtd">
<svg version="1.0" xmlns="http://www.w3.org/2000/svg"
 width="2048.000000pt" height="2048.000000pt" viewBox="0 0 2048.000000 2048.000000"
 preserveAspectRatio="xMidYMid meet">
<metadata>
Created by potrace 1.16, written by Peter Selinger 2001-2019
</metadata>
<g transform="translate(0.000000,2048.000000) scale(0.100000,-0.100000)"
fill="#18bcf2" stroke="none">
<path d="M10355 16160 c-324 -53 -596 -217 -792 -476 -34 -44 -68 -97 -77
-117 -8 -20 -17 -37 -20 -37 -3 0 -29 9 -58 20 -88 32 -148 42 -259 41 -214 0
-388 -74 -532 -225 -131 -137 -193 -281 -205 -475 l-7 -104 -70 -26 c-191 -71
-341 -206 -430 -386 -62 -123 -78 -196 -79 -335 -1 -235 83 -423 262 -592 82
-77 164 -125 282 -165 l85 -28 1710 0 1710 0 90 28 c204 63 345 156 476 315
263 319 280 788 40 1136 -74 107 -256 261 -357 302 -22 8 -52 21 -69 29 -54
24 -138 47 -219 59 l-78 12 -28 109 c-73 286 -227 519 -454 688 -109 80 -276
160 -416 198 -103 28 -132 31 -285 34 -93 2 -192 0 -220 -5z m-675 -1252 c111
-35 190 -132 190 -233 0 -57 -25 -85 -75 -85 -28 0 -43 8 -76 43 -58 59 -88
77 -132 77 -50 0 -73 -12 -128 -71 -39 -42 -52 -49 -83 -49 -81 0 -110 83 -62
178 66 129 218 187 366 140z m1341 -5 c99 -44 168 -134 172 -223 2 -46 -1 -55
-26 -76 -45 -38 -73 -32 -135 32 -60 61 -85 74 -140 74 -42 0 -77 -20 -117
-68 -38 -45 -77 -64 -108 -53 -58 22 -72 91 -36 171 33 74 97 128 184 157 53
17 150 11 206 -14z m-1244 -728 c21 -9 40 -19 43 -24 3 -4 31 -29 63 -54 114
-92 216 -128 367 -128 149 0 249 38 366 137 100 85 118 91 185 63 51 -21 64
-95 26 -146 -31 -43 -117 -111 -202 -162 -217 -130 -500 -139 -730 -24 -155
78 -275 203 -260 272 7 34 32 59 71 71 16 4 30 9 32 9 1 1 19 -6 39 -14z"/>
<path d="M10095 12626 c-215 -61 -373 -183 -460 -356 -59 -117 -67 -154 -73
-328 -5 -190 17 -168 -177 -177 -138 -6 -380 -22 -455 -30 -25 -3 -76 -7 -115
-11 -38 -3 -92 -7 -120 -10 -54 -4 -390 -42 -440 -49 -16 -2 -68 -9 -115 -15
-136 -17 -139 -18 -260 -35 -182 -25 -474 -74 -605 -100 -66 -13 -237 -47
-380 -75 -143 -28 -314 -64 -380 -80 -497 -119 -686 -169 -1014 -266 -340
-102 -989 -322 -1150 -392 -158 -68 -239 -180 -249 -343 -6 -112 19 -200 81
-279 58 -73 113 -114 193 -140 121 -41 218 -23 540 101 133 51 699 239 719
239 13 0 15 -90 15 -695 0 -549 3 -695 13 -695 6 0 39 9 72 20 72 23 231 21
309 -4 27 -8 52 -13 56 -11 4 2 8 345 9 762 1 709 2 758 19 765 26 11 609 153
747 183 313 66 631 127 845 160 129 20 246 38 260 40 14 2 48 7 75 10 28 4 57
8 65 10 24 7 492 63 655 79 301 30 910 63 1123 62 l113 -1 0 -1037 c0 -570 3
-1039 7 -1042 7 -4 389 74 440 90 10 3 12 203 12 986 0 541 0 989 0 997 0 11
34 12 203 7 111 -3 227 -8 257 -11 30 -2 123 -7 205 -10 271 -10 567 -35 836
-69 63 -8 141 -18 174 -21 33 -3 69 -8 80 -10 11 -2 45 -7 76 -10 31 -3 65 -7
75 -9 11 -2 42 -7 69 -10 28 -4 88 -13 135 -21 47 -8 135 -21 195 -30 204 -29
695 -127 1023 -205 292 -68 546 -132 562 -140 13 -8 15 -127 16 -974 0 -531 4
-969 8 -973 8 -8 413 -13 434 -5 10 3 12 189 12 905 0 495 2 902 4 904 12 12
477 -140 846 -277 205 -75 274 -89 372 -72 91 16 157 52 219 120 67 73 99 139
108 221 20 194 -65 349 -234 427 -120 55 -601 225 -950 334 -819 257 -1699
457 -2570 585 -303 45 -252 38 -635 80 -129 14 -251 28 -270 30 -19 2 -71 7
-115 10 -44 3 -102 7 -130 10 -27 2 -97 7 -155 10 -218 12 -382 24 -385 27 -1
2 -5 64 -8 138 -4 74 -13 162 -21 195 -55 227 -218 405 -448 491 -61 22 -92
27 -193 30 -83 3 -136 -1 -170 -10z"/>
<path d="M11570 8831 c-47 -11 -197 -44 -335 -74 -137 -31 -434 -96 -660 -146
-225 -51 -450 -100 -500 -111 -774 -168 -766 -166 -852 -275 -17 -22 -39 -65
-49 -95 -18 -52 -19 -123 -19 -1307 0 -829 -3 -1253 -10 -1253 -5 1 -37 7 -70
15 -81 20 -285 19 -381 -1 -280 -57 -519 -222 -632 -434 -132 -247 -106 -465
77 -651 135 -136 303 -199 530 -199 279 0 524 96 705 276 110 110 195 270 215
405 5 36 10 529 10 1132 1 1044 2 1069 21 1107 23 44 69 83 120 98 19 6 89 23
155 37 66 14 215 46 330 71 116 25 230 49 255 54 25 5 77 16 115 25 39 9 143
31 232 50 89 19 245 53 345 76 214 48 262 48 309 3 63 -60 60 -17 60 -812 1
-400 1 -732 0 -738 -1 -8 -18 -7 -58 3 -208 49 -486 12 -688 -93 -199 -103
-370 -305 -419 -494 -21 -80 -14 -220 14 -295 66 -174 224 -311 420 -364 96
-26 241 -44 300 -36 156 19 255 44 371 95 248 110 435 313 483 527 14 64 16
232 16 1612 0 1485 -1 1541 -19 1600 -51 165 -195 235 -391 192z"/>
<path d="M5845 8553 c-41 -8 -111 -36 -141 -59 -25 -18 -114 -151 -114 -170 0
-2 -57 -120 -126 -261 -69 -142 -141 -290 -159 -329 -40 -85 -78 -132 -120
-150 -25 -10 -233 -48 -435 -79 -500 -77 -504 -78 -573 -155 -58 -64 -81 -132
-75 -221 8 -105 36 -142 327 -431 332 -330 369 -370 377 -413 6 -36 -2 -97
-63 -435 -19 -107 -43 -244 -54 -305 -26 -151 -25 -227 5 -290 53 -114 189
-182 309 -155 56 13 149 56 292 133 49 27 193 102 319 165 170 86 239 117 267
117 38 0 170 -63 499 -236 328 -172 349 -181 415 -187 52 -4 72 0 118 21 71
32 130 86 157 143 29 62 28 153 -5 324 -54 287 -115 640 -115 670 0 17 6 45
14 63 7 18 142 160 310 327 163 162 310 313 326 336 89 126 72 297 -39 397
-68 61 -87 66 -506 127 -481 70 -492 73 -539 124 -10 12 -29 44 -42 72 -12 29
-97 203 -188 388 -180 365 -217 420 -299 450 -44 16 -109 24 -142 19z m-16
-558 c36 -18 55 -64 48 -112 -4 -19 -60 -144 -126 -277 -118 -240 -119 -242
-198 -317 -113 -108 -213 -151 -413 -179 -41 -6 -149 -22 -240 -36 -91 -13
-176 -22 -190 -19 -60 15 -94 86 -70 146 16 37 51 56 121 64 185 21 481 70
524 86 61 23 155 104 191 164 14 24 67 134 119 245 52 110 100 206 107 213 38
38 82 46 127 22z"/>
<path d="M13245 8079 c-206 -29 -382 -207 -404 -408 -3 -36 -6 -563 -6 -1171
1 -1029 2 -1109 19 -1170 24 -87 56 -142 199 -334 67 -90 145 -194 172 -231
28 -37 63 -86 79 -109 117 -163 204 -246 305 -288 l56 -23 1135 -3 c818 -2
1152 0 1195 8 156 30 307 171 366 341 l22 64 0 1122 c0 1029 -2 1127 -18 1192
-21 86 -60 153 -162 278 -43 52 -105 130 -138 173 -289 380 -343 442 -423 489
-136 80 -46 75 -1262 76 -597 1 -1107 -2 -1135 -6z m2661 -1040 c18 -11 43
-37 56 -57 l23 -37 3 -1024 c1 -720 -1 -1036 -9 -1064 -6 -24 -27 -57 -49 -79
l-38 -38 -1042 0 c-1168 0 -1086 -5 -1138 73 l-27 41 0 1045 0 1046 23 37 c12
20 37 46 55 57 32 21 39 21 1071 21 1030 0 1039 0 1072 -21z"/>
<path d="M14329 6561 c-189 -60 -303 -225 -302 -436 0 -103 21 -182 77 -293
61 -121 141 -225 282 -364 164 -162 414 -358 457 -358 28 0 274 193 410 322
157 148 248 264 317 403 94 190 104 358 30 505 -100 196 -305 284 -512 220
-80 -25 -133 -62 -195 -139 -26 -33 -52 -60 -58 -60 -5 0 -27 24 -48 54 -94
136 -292 199 -458 146z"/>
</g>
</svg>
