<?xml version="1.0" standalone="no"?>
<!DOCTYPE svg PUBLIC "-//W3C//DTD SVG 20010904//EN"
 "http://www.w3.org/TR/2001/REC-SVG-20010904/DTD/svg10.dtd">
<svg version="1.0" xmlns="http://www.w3.org/2000/svg"
 width="2048.000000pt" height="2048.000000pt" viewBox="0 0 2048.000000 2048.000000"
 preserveAspectRatio="xMidYMid meet">
<metadata>
Created by potrace 1.16, written by Peter Selinger 2001-2019
</metadata>
<g transform="translate(0.000000,2048.000000) scale(0.100000,-0.100000)"
fill="#18bcf2" stroke="none">
<path d="M9210 17356 c-103 -23 -165 -72 -209 -166 l-26 -55 -2 -1505 -2
-1505 -28 1 c-15 0 -66 6 -113 12 -350 48 -750 -81 -1007 -325 -188 -179 -284
-383 -285 -608 -1 -195 61 -337 210 -482 95 -91 219 -156 378 -195 129 -31
356 -31 509 0 110 23 258 74 350 119 226 113 445 337 518 529 65 170 61 82 67
1394 l5 1195 50 -3 c122 -9 291 -58 418 -123 287 -145 484 -364 563 -624 25
-81 27 -106 28 -245 1 -168 -7 -219 -57 -368 l-31 -94 19 -36 c45 -82 111 -79
206 10 175 166 328 462 375 728 33 192 15 462 -43 625 -87 243 -269 492 -484
662 -57 46 -203 149 -324 230 -395 264 -517 377 -687 632 -91 136 -146 179
-263 200 -68 13 -64 13 -135 -3z"/>
<path d="M14348 15376 c-57 -20 -85 -42 -116 -88 l-27 -42 -5 -1235 -5 -1235
-29 35 c-111 133 -345 355 -461 438 -313 224 -591 275 -850 156 -142 -65 -257
-181 -333 -337 -61 -125 -77 -192 -76 -328 2 -473 353 -723 1092 -776 52 -3
90 -10 85 -14 -17 -17 -306 -159 -410 -202 -116 -49 -259 -97 -362 -123 -69
-18 -134 -47 -165 -74 -54 -48 -76 -164 -42 -229 42 -80 109 -116 206 -109
141 10 599 186 890 342 179 95 430 251 542 336 118 91 117 90 185 37 207 -162
613 -395 918 -526 171 -74 447 -167 543 -184 90 -15 138 -2 191 52 70 72 78
179 21 259 -38 51 -59 62 -211 105 -253 71 -425 140 -646 260 -62 33 -113 64
-113 68 0 5 39 8 88 8 164 0 415 40 572 91 213 70 383 212 469 393 45 94 61
171 61 293 0 131 -23 223 -82 333 -156 292 -430 432 -732 376 -243 -46 -454
-183 -768 -497 l-177 -177 0 1224 c-1 1345 4 1249 -60 1317 -51 55 -128 77
-193 53z m-1079 -2337 c160 -55 468 -321 687 -596 29 -37 52 -69 50 -70 -1 -2
-106 -3 -233 -3 -358 -1 -610 35 -753 106 -91 46 -154 115 -169 186 -26 121
34 287 127 352 89 61 164 68 291 25z m2518 -6 c144 -67 218 -276 148 -419 -59
-121 -225 -195 -513 -229 -119 -15 -622 -21 -622 -8 0 20 174 215 323 362 127
124 171 160 274 228 158 103 271 123 390 66z"/>
<path d="M6092 12499 c-53 -11 -112 -56 -133 -102 -17 -38 -19 -68 -19 -310
l0 -268 -73 63 c-41 35 -114 100 -164 145 -110 99 -136 113 -205 113 -112 -1
-189 -67 -196 -170 -7 -101 -1 -111 222 -317 111 -103 247 -228 301 -277 55
-49 103 -95 108 -102 4 -7 6 -225 5 -484 l-3 -471 -160 95 c-88 51 -214 125
-280 164 -393 229 -364 210 -374 250 -5 20 -25 118 -45 217 -62 303 -106 508
-117 543 -14 42 -62 98 -103 119 -37 20 -131 21 -166 3 -47 -24 -90 -74 -104
-120 -16 -53 -15 -60 42 -332 21 -104 37 -188 35 -188 -8 0 -273 156 -326 192
-85 58 -135 78 -195 78 -117 0 -195 -77 -196 -196 -1 -82 30 -128 127 -185
189 -112 387 -235 387 -239 0 -3 -42 -20 -92 -37 -221 -76 -304 -106 -329
-118 -132 -69 -131 -270 3 -345 69 -39 101 -32 483 94 192 64 365 119 385 122
32 5 54 -5 215 -101 99 -59 268 -159 375 -222 107 -63 206 -122 219 -130 l23
-15 -33 -21 c-19 -11 -99 -58 -179 -105 -175 -103 -259 -152 -453 -267 l-147
-87 -370 121 c-204 67 -385 125 -403 128 -143 23 -260 -137 -198 -272 32 -71
74 -98 247 -155 87 -29 182 -63 213 -75 l55 -23 -30 -15 c-59 -30 -390 -230
-422 -254 -58 -44 -90 -135 -71 -205 12 -47 72 -116 116 -135 65 -27 153 -10
231 46 38 26 364 212 367 209 1 -2 -18 -95 -42 -208 -52 -243 -54 -306 -10
-364 39 -50 97 -78 166 -79 85 0 143 38 175 115 13 29 94 411 161 751 7 38 15
69 16 71 2 1 83 49 179 106 96 57 275 164 397 237 122 73 225 133 228 133 3 0
5 -215 5 -478 l0 -479 -102 -93 c-57 -51 -148 -136 -203 -189 -55 -53 -146
-138 -202 -190 -117 -107 -139 -146 -131 -232 10 -103 93 -175 200 -173 74 2
90 13 283 197 l150 144 5 -281 c6 -315 6 -318 83 -379 31 -26 49 -32 101 -35
73 -5 126 17 169 68 44 52 48 86 45 363 -2 141 0 257 3 257 3 0 77 -68 165
-150 87 -83 178 -160 202 -171 87 -43 199 -1 246 93 58 116 34 167 -165 358
-174 165 -298 281 -387 359 l-62 54 0 480 c0 379 3 478 13 474 6 -2 109 -63
227 -134 118 -72 287 -173 375 -226 88 -53 168 -102 177 -109 13 -9 35 -90 78
-288 34 -151 63 -276 65 -279 9 -8 13 26 19 144 4 66 13 167 22 225 20 138 97
457 131 548 5 13 -2 14 -54 8 l-60 -7 -164 97 c-90 53 -177 105 -194 114 -16
9 -93 54 -170 100 -77 45 -168 99 -202 119 -35 20 -63 38 -63 41 0 5 36 26
270 163 152 88 263 153 393 231 71 42 135 76 144 76 23 0 134 -34 337 -102
148 -50 180 -58 187 -46 13 23 78 97 176 200 51 53 93 100 93 106 0 8 -120 54
-257 97 -63 20 -71 30 -41 48 13 8 111 66 220 131 239 142 271 174 270 278 -2
110 -83 188 -194 188 -63 0 -102 -17 -240 -103 -57 -35 -132 -81 -168 -102
-36 -21 -76 -45 -89 -54 l-23 -15 6 45 c4 24 23 121 42 215 42 213 43 246 5
305 -40 64 -89 92 -160 92 -71 0 -132 -30 -166 -81 -25 -39 -43 -111 -140
-577 -21 -99 -42 -202 -49 -229 l-11 -49 -260 -151 c-143 -83 -321 -187 -395
-231 -74 -44 -138 -81 -142 -83 -5 -2 -8 210 -8 472 l0 476 37 32 c165 148
552 516 572 544 22 31 26 48 26 103 0 57 -4 74 -28 110 -50 76 -171 105 -256
62 -21 -11 -107 -84 -192 -162 l-154 -143 -5 274 c-6 303 -7 310 -72 365 -51
43 -110 58 -176 44z"/>
<path d="M10070 12051 c-299 -63 -534 -289 -610 -586 -39 -149 -22 -364 36
-477 9 -17 12 -34 7 -38 -4 -5 -41 -18 -81 -30 -110 -32 -285 -105 -402 -167
-727 -383 -1221 -1106 -1309 -1913 -6 -52 -13 -160 -16 -240 -17 -399 -73
-718 -182 -1018 -24 -68 -42 -127 -38 -130 4 -4 842 -8 1862 -10 1446 -2 1862
-5 1881 -15 94 -46 93 -191 -3 -237 -41 -20 -55 -20 -1996 -20 l-1954 0 -68
-24 c-91 -33 -154 -75 -227 -152 -69 -74 -104 -137 -125 -226 -52 -222 33
-436 223 -561 81 -53 133 -74 231 -90 l74 -12 41 -135 c148 -485 407 -900 787
-1265 384 -367 918 -652 1419 -756 102 -21 374 -58 399 -54 14 2 16 71 19 627
l3 626 -53 30 c-112 63 -210 191 -242 317 -51 193 25 403 191 529 157 120 366
135 545 39 247 -133 342 -441 210 -687 -33 -63 -142 -174 -202 -207 l-45 -24
0 -555 c0 -305 2 -588 3 -628 l4 -73 66 6 c212 19 412 61 622 130 458 149 829
377 1199 735 197 191 429 511 553 765 85 173 163 377 208 545 l10 37 82 11
c204 29 375 170 434 358 29 91 32 222 8 305 -56 190 -217 341 -413 385 l-71
16 -39 72 c-89 161 -186 410 -226 579 -51 217 -88 510 -100 797 -13 325 -61
556 -172 840 -171 434 -450 797 -836 1084 -212 158 -389 249 -687 357 -66 23
-104 42 -103 51 0 7 13 58 28 113 25 92 27 111 22 230 -8 224 -73 374 -231
531 -79 79 -106 98 -196 143 -178 87 -354 111 -540 72z m265 -405 c126 -33
225 -117 266 -224 46 -120 32 -279 -30 -352 l-26 -30 -150 12 c-107 8 -192 8
-295 1 -97 -6 -153 -6 -168 0 -12 6 -34 35 -50 66 -24 50 -27 67 -27 156 0 88
4 107 27 155 86 176 272 265 453 216z m-684 -1251 c89 -32 148 -122 136 -210
-13 -95 -50 -132 -191 -190 -332 -136 -608 -387 -765 -695 -98 -192 -148 -366
-166 -576 -8 -93 -32 -146 -84 -181 -76 -51 -159 -53 -231 -4 -82 55 -100 120
-80 282 41 342 181 692 371 929 156 194 288 316 484 447 152 102 388 212 456
213 15 0 46 -7 70 -15z"/>
<path d="M14007 11614 c-57 -18 -121 -78 -147 -138 -15 -32 -19 -72 -21 -189
l-3 -147 -95 -31 c-257 -82 -505 -215 -701 -374 -105 -86 -296 -284 -360 -374
l-60 -83 68 -101 c142 -213 179 -278 261 -466 97 -219 188 -539 215 -751 9
-63 22 -241 31 -395 24 -416 78 -679 195 -956 l32 -77 95 -46 c116 -57 164
-89 250 -169 68 -64 173 -211 193 -271 6 -19 19 -37 28 -41 36 -14 203 -35
332 -41 250 -12 487 22 740 105 347 115 610 278 871 540 328 330 522 717 595
1186 20 130 22 414 5 550 -62 474 -267 900 -591 1226 -134 135 -197 188 -340
284 -99 66 -361 205 -388 205 -5 0 -29 9 -54 20 -24 10 -75 27 -113 37 l-70
18 -6 150 c-4 103 -10 161 -21 186 -22 50 -74 106 -122 132 -40 21 -52 22
-406 24 -301 2 -373 0 -413 -13z m1177 -1024 c360 -177 648 -489 791 -860 51
-133 85 -270 92 -370 5 -74 3 -91 -15 -127 -56 -109 -192 -145 -293 -78 -53
34 -68 69 -100 221 -55 267 -189 506 -373 667 -100 87 -147 119 -277 184 -124
62 -162 101 -173 175 -13 87 46 195 124 227 50 21 130 7 224 -39z"/>
</g>
</svg>
