<?xml version="1.0" standalone="no"?>
<!DOCTYPE svg PUBLIC "-//W3C//DTD SVG 20010904//EN"
 "http://www.w3.org/TR/2001/REC-SVG-20010904/DTD/svg10.dtd">
<svg version="1.0" xmlns="http://www.w3.org/2000/svg"
 width="2048.000000pt" height="2048.000000pt" viewBox="0 0 2048.000000 2048.000000"
 preserveAspectRatio="xMidYMid meet">
<metadata>
Created by potrace 1.16, written by Peter Selinger 2001-2019
</metadata>
<g transform="translate(0.000000,2048.000000) scale(0.100000,-0.100000)"
fill="#18bcf2" stroke="none">
<path d="M10165 17051 c-48 -22 -79 -54 -100 -103 -23 -56 -23 -810 1 -866 33
-79 95 -122 177 -122 71 0 135 39 166 103 22 44 22 51 19 460 l-3 415 -30 44
c-55 79 -148 107 -230 69z"/>
<path d="M8743 16620 c-47 -11 -79 -35 -111 -82 -21 -33 -27 -53 -27 -98 0
-49 6 -67 59 -160 32 -58 110 -197 174 -310 137 -246 156 -274 205 -314 34
-27 46 -31 101 -31 74 0 119 25 160 89 43 66 37 124 -23 238 -113 215 -334
595 -364 626 -45 46 -101 60 -174 42z"/>
<path d="M11614 16611 c-49 -22 -86 -68 -149 -186 -26 -49 -87 -157 -135 -240
-173 -297 -195 -353 -170 -429 25 -76 103 -135 180 -136 20 0 56 10 80 23 58
28 98 89 265 397 71 129 138 251 149 270 35 56 46 88 46 130 0 54 -15 89 -58
133 -56 58 -133 72 -208 38z"/>
<path d="M7635 15688 c-103 -36 -160 -150 -124 -245 17 -47 58 -81 184 -156
66 -39 209 -124 318 -190 247 -148 275 -161 330 -152 76 13 123 49 152 117 32
79 6 172 -63 226 -46 36 -588 352 -662 386 -59 28 -88 31 -135 14z"/>
<path d="M12740 15686 c-50 -19 -126 -61 -370 -205 -118 -70 -242 -143 -275
-162 -36 -21 -72 -52 -90 -78 -26 -36 -30 -52 -30 -104 0 -76 28 -126 88 -161
90 -52 141 -42 302 58 58 36 108 66 111 66 2 0 66 38 141 83 76 46 170 102
208 125 112 65 155 119 155 196 0 82 -39 142 -115 177 -46 22 -76 23 -125 5z"/>
<path d="M10082 15384 c-122 -32 -350 -142 -622 -297 -58 -33 -141 -80 -184
-104 -98 -55 -222 -134 -434 -275 -670 -448 -1282 -1038 -1743 -1683 -373
-521 -668 -1102 -859 -1690 -77 -237 -76 -235 -124 -435 -95 -395 -152 -768
-175 -1150 -5 -74 -9 -1271 -10 -2660 -1 -2184 1 -2538 14 -2623 43 -283 208
-576 430 -763 164 -138 318 -214 550 -271 65 -16 279 -18 3260 -19 1946 -2
3223 1 3275 7 376 42 731 278 924 614 62 109 91 181 130 324 l31 116 0 2555
c0 1405 -3 2620 -7 2700 -7 130 -29 378 -42 470 -68 477 -132 763 -251 1124
-104 317 -183 507 -341 828 -156 314 -252 479 -443 763 -375 557 -944 1146
-1536 1590 -323 242 -701 482 -1040 660 -72 37 -158 83 -192 101 -82 45 -245
109 -311 123 -73 15 -236 13 -300 -5z m250 -1598 c20 -7 83 -41 140 -75 1051
-629 1783 -1445 2212 -2464 169 -400 284 -840 341 -1301 3 -26 11 -89 17 -140
8 -63 12 -812 15 -2473 l4 -2382 -22 -51 c-27 -62 -85 -114 -144 -129 -31 -8
-784 -11 -2658 -11 -2898 0 -2684 -5 -2746 65 -17 20 -39 50 -48 68 -17 30
-18 160 -17 2377 1 1728 4 2382 13 2485 43 510 136 923 306 1360 207 535 504
1028 875 1455 168 193 467 480 675 646 288 230 616 452 809 545 88 43 157 50
228 25z"/>
<path d="M10095 12699 c-316 -128 -639 -381 -805 -631 -70 -105 -158 -281
-189 -378 -55 -174 -55 -168 -59 -843 l-3 -628 28 5 c15 2 72 5 126 5 l97 1 0
135 0 134 73 54 c112 83 157 109 175 102 26 -10 262 -157 262 -164 0 -3 -26
-39 -58 -81 -80 -102 -162 -218 -162 -228 0 -4 31 -21 68 -39 52 -24 70 -29
81 -20 8 7 58 71 112 144 l98 132 2 99 c1 55 -1 104 -5 110 -3 5 -62 42 -131
83 -69 40 -125 76 -125 79 0 8 216 169 236 177 8 3 14 12 14 21 0 13 -17 14
-136 8 l-136 -6 -87 -61 c-171 -119 -217 -151 -248 -175 l-33 -25 0 240 0 241
69 0 c46 0 70 4 73 13 2 6 4 46 3 87 l0 75 -69 3 -68 3 7 57 c10 78 58 240 93
317 42 88 132 227 146 222 6 -2 79 -88 162 -193 137 -171 155 -190 188 -195
20 -3 38 -4 41 -1 3 3 5 42 5 86 0 94 10 76 -145 271 -62 78 -117 150 -123
161 -10 18 -4 27 46 70 95 83 163 130 293 204 116 66 151 80 148 63 -1 -5 -1
-81 0 -171 l1 -163 83 3 82 3 0 168 c0 92 3 167 8 167 12 0 142 -67 215 -111
76 -47 180 -127 231 -177 41 -41 53 -16 -113 -236 l-126 -168 4 -62 c3 -33 5
-73 5 -88 1 -24 5 -28 29 -28 30 0 54 22 107 95 16 22 32 42 35 45 3 3 21 25
40 50 73 96 173 220 176 220 8 0 111 -163 138 -218 56 -111 104 -283 106 -373
0 -26 -1 -26 -67 -25 l-68 1 2 -70 c0 -38 1 -78 2 -87 1 -15 11 -18 71 -18
l70 0 0 -245 c0 -138 -4 -245 -9 -245 -5 0 -100 61 -212 135 -183 121 -208
135 -249 136 -25 1 -63 2 -85 3 -145 9 -128 -30 79 -174 75 -52 136 -100 136
-106 0 -6 -64 -87 -141 -180 -78 -93 -148 -179 -156 -190 -10 -16 -13 -52 -11
-145 l3 -123 47 50 c25 27 74 84 109 127 50 61 65 75 75 65 16 -18 354 -525
354 -533 0 -7 -766 -6 -785 2 -10 3 -15 19 -15 44 0 21 -3 39 -7 40 -5 0 -44
2 -89 5 l-81 5 0 -44 c0 -54 -9 -70 -34 -62 -23 8 -24 -3 -3 -34 9 -12 34 -64
55 -114 22 -50 43 -93 48 -97 5 -3 268 -5 584 -4 596 2 605 2 627 44 7 13 10
323 10 949 0 1018 1 998 -61 1188 -54 169 -125 303 -239 453 -173 227 -473
453 -747 560 -132 52 -168 52 -298 -1z m987 -2146 c35 -27 74 -55 86 -63 22
-15 23 -17 20 -250 l-3 -235 -71 100 c-39 55 -108 155 -154 223 l-83 123 22
27 c12 15 38 48 57 75 20 26 42 47 49 47 7 0 41 -21 77 -47z"/>
<path d="M10102 11948 c-5 -8 -13 -121 -17 -258 -4 -135 -9 -248 -12 -252 -2
-5 -109 -8 -238 -8 -201 0 -236 -2 -250 -16 -13 -13 -15 -38 -13 -147 3 -129
3 -132 28 -144 18 -9 88 -13 247 -13 122 0 224 -4 227 -8 2 -4 6 -245 7 -535
2 -360 6 -535 14 -550 10 -21 18 -22 139 -25 109 -2 132 0 147 14 18 16 19 43
19 561 l0 543 236 0 c143 0 243 4 255 10 17 10 19 22 19 148 0 94 -4 142 -12
150 -9 9 -79 12 -255 12 l-243 0 0 249 c0 214 -2 252 -16 265 -20 21 -265 24
-282 4z"/>
<path d="M9065 9852 c-234 -60 -418 -240 -481 -469 -78 -285 45 -595 295 -748
301 -182 700 -94 894 198 133 199 144 471 30 690 -72 137 -231 270 -383 318
-92 30 -260 35 -355 11z"/>
<path d="M11382 9139 c-94 -16 -177 -61 -256 -141 -124 -127 -172 -265 -148
-431 52 -354 424 -543 747 -380 68 35 175 145 209 214 128 263 29 568 -226
693 -105 52 -203 65 -326 45z"/>
<path d="M9100 8330 c-469 -60 -819 -378 -926 -840 -23 -100 -24 -121 -24
-439 0 -195 4 -350 10 -372 17 -62 69 -120 140 -157 59 -31 70 -34 127 -28
102 9 177 59 225 149 22 41 23 53 28 392 5 333 7 353 29 415 28 80 99 188 152
234 58 49 165 103 240 121 168 39 356 -10 484 -127 74 -67 110 -122 148 -221
l31 -82 6 -575 c5 -477 9 -584 22 -625 56 -183 183 -339 344 -422 94 -49 129
-59 253 -73 357 -40 672 185 752 538 6 29 11 203 11 458 0 415 4 477 34 540
28 58 101 131 162 161 47 23 70 28 132 28 127 -1 235 -67 290 -180 23 -48 25
-61 30 -295 l5 -245 28 -47 c51 -88 121 -136 212 -145 108 -11 207 47 256 151
l29 61 0 227 c0 243 -9 321 -52 439 -95 259 -313 460 -576 531 -113 30 -316
30 -429 0 -149 -40 -253 -97 -365 -200 -118 -110 -206 -257 -249 -417 -20 -74
-22 -112 -28 -533 l-6 -453 -41 -39 c-88 -82 -209 -73 -267 20 -22 35 -22 39
-23 565 -1 365 -5 550 -14 595 -51 273 -208 532 -418 688 -101 74 -255 146
-380 176 -115 28 -281 39 -382 26z"/>
</g>
</svg>
