<?xml version="1.0" standalone="no"?>
<!DOCTYPE svg PUBLIC "-//W3C//DTD SVG 20010904//EN"
 "http://www.w3.org/TR/2001/REC-SVG-20010904/DTD/svg10.dtd">
<svg version="1.0" xmlns="http://www.w3.org/2000/svg"
 width="2048.000000pt" height="2048.000000pt" viewBox="0 0 2048.000000 2048.000000"
 preserveAspectRatio="xMidYMid meet">
<metadata>
Created by potrace 1.16, written by Peter Selinger 2001-2019
</metadata>
<g transform="translate(0.000000,2048.000000) scale(0.100000,-0.100000)"
fill="#18bcf2" stroke="none">
<path d="M9950 16933 c-871 -39 -1618 -231 -2414 -622 -994 -488 -1836 -1253
-2415 -2193 -268 -435 -495 -940 -620 -1378 -115 -404 -190 -833 -220 -1265
-5 -66 -9 -1755 -10 -3752 l-1 -3633 230 0 230 0 1 3623 c0 1992 2 3629 3
3637 2 8 6 76 10 150 26 496 184 1168 388 1644 375 878 933 1602 1683 2186
691 537 1597 931 2480 1079 1059 178 2214 41 3175 -376 203 -88 541 -263 725
-376 453 -277 930 -684 1278 -1091 162 -188 257 -315 400 -531 370 -562 621
-1155 757 -1785 17 -80 37 -174 45 -210 18 -85 52 -352 65 -513 6 -81 10 -869
10 -2111 0 -1091 3 -1985 5 -1988 3 -3 29 -1 58 4 110 21 253 -23 345 -106
l52 -48 0 2025 c0 1303 -4 2080 -10 2179 -13 178 -43 449 -64 563 -48 265 -60
323 -91 450 -169 702 -518 1443 -958 2035 -886 1191 -2213 2024 -3672 2304
-428 82 -992 120 -1465 99z"/>
<path d="M9890 15374 c-184 -15 -400 -46 -565 -80 -1084 -223 -2058 -850
-2725 -1754 -77 -105 -242 -355 -258 -393 -19 -44 -14 -89 12 -122 21 -26 31
-30 74 -30 27 0 56 6 65 13 8 7 46 63 84 123 185 299 463 625 748 878 491 436
1114 767 1740 925 596 150 1159 174 1730 76 600 -104 1131 -317 1650 -663 153
-103 286 -203 427 -324 167 -141 178 -155 178 -211 0 -112 41 -192 178 -349
154 -179 436 -464 499 -506 116 -79 253 -99 370 -55 79 29 181 130 210 208 45
120 37 228 -24 344 -32 60 -253 284 -448 455 -242 212 -312 254 -418 249 l-63
-2 -110 95 c-541 470 -1127 789 -1789 974 -495 138 -1062 192 -1565 149z"/>
<path d="M11805 13224 c-164 -20 -304 -90 -424 -214 -208 -213 -244 -583 -88
-895 98 -197 259 -346 517 -479 132 -68 157 -87 222 -167 60 -75 87 -133 175
-384 157 -443 195 -549 296 -840 95 -270 182 -512 201 -557 6 -12 -1 -21 -26
-34 -57 -29 -231 -136 -276 -170 -92 -70 -232 -217 -301 -317 -70 -102 -151
-301 -180 -444 -45 -222 -8 -479 101 -698 44 -88 173 -290 255 -401 29 -40 65
-98 81 -130 25 -55 27 -67 25 -178 l-3 -118 34 -34 c47 -47 73 -51 170 -20
145 45 221 30 315 -63 162 -159 275 -455 275 -721 0 -260 -101 -410 -306 -451
-106 -21 -128 -40 -143 -120 -9 -47 11 -92 67 -150 47 -49 92 -133 101 -189 4
-19 9 -116 12 -215 9 -310 23 -428 71 -600 31 -110 38 -129 81 -228 199 -450
520 -717 993 -822 142 -32 210 -38 380 -37 374 3 778 109 1190 313 469 233
803 541 981 904 113 231 144 365 143 625 -1 194 -19 308 -76 470 -80 226 -239
478 -422 670 -112 117 -164 184 -199 258 -25 54 -30 79 -33 160 -3 73 -9 103
-22 121 -57 77 -126 85 -216 27 -140 -91 -274 -87 -416 11 -166 114 -323 362
-386 610 -40 160 -27 277 42 353 19 21 70 56 112 78 91 48 111 67 122 118 15
64 2 91 -72 162 -102 98 -123 147 -148 352 -38 307 -76 454 -160 622 -136 271
-347 450 -640 546 -225 73 -491 77 -759 10 -102 -25 -125 -28 -132 -17 -5 8
-32 66 -60 129 -116 257 -201 445 -283 630 -48 107 -103 229 -122 270 -18 41
-103 229 -188 418 -248 550 -306 610 -638 672 -84 15 -173 36 -198 46 -119 46
-229 154 -272 267 -18 50 -23 81 -23 162 0 87 3 107 27 157 35 74 101 145 163
174 93 44 228 26 294 -38 42 -41 71 -99 71 -140 l0 -33 -22 31 c-12 17 -38 42
-57 55 -49 33 -175 34 -236 2 -80 -42 -115 -105 -115 -205 0 -194 195 -338
405 -299 177 33 314 182 347 377 20 123 -22 282 -103 387 -72 94 -195 172
-315 201 -66 16 -163 25 -209 20z"/>
<path d="M7990 12559 c-409 -39 -783 -156 -1100 -345 -337 -201 -593 -446
-806 -769 -217 -331 -331 -632 -396 -1050 -16 -109 -25 -5797 -8 -5894 6 -35
26 -94 45 -131 78 -155 226 -261 388 -278 60 -6 6639 -10 6749 -4 l27 2 -34
61 c-48 84 -71 136 -120 274 l-43 120 -308 0 -309 0 -5 872 -5 873 405 2 405
3 3 42 c4 55 -22 205 -49 285 -25 74 -80 181 -112 220 l-22 28 -45 -17 c-32
-13 -75 -18 -150 -18 -98 0 -110 2 -173 32 -79 38 -163 114 -199 180 -35 65
-52 153 -44 229 4 42 2 75 -7 101 -7 21 -71 124 -141 228 -227 337 -313 561
-329 860 -6 105 10 289 33 379 40 151 127 353 195 447 18 26 40 60 49 77 l16
31 -32 5 c-18 2 -71 10 -118 16 -226 31 -492 168 -690 356 -199 190 -328 431
-437 819 -107 381 -181 561 -335 810 -380 613 -1045 1038 -1787 1140 -140 19
-384 26 -511 14z m-1440 -6724 c0 -490 2 -506 52 -539 12 -8 42 -18 66 -22
l42 -7 0 -358 c0 -324 -2 -358 -16 -361 -9 -2 -129 -1 -266 2 l-250 5 -24 28
-24 28 0 840 0 839 210 0 210 0 0 -455z m855 2 c-1 -248 3 -466 7 -483 12 -45
49 -75 103 -81 l45 -6 -2 -361 -3 -360 -260 2 c-143 1 -272 2 -287 2 l-28 0 0
365 c0 321 2 364 15 359 26 -10 82 5 109 31 l26 24 0 481 0 480 138 0 137 0 0
-453z m1005 -423 l0 -876 -52 6 c-29 3 -160 6 -290 6 l-237 0 -3 358 c-2 196
-2 358 -1 360 0 2 19 5 42 6 48 4 88 28 101 62 6 15 10 219 10 490 l0 464 215
0 215 0 0 -876z m690 421 c0 -484 1 -497 48 -539 12 -10 42 -21 67 -23 l45 -6
0 -358 c0 -198 -3 -359 -7 -360 -5 0 -135 -1 -291 -2 -245 -2 -282 0 -282 13
0 8 0 362 -1 785 -1 424 -1 809 0 858 l1 87 210 0 210 0 0 -455z m850 -18 c0
-518 -2 -500 60 -532 16 -8 45 -15 65 -15 l35 0 -2 -362 -3 -362 -290 1 -289
0 -1 362 0 361 38 0 c44 0 92 22 106 48 5 10 11 218 13 495 l3 477 132 0 133
0 0 -473z m850 -2 l0 -475 28 -31 c23 -26 38 -33 80 -37 l52 -5 -2 -360 -3
-360 -290 0 -290 1 -3 363 -2 364 45 1 c52 2 92 24 105 60 6 15 10 219 10 490
l0 464 135 0 135 0 0 -475z m1000 -395 c0 -689 -3 -870 -12 -870 -7 0 -137 -1
-288 -2 l-275 -1 -3 361 -2 362 31 0 c40 0 97 27 112 54 9 16 11 142 10 494
l-1 472 214 0 214 0 0 -870z"/>
</g>
</svg>
