<?xml version="1.0" standalone="no"?>
<!DOCTYPE svg PUBLIC "-//W3C//DTD SVG 20010904//EN"
 "http://www.w3.org/TR/2001/REC-SVG-20010904/DTD/svg10.dtd">
<svg version="1.0" xmlns="http://www.w3.org/2000/svg"
 width="2048.000000pt" height="2048.000000pt" viewBox="0 0 2048.000000 2048.000000"
 preserveAspectRatio="xMidYMid meet">
<metadata>
Created by potrace 1.16, written by Peter Selinger 2001-2019
</metadata>
<g transform="translate(0.000000,2048.000000) scale(0.100000,-0.100000)"
fill="#18bcf2" stroke="none">
<path d="M10009 17516 c-2 -2 -132 -6 -289 -9 -507 -11 -1059 -58 -1660 -143
-93 -13 -398 -70 -595 -110 -904 -186 -1540 -451 -1823 -760 -107 -116 -157
-258 -133 -375 28 -136 115 -256 270 -373 140 -106 220 -156 356 -221 240
-115 524 -216 840 -299 259 -67 701 -163 710 -154 2 2 -69 28 -157 58 -351
118 -580 261 -643 401 -47 106 -25 196 74 295 85 86 236 171 441 249 263 100
458 151 915 239 129 25 446 67 680 91 28 3 70 7 95 10 120 12 467 36 670 45
179 8 953 5 1055 -4 28 -3 104 -7 170 -11 120 -6 434 -30 510 -40 22 -2 72 -7
110 -11 278 -24 706 -100 1045 -184 385 -96 721 -244 863 -378 129 -123 140
-241 34 -375 -79 -100 -324 -235 -595 -328 -84 -28 -150 -54 -148 -56 10 -11
585 117 781 173 453 130 837 295 1065 459 130 94 178 140 240 232 124 184 113
353 -36 539 -179 224 -613 446 -1234 633 -537 161 -1296 291 -2075 356 -267
22 -291 24 -395 29 -255 14 -1131 31 -1141 22z"/>
<path d="M10020 15804 c-247 -23 -383 -47 -571 -98 -408 -112 -808 -316 -1128
-575 -124 -100 -357 -332 -452 -451 -131 -162 -330 -470 -379 -586 -30 -69
-43 -80 -97 -82 -76 -4 -230 -31 -328 -58 -182 -50 -323 -112 -483 -210 -502
-310 -824 -822 -893 -1424 -24 -208 2 -522 60 -722 50 -173 148 -393 238 -532
176 -273 461 -527 746 -667 49 -23 49 -24 42 -64 -3 -22 -58 -247 -121 -500
-123 -489 -127 -521 -90 -593 38 -74 117 -121 202 -122 62 0 99 15 429 170 50
23 128 58 175 77 86 36 243 108 553 255 l168 79 57 -48 c31 -26 70 -59 85 -73
61 -54 262 -198 269 -194 4 3 8 12 8 21 0 22 66 213 97 281 37 82 163 281 237
376 126 161 297 306 499 424 136 80 212 114 350 157 194 60 353 85 538 85 293
0 545 -58 794 -182 207 -103 321 -184 476 -338 156 -155 240 -266 338 -451 46
-88 131 -315 131 -352 0 -28 24 -19 104 37 252 181 575 506 700 705 14 22 31
43 38 47 7 5 72 9 143 11 268 5 480 52 730 164 225 100 396 220 570 400 215
223 352 448 452 744 75 225 88 311 88 600 0 235 -2 258 -28 380 -109 508 -392
934 -807 1212 -255 170 -488 257 -802 299 l-137 18 -65 126 c-157 310 -354
573 -613 818 -142 135 -241 215 -369 303 -437 296 -899 468 -1404 524 -120 13
-445 18 -550 9z m-749 -1733 c37 -12 100 -43 140 -69 180 -118 278 -303 279
-525 0 -98 -40 -116 -88 -39 -70 112 -190 212 -307 253 -75 27 -238 37 -327
19 -135 -26 -280 -126 -362 -249 -77 -115 -113 -92 -103 63 13 195 78 322 225
440 156 126 358 166 543 107z m2301 -4 c242 -88 390 -285 405 -538 9 -155 -18
-178 -92 -75 -90 127 -209 214 -338 247 -88 23 -223 25 -317 3 -122 -27 -255
-124 -334 -243 -25 -38 -53 -71 -61 -75 -26 -10 -39 34 -38 129 4 268 182 491
453 567 91 25 230 19 322 -15z m-2476 -1567 c307 -137 632 -222 964 -251 410
-35 892 54 1285 238 95 45 156 67 191 70 47 5 52 3 78 -28 28 -32 28 -36 23
-119 -14 -215 -143 -518 -310 -725 -306 -380 -779 -587 -1222 -535 -621 72
-1129 559 -1260 1208 -20 96 -14 144 20 178 38 38 81 32 231 -36z"/>
<path d="M10025 10314 c-300 -54 -567 -188 -765 -384 -222 -220 -348 -463
-401 -770 -19 -110 -20 -163 -19 -1240 0 -619 3 -1147 6 -1175 26 -225 116
-467 245 -657 77 -113 235 -274 344 -350 166 -116 339 -191 535 -234 128 -28
441 -26 562 4 339 84 581 235 804 502 93 112 206 326 248 472 63 219 61 166
62 1378 0 608 -3 1141 -7 1186 -34 342 -169 632 -404 869 -178 179 -381 296
-642 369 -167 47 -404 59 -568 30z"/>
<path d="M8105 8281 c-86 -22 -171 -94 -196 -167 -19 -55 -20 -1353 -1 -1499
59 -457 228 -858 510 -1210 80 -99 272 -289 372 -366 320 -248 673 -409 1024
-468 l101 -17 3 -457 2 -457 -47 -1 c-27 0 -221 -2 -433 -3 -401 -3 -449 -7
-554 -51 -117 -49 -250 -165 -317 -277 -52 -86 -89 -201 -89 -278 l0 -60 128
0 c299 -1 3158 -1 3268 -1 97 1 123 4 127 16 9 22 -11 130 -39 209 -72 207
-251 371 -461 423 -67 17 -123 18 -830 22 l-113 1 0 459 0 459 53 7 c353 47
720 205 1051 454 147 110 303 260 396 381 19 24 43 53 53 65 10 11 47 63 82
115 209 313 345 697 384 1080 5 52 8 392 8 755 l-2 660 -23 51 c-82 180 -326
215 -454 65 -63 -73 -61 -57 -64 -726 -3 -724 -6 -785 -39 -944 -151 -713
-689 -1252 -1411 -1410 -425 -94 -890 -11 -1286 230 -149 90 -205 134 -338
269 -94 94 -192 212 -247 299 -91 142 -189 369 -233 541 -48 189 -51 236 -55
952 -3 642 -4 678 -23 720 -27 61 -67 105 -121 132 -51 26 -140 39 -186 27z"/>
</g>
</svg>
