<?xml version="1.0" standalone="no"?>
<!DOCTYPE svg PUBLIC "-//W3C//DTD SVG 20010904//EN"
 "http://www.w3.org/TR/2001/REC-SVG-20010904/DTD/svg10.dtd">
<svg version="1.0" xmlns="http://www.w3.org/2000/svg"
 width="2048.000000pt" height="2048.000000pt" viewBox="0 0 2048.000000 2048.000000"
 preserveAspectRatio="xMidYMid meet">
<metadata>
Created by potrace 1.16, written by Peter Selinger 2001-2019
</metadata>
<g transform="translate(0.000000,2048.000000) scale(0.100000,-0.100000)"
fill="#18bcf2" stroke="none">
<path d="M14605 15616 c-102 -25 -204 -91 -299 -195 -142 -152 -523 -571 -573
-627 -32 -37 -89 -102 -127 -143 -105 -114 -142 -212 -153 -403 l-6 -106
-1244 -1239 c-684 -681 -1250 -1238 -1256 -1238 -7 0 -52 26 -100 58 -177 118
-370 198 -530 219 -238 32 -508 -73 -787 -306 -106 -88 -196 -172 -430 -401
-517 -505 -897 -788 -1350 -1004 -264 -126 -598 -221 -885 -252 -129 -14 -358
-6 -490 16 -179 31 -166 32 -249 -14 -160 -88 -379 -254 -514 -389 -229 -231
-387 -482 -486 -773 -57 -168 -81 -285 -97 -467 -28 -327 56 -783 206 -1107
81 -176 99 -213 143 -283 24 -40 42 -75 39 -78 -3 -3 -74 -21 -159 -39 -316
-69 -701 -170 -759 -201 -35 -18 -75 -70 -81 -107 -13 -68 32 -161 92 -192 45
-23 114 -18 260 20 396 104 835 200 861 190 8 -3 55 -58 104 -123 303 -394
747 -810 1165 -1089 124 -83 356 -213 485 -271 189 -85 462 -171 625 -197 25
-4 54 -9 64 -11 59 -11 209 -19 331 -17 433 4 816 141 1170 418 339 266 651
718 787 1143 14 43 25 62 37 62 24 0 307 -73 511 -131 928 -267 1705 -622
2449 -1118 274 -183 302 -200 347 -207 35 -5 54 -1 91 17 112 56 134 196 46
280 -113 108 -797 530 -1122 693 -40 21 -70 41 -65 45 19 18 484 168 664 215
459 120 800 182 1240 226 339 34 478 39 860 33 585 -10 530 -11 574 16 69 43
94 136 57 216 -51 112 -109 120 -786 119 -415 0 -597 -11 -971 -59 -328 -42
-576 -90 -957 -186 -358 -89 -672 -192 -1017 -334 -95 -39 -119 -46 -140 -37
-14 5 -131 52 -260 104 -388 157 -767 279 -1269 408 -85 22 -157 43 -160 45
-10 10 92 477 136 625 54 180 160 351 293 470 98 88 167 135 339 232 196 109
301 172 391 231 75 50 239 187 272 226 187 224 279 402 328 629 116 543 -58
1118 -505 1668 l-25 30 1223 1222 c672 672 1236 1233 1252 1248 29 24 36 26
155 27 121 2 127 3 200 38 41 20 98 54 126 75 84 63 851 823 885 875 75 118
104 278 74 415 -19 91 -82 230 -145 324 -59 88 -249 276 -337 334 -184 120
-392 171 -548 132z m-4825 -5337 c179 -52 356 -174 455 -314 221 -313 227
-685 14 -1000 -38 -56 -154 -170 -219 -215 -135 -92 -268 -138 -427 -147 -243
-14 -457 66 -637 237 -166 158 -250 339 -263 566 -19 341 159 653 460 805 157
80 246 100 417 94 89 -3 147 -10 200 -26z m-2415 -1784 c43 -21 1251 -1215
1285 -1271 30 -47 43 -134 30 -185 -24 -89 -105 -170 -187 -187 -50 -11 -144
3 -192 28 -60 30 -1251 1217 -1280 1275 -30 61 -32 143 -3 207 25 57 98 130
144 146 49 16 156 9 203 -13z"/>
<path d="M8092 14301 c-126 -47 -202 -112 -330 -279 -102 -133 -130 -162 -188
-191 -67 -35 -144 -44 -269 -32 -284 28 -421 -3 -536 -122 -155 -161 -193
-438 -125 -912 33 -225 56 -341 150 -735 13 -58 23 -106 22 -107 -7 -7 -409
-7 -606 1 -327 11 -459 -9 -649 -102 -229 -111 -336 -359 -270 -623 62 -247
221 -449 501 -635 196 -130 469 -223 705 -240 43 -3 98 -7 123 -9 75 -5 302
14 412 35 112 22 333 88 463 140 282 111 668 355 955 604 166 144 219 194 485
456 423 416 635 572 910 670 249 88 492 96 699 24 38 -13 77 -24 86 -24 22 0
166 150 259 270 109 141 193 320 232 495 8 36 14 123 14 220 0 137 -3 171 -23
238 -45 155 -134 291 -243 372 -90 66 -154 88 -282 93 -95 4 -117 1 -190 -21
-134 -42 -275 -141 -414 -292 -63 -67 -234 -294 -373 -495 -316 -454 -493
-695 -597 -813 -80 -91 -448 -309 -737 -437 -248 -109 -516 -189 -796 -236
-159 -27 -545 -53 -559 -38 -8 8 -91 313 -91 335 0 5 41 9 94 9 449 0 993 142
1451 379 222 115 512 303 653 423 84 72 363 341 379 365 15 23 13 28 -52 136
-161 264 -350 529 -517 722 -150 174 -281 279 -417 336 -64 27 -91 33 -176 36
-82 3 -110 0 -153 -16z"/>
<path d="M13253 8330 c-55 -33 -63 -61 -63 -231 l0 -151 39 -39 c34 -35 44
-39 87 -39 52 1 90 23 113 67 17 32 15 295 -3 337 -30 71 -107 97 -173 56z"/>
<path d="M12550 8137 c-20 -7 -44 -27 -58 -47 -38 -56 -27 -99 56 -232 77
-123 102 -152 145 -162 38 -9 99 9 126 37 51 55 39 109 -61 264 -66 101 -85
122 -125 139 -38 16 -38 16 -83 1z"/>
<path d="M13995 8136 c-40 -18 -52 -32 -134 -166 -58 -94 -71 -122 -71 -156 0
-91 103 -153 179 -108 32 19 167 217 187 273 17 50 0 115 -36 143 -34 25 -88
31 -125 14z"/>
<path d="M13157 7660 c-167 -35 -353 -149 -446 -272 -110 -147 -162 -296 -164
-468 -1 -113 26 -268 49 -277 12 -4 189 48 224 67 16 9 16 14 4 67 -48 205 39
436 207 543 157 101 362 115 520 34 67 -33 188 -153 218 -216 12 -25 29 -78
39 -118 14 -63 19 -70 37 -66 11 2 69 13 128 23 l109 18 -7 53 c-9 76 -48 182
-92 255 -21 34 -78 103 -128 153 -70 70 -108 100 -172 133 -161 82 -351 108
-526 71z"/>
<path d="M12042 7553 c-39 -19 -62 -59 -62 -108 0 -68 24 -92 160 -158 130
-63 198 -79 239 -57 33 17 61 70 61 113 0 70 -20 92 -138 148 -176 85 -202 91
-260 62z"/>
<path d="M14460 7549 c-30 -11 -93 -39 -140 -62 -98 -48 -130 -86 -130 -150 0
-33 7 -46 40 -80 39 -38 42 -40 91 -34 29 4 95 27 153 53 157 73 179 93 178
165 -1 53 -27 98 -67 115 -43 18 -57 17 -125 -7z"/>
</g>
</svg>
