<?xml version="1.0" standalone="no"?>
<!DOCTYPE svg PUBLIC "-//W3C//DTD SVG 20010904//EN"
 "http://www.w3.org/TR/2001/REC-SVG-20010904/DTD/svg10.dtd">
<svg version="1.0" xmlns="http://www.w3.org/2000/svg"
 width="2048.000000pt" height="2048.000000pt" viewBox="0 0 2048.000000 2048.000000"
 preserveAspectRatio="xMidYMid meet">
<metadata>
Created by potrace 1.16, written by Peter Selinger 2001-2019
</metadata>
<g transform="translate(0.000000,2048.000000) scale(0.100000,-0.100000)"
fill="#18bcf2" stroke="none">
<path d="M10152 17753 c-44 -21 -89 -74 -101 -120 -14 -50 -14 -397 0 -447 14
-49 80 -122 126 -137 87 -28 195 15 237 96 19 36 21 60 24 245 4 221 -2 259
-45 310 -55 66 -166 90 -241 53z"/>
<path d="M6770 17693 c-147 -51 -317 -116 -409 -155 -64 -27 -143 -61 -175
-75 -79 -33 -328 -157 -441 -220 -536 -298 -996 -645 -1430 -1078 -524 -523
-882 -1031 -1208 -1713 -86 -180 -114 -247 -187 -447 -81 -224 -162 -477 -200
-630 -39 -150 -37 -181 13 -247 78 -104 211 -116 304 -26 39 38 45 52 83 208
39 156 174 560 247 740 118 290 322 675 498 940 418 629 996 1209 1625 1630
148 99 213 138 517 309 192 108 579 276 820 355 141 47 203 112 203 216 0 79
-55 164 -123 189 -29 11 -110 14 -137 4z"/>
<path d="M13565 17683 c-84 -44 -124 -131 -104 -223 20 -91 71 -134 214 -180
39 -13 125 -45 192 -71 1124 -446 2079 -1214 2740 -2204 209 -313 399 -679
554 -1068 63 -156 185 -530 214 -651 37 -157 62 -199 138 -231 96 -40 205 2
254 99 33 65 29 107 -32 321 -126 442 -243 744 -451 1155 -180 358 -309 564
-572 915 -200 267 -535 631 -782 849 -655 580 -1336 987 -2109 1262 -135 48
-203 55 -256 27z"/>
<path d="M9385 17435 c-52 -19 -111 -82 -125 -135 -25 -94 13 -160 192 -336
130 -128 162 -148 236 -147 138 1 235 154 176 278 -8 18 -79 98 -158 177 -118
121 -150 147 -191 161 -58 20 -78 21 -130 2z"/>
<path d="M10966 17435 c-51 -18 -320 -282 -347 -340 -21 -45 -24 -109 -8 -152
13 -35 64 -90 104 -110 39 -21 122 -20 167 1 37 18 270 246 314 307 35 50 42
123 16 181 -23 54 -53 84 -107 109 -47 22 -86 23 -139 4z"/>
<path d="M7005 16601 c-309 -118 -502 -209 -800 -376 -145 -81 -453 -284 -590
-389 -776 -597 -1337 -1355 -1677 -2266 -57 -153 -164 -513 -179 -601 -12 -73
-11 -77 13 -131 72 -157 296 -154 363 6 9 21 40 122 70 225 170 590 405 1065
769 1556 122 164 235 294 401 461 188 189 302 290 475 421 395 300 788 519
1245 694 214 82 241 96 279 143 66 81 37 228 -56 289 -69 44 -130 38 -313 -32z"/>
<path d="M9040 16634 c-125 -70 -144 -224 -40 -318 57 -51 94 -58 318 -54 177
3 201 5 237 24 94 49 132 171 83 264 -17 32 -40 55 -78 78 l-54 32 -211 0
c-206 0 -211 -1 -255 -26z"/>
<path d="M10933 16635 c-120 -60 -147 -205 -57 -305 59 -66 90 -72 330 -68
235 3 248 7 308 81 27 34 31 48 34 111 4 69 2 74 -30 116 -18 25 -53 55 -78
68 -42 21 -56 22 -250 22 -200 0 -207 -1 -257 -25z"/>
<path d="M13185 16646 c-128 -57 -154 -230 -49 -328 18 -16 114 -60 249 -113
973 -383 1730 -982 2283 -1807 281 -420 480 -857 637 -1402 25 -87 53 -171 62
-186 38 -65 147 -104 224 -81 49 15 108 65 125 108 30 70 8 195 -81 473 -255
788 -645 1448 -1184 2002 -559 576 -1196 992 -1963 1284 -178 68 -239 78 -303
50z"/>
<path d="M9588 16088 c-21 -13 -100 -89 -177 -170 -112 -118 -143 -156 -152
-190 -22 -83 10 -165 85 -215 40 -27 58 -33 103 -33 34 0 68 7 91 19 53 28
308 288 327 333 34 83 6 183 -68 242 -32 26 -48 31 -105 34 -56 2 -73 -1 -104
-20z"/>
<path d="M10720 16099 c-96 -38 -148 -173 -103 -267 23 -48 288 -314 335 -335
123 -57 265 23 276 157 7 92 -7 116 -165 277 -80 81 -160 155 -178 163 -37 18
-126 20 -165 5z"/>
<path d="M10235 15884 c-5 -1 -27 -5 -48 -9 -42 -7 -99 -52 -125 -99 -14 -25
-17 -67 -20 -232 -4 -225 2 -265 51 -321 89 -101 231 -94 311 15 l31 44 3 206
c4 223 -2 263 -44 320 -34 44 -121 86 -159 76z"/>
<path d="M7505 15618 c-337 -114 -749 -320 -1015 -506 -271 -191 -424 -318
-631 -529 -222 -225 -339 -367 -496 -603 -133 -200 -242 -401 -345 -634 -60
-135 -173 -483 -204 -629 -25 -115 -27 -133 -15 -175 26 -97 97 -151 201 -152
53 0 100 19 135 54 27 27 54 97 84 224 38 158 93 320 168 497 51 120 76 170
186 375 205 381 557 789 933 1081 296 231 610 410 977 558 110 43 210 90 224
103 34 30 63 94 63 138 0 84 -50 168 -117 196 -37 16 -105 17 -148 2z"/>
<path d="M12825 15616 c-43 -19 -92 -78 -105 -128 -23 -83 15 -189 78 -222 16
-8 98 -42 183 -76 227 -91 518 -239 704 -359 636 -411 1150 -1021 1418 -1682
69 -172 140 -385 172 -522 13 -59 31 -120 39 -135 60 -116 234 -138 322 -40
64 70 68 138 20 323 -93 350 -232 689 -409 995 -305 529 -716 971 -1227 1322
-310 212 -713 417 -1019 517 -73 24 -132 26 -176 7z"/>
<path d="M8060 14504 c-314 -31 -557 -98 -815 -224 -685 -336 -1143 -968
-1252 -1731 -17 -116 -18 -270 -18 -2324 l0 -2200 23 -142 c46 -285 148 -569
289 -802 349 -576 931 -976 1578 -1084 l130 -22 2160 0 c1188 -1 2215 3 2283
7 354 22 689 132 1007 332 125 78 361 272 449 369 351 385 548 811 601 1296
10 91 13 596 11 2316 -2 2042 -3 2207 -19 2300 -105 602 -410 1107 -877 1456
-150 111 -238 165 -390 238 -202 96 -409 160 -641 198 -96 16 -282 17 -2294
19 -1204 0 -2206 0 -2225 -2z m2461 -715 c381 -30 794 -137 1158 -300 258
-115 455 -232 696 -414 411 -310 737 -688 994 -1153 218 -395 353 -824 413
-1307 17 -145 17 -614 0 -755 -97 -776 -399 -1435 -926 -2019 -489 -542 -1190
-941 -1918 -1091 -225 -46 -356 -60 -608 -67 -496 -12 -914 63 -1392 253 -444
176 -827 426 -1182 774 -582 570 -938 1279 -1053 2100 -22 156 -25 648 -5 810
19 155 77 438 123 600 95 337 270 708 474 1005 389 568 979 1051 1589 1302
345 142 759 243 1091 266 119 8 422 6 546 -4z"/>
<path d="M10010 13389 c-349 -27 -737 -125 -1027 -257 -863 -396 -1491 -1101
-1763 -1984 -124 -399 -164 -881 -110 -1303 69 -531 271 -1033 589 -1458 136
-182 154 -202 325 -372 262 -261 471 -416 756 -564 386 -200 734 -305 1166
-351 169 -19 573 -8 749 19 865 135 1618 603 2127 1321 312 440 499 936 559
1480 17 155 14 499 -6 665 -53 445 -196 875 -413 1240 -125 209 -230 351 -409
548 -639 704 -1604 1090 -2543 1016z m678 -433 c297 -53 470 -110 767 -256
266 -131 452 -260 677 -471 319 -298 570 -690 711 -1111 184 -546 198 -1082
41 -1633 -153 -540 -481 -1030 -936 -1396 -297 -239 -657 -418 -1033 -514
-272 -69 -359 -80 -680 -80 -259 0 -303 3 -415 23 -433 80 -786 223 -1135 460
-162 110 -236 172 -375 311 -324 325 -539 670 -679 1088 -109 326 -147 583
-138 936 6 233 20 347 72 562 147 615 514 1174 1025 1562 258 196 580 358 890
447 284 83 462 106 795 102 230 -3 278 -6 413 -30z"/>
<path d="M10055 12583 c-114 -9 -284 -38 -400 -68 -466 -120 -832 -346 -1174
-724 -192 -212 -328 -436 -437 -717 -162 -419 -197 -896 -97 -1344 74 -336
246 -693 466 -965 77 -95 240 -258 350 -349 314 -258 744 -447 1147 -502 444
-60 884 3 1297 185 285 125 583 346 793 586 333 382 528 829 581 1334 14 138
6 420 -16 571 -47 314 -177 658 -345 914 -398 608 -1012 987 -1730 1070 -120
14 -324 18 -435 9z m349 -403 c205 -20 459 -87 642 -170 330 -149 674 -457
862 -771 344 -573 374 -1254 82 -1840 -81 -161 -118 -224 -204 -338 -389 -522
-1093 -831 -1734 -760 -298 32 -626 151 -882 319 -596 392 -942 1109 -871
1805 15 140 75 387 127 518 147 372 407 692 754 924 79 53 277 156 370 191
148 57 361 106 550 125 75 8 200 7 304 -3z"/>
<path d="M10099 11511 c-81 -16 -131 -64 -153 -146 -8 -28 -41 -149 -74 -270
-33 -121 -92 -339 -132 -485 -39 -146 -79 -294 -89 -330 -11 -36 -24 -89 -31
-118 -7 -30 -16 -50 -20 -45 -5 4 -22 46 -38 93 -68 193 -214 575 -228 599
-56 95 -235 107 -308 21 -24 -30 -215 -345 -236 -392 -12 -26 -15 -26 -120
-30 -98 -3 -110 -5 -147 -31 -124 -86 -115 -275 16 -344 41 -21 56 -23 201
-23 229 0 261 15 347 165 20 36 40 61 44 57 8 -8 75 -185 174 -462 144 -401
148 -410 192 -452 82 -77 238 -61 298 31 14 21 46 121 79 241 30 113 73 270
95 350 21 80 60 224 85 320 25 96 51 194 57 218 7 23 15 42 19 42 5 0 61 -215
125 -477 161 -654 223 -891 248 -935 60 -109 211 -131 305 -44 42 38 45 45
187 536 167 578 206 699 205 640 0 -8 26 -76 57 -150 65 -151 119 -221 182
-233 18 -4 122 -7 230 -7 169 0 201 3 236 19 156 72 150 288 -10 362 -32 15
-65 19 -156 19 l-117 0 -40 93 c-278 638 -275 633 -334 663 -17 9 -56 18 -87
21 -46 4 -64 0 -101 -19 -80 -43 -76 -34 -240 -593 -123 -422 -131 -445 -141
-417 -12 31 -100 372 -240 931 -86 342 -126 485 -143 511 -37 57 -119 86 -197
71z"/>
<path d="M4056 11335 c-59 -21 -104 -71 -123 -135 -21 -73 -13 -322 13 -372
53 -105 168 -147 264 -98 86 44 117 145 107 351 -4 90 -10 125 -26 156 -25 50
-70 89 -119 103 -48 13 -68 12 -116 -5z"/>
<path d="M16296 11336 c-49 -18 -102 -70 -118 -115 -9 -24 -13 -93 -13 -201 0
-191 10 -224 82 -274 113 -79 272 -18 303 116 13 56 13 251 0 319 -23 121
-144 195 -254 155z"/>
<path d="M3422 11072 c-68 -20 -132 -110 -132 -187 0 -66 33 -118 137 -223
109 -111 160 -142 228 -142 154 0 246 171 160 297 -43 64 -208 225 -250 244
-40 18 -100 23 -143 11z"/>
<path d="M4675 11061 c-22 -10 -85 -65 -142 -123 -140 -143 -165 -203 -124
-294 40 -88 130 -144 204 -128 55 11 81 30 190 134 126 120 151 164 145 249
-10 138 -148 220 -273 162z"/>
<path d="M15659 11070 c-104 -31 -160 -165 -112 -268 20 -45 221 -244 268
-266 101 -48 237 15 266 124 10 38 9 54 -5 102 -14 50 -30 71 -124 169 -64 67
-123 119 -147 130 -42 19 -101 23 -146 9z"/>
<path d="M16903 11059 c-60 -30 -220 -200 -251 -267 -40 -88 -16 -177 65 -239
46 -35 133 -43 189 -18 60 28 248 223 270 280 34 91 -13 206 -100 246 -54 25
-121 24 -173 -2z"/>
<path d="M3156 10426 c-144 -53 -168 -248 -42 -350 l38 -31 166 -3 c221 -5
267 10 313 100 46 91 18 209 -64 265 -40 28 -43 28 -206 30 -124 2 -176 -1
-205 -11z"/>
<path d="M4705 10425 c-146 -51 -164 -260 -32 -352 39 -27 45 -28 197 -31 173
-4 222 4 270 44 45 38 63 81 64 149 1 86 -31 141 -103 178 -53 26 -60 27 -205
27 -104 -1 -164 -5 -191 -15z"/>
<path d="M15420 10431 c-90 -29 -138 -85 -147 -173 -6 -61 14 -112 63 -162 50
-50 79 -56 251 -56 133 0 165 3 199 19 135 61 148 265 22 348 -41 27 -45 28
-202 30 -89 1 -172 -1 -186 -6z"/>
<path d="M16965 10431 c-69 -17 -115 -64 -135 -140 -21 -81 17 -179 87 -223
35 -21 51 -23 198 -26 97 -2 174 0 196 7 44 13 91 54 113 98 18 37 21 128 5
170 -15 42 -79 102 -119 113 -40 11 -299 12 -345 1z"/>
<path d="M3594 9959 c-55 -16 -253 -207 -285 -274 -46 -98 3 -220 106 -266 94
-43 155 -22 272 97 52 52 107 115 123 140 60 95 47 190 -36 263 -56 50 -108
61 -180 40z"/>
<path d="M4544 9959 c-87 -20 -164 -124 -151 -203 10 -63 35 -100 149 -217 89
-90 122 -118 154 -127 84 -24 145 -9 201 49 40 43 53 77 53 144 0 68 -35 122
-154 237 -120 114 -167 136 -252 117z"/>
<path d="M15838 9960 c-40 -12 -63 -31 -171 -138 -122 -120 -141 -153 -135
-238 3 -52 9 -70 34 -101 57 -72 152 -101 229 -69 39 17 176 145 234 219 72
95 76 187 8 264 -53 61 -128 85 -199 63z"/>
<path d="M16755 9946 c-93 -43 -139 -127 -117 -213 17 -61 46 -101 153 -210
63 -63 105 -98 135 -109 150 -57 297 85 254 246 -10 37 -31 64 -125 158 -155
154 -203 174 -300 128z"/>
<path d="M4035 9753 c-87 -46 -107 -92 -113 -258 -7 -202 18 -285 100 -335 41
-24 108 -33 156 -20 59 15 118 79 131 141 14 63 14 270 0 329 -23 102 -93 160
-191 160 -29 -1 -66 -8 -83 -17z"/>
<path d="M16275 9755 c-47 -25 -83 -65 -96 -104 -18 -51 -18 -345 -1 -393 17
-49 81 -103 138 -117 57 -15 119 0 168 41 66 54 71 72 71 263 0 159 -2 173
-24 218 -33 67 -85 100 -165 105 -42 2 -70 -2 -91 -13z"/>
<path d="M5505 7263 c-523 -65 -1263 -242 -1781 -426 -378 -135 -878 -350
-963 -414 -75 -57 -94 -192 -38 -266 49 -65 83 -82 162 -82 66 0 80 5 225 71
751 346 1583 593 2339 694 84 11 168 27 187 36 81 39 129 149 104 237 -16 58
-63 115 -114 138 -40 18 -59 20 -121 12z"/>
<path d="M17562 6453 c-13 -3 -116 -52 -230 -111 -375 -193 -567 -280 -892
-404 -553 -210 -1095 -347 -1670 -422 -322 -42 -487 -51 -910 -50 -339 0 -575
16 -860 55 -236 33 -277 27 -339 -48 -39 -47 -58 -130 -42 -183 26 -87 79
-133 172 -150 480 -86 1253 -109 1799 -54 851 85 1713 320 2492 679 156 72
515 259 611 318 151 93 121 319 -48 366 -41 11 -44 11 -83 4z"/>
<path d="M6230 5433 c-1111 -52 -2219 -324 -3262 -799 -229 -105 -278 -150
-278 -259 0 -117 83 -197 204 -198 55 0 74 6 186 60 527 254 1242 492 1869
623 945 197 1853 232 2701 104 738 -111 1333 -286 2065 -606 28 -12 266 -131
531 -263 799 -401 1322 -596 2034 -759 342 -78 791 -143 1118 -161 53 -3 114
-8 134 -10 46 -6 681 -6 723 -1 17 3 80 7 140 10 61 4 130 9 155 11 644 70
1204 189 1736 369 365 124 452 158 714 277 326 148 671 330 734 388 39 35 56
80 56 145 0 103 -93 196 -197 196 -33 0 -69 -14 -165 -66 -626 -334 -1239
-576 -1808 -713 -631 -151 -1072 -209 -1650 -216 -526 -6 -1020 39 -1440 130
-488 106 -778 192 -1239 367 -250 94 -441 180 -721 322 -441 224 -675 338
-845 411 -849 364 -1723 573 -2640 634 -123 8 -714 11 -855 4z"/>
</g>
</svg>
