<?xml version="1.0" standalone="no"?>
<!DOCTYPE svg PUBLIC "-//W3C//DTD SVG 20010904//EN"
 "http://www.w3.org/TR/2001/REC-SVG-20010904/DTD/svg10.dtd">
<svg version="1.0" xmlns="http://www.w3.org/2000/svg"
 width="2048.000000pt" height="2048.000000pt" viewBox="0 0 2048.000000 2048.000000"
 preserveAspectRatio="xMidYMid meet">
<metadata>
Created by potrace 1.16, written by Peter Selinger 2001-2019
</metadata>
<g transform="translate(0.000000,2048.000000) scale(0.100000,-0.100000)"
fill="#18bcf2" stroke="none">
<path d="M9280 15620 c-378 -39 -676 -156 -945 -373 -79 -64 -306 -296 -483
-494 -315 -353 -542 -562 -726 -668 -44 -26 -166 -92 -271 -147 -214 -113
-381 -210 -427 -248 l-30 -26 41 -81 c59 -119 136 -359 157 -488 21 -139 15
-314 -16 -430 -32 -119 -38 -109 70 -112 444 -11 635 -40 948 -143 237 -78
430 -177 604 -308 67 -50 102 -71 112 -65 7 4 41 32 74 61 145 127 336 251
547 353 285 139 568 223 915 271 126 17 660 17 790 0 426 -58 811 -192 1155
-405 80 -49 234 -162 290 -212 17 -15 45 -39 62 -52 37 -28 43 -26 108 31 115
103 365 235 589 312 307 106 583 151 939 155 81 1 147 3 147 5 0 3 -9 37 -20
77 -27 95 -35 168 -34 307 1 138 22 254 73 406 l39 114 -65 72 c-36 40 -91
107 -122 148 -54 70 -75 105 -196 320 -183 323 -390 557 -633 713 -137 89
-229 127 -431 183 -190 52 -314 70 -766 109 -352 31 -647 126 -1216 390 -242
112 -447 180 -644 211 -108 18 -513 26 -635 14z"/>
<path d="M5050 13877 c-3 -2 -32 -7 -65 -11 -153 -15 -349 -95 -479 -195 -265
-205 -406 -509 -407 -881 -1 -354 111 -638 342 -870 281 -281 658 -413 1184
-414 173 0 252 5 470 29 674 75 1060 65 1366 -36 115 -39 270 -115 366 -181
113 -78 274 -252 378 -408 86 -129 195 -328 208 -380 12 -46 18 -12 19 106 2
395 -131 731 -389 989 -246 245 -624 399 -1093 445 -94 9 -713 5 -820 -6 -259
-25 -616 -25 -770 1 -336 55 -560 228 -655 503 -36 104 -45 267 -20 362 53
203 201 343 395 373 132 20 263 -24 360 -122 78 -79 110 -151 125 -281 7 -59
20 -123 30 -145 76 -159 308 -205 444 -89 72 62 93 122 92 259 -2 255 -104
489 -296 680 -123 122 -305 216 -491 254 -58 12 -286 26 -294 18z"/>
<path d="M15211 13869 c-215 -25 -433 -132 -583 -286 -78 -80 -92 -98 -140
-178 -90 -151 -158 -407 -143 -540 22 -201 201 -316 384 -246 118 45 167 113
182 252 12 122 21 152 67 229 45 76 147 159 224 185 156 51 325 13 448 -102
66 -60 120 -154 145 -253 26 -98 17 -261 -20 -360 -59 -161 -127 -254 -251
-346 -104 -77 -269 -141 -409 -160 -27 -3 -59 -8 -70 -10 -25 -6 -493 -6 -520
0 -11 2 -87 7 -170 11 -82 4 -163 9 -180 11 -58 10 -521 6 -635 -5 -356 -35
-605 -111 -864 -265 -98 -58 -141 -92 -236 -186 -198 -195 -311 -407 -365
-681 -18 -90 -32 -375 -21 -405 5 -14 18 3 50 71 23 50 78 148 120 220 291
484 636 700 1206 754 160 16 595 -1 875 -34 393 -46 684 -51 903 -16 243 38
410 93 569 187 240 141 404 324 505 563 61 142 84 238 99 403 32 351 -83 683
-314 905 -96 92 -145 127 -253 181 -179 89 -393 125 -603 101z"/>
<path d="M6738 11115 c-2 -1 -57 -5 -123 -8 -66 -3 -230 -17 -365 -31 -538
-55 -820 -55 -1127 0 -33 6 -33 6 -33 -33 0 -119 -50 -558 -81 -708 -63 -301
-138 -497 -339 -880 -85 -161 -217 -459 -259 -583 -93 -280 -155 -578 -176
-857 -4 -44 -11 -118 -16 -165 -21 -200 -8 -299 57 -427 67 -133 216 -245 363
-273 35 -6 559 -10 1495 -9 1383 0 1439 1 1381 18 -168 48 -335 184 -412 336
-53 105 -81 192 -93 290 -11 93 -5 903 8 955 l8 35 394 5 c435 6 412 3 550 76
144 76 218 174 319 424 56 138 114 255 126 255 25 0 88 -209 160 -530 80 -356
138 -523 223 -637 90 -122 182 -172 317 -172 72 -1 89 3 148 32 44 22 82 50
112 85 153 173 222 423 341 1232 72 492 157 922 185 933 5 2 7 8 3 13 -3 5 -1
9 5 9 24 0 88 -286 161 -720 11 -69 54 -357 95 -640 123 -853 144 -973 200
-1200 75 -297 183 -487 320 -558 44 -23 62 -26 150 -27 93 0 104 2 161 32 124
65 219 214 289 458 45 154 115 502 145 715 51 365 94 561 162 753 11 31 22 57
25 57 5 0 36 -73 62 -150 13 -36 51 -176 86 -311 73 -283 127 -430 197 -534
56 -86 106 -131 181 -168 156 -76 334 -51 457 65 73 69 98 109 204 321 l101
202 50 25 c48 24 58 25 276 28 l226 3 7 -63 c3 -35 9 -259 12 -498 8 -553 0
-613 -103 -805 -80 -149 -247 -279 -419 -325 -68 -19 -49 -19 1382 -19 921 -1
1471 3 1505 9 81 15 212 83 268 140 103 104 150 206 158 340 7 112 -14 381
-73 945 -28 270 -123 623 -217 810 -16 33 -89 148 -162 256 -379 561 -496 850
-512 1267 l-6 152 -26 -1 c-14 0 -78 -7 -141 -14 -154 -18 -470 -12 -730 14
-459 46 -563 54 -750 54 -301 -1 -525 -48 -666 -139 -20 -14 -20 -14 12 -83
157 -330 310 -862 383 -1338 16 -103 31 -211 34 -239 l4 -52 -236 -5 c-260 -5
-294 -11 -418 -72 -142 -70 -200 -144 -349 -447 -42 -87 -83 -158 -90 -158
-33 0 -79 129 -183 517 -39 144 -84 297 -100 340 -103 266 -268 396 -472 372
-183 -21 -305 -156 -398 -439 -43 -133 -70 -268 -145 -720 -37 -217 -77 -444
-91 -505 -29 -128 -85 -315 -95 -315 -8 0 -59 164 -89 285 -43 174 -90 438
-141 805 -16 118 -41 287 -55 375 -13 88 -39 259 -56 380 -74 531 -160 896
-252 1069 -110 207 -312 286 -496 194 -60 -31 -151 -133 -194 -221 -81 -165
-151 -434 -197 -762 -38 -272 -81 -547 -130 -830 -33 -194 -103 -455 -120
-455 -22 0 -81 195 -145 475 -67 298 -78 340 -107 425 -69 197 -150 305 -276
367 -70 35 -83 38 -161 38 -75 0 -94 -4 -151 -31 -152 -72 -238 -191 -359
-495 -65 -164 -99 -213 -166 -240 -20 -8 -134 -14 -359 -17 l-329 -4 7 76 c22
249 87 597 168 901 74 282 122 421 232 675 25 58 46 108 46 112 0 32 -223 117
-360 137 -93 14 -403 34 -412 26z"/>
<path d="M4310 6621 c-74 -23 -158 -101 -193 -180 -27 -61 -28 -158 -2 -230
24 -64 99 -145 164 -175 l46 -21 5900 -3 c5353 -2 5905 -1 5954 14 72 21 169
115 194 188 50 148 -9 300 -150 383 l-48 28 -5920 2 c-3256 1 -5931 -2 -5945
-6z"/>
<path d="M6400 5460 c-69 -5 -94 -11 -132 -33 -57 -34 -114 -95 -139 -151 -27
-59 -26 -185 1 -242 32 -65 95 -130 154 -159 l53 -26 3903 1 3903 0 51 24 c63
29 118 83 151 150 36 72 36 195 0 266 -33 66 -86 117 -151 147 l-54 24 -3827
2 c-2106 1 -3866 0 -3913 -3z"/>
</g>
</svg>
