<?xml version="1.0" standalone="no"?>
<!DOCTYPE svg PUBLIC "-//W3C//DTD SVG 20010904//EN"
 "http://www.w3.org/TR/2001/REC-SVG-20010904/DTD/svg10.dtd">
<svg version="1.0" xmlns="http://www.w3.org/2000/svg"
 width="2048.000000pt" height="2048.000000pt" viewBox="0 0 2048.000000 2048.000000"
 preserveAspectRatio="xMidYMid meet">
<metadata>
Created by potrace 1.16, written by Peter Selinger 2001-2019
</metadata>
<g transform="translate(0.000000,2048.000000) scale(0.100000,-0.100000)"
fill="#18bcf2" stroke="none">
<path d="M10080 15759 c-192 -29 -399 -117 -570 -242 -122 -90 -309 -289 -431
-462 -42 -59 -149 -240 -206 -345 -101 -190 -232 -508 -331 -805 -119 -356
-153 -524 -153 -755 0 -294 68 -475 299 -797 l52 -73 -23 -14 c-12 -8 -120
-63 -240 -121 -289 -141 -397 -214 -563 -379 -165 -165 -273 -325 -366 -546
-96 -224 -77 -140 -368 -1630 -56 -283 -113 -573 -127 -645 -103 -524 -107
-558 -73 -668 22 -70 84 -163 141 -211 100 -85 317 -138 704 -173 50 -4 198
-8 330 -7 284 1 446 23 670 93 177 54 436 182 588 288 88 62 272 201 307 233
19 17 80 71 135 118 55 48 231 218 391 377 480 478 696 676 940 861 336 255
681 418 1054 498 171 36 277 46 504 46 353 1 615 -58 900 -202 546 -275 880
-743 1001 -1405 22 -120 31 -467 16 -603 -47 -410 -176 -747 -401 -1045 -228
-302 -552 -522 -897 -609 -227 -57 -402 -59 -663 -6 -187 38 -358 60 -460 60
-172 0 -364 -47 -525 -128 -178 -89 -245 -142 -526 -418 -350 -344 -471 -440
-694 -549 -381 -188 -896 -236 -1398 -131 -240 51 -539 176 -732 306 -127 86
-298 226 -384 314 -79 81 -134 109 -221 114 -90 5 -165 -24 -229 -88 -102
-102 -113 -272 -26 -386 37 -49 279 -270 370 -339 401 -304 834 -479 1365
-551 175 -24 558 -24 735 0 477 64 847 216 1200 491 104 81 188 158 422 388
301 297 410 364 623 382 88 8 189 -5 370 -45 249 -57 443 -72 635 -50 418 48
835 235 1175 525 46 39 228 221 260 260 144 174 228 303 323 497 102 209 144
319 192 503 23 89 63 288 70 350 4 33 9 71 11 85 3 14 8 117 11 230 6 236 -9
402 -57 641 -136 676 -467 1196 -1000 1573 -167 118 -462 257 -689 325 -119
35 -327 78 -430 87 l-69 7 -15 41 c-9 22 -25 70 -37 105 -42 120 -120 274
-208 405 -106 160 -255 313 -388 400 -49 33 -109 73 -134 89 -25 16 -144 79
-265 139 -121 60 -222 114 -223 119 -3 7 53 91 95 144 62 75 157 251 191 350
54 159 72 423 42 605 -42 259 -179 676 -362 1105 -101 236 -279 533 -430 720
-72 88 -212 228 -298 298 -252 203 -604 302 -910 256z m398 -1328 c358 -89
633 -377 718 -752 23 -101 26 -129 21 -239 -20 -461 -338 -1143 -654 -1403
-130 -107 -200 -137 -318 -137 -83 0 -148 20 -229 70 -254 155 -471 482 -646
970 -28 78 -74 249 -91 339 -33 183 -20 355 40 519 48 128 74 176 164 294 136
179 380 322 612 358 92 14 287 4 383 -19z"/>
<path d="M13270 14451 c-47 -15 -85 -39 -126 -83 -65 -67 -88 -120 -88 -203
-1 -105 29 -158 163 -292 221 -222 332 -374 451 -618 68 -141 112 -261 156
-432 33 -131 76 -192 169 -241 68 -36 187 -38 256 -4 115 56 179 150 180 264
0 35 -4 84 -11 109 -15 59 -77 255 -95 299 -62 159 -86 212 -146 330 -37 74
-96 178 -130 230 -200 304 -475 597 -598 639 -38 12 -142 13 -181 2z"/>
<path d="M6844 13624 c-110 -39 -208 -180 -208 -299 0 -108 73 -219 180 -271
48 -23 62 -26 141 -22 101 4 142 20 203 79 113 110 130 271 40 390 -89 119
-230 167 -356 123z"/>
<path d="M6041 12370 c-78 -16 -134 -51 -222 -139 -137 -137 -180 -255 -150
-410 35 -177 169 -360 320 -435 116 -58 176 -71 336 -71 l150 0 68 34 c157 79
224 247 156 391 -34 70 -70 108 -157 164 -83 54 -108 82 -144 162 -14 32 -41
90 -58 129 -40 89 -72 130 -118 154 -46 23 -124 32 -181 21z"/>
<path d="M14255 12067 c-129 -51 -215 -169 -215 -295 0 -109 73 -222 175 -273
60 -29 70 -31 147 -27 97 5 142 25 205 90 61 63 87 126 87 218 -1 59 -6 85
-24 120 -39 76 -78 117 -142 149 -52 26 -72 31 -132 30 -39 0 -84 -6 -101 -12z"/>
<path d="M6442 10040 c-138 -33 -449 -175 -597 -273 -339 -224 -550 -521 -611
-857 -65 -358 7 -711 202 -1002 245 -364 686 -631 1387 -839 209 -62 616 -144
822 -164 39 -4 79 -9 90 -11 11 -2 108 -9 216 -15 324 -18 683 14 975 85 223
55 535 172 713 268 31 17 85 46 121 66 105 57 317 198 430 288 299 236 441
365 846 769 380 378 433 429 519 500 33 28 66 55 73 62 7 7 34 29 60 50 26 21
49 41 52 44 16 18 247 172 311 207 102 56 254 115 369 143 85 21 118 23 305
23 185 0 219 -3 290 -22 300 -83 510 -290 605 -598 67 -219 53 -477 -37 -664
-79 -164 -269 -298 -444 -313 -142 -11 -265 29 -343 113 -61 65 -91 132 -116
260 -12 59 -32 123 -45 146 -78 133 -252 188 -382 121 -92 -48 -151 -126 -167
-222 -9 -53 17 -229 49 -329 101 -317 342 -555 663 -653 80 -24 102 -27 262
-27 200 -1 286 13 435 70 106 41 201 95 305 175 267 202 434 540 465 939 12
165 -24 414 -91 618 -146 448 -500 791 -956 928 -270 80 -619 89 -908 23 -353
-81 -696 -263 -1050 -557 -102 -86 -448 -413 -636 -604 -495 -500 -738 -708
-1059 -908 -332 -207 -618 -315 -1015 -381 -118 -20 -171 -23 -420 -23 -239 0
-312 3 -452 22 -551 73 -1141 263 -1457 469 -112 73 -267 228 -316 316 -158
286 -111 646 114 864 111 108 316 223 513 289 62 20 127 46 143 57 115 77 152
169 125 312 -23 120 -97 199 -216 230 -63 16 -91 17 -142 5z"/>
</g>
</svg>
