<?xml version="1.0" standalone="no"?>
<!DOCTYPE svg PUBLIC "-//W3C//DTD SVG 20010904//EN"
 "http://www.w3.org/TR/2001/REC-SVG-20010904/DTD/svg10.dtd">
<svg version="1.0" xmlns="http://www.w3.org/2000/svg"
 width="2048.000000pt" height="2048.000000pt" viewBox="0 0 2048.000000 2048.000000"
 preserveAspectRatio="xMidYMid meet">
<metadata>
Created by potrace 1.16, written by Peter Selinger 2001-2019
</metadata>
<g transform="translate(0.000000,2048.000000) scale(0.100000,-0.100000)"
fill="#18bcf2" stroke="none">
<path d="M10143 17060 c-90 -19 -161 -79 -209 -176 l-29 -59 -5 -370 -5 -370
-80 -7 c-306 -26 -706 -111 -1002 -212 -528 -181 -1060 -498 -1473 -878 -297
-273 -517 -528 -729 -845 -108 -163 -167 -267 -276 -488 -236 -479 -365 -945
-420 -1515 -20 -211 -13 -634 15 -850 105 -821 425 -1580 929 -2200 257 -318
614 -648 951 -882 589 -408 1260 -655 1979 -728 112 -12 207 -18 211 -13 4 4
17 91 29 193 28 228 71 489 106 640 14 63 29 130 32 148 l6 32 -136 0 c-75 0
-138 3 -141 8 -12 21 -139 742 -131 750 2 2 160 3 352 2 l349 -1 23 41 c31 56
127 175 213 266 112 117 270 225 427 290 36 15 67 29 69 30 6 4 41 493 47 659
3 94 8 180 10 191 5 21 12 22 182 28 98 3 244 9 325 12 l148 6 2 -433 3 -433
35 -8 c248 -58 503 -215 656 -401 58 -72 74 -86 99 -86 17 -1 102 13 189 29
88 17 162 28 165 25 5 -5 -26 -40 -167 -186 l-74 -76 45 -89 c54 -109 139
-333 169 -446 12 -45 25 -87 29 -92 8 -9 277 255 390 384 356 406 647 897 820
1381 81 228 164 549 197 764 42 268 47 343 47 700 0 310 -3 369 -24 515 -43
313 -86 505 -174 785 -112 357 -305 759 -511 1065 -46 68 -231 318 -245 330
-3 3 -40 46 -81 95 -172 208 -424 447 -680 645 -342 265 -780 498 -1210 643
-324 109 -798 207 -1006 207 -44 0 -54 3 -55 18 -1 9 -2 177 -3 372 l-1 355
-28 56 c-32 65 -100 132 -161 160 -52 22 -136 31 -193 19z m-707 -1987 c-19
-61 -79 -353 -105 -511 -47 -282 -37 -257 -96 -259 -27 -2 -186 -12 -352 -24
-166 -12 -307 -19 -313 -17 -14 4 53 142 130 264 118 187 255 347 426 498 68
60 88 66 207 66 99 0 108 -2 103 -17z m1089 8 c19 -31 99 -495 121 -700 l6
-61 -441 0 c-242 0 -441 1 -441 3 0 17 45 317 65 438 24 142 60 303 71 321 7
12 612 10 619 -1z m735 -26 c70 -49 237 -213 305 -299 92 -119 220 -317 267
-413 22 -46 39 -86 37 -88 -2 -1 -112 5 -244 16 -132 10 -296 22 -365 26
l-125 8 -8 55 c-35 249 -105 623 -133 713 -5 16 4 17 109 14 108 -2 116 -4
157 -32z m-2751 -24 c-172 -233 -334 -517 -424 -746 -15 -38 -28 -71 -29 -72
-1 -1 -76 -11 -166 -23 -91 -12 -233 -32 -317 -46 -84 -13 -164 -24 -178 -24
-26 0 -26 2 27 62 277 323 632 614 998 819 94 53 109 58 89 30z m3484 -25
c266 -141 545 -349 791 -590 122 -118 291 -305 283 -311 -1 -1 -103 15 -227
36 -124 20 -279 44 -344 52 -65 9 -122 19 -126 24 -5 4 -20 40 -35 78 -74 188
-259 521 -381 683 -30 39 -52 72 -49 72 3 0 42 -20 88 -44z m-1299 -1176 c5
-5 11 -31 13 -57 1 -27 9 -146 18 -265 8 -119 17 -283 20 -365 3 -81 7 -184
10 -228 l5 -80 -547 0 -546 0 6 220 c6 196 23 468 45 700 l7 80 205 5 c286 7
753 1 764 -10z m-1458 -57 c-13 -100 -36 -407 -46 -613 -6 -118 -13 -243 -16
-277 l-6 -63 -121 -1 c-67 0 -129 -2 -137 -3 -8 -2 -109 -6 -225 -10 -115 -4
-225 -10 -242 -12 l-33 -5 0 489 0 489 78 6 c63 6 350 25 587 40 28 2 76 4
108 5 l59 2 -6 -47z m2154 32 c230 -13 419 -25 468 -31 l52 -5 0 -485 0 -484
-57 1 c-32 0 -179 6 -328 12 l-270 12 -6 125 c-12 240 -25 436 -55 789 l-7 84
54 -6 c30 -4 97 -9 149 -12z m1106 -112 c7 -10 15 -28 18 -40 4 -12 21 -55 40
-95 46 -100 127 -319 169 -458 38 -126 92 -349 86 -353 -2 -2 -104 4 -225 12
l-222 15 -6 44 c-3 25 -6 239 -6 477 l0 431 66 -8 c45 -5 71 -13 80 -25z
m-4532 11 c3 -9 6 -222 6 -474 l0 -458 -52 -6 c-80 -9 -292 -20 -298 -15 -7 6
-2 28 35 179 57 229 163 531 251 716 35 75 47 87 58 58z m-614 -267 c-70 -207
-147 -487 -175 -636 -8 -47 -17 -86 -19 -88 -2 -3 -320 -44 -470 -60 l-49 -6
7 38 c31 163 143 468 264 716 77 157 83 167 114 173 32 7 268 50 318 59 14 2
37 5 52 6 l26 1 -68 -203z m5785 184 c61 -10 153 -27 206 -36 l96 -18 58 -121
c139 -288 199 -435 254 -626 23 -80 44 -151 47 -159 5 -16 -7 -15 -323 22
-106 12 -197 27 -202 32 -5 6 -19 57 -31 115 -41 202 -100 416 -164 605 -36
105 -66 193 -66 198 0 10 -1 10 125 -12z m-2371 -1281 c10 -11 19 -631 11
-872 l-7 -248 -553 0 c-495 0 -553 2 -559 16 -3 9 -6 260 -6 559 0 425 3 544
13 549 16 6 1094 3 1101 -4z m-1612 -547 c2 -302 2 -552 0 -558 -1 -6 -56 -8
-155 -4 -159 7 -512 19 -559 19 l-28 0 0 534 0 533 293 10 c160 5 327 10 369
11 l77 2 3 -547z m2526 531 l232 -7 0 -146 c0 -80 3 -320 7 -533 l6 -388 -49
-1 c-27 0 -56 -2 -64 -4 -8 -1 -132 -6 -276 -10 l-260 -7 -1 557 0 557 86 -6
c47 -3 191 -8 319 -12z m-3647 -36 c1 -7 3 -237 4 -511 2 -370 -1 -500 -9
-503 -16 -6 -475 21 -482 29 -26 26 -42 565 -24 795 7 89 13 162 14 163 1 0
428 34 479 38 9 0 18 -5 18 -11z m4555 -3 c318 -20 300 -16 308 -73 20 -151
27 -417 16 -619 -6 -118 -15 -234 -18 -257 l-8 -41 -199 -11 c-110 -7 -237
-14 -282 -17 l-83 -5 0 519 c0 494 1 519 18 519 10 0 121 -7 248 -15z m-5503
-162 c-10 -146 -10 -576 0 -700 l8 -93 -43 5 c-24 2 -131 14 -238 25 -279 29
-258 22 -265 84 -12 92 -22 349 -18 451 4 114 20 275 27 283 3 2 121 17 263
32 142 15 262 28 266 29 4 0 4 -52 0 -116z m6596 76 c107 -11 196 -20 197 -22
8 -8 24 -271 24 -389 0 -127 -15 -386 -23 -394 -2 -3 -359 -46 -484 -59 l-63
-7 7 34 c8 34 11 647 4 778 -2 41 -3 79 -2 84 1 8 23 7 340 -25z m65 -1459
c-25 -85 -66 -207 -91 -270 -58 -150 -202 -439 -228 -456 -20 -13 -355 -84
-396 -84 -27 0 -29 -10 64 265 79 232 103 318 147 530 l26 130 175 22 c96 12
212 28 259 35 76 12 85 12 88 -2 2 -9 -18 -85 -44 -170z m-6819 145 c120 -14
222 -25 226 -25 4 0 13 -26 19 -57 52 -264 118 -502 209 -752 22 -63 40 -116
38 -117 -6 -6 -417 72 -423 79 -19 24 -156 305 -194 397 -55 134 -160 456
-160 491 0 18 4 20 33 15 17 -3 131 -17 252 -31z m862 -80 c76 -3 148 -8 161
-11 l22 -4 0 -470 c0 -420 -2 -470 -16 -470 -17 0 -46 59 -128 263 -87 218
-140 384 -190 594 -23 101 -23 118 0 109 7 -3 75 -8 151 -11z m5023 -5 c0 -28
-57 -241 -97 -365 -55 -169 -108 -311 -175 -467 -54 -127 -55 -128 -140 -128
l-48 0 0 475 0 475 63 1 c34 1 112 5 172 9 175 11 225 11 225 0z m-4065 -45
c50 -3 165 -7 257 -11 l166 -6 6 -92 c3 -50 10 -181 16 -291 6 -110 18 -289
27 -398 9 -108 13 -200 11 -203 -8 -7 -662 36 -775 52 l-43 6 -2 475 c-2 261
-1 477 2 480 3 3 59 2 125 -1 66 -4 161 -8 210 -11z m2015 -55 c0 -56 -21
-475 -30 -605 -5 -77 -12 -187 -15 -245 -4 -58 -10 -108 -13 -112 -8 -8 -486
-14 -775 -9 -193 2 -198 3 -206 24 -13 36 -64 946 -54 968 1 3 248 5 548 5
l545 -1 0 -25z m-3140 -1284 c124 -19 272 -40 328 -47 90 -11 105 -15 112 -33
104 -256 301 -619 411 -755 27 -34 46 -61 42 -61 -26 0 -380 221 -488 304
-129 100 -279 230 -383 333 -151 150 -276 293 -255 293 4 0 109 -16 233 -34z
m1350 -131 c151 -9 285 -18 296 -21 18 -3 23 -13 29 -61 12 -105 75 -466 100
-581 14 -63 27 -119 28 -125 1 -7 -33 -11 -109 -11 l-111 0 -54 40 c-72 55
-255 242 -322 329 -73 95 -166 243 -221 353 -25 49 -46 93 -46 97 0 5 30 5 68
2 37 -3 191 -13 342 -22z"/>
<path d="M15364 12400 c-21 -8 -64 -60 -64 -77 0 -22 -64 -172 -86 -201 -32
-41 -109 -85 -198 -115 -91 -29 -126 -61 -126 -116 0 -50 29 -82 93 -105 23
-8 63 -22 89 -31 98 -34 156 -97 198 -217 47 -134 67 -158 128 -158 42 0 73
31 96 95 33 90 84 190 114 218 16 15 74 45 131 67 56 21 114 46 127 55 49 32
54 102 11 143 -12 11 -59 34 -105 51 -45 17 -94 37 -110 45 -68 36 -118 112
-158 240 -30 96 -77 132 -140 106z"/>
<path d="M16255 11300 c-74 -11 -111 -40 -302 -233 -200 -202 -213 -220 -213
-307 0 -92 57 -187 135 -229 61 -32 159 -36 215 -8 51 25 403 373 429 424 23
47 29 141 10 190 -42 113 -155 180 -274 163z"/>
<path d="M4085 11282 c-137 -64 -186 -252 -98 -371 15 -21 109 -116 208 -212
156 -151 187 -177 228 -188 98 -28 203 7 264 87 56 74 70 180 33 260 -23 50
-358 390 -412 418 -51 27 -173 30 -223 6z"/>
<path d="M5158 10323 c-18 -12 -34 -36 -48 -78 -34 -96 -66 -160 -101 -200
-32 -36 -129 -91 -204 -115 -89 -28 -124 -85 -91 -148 14 -27 68 -62 96 -62 6
0 45 -16 86 -37 114 -55 144 -95 210 -278 23 -64 54 -95 96 -95 52 0 74 23
108 112 47 121 75 172 112 203 37 32 131 77 195 94 77 21 119 110 78 164 -7
10 -61 38 -120 63 -59 24 -120 53 -137 65 -42 30 -81 96 -124 206 -29 74 -42
97 -65 108 -36 19 -57 19 -91 -2z"/>
<path d="M3576 10094 c-123 -45 -188 -170 -156 -303 16 -66 73 -131 140 -160
49 -21 62 -22 333 -19 l282 3 46 32 c140 98 155 277 32 397 -62 60 -100 66
-387 65 -192 0 -260 -4 -290 -15z"/>
<path d="M16295 10086 c-66 -31 -102 -66 -127 -124 -53 -119 -11 -254 100
-319 l47 -28 277 -3 c266 -3 278 -3 327 19 208 89 196 391 -18 464 -35 12 -97
15 -300 15 -248 0 -258 -1 -306 -24z"/>
<path d="M15328 9840 c-40 -7 -83 -32 -110 -64 -10 -12 -35 -75 -57 -142 -81
-242 -134 -341 -228 -424 -58 -51 -192 -117 -328 -161 -195 -63 -246 -105
-253 -207 -7 -111 41 -155 238 -222 213 -72 315 -129 394 -222 49 -57 115
-192 171 -353 52 -151 65 -172 125 -202 55 -28 109 -29 160 -3 53 27 74 60
121 192 22 62 47 129 54 148 30 84 90 187 138 237 70 74 159 124 340 190 192
70 220 84 252 130 20 30 25 50 25 98 0 107 -39 140 -253 216 -132 46 -252 105
-319 156 -86 66 -168 215 -250 458 -47 137 -116 193 -220 175z"/>
<path d="M11535 9339 c-269 -40 -464 -200 -615 -504 -176 -354 -265 -756 -345
-1565 -26 -262 -37 -418 -80 -1125 -45 -732 -78 -1059 -145 -1437 -60 -333
-133 -558 -206 -631 -25 -25 -28 -26 -44 -12 -36 33 -91 152 -133 290 -73 238
-92 357 -202 1275 -75 633 -165 959 -331 1207 -136 202 -329 314 -539 314
-118 0 -168 -13 -280 -70 -72 -37 -108 -63 -180 -136 -235 -236 -332 -541
-460 -1455 -33 -236 -61 -398 -91 -530 -48 -209 -115 -380 -149 -380 -45 0
-106 163 -186 490 -103 425 -120 492 -145 566 -58 174 -143 316 -254 425 -124
123 -261 179 -437 179 -166 0 -297 -56 -434 -187 -115 -110 -157 -179 -301
-493 -43 -92 -112 -194 -161 -234 -23 -19 -67 -45 -97 -58 l-55 -23 -1010 -5
-1010 -5 -53 -24 c-128 -58 -200 -207 -172 -356 21 -109 86 -187 191 -226 47
-18 98 -19 1048 -19 1069 0 1081 0 1241 51 186 59 357 181 483 346 65 85 117
178 209 377 84 182 112 224 135 204 45 -37 102 -211 187 -573 90 -381 130
-505 213 -670 140 -279 346 -425 597 -425 255 1 441 119 590 375 119 206 215
568 281 1070 71 539 146 897 217 1040 25 50 66 105 78 105 14 0 55 -69 85
-142 76 -187 124 -455 200 -1121 101 -876 206 -1268 415 -1545 112 -148 237
-239 380 -273 73 -18 242 -18 305 0 366 103 588 498 715 1271 29 179 34 218
65 495 28 256 55 642 90 1290 25 452 42 647 91 1025 58 449 96 646 165 854 52
155 100 248 156 302 59 58 83 58 140 -1 67 -70 112 -169 183 -400 14 -47 66
-309 84 -420 40 -265 69 -546 111 -1080 68 -871 141 -1265 289 -1570 149 -305
349 -448 626 -447 76 0 111 5 175 27 374 125 570 536 690 1446 55 415 85 590
130 769 42 165 105 310 134 310 18 0 73 -127 141 -325 111 -324 169 -455 266
-601 126 -187 313 -325 524 -383 129 -36 313 -43 1065 -39 709 3 710 3 766 26
73 29 143 99 166 166 36 108 14 260 -49 332 -33 38 -97 79 -150 96 -22 7 -282
11 -819 12 l-787 2 -65 32 c-40 20 -81 50 -102 75 -60 70 -140 249 -220 491
-41 125 -90 260 -110 299 -107 221 -254 364 -440 430 -66 23 -96 28 -175 29
-111 0 -168 -12 -266 -57 -161 -73 -256 -176 -363 -392 -104 -209 -180 -524
-250 -1038 -67 -488 -97 -651 -151 -820 -40 -122 -87 -224 -108 -232 -50 -20
-132 202 -186 502 -47 268 -52 320 -126 1205 -41 489 -86 832 -151 1155 -59
293 -182 597 -309 770 -58 77 -168 178 -240 218 -126 69 -313 106 -445 86z"/>
<path d="M4434 9210 c-18 -4 -47 -16 -65 -28 -49 -30 -383 -371 -403 -410 -44
-85 -25 -208 40 -275 74 -76 166 -101 263 -71 51 16 72 33 243 202 206 204
228 235 228 328 0 85 -18 133 -71 186 -65 65 -148 89 -235 68z"/>
<path d="M5635 8529 c-66 -19 -100 -71 -144 -218 -34 -111 -103 -241 -158
-297 -59 -60 -132 -99 -288 -154 -147 -52 -166 -61 -198 -100 -53 -62 -48
-149 12 -209 28 -28 62 -46 146 -75 218 -77 331 -153 400 -270 19 -32 52 -113
75 -180 64 -191 96 -234 184 -243 65 -8 120 18 151 71 13 23 40 91 60 151 93
279 178 365 454 457 64 21 130 49 148 61 66 45 94 136 63 205 -24 52 -61 77
-172 113 -155 51 -274 114 -339 178 -65 66 -103 135 -149 276 -38 117 -62 166
-93 196 -38 36 -103 53 -152 38z"/>
</g>
</svg>
