<?xml version="1.0" standalone="no"?>
<!DOCTYPE svg PUBLIC "-//W3C//DTD SVG 20010904//EN"
 "http://www.w3.org/TR/2001/REC-SVG-20010904/DTD/svg10.dtd">
<svg version="1.0" xmlns="http://www.w3.org/2000/svg"
 width="2048.000000pt" height="2048.000000pt" viewBox="0 0 2048.000000 2048.000000"
 preserveAspectRatio="xMidYMid meet">
<metadata>
Created by potrace 1.16, written by Peter Selinger 2001-2019
</metadata>
<g transform="translate(0.000000,2048.000000) scale(0.100000,-0.100000)"
fill="#18bcf2" stroke="none">
<path d="M12636 15380 c-56 -22 -110 -69 -136 -120 -16 -32 -81 -282 -210
-815 -23 -93 -125 -503 -227 -910 -102 -407 -192 -769 -200 -805 -8 -36 -17
-72 -19 -80 -5 -12 -104 242 -159 405 -67 199 -219 616 -240 657 -34 68 -59
94 -120 126 -40 20 -65 26 -120 26 -127 1 -211 -58 -270 -189 -31 -69 -93
-198 -230 -485 -64 -135 -153 -324 -197 -420 -44 -96 -82 -178 -86 -182 -4 -4
-313 -8 -687 -10 l-680 -3 -50 -27 c-149 -79 -200 -232 -127 -380 22 -46 46
-76 75 -98 84 -62 66 -61 918 -58 l774 3 70 35 c51 26 77 46 97 76 38 58 114
212 235 479 57 127 108 234 112 238 5 5 25 -38 45 -95 19 -57 81 -233 137
-393 186 -535 282 -797 310 -841 82 -133 309 -154 423 -41 55 55 84 130 137
348 23 96 100 406 171 689 71 283 145 580 164 660 66 280 165 665 174 674 9 9
14 -7 24 -74 3 -19 14 -78 26 -130 19 -87 86 -410 96 -470 10 -53 95 -463 133
-640 44 -204 245 -1181 325 -1580 102 -507 131 -595 218 -656 61 -44 109 -57
187 -52 75 6 114 23 172 75 47 43 71 85 111 203 16 47 43 117 59 155 15 39 55
142 88 230 121 326 214 574 266 705 29 74 71 187 93 250 22 63 43 123 47 132
6 16 58 17 728 20 l722 3 57 28 c141 69 197 242 124 384 -27 55 -65 91 -130
126 l-41 22 -855 0 -855 0 -54 -30 c-97 -53 -102 -64 -384 -790 -41 -104 -77
-199 -82 -210 -9 -24 -22 20 -60 200 -13 66 -38 185 -55 265 -50 232 -191 906
-215 1025 -8 39 -28 133 -44 210 -16 77 -43 210 -61 295 -17 85 -36 172 -41
192 -5 20 -43 200 -84 400 -80 394 -103 502 -135 648 -12 52 -37 168 -55 257
-40 188 -53 225 -103 277 -79 82 -199 108 -306 66z"/>
<path d="M5750 13858 c-183 -14 -367 -68 -569 -164 -332 -159 -600 -429 -762
-769 -73 -154 -116 -293 -150 -490 -9 -54 -12 -731 -10 -2955 1 -1587 4 -2907
7 -2935 41 -391 267 -812 577 -1072 105 -88 244 -182 332 -223 168 -81 373
-140 550 -160 115 -13 7745 -10 7805 3 19 4 69 15 110 23 264 57 502 172 701
340 317 268 506 595 585 1009 16 83 17 268 16 2495 0 1323 -4 2406 -9 2408 -4
1 -14 -17 -22 -40 -19 -61 -373 -1002 -423 -1128 -45 -114 -145 -252 -235
-326 -179 -146 -425 -223 -630 -196 -43 6 -79 9 -81 7 -3 -2 4 -12 14 -22 9
-10 31 -47 48 -83 l31 -65 0 -1720 0 -1720 -23 -58 c-33 -81 -114 -166 -194
-203 l-63 -29 -657 -3 -658 -3 0 805 0 804 68 7 c37 4 83 11 102 17 45 14 136
107 146 150 4 18 9 36 10 41 1 4 2 502 3 1107 l1 1100 431 -1 c237 0 433 1
435 4 2 2 -28 27 -67 57 -42 32 -94 85 -130 133 -110 146 -136 213 -193 509
-85 437 -171 848 -177 848 -4 0 -14 -20 -24 -45 -25 -67 -117 -191 -193 -262
-113 -104 -256 -178 -406 -210 -102 -21 -306 -13 -401 17 -152 48 -269 122
-379 241 -90 97 -140 184 -193 336 -24 70 -46 129 -47 131 -2 1 -30 -9 -62
-23 -220 -98 -175 -95 -1106 -95 -867 0 -877 0 -1020 53 -106 38 -214 111
-313 211 -75 75 -99 107 -138 186 -65 130 -87 212 -94 348 -7 132 6 220 48
335 79 214 233 381 444 482 176 84 158 82 1273 85 7 0 36 48 64 108 206 437
268 576 268 596 0 9 -530 11 -2277 11 -1253 0 -2316 -3 -2363 -7z m905 -1322
c84 -24 215 -82 215 -95 0 -3 -98 -105 -216 -226 -119 -121 -220 -231 -226
-245 -19 -49 -11 -129 16 -170 52 -79 163 -110 244 -66 18 9 86 72 150 139
135 142 304 307 314 307 14 0 88 -167 114 -255 111 -387 -85 -819 -458 -1006
-135 -68 -210 -84 -388 -83 -142 0 -162 2 -240 28 -102 34 -166 65 -240 118
-167 118 -297 300 -351 493 -32 112 -32 332 -1 448 90 329 345 564 687 633
101 20 266 11 380 -20z m175 -3824 c0 -1226 -4 -1150 71 -1235 46 -53 90 -72
187 -82 l72 -7 0 -804 0 -804 -638 0 c-605 0 -642 1 -695 19 -116 40 -196 114
-240 223 l-22 53 -3 1684 c-1 1103 1 1704 8 1739 21 116 90 216 179 261 92 48
118 50 614 50 l467 1 0 -1098z m2161 1075 c1 -12 2 -506 3 -1097 2 -1203 -2
-1138 73 -1215 47 -48 102 -72 185 -81 57 -6 67 -10 70 -28 2 -11 3 -372 3
-801 l0 -780 -802 -3 -803 -2 0 805 0 805 28 1 c160 4 263 78 291 210 8 36 11
376 11 1113 0 583 0 1069 0 1078 0 16 31 18 470 17 l470 0 1 -22z m2162 -20
c2 -23 5 -519 6 -1102 1 -636 5 -1074 11 -1095 26 -97 114 -163 234 -174 39
-4 72 -9 75 -12 6 -6 9 -1561 3 -1586 -4 -17 -51 -18 -803 -18 l-799 0 0 804
0 803 65 6 c128 12 209 68 245 170 20 55 20 83 20 1152 l0 1095 469 -1 469 -1
5 -41z"/>
</g>
</svg>
