<?xml version="1.0" standalone="no"?>
<!DOCTYPE svg PUBLIC "-//W3C//DTD SVG 20010904//EN"
 "http://www.w3.org/TR/2001/REC-SVG-20010904/DTD/svg10.dtd">
<svg version="1.0" xmlns="http://www.w3.org/2000/svg"
 width="2048.000000pt" height="2048.000000pt" viewBox="0 0 2048.000000 2048.000000"
 preserveAspectRatio="xMidYMid meet">
<metadata>
Created by potrace 1.16, written by Peter Selinger 2001-2019
</metadata>
<g transform="translate(0.000000,2048.000000) scale(0.100000,-0.100000)"
fill="#18bcf2" stroke="none">
<path d="M12733 17063 c-52 -10 -66 -39 -177 -377 -59 -181 -110 -343 -112
-360 -4 -25 20 -83 121 -290 149 -306 155 -316 200 -316 58 0 73 22 121 184
24 82 45 151 47 153 2 1 27 -36 56 -84 58 -98 173 -255 255 -348 97 -110 306
-265 357 -265 35 0 46 16 98 141 21 52 53 128 70 169 17 41 34 94 38 117 l6
42 -110 113 c-123 127 -187 217 -261 363 -102 204 -150 379 -178 644 -5 53
-12 70 -34 93 l-28 28 -224 -1 c-123 -1 -233 -4 -245 -6z"/>
<path d="M9845 16169 c-60 -22 -148 -53 -195 -70 -142 -50 -170 -67 -191 -114
-29 -66 -139 -455 -139 -492 0 -52 51 -97 264 -232 209 -133 231 -141 285 -96
21 19 41 56 71 133 22 59 48 127 58 152 16 44 21 47 140 105 68 33 127 67 132
75 20 31 10 90 -31 182 -23 51 -63 151 -91 223 -27 71 -59 140 -70 152 -33 35
-101 30 -233 -18z"/>
<path d="M12276 15788 c-20 -18 -46 -84 -116 -293 -50 -148 -102 -308 -117
-355 -14 -47 -27 -86 -28 -88 -2 -2 -30 10 -63 27 -113 57 -208 76 -377 75
-169 -1 -248 -17 -379 -78 -300 -138 -466 -379 -466 -674 1 -247 140 -456 385
-578 221 -109 444 -121 695 -38 133 44 206 85 306 171 140 122 202 227 280
471 25 81 91 282 145 446 55 165 100 315 100 335 1 27 -30 100 -130 303 -152
308 -172 331 -235 276z"/>
<path d="M9145 14581 c-19 -8 -387 -349 -492 -456 -50 -50 -53 -56 -53 -103 0
-44 4 -53 32 -77 17 -15 102 -62 187 -105 247 -123 464 -240 488 -262 24 -23
52 -100 109 -303 19 -71 43 -142 52 -157 21 -36 75 -62 105 -51 21 7 175 107
452 292 148 99 148 101 65 403 -21 79 -53 208 -70 287 -17 80 -39 163 -49 186
-21 48 -64 74 -276 160 -77 32 -187 78 -245 103 -213 91 -256 103 -305 83z"/>
<path d="M8409 12370 c-161 -27 -318 -199 -335 -367 -21 -201 105 -391 301
-456 16 -5 89 -12 160 -16 l130 -6 3 -670 2 -671 -57 -28 c-163 -80 -443 -261
-614 -398 -549 -439 -946 -1008 -1158 -1661 -91 -279 -140 -529 -166 -837 -12
-136 -6 -511 9 -657 83 -778 419 -1503 951 -2052 153 -158 199 -200 349 -325
515 -427 1159 -706 1826 -791 240 -31 744 -26 955 10 544 91 1030 285 1485
593 174 118 266 191 426 340 329 305 586 647 783 1039 127 255 258 659 306
945 3 18 10 60 16 93 51 283 46 800 -10 1115 -64 359 -152 637 -303 950 -89
187 -142 279 -242 430 -329 496 -772 893 -1331 1196 l-85 46 2 666 3 667 130
6 c73 3 151 13 177 22 113 36 198 113 251 225 30 63 32 74 32 177 0 104 -2
114 -32 176 -62 126 -189 220 -324 239 -88 13 -649 12 -729 -1 -131 -21 -251
-116 -313 -246 l-32 -68 -3 -1104 c-2 -1091 -2 -1106 18 -1167 50 -149 104
-198 353 -318 374 -180 582 -322 829 -568 199 -198 318 -355 457 -604 283
-508 398 -1134 311 -1689 -119 -764 -523 -1414 -1147 -1848 -228 -158 -500
-294 -742 -371 -694 -220 -1441 -146 -2086 205 -152 82 -346 210 -460 302
-116 94 -350 336 -433 449 -253 341 -426 722 -501 1103 -44 224 -55 330 -54
545 1 489 126 945 378 1377 120 204 244 362 431 545 228 223 422 357 766 529
259 130 305 162 362 258 64 108 61 50 61 1241 l-1 1085 -22 60 c-57 154 -176
257 -331 285 -62 12 -684 11 -752 0z"/>
<path d="M9645 8558 c-32 -37 -32 -23 11 -368 17 -135 31 -215 43 -235 12 -22
45 -44 117 -80 56 -28 125 -66 154 -85 88 -56 108 -52 360 75 280 140 270 132
270 203 l0 56 -98 96 c-198 192 -414 309 -654 355 -44 8 -102 15 -128 15 -42
0 -52 -4 -75 -32z"/>
<path d="M9133 8520 c-28 -10 -95 -41 -150 -69 -415 -214 -684 -659 -684
-1131 -1 -217 50 -434 143 -612 41 -79 65 -105 103 -108 61 -6 70 0 267 194
230 225 225 217 188 359 -19 74 -22 104 -17 190 6 120 23 180 74 265 59 96
115 156 209 218 127 84 123 69 90 380 -27 259 -37 303 -75 324 -29 15 -89 11
-148 -10z"/>
<path d="M11541 8244 c-164 -44 -275 -168 -303 -340 -30 -178 68 -356 240
-437 61 -29 75 -32 162 -31 74 0 107 5 150 22 112 45 197 130 242 242 31 79
31 203 0 286 -77 202 -288 313 -491 258z"/>
<path d="M10482 7616 c-230 -115 -276 -146 -286 -199 -3 -12 -7 -69 -9 -127
-13 -284 -191 -504 -467 -575 -99 -26 -240 -16 -349 24 -90 33 -129 38 -164
20 -42 -21 -377 -363 -388 -396 -22 -69 29 -126 186 -205 194 -98 373 -142
580 -141 213 0 384 41 580 140 134 67 229 136 335 243 146 147 241 301 305
495 44 132 65 261 65 396 0 267 -52 439 -133 439 -14 0 -129 -51 -255 -114z"/>
<path d="M12320 7132 c-14 -2 -92 -29 -175 -59 -82 -31 -280 -102 -438 -158
-158 -57 -299 -111 -312 -119 -31 -20 -65 -67 -250 -341 -407 -602 -472 -702
-477 -727 -8 -45 14 -89 138 -268 150 -217 187 -260 224 -260 51 0 32 -26 598
822 84 125 160 231 169 237 10 5 149 57 308 116 160 58 320 117 356 131 139
52 143 86 43 383 -55 163 -74 208 -94 222 -31 21 -57 27 -90 21z"/>
<path d="M10245 5489 c-44 -17 -135 -50 -201 -74 -190 -68 -217 -87 -216 -152
1 -48 123 -423 151 -461 26 -37 72 -56 114 -48 17 4 86 26 152 50 66 25 181
65 255 90 191 65 224 83 228 124 4 41 -22 87 -170 297 -114 161 -159 205 -207
205 -14 -1 -62 -15 -106 -31z"/>
</g>
</svg>
