<?xml version="1.0" standalone="no"?>
<!DOCTYPE svg PUBLIC "-//W3C//DTD SVG 20010904//EN"
 "http://www.w3.org/TR/2001/REC-SVG-20010904/DTD/svg10.dtd">
<svg version="1.0" xmlns="http://www.w3.org/2000/svg"
 width="2048.000000pt" height="2048.000000pt" viewBox="0 0 2048.000000 2048.000000"
 preserveAspectRatio="xMidYMid meet">
<metadata>
Created by potrace 1.16, written by Peter Selinger 2001-2019
</metadata>
<g transform="translate(0.000000,2048.000000) scale(0.100000,-0.100000)"
fill="#18bcf2" stroke="none">
<path d="M13737 15774 c-93 -20 -159 -51 -242 -114 -92 -69 -131 -114 -185
-213 l-45 -81 -55 -12 c-30 -7 -88 -19 -129 -26 -43 -7 -76 -19 -79 -26 -2 -7
41 -58 96 -113 l99 -100 6 -147 c6 -151 34 -299 72 -372 9 -17 14 -34 12 -37
-3 -2 -50 29 -104 69 -233 177 -367 265 -594 396 -662 379 -1437 599 -2214
628 -141 6 -181 4 -235 -10 -146 -38 -230 -136 -238 -280 -8 -138 52 -248 167
-305 71 -36 97 -40 256 -42 193 -3 445 -28 640 -66 156 -29 238 -50 563 -145
84 -24 462 -187 597 -257 268 -139 577 -345 810 -540 129 -108 435 -416 547
-552 232 -280 367 -487 560 -859 187 -362 340 -844 412 -1305 62 -395 68 -898
15 -1280 -62 -451 -192 -896 -378 -1296 -59 -128 -64 -217 -15 -316 34 -71
120 -148 186 -168 170 -50 316 25 405 207 182 372 378 1041 427 1458 38 324
45 441 41 745 -4 396 -33 673 -106 1019 -78 371 -176 688 -301 976 -73 169
-266 543 -339 656 -81 127 -265 386 -326 461 -85 104 -82 97 -53 90 14 -3 59
-15 100 -26 124 -34 253 -45 377 -32 333 35 592 157 823 390 58 58 126 138
151 176 53 80 110 187 104 193 -2 3 -42 -1 -87 -9 -155 -25 -300 -15 -410 28
l-37 15 44 54 c122 151 185 324 185 513 0 119 -29 241 -57 241 -8 0 -82 -30
-164 -66 -157 -69 -427 -164 -466 -164 -30 0 -49 31 -63 105 -28 145 -83 260
-163 343 -58 60 -164 137 -228 166 -100 46 -253 57 -382 30z m5 -384 c34 -26
52 -72 44 -113 -8 -41 -29 -62 -77 -75 -76 -20 -128 14 -136 92 -5 42 -3 48
30 81 28 28 43 35 75 35 24 0 49 -8 64 -20z"/>
<path d="M10105 14322 c-92 -39 -128 -71 -176 -162 -20 -38 -24 -59 -24 -140
0 -112 18 -155 94 -229 70 -68 117 -82 311 -91 346 -18 621 -76 930 -197 416
-164 778 -406 1099 -732 314 -321 544 -689 696 -1117 90 -253 132 -434 167
-714 20 -160 17 -604 -5 -758 -49 -340 -129 -623 -264 -929 -43 -99 -47 -114
-47 -188 0 -95 25 -153 95 -223 68 -67 119 -87 219 -87 107 1 161 24 233 98
44 46 61 75 111 198 175 423 276 836 305 1239 13 168 5 545 -14 705 -51 432
-151 797 -322 1185 -166 374 -490 836 -778 1109 -570 538 -1189 861 -1910 995
-296 55 -637 73 -720 38z"/>
<path d="M7540 13005 c-609 -90 -1105 -442 -1367 -970 -96 -192 -152 -372
-185 -585 -19 -124 -19 -2576 0 -2700 80 -522 319 -930 722 -1231 103 -78 292
-182 420 -232 201 -79 408 -117 640 -118 233 -1 384 24 600 98 353 121 679
376 902 703 112 165 189 340 242 546 60 234 58 184 59 1569 0 1155 -1 1280
-17 1380 -84 537 -360 976 -791 1260 -88 58 -287 156 -390 193 -255 90 -584
124 -835 87z"/>
<path d="M11745 12114 c-521 -54 -908 -209 -1155 -464 -244 -251 -350 -623
-304 -1065 2 -28 8 -55 12 -62 4 -7 38 16 92 64 47 41 117 103 156 136 38 34
131 116 205 182 74 66 161 143 194 171 33 28 94 80 135 115 41 36 111 92 155
125 178 133 189 129 82 -31 -49 -73 -235 -316 -257 -335 -3 -3 -16 -18 -28
-34 -26 -34 -105 -126 -177 -206 -27 -31 -95 -109 -150 -175 -55 -65 -121
-143 -147 -174 -32 -38 -44 -59 -37 -66 18 -18 420 -12 529 8 171 33 314 90
477 193 117 74 250 229 340 394 141 262 232 693 222 1057 -5 180 -4 178 -132
179 -51 0 -146 -5 -212 -12z"/>
<path d="M5165 9814 c-103 -26 -172 -81 -217 -172 l-33 -67 -3 -360 c-4 -448
6 -570 74 -869 153 -670 566 -1287 1139 -1698 182 -130 413 -260 580 -326 225
-89 395 -135 705 -190 l45 -8 3 -396 3 -397 -523 -3 c-518 -3 -523 -3 -568
-25 -56 -28 -125 -94 -153 -147 -31 -62 -36 -207 -9 -269 29 -65 103 -140 165
-168 l52 -24 1350 0 1350 0 55 26 c119 57 184 160 184 289 0 127 -64 231 -180
290 l-49 25 -520 5 -520 5 -3 397 -2 396 72 11 c286 45 568 127 798 233 193
89 430 236 611 380 115 90 378 363 470 485 280 374 459 771 548 1218 40 205
46 286 46 710 l0 410 -28 56 c-32 66 -99 132 -165 162 -36 17 -66 22 -127 22
-105 -1 -167 -27 -235 -102 -84 -92 -87 -111 -89 -558 -1 -406 -8 -481 -57
-680 -127 -511 -403 -934 -825 -1261 -301 -234 -634 -378 -1020 -441 -131 -21
-488 -24 -599 -5 -224 39 -323 65 -477 122 -535 201 -973 599 -1227 1115 -71
144 -119 279 -165 460 -53 216 -61 296 -65 715 -5 437 -6 444 -82 529 -60 67
-135 103 -222 107 -37 1 -76 1 -87 -2z"/>
</g>
</svg>
