<?xml version="1.0" standalone="no"?>
<!DOCTYPE svg PUBLIC "-//W3C//DTD SVG 20010904//EN"
 "http://www.w3.org/TR/2001/REC-SVG-20010904/DTD/svg10.dtd">
<svg version="1.0" xmlns="http://www.w3.org/2000/svg"
 width="2048.000000pt" height="2048.000000pt" viewBox="0 0 2048.000000 2048.000000"
 preserveAspectRatio="xMidYMid meet">
<metadata>
Created by potrace 1.16, written by Peter Selinger 2001-2019
</metadata>
<g transform="translate(0.000000,2048.000000) scale(0.100000,-0.100000)"
fill="#18bcf2" stroke="none">
<path d="M10019 15731 c-69 -10 -131 -21 -138 -26 -7 -4 -22 -26 -32 -49 -18
-39 -19 -83 -19 -932 l0 -890 -137 0 c-155 1 -219 -13 -337 -71 -152 -75 -245
-162 -309 -291 -42 -85 -42 -86 -42 -196 0 -100 3 -117 27 -169 58 -123 184
-219 339 -258 69 -18 102 -21 189 -16 122 7 206 29 328 88 71 34 102 57 172
128 47 47 98 110 114 140 62 116 60 86 63 914 2 416 5 757 6 757 2 0 65 -20
141 -45 201 -65 326 -147 407 -267 52 -77 75 -132 95 -230 14 -72 15 -94 4
-186 -11 -88 -11 -105 1 -113 47 -29 99 15 157 134 75 154 97 311 64 469 -54
259 -193 444 -497 661 -221 157 -289 227 -360 367 -18 36 -39 71 -47 77 -24
21 -62 21 -189 4z"/>
<path d="M12629 13577 c-102 -29 -113 -41 -351 -377 -72 -102 -185 -261 -251
-355 -149 -210 -168 -254 -176 -396 -6 -105 -6 -106 -46 -155 -37 -46 -238
-273 -480 -544 -56 -63 -185 -207 -285 -320 -101 -113 -215 -241 -255 -285
-39 -44 -159 -177 -265 -295 -106 -118 -232 -258 -280 -310 -48 -53 -125 -138
-170 -190 -165 -188 -233 -260 -246 -260 -7 0 -48 22 -91 49 -283 175 -551
261 -814 261 -259 0 -444 -66 -644 -230 -171 -140 -265 -291 -381 -609 -43
-118 -113 -266 -153 -324 -50 -73 -155 -173 -228 -216 -97 -58 -227 -112 -446
-186 -264 -90 -406 -147 -589 -237 -183 -89 -269 -145 -393 -255 -235 -208
-417 -478 -509 -753 -47 -141 -67 -257 -73 -430 -13 -361 84 -665 332 -1035
165 -247 496 -585 800 -818 265 -203 494 -339 745 -440 242 -99 425 -133 670
-124 179 7 303 30 440 82 240 91 416 210 606 407 257 268 381 500 498 938 14
52 50 226 80 385 78 414 104 509 174 629 73 125 210 241 452 381 258 151 429
323 538 546 56 115 76 180 93 307 26 194 -23 439 -129 647 -51 101 -192 311
-258 383 -31 34 -54 68 -51 75 3 6 60 78 128 158 68 80 152 179 185 220 34 41
128 153 210 250 82 98 230 273 328 390 99 118 218 258 265 313 48 54 111 129
141 166 76 93 184 221 325 385 67 77 170 199 230 270 60 72 116 135 125 142 8
7 31 13 50 13 19 0 67 9 105 19 125 32 186 73 350 231 66 64 194 186 284 271
348 326 336 311 335 439 -2 262 -195 542 -478 694 -153 83 -343 122 -447 93z
m-3542 -4640 c258 -91 426 -330 424 -602 -1 -171 -59 -312 -177 -429 -132
-133 -263 -189 -443 -189 -124 -1 -189 15 -301 74 -202 106 -329 320 -330 554
0 277 198 533 471 610 84 23 264 15 356 -18z m-1869 -1545 c18 -9 72 -51 120
-93 101 -89 438 -381 627 -543 196 -167 273 -244 286 -284 28 -86 -14 -201
-92 -247 -44 -26 -131 -26 -179 -1 -27 15 -214 167 -240 196 -3 3 -32 28 -65
55 -33 28 -148 127 -255 220 -107 94 -244 213 -305 265 -168 144 -185 168
-185 257 1 85 45 152 121 182 40 16 131 13 167 -7z"/>
<path d="M6585 12685 c-280 -37 -568 -115 -855 -232 -120 -49 -488 -230 -594
-291 -49 -29 -90 -52 -92 -52 -6 0 -321 -195 -459 -284 -232 -151 -368 -249
-413 -302 -78 -87 -73 45 -70 -1794 l3 -1645 29 -53 c17 -30 47 -67 67 -83 76
-60 63 -59 605 -61 l497 -1 47 94 c151 308 424 611 730 812 115 75 371 204
520 263 52 20 180 66 285 101 306 103 417 153 502 227 50 44 111 162 183 354
141 377 329 627 618 821 79 53 221 120 327 155 315 102 740 62 1107 -105 62
-28 120 -53 128 -55 10 -4 35 17 70 58 30 35 78 88 106 118 28 30 82 91 120
135 37 44 73 85 79 91 62 66 182 200 188 211 13 22 -6 37 -100 73 -88 34 -706
338 -858 422 -44 25 -123 67 -175 94 -52 27 -131 69 -175 94 -44 26 -119 67
-167 93 -49 26 -123 66 -165 90 -273 155 -668 353 -868 436 -152 63 -376 138
-525 175 -219 54 -477 69 -695 41z"/>
<path d="M14270 11559 c-280 -31 -558 -116 -1015 -309 -536 -227 -757 -303
-1045 -360 -100 -19 -107 -22 -145 -63 -51 -54 -146 -164 -210 -242 -27 -34
-142 -171 -255 -305 -113 -133 -232 -275 -265 -314 -155 -184 -356 -415 -365
-421 -18 -11 -10 -35 34 -104 148 -226 248 -464 274 -650 4 -30 10 -55 13 -55
3 -1 28 26 55 60 27 33 72 87 100 120 136 156 161 185 228 274 217 284 283
433 306 691 15 177 28 236 62 302 77 143 267 236 426 207 216 -39 573 -356
799 -710 33 -52 74 -123 92 -157 l31 -62 57 22 c44 16 80 21 153 21 178 0 258
-54 425 -289 268 -376 440 -812 474 -1203 6 -62 12 -116 15 -120 7 -12 1627
-5 1673 7 46 12 105 56 139 103 58 78 55 -2 52 1418 l-3 1305 -22 40 c-42 78
-95 120 -324 258 -618 371 -1062 528 -1529 542 -80 2 -183 0 -230 -6z"/>
<path d="M12376 10025 c-16 -17 -22 -53 -31 -191 -13 -214 -99 -453 -241 -672
-86 -132 -144 -206 -384 -487 -362 -425 -477 -635 -511 -938 -22 -199 25 -404
140 -602 56 -98 244 -290 369 -379 86 -61 295 -171 370 -196 37 -12 45 -11 57
1 13 13 9 23 -36 84 -183 251 -196 549 -36 823 80 137 211 322 221 312 5 -5
13 -59 17 -119 8 -118 24 -168 67 -201 13 -11 33 -20 44 -20 83 0 202 149 248
310 29 104 37 307 17 465 -8 66 -14 122 -11 124 11 12 164 -135 264 -254 259
-310 410 -660 410 -956 0 -194 -48 -349 -159 -514 -23 -33 -37 -61 -32 -63 17
-6 160 47 249 92 142 71 269 162 377 271 144 143 218 264 294 477 45 128 63
249 62 420 0 208 -36 406 -112 624 -68 199 -264 549 -375 673 -35 38 -43 42
-60 33 -18 -10 -22 -24 -27 -104 -11 -164 -73 -329 -142 -382 -48 -37 -104
-61 -114 -50 -5 5 -25 68 -46 139 -51 178 -83 277 -116 362 -84 213 -244 478
-380 630 -117 129 -326 303 -365 303 -7 0 -19 -7 -28 -15z"/>
<path d="M10869 6585 c-140 -51 -231 -155 -261 -298 -15 -69 -1 -163 33 -234
29 -59 102 -134 160 -163 24 -13 175 -66 336 -119 161 -53 294 -100 295 -106
1 -5 -45 -22 -101 -38 -198 -53 -487 -154 -542 -189 -69 -44 -135 -117 -162
-176 -47 -108 -26 -279 46 -374 94 -123 258 -178 410 -137 57 15 488 151 612
194 87 29 517 169 864 280 l114 37 61 -17 c33 -9 176 -54 316 -100 140 -46
314 -102 385 -125 72 -22 288 -93 480 -156 193 -63 378 -119 412 -124 157 -25
312 60 388 213 32 65 35 80 36 157 0 91 -13 142 -54 207 -34 54 -108 118 -171
147 -45 21 -253 90 -518 171 -48 15 -85 31 -83 36 3 4 119 44 258 89 138 44
283 92 320 106 91 35 172 110 217 200 29 59 33 77 32 144 0 132 -33 211 -117
289 -26 24 -72 55 -103 69 -50 24 -70 27 -157 27 -91 0 -111 -4 -225 -42 -191
-64 -653 -214 -865 -282 -104 -33 -271 -86 -370 -118 -232 -75 -238 -75 -470
0 -99 32 -317 103 -485 157 -596 192 -836 269 -875 279 -54 15 -172 13 -216
-4z"/>
</g>
</svg>
