<?xml version="1.0" standalone="no"?>
<!DOCTYPE svg PUBLIC "-//W3C//DTD SVG 20010904//EN"
 "http://www.w3.org/TR/2001/REC-SVG-20010904/DTD/svg10.dtd">
<svg version="1.0" xmlns="http://www.w3.org/2000/svg"
 width="2048.000000pt" height="2048.000000pt" viewBox="0 0 2048.000000 2048.000000"
 preserveAspectRatio="xMidYMid meet">
<metadata>
Created by potrace 1.16, written by Peter Selinger 2001-2019
</metadata>
<g transform="translate(0.000000,2048.000000) scale(0.100000,-0.100000)"
fill="#18bcf2" stroke="none">
<path d="M9969 16206 c-2 -2 -53 -7 -114 -11 -478 -29 -1030 -181 -1505 -413
-399 -195 -800 -456 -1209 -786 -361 -290 -877 -791 -1224 -1186 -151 -172
-139 -158 -273 -325 -588 -734 -963 -1383 -1188 -2060 -120 -359 -162 -600
-192 -1102 -6 -105 10 -361 31 -505 8 -54 15 -101 15 -105 1 -5 16 35 34 87
64 182 156 369 249 510 84 126 257 308 402 425 123 98 216 157 379 240 133 67
140 72 168 122 26 45 32 72 44 190 58 557 180 1012 403 1511 89 200 277 539
373 673 18 26 61 87 95 135 98 140 184 243 357 428 251 267 370 376 591 543
388 293 831 528 1292 684 307 104 440 138 708 183 313 52 492 67 803 67 486 1
852 -54 1382 -208 241 -70 292 -74 391 -27 137 65 217 225 188 379 -14 76 -40
126 -95 185 -53 57 -95 74 -360 149 -525 148 -1024 221 -1530 221 -116 0 -213
-2 -215 -4z"/>
<path d="M13982 15739 c-77 -13 -168 -52 -322 -137 -294 -162 -597 -332 -839
-470 -140 -79 -317 -178 -395 -219 -156 -82 -186 -106 -216 -169 -26 -56 -25
-92 5 -244 13 -69 25 -147 25 -173 0 -90 -42 -146 -237 -319 -373 -328 -777
-688 -999 -888 -82 -74 -187 -169 -234 -210 -47 -41 -103 -91 -125 -111 -22
-20 -112 -101 -200 -180 -89 -79 -318 -283 -510 -454 -192 -170 -398 -354
-459 -408 -129 -116 -152 -129 -221 -128 -106 1 -180 56 -237 176 -27 58 -33
85 -36 153 -9 186 79 363 296 599 100 109 165 192 196 253 140 272 -68 564
-383 536 -231 -21 -468 -127 -707 -318 -271 -214 -493 -522 -690 -955 -181
-397 -245 -506 -395 -674 -227 -252 -442 -359 -1107 -548 -393 -112 -686 -257
-938 -462 -101 -82 -246 -239 -309 -333 -150 -226 -253 -521 -270 -776 -3 -47
-8 -105 -10 -128 -8 -79 15 -311 41 -430 68 -307 215 -656 379 -897 247 -364
618 -780 890 -996 170 -136 266 -198 444 -288 359 -181 609 -240 963 -228 255
9 375 37 583 137 260 125 490 334 660 600 61 94 171 310 213 415 33 83 129
366 201 591 28 89 58 158 94 217 66 109 79 125 156 187 83 67 188 116 417 194
232 79 330 120 436 182 178 104 312 221 417 364 74 99 101 150 130 245 78 250
-6 493 -202 590 -131 64 -199 59 -405 -32 -264 -117 -440 -110 -580 21 -108
101 -156 301 -92 384 12 15 762 769 1668 1675 1798 1800 1685 1694 1831 1719
77 13 185 3 294 -27 55 -16 59 -15 91 4 87 54 154 150 321 461 131 242 246
444 269 468 39 44 87 60 192 67 130 8 184 19 252 53 163 78 255 277 224 480
-15 95 -65 204 -124 268 -113 123 -294 190 -446 163z m-5282 -4211 c80 -41
113 -109 145 -291 7 -43 7 -42 -140 -172 -44 -38 -179 -167 -300 -286 -121
-119 -265 -256 -320 -305 -110 -97 -308 -278 -425 -388 -42 -39 -127 -119
-190 -177 -304 -280 -555 -513 -648 -604 l-104 -100 -23 29 c-41 52 -96 160
-126 247 -72 214 -14 441 155 614 147 150 249 209 594 346 97 38 215 91 262
116 190 102 385 246 525 388 85 86 235 291 300 410 52 96 97 149 147 174 55
27 93 27 148 -1z m-256 -1135 c14 -21 26 -43 26 -49 0 -6 -73 -78 -162 -160
-90 -81 -208 -191 -263 -244 -89 -86 -250 -239 -295 -280 -104 -95 -148 -136
-225 -209 -106 -100 -226 -213 -345 -325 -47 -44 -119 -112 -161 -153 l-77
-73 -33 42 c-18 24 -48 62 -66 84 l-34 42 198 183 c109 101 200 186 203 189 3
3 66 61 140 130 74 69 212 197 305 285 94 88 217 203 275 255 57 52 165 152
240 221 74 70 151 140 170 155 19 16 37 33 39 39 2 5 12 -14 22 -42 9 -28 29
-69 43 -90z m227 -245 l67 -56 -152 -149 c-146 -144 -399 -385 -751 -718 -93
-88 -274 -260 -402 -382 -128 -123 -236 -223 -241 -223 -5 0 -37 35 -72 77
l-63 76 99 95 c54 53 151 145 214 206 64 61 179 169 255 240 251 233 408 380
495 461 47 45 152 144 235 220 82 77 169 160 193 184 24 24 47 40 50 34 4 -5
37 -34 73 -65z m390 -150 c86 -171 214 -312 345 -380 126 -66 200 -83 359 -83
155 1 224 15 382 80 102 43 146 45 169 10 24 -36 12 -81 -45 -167 -106 -161
-256 -280 -454 -359 -28 -12 -149 -54 -267 -94 -321 -109 -416 -157 -543 -275
-160 -147 -242 -301 -378 -715 -56 -170 -119 -351 -141 -403 -157 -377 -374
-653 -607 -772 -30 -15 -69 -24 -120 -27 -69 -4 -81 -2 -131 24 -78 40 -111
91 -118 182 -6 87 9 166 54 283 78 205 98 434 54 612 -42 169 -101 285 -239
466 l-80 105 57 54 c31 29 111 106 177 170 66 64 203 195 305 291 102 96 239
227 305 291 66 64 145 138 175 165 55 49 177 165 433 415 76 73 140 135 142
137 2 2 32 14 67 27 34 12 64 23 65 24 2 0 17 -27 34 -61z m-2976 -1264 c22
-15 62 -52 89 -83 28 -31 98 -108 157 -171 329 -355 473 -519 492 -559 40 -91
11 -156 -128 -280 -97 -88 -151 -121 -194 -121 -70 1 -101 25 -271 210 -58 63
-161 175 -230 250 -179 194 -310 348 -321 378 -14 36 -14 106 0 140 15 35 210
218 259 244 51 26 100 23 147 -8z"/>
<path d="M9044 14769 c-112 -23 -279 -80 -357 -122 -87 -45 -112 -113 -62
-162 20 -20 34 -25 78 -25 30 0 76 7 103 15 176 53 464 65 653 26 188 -39 349
-118 494 -241 75 -64 120 -79 165 -58 41 20 57 62 43 110 -18 58 -43 95 -112
165 -153 154 -347 257 -562 298 -113 21 -327 19 -443 -6z"/>
<path d="M14508 14340 c-124 -21 -241 -135 -272 -265 -16 -64 -8 -155 19 -213
30 -66 61 -101 165 -185 112 -91 322 -300 409 -407 210 -258 382 -577 492
-913 92 -280 163 -734 178 -1136 12 -316 13 -1353 1 -1491 -15 -174 -56 -463
-87 -600 -58 -265 -221 -697 -345 -920 -77 -138 -214 -331 -270 -381 l-41 -35
28 -205 c15 -112 47 -316 71 -454 24 -137 44 -262 44 -277 0 -36 20 -35 46 2
11 16 38 49 60 72 275 297 585 755 769 1134 99 203 155 344 224 554 67 209 75
238 115 440 90 457 96 544 96 1412 0 399 -2 732 -4 740 -2 7 -7 78 -10 158
-15 354 -93 817 -196 1159 -129 426 -341 823 -623 1170 -133 163 -435 454
-592 571 -82 62 -181 86 -277 70z"/>
<path d="M8930 14166 c-265 -47 -484 -131 -704 -268 -312 -195 -666 -588 -666
-740 0 -75 66 -126 142 -111 31 6 41 15 198 177 158 164 320 290 505 393 301
168 532 233 790 220 337 -16 543 -149 724 -469 64 -114 137 -147 207 -93 66
50 67 140 3 305 -107 280 -346 479 -678 567 -82 22 -122 26 -271 29 -115 2
-201 -2 -250 -10z"/>
<path d="M13690 13232 l-30 -30 0 -410 0 -409 -82 0 c-177 -1 -320 -97 -357
-240 -26 -97 23 -198 117 -241 48 -22 70 -26 139 -25 70 1 93 6 147 31 80 37
143 95 182 164 l29 53 5 355 5 355 55 -1 c103 -1 214 -74 265 -175 45 -89 76
-90 101 -3 19 66 13 139 -18 221 -31 83 -86 144 -200 220 -57 38 -131 88 -165
112 -47 34 -73 45 -112 49 -46 4 -53 2 -81 -26z"/>
<path d="M14485 12262 c-120 -41 -248 -170 -329 -331 -85 -168 -147 -390 -236
-851 -121 -625 -175 -833 -254 -974 -66 -117 -109 -122 -163 -20 -65 124 -109
280 -168 589 -110 588 -143 727 -204 866 -70 161 -141 248 -246 302 -56 30
-67 32 -160 32 -94 0 -105 -2 -170 -34 -176 -87 -275 -269 -380 -701 -165
-683 -211 -815 -300 -857 -88 -42 -154 32 -270 297 -91 210 -205 354 -329 415
-180 89 -413 84 -571 -12 -152 -93 -248 -194 -262 -276 -12 -77 45 -156 129
-178 71 -19 112 -2 189 77 75 78 142 114 218 121 154 14 227 -59 342 -340 56
-138 114 -229 200 -314 108 -107 228 -153 366 -140 150 14 291 124 375 292 65
128 88 203 194 629 124 497 149 571 219 655 92 109 181 -84 270 -590 132 -750
203 -977 351 -1124 168 -168 403 -164 569 11 146 152 244 442 354 1039 58 318
133 664 163 754 37 112 123 285 156 313 21 18 48 28 84 33 94 11 107 16 137
50 38 43 50 88 41 147 -8 56 -31 93 -73 118 -42 26 -169 26 -242 2z"/>
<path d="M13568 11033 c-16 -2 -44 -19 -63 -37 -30 -29 -35 -40 -35 -81 0 -42
5 -52 40 -87 38 -39 42 -40 90 -36 79 8 131 75 115 148 -6 27 -65 90 -85 90
-4 0 -14 2 -22 3 -7 2 -25 2 -40 0z"/>
<path d="M14443 10926 c-39 -18 -73 -70 -73 -111 0 -58 56 -121 110 -125 53
-4 70 1 105 31 31 27 35 37 35 78 0 25 -6 57 -13 70 -29 57 -106 83 -164 57z"/>
<path d="M11751 10902 c-20 -10 -43 -33 -54 -55 -19 -36 -19 -40 -2 -82 28
-76 110 -114 173 -81 72 37 93 112 49 177 -40 59 -101 75 -166 41z"/>
<path d="M12642 10830 c-71 -43 -79 -137 -16 -189 46 -37 78 -43 126 -24 54
21 78 56 78 111 0 38 -5 50 -39 83 -32 32 -46 39 -77 39 -22 0 -54 -9 -72 -20z"/>
<path d="M14869 10770 c-45 -13 -68 -30 -84 -60 -44 -86 14 -180 112 -180 54
0 109 45 119 95 15 81 -73 168 -147 145z"/>
<path d="M13505 9044 c-143 -46 -354 -114 -470 -150 -115 -36 -322 -101 -460
-144 -137 -43 -279 -87 -315 -98 -82 -25 -745 -234 -990 -312 -102 -32 -339
-106 -527 -164 -317 -98 -753 -237 -850 -272 -94 -34 -122 -81 -104 -177 27
-150 59 -270 78 -288 40 -40 77 -39 438 6 693 87 838 108 890 124 58 18 333
131 975 401 168 70 357 150 420 176 63 26 185 76 270 112 284 118 330 136 336
129 7 -6 122 -460 131 -512 l5 -31 -83 -12 c-45 -6 -98 -20 -118 -29 -45 -22
-71 -72 -71 -135 0 -27 -1 -48 -2 -48 -2 0 -91 -11 -198 -25 -107 -14 -269
-35 -360 -46 -91 -11 -302 -37 -470 -59 -168 -21 -422 -53 -565 -70 -143 -17
-341 -42 -440 -55 -99 -13 -315 -40 -480 -60 -605 -73 -677 -84 -725 -108 -49
-24 -84 -69 -100 -126 -19 -71 -52 -337 -48 -387 8 -99 64 -143 192 -153 l80
-6 23 -59 c43 -111 109 -151 248 -150 133 1 201 45 245 161 l18 48 1595 3
1595 2 7 -32 c19 -85 75 -149 148 -169 23 -6 83 -9 133 -7 120 5 162 30 205
121 16 34 29 67 29 73 0 7 35 14 91 17 184 14 219 80 176 337 -9 52 -42 248
-72 434 -31 186 -62 351 -70 365 -39 76 -91 88 -280 66 -80 -9 -148 -15 -151
-12 -2 2 -13 35 -23 73 -11 37 -27 74 -37 81 -22 16 -63 16 -173 3 -46 -6 -85
-9 -87 -7 -5 4 -145 551 -151 587 -5 27 -6 26 402 192 149 61 180 88 179 156
-2 68 -67 250 -103 286 -52 52 -89 47 -386 -50z m-2375 -1133 c31 -22 55 -88
46 -124 -3 -14 -16 -38 -29 -52 -42 -49 -146 -43 -181 10 -74 113 56 246 164
166z m1377 -731 c85 -38 127 -154 89 -243 -42 -99 -174 -136 -267 -74 -112 74
-98 256 23 316 53 26 100 26 155 1z"/>
<path d="M9122 7030 c-12 -12 -36 -49 -53 -83 -131 -258 -428 -589 -682 -757
-432 -288 -1007 -385 -1550 -263 -38 8 -71 13 -73 10 -12 -11 329 -295 581
-484 339 -254 634 -449 900 -595 587 -324 1046 -489 1565 -564 145 -21 604
-30 767 -15 418 39 853 147 1263 314 146 59 362 157 425 191 33 19 103 55 155
81 313 158 911 531 1155 720 44 34 127 98 185 141 143 108 180 138 180 147 0
4 -862 7 -1915 7 -2141 0 -1997 -5 -2155 72 -66 32 -101 57 -155 113 -39 39
-85 77 -104 83 -165 58 -305 199 -352 355 -20 65 -21 83 -15 263 8 213 1 249
-50 273 -35 16 -47 14 -72 -9z"/>
</g>
</svg>
