<?xml version="1.0" standalone="no"?>
<!DOCTYPE svg PUBLIC "-//W3C//DTD SVG 20010904//EN"
 "http://www.w3.org/TR/2001/REC-SVG-20010904/DTD/svg10.dtd">
<svg version="1.0" xmlns="http://www.w3.org/2000/svg"
 width="2048.000000pt" height="2048.000000pt" viewBox="0 0 2048.000000 2048.000000"
 preserveAspectRatio="xMidYMid meet">
<metadata>
Created by potrace 1.16, written by Peter Selinger 2001-2019
</metadata>
<g transform="translate(0.000000,2048.000000) scale(0.100000,-0.100000)"
fill="#18bcf2" stroke="none">
<path d="M8253 17650 c-79 -40 -77 -23 -77 -630 l-1 -535 -170 -5 c-193 -6
-212 -12 -259 -83 -29 -45 -28 -38 -27 -438 l1 -156 -93 -5 c-143 -8 -214 -53
-267 -170 -19 -41 -20 -73 -20 -798 l0 -755 83 -140 c177 -297 208 -375 228
-564 11 -103 3 -243 -17 -317 -5 -18 1 -21 78 -33 119 -19 258 -67 347 -120
127 -78 847 -620 929 -702 74 -72 142 -169 195 -279 l51 -105 81 42 c83 43
124 59 235 90 60 17 116 18 695 18 l630 0 90 -28 c50 -15 132 -48 183 -72 99
-48 112 -51 112 -34 0 24 82 184 125 244 87 123 70 108 840 693 213 161 349
225 543 253 l84 12 -6 31 c-48 235 -18 451 90 655 51 95 149 259 389 652 l77
127 4 183 c6 211 -5 289 -46 351 -36 53 -98 94 -164 108 -35 7 -312 10 -876 8
-817 -3 -825 -3 -870 -24 -54 -26 -100 -72 -132 -134 l-23 -45 -3 -1173 -2
-1172 -283 2 -282 3 -5 425 -5 425 -25 49 c-28 55 -66 90 -130 120 -44 21 -58
21 -645 23 -330 1 -606 2 -612 3 -10 0 -13 199 -13 960 0 931 -1 961 -20 1012
-45 120 -117 168 -266 176 l-93 5 -3 277 -3 278 -30 43 c-51 72 -75 79 -262
79 l-163 0 0 540 c0 445 -2 546 -14 568 -39 75 -110 99 -183 62z m3891 -3211
l1 -244 -190 0 -190 0 -2 235 c-2 129 -1 240 1 245 2 6 74 10 191 9 l187 0 2
-245z m784 -2 l2 -248 -190 1 -190 2 0 243 0 244 63 3 c34 2 118 3 187 3 l125
0 3 -248z m-784 -840 l0 -242 -192 -3 -192 -3 0 245 0 246 193 0 192 0 -1
-243z"/>
<path d="M5905 16333 c-68 -45 -221 -161 -235 -178 -15 -18 1 -68 85 -260 190
-432 195 -448 190 -537 -5 -88 -58 -209 -81 -185 -3 3 -37 79 -75 168 -76 178
-105 218 -175 245 -126 48 -275 -62 -262 -194 3 -26 19 -78 37 -117 18 -38 61
-137 96 -220 81 -193 145 -341 187 -434 l35 -75 -78 -76 c-127 -126 -199 -302
-199 -489 0 -101 21 -209 55 -286 12 -27 56 -106 97 -175 270 -449 375 -622
409 -672 105 -154 261 -263 436 -304 120 -28 326 -18 417 20 l35 14 94 -116
c51 -64 131 -166 177 -227 46 -60 128 -165 181 -231 135 -168 194 -194 307
-138 77 38 106 81 110 165 5 77 -10 112 -92 212 -23 29 -54 69 -69 89 l-28 37
53 -6 c98 -10 83 0 580 -375 173 -130 326 -252 340 -270 31 -40 71 -118 65
-125 -3 -2 -53 14 -111 36 -184 69 -249 68 -326 -8 -48 -46 -70 -94 -70 -152
0 -35 48 -127 76 -146 41 -26 325 -129 839 -303 143 -48 347 -120 454 -160
254 -93 295 -104 357 -90 118 27 179 138 143 261 -21 69 -72 106 -220 158 -73
25 -134 51 -136 57 -2 6 20 22 49 35 l53 24 489 3 c509 3 579 -1 663 -38 58
-26 59 -25 -104 -81 -65 -22 -137 -51 -160 -65 -120 -69 -107 -271 22 -338 65
-34 137 -27 285 29 69 25 233 84 365 130 412 144 704 246 862 300 83 28 167
63 186 78 122 93 77 298 -77 347 -48 15 -83 10 -223 -36 -62 -21 -116 -34
-120 -31 -11 12 24 74 69 123 23 25 110 97 193 160 82 63 213 162 290 221 247
188 269 205 307 224 31 16 148 42 156 35 1 -2 -11 -20 -26 -42 -133 -183 -152
-218 -152 -278 0 -85 38 -141 125 -182 57 -27 98 -30 146 -10 56 24 78 50 419
496 173 226 178 232 200 220 43 -23 160 -41 260 -41 182 0 326 50 464 161 92
75 123 116 282 380 72 118 168 276 214 350 121 196 167 289 191 382 39 149 24
322 -41 472 -31 74 -109 184 -162 230 -27 23 -48 45 -48 49 0 5 42 104 94 220
52 117 113 257 136 312 23 55 59 131 78 170 58 113 55 207 -10 281 -55 62
-172 78 -246 34 -47 -29 -76 -75 -141 -230 -75 -178 -75 -178 -95 -161 -23 19
-56 115 -62 180 -7 75 6 117 111 351 124 276 175 400 175 424 0 14 -21 38 -58
67 -72 58 -222 163 -226 158 -1 -2 -37 -83 -79 -179 -41 -96 -93 -213 -115
-260 -148 -318 -170 -382 -179 -510 -6 -95 11 -208 47 -302 31 -82 107 -195
174 -255 l58 -53 -17 -49 -16 -50 -109 0 c-60 1 -124 -2 -142 -6 -87 -17 -196
-61 -263 -106 -128 -86 -170 -141 -402 -524 -67 -110 -151 -247 -187 -305
-133 -210 -177 -336 -176 -499 1 -131 52 -295 121 -392 25 -35 23 -42 -33
-115 -37 -50 -45 -55 -72 -51 -187 27 -228 30 -312 18 -159 -22 -259 -69 -435
-203 -47 -36 -159 -121 -250 -189 -429 -325 -457 -348 -524 -449 -73 -111
-103 -198 -113 -334 l-7 -88 -110 -39 -110 -39 -32 39 c-47 55 -167 145 -243
180 -143 67 -135 66 -770 65 -518 0 -581 -2 -640 -18 -131 -36 -231 -96 -350
-212 l-56 -54 -102 38 c-56 22 -105 41 -108 44 -3 3 -7 37 -9 74 -6 92 -27
169 -72 261 -51 103 -129 193 -248 286 -142 111 -595 454 -669 505 -185 131
-380 169 -613 118 l-61 -13 -51 67 c-28 37 -51 70 -51 74 0 4 11 22 24 39 31
41 90 185 106 259 19 85 8 288 -19 358 -31 83 -310 549 -516 865 -157 241
-344 345 -621 345 l-112 0 -18 45 -17 46 61 59 c71 68 123 144 161 239 43 102
55 166 55 286 0 126 -18 198 -89 355 -24 52 -93 210 -155 350 -62 140 -115
261 -119 267 -5 9 -17 6 -46 -14z m440 -2023 c107 -52 93 -32 552 -789 35 -58
71 -129 79 -160 17 -58 15 -143 -5 -195 l-12 -29 -72 94 c-147 191 -180 215
-283 207 -101 -9 -170 -82 -181 -192 -4 -45 -1 -57 30 -108 19 -31 62 -90 94
-130 33 -40 68 -85 77 -100 l18 -27 -59 5 c-118 10 -211 55 -270 131 -17 21
-83 126 -149 233 -370 608 -374 616 -374 718 0 63 32 173 56 193 12 10 17 8
29 -7 7 -10 17 -30 20 -44 4 -14 23 -61 44 -105 42 -90 101 -150 158 -161 52
-10 118 5 160 35 89 65 103 171 39 311 -21 47 -45 100 -53 119 l-14 34 36 -6
c20 -3 56 -16 80 -27z m7895 23 c0 -4 -21 -55 -47 -113 -43 -93 -48 -113 -48
-176 0 -59 4 -77 25 -107 54 -80 143 -113 237 -88 62 17 103 72 159 212 26 66
51 119 55 119 5 0 21 -24 36 -52 22 -43 27 -70 31 -145 4 -86 2 -96 -25 -155
-17 -35 -65 -119 -109 -188 -44 -69 -142 -231 -219 -360 -161 -271 -214 -333
-310 -369 -57 -22 -156 -33 -170 -19 -3 3 32 55 79 115 48 59 95 126 106 149
41 83 14 187 -63 248 -35 28 -46 31 -110 31 -98 0 -126 -19 -245 -168 l-96
-120 -13 31 c-7 17 -16 55 -19 84 -10 90 27 173 191 428 23 36 102 165 176
288 74 123 152 241 173 262 59 61 206 126 206 93z"/>
<path d="M4876 15434 c-116 -114 -136 -138 -131 -157 19 -66 103 -269 129
-312 35 -59 90 -131 126 -163 81 -75 219 -149 326 -175 68 -17 197 -28 214
-17 7 4 -13 63 -63 181 l-74 174 -62 41 c-127 84 -146 113 -256 385 l-72 178
-137 -135z"/>
<path d="M15456 15529 c-140 -338 -154 -366 -208 -431 -22 -27 -66 -64 -97
-83 -63 -39 -63 -38 -163 -264 -32 -73 -56 -136 -53 -139 12 -12 153 -3 220
13 39 10 101 33 139 52 198 100 309 236 406 501 40 110 39 140 -3 172 -24 19
-156 142 -223 209 -2 2 -10 -11 -18 -30z"/>
<path d="M16061 13889 c-73 -22 -141 -82 -173 -154 -10 -24 -14 -254 -18
-1155 l-5 -1125 -233 0 c-129 0 -239 3 -245 7 -9 5 -12 200 -13 773 -1 422 -5
784 -8 807 -19 118 -103 202 -222 222 l-40 7 -95 -158 c-286 -471 -289 -475
-385 -582 -135 -150 -392 -279 -613 -307 l-53 -7 6 -69 c21 -205 -3 -376 -74
-539 -83 -190 -201 -318 -476 -519 -27 -20 -161 -122 -299 -226 -408 -311
-469 -348 -645 -394 -104 -27 -325 -38 -423 -21 -86 15 -205 55 -289 97 -37
19 -72 34 -77 34 -4 0 -27 -38 -49 -85 -53 -111 -89 -162 -181 -259 -116 -120
-207 -182 -370 -247 l-84 -34 334 -6 c331 -5 335 -5 413 -33 308 -106 495
-302 581 -609 9 -32 20 -106 23 -165 l7 -107 135 -6 c193 -9 306 -45 455 -144
161 -107 271 -256 332 -450 l28 -90 3 -887 3 -887 235 -3 236 -3 30 -35 c17
-19 92 -100 167 -180 75 -80 159 -170 186 -200 27 -30 78 -85 114 -122 36 -37
62 -70 59 -73 -3 -3 -90 -20 -193 -37 l-187 -31 -47 21 c-25 11 -110 48 -189
81 l-142 62 -153 -80 -154 -79 -109 19 c-60 11 -156 29 -212 40 -57 11 -106
18 -109 16 -2 -3 40 -28 94 -55 201 -103 268 -141 268 -153 0 -7 -29 -28 -65
-47 -102 -54 -152 -83 -148 -88 2 -2 71 24 154 57 82 33 185 74 229 90 44 16
99 39 122 49 24 11 53 20 65 20 12 0 67 -29 122 -64 56 -35 126 -78 157 -95
l56 -31 214 20 c216 20 371 37 421 45 24 4 44 -14 185 -168 87 -95 167 -183
177 -195 l19 -22 -2246 0 -2247 0 0 260 0 260 -180 0 -180 0 0 -260 0 -260
-1311 0 -1312 0 27 32 c14 18 58 78 98 133 40 55 95 126 121 158 27 32 46 61
43 64 -3 4 -117 44 -253 90 -137 46 -254 85 -260 88 -9 3 1 41 32 130 25 70
45 131 45 138 0 6 -55 -43 -122 -110 -68 -66 -140 -135 -160 -153 -21 -18 -38
-35 -38 -40 0 -4 81 -55 181 -114 148 -88 178 -110 169 -122 -14 -16 -159
-128 -293 -226 l-92 -68 -683 0 -683 0 21 27 c28 36 179 201 336 368 255 271
499 536 636 688 l142 157 232 0 231 0 0 853 c0 634 3 868 12 915 34 175 109
315 236 442 163 164 346 243 587 254 62 3 116 5 119 5 3 1 9 45 12 99 22 377
252 669 617 784 72 22 86 23 412 23 185 0 334 3 330 6 -4 4 -33 16 -65 28
-246 90 -455 279 -574 518 l-46 91 -76 -38 c-149 -76 -291 -110 -456 -110
-165 0 -341 42 -464 111 -94 53 -401 273 -606 434 -49 39 -139 109 -200 155
-227 171 -311 265 -398 441 -71 144 -92 236 -92 404 0 77 3 161 7 186 l7 46
-59 7 c-104 12 -211 45 -325 100 -131 64 -221 130 -305 225 -62 68 -175 228
-185 262 -4 13 -21 18 -78 22 -100 6 -254 -1 -300 -15 -54 -16 -126 -83 -153
-143 l-24 -50 0 -468 0 -467 -275 2 -276 3 -2 850 c-2 809 -3 852 -21 885 -35
65 -67 100 -119 128 l-52 27 -320 0 -320 0 -69 -35 c-37 -19 -77 -46 -88 -60
-29 -36 -147 -283 -211 -440 -311 -766 -486 -1534 -537 -2350 -20 -322 -13
-900 15 -1180 56 -559 189 -1176 352 -1635 119 -335 238 -616 384 -905 81
-162 101 -193 159 -251 68 -69 144 -115 239 -143 49 -14 168 -16 1100 -16 575
0 1069 -3 1098 -6 l52 -7 -77 -85 c-42 -48 -122 -134 -177 -192 -55 -58 -123
-130 -150 -160 -28 -30 -163 -176 -300 -324 -138 -148 -290 -314 -339 -368
l-89 -98 -193 0 c-107 0 -194 -3 -194 -6 0 -11 112 -139 242 -276 l130 -138
5182 0 5183 0 33 38 c19 20 88 96 155 167 149 160 194 218 168 214 -5 -1 -91
-1 -194 0 l-185 1 -74 83 c-40 45 -130 143 -200 217 -198 210 -229 245 -230
250 0 3 42 27 93 54 50 27 118 64 150 84 l57 35 238 -16 c130 -8 238 -14 240
-13 2 3 -174 71 -357 137 l-104 37 -220 -74 c-121 -41 -228 -74 -237 -74 -19
0 -490 495 -490 514 0 3 498 6 1108 6 l1107 0 68 25 c97 34 171 81 229 145 73
82 292 536 419 870 22 58 47 121 54 140 116 297 229 713 309 1140 153 814 165
1686 35 2490 -12 69 -23 139 -25 155 -28 179 -115 548 -189 800 -133 454 -367
1037 -541 1347 -69 123 -101 160 -166 192 l-52 26 -265 -1 c-147 0 -281 -5
-300 -10z m629 -744 l0 -205 -212 0 -213 0 2 198 c1 108 2 200 3 205 0 4 95 7
210 7 l210 0 0 -205z m-12536 -290 l0 -200 -212 -3 -212 -2 0 205 0 205 212
-2 212 -3 0 -200z m12534 -452 l2 -202 -201 -3 c-110 -2 -205 -1 -210 2 -6 4
-14 340 -9 400 0 3 93 5 208 5 l207 0 3 -202z m-12536 -293 c-1 -107 -1 -198
-2 -202 0 -5 -94 -8 -210 -8 l-210 0 0 205 0 205 211 -2 211 -3 0 -195z"/>
<path d="M13450 12204 c-119 -153 -125 -162 -140 -234 -9 -41 -26 -94 -39
-118 -36 -71 -59 -91 -401 -349 -124 -93 -272 -206 -330 -250 -58 -44 -132
-95 -165 -114 -60 -34 -61 -34 -190 -34 -73 -1 -139 -6 -150 -12 -11 -6 -90
-34 -175 -63 -85 -30 -157 -55 -160 -58 -13 -11 123 -117 195 -153 114 -55
190 -73 320 -73 122 -1 197 16 300 66 85 41 900 654 976 735 130 136 197 353
170 542 -13 85 -41 183 -70 240 l-18 33 -123 -158z"/>
<path d="M6877 12293 c-85 -193 -85 -393 1 -575 72 -153 97 -175 716 -644 318
-241 343 -257 431 -288 196 -69 424 -49 594 51 64 38 171 127 161 135 -3 3
-86 33 -185 69 l-180 64 -120 0 c-149 1 -161 6 -387 178 -88 67 -249 189 -357
270 -270 205 -304 235 -340 308 -17 34 -33 78 -36 98 -4 20 -8 46 -11 58 -7
36 -233 333 -253 333 -5 0 -20 -26 -34 -57z"/>
<path d="M9064 10820 c33 -251 226 -475 485 -563 l96 -32 590 0 590 0 90 28
c132 42 219 91 301 172 80 80 135 164 168 262 27 77 43 183 28 183 -5 0 -99
-32 -208 -71 -166 -59 -204 -76 -231 -104 -49 -52 -101 -83 -170 -100 -54 -14
-134 -16 -585 -13 l-523 3 -67 33 c-36 18 -88 52 -115 76 -42 38 -71 51 -241
110 -107 36 -198 66 -204 66 -7 0 -8 -18 -4 -50z"/>
<path d="M9050 9639 c-242 -6 -258 -9 -370 -84 -86 -57 -151 -128 -190 -208
-48 -99 -60 -176 -60 -409 l0 -207 -267 -3 c-249 -3 -272 -5 -328 -26 -167
-62 -307 -214 -350 -377 -23 -90 -23 -1657 1 -1747 52 -203 209 -360 411 -412
55 -15 292 -16 2370 -14 l2308 3 57 22 c141 53 250 145 311 260 71 136 68 96
68 1004 -1 883 -1 871 -56 984 -63 129 -189 236 -331 281 -70 23 -90 24 -324
24 l-250 0 0 203 c-1 282 -9 327 -81 449 -68 115 -176 201 -299 238 -63 20
-102 20 -1235 23 -643 1 -1267 0 -1385 -4z m2531 -448 c19 -20 29 -41 30 -63
4 -87 5 -365 1 -381 -4 -16 -76 -17 -1376 -15 l-1371 3 1 200 c1 211 8 249 51
274 12 7 456 10 1326 11 l1309 0 29 -29z m972 -840 c21 -12 50 -39 65 -59 l27
-35 0 -808 0 -807 -31 -43 c-18 -24 -51 -54 -75 -66 l-42 -23 -2257 0 c-2463
0 -2294 -4 -2352 57 -60 63 -58 29 -58 888 0 562 3 793 11 808 15 28 58 76 84
90 33 19 355 22 2535 22 l2056 -1 37 -23z"/>
<path d="M8470 8116 c-92 -27 -137 -51 -217 -110 -189 -143 -286 -332 -287
-566 -1 -246 119 -462 328 -591 187 -115 390 -137 599 -64 240 83 428 319 457
574 18 165 -26 344 -120 480 -100 145 -257 251 -430 290 -82 19 -247 12 -330
-13z m326 -365 c64 -29 147 -111 175 -175 18 -40 23 -70 24 -141 0 -81 -3 -95
-29 -143 -38 -68 -112 -137 -182 -169 -50 -23 -66 -25 -142 -21 -64 3 -98 10
-130 27 -66 34 -128 97 -159 160 -25 49 -28 67 -28 151 0 87 3 100 30 148 39
72 133 157 193 177 65 21 184 14 248 -14z"/>
<path d="M11640 8117 c-184 -55 -348 -186 -427 -342 -63 -124 -84 -202 -84
-322 0 -130 20 -215 78 -332 100 -202 292 -338 524 -371 82 -12 220 0 302 25
201 61 381 241 454 453 22 66 26 94 27 197 0 188 -37 304 -144 446 -54 72
-162 160 -248 204 -136 67 -337 85 -482 42z m324 -365 c62 -28 136 -105 170
-176 31 -65 37 -157 17 -232 -21 -80 -103 -175 -186 -217 -34 -17 -121 -35
-151 -31 -88 11 -116 18 -161 44 -127 73 -198 236 -163 379 14 59 79 154 135
197 87 66 234 82 339 36z"/>
<path d="M9642 7833 c-18 -9 -43 -30 -55 -47 -22 -30 -22 -37 -22 -341 0 -292
1 -312 20 -344 11 -19 33 -43 48 -55 28 -21 35 -21 607 -21 571 0 579 0 607
21 15 11 38 36 51 54 22 32 22 38 22 337 0 339 -1 342 -67 388 l-38 25 -570 0
c-505 0 -574 -2 -603 -17z"/>
<path d="M5370 4642 c0 -13 281 -246 465 -384 264 -198 484 -341 802 -521 108
-61 513 -265 633 -317 489 -216 997 -377 1525 -484 1622 -329 3280 -100 4785
660 431 217 966 562 1286 828 34 28 104 86 157 130 54 43 97 82 97 87 0 5
-1486 9 -3494 9 l-3494 0 -138 -68 c-77 -38 -193 -93 -259 -122 -133 -60 -135
-61 -118 -67 23 -8 93 -105 93 -128 0 -40 -61 -79 -256 -165 -104 -45 -238
-105 -299 -132 -60 -28 -126 -56 -145 -64 -43 -18 -60 -32 209 181 110 87 201
162 201 165 0 3 -45 35 -100 70 -55 36 -100 67 -100 70 1 3 53 46 117 95 65
50 135 107 158 127 l40 37 -1082 1 c-596 0 -1083 -3 -1083 -8z m2679 -406 c90
-25 164 -46 166 -48 3 -3 -92 -222 -138 -318 l-27 -55 -1 75 c-1 41 -3 109 -4
150 l-2 75 -99 12 c-54 6 -103 12 -108 12 -5 1 -5 25 -2 54 11 84 17 98 35 93
9 -3 90 -26 180 -50z"/>
</g>
</svg>
