<?xml version="1.0" standalone="no"?>
<!DOCTYPE svg PUBLIC "-//W3C//DTD SVG 20010904//EN"
 "http://www.w3.org/TR/2001/REC-SVG-20010904/DTD/svg10.dtd">
<svg version="1.0" xmlns="http://www.w3.org/2000/svg"
 width="2048.000000pt" height="2048.000000pt" viewBox="0 0 2048.000000 2048.000000"
 preserveAspectRatio="xMidYMid meet">
<metadata>
Created by potrace 1.16, written by Peter Selinger 2001-2019
</metadata>
<g transform="translate(0.000000,2048.000000) scale(0.100000,-0.100000)"
fill="#18bcf2" stroke="none">
<path d="M9910 17623 c-1117 -62 -2126 -379 -3086 -968 -218 -134 -486 -324
-654 -464 -256 -213 -342 -291 -560 -510 -297 -299 -576 -637 -810 -986 -85
-126 -109 -185 -110 -270 0 -46 7 -74 28 -120 71 -148 223 -216 378 -170 76
22 117 65 233 239 384 575 832 1049 1376 1455 206 153 277 202 465 318 546
337 1159 587 1786 728 739 166 1513 187 2259 60 866 -147 1715 -497 2409 -993
623 -447 1110 -942 1514 -1543 167 -249 199 -274 347 -274 74 0 97 4 132 23
55 29 107 75 133 117 23 38 53 163 42 179 -3 6 -5 19 -4 29 7 37 -23 97 -121
242 -140 209 -303 424 -453 600 -130 153 -530 560 -663 676 -41 35 -79 69 -85
74 -184 166 -617 478 -891 642 -331 198 -693 373 -1050 508 -605 228 -1238
363 -1895 405 -148 9 -579 11 -720 3z"/>
<path d="M10005 16389 c-895 -36 -1775 -308 -2550 -788 -228 -141 -569 -396
-745 -556 -124 -114 -390 -383 -494 -500 -123 -140 -161 -213 -160 -305 4
-228 249 -374 453 -270 22 11 63 47 93 81 29 34 73 85 97 113 158 183 322 342
556 542 127 109 446 331 630 441 33 19 133 73 223 119 673 343 1382 514 2137
514 518 0 1018 -82 1505 -248 224 -76 348 -128 565 -238 448 -226 827 -491
1145 -799 137 -132 322 -325 374 -390 89 -110 145 -148 242 -166 42 -8 67 -7
114 5 103 27 157 72 211 176 32 62 32 175 0 241 -62 130 -463 549 -776 810
-485 406 -1067 733 -1675 943 -200 69 -255 85 -480 136 -534 120 -945 159
-1465 139z"/>
<path d="M10030 15153 c-321 -20 -557 -57 -825 -129 -328 -88 -498 -151 -770
-286 -409 -204 -753 -447 -1046 -738 -230 -229 -263 -273 -278 -371 -17 -104
21 -204 105 -277 61 -54 127 -76 214 -70 105 8 145 34 305 196 360 368 775
644 1248 831 434 171 849 241 1361 228 441 -11 811 -88 1231 -257 254 -102
614 -317 850 -509 134 -108 144 -118 315 -286 145 -143 172 -165 225 -184 194
-73 398 54 410 254 8 128 -25 182 -239 398 -337 341 -637 557 -1091 785 -427
214 -908 352 -1405 402 -107 11 -511 20 -610 13z"/>
<path d="M10050 13914 c-306 -22 -584 -83 -845 -184 -262 -101 -541 -261 -750
-429 -203 -163 -521 -504 -577 -621 -29 -60 -34 -143 -14 -215 20 -66 83 -140
156 -183 40 -24 55 -27 136 -27 81 0 96 3 150 30 49 25 71 46 127 120 335 443
796 736 1336 850 281 59 620 62 910 9 506 -94 1007 -396 1324 -798 98 -126
123 -150 178 -181 108 -58 251 -41 348 41 91 78 126 221 81 334 -48 122 -319
428 -543 611 -410 337 -916 555 -1442 624 -117 15 -466 27 -575 19z"/>
<path d="M5326 13670 c-71 -22 -110 -88 -103 -176 5 -72 21 -108 175 -404 118
-227 184 -368 179 -383 -3 -11 -146 164 -276 339 -321 429 -385 503 -464 526
-30 9 -49 9 -85 -1 -81 -21 -122 -76 -122 -160 0 -72 27 -134 105 -242 37 -52
82 -114 99 -138 17 -24 92 -126 167 -226 174 -233 239 -327 244 -354 4 -21 1
-20 -33 9 -20 18 -74 71 -120 118 -211 220 -399 407 -446 442 -91 69 -178 75
-249 19 -49 -38 -58 -138 -20 -213 26 -51 145 -190 397 -460 61 -66 116 -124
121 -130 59 -63 117 -137 112 -142 -8 -8 -131 68 -262 161 -225 161 -270 185
-344 185 -85 0 -149 -71 -136 -150 4 -22 21 -62 39 -88 30 -44 206 -198 476
-418 148 -120 181 -151 324 -312 228 -255 327 -330 535 -404 160 -57 214 -92
312 -200 l72 -80 -18 -31 c-10 -18 -93 -144 -183 -281 -179 -269 -217 -338
-250 -443 -37 -120 -45 -187 -39 -321 8 -181 47 -296 149 -434 146 -199 517
-449 1063 -718 201 -98 533 -259 645 -312 242 -115 466 -271 567 -397 137
-171 196 -412 188 -766 -3 -99 -7 -193 -9 -210 -3 -16 -7 -68 -11 -115 -17
-245 -73 -645 -151 -1085 -107 -607 -148 -836 -160 -915 -17 -102 -16 -288 2
-388 74 -426 392 -753 844 -868 112 -28 333 -26 455 5 173 45 319 118 448 227
201 169 330 414 366 693 10 72 14 218 26 841 3 151 7 329 10 395 3 66 7 280
10 475 3 195 8 407 10 470 10 265 20 983 20 1360 -1 369 -3 418 -23 550 -104
670 -375 1133 -887 1517 -73 55 -385 263 -535 357 -294 185 -587 439 -877 757
-119 131 -147 165 -291 360 -121 163 -248 238 -419 247 -80 4 -182 -7 -227
-24 -9 -3 -5 24 12 88 22 84 25 109 23 258 -9 584 -8 586 61 795 70 212 38
299 -108 298 -121 -1 -241 -89 -307 -227 -42 -86 -49 -110 -78 -249 -26 -127
-50 -171 -96 -175 -24 -2 -38 4 -65 30 -50 51 -167 219 -245 353 -156 268
-309 525 -358 600 -96 148 -166 192 -259 165z m1740 -2725 c149 -186 268 -318
430 -475 299 -289 522 -462 896 -696 309 -193 428 -284 579 -441 260 -270 381
-579 420 -1073 10 -136 9 -254 -6 -900 -3 -107 -7 -332 -10 -500 -3 -168 -8
-402 -10 -520 -2 -118 -7 -354 -10 -525 -3 -170 -7 -357 -10 -415 -2 -58 -7
-280 -10 -495 -3 -214 -11 -415 -17 -445 -13 -72 -61 -161 -122 -227 -80 -88
-189 -133 -322 -133 -248 0 -444 180 -461 424 -5 80 8 180 66 496 213 1158
283 1714 276 2175 -5 318 -44 526 -135 725 -87 190 -150 283 -288 423 -186
190 -342 288 -872 548 -725 357 -801 398 -1080 577 -139 89 -185 131 -216 197
-28 59 -30 92 -8 166 20 68 46 112 269 449 158 240 288 444 441 695 50 81 73
115 79 115 3 0 57 -65 121 -145z"/>
<path d="M15045 13662 c-66 -32 -126 -108 -234 -297 -173 -301 -370 -621 -444
-720 -90 -121 -118 -140 -165 -114 -31 17 -49 66 -81 224 -51 245 -199 415
-364 415 -105 0 -157 -43 -157 -130 0 -22 18 -95 40 -163 75 -226 91 -385 66
-635 -9 -90 -14 -189 -11 -220 7 -69 31 -205 44 -249 5 -18 6 -35 3 -37 -4 -2
-34 2 -67 10 -126 29 -286 9 -384 -48 -73 -43 -158 -129 -251 -253 -215 -286
-529 -608 -829 -848 -85 -68 -179 -132 -585 -396 -331 -216 -539 -396 -697
-606 -255 -339 -377 -666 -441 -1175 -18 -149 -15 -874 7 -1635 3 -88 7 -290
10 -450 3 -159 8 -373 10 -475 3 -102 7 -279 10 -395 2 -115 7 -356 10 -535 8
-486 18 -579 79 -759 82 -239 284 -463 522 -579 160 -79 278 -106 464 -106
201 1 307 26 489 116 263 130 447 339 539 613 65 193 69 375 17 668 -19 108
-53 306 -75 439 -22 134 -56 326 -75 428 -37 204 -70 405 -80 490 -3 30 -12
100 -20 155 -45 319 -64 580 -59 795 7 314 52 476 183 649 67 90 179 187 298
259 108 65 385 205 712 361 689 328 1095 589 1263 810 109 144 158 295 158
485 0 167 -34 304 -110 442 -19 32 -111 177 -207 321 -95 144 -173 266 -173
270 1 18 179 192 217 211 22 12 76 33 119 48 103 35 199 78 249 112 92 61 216
179 350 332 118 136 254 257 546 490 52 41 131 111 176 155 64 63 84 89 93
125 40 149 -91 226 -244 145 -25 -13 -119 -75 -208 -138 -173 -121 -275 -183
-285 -173 -4 3 1 14 9 23 8 10 26 31 39 48 13 16 71 79 129 140 58 60 146 155
195 209 50 54 95 104 100 110 61 64 149 177 166 212 25 53 27 129 4 174 -23
45 -70 70 -130 70 -90 0 -132 -34 -452 -359 -160 -163 -294 -293 -298 -289
-14 13 57 121 241 365 347 462 377 510 377 604 0 76 -26 126 -84 157 -91 49
-182 9 -292 -128 -37 -47 -147 -191 -244 -320 -238 -317 -319 -417 -332 -405
-8 9 71 176 163 345 26 47 79 149 118 227 62 124 71 150 75 210 4 54 1 78 -12
107 -35 74 -124 104 -200 68z m-1410 -2719 c189 -309 250 -404 437 -685 226
-341 258 -398 266 -480 10 -117 -34 -175 -243 -315 -238 -159 -453 -273 -1130
-600 -474 -229 -677 -364 -870 -580 -209 -233 -315 -484 -356 -837 -22 -191
-7 -646 30 -961 6 -44 15 -123 21 -175 11 -91 38 -261 116 -740 28 -172 84
-485 149 -840 4 -19 9 -82 12 -140 4 -91 2 -114 -17 -170 -71 -211 -252 -332
-476 -318 -186 12 -331 124 -392 302 -29 84 -30 105 -37 491 -8 505 -15 841
-20 1015 -3 85 -7 324 -10 530 -3 206 -8 409 -10 450 -7 113 -20 872 -20 1140
0 422 58 705 200 987 78 153 151 249 285 374 163 152 217 192 558 404 91 57
377 258 467 329 224 175 563 505 729 706 159 194 210 250 220 247 6 -2 47 -62
91 -134z"/>
<path d="M10058 11970 c-137 -34 -246 -99 -358 -210 -161 -162 -268 -377 -317
-640 -24 -131 -24 -401 0 -524 57 -282 196 -541 373 -689 83 -71 239 -149 341
-171 146 -32 300 -14 446 52 226 103 417 338 516 637 78 237 81 599 6 850 -62
210 -160 373 -305 508 -96 89 -164 130 -277 170 -78 27 -103 31 -218 34 -103
2 -146 -1 -207 -17z"/>
<path d="M8480 11764 c-171 -36 -339 -171 -418 -334 -68 -142 -72 -127 70
-269 226 -226 464 -413 738 -581 74 -45 147 -91 162 -101 39 -27 52 -24 43 8
-30 121 -44 338 -33 533 6 124 44 324 75 402 15 37 14 39 -17 88 -75 117 -239
233 -368 259 -70 15 -172 13 -252 -5z"/>
<path d="M11780 11773 c-140 -23 -303 -127 -394 -252 l-36 -49 34 -123 c69
-252 84 -529 42 -774 -22 -124 -23 -120 32 -88 83 48 233 143 350 221 220 147
662 539 662 587 0 74 -103 251 -191 328 -71 62 -192 124 -277 142 -63 14 -166
17 -222 8z"/>
<path d="M3877 11650 c-114 -29 -208 -120 -243 -236 -25 -84 -45 -365 -49
-689 -4 -403 11 -657 65 -1040 45 -324 144 -798 189 -905 60 -144 161 -258
326 -368 240 -159 484 -258 1155 -467 400 -124 521 -174 655 -270 153 -110
211 -197 253 -380 48 -209 37 -476 -39 -975 -35 -229 -72 -433 -104 -580 -79
-350 -73 -535 24 -734 75 -153 188 -265 346 -342 133 -65 197 -79 350 -79 114
0 141 4 218 28 147 47 227 97 342 218 124 130 161 219 219 529 146 775 181
1007 222 1490 10 127 15 256 12 370 -4 153 -8 185 -30 252 -58 176 -173 286
-449 432 -59 31 -108 56 -110 56 -2 0 -4 -168 -4 -372 -1 -205 -6 -443 -13
-528 -39 -487 -104 -965 -193 -1420 -71 -367 -70 -363 -104 -396 -17 -18 -50
-38 -73 -45 -98 -29 -202 49 -202 153 0 19 11 95 25 169 38 200 103 549 109
589 88 559 111 848 86 1101 -36 360 -139 599 -349 810 -219 218 -453 336
-1006 504 -492 150 -807 273 -1017 397 -38 22 -68 44 -68 48 0 4 20 50 44 101
83 179 105 233 198 484 43 117 163 490 206 640 14 50 27 92 29 94 1 2 40 -23
85 -56 46 -33 120 -83 166 -112 l82 -51 11 27 c38 101 103 233 167 340 41 68
73 125 71 127 -2 2 -47 30 -99 62 -197 121 -410 276 -661 479 -81 66 -384 332
-492 433 -39 37 -91 74 -124 88 -64 28 -165 39 -226 24z"/>
<path d="M16421 11644 c-73 -26 -116 -59 -290 -218 -413 -375 -711 -606 -1057
-817 -38 -23 -71 -43 -73 -45 -2 -2 24 -45 57 -96 61 -92 148 -266 172 -343
22 -70 9 -74 226 78 69 48 127 87 129 87 2 0 7 -15 11 -32 3 -18 15 -57 24
-88 10 -30 53 -163 95 -295 106 -328 146 -435 310 -814 19 -47 34 -89 32 -95
-8 -20 -166 -107 -300 -166 -175 -76 -411 -160 -748 -264 -340 -105 -424 -135
-564 -198 -485 -219 -756 -567 -814 -1046 -16 -133 -14 -462 4 -643 24 -234
80 -591 145 -929 76 -393 77 -410 28 -466 -55 -62 -126 -80 -195 -48 -63 31
-81 67 -108 222 -14 78 -36 193 -50 256 -55 256 -134 799 -160 1096 -3 36 -8
85 -10 110 -24 214 -34 771 -19 977 4 51 4 93 0 93 -3 0 -48 -21 -99 -46 -306
-153 -436 -282 -483 -481 -29 -118 -24 -440 11 -774 40 -382 79 -632 206
-1326 49 -273 105 -393 248 -533 92 -90 174 -140 301 -182 86 -28 107 -31 225
-32 107 0 144 4 210 22 210 60 390 204 479 379 70 140 90 224 90 368 -1 104
-8 153 -53 370 -52 251 -107 559 -135 755 -43 298 -47 709 -9 845 29 105 79
192 153 266 145 146 241 191 740 350 694 220 908 306 1145 455 162 102 241
185 329 345 53 97 103 312 196 849 20 116 60 473 67 601 13 216 9 839 -5 994
-20 207 -35 264 -91 338 -62 83 -144 126 -251 133 -54 3 -88 0 -119 -12z"/>
</g>
</svg>
