<?xml version="1.0" standalone="no"?>
<!DOCTYPE svg PUBLIC "-//W3C//DTD SVG 20010904//EN"
 "http://www.w3.org/TR/2001/REC-SVG-20010904/DTD/svg10.dtd">
<svg version="1.0" xmlns="http://www.w3.org/2000/svg"
 width="2048.000000pt" height="2048.000000pt" viewBox="0 0 2048.000000 2048.000000"
 preserveAspectRatio="xMidYMid meet">
<metadata>
Created by potrace 1.16, written by Peter Selinger 2001-2019
</metadata>
<g transform="translate(0.000000,2048.000000) scale(0.100000,-0.100000)"
fill="#18bcf2" stroke="none">
<path d="M9555 16967 c-109 -37 -175 -102 -208 -208 -4 -13 -36 -18 -179 -27
-657 -45 -1234 -245 -1526 -530 -131 -129 -219 -300 -261 -512 -19 -91 -31
-165 -87 -525 -31 -206 -123 -778 -132 -830 l-8 -40 -793 -3 c-752 -2 -795 -4
-830 -21 -149 -76 -175 -254 -54 -374 73 -74 -226 -68 3214 -65 l3096 3 48 30
c30 19 56 45 69 70 21 39 21 53 24 662 3 596 2 625 -18 723 -28 137 -51 203
-121 340 -153 303 -372 511 -739 703 -258 135 -578 243 -930 312 -95 19 -120
29 -120 49 0 8 -8 37 -17 65 -20 64 -96 137 -169 164 -63 24 -205 32 -259 14z"/>
<path d="M15180 16224 c-181 -39 -346 -189 -396 -360 -17 -60 -8 -94 33 -130
71 -61 141 -27 189 93 32 79 110 153 188 177 81 26 185 18 259 -18 104 -50
172 -155 187 -283 10 -90 26 -111 100 -130 299 -76 456 -392 331 -668 -60
-131 -151 -212 -300 -265 -50 -18 -98 -41 -107 -51 -10 -12 -19 -47 -24 -98
-12 -118 -70 -213 -162 -267 -104 -62 -217 -69 -321 -20 -68 33 -113 81 -162
176 -46 87 -70 105 -128 97 -49 -7 -83 -40 -92 -90 -13 -66 64 -208 157 -292
139 -125 373 -171 556 -109 80 27 171 85 234 151 45 46 110 168 128 240 l14
53 83 41 c143 71 266 201 328 349 54 127 72 302 44 429 -46 217 -225 432 -419
505 -45 17 -46 19 -63 84 -48 182 -213 343 -398 387 -78 18 -173 18 -259 -1z"/>
<path d="M14960 15585 c-25 -7 -103 -29 -175 -48 -71 -19 -222 -60 -335 -90
-113 -30 -218 -58 -234 -62 -99 -22 -115 -150 -24 -199 l33 -18 320 87 c176
47 371 100 434 117 127 33 145 42 160 75 35 76 -12 154 -91 152 -24 0 -63 -7
-88 -14z"/>
<path d="M13296 15388 c-14 -19 -16 -65 -16 -313 0 -213 3 -294 12 -303 7 -7
35 -12 63 -12 81 0 95 -7 95 -46 l0 -35 113 3 112 3 0 30 0 30 72 5 c40 3 78
11 85 18 14 14 21 153 11 205 -5 24 -10 27 -45 27 -50 0 -74 13 -93 50 -19 37
-19 83 0 121 18 33 50 49 100 49 40 0 42 5 35 109 l-5 76 -262 3 c-261 2 -262
2 -277 -20z"/>
<path d="M14159 14981 c-49 -49 -36 -134 25 -165 40 -21 818 -217 868 -219 87
-3 130 101 71 170 -26 30 -44 36 -273 92 -135 34 -323 81 -419 106 -209 54
-232 55 -272 16z"/>
<path d="M13470 14564 c-108 -12 -236 -39 -315 -65 -226 -75 -450 -249 -556
-430 -48 -83 -98 -202 -99 -236 l0 -23 1060 0 c583 0 1063 1 1067 3 20 6 -34
143 -103 260 -139 239 -447 432 -755 475 -88 13 -250 21 -299 16z"/>
<path d="M12400 13648 c-10 -4 -23 -16 -29 -27 -8 -14 -11 -642 -11 -2083 0
-1974 1 -2065 19 -2103 22 -50 86 -108 137 -126 31 -11 156 -13 621 -12 l582
2 -40 -62 c-55 -84 -143 -265 -173 -358 -27 -82 -56 -230 -56 -288 0 -48 29
-94 73 -114 47 -23 83 -21 124 4 43 27 59 59 68 139 14 136 94 326 208 495 61
90 85 121 91 114 2 -2 6 -71 10 -154 11 -228 24 -273 90 -300 57 -24 130 9
140 62 3 11 7 116 11 234 4 118 8 215 9 216 1 2 74 4 162 6 176 4 209 13 274
79 56 56 63 84 62 269 l-1 167 70 31 c82 37 269 95 359 111 36 7 107 12 158
12 77 0 101 -4 140 -24 65 -32 81 -77 64 -178 -17 -99 -44 -170 -108 -284 -63
-113 -110 -177 -235 -322 -320 -369 -806 -673 -1239 -773 -107 -25 -143 -50
-162 -112 -13 -46 -6 -78 27 -118 55 -65 132 -60 385 26 293 99 522 221 775
412 162 122 375 326 478 458 23 29 43 50 46 47 3 -3 7 -553 8 -1222 1 -669 5
-1227 8 -1239 3 -13 20 -32 38 -43 56 -35 120 -22 150 30 16 26 17 140 17
1429 l0 1401 37 107 c36 103 38 114 37 233 0 105 -4 134 -22 182 -65 164 -199
245 -422 255 -97 4 -134 1 -240 -21 -69 -14 -179 -43 -245 -66 -66 -22 -121
-40 -122 -40 -11 0 0 100 12 117 34 49 404 180 639 227 146 29 407 61 429 53
8 -3 18 -21 22 -39 17 -85 118 -452 131 -476 12 -23 14 -170 14 -904 0 -659 3
-884 12 -903 21 -47 100 -70 148 -45 46 24 45 9 51 950 4 492 10 915 14 940 5
37 -3 85 -49 263 -31 120 -56 220 -56 222 0 10 171 4 295 -10 72 -8 218 -29
326 -47 172 -28 200 -30 228 -19 72 31 101 131 61 212 -22 45 -92 149 -313
471 -295 429 -347 506 -493 728 -482 732 -732 1173 -827 1458 -49 146 -64 174
-110 202 -62 38 -148 15 -182 -49 -20 -39 -19 -63 6 -174 62 -279 87 -453 144
-1002 13 -132 27 -262 30 -290 16 -153 26 -338 31 -564 l6 -255 -44 35 c-45
38 -175 187 -262 304 -105 140 -245 355 -255 392 -6 21 -9 92 -7 158 l2 120
30 17 c60 34 134 27 183 -17 41 -37 97 -65 132 -65 32 0 95 39 108 67 30 66 4
141 -72 208 -77 67 -149 90 -279 90 l-108 0 0 571 c0 555 -1 571 -20 589 -18
17 -81 18 -1175 19 -636 0 -1165 -2 -1175 -6z m3235 -1353 c366 -584 613 -955
931 -1405 57 -79 101 -146 99 -148 -2 -2 -61 4 -132 13 -70 8 -203 18 -295 22
l-167 6 -12 56 c-6 31 -31 139 -54 241 -24 102 -60 262 -80 355 -59 278 -73
304 -162 312 -91 8 -150 -56 -140 -151 3 -28 8 -62 12 -76 3 -14 8 -36 11 -50
3 -14 21 -95 40 -180 97 -431 115 -512 112 -515 -2 -1 -66 -10 -143 -19 -278
-34 -515 -93 -735 -182 -74 -30 -139 -54 -143 -54 -4 0 -7 95 -6 211 2 210 2
211 23 205 109 -28 124 -29 157 -10 49 29 71 78 63 139 l-7 50 100 -95 c152
-146 258 -187 353 -138 50 25 87 75 115 153 42 115 28 650 -31 1195 -13 123
-24 226 -24 229 0 14 35 -36 115 -164z"/>
<path d="M16380 13303 c-40 -27 -48 -42 -80 -148 -17 -55 -63 -200 -101 -323
-94 -301 -96 -311 -70 -365 36 -74 124 -102 198 -64 38 20 58 70 103 249 17
68 37 143 45 168 7 25 32 106 55 179 46 147 52 209 27 258 -31 59 -124 83
-177 46z"/>
<path d="M4105 13264 c-139 -30 -267 -96 -388 -199 -133 -113 -234 -275 -280
-448 l-22 -82 0 -2305 c0 -2161 1 -2309 17 -2368 74 -268 240 -477 468 -592
84 -42 209 -84 285 -96 28 -4 532 -7 1122 -7 1044 0 1072 0 1104 20 52 29 79
77 79 136 0 70 -31 130 -78 154 -35 17 -89 18 -1102 19 -1177 2 -1117 -2
-1257 66 -76 37 -173 125 -221 202 -41 64 -79 166 -89 241 -5 33 -8 1050 -7
2260 l1 2200 22 79 c28 102 60 155 146 242 81 82 183 138 280 153 83 13 6899
14 6980 1 197 -32 387 -218 431 -422 11 -51 13 -344 14 -1576 0 -1647 -3
-1550 56 -1606 85 -79 234 -36 264 76 7 25 10 561 8 1575 l-3 1538 -27 96
c-85 310 -299 530 -615 632 l-68 22 -3525 2 c-3095 1 -3534 0 -3595 -13z"/>
<path d="M16773 13140 c-41 -25 -54 -46 -93 -155 -18 -49 -73 -196 -123 -325
-190 -494 -202 -530 -193 -566 4 -15 25 -45 47 -67 37 -37 42 -39 87 -35 69 7
101 32 135 108 16 36 33 76 37 90 5 14 38 106 75 205 209 564 227 618 222 652
-15 91 -117 140 -194 93z"/>
<path d="M8537 12646 c-103 -43 -154 -94 -204 -202 -23 -51 -27 -72 -28 -154
0 -82 4 -103 26 -151 33 -69 88 -132 146 -166 l44 -26 -3 -606 c-4 -588 -5
-608 -26 -685 -25 -90 -79 -196 -125 -243 -17 -18 -34 -33 -37 -33 -3 0 -11
66 -18 148 -34 421 -180 785 -453 1130 -180 226 -451 439 -724 568 -106 50
-329 126 -435 148 -310 63 -625 60 -920 -10 -264 -63 -547 -196 -770 -362
-173 -128 -379 -356 -507 -557 -268 -424 -367 -956 -273 -1469 37 -200 72
-312 151 -483 106 -228 230 -405 414 -589 303 -302 654 -490 1080 -579 114
-24 158 -28 350 -31 242 -4 308 3 525 57 502 124 931 424 1220 850 101 149
208 362 254 509 20 62 36 118 36 124 0 6 5 27 10 48 8 29 34 56 128 136 231
196 313 304 379 497 50 148 53 193 53 836 l0 598 34 16 c47 23 132 115 159
172 18 40 22 66 22 153 0 98 -3 110 -32 171 -39 78 -101 140 -181 177 -83 39
-213 42 -295 8z m-2227 -606 c41 -41 35 -114 -11 -137 -13 -6 -85 -16 -159
-22 -498 -40 -916 -295 -1179 -718 -72 -116 -108 -192 -147 -310 -45 -133 -74
-280 -80 -408 -7 -134 -9 -142 -45 -161 -39 -19 -89 -12 -115 17 -16 18 -19
35 -17 114 9 389 151 748 427 1074 290 344 758 565 1204 570 89 1 104 -1 122
-19z m-39 -430 c36 0 61 -35 61 -87 0 -55 -36 -83 -106 -83 -193 0 -434 -85
-611 -217 -145 -108 -251 -239 -336 -417 -57 -119 -88 -241 -98 -383 -8 -113
-20 -136 -72 -147 -44 -8 -97 16 -105 50 -11 45 5 214 31 320 103 425 424 773
836 908 111 36 315 70 357 59 8 -1 27 -3 43 -3z m149 -546 c36 -8 107 -35 159
-60 193 -94 351 -303 390 -518 81 -441 -263 -855 -712 -856 -108 0 -205 24
-317 77 -82 39 -107 58 -185 137 -137 139 -193 249 -214 425 -45 366 204 717
564 796 82 18 236 18 315 -1z m1893 -791 c-4 -43 -32 -220 -48 -298 -8 -41
-32 -72 -96 -124 -154 -123 -298 -244 -314 -261 -9 -10 -21 -38 -26 -61 -21
-94 -19 -91 -339 -360 -167 -140 -166 -139 -226 -139 -68 0 -127 39 -193 129
-76 102 -89 156 -52 218 32 51 445 389 503 410 18 7 60 12 94 12 l61 1 130
108 c71 59 178 145 238 192 60 47 143 117 184 156 42 40 79 70 82 68 3 -2 4
-25 2 -51z"/>
<path d="M6175 10536 c-40 -17 -90 -75 -105 -121 -56 -170 141 -321 293 -226
60 39 87 91 87 169 0 74 -39 141 -99 172 -47 23 -130 26 -176 6z"/>
<path d="M9462 11854 c-18 -9 -42 -30 -53 -45 -19 -27 -20 -45 -22 -411 l-2
-383 -81 -5 c-91 -6 -116 -19 -140 -77 -18 -42 -18 -144 0 -188 21 -50 58 -69
145 -75 l74 -5 -1 -620 c-1 -366 3 -635 8 -655 11 -42 54 -85 93 -94 39 -9 99
9 128 40 l24 26 3 654 3 654 65 0 c128 0 166 39 167 169 0 131 -37 171 -163
171 l-70 0 0 378 c0 356 -1 379 -20 409 -37 61 -102 85 -158 57z"/>
<path d="M10201 11852 c-19 -9 -44 -30 -55 -45 -21 -28 -21 -38 -24 -733 l-2
-704 -68 0 c-78 0 -108 -13 -139 -59 -19 -29 -23 -47 -23 -117 0 -74 3 -86 26
-113 37 -44 60 -54 129 -57 33 -2 63 -3 68 -4 4 0 7 -143 7 -317 0 -301 1
-320 20 -351 42 -68 138 -79 195 -22 l30 30 5 333 5 332 80 5 c127 8 157 41
156 168 -1 127 -34 164 -154 172 l-82 5 -5 705 c-5 766 -3 734 -63 770 -40 25
-62 25 -106 2z"/>
<path d="M10931 11853 c-68 -34 -71 -48 -71 -334 l0 -257 -80 -4 c-73 -3 -82
-6 -111 -34 -37 -38 -53 -99 -44 -177 6 -46 13 -65 40 -92 32 -34 34 -35 113
-35 l80 0 1 -772 c1 -837 -1 -796 55 -833 62 -41 146 -20 178 45 17 32 18 92
18 798 l0 762 70 0 c110 0 148 29 165 127 12 74 -3 133 -45 176 -37 36 -39 37
-113 37 l-76 0 -3 263 c-3 240 -5 264 -23 291 -19 29 -69 56 -102 56 -10 0
-33 -8 -52 -17z"/>
<path d="M8486 8754 c-174 -42 -348 -181 -431 -344 -12 -25 -33 -76 -46 -115
-22 -66 -23 -88 -27 -381 l-3 -312 -257 -4 c-244 -5 -261 -6 -338 -32 -85 -27
-209 -101 -255 -152 -53 -58 -109 -148 -141 -228 l-33 -81 0 -1550 0 -1550 29
-75 c74 -196 225 -339 426 -407 53 -17 173 -18 3240 -20 2184 -2 3202 1 3240
8 200 38 364 158 450 330 80 157 74 23 74 1709 1 1414 0 1509 -17 1570 -51
186 -159 324 -320 407 -118 62 -138 65 -429 70 l-268 5 0 297 c0 229 -4 311
-15 360 -57 238 -240 428 -475 492 -61 17 -192 18 -2205 18 -1810 -1 -2149 -3
-2199 -15z m4332 -522 c54 -31 56 -43 60 -349 l4 -283 -2196 0 -2197 0 3 288
c3 269 4 289 23 314 11 15 31 32 45 37 16 6 810 9 2130 8 1694 -2 2109 -5
2128 -15z m-2666 -1697 c56 -27 82 -70 86 -139 4 -73 -16 -111 -77 -151 -126
-84 -291 36 -252 181 13 48 71 110 115 124 39 11 85 6 128 -15z m626 -8 c18
-12 41 -40 52 -63 39 -79 19 -163 -51 -213 -101 -74 -242 -16 -264 107 -13 77
44 169 118 191 44 13 105 3 145 -22z m577 14 c131 -59 141 -226 19 -302 -100
-61 -244 17 -250 135 -4 75 33 136 101 167 50 23 79 23 130 0z m-2725 -181
c150 -20 314 -88 450 -188 521 -383 588 -1125 141 -1586 -117 -120 -238 -198
-411 -263 -185 -70 -475 -72 -672 -4 -373 128 -648 463 -703 855 -10 75 -8
256 5 328 34 197 145 410 291 559 156 160 366 266 599 302 50 8 227 6 300 -3z
m4540 -23 c395 -118 672 -425 755 -836 14 -66 16 -117 12 -230 -4 -137 -7
-153 -46 -270 -47 -143 -90 -225 -168 -329 -112 -146 -266 -264 -438 -333
-239 -95 -559 -93 -786 5 -294 127 -500 350 -598 646 -53 160 -67 362 -37 520
62 319 284 612 571 757 61 31 221 83 284 92 31 5 126 8 211 6 132 -2 168 -6
240 -28z m-1787 -536 c21 -12 47 -41 58 -62 19 -38 20 -56 17 -428 l-3 -388
-28 -36 c-54 -71 -16 -68 -738 -67 -714 0 -693 -2 -741 62 -48 62 -50 87 -46
468 3 348 3 356 26 391 57 92 28 89 772 86 l645 -2 38 -24z"/>
<path d="M8322 5806 c-189 -63 -331 -232 -350 -416 -15 -152 16 -275 96 -381
95 -127 213 -188 377 -197 169 -8 278 33 386 145 103 106 151 221 150 362 -1
178 -83 331 -231 431 -78 52 -140 71 -255 76 -87 4 -110 1 -173 -20z"/>
<path d="M12765 5816 c-108 -26 -236 -121 -301 -222 -105 -164 -105 -389 0
-549 105 -158 246 -235 431 -235 149 0 258 45 357 147 104 108 148 219 148
371 0 225 -159 430 -375 487 -69 18 -189 18 -260 1z"/>
<path d="M4320 8497 c-116 -16 -226 -100 -276 -210 -25 -54 -29 -74 -28 -152
0 -76 4 -99 26 -147 35 -76 94 -138 170 -179 55 -29 74 -34 153 -37 74 -3 100
0 146 17 103 39 193 138 224 246 39 132 -1 272 -104 368 -86 81 -190 112 -311
94z"/>
</g>
</svg>
