<?xml version="1.0" standalone="no"?>
<!DOCTYPE svg PUBLIC "-//W3C//DTD SVG 20010904//EN"
 "http://www.w3.org/TR/2001/REC-SVG-20010904/DTD/svg10.dtd">
<svg version="1.0" xmlns="http://www.w3.org/2000/svg"
 width="2048.000000pt" height="2048.000000pt" viewBox="0 0 2048.000000 2048.000000"
 preserveAspectRatio="xMidYMid meet">
<metadata>
Created by potrace 1.16, written by Peter Selinger 2001-2019
</metadata>
<g transform="translate(0.000000,2048.000000) scale(0.100000,-0.100000)"
fill="#18bcf2" stroke="none">
<path d="M10214 17669 c-37 -11 -53 -27 -133 -134 -149 -199 -320 -347 -676
-585 -279 -186 -355 -247 -525 -420 -325 -330 -453 -770 -346 -1190 13 -52 23
-96 21 -98 -9 -10 -224 232 -326 369 -174 231 -269 398 -302 534 -52 208 -17
357 114 486 77 77 136 104 264 121 110 14 145 45 145 128 0 35 -6 48 -35 77
l-36 36 -79 -7 c-241 -20 -451 -156 -548 -356 -54 -109 -72 -182 -79 -303 l-6
-97 -51 31 c-166 100 -310 147 -471 156 -236 12 -436 -65 -601 -233 -127 -128
-192 -250 -263 -494 -9 -32 -84 -54 -361 -110 -316 -63 -525 -74 -749 -41
-130 20 -170 17 -211 -17 -36 -29 -40 -78 -18 -219 24 -152 27 -376 9 -513
-13 -96 -61 -336 -102 -507 -19 -83 -24 -93 -44 -93 -44 0 -214 -49 -287 -83
-106 -49 -191 -109 -275 -193 -59 -59 -81 -92 -122 -176 -65 -136 -76 -185
-75 -348 0 -194 29 -309 123 -484 l49 -93 -92 -6 c-160 -9 -331 -79 -438 -178
-94 -87 -166 -238 -194 -405 -15 -88 -15 -99 -1 -130 22 -45 68 -68 126 -61
54 6 87 38 96 95 26 169 58 246 134 322 71 71 180 122 274 128 141 8 298 -51
457 -173 81 -63 142 -107 385 -280 183 -131 246 -178 242 -182 -2 -2 -30 3
-62 12 -364 94 -765 1 -1075 -250 -167 -135 -295 -288 -520 -620 -90 -132
-192 -278 -228 -324 -96 -123 -235 -258 -369 -358 -102 -76 -119 -93 -127
-125 -19 -77 -3 -104 119 -196 122 -92 259 -223 338 -322 28 -36 54 -67 58
-70 10 -8 180 -248 249 -350 175 -262 416 -524 584 -634 154 -102 356 -186
441 -185 12 0 32 17 50 42 23 32 30 53 30 90 0 63 -24 85 -136 121 -286 94
-511 299 -790 721 -197 298 -416 558 -577 687 -34 27 -62 53 -62 58 0 4 30 32
68 61 154 121 318 317 552 664 150 221 191 277 275 375 163 189 382 332 592
386 197 50 387 40 601 -31 94 -32 275 -117 312 -148 8 -6 31 -53 51 -103 l36
-91 -91 -12 c-50 -6 -110 -19 -134 -28 -41 -15 -44 -15 -120 15 -110 43 -216
62 -347 62 -338 0 -583 -139 -831 -470 -39 -52 -123 -166 -188 -253 -65 -86
-157 -199 -206 -251 -140 -149 -143 -195 -19 -326 90 -96 187 -216 248 -305
179 -267 365 -472 501 -555 76 -46 190 -95 269 -115 82 -20 246 -38 278 -31
16 5 63 46 117 103 50 53 131 130 180 171 l88 75 -23 18 c-13 10 -30 19 -38
19 -8 0 -187 174 -398 387 l-384 387 348 349 c191 192 373 368 403 391 112 87
230 126 384 126 l85 0 27 -37 c15 -21 45 -61 66 -89 21 -28 38 -55 38 -61 0
-5 -31 -24 -69 -41 -113 -49 -186 -106 -376 -292 -99 -96 -207 -198 -239 -225
-109 -92 -109 -141 -3 -242 39 -38 136 -132 216 -209 171 -166 212 -201 272
-233 l45 -24 97 42 c53 22 101 41 107 41 27 0 4 31 -51 70 -87 61 -135 104
-311 277 l-157 154 186 182 c195 192 246 231 352 272 101 38 111 36 230 -58
l104 -82 1 -335 c1 -184 4 -340 8 -346 5 -7 39 -4 113 12 59 12 109 25 113 29
4 3 5 111 4 238 -7 542 80 1013 278 1507 93 234 268 545 439 780 224 310 561
637 888 863 302 209 587 352 948 476 384 133 721 186 1180 185 297 0 477 -17
715 -66 120 -25 150 -21 192 24 50 53 34 149 -31 183 -14 7 -78 23 -141 35
-63 11 -128 24 -143 28 l-28 7 88 94 c121 130 212 205 339 281 218 129 469
207 695 217 l136 6 41 -38 c23 -20 82 -90 132 -156 77 -100 97 -120 129 -130
74 -22 138 16 148 88 5 39 2 48 -37 100 -80 108 -182 223 -232 262 -51 41
-146 79 -210 83 -21 2 -38 5 -38 7 0 2 49 56 108 120 137 147 173 192 310 379
266 361 337 494 377 705 19 100 19 159 0 251 -58 279 -240 467 -515 531 -170
39 -250 5 -250 -108 0 -49 31 -92 72 -101 12 -3 61 -12 107 -21 110 -21 161
-46 236 -117 134 -124 164 -301 88 -513 -30 -83 -52 -122 -156 -280 -113 -170
-423 -573 -433 -562 -2 2 6 50 18 108 25 124 29 325 9 439 -52 290 -173 512
-416 756 -129 130 -246 224 -452 360 -337 223 -553 410 -703 608 -92 123 -122
143 -186 125z m65 -351 c150 -176 335 -334 611 -521 505 -342 683 -526 802
-828 61 -153 79 -378 43 -544 -26 -124 -132 -376 -196 -466 -16 -23 -156 -89
-188 -89 -6 0 -11 17 -11 38 0 20 -11 80 -23 133 l-24 97 33 78 c45 109 65
215 65 347 0 160 -25 270 -96 422 -82 175 -229 324 -515 522 -58 40 -184 138
-280 219 -96 80 -188 152 -204 161 -40 21 -100 11 -146 -24 -21 -15 -82 -67
-136 -114 -111 -96 -213 -174 -388 -299 -379 -270 -538 -534 -537 -895 1 -132
20 -225 71 -349 l29 -69 -19 -75 c-11 -41 -23 -103 -26 -138 -4 -37 -11 -64
-18 -63 -6 0 -49 19 -95 42 l-84 42 -67 133 c-77 152 -112 249 -134 377 -63
360 65 697 376 990 97 91 268 219 503 376 253 168 420 311 552 472 30 37 58
67 60 67 3 0 22 -19 42 -42z m6 -720 c47 -40 254 -198 462 -355 225 -169 318
-280 379 -453 24 -67 27 -91 28 -215 1 -148 -8 -190 -35 -162 -8 8 -198 200
-423 426 -400 402 -410 411 -448 411 -53 0 -84 -18 -147 -87 -29 -32 -210
-216 -402 -410 -345 -347 -350 -352 -360 -325 -17 43 -18 181 -3 266 18 101
48 175 109 266 72 108 125 156 411 372 142 108 286 219 319 246 33 28 62 51
65 51 3 1 23 -14 45 -31z m-3086 -419 c142 -23 252 -78 433 -216 131 -101 133
-103 333 -388 118 -169 193 -257 373 -437 l156 -158 -50 4 c-48 3 -94 22 -94
38 0 4 -57 47 -127 96 -71 49 -200 140 -288 203 -353 251 -465 315 -653 378
-188 63 -385 77 -615 44 -64 -9 -119 -14 -122 -11 -9 9 37 111 82 181 134 210
337 305 572 266z m3396 -561 c191 -194 368 -381 392 -416 54 -75 98 -177 113
-264 13 -69 6 -178 -13 -200 -23 -28 -181 -131 -185 -120 -10 32 -84 173 -108
209 -16 22 -108 124 -204 225 -96 100 -204 214 -239 251 -36 37 -76 70 -89 74
-32 8 -84 -20 -124 -66 -17 -20 -115 -122 -216 -228 -217 -225 -252 -269 -305
-383 -22 -47 -41 -86 -42 -88 -7 -9 -181 122 -189 141 -4 12 -8 58 -8 102 -1
125 37 240 114 347 31 43 736 765 749 767 3 1 162 -158 354 -351z m-3467 -125
c82 -17 204 -58 274 -94 24 -12 114 -72 201 -133 224 -158 257 -180 410 -280
l135 -89 -47 -56 c-26 -31 -58 -71 -71 -90 l-24 -35 -17 71 c-22 89 -72 200
-107 236 -82 87 -214 87 -264 1 -28 -48 -15 -86 52 -153 51 -50 62 -69 103
-176 74 -191 75 -197 43 -292 -15 -45 -33 -86 -40 -92 -9 -7 -31 4 -83 43 -39
30 -96 69 -126 87 -52 32 -57 38 -77 101 -67 205 -249 395 -484 504 -120 55
-206 75 -351 81 -139 6 -161 3 -573 -61 -122 -19 -288 -40 -368 -46 -157 -12
-179 -18 -209 -58 -16 -22 -21 -50 -26 -168 -8 -151 -14 -202 -59 -469 -44
-257 -53 -367 -40 -492 36 -366 191 -591 527 -767 l116 -61 39 -70 c22 -38 59
-96 84 -128 l44 -58 -47 -20 c-121 -53 -117 -53 -228 -19 -130 38 -239 83
-282 116 -18 14 -46 30 -63 35 -61 22 -138 -29 -159 -106 -9 -32 -8 -44 7 -70
28 -48 105 -92 231 -132 64 -20 118 -38 121 -41 3 -2 -8 -15 -25 -29 -62 -52
-219 -209 -237 -238 -10 -16 -18 -39 -19 -50 0 -11 -10 9 -23 45 -32 92 -95
214 -233 450 -156 266 -180 315 -214 434 -40 138 -49 201 -49 361 0 196 45
477 155 966 62 273 79 424 71 624 -3 88 -9 174 -12 190 l-6 30 239 0 c309 0
329 3 933 143 164 39 330 67 445 76 84 6 252 -4 333 -21z m3157 -455 c21 -24
88 -95 149 -158 134 -138 188 -205 226 -279 24 -49 60 -151 60 -172 0 -4 -21
-31 -46 -61 -25 -29 -63 -78 -84 -109 l-39 -56 -310 1 -310 1 -85 114 c-47 63
-86 121 -86 128 0 24 59 157 93 211 17 28 95 117 173 199 77 81 156 165 173
186 18 20 37 37 41 37 4 0 25 -19 45 -42z m-3560 -148 c190 -25 362 -129 466
-282 22 -31 39 -58 39 -60 0 -2 -269 -2 -597 0 -414 2 -606 -1 -624 -9 -15 -6
-34 -25 -43 -42 -16 -29 -17 -84 -14 -610 2 -317 2 -577 0 -577 -2 0 -29 18
-61 39 -87 60 -156 141 -205 245 -91 189 -98 310 -37 682 38 232 66 464 59
493 -2 11 9 15 42 18 110 8 252 27 475 63 326 53 371 57 500 40z m1836 -121
c148 -15 235 -34 388 -85 235 -79 353 -148 545 -318 68 -60 180 -186 172 -194
-2 -2 -69 -16 -148 -32 -376 -74 -697 -180 -1013 -335 -154 -76 -420 -234
-522 -311 -88 -66 -98 -70 -107 -48 -14 37 -18 203 -7 303 40 364 148 617 398
933 29 37 63 74 75 82 26 19 77 20 219 5z m-1396 -459 c148 -8 215 -27 305
-87 78 -52 204 -178 197 -196 -3 -9 -11 -61 -18 -116 -7 -56 -16 -101 -20
-101 -4 0 -31 11 -61 25 -121 55 -193 66 -483 75 -148 5 -300 12 -337 16 -76
8 -118 -4 -143 -42 -13 -20 -15 -69 -15 -326 0 -340 11 -449 59 -597 l29 -91
-22 -4 c-11 -3 -54 -7 -95 -11 -41 -3 -85 -8 -98 -11 -18 -5 -36 7 -93 61 -55
54 -79 87 -114 159 -70 142 -70 146 -71 734 l0 523 425 -2 c234 -1 484 -5 555
-9z m-2429 -422 c-15 -112 -28 -375 -22 -478 7 -131 30 -241 82 -385 51 -139
95 -223 220 -422 119 -187 218 -362 211 -369 -5 -6 -249 163 -416 288 -215
161 -366 334 -456 523 -65 138 -79 199 -79 345 1 100 5 136 21 181 52 142 165
253 333 326 103 45 114 44 106 -9z m2474 -218 c153 -11 228 -27 315 -70 91
-44 104 -62 115 -161 5 -46 14 -106 19 -134 l10 -50 -92 -84 c-51 -46 -147
-140 -215 -208 l-122 -125 -88 15 c-48 9 -117 19 -154 23 l-66 6 -31 69 c-64
143 -71 190 -72 470 -1 140 -1 256 0 259 1 7 221 1 381 -10z m-160 -1039 l29
-6 -65 -90 c-144 -198 -211 -309 -332 -550 -159 -316 -273 -663 -342 -1035
-12 -63 -23 -121 -26 -129 -6 -17 -141 113 -242 233 -138 166 -197 273 -271
492 -66 197 -101 385 -101 543 l0 49 93 80 c185 159 339 258 501 322 101 40
312 89 430 99 89 9 270 4 326 -8z m-1990 -1477 c32 -7 31 -8 -388 -428 -457
-458 -452 -451 -419 -527 9 -20 178 -199 426 -448 226 -228 408 -417 405 -420
-14 -15 -217 -12 -294 3 -229 47 -385 174 -611 499 -92 132 -203 279 -263 345
l-56 63 69 79 c37 43 130 163 207 267 258 350 292 388 415 465 121 76 225 106
370 107 59 1 121 -2 139 -5z"/>
<path d="M5187 13216 c-52 -19 -73 -40 -85 -87 -18 -71 9 -133 70 -165 36 -19
72 -18 115 3 49 23 73 66 73 132 0 49 -3 57 -36 87 -19 19 -44 34 -54 34 -10
0 -24 2 -32 5 -7 2 -30 -2 -51 -9z"/>
<path d="M10149 14719 c-97 -56 -120 -197 -46 -278 53 -57 148 -76 215 -42 69
35 102 88 102 161 0 70 -39 133 -102 166 -41 21 -126 17 -169 -7z"/>
<path d="M8490 14431 c-122 -64 -128 -237 -12 -316 48 -33 137 -35 191 -4 117
66 121 247 7 314 -53 31 -134 34 -186 6z"/>
<path d="M7120 13484 c-46 -20 -68 -41 -92 -87 -42 -84 -8 -201 72 -242 136
-70 300 57 260 201 -32 113 -140 171 -240 128z"/>
<path d="M6176 12098 c-48 -10 -101 -49 -121 -88 -35 -68 -7 -186 56 -230 34
-25 124 -38 173 -26 46 11 95 64 111 120 40 140 -73 254 -219 224z"/>
<path d="M8243 16501 c-56 -26 -97 -95 -96 -162 1 -60 39 -128 87 -158 43 -27
128 -28 176 -2 79 42 119 138 90 213 -16 40 -65 94 -102 114 -37 19 -105 17
-155 -5z"/>
<path d="M12075 16506 c-68 -31 -105 -92 -105 -174 0 -168 233 -237 329 -97
61 89 21 231 -76 271 -41 18 -109 17 -148 0z"/>
<path d="M13645 16205 c-46 -16 -240 -206 -270 -265 -28 -53 -25 -144 6 -200
56 -102 173 -138 273 -85 57 30 57 30 156 -69 l74 -76 -244 -245 c-135 -135
-249 -245 -254 -245 -5 0 -47 38 -93 83 l-83 84 24 44 c50 90 42 170 -22 241
-45 50 -85 68 -152 68 -78 0 -133 -32 -238 -139 -143 -147 -170 -227 -114
-338 25 -49 46 -67 106 -94 61 -27 121 -22 176 15 49 32 51 32 150 -69 l75
-76 -179 -173 -180 -172 21 -30 c37 -50 891 -896 901 -893 16 6 1413 1399
1448 1444 101 129 158 338 134 491 -23 143 -80 265 -168 360 -61 65 -101 95
-190 138 -200 99 -425 86 -629 -35 -31 -19 -115 -91 -188 -161 l-132 -128 -87
90 -87 90 19 28 c46 64 50 146 12 222 -22 43 -66 85 -103 99 -39 15 -114 13
-162 -4z m894 -871 c96 -56 120 -199 49 -280 -65 -74 -157 -90 -241 -41 -121
71 -120 240 1 318 42 27 53 30 104 26 31 -3 70 -13 87 -23z m-649 -661 c161
-82 121 -322 -57 -349 -80 -12 -163 29 -200 99 -36 71 -8 191 56 236 68 49
125 53 201 14z"/>
<path d="M15780 14501 c-204 -68 -384 -164 -545 -291 -108 -86 -287 -279 -360
-390 -90 -135 -229 -409 -245 -482 -12 -51 -11 -59 6 -90 27 -46 86 -74 133
-62 31 8 40 17 68 74 17 36 62 126 98 200 123 250 282 445 483 593 128 96 207
140 336 189 170 65 174 67 196 112 16 34 18 48 10 77 -21 77 -86 102 -180 70z"/>
<path d="M12366 14005 c-176 -173 -323 -315 -326 -315 -10 0 -105 102 -118
126 -8 15 -8 32 -1 60 15 52 6 115 -21 159 -32 52 -115 90 -176 81 -64 -8 -89
-24 -185 -117 -90 -87 -109 -121 -109 -197 0 -37 23 -97 48 -126 46 -51 147
-70 221 -40 l40 16 57 -56 c32 -31 61 -56 66 -56 4 0 8 -5 8 -11 0 -13 -397
-409 -409 -409 -4 0 -36 29 -70 64 l-62 65 16 37 c28 67 14 135 -39 193 -91
98 -212 78 -337 -57 -80 -87 -104 -131 -102 -193 1 -58 22 -98 70 -138 62 -51
132 -59 200 -23 18 10 28 4 87 -56 l66 -67 -88 -88 c-48 -49 -130 -129 -184
-178 l-96 -90 -60 56 c-56 52 -60 59 -67 113 -9 70 -23 100 -69 140 -60 53
-141 65 -212 33 -131 -60 -165 -231 -66 -334 26 -28 107 -57 148 -54 14 1 44
-20 88 -61 52 -51 64 -67 57 -80 -6 -9 -75 -81 -156 -160 -161 -158 -151 -154
-216 -85 -52 55 -69 84 -69 116 0 43 -36 104 -82 137 -36 26 -50 30 -107 30
-77 0 -130 -27 -170 -85 -81 -119 17 -305 162 -305 24 0 41 -8 63 -31 16 -17
45 -44 66 -59 l36 -27 -158 -156 c-86 -86 -161 -157 -166 -157 -12 0 -99 90
-113 117 -6 12 -11 37 -11 56 0 31 -30 88 -64 122 -27 27 -81 47 -130 47 -149
1 -238 -144 -173 -284 29 -65 71 -95 152 -108 50 -8 61 -15 110 -67 30 -32 55
-60 55 -63 0 -3 -69 -74 -152 -157 l-153 -153 -58 57 c-31 31 -60 68 -63 82
-18 80 -27 103 -51 131 -37 44 -93 70 -153 70 -164 0 -250 -180 -151 -318 24
-35 87 -67 147 -77 30 -5 55 -20 99 -60 l59 -55 -25 -26 c-13 -14 -85 -84
-161 -155 l-136 -130 -58 62 c-49 51 -61 70 -69 113 -13 64 -32 95 -81 133
-30 22 -49 28 -103 31 -59 3 -71 0 -112 -26 -118 -76 -118 -247 1 -326 22 -14
62 -29 88 -32 41 -6 54 -14 105 -66 l58 -60 -78 -86 c-412 -454 -663 -612
-1095 -686 -104 -18 -282 -33 -508 -41 -432 -16 -731 -66 -1018 -172 -561
-207 -988 -628 -1205 -1189 -124 -322 -141 -720 -47 -1094 79 -314 264 -650
529 -960 173 -203 460 -475 674 -639 283 -217 652 -402 941 -471 339 -81 649
-81 951 1 145 39 227 71 360 137 221 110 446 288 629 497 34 38 67 76 74 84
28 30 161 239 194 306 184 367 270 734 267 1135 -2 216 -17 333 -83 662 -78
387 -81 410 -80 623 0 170 3 202 27 302 14 62 40 147 58 188 72 173 -12 86
2173 2272 1123 1124 2042 2046 2043 2050 3 7 -911 924 -919 923 -2 -1 -147
-142 -322 -315z m-3552 -4001 c31 -25 56 -50 56 -57 0 -6 -451 -463 -1002
-1015 l-1003 -1003 -62 68 -63 68 38 38 c87 91 1909 1907 1932 1926 14 11 30
20 37 21 6 0 36 -20 67 -46z m275 -278 c55 -55 61 -65 48 -77 -9 -8 -460 -458
-1004 -1002 l-988 -987 -64 64 -64 64 999 1001 c549 550 1001 1000 1004 1001
3 0 34 -29 69 -64z m239 -251 l23 -26 -62 -69 c-225 -251 -342 -485 -414 -828
-25 -121 -43 -305 -55 -547 -14 -301 -26 -443 -51 -595 -50 -303 -135 -560
-262 -784 -113 -200 -381 -481 -595 -624 -205 -137 -383 -214 -604 -264 -89
-20 -130 -23 -303 -23 -171 0 -216 3 -310 23 -228 48 -447 137 -670 271 -136
82 -252 176 -374 304 l-33 35 32 35 c29 33 217 223 698 708 154 156 173 179
167 200 -4 13 -94 111 -200 219 -194 196 -215 225 -215 293 0 36 44 102 126
187 90 93 122 111 158 86 23 -15 245 -235 575 -569 l204 -206 -58 -63 c-75
-81 -95 -115 -95 -161 0 -31 7 -46 34 -73 29 -29 41 -34 79 -34 28 0 53 7 68
19 41 32 239 232 249 251 29 54 0 127 -84 210 -31 30 -56 58 -56 63 0 13 1982
1987 1995 1987 6 0 21 -11 33 -25z"/>
<path d="M16314 13875 c-169 -44 -298 -92 -456 -171 -402 -201 -684 -455 -889
-802 -102 -173 -161 -305 -289 -647 -165 -440 -383 -713 -735 -920 -166 -98
-316 -155 -679 -260 -286 -83 -376 -115 -497 -175 -159 -81 -303 -183 -425
-305 -160 -158 -263 -305 -381 -538 -49 -98 -123 -304 -123 -343 0 -14 15 -41
34 -62 32 -34 38 -37 92 -37 50 0 59 3 77 27 11 15 34 69 52 120 17 51 52 136
77 188 174 358 383 579 693 732 142 70 184 84 520 183 203 60 297 91 412 136
487 191 880 589 1071 1084 17 44 54 145 82 225 174 487 410 811 759 1044 217
144 426 234 713 306 67 17 131 39 142 48 50 46 53 122 6 172 -38 40 -86 39
-256 -5z"/>
<path d="M9930 13700 c-312 -29 -645 -105 -920 -211 -128 -49 -382 -168 -495
-231 -126 -71 -310 -199 -468 -325 -137 -110 -392 -360 -481 -472 -268 -336
-411 -575 -544 -906 -180 -450 -254 -839 -254 -1334 1 -237 14 -271 112 -271
46 0 76 13 101 43 14 18 17 60 22 291 6 309 23 444 87 707 69 278 129 449 233
659 175 354 364 619 636 890 287 286 626 513 1003 675 483 207 1047 301 1527
254 102 -10 118 -10 146 5 41 22 65 64 65 114 0 56 -31 89 -95 102 -67 14
-555 21 -675 10z"/>
<path d="M14140 13100 c-69 -16 -76 -37 -83 -226 -4 -93 -13 -203 -22 -244
-76 -375 -314 -676 -660 -836 -114 -53 -224 -88 -430 -138 -99 -25 -225 -61
-280 -80 -202 -73 -417 -193 -562 -315 -90 -74 -246 -234 -308 -316 -114 -149
-231 -368 -314 -588 -47 -124 -111 -357 -111 -405 0 -102 118 -161 189 -94 25
22 36 50 65 165 65 248 144 442 265 642 100 165 185 266 326 384 231 194 402
276 760 367 369 93 549 168 742 309 285 208 467 492 544 845 28 132 38 423 16
465 -30 59 -73 79 -137 65z"/>
<path d="M9505 13035 c-357 -92 -640 -225 -950 -445 -203 -145 -354 -281 -512
-463 -263 -303 -444 -634 -571 -1042 -62 -199 -111 -457 -112 -586 0 -84 71
-140 151 -119 53 15 75 51 83 144 51 562 351 1189 767 1604 329 328 786 583
1234 688 104 24 125 32 154 61 31 31 33 37 29 85 -4 42 -11 57 -37 80 -41 37
-72 36 -236 -7z"/>
<path d="M15833 12779 c-101 -20 -343 -294 -428 -484 -52 -115 -107 -281 -151
-455 -59 -227 -95 -333 -156 -453 -50 -96 -134 -222 -193 -288 -101 -112 -249
-219 -408 -294 -169 -80 -262 -105 -736 -195 -247 -47 -425 -105 -542 -177
-81 -51 -80 -162 3 -204 50 -25 68 -24 136 10 156 78 256 105 702 186 260 47
423 103 625 213 140 77 215 132 329 242 149 144 255 303 353 530 52 120 62
154 118 380 53 215 72 272 129 395 71 150 167 275 286 370 72 58 88 87 75 144
-13 62 -72 95 -142 80z"/>
<path d="M16411 12749 c-26 -26 -31 -38 -31 -80 0 -59 31 -98 100 -124 152
-57 246 -174 271 -337 18 -116 19 -119 49 -149 51 -51 152 -33 186 33 31 59 1
213 -66 348 -71 141 -168 236 -312 306 -97 46 -154 47 -197 3z"/>
<path d="M4049 12307 c-56 -30 -89 -85 -89 -149 0 -81 30 -132 102 -169 76
-39 165 -17 222 54 28 35 31 46 31 106 0 59 -4 72 -29 105 -15 21 -42 46 -60
57 -44 27 -121 25 -177 -4z"/>
<path d="M16260 12312 c-96 -48 -130 -193 -63 -272 104 -124 295 -72 319 87
20 137 -132 248 -256 185z"/>
<path d="M15850 11911 c-37 -37 -44 -67 -28 -116 11 -34 21 -44 68 -66 267
-129 291 -142 381 -217 158 -131 257 -250 469 -562 73 -107 165 -238 204 -290
82 -110 250 -287 344 -363 l64 -52 -54 -44 c-159 -133 -312 -312 -513 -601
-260 -375 -329 -464 -437 -566 -139 -131 -316 -234 -472 -274 -112 -28 -241
-43 -317 -36 -85 8 -123 -5 -143 -49 -23 -48 -20 -89 9 -123 42 -50 68 -55
248 -49 194 6 306 32 462 106 189 90 326 196 484 374 92 104 157 191 351 471
239 345 343 462 542 610 65 48 124 97 133 109 20 28 19 102 -1 136 -9 15 -60
57 -114 95 -180 124 -351 319 -599 683 -159 234 -261 362 -391 493 -133 134
-230 206 -386 285 -162 83 -254 97 -304 46z"/>
<path d="M15679 11358 c-22 -18 -49 -72 -49 -98 0 -26 22 -70 46 -91 11 -9 51
-27 89 -39 121 -38 232 -111 323 -210 34 -37 136 -169 235 -305 116 -160 170
-229 241 -309 l59 -66 -60 -63 c-65 -68 -142 -169 -248 -322 -95 -138 -213
-283 -279 -341 -70 -63 -173 -124 -267 -160 -67 -25 -86 -28 -211 -28 -84 -1
-141 3 -148 10 -7 7 110 131 399 420 454 454 453 452 416 533 -18 42 -608 637
-655 661 -29 15 -82 15 -111 -1 -29 -15 -59 -87 -52 -123 4 -21 74 -98 252
-276 135 -135 259 -260 275 -278 l28 -31 -243 -246 c-359 -364 -468 -470 -532
-515 -79 -57 -83 -67 -57 -143 29 -84 86 -166 135 -194 72 -40 172 -56 319
-50 149 6 227 24 362 87 196 91 326 216 539 520 73 104 218 285 312 388 122
135 122 178 -1 309 -85 92 -186 218 -316 398 -180 249 -282 358 -423 452 -135
91 -332 148 -378 111z"/>
<path d="M5832 10403 c-69 -34 -109 -122 -91 -200 13 -60 34 -89 84 -118 106
-62 237 -4 264 117 18 80 -13 152 -84 193 -50 30 -123 33 -173 8z"/>
<path d="M13655 9773 c-225 -14 -543 -63 -732 -113 -289 -77 -622 -214 -805
-332 -95 -61 -240 -181 -293 -243 -49 -58 -65 -67 -65 -37 -1 70 -142 225
-275 301 -127 73 -342 135 -558 162 -123 15 -399 7 -517 -15 -284 -53 -478
-139 -620 -276 -82 -79 -106 -135 -120 -280 -6 -63 -20 -164 -31 -225 -39
-214 -24 -359 87 -884 13 -61 26 4 119 623 14 93 26 171 28 172 1 1 27 -13 57
-32 30 -20 88 -51 128 -69 39 -19 72 -40 72 -46 0 -7 -27 -200 -60 -430 -130
-907 -141 -1048 -99 -1252 12 -56 30 -126 41 -155 11 -29 17 -56 14 -59 -10
-10 -174 141 -242 222 l-41 48 -33 -154 c-50 -235 -89 -349 -201 -588 -56
-118 -56 -116 19 -187 129 -123 352 -227 611 -285 239 -54 629 -74 875 -45
421 49 730 163 901 333 61 61 89 106 116 185 53 158 -9 302 -203 470 l-27 23
49 65 c27 36 60 84 72 108 13 23 25 42 28 42 3 0 26 -31 52 -68 25 -37 59 -83
74 -102 59 -73 263 -267 331 -315 40 -27 72 -54 73 -60 0 -5 -15 -25 -34 -45
-83 -85 -149 -238 -148 -344 1 -104 40 -190 123 -275 161 -163 441 -243 854
-244 396 -1 808 79 1184 229 237 95 442 224 578 361 67 69 93 104 130 179 44
89 46 97 46 181 1 94 -16 150 -68 233 -28 44 -115 117 -187 157 -27 14 -48 29
-48 33 0 3 36 66 79 138 203 338 297 773 248 1144 -35 259 -127 613 -220 843
-57 141 -185 433 -226 515 -52 105 -134 182 -268 252 -199 105 -545 161 -868
141z m439 -259 c232 -32 432 -125 472 -220 37 -88 6 -177 -103 -294 -138 -150
-472 -338 -761 -430 -551 -175 -1152 -214 -1512 -98 -97 31 -192 82 -237 126
-86 85 -79 183 21 304 300 364 1186 658 1901 631 61 -2 159 -11 219 -19z
m-3116 -249 c121 -21 286 -71 365 -111 208 -104 244 -216 104 -321 -184 -140
-524 -217 -839 -192 -149 12 -239 30 -378 75 -125 40 -209 87 -268 150 -73 79
-69 121 17 205 85 83 220 140 442 185 178 36 386 39 557 9z m3805 -465 c112
-305 183 -557 213 -760 22 -149 15 -402 -15 -533 -81 -352 -232 -627 -480
-872 -55 -54 -71 -65 -71 -49 0 11 4 24 9 30 14 15 69 191 90 289 34 162 45
267 45 445 0 299 -58 612 -187 1000 -34 102 -65 195 -69 208 -6 20 1 28 50 59
123 78 259 198 329 289 14 19 29 31 33 27 4 -4 27 -64 53 -133z m-3150 -532
c5 -429 13 -532 63 -778 14 -69 42 -177 62 -240 19 -63 37 -128 39 -145 5 -35
-62 -178 -129 -278 -46 -69 -148 -172 -216 -219 -53 -36 -52 -42 -9 104 37
124 50 242 44 388 -4 110 -51 470 -131 1015 -14 94 -30 208 -36 255 -6 47 -13
92 -16 101 -3 12 23 30 108 72 62 30 133 71 158 90 25 20 48 36 51 36 4 1 9
-180 12 -401z m2505 92 c163 -461 231 -903 188 -1225 -35 -266 -105 -464 -227
-640 -53 -77 -94 -119 -153 -159 -71 -48 -67 -57 -124 252 -29 152 -59 306
-67 342 -17 79 -157 786 -218 1103 l-44 227 56 15 c119 33 369 118 450 155 66
30 89 36 97 27 6 -7 25 -50 42 -97z m-3620 53 c45 -3 82 -9 83 -12 1 -8 1 27
0 -1049 l-1 -964 -31 7 c-106 23 -185 83 -259 196 -120 182 -154 396 -110 685
25 170 53 366 81 574 16 124 41 300 54 392 14 92 25 172 25 179 0 8 12 10 38
5 20 -4 74 -9 120 -13z m557 7 c3 -6 35 -223 70 -483 36 -259 74 -535 84 -612
41 -286 38 -409 -15 -569 -37 -109 -128 -243 -201 -296 -49 -35 -133 -70 -167
-70 -8 0 -10 296 -6 1007 l5 1008 90 7 c50 4 97 10 105 12 26 7 29 6 35 -4z
m895 -117 c104 -51 181 -76 313 -104 56 -12 105 -24 109 -28 4 -3 11 -96 17
-206 26 -499 123 -918 284 -1225 75 -142 201 -316 296 -407 55 -52 -18 -36
-184 42 -247 115 -478 313 -627 536 -159 241 -239 492 -283 899 -19 167 -32
544 -19 538 5 -2 47 -23 94 -45z m1298 -145 c34 -160 354 -1795 367 -1875 5
-32 4 -33 -30 -33 -46 0 -143 33 -227 77 -178 93 -383 333 -505 590 -132 278
-222 713 -235 1138 l-3 100 190 12 c105 7 235 19 290 27 152 21 140 24 153
-36z"/>
<path d="M13280 9240 c-188 -20 -406 -105 -507 -197 -57 -52 -83 -99 -83 -152
0 -38 5 -49 43 -86 60 -60 145 -86 292 -87 134 -1 190 6 320 39 226 58 381
164 415 284 22 74 -49 155 -161 184 -69 18 -223 26 -319 15z"/>
<path d="M10600 9120 c-175 -25 -275 -93 -254 -175 37 -150 568 -184 706 -45
109 109 -28 210 -305 224 -45 3 -111 1 -147 -4z"/>
<path d="M4073 8500 c-64 -20 -111 -94 -112 -178 -1 -50 15 -86 57 -125 28
-27 100 -54 132 -51 8 1 25 2 37 3 30 1 102 67 120 108 59 142 -82 289 -234
243z"/>
<path d="M16255 8492 c-117 -73 -128 -221 -23 -305 50 -40 127 -48 184 -19 48
24 69 47 89 95 32 77 10 156 -58 211 -49 39 -144 48 -192 18z"/>
<path d="M3535 8428 c-44 -35 -57 -76 -45 -155 36 -257 186 -458 409 -549 75
-30 191 -54 262 -54 27 0 49 -3 49 -6 0 -3 -8 -18 -19 -32 -30 -44 -88 -164
-111 -233 -27 -80 -50 -222 -50 -316 0 -233 122 -473 315 -616 97 -72 181
-115 317 -162 120 -41 98 -7 177 -280 115 -394 143 -630 106 -880 -17 -111
-11 -146 29 -184 33 -31 88 -36 182 -17 250 52 485 20 932 -126 114 -37 185
-66 191 -76 5 -10 14 -42 21 -72 17 -77 80 -208 147 -308 104 -154 279 -275
467 -322 214 -54 514 6 708 141 14 11 30 19 36 19 5 0 12 -42 15 -92 9 -166
69 -296 192 -423 104 -107 271 -184 432 -201 94 -10 153 31 153 108 0 87 -36
119 -148 130 -252 24 -432 258 -393 512 22 144 69 231 257 481 124 166 153
214 123 203 -90 -32 -179 -62 -250 -83 -84 -25 -87 -27 -134 -88 -108 -142
-321 -328 -450 -395 -333 -173 -649 -113 -828 158 -48 73 -91 170 -74 170 6 0
53 -7 102 -16 113 -21 326 -23 427 -5 85 15 203 68 203 91 0 11 -16 17 -55 23
-115 17 -310 58 -365 77 -31 11 -122 33 -203 49 -147 30 -209 48 -547 155
-352 112 -536 147 -770 147 l-150 0 -1 167 c0 225 -35 413 -126 692 -53 163
-82 220 -162 324 -80 102 -101 119 -169 142 -279 92 -429 250 -466 494 -23
143 23 331 119 485 77 125 76 121 84 276 3 79 9 161 13 181 l6 38 -78 -36
c-82 -38 -183 -64 -252 -64 -141 0 -279 73 -362 193 -40 58 -57 102 -76 198
-9 45 -22 93 -28 107 -24 52 -113 69 -162 30z"/>
<path d="M16800 8422 c-20 -20 -30 -43 -35 -78 -29 -207 -103 -323 -258 -399
-195 -96 -411 -37 -679 188 -207 172 -230 183 -279 131 -20 -21 -24 -36 -24
-87 0 -86 20 -114 160 -232 225 -187 358 -337 438 -493 163 -315 112 -621
-136 -808 -54 -41 -176 -108 -183 -101 -2 2 6 57 16 122 36 218 24 404 -41
625 -50 168 -77 208 -147 217 -69 9 -132 -43 -132 -111 0 -13 13 -57 29 -98
59 -147 75 -229 75 -388 -1 -194 -16 -264 -167 -765 -128 -422 -150 -539 -151
-787 l0 -158 -146 0 c-233 0 -409 -35 -795 -156 -447 -140 -562 -166 -750
-166 -209 0 -391 53 -560 163 -100 66 -137 73 -193 39 -18 -11 -40 -37 -48
-57 -14 -33 -14 -40 1 -72 43 -93 310 -232 551 -287 112 -26 348 -29 477 -7
l107 19 -6 -21 c-19 -63 -95 -185 -150 -241 -178 -179 -442 -210 -704 -80
-187 92 -345 231 -506 446 -262 349 -591 721 -650 736 -13 3 -48 -8 -90 -29
-38 -19 -97 -45 -131 -57 -72 -26 -71 -19 -22 -147 40 -102 66 -211 80 -328
15 -130 0 -263 -47 -405 -104 -313 -281 -507 -765 -837 -207 -141 -226 -155
-351 -255 -106 -85 -242 -216 -304 -293 l-41 -49 -34 39 c-163 191 -303 308
-689 576 -220 154 -309 225 -438 352 -181 178 -300 391 -337 601 -21 121 -19
280 4 391 20 92 19 105 -3 105 -16 0 -217 -132 -236 -155 -21 -25 -19 -268 3
-390 40 -221 135 -417 292 -602 135 -158 281 -282 585 -497 419 -296 535 -394
657 -554 89 -117 133 -159 176 -167 58 -11 95 16 192 142 138 178 266 289 640
551 424 298 581 441 727 662 81 125 124 215 157 337 52 187 63 344 36 528 -7
55 -12 101 -11 103 2 1 23 -21 47 -50 24 -29 52 -62 63 -73 30 -33 279 -345
339 -425 120 -162 173 -306 164 -450 -6 -106 -17 -141 -66 -218 -74 -114 -197
-188 -330 -198 -87 -7 -119 -20 -138 -57 -32 -62 -16 -129 38 -161 58 -35 224
-10 362 53 211 96 356 312 374 556 3 44 7 82 9 84 2 2 21 -8 42 -21 205 -136
501 -191 717 -133 94 25 233 99 315 168 123 103 237 287 279 452 11 43 23 81
28 85 27 26 490 162 668 196 123 24 338 24 473 0 99 -17 103 -17 134 1 18 10
41 33 51 51 18 31 18 36 1 159 -12 95 -15 163 -11 263 10 220 36 336 183 811
l15 46 87 26 c317 95 545 313 618 592 14 52 19 106 19 210 0 121 -4 153 -27
235 -27 97 -76 212 -122 286 l-25 41 92 6 c172 10 309 70 428 187 118 116 197
291 200 445 2 110 -28 145 -122 145 -31 0 -47 -7 -69 -28z"/>
<path d="M9204 5623 c-56 -63 -59 -69 -57 -116 0 -27 9 -79 18 -116 l18 -67
-26 -65 c-56 -142 -62 -174 -62 -344 0 -146 3 -168 28 -253 35 -117 91 -223
175 -332 91 -116 142 -164 322 -298 326 -243 382 -287 464 -358 90 -79 118
-94 171 -94 36 0 52 11 170 120 57 52 251 199 421 320 302 214 452 410 520
677 42 167 28 380 -36 543 -12 30 -24 58 -28 61 -4 4 -72 -4 -152 -17 -80 -12
-151 -23 -158 -23 -7 -1 -34 -24 -60 -53 -98 -108 -685 -689 -693 -686 -15 5
-615 605 -689 689 -112 127 -164 235 -186 392 -8 56 -35 87 -75 87 -20 0 -40
-16 -85 -67z m1953 -677 c12 -193 -60 -379 -209 -536 -66 -71 -263 -227 -408
-325 -28 -19 -107 -80 -176 -135 l-125 -102 -29 24 c-78 63 -312 243 -424 327
-305 225 -423 388 -456 630 -11 83 -5 207 11 232 7 11 113 -90 423 -403 452
-456 446 -451 522 -415 19 9 217 201 441 427 460 462 419 436 430 276z"/>
<path d="M8245 4304 c-40 -20 -73 -57 -91 -99 -45 -109 31 -233 151 -243 69
-6 117 11 154 53 106 121 24 305 -136 305 -26 0 -61 -7 -78 -16z"/>
<path d="M12075 4304 c-76 -39 -111 -102 -102 -180 14 -124 138 -195 256 -148
77 30 124 130 101 214 -13 47 -61 103 -104 119 -40 16 -116 13 -151 -5z"/>
</g>
</svg>
