<?xml version="1.0" standalone="no"?>
<!DOCTYPE svg PUBLIC "-//W3C//DTD SVG 20010904//EN"
 "http://www.w3.org/TR/2001/REC-SVG-20010904/DTD/svg10.dtd">
<svg version="1.0" xmlns="http://www.w3.org/2000/svg"
 width="2048.000000pt" height="2048.000000pt" viewBox="0 0 2048.000000 2048.000000"
 preserveAspectRatio="xMidYMid meet">
<metadata>
Created by potrace 1.16, written by Peter Selinger 2001-2019
</metadata>
<g transform="translate(0.000000,2048.000000) scale(0.100000,-0.100000)"
fill="#18bcf2" stroke="none">
<path d="M10471 17059 c-154 -18 -318 -72 -504 -166 -137 -70 -244 -151 -356
-269 -149 -157 -247 -324 -320 -539 -78 -235 -76 -191 -76 -1430 l0 -1100 35
-70 c40 -79 79 -115 166 -150 l59 -25 610 3 c597 2 611 2 656 23 96 45 159
127 179 232 7 39 9 569 8 1662 l-3 1605 -28 54 c-40 75 -81 117 -146 148 -63
29 -151 36 -280 22z"/>
<path d="M15560 15597 c-3 -2 -77 -8 -165 -11 -88 -4 -171 -9 -185 -11 -14 -2
-90 -7 -170 -11 -80 -3 -161 -7 -180 -9 -38 -3 -203 -12 -345 -20 -49 -3 -119
-8 -155 -10 -36 -3 -155 -9 -265 -15 -110 -6 -234 -12 -275 -15 -41 -3 -127
-7 -190 -10 -63 -3 -144 -8 -180 -10 -36 -2 -117 -7 -180 -10 -125 -6 -238
-13 -340 -20 -36 -3 -110 -7 -165 -10 -87 -5 -398 -22 -705 -40 -52 -3 -120
-8 -150 -10 -30 -2 -113 -7 -185 -10 -71 -4 -150 -8 -175 -10 -25 -2 -98 -7
-162 -11 l-118 -6 0 -479 0 -479 33 0 c28 0 133 -6 452 -25 50 -3 252 -14 450
-25 198 -11 403 -22 455 -25 52 -3 132 -8 178 -10 45 -3 119 -7 165 -10 45 -3
168 -9 272 -15 267 -14 378 -20 470 -25 44 -3 118 -8 165 -10 47 -3 117 -8
155 -10 132 -9 550 -35 650 -40 179 -9 409 -23 520 -30 33 -2 157 -9 275 -15
250 -14 307 -6 444 57 104 48 160 88 235 170 80 86 121 156 162 273 30 88 33
105 33 220 0 103 -4 138 -23 200 -76 246 -259 430 -501 505 -52 15 -289 33
-300 22z"/>
<path d="M8150 15380 c-100 -13 -194 -80 -230 -164 -10 -23 -28 -108 -40 -191
-12 -82 -28 -180 -36 -218 -17 -75 -16 -74 -139 -122 -38 -15 -112 -47 -163
-71 -118 -55 -150 -61 -193 -39 -18 10 -101 66 -184 126 -83 59 -176 117 -206
129 -93 38 -205 16 -294 -57 -16 -14 -100 -93 -185 -176 -289 -283 -320 -327
-320 -445 0 -93 30 -151 165 -317 59 -71 115 -146 125 -166 23 -44 21 -53 -47
-204 -27 -60 -57 -133 -67 -161 -9 -29 -25 -59 -34 -67 -11 -10 -99 -28 -241
-51 -123 -20 -238 -43 -255 -50 -64 -28 -113 -74 -142 -133 l-29 -58 -3 -328
c-4 -308 -2 -332 17 -396 37 -123 116 -177 301 -206 199 -31 325 -57 347 -71
12 -7 25 -24 28 -36 17 -55 59 -138 70 -138 7 0 37 11 66 23 137 60 157 62
626 62 417 0 431 1 415 18 -48 54 -143 242 -186 369 -83 248 -79 546 9 777 30
79 112 226 174 311 151 207 417 378 691 445 155 38 435 29 602 -19 65 -19 78
-21 83 -8 7 19 6 1551 -2 1580 -3 12 -20 30 -37 40 -27 15 -68 17 -331 18
-165 1 -325 -2 -355 -6z"/>
<path d="M10428 13012 c-17 -3 -18 -50 -18 -822 l0 -819 58 -10 c169 -32 303
-88 470 -194 l63 -40 579 579 c319 318 580 582 580 587 0 11 -89 95 -138 129
-51 35 -139 54 -206 44 -50 -8 -101 -40 -333 -210 -59 -43 -120 -83 -135 -88
-23 -8 -45 -2 -135 39 -60 28 -148 65 -198 83 -49 18 -99 43 -111 55 -16 17
-25 54 -43 171 -46 306 -59 350 -122 412 -55 54 -123 80 -214 84 -44 2 -88 2
-97 0z"/>
<path d="M9815 12986 c-63 -30 -120 -88 -139 -144 -9 -24 -27 -126 -41 -226
-38 -273 -35 -266 -153 -316 -42 -18 -126 -55 -187 -82 -144 -65 -149 -64
-302 43 -288 203 -313 215 -405 207 -99 -10 -146 -45 -405 -301 -277 -274
-293 -297 -293 -411 0 -90 20 -134 131 -286 127 -176 169 -240 169 -260 0 -10
-19 -63 -41 -117 -23 -54 -57 -138 -76 -188 -19 -49 -41 -96 -48 -104 -16 -17
-127 -38 -375 -72 -179 -24 -257 -82 -301 -224 -14 -42 -12 -671 1 -732 15
-67 70 -147 122 -176 56 -32 98 -42 313 -72 99 -15 196 -34 215 -43 31 -16 38
-28 86 -152 28 -74 63 -161 77 -193 15 -32 27 -64 27 -73 0 -22 -38 -94 -74
-139 -88 -110 -187 -256 -205 -303 -36 -91 -26 -176 31 -260 76 -111 482 -501
557 -535 52 -23 149 -27 204 -8 20 7 106 62 190 123 196 143 235 168 266 168
14 0 77 -24 141 -54 63 -30 153 -71 199 -92 60 -28 86 -45 93 -63 5 -14 24
-123 42 -243 38 -245 52 -281 132 -342 66 -51 146 -70 272 -67 l32 1 0 824 c0
777 -1 825 -17 829 -10 3 -36 8 -58 12 -63 11 -190 53 -273 92 -286 132 -530
385 -643 665 -37 91 -68 228 -81 350 -30 294 61 615 243 857 111 148 280 291
439 371 81 41 238 94 310 105 25 3 53 9 63 11 16 5 17 53 17 825 l0 819 -102
0 c-87 0 -111 -4 -153 -24z"/>
<path d="M12588 12979 c-160 -13 -253 -113 -274 -295 l-6 -51 208 -209 c272
-272 298 -303 357 -420 80 -158 75 -380 -13 -554 -39 -78 -35 -93 24 -85 53 8
227 -10 316 -32 171 -42 348 -135 505 -265 213 -176 364 -436 421 -723 25
-121 25 -339 1 -453 -37 -174 -141 -390 -258 -537 -160 -201 -409 -365 -662
-434 -94 -26 -120 -30 -255 -38 -76 -4 -111 -10 -108 -17 32 -71 67 -173 77
-224 16 -82 6 -228 -20 -312 -40 -127 -79 -176 -355 -452 l-259 -258 12 -72
c16 -99 62 -191 114 -229 87 -64 83 -63 435 -67 367 -4 435 3 506 49 66 44
119 121 131 190 9 55 17 103 21 124 2 11 11 74 19 140 22 170 22 171 124 217
47 22 133 62 191 89 64 30 120 49 141 49 38 0 52 -9 259 -164 133 -100 184
-127 251 -134 138 -13 192 22 480 308 255 253 274 282 273 400 -1 106 -8 119
-208 389 -43 58 -82 116 -87 129 -11 28 -4 59 28 132 36 79 81 186 104 248 14
36 29 56 44 62 13 5 115 23 227 40 111 18 227 41 257 52 72 27 132 88 160 162
21 55 21 70 18 409 -3 402 -6 417 -84 493 -54 53 -102 70 -273 95 -197 29
-293 49 -312 66 -10 9 -26 39 -37 67 -10 28 -45 109 -76 180 -45 102 -56 136
-52 163 4 22 43 83 116 179 116 154 171 248 175 305 1 18 -2 56 -7 83 -18 100
-48 139 -286 378 -195 196 -235 231 -291 257 -80 38 -161 42 -242 11 -29 -11
-125 -72 -212 -136 -88 -64 -170 -120 -183 -125 -45 -17 -77 -9 -193 45 -63
30 -150 69 -193 87 -53 21 -81 38 -86 53 -5 11 -23 107 -40 212 -17 105 -38
212 -47 237 -23 68 -82 129 -156 162 l-63 28 -290 1 c-159 1 -325 -2 -367 -5z"/>
<path d="M11839 11493 c-305 -307 -565 -571 -577 -586 l-21 -28 44 -68 c85
-131 141 -263 179 -419 l21 -87 825 0 825 0 0 85 c0 157 -51 254 -158 300 -28
13 -104 31 -167 41 -241 40 -350 61 -359 73 -5 6 -27 61 -49 121 -22 61 -56
144 -76 185 -20 41 -36 86 -36 100 0 16 21 55 50 96 28 38 58 80 67 94 10 14
33 45 53 70 108 137 125 176 124 280 0 68 -5 94 -24 130 -24 47 -136 170 -154
170 -6 0 -261 -251 -567 -557z"/>
<path d="M6675 11506 c-75 -18 -144 -55 -191 -101 -64 -65 -87 -140 -144 -469
-27 -158 -56 -298 -63 -310 -16 -24 -45 -38 -192 -92 -55 -20 -153 -63 -218
-95 -88 -44 -128 -59 -160 -59 -47 0 -26 -12 -334 198 -261 178 -273 184 -397
183 -60 0 -81 -5 -141 -35 -63 -31 -101 -66 -381 -348 -360 -363 -367 -371
-373 -521 -3 -85 -2 -92 33 -160 19 -40 85 -137 146 -217 203 -267 232 -309
237 -348 4 -30 -7 -63 -56 -171 -34 -73 -77 -179 -97 -234 -19 -56 -44 -112
-55 -124 -21 -22 -92 -42 -219 -62 -160 -26 -258 -41 -300 -46 -75 -9 -103
-17 -155 -40 -94 -42 -173 -149 -195 -264 -14 -74 -13 -820 1 -897 14 -76 61
-164 112 -210 66 -60 125 -80 317 -108 243 -36 397 -65 434 -80 28 -12 37 -26
71 -112 21 -55 69 -157 105 -229 92 -179 96 -193 70 -247 -11 -23 -38 -65 -61
-93 -22 -27 -63 -84 -91 -125 -28 -41 -77 -109 -108 -150 -75 -100 -84 -116
-104 -177 -36 -110 -12 -242 60 -330 64 -78 565 -572 629 -619 65 -49 138 -74
216 -74 118 0 144 15 497 273 210 154 204 152 361 77 113 -55 266 -121 321
-139 19 -6 47 -22 61 -35 29 -27 36 -57 64 -262 26 -193 63 -381 83 -428 47
-104 163 -189 282 -206 91 -13 560 -13 560 0 0 6 -28 65 -61 133 -169 336
-239 621 -239 974 0 323 74 640 216 925 24 48 44 90 44 93 0 3 -30 3 -67 1
-66 -4 -256 7 -338 19 -71 11 -220 54 -308 89 -341 138 -593 347 -800 666
-270 417 -320 990 -127 1470 35 87 118 245 152 287 17 21 48 64 70 96 61 90
212 234 338 324 263 187 562 296 853 310 l117 6 -21 31 c-38 58 -97 191 -114
261 -15 59 -18 124 -18 415 -1 242 2 366 11 416 32 176 152 355 293 437 52 31
176 73 239 82 139 19 232 34 235 37 1 2 10 18 20 37 l17 34 -66 96 c-119 173
-166 236 -183 249 -24 17 -816 16 -888 -2z"/>
<path d="M11486 9961 c-4 -5 -18 -54 -31 -108 -14 -54 -39 -134 -56 -178 -138
-364 -494 -667 -890 -757 l-99 -22 0 -824 0 -825 108 5 c114 5 156 19 220 73
38 32 79 114 87 175 3 25 10 72 15 105 5 33 12 78 15 100 29 196 37 215 111
250 191 91 323 148 351 152 37 6 69 -14 290 -179 143 -107 194 -128 286 -121
100 8 143 41 453 349 216 214 238 248 239 364 0 92 -23 145 -122 276 -130 172
-173 236 -173 259 0 12 18 61 40 109 22 47 56 134 76 192 25 71 44 110 59 120
23 15 118 34 267 54 201 27 250 43 316 104 61 56 85 118 90 233 l5 103 -826 0
c-496 0 -828 -3 -831 -9z"/>
<path d="M8910 6822 c-250 -18 -539 -106 -730 -223 -149 -92 -229 -155 -360
-288 -186 -188 -314 -394 -396 -635 -22 -64 -70 -284 -76 -351 l-3 -30 345 0
345 0 28 105 c63 237 209 441 410 577 136 92 307 153 452 162 l100 6 -1 45
c-1 25 -2 179 -3 343 l-1 298 -37 -3 c-21 -2 -54 -4 -73 -6z"/>
<path d="M9370 6487 l0 -342 648 1 647 2 0 338 0 339 -647 2 -648 2 0 -342z"/>
<path d="M11010 6486 l0 -341 638 0 637 0 3 334 c2 253 -1 336 -10 342 -6 4
-295 7 -640 7 l-628 0 0 -342z"/>
<path d="M12635 6822 c-3 -3 -5 -155 -5 -338 0 -308 1 -332 18 -336 9 -2 550
-4 1202 -3 l1185 0 0 339 0 340 -1198 1 c-658 1 -1199 -1 -1202 -3z"/>
<path d="M15389 6803 c-6 -249 -3 -653 5 -656 6 -2 42 -5 80 -6 171 -6 390
-98 556 -234 143 -117 276 -329 323 -517 l24 -95 342 -3 341 -2 0 24 c0 13 -9
75 -20 138 -87 507 -431 960 -910 1199 -215 107 -405 157 -652 174 l-88 5 -1
-27z"/>
<path d="M8905 5875 c-226 -42 -443 -202 -543 -400 -51 -103 -73 -189 -79
-316 -7 -147 17 -261 83 -390 117 -226 327 -374 585 -409 174 -24 374 18 513
109 50 32 50 31 131 111 102 100 163 207 202 351 26 98 23 291 -5 392 -110
388 -492 625 -887 552z"/>
<path d="M15250 5883 c-54 -6 -169 -42 -225 -71 -198 -99 -339 -267 -407 -482
-20 -64 -23 -95 -23 -215 1 -131 3 -146 32 -228 41 -118 113 -233 192 -312 85
-83 104 -97 187 -139 201 -101 437 -110 652 -26 213 84 385 283 449 520 27 99
24 292 -5 393 -109 379 -453 605 -852 560z"/>
<path d="M7354 4888 c10 -83 48 -243 84 -348 108 -318 342 -625 624 -820 184
-127 409 -229 583 -264 128 -25 347 -48 371 -39 12 4 14 61 14 339 0 184 -1
334 -2 335 -2 0 -34 2 -73 5 -122 8 -246 41 -351 95 -273 138 -479 390 -546
667 l-23 92 -344 0 -344 0 7 -62z"/>
<path d="M16377 4943 c-4 -3 -7 -16 -7 -29 0 -12 -14 -64 -30 -115 -83 -253
-287 -487 -535 -612 -81 -40 -209 -76 -313 -88 -53 -6 -99 -13 -101 -15 -4 -4
-5 -104 -2 -491 l1 -173 83 0 c75 1 236 20 297 36 447 116 791 364 1045 754
51 78 136 258 174 370 27 77 58 221 67 308 l7 62 -340 0 c-187 0 -343 -3 -346
-7z"/>
<path d="M9370 4080 c0 -5 0 -145 0 -310 0 -165 0 -313 0 -328 l0 -28 641 1
c633 0 642 0 648 20 5 15 7 610 2 648 -2 11 -1291 9 -1291 -3z"/>
<path d="M11009 4073 c-2 -55 3 -648 6 -653 3 -4 1102 -5 1243 -1 l32 1 0 335
0 335 -640 0 c-603 0 -640 -1 -641 -17z"/>
<path d="M12632 3753 l3 -338 1200 0 1200 0 3 338 2 337 -1205 0 -1205 0 2
-337z"/>
</g>
</svg>
