<?xml version="1.0" standalone="no"?>
<!DOCTYPE svg PUBLIC "-//W3C//DTD SVG 20010904//EN"
 "http://www.w3.org/TR/2001/REC-SVG-20010904/DTD/svg10.dtd">
<svg version="1.0" xmlns="http://www.w3.org/2000/svg"
 width="2048.000000pt" height="2048.000000pt" viewBox="0 0 2048.000000 2048.000000"
 preserveAspectRatio="xMidYMid meet">
<metadata>
Created by potrace 1.16, written by Peter Selinger 2001-2019
</metadata>
<g transform="translate(0.000000,2048.000000) scale(0.100000,-0.100000)"
fill="#18bcf2" stroke="none">
<path d="M8665 16379 c-92 -9 -191 -38 -283 -80 -219 -101 -368 -265 -443
-489 -27 -81 -32 -114 -36 -225 -6 -154 9 -254 57 -369 137 -329 452 -528 863
-544 162 -6 325 10 607 60 640 113 613 109 826 115 159 4 223 2 307 -11 473
-75 868 -390 1011 -807 43 -128 59 -245 53 -409 -6 -176 -34 -298 -103 -440
-90 -188 -172 -288 -456 -558 -244 -233 -347 -344 -423 -457 -110 -164 -164
-309 -184 -488 -21 -184 -14 -222 48 -281 42 -40 129 -48 179 -17 55 35 68 69
75 189 8 137 28 217 78 317 70 141 164 247 522 589 261 249 356 372 444 569
113 255 151 437 140 672 -33 709 -557 1287 -1295 1427 -98 19 -152 23 -332 23
-251 0 -339 -11 -750 -90 -368 -72 -486 -87 -665 -88 -167 0 -273 17 -361 57
-211 97 -334 279 -334 496 0 148 52 270 159 373 98 94 186 134 341 153 65 8
124 35 145 68 44 67 37 142 -18 203 -38 41 -82 52 -172 42z"/>
<path d="M11575 16375 c-53 -19 -74 -47 -114 -156 -42 -113 -94 -192 -174
-264 -175 -158 -370 -181 -802 -92 -284 59 -390 71 -534 64 -191 -10 -341 -47
-486 -119 -169 -84 -305 -220 -305 -305 0 -46 41 -114 80 -135 45 -24 116 -23
155 1 17 10 58 43 93 74 162 141 400 200 667 164 61 -9 205 -37 320 -63 208
-47 212 -48 385 -48 184 0 238 9 382 64 128 48 302 188 395 318 87 122 151
296 139 375 -16 97 -110 155 -201 122z"/>
<path d="M13383 15980 c-95 -21 -186 -46 -202 -56 -44 -26 -71 -84 -88 -187
-20 -127 -26 -137 -102 -167 -35 -14 -75 -39 -88 -55 -24 -27 -25 -34 -20
-105 7 -86 38 -197 66 -232 14 -17 39 -27 92 -38 66 -13 76 -19 94 -48 40 -68
82 -107 133 -125 48 -17 51 -20 57 -60 11 -74 22 -222 18 -233 -2 -6 -48 -20
-103 -30 l-98 -19 -40 37 c-73 68 -185 61 -246 -15 -27 -34 -31 -48 -34 -113
-8 -149 67 -254 180 -254 76 0 150 59 165 131 5 24 12 28 101 46 54 12 98 20
99 19 1 -1 9 -71 17 -156 9 -85 19 -171 22 -191 l5 -36 -85 -18 -85 -18 -27
33 c-73 86 -207 76 -271 -21 -25 -38 -28 -51 -28 -123 0 -101 26 -155 99 -203
59 -40 114 -44 166 -12 42 26 55 42 79 95 17 37 24 41 72 52 30 7 63 15 75 18
20 5 22 0 33 -87 7 -50 16 -99 21 -108 18 -34 57 -60 113 -74 33 -9 61 -17 63
-19 9 -10 160 -811 253 -1343 22 -126 59 -327 81 -445 23 -118 59 -314 82
-435 l41 -220 -17 -65 c-23 -91 -95 -234 -168 -330 -34 -45 -136 -153 -227
-240 -266 -253 -274 -261 -348 -345 -183 -209 -292 -396 -377 -646 -69 -204
-80 -275 -81 -544 0 -182 4 -267 18 -351 23 -150 122 -535 151 -592 48 -95 98
-122 227 -122 173 0 293 -42 382 -132 131 -134 189 -309 203 -608 15 -328 -45
-553 -187 -705 -75 -79 -165 -127 -289 -150 -104 -20 -155 -51 -180 -108 -58
-131 -105 -730 -81 -1017 22 -251 61 -467 86 -477 49 -18 495 282 817 549 892
742 1590 1798 1945 2943 135 438 214 829 269 1330 37 341 19 978 -30 1074 -19
36 -129 106 -242 155 -45 19 -176 66 -290 104 -237 80 -402 147 -488 198 -56
33 -58 34 -53 12 4 -22 50 -196 182 -693 35 -132 94 -357 130 -500 37 -143
112 -431 167 -640 141 -536 148 -564 148 -597 0 -105 -161 -149 -210 -57 -6
11 -51 176 -100 367 -49 191 -125 487 -170 657 -44 171 -118 456 -165 635 -46
179 -111 426 -144 550 -33 124 -102 392 -155 595 -52 204 -129 501 -171 660
-42 160 -121 463 -176 675 -55 212 -125 475 -154 585 -29 110 -65 249 -79 309
-25 104 -26 110 -9 120 10 5 35 26 55 46 57 57 59 90 10 232 -28 82 -37 120
-29 123 7 2 38 9 71 15 58 12 58 12 90 -18 127 -123 314 -18 292 165 -11 95
-52 165 -118 199 -34 18 -99 18 -141 0 -40 -16 -86 -69 -94 -107 -7 -36 -17
-43 -75 -58 -89 -21 -94 -19 -119 57 -12 37 -39 115 -60 173 l-37 107 66 17
c111 29 119 29 131 7 15 -27 89 -62 134 -62 166 0 237 213 121 366 -88 114
-257 84 -297 -53 l-14 -46 -89 -18 c-49 -10 -96 -19 -105 -19 -12 0 -26 30
-52 105 l-36 105 39 25 c57 36 70 60 70 130 0 69 6 80 72 124 57 38 72 76 59
147 -17 87 -44 188 -57 216 -18 35 -72 52 -135 44 -76 -10 -107 10 -159 100
-85 148 -143 161 -437 94z m1322 -8434 c19 -8 51 -27 70 -41 37 -29 85 -115
85 -153 0 -36 -30 -80 -66 -97 -63 -29 -104 -15 -153 53 -47 65 -90 55 -125
-29 -35 -84 -30 -210 20 -514 34 -205 41 -385 21 -494 -32 -166 -108 -274
-233 -333 -60 -28 -72 -30 -149 -26 -78 4 -89 7 -139 42 -57 39 -98 89 -117
143 -25 72 36 153 116 153 45 0 42 2 120 -87 31 -35 44 -43 72 -43 46 0 84 41
108 116 24 78 16 301 -20 509 -69 406 -52 572 73 707 72 78 134 108 220 108
34 0 78 -7 97 -14z"/>
<path d="M6319 15067 c-19 -12 -45 -43 -57 -69 -22 -43 -23 -52 -13 -99 30
-137 187 -394 329 -537 293 -296 701 -464 1217 -503 343 -26 684 14 1590 185
340 64 522 86 712 86 220 -1 342 -24 483 -92 239 -115 348 -354 269 -587 -36
-102 -125 -191 -237 -234 -60 -24 -177 -22 -245 3 -112 42 -172 123 -206 277
-28 131 -58 168 -143 179 -58 7 -126 -27 -150 -76 -24 -47 -23 -137 1 -233 59
-227 204 -383 426 -458 60 -21 89 -24 200 -23 113 0 141 4 210 27 152 50 321
190 392 324 144 270 108 606 -91 860 -126 161 -293 256 -556 315 -95 21 -129
23 -350 23 -203 0 -271 -4 -395 -23 -218 -33 -429 -69 -600 -102 -558 -109
-777 -135 -1120 -135 -237 0 -284 3 -387 23 -246 47 -458 127 -622 236 -159
106 -333 318 -406 493 -39 94 -62 129 -100 148 -43 22 -111 19 -151 -8z"/>
<path d="M6274 13350 c-163 -14 -334 -75 -484 -175 -100 -66 -261 -224 -348
-340 -130 -174 -268 -303 -387 -362 -22 -11 -105 -35 -185 -53 -80 -18 -163
-42 -185 -53 -21 -11 -78 -61 -125 -111 -47 -50 -139 -147 -206 -216 -123
-128 -142 -159 -123 -206 4 -13 20 -31 34 -40 30 -20 68 -14 280 41 72 18 202
50 290 70 172 40 277 77 365 129 30 18 94 55 143 82 140 78 256 170 428 338
177 173 248 226 348 257 80 25 203 26 278 4 117 -35 279 -237 336 -420 9 -27
41 -149 72 -270 31 -121 103 -389 160 -595 115 -416 192 -700 259 -955 24 -93
83 -314 131 -490 47 -176 106 -396 131 -490 25 -93 56 -210 70 -260 100 -372
139 -518 190 -710 31 -121 104 -395 161 -610 58 -214 138 -523 179 -685 42
-162 95 -367 119 -455 52 -190 59 -214 135 -505 164 -630 269 -1000 321 -1132
195 -496 680 -904 1197 -1007 239 -48 457 -48 686 -1 539 111 1028 531 1205
1034 73 208 101 367 101 579 -1 264 -28 400 -191 927 -178 577 -238 857 -258
1205 -24 417 61 762 237 955 96 107 195 139 322 105 84 -22 129 -19 178 12 47
30 82 91 82 139 -1 38 -31 103 -61 130 -23 21 -167 105 -874 511 -516 297
-1078 622 -1145 663 -126 76 -385 217 -417 228 -111 37 -223 -49 -224 -172 -1
-66 13 -92 82 -154 117 -104 134 -229 75 -531 -95 -483 -107 -874 -41 -1332
48 -331 146 -729 251 -1024 44 -124 123 -346 184 -520 15 -44 62 -172 105
-285 42 -113 90 -243 107 -290 16 -47 54 -154 84 -238 72 -203 72 -273 1 -378
-63 -94 -192 -142 -299 -110 -68 20 -132 67 -163 121 -30 50 -425 1130 -680
1855 -18 52 -65 184 -104 293 -39 109 -71 207 -71 217 0 10 15 28 34 39 54 34
102 93 126 157 32 85 26 198 -15 273 -34 62 -91 115 -155 143 -36 16 -62 19
-132 16 l-86 -3 -36 97 c-56 149 -56 148 -2 186 193 139 172 443 -38 555 -34
18 -58 22 -138 22 l-97 0 -46 125 -46 125 23 14 c53 34 116 110 137 165 25 68
28 160 6 233 -20 68 -89 144 -161 178 -49 23 -66 26 -139 23 l-83 -3 -48 124
-48 124 30 21 c103 75 144 145 152 261 9 140 -56 258 -176 317 -40 19 -61 23
-139 21 l-91 -1 -45 121 c-107 287 -192 520 -292 797 -158 442 -189 512 -293
670 -165 251 -477 454 -730 475 -37 3 -83 7 -102 9 -19 1 -76 0 -126 -4z"/>
<path d="M9119 12912 l-22 -19 22 -179 c37 -302 91 -746 91 -754 0 -4 -27 -10
-59 -14 -120 -14 -268 -120 -306 -220 -25 -65 -17 -143 19 -190 100 -132 336
-102 487 62 49 54 69 100 69 161 0 32 -107 872 -135 1058 -7 51 -16 97 -20
103 -11 18 -120 12 -146 -8z"/>
<path d="M12823 12765 l-33 -14 0 -464 0 -464 -78 -6 c-185 -14 -323 -108
-351 -239 -23 -106 32 -185 152 -218 152 -41 366 52 428 185 17 37 19 72 19
437 l0 397 48 -20 c70 -29 142 -87 175 -141 26 -41 30 -61 36 -147 l6 -100 25
12 c40 20 82 109 88 187 9 132 -32 212 -188 368 -53 53 -119 124 -145 157 -26
33 -54 66 -63 73 -21 16 -79 15 -119 -3z"/>
<path d="M11449 11861 l-23 -18 0 -460 -1 -461 -75 -5 c-145 -9 -282 -84 -332
-181 -63 -124 13 -267 153 -285 130 -16 266 28 353 114 75 75 76 83 76 526 l0
388 28 -8 c77 -23 178 -105 214 -175 16 -32 19 -54 16 -127 -3 -94 1 -101 42
-79 29 15 69 90 80 147 12 68 -3 163 -38 228 -15 27 -81 106 -147 175 -67 69
-140 151 -163 183 l-43 57 -58 0 c-42 0 -65 -5 -82 -19z"/>
<path d="M5745 11269 c-60 -28 -202 -90 -315 -138 -172 -75 -387 -168 -960
-416 -170 -73 -209 -102 -225 -167 -9 -36 18 -89 56 -112 18 -10 65 -21 117
-26 211 -20 431 -144 653 -369 112 -113 300 -363 401 -531 83 -140 83 -136 -4
-149 -96 -15 -191 -46 -253 -81 -204 -117 -330 -316 -342 -540 -7 -133 20
-238 122 -465 107 -238 189 -434 184 -439 -2 -2 -55 -25 -117 -51 -144 -62
-176 -93 -170 -169 6 -63 44 -143 81 -170 43 -32 97 -25 217 28 57 26 110 45
118 44 17 -4 107 -208 95 -217 -4 -4 -46 -24 -93 -46 -47 -21 -100 -45 -119
-53 -72 -33 -91 -121 -45 -217 52 -111 97 -119 269 -45 64 28 120 50 125 50 6
0 85 -183 92 -215 3 -11 -30 -29 -142 -76 -85 -35 -117 -60 -136 -106 -20 -47
-18 -66 18 -140 58 -119 106 -127 276 -49 56 25 108 46 115 46 9 0 27 -31 45
-72 211 -509 229 -547 298 -644 88 -124 229 -221 379 -259 75 -19 202 -19 283
0 139 33 297 130 368 226 20 28 40 47 44 42 23 -25 204 -464 208 -504 2 -26
-3 -75 -12 -111 -15 -59 -15 -68 0 -111 21 -63 63 -97 117 -97 63 1 332 119
375 165 62 68 32 158 -78 229 -79 51 -103 82 -152 191 -59 132 -310 715 -460
1070 -44 105 -107 252 -139 328 -33 76 -59 141 -59 146 0 8 72 42 193 91 l57
24 29 -34 c24 -29 35 -35 69 -35 48 0 92 29 105 69 11 33 -7 94 -68 223 -50
107 -75 128 -138 120 -57 -8 -77 -35 -77 -102 l0 -53 -121 -51 c-67 -28 -125
-51 -130 -51 -5 0 -17 17 -28 38 -27 54 -121 278 -121 289 0 11 9 16 153 79
l99 44 33 -35 c18 -19 42 -35 54 -35 67 0 130 63 116 118 -16 63 -101 250
-126 275 -33 33 -80 36 -126 7 -44 -27 -53 -67 -28 -133 5 -10 -27 -27 -121
-66 -69 -29 -131 -50 -138 -48 -11 4 -146 314 -146 335 0 10 190 95 241 107
22 5 30 1 48 -24 19 -26 29 -31 64 -31 29 0 51 7 72 24 46 37 41 93 -20 231
-27 61 -59 120 -72 133 -32 32 -92 30 -132 -4 -27 -23 -31 -32 -31 -77 l0 -52
-113 -48 c-61 -27 -119 -51 -127 -53 -12 -4 -36 42 -102 193 -168 383 -315
787 -398 1087 -160 581 -191 979 -99 1266 25 77 56 133 121 219 40 53 48 71
48 107 0 59 -14 90 -49 109 -52 26 -107 18 -226 -36z m-120 -2245 c138 -35
190 -93 290 -324 37 -85 96 -220 131 -298 64 -143 73 -172 54 -172 -8 0 -368
-155 -553 -239 l-68 -30 -9 22 c-5 12 -46 108 -91 212 -185 432 -174 399 -174
505 1 111 18 155 94 233 53 56 86 76 156 93 68 17 101 17 170 -2z m664 -1212
c26 -61 40 -107 35 -112 -5 -4 -119 -56 -254 -113 -135 -58 -271 -117 -303
-131 l-58 -26 -16 37 c-8 21 -28 67 -44 102 -35 77 -36 87 -6 102 62 34 574
248 587 246 8 -1 34 -47 59 -105z m229 -536 c24 -54 39 -102 35 -106 -20 -19
-607 -270 -613 -263 -10 11 -101 216 -97 219 8 9 412 183 532 230 90 35 93 34
143 -80z m311 -715 c67 -157 129 -309 137 -340 60 -205 -96 -416 -318 -429
-70 -4 -83 -2 -142 26 -129 61 -168 121 -324 502 -44 107 -87 212 -96 233
l-17 38 33 13 c18 8 76 33 128 56 231 103 466 198 472 192 3 -4 61 -135 127
-291z"/>
</g>
</svg>
