<?xml version="1.0" standalone="no"?>
<!DOCTYPE svg PUBLIC "-//W3C//DTD SVG 20010904//EN"
 "http://www.w3.org/TR/2001/REC-SVG-20010904/DTD/svg10.dtd">
<svg version="1.0" xmlns="http://www.w3.org/2000/svg"
 width="2048.000000pt" height="2048.000000pt" viewBox="0 0 2048.000000 2048.000000"
 preserveAspectRatio="xMidYMid meet">
<metadata>
Created by potrace 1.16, written by Peter Selinger 2001-2019
</metadata>
<g transform="translate(0.000000,2048.000000) scale(0.100000,-0.100000)"
fill="#18bcf2" stroke="none">
<path d="M10470 15737 c-36 -18 -62 -74 -55 -117 12 -74 88 -329 109 -366 24
-43 79 -70 120 -60 62 15 101 85 85 151 -23 94 -83 296 -100 334 -10 24 -27
50 -37 57 -22 17 -89 18 -122 1z"/>
<path d="M11500 15733 l-35 -18 -3 -456 -2 -456 -94 5 c-79 4 -102 1 -151 -17
-145 -55 -242 -163 -253 -286 -6 -72 13 -130 60 -181 142 -154 472 -86 581
121 l32 60 3 383 c3 430 -4 400 83 357 71 -36 124 -88 155 -151 25 -52 27 -61
21 -154 -5 -91 -4 -99 14 -103 54 -14 123 153 121 294 -1 144 -65 258 -209
376 -68 55 -109 97 -139 144 -24 36 -50 71 -58 78 -26 22 -88 24 -126 4z"/>
<path d="M13267 15479 c-24 -14 -47 -69 -113 -270 -61 -187 -65 -224 -29 -267
73 -87 185 -56 215 61 6 23 34 114 62 201 57 182 58 214 8 259 -24 21 -40 27
-78 27 -26 0 -55 -5 -65 -11z"/>
<path d="M9639 15443 c-30 -18 -59 -62 -59 -88 0 -40 39 -90 149 -192 315
-291 330 -303 388 -303 68 0 114 86 83 159 -14 34 -398 396 -454 428 -30 17
-76 15 -107 -4z"/>
<path d="M7849 15415 c-43 -23 -59 -80 -59 -209 0 -161 25 -212 111 -223 55
-8 101 17 124 66 14 31 16 63 13 180 l-3 143 -33 29 c-26 24 -41 29 -80 29
-26 -1 -59 -7 -73 -15z"/>
<path d="M4824 15345 c-63 -32 -95 -79 -97 -143 -2 -58 30 -116 130 -234 150
-177 281 -334 316 -377 21 -25 57 -68 81 -96 24 -27 70 -81 102 -120 32 -38
80 -92 106 -120 26 -27 53 -63 59 -80 22 -60 32 -74 121 -169 91 -98 109 -112
159 -126 36 -10 44 -2 144 146 99 147 226 276 364 368 56 38 104 73 107 78 14
22 -59 107 -238 274 -371 349 -383 358 -412 319 -18 -25 -68 -14 -136 31 -139
92 -459 226 -615 259 -101 21 -133 19 -191 -10z"/>
<path d="M14165 15161 c-11 -5 -29 -17 -40 -28 -11 -10 -72 -62 -135 -115 -63
-53 -129 -109 -146 -125 -17 -15 -72 -64 -122 -107 -100 -87 -117 -115 -109
-179 11 -82 90 -120 164 -79 38 20 504 422 533 459 50 64 1 167 -85 178 -22 2
-49 1 -60 -4z"/>
<path d="M7335 14862 c-84 -8 -131 -103 -90 -182 27 -51 58 -60 217 -60 158 0
175 5 204 62 31 61 15 127 -41 164 -19 12 -53 17 -137 18 -62 1 -131 0 -153
-2z"/>
<path d="M8256 14860 c-104 -13 -143 -120 -72 -198 l34 -37 162 0 162 0 28 32
c54 61 46 149 -17 190 -25 17 -206 24 -297 13z"/>
<path d="M12480 14613 c-39 -14 -40 -22 -40 -494 l0 -458 -31 11 c-17 6 -69 8
-117 6 -73 -3 -98 -9 -154 -37 -87 -43 -157 -117 -186 -194 -25 -66 -26 -77
-11 -149 22 -105 145 -188 278 -188 100 0 269 82 331 160 70 88 70 85 70 493
0 309 2 368 14 373 23 9 101 -31 150 -76 71 -65 89 -113 88 -230 -1 -78 2
-101 15 -111 13 -11 19 -9 43 18 72 80 102 279 61 397 -39 109 -72 150 -250
305 -34 29 -76 78 -93 107 -16 30 -38 59 -48 64 -20 10 -94 12 -120 3z"/>
<path d="M7865 14480 c-11 -4 -31 -20 -44 -34 -23 -25 -25 -35 -29 -166 -4
-134 -4 -141 19 -174 57 -83 165 -86 213 -6 22 39 23 287 1 330 -26 51 -102
74 -160 50z"/>
<path d="M9440 14441 c-74 -23 -152 -95 -281 -261 -105 -134 -150 -208 -212
-345 -107 -236 -131 -347 -131 -605 0 -211 13 -297 70 -444 50 -130 147 -312
211 -397 147 -194 205 -303 228 -423 7 -39 16 -174 19 -300 4 -126 8 -232 10
-235 2 -3 6 -31 10 -61 20 -180 79 -379 158 -535 69 -137 198 -316 289 -401
58 -53 200 -162 269 -205 121 -77 303 -147 523 -203 189 -49 253 -69 309 -97
55 -28 106 -77 130 -123 18 -35 20 -51 14 -120 -7 -103 -32 -174 -116 -342
-76 -150 -87 -194 -70 -268 22 -97 98 -175 194 -196 60 -13 153 8 202 45 87
67 281 354 359 533 66 151 88 243 89 377 1 138 -16 208 -86 365 -75 165 -235
295 -548 442 -233 109 -318 158 -381 220 -102 100 -146 218 -136 369 8 129 42
178 109 158 15 -4 74 -33 130 -64 56 -31 144 -72 196 -91 308 -115 649 -95
970 57 57 27 108 49 114 49 6 0 61 -20 122 -45 273 -109 418 -137 696 -134 96
1 205 3 242 3 65 1 69 0 105 -37 l38 -37 0 -88 c0 -77 -4 -94 -30 -145 -67
-133 -217 -257 -466 -388 -214 -112 -298 -170 -420 -296 -120 -123 -154 -179
-195 -324 -24 -83 -26 -102 -21 -213 11 -238 89 -403 278 -580 82 -77 196
-159 209 -151 4 2 10 28 14 56 16 116 91 375 149 513 23 54 24 61 10 93 -21
51 -9 84 50 142 65 64 155 111 315 166 268 91 411 152 562 239 85 49 136 91
241 196 113 113 165 185 233 322 85 173 112 280 156 622 23 173 45 259 90 348
39 77 58 102 169 226 177 198 274 336 358 507 123 253 167 416 180 676 7 143
-1 180 -50 236 -40 46 -99 73 -160 73 -55 0 -90 -16 -128 -57 -43 -45 -56 -81
-88 -235 -42 -204 -90 -320 -189 -465 -161 -233 -464 -462 -777 -585 -27 -11
-79 -33 -115 -50 -412 -192 -719 -279 -985 -280 -151 -1 -252 15 -397 64 -150
50 -282 62 -358 33 -219 -84 -227 -86 -355 -82 -102 4 -135 9 -215 36 -110 37
-240 105 -322 167 -31 24 -130 117 -220 207 -240 241 -359 319 -687 448 -287
114 -389 171 -521 295 -202 190 -271 411 -219 706 25 146 121 344 232 481 119
145 136 256 57 364 -51 69 -145 99 -230 74z"/>
<path d="M6496 14224 c-174 -104 -309 -248 -410 -439 -14 -27 -26 -59 -26 -70
0 -10 33 -69 74 -130 80 -119 141 -227 229 -406 67 -137 100 -224 178 -474 78
-248 117 -383 218 -765 58 -217 117 -441 146 -545 8 -27 34 -125 59 -217 25
-92 46 -171 46 -177 0 -17 -49 -37 -124 -52 -76 -15 -66 -19 -120 56 -43 62
-133 88 -204 60 -75 -30 -122 -105 -122 -196 0 -41 59 -263 88 -329 49 -112
155 -158 257 -111 76 34 98 77 107 201 3 34 4 35 83 62 110 36 112 36 125 -14
11 -43 70 -258 96 -353 8 -27 28 -102 45 -165 17 -63 37 -132 45 -152 7 -20
10 -39 6 -42 -4 -2 -49 -15 -100 -29 l-92 -26 -17 27 c-29 46 -67 83 -107 104
-102 52 -233 -21 -252 -141 -11 -67 41 -301 87 -392 38 -76 131 -128 207 -116
89 15 159 111 150 207 l-5 50 51 15 c153 42 152 42 160 13 14 -49 39 -138 68
-248 42 -161 94 -355 112 -419 10 -37 12 -59 5 -67 -5 -7 -41 -20 -79 -29 -68
-17 -120 -14 -120 5 0 20 -66 84 -105 101 -51 24 -89 23 -141 0 -39 -18 -84
-65 -97 -104 -25 -71 -18 -141 30 -292 64 -201 145 -277 265 -245 89 25 131
80 145 191 l8 64 87 30 c48 16 89 27 92 24 3 -3 26 -82 50 -175 114 -435 189
-716 236 -884 17 -63 47 -173 66 -245 18 -71 54 -206 79 -300 25 -93 49 -188
54 -210 29 -131 125 -470 151 -530 4 -11 23 -58 40 -105 69 -180 220 -450 352
-629 161 -218 389 -438 584 -561 230 -146 536 -264 779 -301 144 -22 181 -24
375 -23 171 0 224 4 320 23 197 39 393 101 545 172 172 79 489 287 705 462
157 126 308 215 486 286 172 68 246 82 439 85 199 3 238 13 315 83 84 75 120
168 120 311 0 105 -21 198 -77 336 -119 297 -330 589 -646 895 -375 363 -833
601 -1106 576 -150 -14 -251 -78 -307 -192 -28 -56 -29 -64 -31 -223 -3 -180
-16 -263 -64 -412 -106 -328 -324 -599 -571 -712 -240 -110 -477 -83 -728 83
-181 119 -396 422 -502 705 -47 127 -106 290 -153 426 -23 69 -52 150 -63 180
-11 30 -59 175 -107 322 -47 147 -89 269 -93 271 -4 3 -41 -7 -82 -21 -128
-42 -212 -30 -288 42 -101 95 -108 269 -14 357 50 47 76 62 150 84 41 12 62
23 62 33 0 35 -122 392 -134 392 -7 0 -40 -11 -74 -25 -71 -29 -108 -31 -178
-10 -164 49 -231 239 -135 384 36 55 84 86 161 108 34 9 64 23 67 30 5 13 -83
306 -113 378 l-14 34 -67 -26 c-157 -59 -293 -9 -352 130 -39 90 -21 180 49
261 39 44 73 63 155 85 55 15 60 19 56 41 -8 59 -112 358 -126 364 -9 3 -50
-2 -92 -10 -125 -26 -207 -8 -273 59 -52 52 -73 103 -73 177 0 120 65 201 194
241 41 12 78 25 82 29 4 4 -29 115 -73 246 -97 284 -183 545 -246 744 -25 80
-54 168 -64 195 -9 28 -30 88 -45 135 -162 495 -477 1061 -738 1328 -85 86
-102 89 -191 36z m5265 -6674 c296 -91 740 -470 999 -850 97 -143 183 -330
196 -428 6 -48 5 -53 -24 -82 -35 -34 -51 -36 -141 -15 -208 49 -593 332 -833
611 -279 326 -444 674 -362 765 23 25 83 25 165 -1z"/>
<path d="M14365 14243 c-130 -9 -374 -47 -411 -65 -81 -38 -92 -134 -22 -193
36 -30 84 -32 233 -10 133 20 151 22 210 30 74 10 101 23 120 59 22 41 16 119
-12 147 -23 24 -66 35 -118 32z"/>
<path d="M10400 13622 c-265 -81 -417 -335 -365 -610 44 -227 264 -412 490
-412 257 1 481 178 524 414 28 155 6 276 -73 395 -71 107 -166 175 -293 211
-84 25 -206 25 -283 2z"/>
<path d="M13933 13235 c-86 -26 -164 -96 -198 -179 -13 -31 -20 -37 -38 -33
-12 3 -42 11 -67 17 -25 7 -91 10 -150 8 -97 -3 -111 -7 -181 -40 -181 -88
-281 -262 -266 -467 6 -92 33 -164 93 -248 168 -236 493 -269 708 -72 102 93
144 181 154 324 l7 90 55 8 c239 34 344 318 186 503 -71 83 -200 121 -303 89z"/>
<path d="M5434 13068 c-24 -5 -52 -20 -66 -36 -15 -15 -57 -94 -96 -177 -106
-228 -99 -212 -200 -456 -74 -179 -180 -545 -231 -799 -85 -422 -122 -815
-115 -1230 3 -225 6 -263 30 -500 13 -127 64 -447 94 -595 53 -265 176 -676
254 -850 8 -16 17 -41 21 -55 20 -66 236 -522 290 -610 8 -14 48 -83 88 -155
93 -165 126 -216 253 -395 480 -675 1084 -1234 1756 -1627 179 -104 186 -107
250 -107 43 -1 64 5 85 20 41 31 65 77 65 128 0 86 -26 112 -214 221 -133 77
-362 225 -480 312 -83 60 -157 120 -363 296 -102 87 -396 386 -515 522 -195
226 -409 523 -535 745 -27 47 -54 92 -60 100 -23 28 -171 315 -224 436 -29 65
-63 142 -76 169 -157 349 -318 955 -375 1415 -43 357 -41 934 5 1290 72 548
230 1081 462 1560 56 115 87 191 90 221 12 110 -75 181 -193 157z"/>
<path d="M5864 12121 c-48 -22 -71 -57 -107 -161 -88 -256 -176 -635 -211
-910 -25 -189 -39 -519 -32 -745 3 -115 7 -219 10 -230 2 -11 7 -56 11 -100 8
-92 9 -106 36 -275 11 -69 24 -141 29 -160 5 -19 19 -78 30 -130 126 -558 368
-1121 693 -1610 188 -284 336 -461 621 -745 299 -298 361 -341 454 -320 45 10
99 66 107 113 12 76 -9 119 -99 202 -136 126 -427 418 -490 492 -361 426 -627
875 -806 1363 -201 547 -285 1011 -284 1570 1 474 55 823 204 1320 58 193 62
228 30 281 -39 62 -118 81 -196 45z"/>
<path d="M8083 11880 c-18 -10 -39 -31 -49 -45 -36 -55 -43 -27 246 -910 628
-1918 802 -2436 827 -2466 25 -29 87 -49 131 -41 13 3 39 19 58 37 65 61 85
-15 -317 1200 -33 99 -116 353 -185 565 -70 212 -142 430 -161 485 -19 55 -53
156 -75 225 -112 352 -280 854 -298 890 -38 74 -113 100 -177 60z"/>
<path d="M15237 11038 c-9 -7 -25 -51 -37 -97 -24 -95 -60 -173 -99 -214 -38
-41 -137 -94 -211 -113 -80 -20 -110 -38 -110 -67 0 -37 13 -46 101 -76 211
-71 263 -132 329 -379 8 -31 18 -46 36 -52 48 -19 65 3 99 125 41 146 109 226
233 274 45 17 88 31 97 31 24 0 73 28 83 47 13 22 -4 70 -27 78 -9 3 -42 12
-74 20 -187 49 -270 140 -327 362 -17 67 -53 90 -93 61z"/>
<path d="M9324 10654 c11 -171 53 -434 96 -607 77 -303 225 -691 347 -912 106
-191 232 -383 352 -535 197 -249 371 -436 444 -476 102 -55 228 -33 310 55 50
54 67 99 67 181 -1 69 -15 99 -120 249 -274 390 -459 819 -501 1165 -5 44 -12
89 -15 98 -3 10 -64 46 -147 87 -78 38 -191 101 -250 140 -213 141 -444 399
-542 607 -39 83 -49 71 -41 -52z"/>
<path d="M14102 10145 c-193 -194 -434 -325 -778 -425 -60 -17 -135 -43 -167
-58 -57 -25 -60 -28 -101 -111 -115 -228 -194 -514 -227 -811 -24 -223 -7
-676 29 -771 28 -73 119 -137 206 -146 76 -8 132 15 189 76 64 69 76 116 87
356 18 394 72 621 213 898 53 104 132 223 293 444 145 199 219 311 274 418 51
100 93 212 82 219 -4 2 -49 -38 -100 -89z"/>
<path d="M13690 8976 c-52 -115 -130 -411 -113 -426 14 -12 206 -41 307 -47
97 -5 103 -4 156 24 127 67 162 217 80 346 -29 46 -57 66 -134 94 -58 21 -238
73 -254 73 -7 0 -26 -29 -42 -64z"/>
<path d="M14834 8731 c-16 -19 -86 -235 -173 -536 -16 -55 -49 -165 -74 -245
-24 -80 -59 -200 -78 -268 -19 -68 -37 -128 -40 -134 -5 -8 -22 -4 -51 9 -71
34 -128 46 -218 46 -139 1 -254 -42 -353 -133 -76 -69 -109 -138 -115 -240 -4
-72 -2 -84 25 -142 47 -100 123 -162 242 -198 198 -62 465 28 576 193 35 51
44 75 85 217 12 41 41 138 65 215 38 122 77 261 141 493 9 34 22 62 29 62 25
0 124 -93 167 -159 29 -43 48 -124 48 -203 0 -70 -11 -112 -62 -236 -12 -31
-11 -35 6 -48 28 -20 38 -18 83 21 54 46 126 154 164 245 26 62 32 93 36 175
8 176 -27 287 -152 474 -68 103 -105 184 -124 271 -6 28 -16 60 -21 70 -13 24
-91 59 -147 67 -34 4 -44 2 -59 -16z"/>
</g>
</svg>
