<?xml version="1.0" standalone="no"?>
<!DOCTYPE svg PUBLIC "-//W3C//DTD SVG 20010904//EN"
 "http://www.w3.org/TR/2001/REC-SVG-20010904/DTD/svg10.dtd">
<svg version="1.0" xmlns="http://www.w3.org/2000/svg"
 width="2048.000000pt" height="2048.000000pt" viewBox="0 0 2048.000000 2048.000000"
 preserveAspectRatio="xMidYMid meet">
<metadata>
Created by potrace 1.16, written by Peter Selinger 2001-2019
</metadata>
<g transform="translate(0.000000,2048.000000) scale(0.100000,-0.100000)"
fill="#18bcf2" stroke="none">
<path d="M8960 17396 c-57 -21 -198 -86 -300 -139 -208 -109 -379 -236 -561
-417 -304 -303 -477 -607 -558 -981 -30 -142 -42 -265 -42 -439 0 -234 27
-396 136 -826 88 -347 110 -483 102 -644 -16 -332 -191 -568 -453 -612 -104
-17 -239 6 -348 60 -168 84 -308 269 -392 518 -77 231 -103 612 -64 954 6 47
13 108 15 135 12 112 28 226 46 323 10 57 19 120 19 140 0 43 -34 107 -71 135
-32 23 -111 39 -148 30 -70 -17 -240 -131 -411 -274 -200 -169 -345 -329 -479
-531 -170 -254 -251 -453 -323 -793 -20 -96 -23 -137 -22 -325 0 -207 1 -221
36 -390 51 -244 104 -414 256 -810 86 -224 157 -509 165 -656 11 -222 -49
-384 -174 -466 -72 -47 -120 -61 -203 -61 -175 2 -303 101 -358 276 -25 79
-25 118 -17 762 3 272 2 284 -24 420 -73 367 -223 644 -469 865 -117 106 -231
180 -288 187 -52 7 -121 -19 -154 -57 -46 -55 -50 -87 -30 -238 20 -162 23
-474 5 -602 -48 -339 -130 -571 -394 -1110 -259 -532 -379 -846 -452 -1185
-112 -520 -95 -1091 47 -1575 163 -556 447 -1031 863 -1446 221 -220 279 -257
370 -240 40 8 99 55 121 97 22 43 18 127 -9 171 -12 20 -73 83 -136 140 -533
480 -894 1194 -958 1889 -12 126 -8 491 6 599 53 416 170 758 468 1369 117
241 147 304 192 408 152 351 246 734 252 1033 1 41 4 83 6 93 4 16 6 15 22 -5
36 -46 100 -175 130 -261 75 -214 86 -358 67 -907 -10 -301 -3 -387 45 -532
71 -218 189 -357 384 -452 271 -132 607 -73 823 145 97 98 161 215 203 376 27
101 34 334 14 443 -47 258 -111 473 -258 865 -91 241 -117 324 -151 475 -53
238 -58 448 -16 665 38 195 68 282 156 455 100 197 209 342 385 515 l102 100
-7 -82 c-50 -628 -17 -976 128 -1325 140 -339 406 -584 727 -669 121 -33 330
-33 443 -1 333 96 574 372 658 757 8 38 13 129 12 250 0 220 -7 263 -94 613
-115 462 -141 619 -142 842 0 229 54 475 140 647 146 287 310 485 555 668 56
41 111 82 122 90 26 20 39 19 30 -2 -38 -87 -75 -344 -82 -559 -10 -324 46
-609 187 -939 129 -305 360 -641 701 -1020 157 -175 208 -222 253 -231 82 -15
162 23 196 92 42 84 15 162 -100 289 -107 118 -305 356 -392 470 -273 361
-419 686 -474 1056 -44 303 16 693 162 1046 47 114 55 157 42 218 -22 104
-132 160 -238 121z"/>
<path d="M11288 16578 c-69 -3 -151 -11 -182 -18 -183 -38 -193 -189 -16 -254
25 -9 149 -40 275 -70 127 -30 273 -66 325 -81 102 -29 330 -111 343 -124 4
-5 -22 -11 -58 -15 -131 -13 -312 -48 -422 -82 -158 -48 -214 -81 -240 -142
-12 -29 -12 -37 3 -67 26 -54 80 -75 231 -86 268 -19 506 -52 654 -89 97 -25
270 -85 327 -114 l45 -23 -139 -6 c-330 -15 -646 -106 -684 -196 -10 -25 -10
-37 0 -62 21 -51 48 -61 203 -75 358 -34 753 -142 981 -268 l78 -43 -233 5
c-309 6 -460 -19 -528 -87 -52 -52 -19 -97 137 -188 124 -72 259 -168 382
-273 92 -78 301 -282 295 -288 -2 -2 -41 19 -87 46 -217 131 -566 275 -792
327 -440 100 -984 74 -1380 -65 -196 -69 -438 -190 -616 -308 -239 -158 -552
-469 -695 -691 -91 -141 -106 -208 -56 -263 27 -30 34 -33 83 -32 30 1 67 8
84 17 27 14 173 128 219 170 85 78 432 323 535 378 25 13 51 28 59 33 7 6 19
11 27 12 11 2 10 -5 -5 -29 -165 -272 -257 -477 -268 -597 -4 -46 -1 -60 19
-90 13 -19 36 -39 50 -44 53 -19 101 16 313 230 201 202 324 307 474 408 82
55 261 152 261 141 0 -3 -26 -40 -59 -83 -201 -265 -337 -548 -310 -646 10
-34 36 -65 65 -76 48 -19 76 1 244 164 182 178 220 209 427 349 134 91 353
208 418 223 l29 7 -34 -40 c-19 -22 -75 -84 -124 -139 -120 -133 -188 -226
-236 -318 -58 -112 -53 -173 14 -196 31 -10 51 -6 198 43 412 138 612 164
1158 151 195 -4 393 -7 439 -6 l84 1 105 -78 c57 -44 174 -121 260 -172 191
-114 426 -268 548 -360 110 -83 289 -260 394 -389 43 -52 93 -112 113 -132 61
-65 117 -63 148 6 20 47 39 188 34 251 -2 22 -7 72 -10 110 -6 65 -46 298 -62
355 -5 19 4 12 33 -25 181 -227 311 -530 405 -943 44 -192 73 -242 143 -242
63 0 112 92 148 275 13 71 16 326 5 475 l-8 105 27 -39 c41 -60 138 -271 178
-386 43 -125 93 -326 136 -544 42 -213 71 -266 146 -266 81 0 128 93 173 340
18 99 33 304 26 368 -4 41 -3 62 4 62 12 0 74 -126 127 -260 20 -52 82 -230
136 -395 103 -311 129 -370 174 -400 30 -19 82 -22 113 -6 54 30 76 138 68
349 -13 357 -104 714 -263 1032 -136 271 -256 441 -451 638 -143 145 -223 210
-380 313 -139 90 -411 226 -535 267 -289 95 -620 151 -898 152 -123 0 -120 5
30 54 226 74 424 106 646 106 110 0 152 4 174 15 82 42 61 122 -55 214 -91 72
-249 165 -395 232 -63 28 -119 56 -125 62 -17 16 298 0 435 -24 204 -34 502
-130 672 -215 89 -45 134 -51 175 -25 59 37 57 84 -8 180 -93 139 -281 296
-494 413 l-70 38 66 0 c81 0 198 -20 351 -59 148 -38 240 -71 481 -170 108
-44 217 -86 241 -92 97 -24 162 34 133 120 -39 110 -159 240 -376 404 -164
124 -166 120 56 88 153 -23 324 -64 508 -121 252 -79 348 -95 405 -65 80 42
80 125 -2 201 -178 165 -543 347 -842 419 -297 73 -614 100 -867 75 -215 -22
-485 -80 -626 -136 -483 -191 -893 -515 -1192 -942 -24 -34 -45 -61 -46 -60
-2 2 -8 53 -14 113 -65 626 -283 1133 -654 1522 -249 260 -538 456 -856 580
-355 139 -730 201 -1103 181z"/>
<path d="M8369 13217 c-79 -42 -83 -58 -90 -332 -12 -471 -76 -753 -229 -1015
-50 -85 -145 -189 -205 -224 -24 -15 -71 -33 -105 -42 -114 -29 -242 9 -308
93 -65 84 -105 191 -122 332 -18 138 -69 200 -174 209 -72 6 -108 -15 -233
-133 -326 -307 -536 -698 -613 -1144 -25 -145 -26 -196 -3 -187 9 4 88 25 177
47 88 22 162 42 164 44 2 1 14 49 27 106 57 249 144 436 297 639 27 36 55 65
61 65 7 0 19 -15 29 -33 82 -166 185 -275 319 -341 111 -54 183 -71 301 -71
127 0 184 13 293 65 122 58 211 130 305 245 206 252 313 550 362 1013 7 64 15
117 18 117 3 0 24 -19 47 -42 150 -155 309 -440 362 -648 31 -122 40 -181 71
-460 39 -353 129 -579 284 -716 61 -54 187 -118 276 -140 235 -59 504 39 681
249 237 282 373 768 364 1307 -2 148 -6 194 -20 228 -33 80 -109 120 -193 101
-59 -13 -98 -41 -125 -92 -19 -37 -22 -55 -19 -142 5 -224 -28 -540 -79 -738
-47 -187 -148 -377 -247 -468 -78 -71 -129 -93 -222 -93 -64 -1 -82 3 -121 26
-128 75 -196 240 -224 543 -31 338 -90 578 -199 810 -138 290 -333 528 -600
729 -154 116 -223 137 -307 93z"/>
<path d="M13243 12641 c-39 -10 -81 -42 -107 -84 -19 -29 -21 -50 -24 -232 -7
-521 -91 -940 -247 -1230 -186 -348 -411 -492 -673 -430 -193 46 -341 206
-455 495 -131 331 -142 703 -32 1106 30 109 31 136 6 191 -39 85 -150 125
-235 83 -25 -12 -55 -34 -65 -49 -30 -42 -67 -163 -103 -332 -30 -148 -31
-164 -32 -404 -1 -222 2 -264 23 -375 59 -314 206 -637 370 -812 173 -184 345
-266 582 -275 199 -8 354 35 524 145 99 64 126 88 204 177 67 76 146 196 200
304 141 279 209 520 267 949 3 23 9 42 14 42 9 0 11 -5 112 -191 148 -274 254
-569 323 -901 66 -311 75 -708 24 -1038 -54 -354 -185 -739 -333 -975 -43 -69
-54 -94 -64 -140 -24 -114 64 -216 187 -218 77 -1 107 25 182 155 82 145 109
201 213 448 68 160 148 478 181 720 22 158 31 581 16 751 -22 246 -91 569
-176 824 -147 442 -393 881 -671 1201 -71 82 -138 112 -211 95z"/>
<path d="M7170 10629 c-169 -22 -548 -107 -795 -179 -374 -109 -914 -323
-1195 -473 -367 -196 -568 -353 -641 -503 -28 -56 -35 -83 -37 -144 -3 -70 -1
-79 30 -130 39 -64 98 -108 190 -140 82 -28 294 -38 464 -21 428 44 1081 228
1637 462 158 67 493 234 610 305 235 143 376 268 437 389 32 62 35 77 35 151
0 76 -2 85 -31 126 -57 80 -155 132 -298 157 -69 13 -310 12 -406 0z m288
-348 l33 -1 -35 -30 c-93 -82 -416 -259 -701 -385 -497 -219 -1103 -397 -1550
-455 -97 -12 -275 -21 -275 -14 0 16 93 85 209 154 429 255 1113 515 1706 650
287 65 453 91 540 84 22 -1 55 -3 73 -3z"/>
<path d="M9460 10113 c-362 -17 -762 -76 -980 -145 -302 -96 -470 -234 -470
-389 0 -148 101 -267 298 -350 224 -93 558 -160 952 -189 281 -21 908 -19
1110 4 25 2 98 10 163 17 66 7 124 17 130 23 131 124 301 241 462 317 99 48
269 101 362 115 70 10 76 17 68 88 -27 240 -429 416 -1105 485 -263 27 -704
38 -990 24z m855 -373 c189 -17 470 -59 590 -90 114 -28 215 -66 215 -80 0
-26 -447 -125 -650 -144 -36 -4 -110 -11 -165 -17 -162 -17 -776 -20 -965 -4
-304 24 -441 44 -640 91 -99 24 -224 61 -244 72 -13 7 98 50 199 77 80 21 223
45 440 75 62 8 264 24 430 34 110 7 668 -4 790 -14z"/>
<path d="M7615 9526 c-198 -117 -564 -296 -777 -380 -91 -36 -171 -66 -177
-66 -6 0 -11 -5 -11 -12 0 -14 141 -451 182 -566 30 -82 31 -84 82 -106 57
-26 129 -98 153 -154 10 -23 17 -68 17 -117 1 -69 -3 -88 -27 -137 -77 -156
-266 -219 -421 -141 -95 48 -157 153 -157 265 -1 57 24 152 42 163 5 4 9 14 9
24 0 14 -73 245 -205 647 -2 8 -38 1 -112 -21 -268 -83 -562 -150 -833 -191
-262 -40 -587 -43 -719 -7 l-24 6 6 -184 c6 -164 27 -432 43 -536 3 -21 10
-67 15 -103 63 -417 217 -1018 344 -1345 136 -349 231 -564 347 -785 198 -378
296 -540 528 -870 105 -150 341 -465 360 -480 3 -3 72 -82 152 -175 240 -281
363 -382 523 -432 79 -24 354 -24 495 1 218 38 480 103 502 124 4 4 -17 72
-47 152 -65 170 -155 446 -230 700 -69 236 -189 796 -224 1050 -75 537 -99
982 -78 1465 7 180 10 216 28 420 16 183 68 528 110 740 36 178 53 251 113
480 9 33 37 123 63 201 l47 141 -26 79 c-15 44 -29 100 -33 127 -4 26 -10 47
-14 47 -3 0 -24 -11 -46 -24z"/>
<path d="M11587 9195 c-290 -47 -505 -159 -717 -374 -254 -257 -371 -576 -357
-971 9 -242 63 -454 172 -675 70 -143 127 -227 259 -381 170 -197 370 -353
602 -465 142 -69 380 -150 509 -174 371 -67 456 -101 605 -242 65 -61 230
-276 230 -298 0 -4 -28 -39 -62 -79 -87 -98 -315 -353 -408 -456 -143 -157
-375 -425 -411 -475 -163 -225 -236 -489 -179 -655 55 -162 163 -270 310 -310
105 -29 294 -5 400 50 151 79 321 241 495 470 28 36 57 74 66 85 10 11 34 41
55 66 54 64 63 75 118 149 98 129 220 280 225 280 3 -1 37 -47 75 -103 38 -56
139 -205 224 -332 133 -196 172 -253 229 -330 19 -25 139 -162 162 -185 166
-163 356 -249 526 -237 123 8 192 40 286 133 155 150 179 368 70 644 -57 143
-180 317 -611 860 -154 194 -254 323 -277 358 l-23 33 83 101 c163 201 233
266 362 331 98 50 156 64 355 86 289 33 446 72 657 162 143 61 191 87 357 197
182 119 387 323 505 502 198 298 278 538 288 855 8 257 -27 426 -132 635 -70
139 -134 226 -242 333 -189 187 -404 299 -653 343 -115 20 -363 14 -480 -11
-314 -68 -664 -274 -890 -523 -283 -315 -449 -650 -521 -1057 -18 -100 -22
-166 -23 -400 -3 -256 -5 -287 -26 -365 -12 -47 -38 -114 -56 -150 -40 -75
-156 -235 -177 -243 -19 -7 -34 10 -95 110 -94 156 -116 301 -87 589 30 305
10 567 -66 829 -121 423 -404 814 -763 1053 -171 114 -329 183 -511 223 -122
26 -342 33 -458 14z m373 -371 c94 -20 266 -86 305 -118 l29 -23 -34 -57
c-133 -220 -438 -525 -680 -682 -201 -130 -616 -303 -673 -281 -18 7 -37 140
-37 265 0 350 191 661 501 817 187 95 390 122 589 79z m3697 -59 c297 -48 531
-225 663 -500 70 -146 85 -218 85 -405 -1 -143 -6 -193 -36 -303 -11 -43 -15
-43 -139 5 -317 124 -638 354 -891 640 -42 48 -97 116 -123 152 -46 64 -166
273 -166 289 0 12 133 72 205 93 71 20 202 42 265 43 25 0 86 -6 137 -14z
m-3012 -367 c58 -67 154 -207 189 -277 l28 -53 -34 -54 c-100 -161 -359 -443
-542 -590 -249 -200 -542 -365 -816 -459 -121 -41 -129 -43 -151 -27 -78 53
-279 320 -279 370 0 4 28 14 62 21 73 15 285 94 379 141 415 209 785 527 1043
898 32 45 61 82 66 82 5 0 29 -24 55 -52z m2127 -23 c30 -58 131 -206 206
-305 189 -246 433 -467 707 -640 123 -78 348 -193 433 -221 34 -11 62 -25 62
-29 0 -5 -33 -53 -74 -107 -69 -91 -223 -243 -248 -243 -6 0 -52 16 -102 36
-358 142 -727 410 -994 721 -142 165 -294 387 -316 459 -11 38 158 283 250
363 41 34 40 35 76 -34z m-466 -792 c257 -365 665 -727 1039 -923 55 -29 102
-54 103 -56 6 -5 -55 -33 -128 -60 -95 -34 -214 -59 -405 -84 -88 -12 -204
-32 -258 -46 -121 -30 -280 -101 -367 -162 -71 -50 -218 -196 -301 -297 -54
-67 -57 -70 -74 -57 -11 7 -106 128 -119 150 -5 8 11 34 41 70 175 205 280
398 324 597 18 85 22 139 25 365 3 207 9 292 25 388 18 111 36 182 44 182 2 0
25 -30 51 -67z m-1292 15 c28 -192 29 -337 6 -523 -22 -169 -6 -405 36 -540
60 -190 165 -372 329 -570 23 -27 80 -99 125 -160 46 -60 115 -150 154 -199
39 -49 114 -145 166 -212 52 -68 149 -192 215 -276 413 -524 598 -765 639
-833 78 -130 104 -275 61 -341 -16 -25 -21 -26 -71 -21 -30 3 -75 16 -101 29
-69 32 -196 165 -282 293 -68 101 -176 257 -262 380 -19 28 -86 124 -149 215
-63 91 -186 269 -274 397 -89 127 -186 268 -216 312 -399 589 -538 736 -798
846 -103 43 -192 68 -382 105 -159 32 -346 88 -447 136 l-57 27 40 18 c198 91
295 140 398 204 248 153 388 265 616 494 115 115 134 136 198 219 19 23 37 42
42 42 4 0 11 -19 14 -42z m175 -2402 c39 -58 75 -107 81 -111 5 -3 10 -10 10
-15 0 -4 -46 -66 -102 -137 -57 -71 -159 -200 -228 -288 -394 -500 -404 -512
-485 -565 -121 -79 -211 -100 -264 -64 -21 15 -23 23 -19 83 7 125 105 283
329 526 41 44 101 112 134 150 33 39 102 117 155 175 53 58 118 132 145 165
98 119 158 185 166 185 5 0 40 -47 78 -104z"/>
<path d="M7957 8908 c-154 -520 -245 -1179 -252 -1828 -12 -1129 215 -2199
708 -3335 166 -383 287 -496 630 -590 89 -24 229 -48 352 -60 195 -19 261 -22
460 -19 121 1 234 5 250 8 17 2 59 7 95 11 142 13 357 56 425 84 11 5 45 19
75 31 228 91 301 181 492 610 161 359 337 876 432 1270 78 321 166 773 153
786 -3 3 -45 19 -94 36 -374 128 -740 372 -987 658 -227 265 -385 562 -465
877 -41 160 -54 295 -49 503 7 267 37 407 141 653 l46 108 -77 -5 c-42 -3
-134 -8 -204 -12 l-128 -6 0 -370 0 -370 48 -53 c81 -89 103 -207 61 -322 -79
-211 -349 -265 -507 -102 -112 116 -110 322 4 436 l44 44 0 369 0 370 -62 0
c-172 0 -580 43 -803 85 -161 30 -192 37 -314 71 -164 46 -285 93 -364 143
-35 23 -66 41 -69 41 -3 0 -21 -55 -41 -122z"/>
</g>
</svg>
