<?xml version="1.0" standalone="no"?>
<!DOCTYPE svg PUBLIC "-//W3C//DTD SVG 20010904//EN"
 "http://www.w3.org/TR/2001/REC-SVG-20010904/DTD/svg10.dtd">
<svg version="1.0" xmlns="http://www.w3.org/2000/svg"
 width="2048.000000pt" height="2048.000000pt" viewBox="0 0 2048.000000 2048.000000"
 preserveAspectRatio="xMidYMid meet">
<metadata>
Created by potrace 1.16, written by Peter Selinger 2001-2019
</metadata>
<g transform="translate(0.000000,2048.000000) scale(0.100000,-0.100000)"
fill="#18bcf2" stroke="none">
<path d="M4470 16354 c-83 -47 -127 -131 -118 -225 9 -91 36 -126 276 -356
253 -243 599 -573 617 -588 6 -5 63 -60 126 -120 63 -61 184 -176 269 -255
287 -269 542 -509 764 -721 l70 -67 7 -74 c9 -93 39 -159 100 -219 77 -75 126
-94 246 -94 97 0 103 1 144 30 68 48 100 101 106 177 10 122 -45 246 -142 319
-65 49 -122 69 -195 69 l-57 0 -74 83 c-41 45 -137 149 -214 231 -77 82 -167
179 -199 215 -33 36 -112 122 -176 191 -171 184 -346 372 -715 770 -553 598
-570 616 -619 639 -66 31 -157 29 -216 -5z"/>
<path d="M9960 16369 c-13 -6 -39 -21 -57 -35 -30 -23 -484 -504 -602 -638
-29 -33 -88 -97 -130 -142 -42 -44 -99 -105 -126 -135 -110 -119 -332 -358
-395 -424 -36 -38 -117 -126 -180 -195 -63 -69 -173 -188 -246 -265 -72 -77
-164 -177 -205 -222 l-73 -83 -55 0 c-105 -1 -221 -66 -280 -158 -47 -74 -65
-159 -51 -240 14 -80 29 -110 74 -150 48 -42 98 -55 187 -50 179 9 308 134
328 318 l7 73 85 81 c47 45 170 162 274 261 105 99 237 225 295 281 58 55 256
242 440 415 184 173 396 373 470 444 75 72 218 209 318 305 153 146 188 185
214 237 27 54 30 71 25 117 -9 93 -62 168 -139 200 -41 18 -139 20 -178 5z"/>
<path d="M15842 15251 c-99 -25 -172 -128 -172 -243 0 -61 -16 -100 -77 -185
-116 -164 -351 -373 -558 -498 -198 -120 -423 -222 -651 -295 -373 -120 -950
-209 -1479 -230 -263 -10 -314 -17 -455 -62 -212 -68 -356 -153 -501 -298
-185 -184 -305 -400 -354 -635 -25 -125 -34 -265 -24 -378 48 -512 379 -930
860 -1087 171 -56 218 -60 749 -60 584 0 632 6 841 90 341 137 597 413 720
777 74 220 79 445 14 697 l-8 29 99 -53 c328 -177 530 -334 699 -544 96 -120
114 -157 124 -253 9 -87 24 -124 72 -171 47 -46 105 -65 183 -60 86 5 140 41
179 118 l27 54 -2 1566 -3 1567 -30 49 c-52 84 -159 128 -253 105z m-2647
-2036 c449 -47 606 -72 701 -111 81 -34 198 -155 254 -264 52 -101 73 -193 73
-310 0 -266 -135 -486 -372 -608 -151 -78 -140 -77 -656 -77 -413 0 -467 2
-523 18 -227 64 -393 205 -475 403 -39 95 -51 162 -51 279 1 93 5 122 28 190
68 197 200 346 383 432 120 55 172 63 393 58 107 -3 218 -7 245 -10z"/>
<path d="M6840 15069 c-115 -8 -512 -50 -519 -55 -1 -1 71 -84 160 -184 l164
-182 60 6 c172 17 288 21 575 21 275 -1 579 -15 661 -31 24 -4 43 13 184 171
122 136 155 179 144 186 -8 5 -19 9 -25 9 -6 0 -100 11 -210 25 -109 13 -278
29 -374 35 -193 12 -640 11 -820 -1z"/>
<path d="M5230 14727 c-244 -107 -425 -230 -556 -379 -109 -125 -155 -242
-155 -393 0 -182 55 -309 191 -446 229 -227 615 -409 1125 -528 465 -109 875
-153 1436 -153 179 0 357 2 395 6 38 3 107 8 154 11 394 27 854 112 1195 222
86 27 339 130 420 170 194 97 377 246 469 382 86 129 111 216 104 360 -6 114
-35 199 -103 300 -54 83 -186 210 -281 273 -91 61 -321 181 -335 176 -13 -4
-317 -280 -318 -288 0 -3 57 -31 127 -63 307 -139 489 -286 507 -411 13 -81
-56 -182 -179 -265 -344 -230 -855 -377 -1556 -447 -182 -18 -826 -25 -1025
-11 -351 25 -528 47 -800 103 -587 118 -1066 358 -1124 562 -32 109 100 259
339 386 93 49 298 139 343 150 16 4 27 10 25 15 -4 10 -311 301 -318 301 -3 0
-39 -15 -80 -33z"/>
<path d="M10695 13977 c-56 -22 -75 -38 -97 -80 -23 -41 -23 -49 -23 -372 0
-181 3 -342 7 -357 19 -66 105 -127 181 -128 57 0 103 24 173 90 104 97 98 95
336 95 l206 -1 17 36 c67 141 223 328 379 455 l85 70 -442 5 c-504 6 -475 1
-568 96 -90 91 -176 121 -254 91z"/>
<path d="M4512 12485 l3 -860 27 -77 c92 -260 316 -451 739 -631 386 -164 941
-279 1514 -314 236 -14 922 -8 1105 11 752 76 1330 243 1713 496 177 117 305
264 367 420 l25 65 5 873 c3 479 3 872 1 872 -2 0 -35 -30 -73 -66 -200 -189
-470 -342 -815 -464 l-93 -33 0 -753 0 -753 -27 -15 c-23 -11 -118 -43 -270
-90 l-23 -7 0 765 c0 442 -4 766 -9 766 -5 0 -53 -9 -107 -20 -311 -62 -688
-107 -969 -116 -93 -3 -176 -7 -182 -10 -10 -3 -13 -166 -13 -773 l0 -771 -22
-5 c-13 -3 -86 -4 -163 -2 l-140 2 -5 774 -5 774 -40 3 c-22 1 -107 5 -190 8
-265 10 -762 75 -988 130 -43 10 -60 11 -63 2 -2 -6 -5 -352 -7 -768 l-2 -757
-155 52 -155 52 -2 754 c-1 415 -6 758 -10 762 -4 4 -57 25 -118 47 -163 58
-310 126 -448 204 -150 86 -240 151 -335 242 l-73 70 3 -859z"/>
<path d="M6069 9879 c-345 -50 -593 -358 -565 -700 24 -287 219 -519 501 -594
78 -21 241 -21 320 -1 136 36 278 130 361 239 99 131 140 264 131 432 -9 174
-68 315 -181 429 -109 112 -231 174 -383 196 -77 11 -105 11 -184 -1z"/>
<path d="M14150 9883 c-126 -16 -218 -52 -327 -129 -261 -186 -338 -547 -180
-849 49 -93 176 -214 279 -264 109 -54 182 -71 297 -71 110 0 201 20 285 62
210 106 340 286 365 507 16 143 -4 261 -66 390 -44 93 -167 221 -263 274 -105
58 -279 94 -390 80z"/>
<path d="M10015 9862 c-146 -44 -279 -140 -360 -261 -94 -142 -121 -241 -113
-414 9 -186 73 -326 205 -446 74 -68 196 -133 293 -156 76 -17 217 -20 292 -4
90 18 230 92 302 160 135 125 204 272 213 449 15 291 -149 543 -429 658 -55
22 -80 26 -203 29 -112 2 -152 -1 -200 -15z"/>
<path d="M5975 8380 c-49 -5 -112 -13 -140 -19 -129 -29 -306 -122 -511 -268
-55 -38 -191 -132 -304 -209 -234 -158 -345 -258 -384 -345 -14 -30 -57 -164
-97 -299 -39 -135 -85 -290 -101 -345 -54 -179 -68 -239 -68 -297 0 -136 91
-260 222 -299 55 -17 152 -13 210 7 57 20 134 87 161 141 9 17 39 113 67 214
70 252 149 519 164 549 15 33 277 230 305 230 8 0 11 -131 11 -442 0 -402 2
-450 19 -523 24 -97 47 -152 96 -229 48 -75 119 -144 340 -331 100 -84 188
-159 196 -167 8 -7 66 -57 129 -111 307 -263 368 -322 392 -377 21 -46 89
-251 179 -535 127 -398 151 -456 216 -520 92 -88 204 -126 320 -105 121 21
199 79 258 192 32 61 39 85 43 149 4 75 3 79 -121 455 -69 208 -146 444 -172
524 -97 297 -139 354 -487 657 l-158 137 0 313 c0 172 3 313 6 313 3 0 19 -9
35 -21 16 -11 66 -38 111 -59 120 -56 693 -271 762 -286 141 -31 282 40 351
176 27 51 32 174 11 238 -20 60 -92 144 -147 172 -21 11 -147 60 -281 109
-134 50 -290 107 -348 129 l-105 39 -100 151 c-55 83 -167 263 -250 399 -179
294 -231 354 -365 420 -139 69 -273 90 -465 73z"/>
<path d="M9985 8379 c-220 -26 -357 -89 -662 -304 -117 -82 -272 -190 -344
-240 -72 -49 -162 -118 -200 -153 -93 -86 -112 -127 -207 -452 -17 -58 -56
-186 -86 -285 -30 -99 -62 -208 -70 -241 -44 -172 15 -314 159 -385 73 -36
157 -43 236 -20 57 16 134 73 170 126 26 38 35 65 94 275 15 52 38 131 51 175
13 44 40 136 59 205 20 69 41 133 48 142 11 15 217 172 280 212 l27 18 0 -433
c1 -537 7 -579 106 -749 50 -86 128 -167 309 -318 83 -69 170 -144 195 -166
25 -23 70 -61 100 -86 71 -59 274 -232 280 -239 3 -3 36 -33 73 -65 38 -33 80
-76 93 -96 14 -21 94 -248 179 -505 85 -257 167 -490 182 -517 50 -92 142
-155 260 -178 52 -10 73 -10 136 4 166 37 275 166 285 336 4 74 2 83 -86 350
-50 151 -127 386 -172 521 -88 269 -133 372 -204 466 -39 51 -417 400 -462
426 -11 7 -14 64 -14 318 0 171 3 309 8 307 4 -1 55 -27 112 -56 58 -29 254
-107 435 -175 l330 -122 90 0 c100 0 134 12 203 71 91 77 126 230 82 348 -26
67 -75 126 -134 161 -23 13 -95 43 -161 65 -66 23 -169 61 -230 84 -60 24
-165 64 -231 90 l-122 47 -90 142 c-49 78 -105 167 -123 197 -82 137 -246 391
-293 453 -84 113 -231 208 -366 236 -78 17 -231 21 -325 10z"/>
<path d="M14035 8379 c-205 -19 -329 -71 -589 -247 -94 -63 -259 -174 -366
-246 -217 -146 -330 -248 -374 -338 -14 -29 -68 -201 -120 -383 -52 -181 -104
-356 -115 -387 -33 -97 -46 -197 -32 -254 26 -108 120 -199 236 -229 73 -19
87 -19 159 0 118 31 186 104 226 244 11 42 47 164 80 271 32 107 71 240 85
295 32 119 33 121 210 250 l130 94 6 -462 c5 -443 6 -465 28 -537 29 -97 78
-190 142 -267 28 -34 135 -134 239 -222 104 -89 194 -166 202 -173 11 -11 51
-46 168 -144 290 -246 375 -326 400 -374 9 -19 50 -136 90 -260 134 -417 213
-655 220 -665 4 -5 11 -21 15 -35 13 -43 81 -126 132 -158 142 -91 325 -74
450 41 78 72 113 154 113 266 0 53 -13 104 -80 305 -43 133 -117 358 -164 502
-48 143 -97 288 -110 322 -58 147 -167 271 -439 499 -76 64 -142 124 -147 134
-11 19 -14 619 -4 619 3 0 19 -9 35 -21 54 -38 193 -97 530 -223 349 -131 388
-141 479 -121 93 20 183 93 220 178 31 69 29 190 -3 260 -48 105 -101 140
-341 227 -356 130 -532 201 -548 223 -10 12 -52 78 -95 147 -42 69 -127 206
-188 305 -61 99 -129 209 -150 244 -146 243 -392 352 -730 320z"/>
<path d="M5480 5975 c-5 -14 -10 -32 -10 -38 0 -19 -79 -342 -105 -432 -27
-91 -40 -111 -333 -545 -245 -363 -257 -385 -256 -500 0 -74 4 -94 31 -150 74
-157 217 -233 394 -208 119 16 199 81 309 252 41 64 165 252 274 418 210 319
237 368 281 513 15 50 34 109 41 133 l13 42 -106 88 c-172 141 -404 340 -465
399 l-58 55 -10 -27z"/>
<path d="M9460 5743 c-37 -153 -73 -280 -89 -313 -27 -53 -262 -414 -372 -570
-175 -249 -191 -282 -191 -403 0 -219 187 -379 418 -356 110 11 206 78 279
195 21 32 70 109 110 169 40 61 125 191 189 289 65 99 135 203 156 231 53 72
115 197 139 280 11 39 28 96 37 129 l18 59 -40 36 c-22 20 -96 83 -165 141
-139 117 -377 328 -398 354 -7 9 -17 16 -21 16 -4 0 -36 -116 -70 -257z"/>
<path d="M13546 5988 c-2 -7 -14 -60 -26 -118 -28 -131 -86 -369 -100 -404
-15 -39 -119 -205 -346 -546 -153 -231 -206 -319 -219 -364 -96 -329 294 -593
570 -386 59 44 55 39 284 385 297 450 327 497 363 570 35 69 91 235 103 306
l7 36 -174 145 c-95 80 -182 154 -193 164 -11 11 -61 54 -110 95 -50 42 -97
84 -104 93 -23 27 -51 39 -55 24z"/>
</g>
</svg>
