<?xml version="1.0" standalone="no"?>
<!DOCTYPE svg PUBLIC "-//W3C//DTD SVG 20010904//EN"
 "http://www.w3.org/TR/2001/REC-SVG-20010904/DTD/svg10.dtd">
<svg version="1.0" xmlns="http://www.w3.org/2000/svg"
 width="2048.000000pt" height="2048.000000pt" viewBox="0 0 2048.000000 2048.000000"
 preserveAspectRatio="xMidYMid meet">
<metadata>
Created by potrace 1.16, written by Peter Selinger 2001-2019
</metadata>
<g transform="translate(0.000000,2048.000000) scale(0.100000,-0.100000)"
fill="#18bcf2" stroke="none">
<path d="M6859 17056 c-68 -15 -165 -58 -234 -106 -108 -75 -196 -197 -242
-335 l-27 -80 -1 -799 c0 -550 -3 -800 -11 -803 -39 -13 -147 -87 -194 -133
-107 -104 -171 -209 -214 -347 -95 -305 -37 -690 141 -947 60 -86 138 -178
200 -235 32 -30 198 -192 368 -360 317 -312 436 -420 540 -486 97 -63 253
-132 369 -164 213 -60 256 -62 962 -58 611 3 643 4 734 25 218 49 424 142 555
250 131 108 253 241 327 358 46 73 100 187 138 294 74 206 70 115 70 1846 l0
1552 -25 88 c-29 99 -54 145 -122 225 -84 98 -201 173 -318 204 -303 80 -612
-57 -745 -329 -64 -132 -70 -182 -70 -614 l0 -378 -72 24 c-95 32 -220 39
-318 18 -88 -18 -217 -80 -278 -131 l-42 -37 -62 47 c-110 83 -214 122 -346
131 -92 7 -215 -12 -271 -40 -16 -9 -31 -13 -34 -9 -3 3 -6 181 -7 396 -1 443
-3 467 -72 601 -51 99 -163 215 -253 263 -134 70 -309 97 -446 69z m260 -402
c54 -29 91 -70 119 -132 15 -33 17 -107 20 -727 2 -379 1 -714 -3 -742 l-6
-53 -260 0 -259 0 0 734 c0 797 -1 778 56 853 31 41 92 82 136 94 58 15 142 3
197 -27z m2699 7 c55 -28 99 -74 126 -131 l21 -45 0 -1520 c0 -1686 4 -1588
-65 -1756 -127 -307 -355 -505 -690 -600 l-85 -24 -650 0 c-733 0 -716 -1
-914 77 -181 73 -249 125 -570 442 -157 155 -322 316 -366 356 -199 181 -278
297 -331 481 -25 84 -26 102 -21 218 8 184 42 277 131 359 49 45 101 75 162
91 28 7 247 11 675 12 691 0 668 2 738 -57 48 -40 73 -98 74 -170 1 -77 -33
-139 -101 -186 l-47 -33 -390 -5 c-437 -6 -424 -3 -488 -83 -25 -30 -32 -49
-35 -96 -5 -73 21 -127 82 -168 l41 -28 325 -6 c366 -7 382 -10 539 -85 75
-37 108 -60 170 -122 66 -65 87 -95 139 -198 69 -135 97 -169 155 -185 126
-34 237 57 237 192 0 139 -176 411 -353 548 l-56 43 44 54 c25 30 52 69 61 87
9 17 18 34 20 36 1 2 29 -13 61 -32 191 -116 427 -125 633 -24 111 54 230 169
277 269 72 152 67 66 73 1153 4 808 7 984 19 1005 42 76 101 128 171 151 42
14 142 3 188 -20z m-1823 -1280 c46 -21 120 -98 140 -145 14 -33 29 -293 19
-320 -5 -12 -18 -8 -67 19 -79 43 -194 65 -339 65 l-110 0 4 108 c4 119 20
162 80 219 73 70 189 93 273 54z m910 -5 c55 -25 106 -77 132 -134 15 -31 18
-79 21 -304 2 -177 0 -287 -8 -323 -33 -161 -220 -249 -367 -172 -54 28 -85
62 -124 137 -24 44 -24 49 -23 325 0 268 1 282 23 331 62 140 214 202 346 140z"/>
<path d="M15168 15450 c-94 -17 -215 -64 -378 -148 -91 -46 -453 -230 -805
-409 -997 -507 -941 -474 -1006 -595 l-33 -63 -7 -190 c-10 -284 -19 -304
-262 -542 -200 -196 -464 -453 -522 -508 -22 -20 -144 -139 -270 -264 -127
-124 -282 -275 -345 -336 -63 -60 -205 -197 -315 -304 -110 -108 -261 -254
-335 -326 -389 -375 -498 -480 -870 -844 -409 -400 -663 -647 -686 -667 -33
-29 -75 -37 -134 -26 -85 15 -127 39 -170 94 -54 67 -73 141 -67 249 4 77 11
102 81 278 107 266 121 343 91 484 -40 191 -187 335 -391 383 -87 20 -257 14
-360 -14 -86 -23 -216 -79 -290 -124 -211 -127 -450 -365 -597 -593 -50 -78
-171 -314 -321 -625 -176 -364 -262 -504 -390 -637 -239 -250 -480 -371 -1041
-524 -647 -176 -975 -321 -1313 -581 -453 -346 -694 -802 -719 -1358 -14 -315
66 -708 223 -1088 164 -398 497 -885 907 -1326 172 -185 188 -201 352 -352
146 -134 169 -153 315 -270 665 -532 1336 -814 1937 -814 446 0 876 180 1193
499 120 121 182 198 294 364 189 281 357 690 496 1202 121 450 145 516 254
700 53 91 208 248 310 314 103 67 166 96 388 182 417 161 599 258 798 426 197
166 373 424 425 623 26 99 31 291 10 384 -37 169 -138 299 -287 369 -85 41
-122 48 -229 48 -67 0 -97 -7 -197 -41 -272 -96 -310 -108 -372 -114 -146 -15
-295 36 -388 132 -106 111 -157 269 -134 421 18 129 38 157 290 414 125 128
286 293 357 367 133 137 338 349 615 635 86 88 217 223 291 300 74 77 193 201
265 275 72 74 197 205 280 290 151 157 338 350 611 630 83 85 163 169 178 185
14 17 86 91 158 165 73 75 170 176 217 225 46 50 166 174 267 276 168 172 190
191 270 232 143 74 173 79 406 75 192 -3 204 -2 250 19 70 32 123 78 161 137
44 70 146 256 314 576 78 148 187 332 219 370 37 44 75 58 192 70 370 38 593
276 595 635 0 121 -14 184 -66 295 -34 70 -56 100 -127 170 -93 93 -182 145
-296 175 -73 19 -223 27 -287 15z m-6783 -5355 c58 -28 77 -45 165 -144 36
-41 103 -111 149 -156 l83 -81 -166 -160 c-176 -168 -204 -204 -231 -298 -22
-75 -15 -142 21 -205 36 -62 610 -633 666 -663 35 -19 59 -23 133 -23 105 0
135 12 220 86 58 51 75 59 75 35 0 -8 24 -63 54 -123 148 -294 353 -463 661
-544 80 -21 111 -24 275 -23 168 1 194 3 284 28 80 22 188 60 264 93 25 11 11
-56 -29 -136 -32 -64 -59 -100 -131 -170 -166 -165 -330 -263 -623 -371 -603
-225 -924 -479 -1135 -900 -77 -154 -135 -320 -245 -700 -148 -515 -232 -728
-350 -895 -94 -132 -180 -192 -288 -202 -56 -5 -72 -2 -118 20 -129 60 -180
156 -209 392 -37 306 -107 549 -212 732 -44 77 -181 265 -216 296 -21 19 -20
19 32 72 30 29 66 78 81 109 25 51 27 64 23 140 -3 68 -9 91 -33 132 -18 31
-201 220 -497 514 -523 519 -528 523 -645 523 -85 1 -144 -27 -233 -110 -50
-46 -65 -55 -78 -46 -10 5 -44 46 -77 90 -96 126 -155 297 -155 448 0 265 142
486 425 662 76 47 256 135 384 187 190 78 419 196 551 285 352 236 545 464
775 918 61 123 106 171 179 197 61 22 114 19 171 -9z"/>
<path d="M7764 8890 c-52 -26 -109 -82 -137 -135 -32 -58 -31 -193 1 -253 30
-56 942 -966 997 -995 26 -13 66 -22 117 -25 69 -4 84 -2 132 22 115 56 175
161 163 283 -11 106 -20 117 -521 619 -525 526 -497 504 -640 504 -51 0 -82
-6 -112 -20z"/>
<path d="M7093 8202 c-104 -37 -162 -93 -193 -186 -16 -50 -9 -160 15 -206 27
-55 948 -973 1008 -1006 196 -106 441 52 424 273 -3 42 -13 76 -30 105 -14 24
-238 255 -499 513 -363 361 -485 476 -523 495 -65 31 -136 36 -202 12z"/>
<path d="M4597 12890 c-92 -28 -160 -131 -159 -240 1 -33 129 -395 301 -847
33 -87 99 -261 146 -388 121 -322 122 -324 158 -370 39 -52 78 -78 137 -93 51
-12 120 -3 172 24 18 9 124 107 236 217 l203 201 78 -235 c71 -209 141 -411
227 -654 22 -61 40 -91 74 -125 149 -150 400 -48 400 162 0 56 -31 153 -205
653 -87 248 -255 738 -255 742 0 2 -17 21 -37 44 -69 76 -154 102 -250 74 -54
-16 -69 -28 -273 -231 l-217 -214 -12 27 c-7 16 -59 152 -116 303 -57 151
-108 286 -114 300 -5 14 -33 88 -62 165 -83 227 -141 367 -167 407 -47 72
-168 107 -265 78z"/>
<path d="M13095 10839 c-84 -17 -187 -50 -250 -81 -272 -137 -453 -413 -458
-699 l-2 -89 -275 0 c-284 0 -406 -9 -519 -37 -103 -26 -270 -96 -362 -153
-87 -54 -211 -150 -232 -180 -7 -10 -38 -45 -69 -79 -74 -79 -150 -193 -171
-255 -10 -28 -17 -81 -17 -120 0 -61 5 -79 30 -124 68 -118 201 -167 339 -126
65 19 118 66 172 152 113 180 250 285 434 332 74 19 125 19 1968 20 l1892 1
86 -25 c105 -31 163 -62 267 -144 160 -126 244 -284 272 -512 8 -70 10 -608 8
-2030 -4 -2138 2 -1962 -67 -2127 -71 -173 -211 -316 -388 -399 -146 -69 -7
-65 -2067 -65 -1334 0 -1878 4 -1917 12 -94 19 -171 51 -259 109 -157 104
-268 253 -321 430 -26 89 -28 160 -32 1020 l-2 565 -24 53 c-91 203 -385 217
-498 25 l-28 -48 -3 -745 c-3 -791 -2 -824 45 -1005 48 -185 120 -328 245
-486 127 -162 254 -264 448 -361 106 -53 119 -62 135 -99 23 -50 99 -120 151
-139 29 -10 113 -14 314 -17 319 -4 350 2 431 74 l47 43 1269 0 1269 0 35 -36
c18 -20 52 -45 74 -57 39 -21 51 -22 345 -22 294 0 306 1 346 22 54 29 102 79
124 129 16 37 28 46 121 92 288 141 474 320 618 596 64 120 104 239 128 371
17 94 18 225 18 2125 l0 2025 -23 113 c-55 271 -172 495 -367 700 -157 166
-414 303 -670 359 -50 10 -160 16 -391 20 l-322 5 -6 82 c-33 382 -254 654
-624 764 l-87 26 -565 2 c-329 1 -586 -2 -615 -7z m1171 -578 c64 -37 140
-121 154 -169 5 -20 10 -56 10 -79 l0 -43 -746 0 -747 0 6 65 c8 100 69 182
172 231 l50 24 525 0 525 0 51 -29z"/>
<path d="M3829 10680 c-47 -25 -86 -71 -99 -118 -24 -89 0 -153 88 -229 37
-32 69 -60 72 -63 3 -3 52 -44 110 -91 153 -123 232 -189 444 -363 196 -161
233 -185 296 -193 71 -10 160 40 197 110 16 31 56 152 89 270 10 37 21 67 24
67 6 0 76 -58 140 -116 70 -63 319 -265 374 -301 81 -55 186 -44 252 28 60 65
69 145 27 230 -24 46 -53 74 -195 189 -91 74 -212 173 -269 220 -193 160 -324
262 -361 281 -98 50 -218 -6 -267 -126 -10 -22 -34 -97 -56 -167 -21 -71 -42
-128 -47 -128 -6 0 -71 50 -146 111 -512 416 -503 409 -581 409 -35 -1 -70 -8
-92 -20z"/>
<path d="M12360 9041 c-91 -28 -186 -116 -214 -198 -20 -59 -20 -145 0 -213
23 -79 118 -172 199 -195 75 -22 174 -16 232 13 61 32 130 107 155 172 79 206
-69 432 -282 429 -36 0 -76 -4 -90 -8z"/>
<path d="M13252 9029 c-64 -25 -138 -96 -172 -164 -35 -71 -35 -178 1 -255 31
-67 98 -136 159 -164 66 -31 198 -30 258 2 63 33 114 84 148 144 26 48 29 62
29 143 0 78 -4 97 -27 140 -28 55 -96 123 -149 151 -53 28 -181 29 -247 3z"/>
<path d="M14183 9034 c-23 -9 -66 -36 -94 -62 -141 -127 -148 -337 -15 -460
75 -69 119 -87 216 -87 73 0 92 4 136 27 66 35 134 111 158 177 25 70 19 178
-12 243 -29 59 -88 121 -144 149 -56 29 -183 36 -245 13z"/>
<path d="M15153 8946 c-100 -48 -152 -166 -118 -269 23 -70 56 -111 118 -147
116 -67 271 -14 325 110 22 50 19 147 -6 196 -43 85 -105 125 -202 131 -54 3
-74 0 -117 -21z"/>
<path d="M12121 8130 c-113 -32 -107 -24 -114 -168 -10 -213 -38 -333 -123
-525 -58 -131 -130 -249 -228 -371 l-81 -101 0 -920 0 -920 23 -75 c42 -130
89 -211 179 -303 108 -111 253 -188 408 -218 99 -19 2904 -19 3009 0 89 16
207 62 270 105 116 80 228 217 278 339 59 145 59 149 56 1402 l-3 1140 -23 79
c-46 164 -117 277 -240 382 -88 75 -182 124 -296 153 -79 21 -95 21 -1565 20
-1405 0 -1489 -1 -1550 -19z m534 -410 c-44 -44 -84 -80 -90 -80 -6 0 -46 36
-90 80 l-80 80 170 0 170 0 -80 -80z m1115 72 c0 -4 -35 -42 -78 -85 l-78 -78
-75 81 c-41 45 -76 83 -78 86 -2 2 66 4 152 4 87 0 157 -3 157 -8z m984 -73
c-60 -60 -85 -79 -96 -73 -8 5 -45 42 -82 82 l-68 72 163 0 164 0 -81 -81z
m556 -15 c81 -74 121 -160 135 -291 l6 -61 -121 -119 c-67 -65 -124 -119 -128
-120 -4 -2 -69 60 -145 137 l-139 140 169 175 c92 96 171 174 175 175 5 0 26
-16 48 -36z m-2083 -451 l-141 -143 -138 138 c-76 75 -138 141 -138 146 0 5
63 71 139 147 l139 138 141 -142 140 -142 -142 -142z m1193 142 c0 -13 -263
-275 -275 -275 -6 0 -72 62 -147 137 l-138 138 142 142 143 143 137 -137 c76
-76 138 -142 138 -148z m-2243 138 c73 -76 133 -141 133 -144 0 -3 -61 -67
-136 -142 -152 -154 -141 -150 -213 -71 l-44 46 5 127 c4 102 10 140 32 200
31 89 51 121 73 121 9 0 76 -62 150 -137z m1580 -525 l143 -143 -137 -137
c-76 -76 -143 -138 -149 -138 -14 0 -276 269 -272 279 4 11 261 280 268 281 3
0 69 -64 147 -142z m1057 3 c76 -76 137 -143 135 -149 -4 -11 -104 -115 -217
-225 l-59 -59 -141 143 -140 143 137 143 c75 78 138 143 141 143 3 0 68 -62
144 -139z m-2111 -8 l137 -137 -32 -34 c-18 -19 -81 -85 -140 -145 l-108 -111
-140 141 c-77 78 -140 144 -140 147 0 9 270 276 279 276 4 0 69 -62 144 -137z
m-525 -810 c-152 -152 -144 -148 -193 -99 -66 67 -65 65 -65 249 l0 170 55 55
56 56 144 -144 145 -145 -142 -142z m1054 285 l138 -142 -128 -130 c-70 -72
-134 -136 -143 -143 -12 -9 -38 11 -153 128 -76 76 -136 143 -134 148 4 13
269 281 277 281 3 0 68 -63 143 -142z m1058 0 l141 -142 -128 -131 c-71 -72
-135 -136 -144 -142 -14 -10 -37 9 -152 125 -75 75 -137 140 -139 144 -3 7
270 288 279 288 1 0 66 -64 143 -142z m1038 19 c166 -168 166 -159 -4 -324
l-126 -122 -126 128 c-70 70 -133 135 -141 145 -13 16 -1 30 125 157 76 76
141 139 145 139 3 0 60 -56 127 -123z m-1573 -546 c74 -74 135 -138 135 -143
0 -10 -265 -278 -275 -278 -10 0 -275 270 -275 281 0 12 263 278 273 276 4 -1
69 -63 142 -136z m1062 0 l140 -139 -141 -144 -141 -144 -144 142 -145 143
140 140 c76 78 142 141 145 141 4 0 70 -63 146 -139z m-2108 -6 l135 -136
-139 -139 c-131 -131 -140 -138 -159 -124 -28 19 -266 257 -266 265 0 16 259
269 276 269 10 0 77 -59 153 -135z m-537 -515 c73 -77 134 -144 136 -148 1 -4
-61 -70 -139 -147 l-140 -140 -34 40 c-54 63 -67 111 -72 278 l-6 149 54 54
c29 30 57 54 60 54 4 0 67 -63 141 -140z m3164 9 l109 -109 -2 -79 c-4 -109
-30 -176 -100 -251 -30 -33 -63 -60 -73 -60 -14 0 -166 147 -349 335 -2 2 58
69 134 149 115 121 140 143 154 134 9 -6 66 -59 127 -119z m-2101 -19 c76 -76
137 -141 135 -144 -3 -3 -68 -68 -145 -146 l-140 -141 -137 143 c-75 79 -136
146 -135 149 5 15 262 279 271 279 6 0 74 -63 151 -140z m1035 22 c171 -177
157 -155 125 -194 -15 -18 -77 -84 -138 -147 l-110 -115 -139 143 c-76 78
-138 146 -138 150 0 10 266 281 276 281 5 0 61 -53 124 -118z m-1706 -580
c-92 -1 -169 0 -172 3 -3 3 32 44 78 90 l85 85 88 -87 87 -88 -166 -3z m1214
3 c-3 -3 -78 -4 -167 -3 l-163 3 82 87 82 87 86 -84 c47 -47 83 -87 80 -90z
m982 83 c44 -45 80 -84 80 -85 0 -2 -78 -3 -172 -3 l-173 0 85 85 c47 47 88
85 92 85 4 0 44 -37 88 -82z"/>
</g>
</svg>
