<?xml version="1.0" standalone="no"?>
<!DOCTYPE svg PUBLIC "-//W3C//DTD SVG 20010904//EN"
 "http://www.w3.org/TR/2001/REC-SVG-20010904/DTD/svg10.dtd">
<svg version="1.0" xmlns="http://www.w3.org/2000/svg"
 width="2048.000000pt" height="2048.000000pt" viewBox="0 0 2048.000000 2048.000000"
 preserveAspectRatio="xMidYMid meet">
<metadata>
Created by potrace 1.16, written by Peter Selinger 2001-2019
</metadata>
<g transform="translate(0.000000,2048.000000) scale(0.100000,-0.100000)"
fill="#18bcf2" stroke="none">
<path d="M13653 16540 c-89 -21 -143 -91 -143 -186 0 -69 37 -119 140 -186 44
-29 78 -57 77 -61 -1 -5 -44 -26 -96 -47 l-93 -38 -201 134 c-111 74 -218 139
-238 146 -96 28 -205 -44 -216 -145 -12 -105 18 -154 147 -237 44 -28 80 -52
80 -55 0 -2 -25 -18 -56 -36 -102 -58 -141 -104 -266 -309 -25 -41 -103 -167
-173 -280 -70 -113 -188 -304 -262 -425 -75 -121 -172 -278 -216 -350 -361
-585 -498 -809 -522 -854 -16 -28 -33 -55 -39 -60 -6 -5 -82 -21 -168 -35
-1004 -164 -1935 -590 -2678 -1224 -247 -211 -560 -545 -731 -782 -435 -600
-655 -1174 -676 -1765 -13 -374 63 -736 221 -1050 131 -259 284 -464 508 -681
499 -482 1290 -862 2018 -968 196 -29 455 -41 612 -28 443 37 818 154 1153
360 338 208 666 544 857 877 148 261 158 280 239 480 96 240 192 636 223 930
20 181 32 480 20 488 -5 3 -50 -3 -99 -13 -119 -24 -202 -35 -492 -65 -273
-28 -328 -38 -348 -69 -8 -11 -25 -67 -40 -124 -33 -134 -146 -471 -197 -592
-221 -521 -508 -924 -883 -1240 -170 -144 -458 -306 -654 -369 -409 -132 -846
-116 -1256 46 -210 83 -450 210 -600 319 -479 347 -765 764 -872 1269 -24 118
-27 150 -27 345 -1 182 3 234 22 340 91 497 299 939 648 1376 356 445 725 770
1229 1081 181 112 598 313 815 393 167 62 367 130 485 164 122 36 386 99 391
93 3 -3 -223 -381 -255 -426 -20 -28 -148 -236 -244 -396 -101 -169 -269 -439
-284 -457 -8 -9 -34 -19 -56 -23 -68 -10 -200 -54 -250 -83 -165 -95 -305
-280 -353 -467 -26 -100 -24 -294 4 -396 58 -216 197 -389 392 -488 209 -107
413 -117 634 -32 236 91 419 312 472 568 20 94 15 244 -12 350 l-18 72 90 146
c49 80 144 237 212 348 68 111 126 208 129 216 4 8 36 62 73 120 36 58 115
189 175 290 l109 183 18 -53 c102 -297 197 -885 214 -1321 l7 -177 56 4 c373
32 464 45 585 80 83 25 81 20 62 126 -70 381 -227 858 -428 1298 -76 166 -95
203 -194 387 -30 55 -42 88 -37 100 3 11 34 64 68 119 34 55 113 186 175 290
62 105 152 253 200 330 48 77 200 327 337 555 138 228 293 487 346 575 122
201 143 224 247 264 45 17 85 31 89 31 5 0 90 -58 190 -129 100 -72 198 -135
218 -142 148 -48 281 110 214 256 -22 49 -65 88 -154 140 -37 21 -67 42 -67
45 0 5 65 34 155 69 l50 19 75 -55 c102 -73 287 -196 329 -218 41 -21 119 -22
158 -2 59 31 103 104 103 169 -1 45 -31 109 -67 138 -36 30 -119 91 -145 106
-31 19 -30 21 26 48 134 65 188 195 130 309 -27 50 -52 71 -237 191 -222 144
-269 167 -350 173 -64 5 -106 -6 -279 -73 l-47 -18 -147 99 c-272 186 -287
193 -361 175z"/>
<path d="M9385 15244 c-505 -53 -880 -200 -1605 -628 -91 -54 -187 -112 -215
-129 -27 -17 -120 -73 -205 -125 -85 -52 -193 -118 -240 -147 -269 -165 -647
-369 -868 -470 -765 -348 -1520 -514 -2407 -528 -208 -4 -229 -9 -278 -67 -15
-17 -31 -47 -37 -68 -14 -53 -14 -1044 1 -1097 7 -23 28 -57 53 -81 36 -36 49
-43 99 -49 101 -13 1053 2 1292 19 866 64 1492 177 2250 405 268 81 361 113
620 216 259 103 464 195 705 318 1005 513 1358 926 1130 1323 -16 28 -77 103
-135 165 -154 166 -205 251 -205 345 0 146 86 243 215 244 152 0 441 -70 684
-167 213 -84 564 -262 811 -409 340 -204 340 -204 388 -204 145 0 223 143 149
275 -30 54 -97 97 -577 370 -433 247 -837 406 -1180 464 -120 21 -359 34 -445
25z"/>
<path d="M16700 14748 c-50 -27 -75 -64 -116 -173 -108 -283 -321 -563 -544
-715 -131 -89 -266 -140 -440 -166 -155 -23 -316 -14 -590 31 -287 48 -438 59
-587 45 -449 -42 -744 -242 -893 -606 l-33 -82 -51 30 c-28 17 -69 42 -91 57
-22 15 -91 58 -153 96 -93 56 -123 69 -165 72 -44 4 -59 0 -95 -24 -81 -53
-107 -164 -56 -238 14 -21 35 -46 47 -56 17 -14 406 -260 513 -325 17 -10 22
-26 27 -86 8 -89 58 -268 122 -433 155 -400 181 -556 129 -759 -30 -115 -116
-252 -206 -329 -71 -60 -214 -152 -285 -183 -154 -68 -367 -111 -668 -134
-318 -24 -582 -74 -752 -141 -95 -37 -247 -122 -334 -185 -246 -181 -454 -480
-563 -808 -64 -194 -67 -263 -15 -338 49 -69 169 -87 247 -35 43 28 42 25 106
227 77 243 165 395 313 546 219 223 466 321 908 359 515 46 706 85 950 199
275 129 505 356 602 596 59 145 75 215 80 366 8 206 -20 333 -154 689 -96 258
-113 327 -120 495 -5 117 -3 147 16 220 39 154 133 276 276 355 110 62 206 86
370 92 145 5 182 2 540 -52 437 -66 745 -35 1028 103 157 77 276 162 402 287
205 204 368 455 462 715 28 77 34 104 29 143 -10 94 -70 155 -159 164 -42 4
-60 0 -97 -19z"/>
<path d="M14320 12598 c-131 -68 -132 -245 -1 -317 153 -84 635 -229 1011
-305 381 -76 989 -132 1351 -124 165 3 166 3 204 32 77 59 95 165 41 246 -47
72 -67 77 -361 83 -755 18 -1475 145 -2005 354 -143 57 -180 62 -240 31z"/>
<path d="M4954 11538 c-86 -28 -448 -334 -769 -648 -115 -113 -287 -274 -382
-359 -187 -167 -213 -203 -213 -296 0 -84 24 -114 225 -287 55 -48 158 -145
228 -215 l128 -129 -26 -80 c-109 -335 -49 -689 167 -975 112 -149 233 -245
427 -337 64 -30 117 -56 119 -58 2 -1 -5 -40 -15 -86 -14 -67 -18 -126 -18
-303 0 -205 2 -227 27 -325 65 -257 160 -431 337 -614 106 -109 221 -191 339
-242 l77 -33 3 -103 c2 -57 -4 -229 -13 -382 -9 -154 -14 -299 -10 -323 5 -33
17 -55 48 -88 60 -62 91 -68 294 -56 93 6 224 13 293 16 69 3 168 8 220 11
l96 6 46 -95 c105 -210 291 -413 486 -528 239 -142 478 -199 772 -186 116 6
240 23 300 42 13 4 21 -5 35 -42 105 -281 334 -521 614 -644 222 -98 492 -111
724 -35 43 14 80 26 83 26 8 0 88 -83 259 -270 252 -277 282 -305 342 -319 94
-23 152 5 255 124 77 88 237 262 349 379 l85 89 80 -26 c132 -43 184 -51 314
-50 258 1 476 79 689 248 126 100 258 279 324 438 l32 79 35 -6 c290 -51 510
-48 733 10 202 52 410 178 578 351 112 115 163 186 224 312 l50 102 150 -6
c83 -3 168 -8 190 -10 61 -6 416 -20 448 -17 65 5 140 67 156 130 8 29 7 127
-4 363 -8 178 -15 354 -15 392 0 65 1 68 28 78 15 5 63 28 107 49 224 111 454
361 556 604 116 279 136 567 63 914 -6 30 -4 33 25 43 125 44 323 165 413 253
152 148 276 372 312 566 20 102 21 285 2 382 -8 40 -26 106 -41 147 l-27 74
114 114 c62 63 174 169 248 235 146 131 182 168 206 212 20 37 20 136 0 175
-9 16 -91 99 -183 183 -93 84 -247 229 -343 323 -253 248 -298 289 -475 440
-294 251 -347 284 -429 265 -84 -19 -136 -84 -136 -169 0 -89 9 -99 247 -288
61 -49 154 -126 207 -172 l96 -84 -164 -159 c-91 -87 -185 -185 -209 -218 -55
-73 -83 -164 -74 -245 11 -104 40 -147 241 -356 102 -105 186 -197 186 -204 0
-12 -148 -147 -265 -240 -277 -221 -477 -322 -625 -313 -107 6 -147 45 -173
170 -25 117 -91 174 -192 166 -104 -9 -160 -82 -159 -208 1 -135 57 -264 150
-349 101 -92 250 -145 399 -140 129 4 324 69 480 161 116 68 323 220 445 326
75 65 118 97 125 91 6 -6 10 -61 9 -127 -1 -99 -5 -129 -28 -197 -41 -119 -97
-209 -195 -305 -106 -105 -217 -164 -391 -210 -131 -34 -156 -49 -188 -111
-27 -51 -25 -99 9 -196 66 -190 86 -337 69 -495 -39 -352 -227 -631 -513 -763
-262 -120 -556 -111 -827 25 -182 92 -320 267 -381 485 -28 100 -31 284 -6
387 53 218 197 374 401 433 75 22 217 22 293 0 144 -42 264 -138 324 -260 32
-66 34 -75 34 -180 0 -100 -3 -115 -27 -165 -53 -107 -121 -155 -218 -154
-143 1 -214 110 -138 215 43 60 50 130 17 188 -27 49 -53 67 -111 80 -75 17
-134 -2 -195 -64 -44 -46 -56 -66 -79 -140 -23 -75 -26 -98 -22 -179 5 -84 9
-102 46 -179 48 -98 109 -160 207 -209 236 -120 504 -80 685 102 167 166 235
410 184 658 -29 145 -87 253 -199 378 -229 255 -611 348 -960 233 -135 -45
-208 -90 -311 -193 -141 -142 -207 -254 -270 -461 -26 -85 -28 -101 -28 -285
0 -179 2 -203 26 -290 14 -52 24 -96 23 -98 -2 -2 -13 1 -24 7 -34 19 -199 50
-296 57 -216 15 -471 -51 -651 -168 -269 -175 -417 -450 -417 -773 0 -300 140
-566 384 -733 129 -87 261 -125 439 -126 142 -1 221 18 341 80 147 77 265 211
310 353 65 203 16 434 -120 570 -110 110 -202 146 -360 139 -93 -4 -116 -8
-172 -35 -82 -38 -123 -73 -159 -137 -32 -55 -40 -128 -19 -169 34 -65 97
-107 161 -107 43 0 66 11 131 63 94 75 211 2 210 -132 0 -78 -33 -142 -97
-193 -71 -56 -128 -79 -216 -85 -256 -18 -480 224 -480 517 0 159 51 282 165
396 77 78 186 138 305 170 96 26 262 24 369 -5 273 -73 466 -255 556 -525 111
-331 37 -671 -200 -924 -274 -294 -679 -377 -1102 -228 -123 44 -211 29 -260
-43 -12 -18 -36 -78 -52 -134 -116 -385 -388 -620 -716 -619 -150 0 -149 -3
-28 142 219 263 364 485 427 653 76 203 74 422 -6 559 -129 218 -479 337 -597
203 -44 -51 -56 -103 -37 -170 25 -84 58 -105 208 -135 139 -27 171 -156 88
-351 -44 -104 -130 -245 -230 -377 -95 -127 -267 -323 -288 -330 -8 -2 -97 80
-202 184 -219 219 -257 244 -372 251 -59 4 -85 1 -132 -17 -52 -20 -81 -44
-258 -219 -110 -108 -204 -198 -209 -200 -15 -5 -42 22 -174 176 -124 144
-268 349 -323 458 -123 246 -81 435 97 435 148 0 223 173 124 291 -36 43 -74
59 -137 59 -234 0 -442 -160 -501 -385 -39 -152 0 -362 106 -566 64 -124 226
-362 320 -472 46 -54 97 -113 113 -132 15 -18 25 -38 22 -44 -11 -17 -187 -13
-269 5 -82 19 -138 43 -216 92 -65 41 -160 129 -206 192 -54 74 -121 219 -145
314 -51 206 -123 242 -341 171 -310 -100 -572 -83 -832 53 -165 86 -300 225
-390 399 -67 131 -88 212 -94 379 -5 129 -4 149 21 245 36 142 109 288 188
373 241 263 611 335 927 179 330 -163 411 -609 161 -877 -67 -71 -130 -109
-221 -132 -148 -38 -327 26 -394 140 -51 86 -42 194 22 253 29 28 42 33 84 33
44 0 54 -4 91 -40 49 -46 72 -54 133 -48 121 14 187 161 121 271 -72 122 -201
182 -380 175 -89 -3 -110 -8 -171 -36 -209 -98 -332 -360 -281 -602 53 -255
260 -446 536 -496 104 -19 189 -17 295 6 163 34 278 95 399 209 146 139 232
321 258 543 20 177 -13 348 -103 525 -106 213 -298 366 -569 457 -195 65 -402
70 -620 15 -45 -12 -83 -19 -85 -17 -2 2 5 39 15 83 67 288 44 516 -77 775
-154 330 -487 529 -849 506 -398 -25 -711 -264 -806 -615 -28 -102 -29 -286
-4 -386 61 -234 253 -430 464 -474 253 -52 516 66 615 276 27 60 32 81 35 170
5 121 -17 211 -71 289 -41 60 -119 104 -181 104 -55 0 -125 -36 -153 -79 -33
-49 -32 -126 3 -177 38 -56 54 -97 47 -125 -39 -153 -277 -150 -368 5 -165
282 57 628 425 661 249 22 481 -141 561 -395 91 -287 14 -594 -202 -811 -56
-55 -90 -79 -181 -124 -163 -80 -239 -98 -423 -99 -128 -1 -163 2 -234 22
-324 88 -544 311 -638 647 -20 73 -26 118 -29 235 -4 170 10 264 63 420 27 81
34 115 29 148 -13 97 -62 143 -181 167 -155 32 -297 101 -396 193 -108 99
-188 232 -223 369 -16 62 -21 242 -8 275 6 13 23 2 92 -59 98 -86 313 -250
415 -315 103 -67 205 -115 324 -155 239 -80 464 -42 621 104 132 122 187 343
117 468 -44 77 -145 107 -227 65 -53 -27 -79 -68 -91 -142 -21 -127 -76 -178
-192 -178 -141 0 -292 73 -547 266 -76 57 -249 206 -328 281 -10 10 25 49 174
200 202 203 236 252 249 358 9 66 -9 155 -43 218 -15 29 -99 122 -204 229 -98
99 -178 184 -178 187 0 18 234 221 406 352 66 51 106 89 117 112 38 79 8 178
-66 222 -53 30 -99 38 -143 23z m-406 -1127 c84 -90 152 -169 150 -177 -4 -19
-307 -334 -321 -334 -6 0 -61 51 -123 113 -61 61 -139 139 -173 171 l-63 60
53 50 c30 28 110 104 178 169 69 65 129 116 135 114 6 -2 80 -77 164 -166z
m11617 115 c17 -17 93 -89 168 -160 l138 -130 -78 -70 c-43 -39 -125 -116
-182 -172 l-105 -102 -155 160 c-86 88 -160 169 -165 180 -8 16 14 43 154 183
179 179 164 172 225 111z m-9657 -4053 c-36 -129 -50 -228 -52 -360 -1 -122
-3 -133 -19 -133 -40 0 -414 -20 -451 -24 l-39 -4 8 146 c4 81 9 196 11 255
l4 108 117 3 c127 4 285 28 373 56 30 10 58 18 61 19 4 1 -2 -29 -13 -66z
m7586 32 c111 -28 294 -50 365 -43 l49 5 6 -91 c3 -50 8 -158 12 -239 4 -81 7
-156 8 -165 1 -19 -9 -19 -294 -1 -85 5 -167 9 -181 9 l-26 0 -6 158 c-5 145
-31 306 -63 386 -6 15 -4 17 13 12 11 -4 63 -17 117 -31z m-3680 -1955 c92
-93 166 -174 164 -179 -1 -5 -59 -70 -128 -143 -69 -73 -144 -155 -167 -181
l-42 -48 -43 48 c-95 106 -156 172 -226 245 -50 52 -71 81 -65 90 11 18 327
338 333 338 3 0 81 -76 174 -170z"/>
<path d="M6603 11511 c-68 -17 -118 -71 -128 -141 -45 -297 -194 -525 -410
-631 -112 -54 -191 -73 -291 -66 -139 8 -204 52 -259 171 -47 103 -90 137
-174 138 -112 0 -192 -91 -176 -200 24 -160 136 -309 296 -392 106 -55 189
-73 329 -73 398 2 744 234 930 625 72 152 114 345 96 442 -7 36 -53 99 -85
115 -26 14 -94 20 -128 12z"/>
<path d="M15065 10968 c-44 -24 -69 -56 -105 -134 -56 -120 -121 -163 -252
-164 -106 0 -210 28 -328 88 -94 49 -109 53 -149 48 -59 -8 -106 -39 -136 -90
-29 -49 -33 -112 -11 -155 35 -66 157 -142 318 -196 292 -97 572 -55 747 115
115 112 187 278 160 374 -12 43 -51 91 -90 111 -33 17 -125 19 -154 3z"/>
<path d="M9200 10344 c-160 -24 -242 -68 -295 -158 -117 -200 45 -548 382
-824 235 -192 453 -303 718 -365 261 -61 435 -39 554 69 68 61 85 104 85 209
0 108 -22 183 -91 300 -143 246 -361 444 -655 595 -185 96 -356 149 -540 169
-97 11 -112 11 -158 5z"/>
<path d="M5612 10145 c-169 -38 -320 -155 -395 -306 -74 -150 -66 -244 25
-312 37 -28 118 -34 172 -13 56 21 69 37 96 111 30 81 58 115 121 150 44 24
69 30 138 33 104 6 173 -9 276 -58 132 -63 263 -192 333 -328 47 -90 69 -159
83 -260 13 -91 30 -133 69 -165 29 -25 86 -47 121 -47 39 0 111 34 133 64 42
56 50 98 36 200 -17 123 -51 230 -116 356 -141 276 -357 465 -634 555 -75 25
-102 29 -240 31 -107 2 -174 -1 -218 -11z"/>
<path d="M14530 10153 c-14 -2 -65 -15 -114 -29 -166 -47 -281 -118 -421 -258
-109 -109 -156 -174 -223 -306 -81 -161 -135 -386 -112 -471 33 -123 194 -177
287 -96 46 41 58 68 72 165 21 144 53 226 134 347 70 105 161 185 267 237 111
55 190 72 297 66 133 -8 207 -60 249 -173 26 -73 41 -92 88 -115 132 -64 278
35 259 177 -13 98 -87 229 -173 306 -63 56 -189 122 -271 142 -60 14 -273 19
-339 8z"/>
<path d="M8647 9316 c-108 -40 -158 -166 -104 -261 32 -56 93 -97 742 -493
121 -74 244 -150 274 -169 95 -63 180 -103 219 -103 86 1 173 75 187 159 17
99 -32 164 -196 262 -52 31 -168 103 -259 159 -91 57 -232 145 -315 195 -82
51 -195 120 -249 154 -174 109 -224 125 -299 97z"/>
<path d="M9050 6809 c-67 -38 -106 -124 -90 -195 18 -77 94 -144 164 -144 140
0 386 -119 504 -243 156 -166 223 -396 162 -559 -26 -70 -68 -110 -153 -144
-109 -45 -159 -121 -138 -214 43 -192 290 -183 491 20 119 119 168 239 177
431 18 385 -219 759 -605 953 -196 99 -431 142 -512 95z"/>
<path d="M11203 6814 c-95 -20 -267 -88 -355 -140 -191 -112 -339 -269 -433
-459 -71 -143 -95 -233 -102 -370 -14 -290 103 -513 329 -625 69 -34 100 -43
155 -47 62 -4 72 -2 111 24 85 56 103 152 48 247 -22 38 -35 48 -87 67 -89 32
-132 68 -165 136 -27 53 -29 67 -28 168 0 94 4 120 26 177 103 261 354 442
668 483 62 8 105 36 131 87 46 88 16 199 -66 245 -47 27 -132 29 -232 7z"/>
</g>
</svg>
