<?xml version="1.0" standalone="no"?>
<!DOCTYPE svg PUBLIC "-//W3C//DTD SVG 20010904//EN"
 "http://www.w3.org/TR/2001/REC-SVG-20010904/DTD/svg10.dtd">
<svg version="1.0" xmlns="http://www.w3.org/2000/svg"
 width="2048.000000pt" height="2048.000000pt" viewBox="0 0 2048.000000 2048.000000"
 preserveAspectRatio="xMidYMid meet">
<metadata>
Created by potrace 1.16, written by Peter Selinger 2001-2019
</metadata>
<g transform="translate(0.000000,2048.000000) scale(0.100000,-0.100000)"
fill="#18bcf2" stroke="none">
<path d="M10010 17064 c-174 -8 -418 -26 -535 -40 -418 -47 -988 -174 -1390
-309 -314 -106 -835 -330 -835 -358 1 -21 183 -242 270 -327 251 -247 458
-410 725 -570 384 -231 820 -387 1340 -479 144 -26 347 -42 575 -48 406 -10
722 28 1123 133 753 197 1339 558 1830 1127 66 77 117 148 117 165 0 9 -215
115 -345 170 -565 242 -1318 439 -1915 502 -257 26 -746 44 -960 34z m-1137
-687 c194 -115 406 -198 664 -263 220 -55 370 -74 620 -81 442 -12 819 54
1188 209 102 43 132 58 290 143 130 71 204 66 255 -18 28 -46 27 -125 -2 -163
-31 -40 -40 -47 -149 -109 -249 -143 -626 -274 -953 -330 -443 -76 -940 -54
-1366 61 -322 87 -720 265 -815 364 -27 28 -30 38 -30 93 0 72 23 113 77 141
55 28 114 15 221 -47z"/>
<path d="M6785 16112 c-291 -177 -676 -451 -875 -621 -405 -348 -735 -691
-1026 -1066 -380 -490 -667 -969 -901 -1504 -86 -197 -196 -491 -248 -661 -14
-47 -34 -112 -45 -145 -68 -215 -174 -732 -215 -1050 -52 -410 -57 -501 -62
-1212 l-5 -673 208 0 c115 0 432 -1 704 -2 489 -3 495 -3 536 -25 43 -23 91
-77 112 -126 38 -89 -5 -225 -88 -282 l-45 -30 -710 -5 -710 -5 -3 -2530 c-2
-1908 0 -2544 9 -2585 14 -69 56 -123 120 -155 l48 -25 494 0 c537 0 563 2
657 57 68 40 143 116 174 177 54 107 58 137 63 466 8 513 -35 1154 -118 1745
-24 169 -35 231 -104 565 -124 602 -362 1300 -616 1804 -62 121 -77 161 -67
167 7 4 82 7 167 6 125 -2 155 -5 162 -17 20 -37 150 -324 184 -405 238 -573
384 -1060 514 -1720 79 -398 149 -987 166 -1390 4 -82 9 -161 11 -175 3 -14 6
-191 8 -395 l3 -370 309 0 c332 0 341 1 463 58 59 27 171 139 198 198 34 72
53 160 53 241 0 74 -51 444 -90 658 -12 63 -29 162 -40 220 -43 246 -138 626
-233 935 -74 238 -199 601 -246 710 -5 11 -19 45 -31 75 -123 313 -425 924
-555 1125 -18 28 -64 100 -103 162 l-71 112 57 31 c184 98 285 249 299 447 11
152 -39 299 -138 407 l-51 56 239 237 c132 131 260 261 284 288 24 28 75 85
113 128 38 43 78 90 90 105 11 15 29 36 39 47 32 35 246 312 303 392 174 247
318 471 435 678 34 61 83 148 109 195 58 102 207 409 260 535 21 50 57 133 80
185 88 201 259 683 349 985 36 119 83 292 132 485 120 471 253 1251 286 1669
l6 77 -59 44 c-235 176 -537 466 -707 678 -54 67 -104 122 -110 122 -7 0 -84
-44 -172 -98z m-432 -1569 c75 -58 77 -99 21 -518 -72 -548 -115 -795 -210
-1205 -119 -516 -308 -1120 -496 -1585 -97 -240 -306 -687 -398 -850 -12 -22
-51 -93 -86 -158 -35 -64 -85 -152 -112 -195 -27 -42 -77 -124 -111 -182 -70
-117 -203 -316 -229 -342 -14 -14 -46 -17 -195 -20 -97 -3 -179 -2 -182 0 -4
5 48 83 144 212 258 347 638 1047 841 1545 185 455 257 660 375 1070 100 345
109 381 205 815 47 216 106 574 145 890 2 19 9 71 14 115 10 79 14 110 26 230
9 85 21 126 47 156 34 38 58 48 114 49 40 0 58 -6 87 -27z m-1546 -1862 c62
-45 67 -67 59 -259 -3 -92 -9 -183 -11 -202 -2 -19 -11 -98 -20 -175 -20 -175
-85 -551 -131 -752 -61 -271 -171 -661 -235 -828 -10 -27 -47 -129 -83 -225
-98 -266 -196 -501 -283 -673 l-44 -88 -164 1 c-91 1 -165 6 -165 10 0 5 46
102 103 217 210 427 418 1006 527 1473 39 164 62 266 66 290 3 14 13 70 24
125 66 346 96 573 119 902 10 138 19 161 79 192 55 30 111 27 159 -8z"/>
<path d="M13500 16201 c0 -22 -213 -272 -344 -404 -147 -149 -257 -245 -414
-362 l-94 -70 7 -80 c25 -321 129 -964 224 -1390 79 -351 107 -458 203 -775
125 -416 260 -784 402 -1105 8 -16 28 -64 46 -105 36 -82 168 -350 248 -500
89 -168 146 -267 304 -522 111 -180 417 -593 573 -774 61 -69 126 -145 145
-167 99 -116 301 -325 430 -446 80 -75 145 -139 145 -143 0 -3 -23 -30 -51
-60 -107 -113 -150 -231 -141 -388 8 -155 63 -269 177 -372 33 -31 88 -70 121
-88 58 -31 60 -33 45 -53 -9 -12 -37 -57 -63 -100 -27 -43 -61 -99 -77 -125
-127 -205 -359 -655 -476 -922 -234 -535 -433 -1145 -560 -1721 -33 -146 -67
-329 -125 -658 -2 -13 -7 -43 -10 -65 -3 -23 -12 -88 -20 -146 -36 -256 -28
-349 41 -480 70 -134 212 -231 364 -248 57 -6 352 -8 580 -2 13 0 15 34 16
263 0 246 10 595 19 662 2 17 6 84 10 150 7 141 9 160 41 455 42 382 115 823
189 1135 8 33 24 101 35 150 33 137 146 532 186 647 117 339 196 537 319 803
21 44 48 105 62 135 13 30 28 57 33 60 12 7 318 5 326 -2 3 -3 -28 -72 -68
-154 -373 -756 -645 -1702 -757 -2634 -68 -565 -90 -917 -86 -1440 1 -314 3
-351 22 -412 53 -175 184 -299 350 -329 32 -6 250 -9 546 -7 l492 3 43 25 c52
29 99 97 107 154 3 22 4 1182 3 2576 l-3 2535 -706 5 -706 5 -49 30 c-35 22
-57 46 -78 84 -64 120 -22 260 98 324 l41 22 690 2 c380 1 696 2 704 2 12 1
13 101 7 664 -3 364 -8 689 -11 722 -3 33 -10 116 -16 185 -34 425 -130 966
-224 1270 -109 353 -125 404 -184 565 -52 143 -98 257 -156 380 -26 55 -64
139 -86 187 -82 185 -285 546 -435 773 -384 584 -804 1065 -1310 1501 -312
270 -720 563 -999 717 -117 66 -145 77 -145 58z m790 -1646 c56 -29 70 -63 85
-212 8 -76 19 -167 24 -203 6 -36 13 -90 16 -120 11 -99 76 -511 101 -645 79
-419 204 -922 325 -1304 90 -285 277 -788 360 -969 16 -35 29 -66 29 -69 0 -9
267 -543 311 -623 170 -306 389 -647 547 -853 24 -32 41 -61 37 -65 -4 -4 -86
-7 -182 -8 l-175 0 -30 40 c-256 350 -615 998 -845 1526 -185 421 -392 1039
-518 1539 -120 481 -230 1073 -279 1506 -3 28 -10 88 -16 135 -16 138 -13 230
10 268 40 65 132 92 200 57z m1517 -1856 c39 -14 81 -57 92 -93 6 -17 15 -96
21 -176 9 -128 53 -509 65 -572 3 -13 12 -63 20 -113 22 -126 43 -239 60 -315
8 -36 26 -119 41 -185 54 -251 119 -465 267 -880 99 -277 160 -421 278 -657
87 -174 105 -217 93 -222 -9 -3 -85 -6 -169 -6 l-153 0 -20 43 c-270 575 -382
869 -534 1407 -57 203 -101 401 -167 755 -47 248 -82 582 -85 787 -1 143 0
147 24 173 55 60 107 77 167 54z"/>
<path d="M9304 14658 c-23 -29 -50 -71 -61 -93 -50 -99 -187 -578 -318 -1106
-13 -53 -42 -141 -63 -195 -43 -107 -243 -544 -450 -979 -49 -104 -110 -233
-134 -285 -25 -52 -89 -189 -143 -305 -128 -275 -151 -325 -258 -550 -90 -190
-197 -430 -197 -442 0 -10 147 4 287 27 314 52 595 148 875 297 154 82 217
123 398 258 217 161 320 202 490 192 182 -11 349 -96 451 -232 26 -35 46 -52
51 -47 6 6 27 43 48 83 117 226 335 354 570 334 136 -11 214 -46 385 -172 288
-212 367 -262 568 -358 251 -120 567 -213 852 -250 28 -3 60 -9 73 -12 12 -3
22 -1 22 5 0 5 -34 81 -76 168 -142 296 -232 488 -332 704 -55 118 -173 370
-262 560 -89 190 -179 383 -200 430 -20 47 -79 175 -130 285 -157 341 -144
302 -300 895 -27 102 -60 223 -73 270 -14 47 -27 99 -31 115 -12 55 -88 280
-108 318 -11 22 -38 59 -61 84 l-41 45 -56 -7 c-30 -3 -91 -13 -135 -20 -279
-47 -815 -65 -1100 -37 -117 12 -430 56 -480 68 -15 4 -30 -8 -61 -48z m1230
-874 c180 -28 430 -123 536 -202 109 -82 199 -194 221 -276 42 -154 -20 -309
-174 -434 -151 -124 -368 -208 -639 -248 -199 -29 -490 -11 -688 42 -154 42
-323 124 -416 202 -145 121 -200 229 -192 373 4 68 9 85 45 146 130 218 422
363 823 408 138 16 346 11 484 -11z"/>
<path d="M10717 11296 c-79 -29 -132 -77 -176 -164 -36 -72 -176 -458 -243
-670 -34 -111 -65 -202 -68 -202 -3 0 -22 53 -42 118 -64 209 -185 556 -212
610 -62 122 -153 182 -275 182 -94 0 -154 -24 -244 -97 -219 -176 -368 -271
-619 -392 -311 -150 -651 -242 -1033 -280 -132 -13 -446 -13 -555 -1 -206 24
-336 -45 -385 -204 -25 -83 -19 -149 36 -367 184 -739 380 -1278 593 -1630
125 -205 306 -411 474 -536 335 -252 822 -423 1203 -423 248 0 410 79 645 314
168 168 281 321 387 524 l54 102 60 -97 c135 -217 324 -434 480 -552 92 -70
232 -138 323 -157 106 -23 333 -13 498 21 242 50 521 161 711 282 264 169 431
343 640 668 58 89 199 380 265 542 100 250 247 693 311 943 20 80 46 177 57
215 55 190 18 342 -103 422 -37 24 -154 57 -169 48 -15 -9 -442 -12 -545 -4
-349 27 -703 118 -1065 274 -178 76 -373 191 -549 324 -62 47 -139 105 -170
128 -90 68 -196 90 -284 59z m-1017 -440 c0 -1 25 -75 56 -162 126 -360 168
-498 243 -799 99 -394 114 -481 136 -795 6 -94 -10 -310 -31 -415 -20 -100
-83 -281 -140 -403 -145 -312 -486 -677 -675 -722 -112 -27 -361 4 -584 72
-128 39 -376 160 -486 236 -262 184 -479 474 -640 854 -111 261 -300 854 -389
1218 -43 176 -48 163 63 153 197 -17 562 -7 777 23 417 58 878 220 1224 431
162 99 381 255 416 297 11 14 30 22 30 12z m1313 -845 c122 -84 209 -93 328
-36 42 20 89 35 110 35 50 0 99 -36 127 -92 44 -88 5 -161 -122 -223 -168 -83
-325 -83 -495 1 -152 75 -217 156 -196 241 27 111 144 146 248 74z m1197 -229
c24 -13 45 -39 70 -85 70 -132 140 -180 259 -179 124 1 193 -43 206 -132 30
-198 -308 -238 -537 -63 -78 60 -89 71 -135 135 -51 70 -83 146 -83 195 1 107
125 180 220 129z m-726 -892 c133 -41 225 -95 314 -182 154 -151 255 -405 198
-494 -10 -14 -34 -32 -53 -40 -61 -26 -100 -11 -238 88 -238 169 -418 228
-720 232 -97 2 -169 7 -182 14 -41 22 -63 62 -63 114 0 45 4 52 45 92 92 89
277 176 419 196 88 13 200 4 280 -20z"/>
<path d="M9305 9939 c-183 -45 -377 -248 -379 -396 -2 -87 59 -148 149 -148
70 0 99 22 148 110 47 86 62 103 112 126 49 23 106 24 171 4 104 -31 179 -9
217 65 27 52 19 132 -18 169 -50 54 -116 74 -245 77 -63 2 -133 -1 -155 -7z"/>
<path d="M8063 9569 c-109 -18 -210 -73 -289 -155 -43 -45 -84 -120 -84 -154
0 -69 81 -150 151 -150 56 0 80 12 134 69 66 68 111 91 184 91 48 0 70 -7 136
-41 64 -34 85 -40 117 -36 49 7 83 29 109 70 28 46 32 69 19 115 -15 58 -49
94 -128 135 -114 60 -221 77 -349 56z"/>
<path d="M9515 8846 c-16 -8 -58 -46 -92 -84 -200 -225 -606 -341 -911 -261
-78 20 -95 21 -130 11 -54 -16 -80 -40 -96 -85 -16 -47 -7 -108 21 -146 41
-55 213 -163 330 -207 235 -89 502 -65 702 63 112 72 245 220 306 343 72 143
90 234 61 305 -28 65 -118 94 -191 61z"/>
<path d="M13912 8505 c-75 -34 -89 -64 -96 -225 -6 -118 -25 -307 -42 -419
-17 -110 -78 -380 -104 -461 -16 -52 -30 -98 -30 -102 0 -16 -116 -301 -160
-393 -169 -355 -465 -731 -785 -995 -127 -105 -150 -137 -149 -202 1 -113 118
-178 224 -123 96 49 425 363 570 544 19 24 59 74 88 110 134 167 320 489 410
711 109 268 172 497 226 816 56 329 73 603 41 664 -36 69 -127 105 -193 75z"/>
<path d="M6439 8084 c-45 -28 -71 -78 -71 -135 0 -57 10 -74 146 -244 209
-259 516 -580 766 -799 69 -61 130 -115 135 -121 26 -29 214 -176 445 -347
413 -306 1056 -660 1525 -838 392 -149 877 -290 1003 -290 65 0 126 50 139
115 13 61 5 90 -35 135 -37 41 -38 41 -237 90 -283 69 -716 211 -906 298 -25
12 -68 30 -96 41 -108 42 -447 215 -613 312 -215 125 -533 335 -706 465 -443
334 -898 776 -1223 1187 -51 65 -106 124 -122 132 -37 20 -117 19 -150 -1z"/>
<path d="M13050 7782 c-54 -29 -76 -80 -94 -212 -19 -147 -28 -187 -76 -340
-43 -137 -151 -364 -226 -475 -26 -38 -74 -103 -108 -143 -132 -159 -144 -187
-111 -269 30 -75 135 -110 211 -70 40 21 199 211 282 336 183 279 322 676 339
967 5 93 4 104 -17 143 -41 72 -130 100 -200 63z"/>
<path d="M9830 6942 c-42 -23 -80 -84 -80 -130 0 -61 39 -114 219 -293 185
-185 295 -271 503 -395 268 -159 483 -242 788 -304 176 -36 231 -27 284 43 29
39 29 125 0 163 -36 49 -67 63 -189 89 -510 108 -854 299 -1238 688 l-148 150
-52 4 c-38 3 -61 -1 -87 -15z"/>
<path d="M6986 6395 c-81 -42 -109 -146 -60 -220 20 -30 250 -206 474 -362
218 -152 328 -220 670 -412 157 -89 570 -277 770 -351 364 -136 765 -248 1090
-304 285 -50 789 -96 888 -81 51 8 121 68 124 106 6 97 -16 144 -82 176 -37
17 -71 22 -190 28 -331 14 -754 74 -1010 141 -211 57 -510 148 -619 191 -64
24 -157 60 -208 79 -210 79 -627 285 -868 429 -238 143 -616 403 -725 500 -14
12 -49 39 -79 59 -60 41 -123 48 -175 21z"/>
<path d="M12014 5971 c-19 -11 -57 -61 -96 -122 -124 -197 -219 -344 -242
-373 l-22 -29 -210 27 c-408 53 -391 52 -429 32 -66 -36 -74 -110 -19 -183 42
-54 255 -315 264 -323 18 -14 80 -117 80 -132 0 -22 -63 -164 -158 -356 -39
-78 -76 -158 -81 -177 -21 -77 30 -145 108 -145 16 0 117 34 223 76 247 97
323 124 347 124 12 0 103 -78 223 -191 112 -105 217 -200 233 -210 39 -25 80
-24 117 2 54 39 53 9 23 583 -5 96 5 115 83 153 32 14 89 45 127 68 39 23 120
68 182 99 148 75 184 119 169 201 -11 59 -48 75 -347 151 -226 57 -274 73
-286 91 -17 25 -46 150 -93 400 -19 98 -41 186 -51 203 -31 51 -91 64 -145 31z"/>
</g>
</svg>
