<?xml version="1.0" standalone="no"?>
<!DOCTYPE svg PUBLIC "-//W3C//DTD SVG 20010904//EN"
 "http://www.w3.org/TR/2001/REC-SVG-20010904/DTD/svg10.dtd">
<svg version="1.0" xmlns="http://www.w3.org/2000/svg"
 width="2048.000000pt" height="2048.000000pt" viewBox="0 0 2048.000000 2048.000000"
 preserveAspectRatio="xMidYMid meet">
<metadata>
Created by potrace 1.16, written by Peter Selinger 2001-2019
</metadata>
<g transform="translate(0.000000,2048.000000) scale(0.100000,-0.100000)"
fill="#18bcf2" stroke="none">
<path d="M10178 17056 c-46 -13 -127 -56 -448 -239 -96 -55 -274 -156 -395
-224 -350 -198 -423 -244 -487 -307 -151 -148 -189 -387 -92 -582 30 -61 60
-96 212 -247 97 -97 197 -195 222 -218 98 -92 423 -401 555 -529 353 -343 368
-356 424 -375 61 -20 121 -16 175 12 30 16 219 190 436 403 37 36 158 153 270
260 112 107 260 250 329 316 69 67 152 146 185 175 64 59 145 157 168 204 32
63 51 173 45 258 -13 189 -105 325 -293 437 -120 70 -779 446 -879 500 -44 24
-109 61 -144 82 -120 74 -204 96 -283 74z m-154 -633 c-1 -21 -2 -339 -3 -706
l-1 -669 -107 104 c-147 142 -306 294 -438 417 -60 57 -161 154 -222 216 -93
93 -113 118 -113 143 0 42 31 76 108 119 101 55 333 188 462 263 63 37 148 86
188 109 40 22 83 47 95 56 26 18 33 8 31 -52z m854 -175 c224 -127 419 -243
435 -256 44 -42 31 -114 -30 -162 -15 -12 -113 -103 -218 -203 -104 -100 -228
-218 -275 -262 -47 -44 -136 -129 -198 -190 -62 -60 -117 -111 -122 -113 -6
-2 -10 112 -10 305 0 169 0 463 0 653 -1 464 -1 460 6 460 3 0 189 -104 412
-232z"/>
<path d="M7988 15525 c-75 -25 -125 -75 -151 -151 -8 -21 -35 -80 -59 -131
-197 -402 -600 -713 -1208 -933 -58 -21 -143 -53 -190 -70 -47 -17 -105 -38
-130 -47 -75 -25 -328 -128 -440 -177 -423 -188 -795 -520 -1037 -926 -124
-207 -243 -488 -243 -573 0 -104 82 -203 182 -221 46 -8 124 9 164 36 46 32
72 76 113 195 89 254 252 513 438 696 184 179 288 255 515 369 118 59 458 196
663 267 386 135 604 240 880 424 261 175 455 377 612 638 183 303 210 428 117
537 -57 67 -149 94 -226 67z"/>
<path d="M12361 15525 c-48 -15 -91 -51 -124 -105 -16 -26 -21 -50 -21 -100 0
-56 7 -79 47 -169 127 -281 342 -561 580 -752 256 -206 514 -345 918 -494 85
-31 170 -63 189 -70 19 -8 94 -36 165 -64 408 -154 588 -249 810 -427 253
-202 470 -517 576 -834 32 -96 57 -141 94 -172 55 -46 196 -50 258 -8 105 72
120 191 46 377 -33 83 -158 336 -196 397 -42 65 -77 120 -86 131 -4 6 -24 33
-44 60 -183 248 -384 425 -698 611 -162 97 -233 127 -740 318 -443 168 -672
272 -859 393 -282 182 -525 471 -627 748 -37 101 -131 176 -219 174 -14 0 -45
-6 -69 -14z"/>
<path d="M8600 14951 c-85 -26 -141 -83 -169 -174 -52 -169 -194 -418 -352
-617 -95 -121 -323 -339 -464 -446 -155 -117 -414 -297 -710 -494 -255 -170
-517 -403 -675 -600 -106 -131 -264 -391 -344 -562 -61 -131 -154 -392 -185
-518 -89 -361 -130 -791 -87 -903 29 -76 117 -137 198 -137 49 0 126 30 156
61 50 51 60 84 66 214 7 136 15 243 22 295 66 478 245 924 507 1260 86 109
127 154 253 269 106 98 167 143 595 434 491 335 579 404 814 641 148 149 277
304 335 401 13 22 47 77 76 121 116 180 234 456 234 548 0 90 -79 186 -169
205 -58 12 -66 12 -101 2z"/>
<path d="M11745 14936 c-83 -38 -135 -114 -135 -197 0 -122 213 -535 411 -799
47 -63 142 -171 210 -240 230 -233 417 -380 869 -686 518 -350 669 -480 859
-738 85 -116 127 -186 201 -334 62 -126 147 -328 154 -368 3 -13 7 -27 10 -32
8 -14 44 -152 65 -253 32 -157 48 -283 56 -454 8 -171 10 -183 45 -239 35 -55
110 -96 176 -96 58 0 140 45 178 98 30 43 31 47 35 174 10 391 -105 899 -293
1293 -196 409 -425 704 -745 959 -71 57 -348 255 -501 359 -470 318 -595 414
-754 572 -240 239 -433 537 -542 838 -24 68 -84 132 -141 151 -63 22 -99 20
-158 -8z"/>
<path d="M9231 14416 c-44 -16 -107 -69 -127 -107 -16 -31 -19 -56 -28 -191
-7 -104 -41 -239 -82 -320 -72 -147 -173 -264 -434 -503 -300 -274 -361 -347
-460 -545 -60 -120 -111 -323 -113 -455 -2 -88 1 -105 21 -140 42 -72 136
-122 215 -112 116 15 181 81 193 196 29 277 83 392 278 586 67 66 153 147 191
180 242 206 389 381 491 586 99 197 135 349 138 574 1 90 -2 116 -17 144 -54
97 -167 143 -266 107z"/>
<path d="M11106 14415 c-49 -17 -93 -59 -117 -110 -15 -31 -19 -64 -19 -153 0
-249 58 -451 195 -672 101 -162 218 -290 460 -503 88 -77 178 -161 200 -186
22 -24 50 -56 63 -70 85 -95 159 -277 173 -424 10 -104 29 -155 71 -194 85
-80 253 -69 321 21 36 47 49 105 42 189 -21 234 -88 420 -226 622 -51 76 -214
241 -389 396 -213 187 -287 272 -367 419 -66 119 -92 211 -104 362 -16 197
-38 246 -131 292 -58 29 -112 33 -172 11z"/>
<path d="M10132 12284 c-59 -29 -205 -154 -332 -284 -311 -317 -543 -677 -724
-1122 -130 -320 -202 -640 -236 -1043 -8 -100 -6 -568 4 -615 2 -14 7 -50 10
-80 15 -165 65 -414 118 -590 22 -74 44 -144 49 -155 4 -11 24 -63 43 -115 62
-169 126 -303 244 -510 81 -142 122 -203 233 -350 110 -146 170 -214 332 -373
203 -200 273 -247 367 -247 97 0 175 54 391 269 229 230 362 400 529 676 171
282 285 558 385 930 20 74 63 292 70 355 4 30 9 66 11 80 25 166 26 660 0 870
-25 211 -76 482 -105 560 -6 14 -24 72 -42 130 -58 192 -186 485 -287 655 -44
75 -151 238 -216 330 -179 250 -519 585 -649 640 -57 24 -134 19 -195 -11z"/>
<path d="M7242 11681 c-41 -11 -107 -54 -126 -83 -30 -46 -105 -248 -150 -403
-26 -92 -78 -368 -91 -485 -4 -36 -9 -74 -12 -85 -3 -11 -6 -135 -8 -275 -3
-280 9 -427 60 -705 56 -309 185 -685 318 -925 208 -378 326 -545 585 -828
104 -113 317 -308 455 -415 307 -239 664 -424 1039 -537 70 -21 136 -44 148
-50 35 -19 36 -2 3 33 -49 52 -286 352 -342 433 -295 427 -526 1002 -611 1516
-12 68 -23 134 -25 148 -3 13 -9 70 -15 125 -5 55 -13 125 -16 155 -7 68 -7
449 0 510 3 25 8 77 11 115 18 211 67 475 130 710 25 90 62 201 125 368 39
104 43 96 -91 186 -313 212 -717 390 -1041 460 -151 32 -291 45 -346 32z"/>
<path d="M13060 11680 c-232 -30 -625 -162 -875 -295 -164 -86 -350 -203 -429
-268 l-29 -24 32 -84 c66 -170 120 -331 141 -424 7 -28 13 -57 16 -65 25 -96
76 -392 99 -580 12 -95 21 -330 19 -455 -15 -701 -211 -1374 -573 -1971 -81
-134 -219 -324 -358 -496 -51 -62 -89 -114 -83 -116 12 -4 249 64 330 95 186
72 498 229 640 321 337 221 627 492 928 868 89 111 251 372 338 546 164 327
272 657 328 1003 35 213 41 297 41 565 0 255 -7 368 -31 502 -1 9 -6 38 -10
65 -3 26 -8 55 -10 63 -45 219 -60 283 -90 375 -87 263 -116 315 -198 357 -47
24 -130 31 -226 18z"/>
<path d="M6200 9503 c-345 -30 -547 -69 -831 -163 -208 -68 -271 -109 -312
-199 -16 -37 -19 -57 -13 -115 13 -156 80 -415 164 -641 115 -306 342 -696
550 -942 101 -121 125 -146 281 -300 335 -333 744 -600 1192 -781 185 -75 509
-167 659 -187 25 -3 56 -8 70 -10 164 -31 532 -44 750 -25 306 26 612 90 836
176 151 57 201 129 104 147 -369 68 -823 231 -1160 417 -408 225 -845 598
-1151 985 -86 108 -203 266 -226 305 -11 19 -52 88 -92 153 -190 314 -329 650
-430 1042 l-36 140 -160 1 c-88 0 -176 -1 -195 -3z"/>
<path d="M13939 9504 c-11 -3 -24 -40 -43 -122 -65 -275 -200 -634 -333 -882
-396 -738 -1005 -1339 -1723 -1699 -306 -153 -729 -295 -1003 -336 -40 -6 -47
-11 -47 -30 0 -55 50 -88 219 -145 312 -105 589 -150 961 -155 295 -4 447 8
705 56 273 52 646 183 885 311 446 239 812 527 1103 868 112 132 118 139 139
171 9 14 23 32 30 40 8 8 46 61 85 119 193 287 316 541 417 862 72 227 100
357 100 473 1 99 1 101 -34 149 -45 63 -119 104 -291 162 -203 70 -412 115
-665 144 -99 11 -480 22 -505 14z"/>
<path d="M5120 7402 c-43 -5 -164 -52 -305 -117 -55 -26 -116 -54 -135 -63
-131 -59 -399 -214 -540 -311 -188 -129 -414 -340 -512 -478 -139 -194 -203
-374 -213 -596 -8 -173 30 -325 126 -506 123 -230 338 -442 674 -663 353 -232
930 -483 1530 -666 563 -172 1315 -333 1970 -421 462 -63 1002 -117 1360 -136
61 -3 137 -8 170 -10 167 -11 598 -20 1000 -20 903 0 1644 45 2375 145 436 59
613 88 940 151 583 113 1275 306 1740 487 559 216 926 415 1230 663 153 125
223 195 309 309 155 206 229 410 229 630 0 266 -84 481 -282 718 -149 179
-386 369 -676 542 -123 73 -463 241 -600 296 -163 65 -269 58 -354 -23 -53
-50 -80 -114 -80 -188 -1 -134 57 -205 224 -275 364 -151 712 -348 895 -507
44 -38 91 -78 103 -88 53 -44 142 -168 188 -261 l49 -99 -1 -100 c-1 -118 -19
-178 -88 -284 -91 -141 -260 -293 -482 -433 -118 -75 -494 -265 -639 -323
-612 -247 -1316 -438 -2211 -599 -303 -55 -602 -94 -1070 -141 -690 -68 -958
-80 -1784 -80 -902 0 -1250 18 -2101 110 -1081 116 -2221 388 -3024 720 -139
58 -396 185 -538 266 -299 172 -530 388 -611 572 -138 310 60 622 605 952 115
70 401 214 576 290 140 60 180 89 213 154 63 124 12 298 -103 358 -33 16 -117
30 -157 25z"/>
<path d="M5766 6729 c-61 -10 -191 -71 -293 -140 -157 -106 -260 -229 -310
-371 -21 -57 -27 -98 -31 -188 -4 -106 -2 -122 25 -206 51 -157 147 -272 332
-396 166 -111 320 -183 608 -284 523 -183 1405 -360 2188 -439 379 -38 837
-70 1125 -80 91 -3 182 -8 202 -10 46 -6 1213 -7 1248 -1 14 2 108 7 210 11
164 5 311 13 545 30 39 2 111 7 160 10 311 21 837 82 1075 125 30 5 127 21
214 35 348 55 768 149 1059 237 416 124 702 248 902 388 93 65 202 174 243
243 152 252 103 571 -119 787 -143 138 -380 263 -482 255 -142 -12 -247 -121
-247 -256 0 -120 50 -196 171 -259 74 -38 176 -112 207 -149 43 -53 32 -92
-44 -159 -239 -211 -915 -426 -1779 -567 -524 -85 -1032 -142 -1530 -170 -60
-4 -120 -8 -132 -10 -12 -2 -118 -7 -235 -11 -117 -3 -216 -8 -220 -11 -10 -6
-1202 -5 -1241 1 -18 3 -106 8 -197 11 -91 3 -196 8 -235 10 -38 3 -169 12
-290 20 -277 19 -706 59 -849 80 -17 3 -85 12 -151 20 -730 96 -1418 260
-1830 434 -202 86 -385 212 -401 277 -14 57 76 144 226 219 67 33 115 77 142
130 26 50 35 158 18 211 -39 120 -156 192 -284 173z"/>
</g>
</svg>
