<?xml version="1.0" standalone="no"?>
<!DOCTYPE svg PUBLIC "-//W3C//DTD SVG 20010904//EN"
 "http://www.w3.org/TR/2001/REC-SVG-20010904/DTD/svg10.dtd">
<svg version="1.0" xmlns="http://www.w3.org/2000/svg"
 width="2048.000000pt" height="2048.000000pt" viewBox="0 0 2048.000000 2048.000000"
 preserveAspectRatio="xMidYMid meet">
<metadata>
Created by potrace 1.16, written by Peter Selinger 2001-2019
</metadata>
<g transform="translate(0.000000,2048.000000) scale(0.100000,-0.100000)"
fill="#18bcf2" stroke="none">
<path d="M3501 15774 c-85 -23 -150 -63 -200 -126 -66 -81 -86 -141 -86 -258
0 -82 4 -103 27 -153 31 -66 42 -82 126 -173 125 -135 350 -447 519 -719 264
-425 473 -845 723 -1450 103 -250 159 -381 191 -451 17 -38 39 -89 49 -114 76
-189 289 -585 426 -790 290 -434 737 -854 1158 -1089 194 -108 424 -214 581
-269 210 -72 406 -115 420 -93 12 21 -69 250 -313 886 -149 387 -411 946 -654
1395 -186 342 -316 557 -565 932 -244 368 -275 440 -152 359 42 -28 221 -206
340 -337 68 -76 310 -376 406 -505 123 -165 255 -366 461 -699 294 -476 646
-1217 862 -1815 113 -312 253 -741 294 -900 9 -33 31 -118 51 -190 47 -175
169 -665 185 -743 35 -171 209 -272 373 -216 57 19 129 81 165 142 42 72 38
178 -12 392 -55 234 -174 703 -201 790 -40 132 -160 494 -205 620 -89 251 -90
254 -105 445 -66 802 -212 1426 -487 2070 -197 462 -491 929 -817 1296 -215
243 -517 519 -784 717 -529 393 -1172 702 -1842 884 -281 76 -563 142 -695
163 -116 18 -169 18 -239 -1z"/>
<path d="M13225 14133 c-695 -23 -1378 -177 -1963 -444 -35 -16 -65 -29 -68
-29 -2 0 -72 -34 -155 -75 -224 -112 -579 -329 -743 -455 -48 -37 -59 -37
-105 -2 -20 16 -90 65 -156 109 -610 406 -1202 654 -1893 792 -171 35 -362 66
-467 77 -78 8 -76 14 -20 -57 11 -14 31 -40 45 -59 14 -18 30 -38 35 -44 39
-43 232 -344 288 -450 13 -25 27 -37 50 -41 558 -116 1107 -343 1560 -647 124
-83 242 -169 290 -211 l27 -24 -2 -3291 -3 -3291 -100 65 c-566 368 -1294 644
-1985 753 -152 24 -382 49 -550 60 -436 29 -1090 -38 -1510 -154 -52 -14 -120
-33 -150 -41 -129 -35 -410 -132 -550 -189 -36 -15 -131 -58 -212 -96 -80 -38
-168 -73 -195 -78 -111 -22 -225 37 -281 143 l-27 51 -3 2847 -2 2847 -66 153
c-36 84 -86 205 -110 268 -83 214 -199 480 -210 480 -28 0 -111 -233 -117
-328 -2 -39 -4 -41 -47 -53 -74 -20 -162 -64 -217 -108 -62 -50 -137 -158
-172 -250 l-26 -66 -3 -3115 c-2 -2222 0 -3139 8 -3200 40 -304 254 -551 549
-633 l76 -21 2510 -2 c1381 -2 2513 -3 2517 -3 5 -1 22 -20 39 -43 203 -282
510 -488 823 -552 237 -49 528 -35 741 36 106 35 269 115 340 166 104 74 226
186 287 264 35 45 72 92 84 106 l21 25 2509 2 c1792 1 2523 5 2560 13 79 17
185 60 234 94 175 122 291 281 336 458 18 72 19 140 19 1762 0 929 0 1688 1
1688 17 0 167 -59 284 -112 143 -65 160 -71 225 -71 106 -1 209 55 252 137 27
51 40 134 31 194 -18 117 -72 171 -252 257 -412 197 -885 285 -1326 246 -250
-22 -329 -48 -404 -132 -59 -64 -80 -120 -73 -193 8 -79 28 -127 79 -182 51
-55 66 -64 148 -84 l65 -16 0 -1440 c0 -1354 -1 -1441 -18 -1477 -41 -88 -132
-152 -228 -161 -53 -5 -112 15 -254 86 -393 197 -997 375 -1460 433 -27 3 -77
10 -110 15 -33 5 -98 12 -145 15 -47 4 -94 8 -106 10 -79 12 -400 15 -569 6
-426 -24 -762 -79 -1135 -185 -376 -106 -631 -203 -946 -361 -177 -87 -283
-148 -561 -317 l-33 -20 0 3295 0 3296 58 45 c348 274 853 544 1283 686 483
161 971 240 1482 240 445 0 831 -45 1204 -141 84 -21 156 -39 161 -39 5 0 51
27 103 60 121 78 364 200 499 250 58 21 105 41 105 45 0 13 -441 163 -630 215
-485 132 -1105 208 -1570 193z"/>
<path d="M18712 13503 c-29 -10 -72 -43 -130 -100 -125 -122 -160 -149 -248
-192 -120 -59 -174 -72 -319 -78 -171 -7 -235 10 -506 135 -250 115 -552 175
-889 176 -364 1 -739 -63 -1056 -179 -126 -46 -433 -197 -545 -267 -103 -65
-176 -124 -330 -269 -209 -195 -301 -263 -453 -335 -156 -74 -271 -99 -446
-99 -140 1 -206 14 -379 77 -278 102 -467 135 -716 125 -297 -12 -584 -100
-810 -247 -161 -105 -376 -318 -493 -488 -133 -194 -156 -243 -155 -334 1
-189 189 -335 365 -284 71 20 131 74 208 184 135 194 162 228 227 294 102 104
270 207 408 251 82 27 221 47 319 47 163 -1 236 -17 489 -114 352 -134 779
-127 1132 19 254 104 423 218 677 456 183 171 302 257 473 342 170 84 459 179
499 164 8 -3 24 -32 37 -64 22 -55 23 -70 22 -305 -1 -157 3 -248 9 -248 5 0
67 7 136 16 177 23 548 22 701 -1 128 -19 131 -18 124 48 -24 231 -157 402
-372 478 l-75 26 -12 49 c-6 27 -13 56 -15 64 -3 13 14 15 121 14 220 -3 378
-43 665 -169 140 -62 278 -108 390 -130 98 -20 330 -23 435 -6 164 28 355 98
473 174 155 99 355 285 400 371 28 55 31 202 5 257 -25 51 -84 107 -143 135
-59 28 -155 31 -223 7z"/>
<path d="M16400 11719 c-327 -19 -694 -106 -1029 -244 -245 -101 -504 -276
-738 -497 -268 -254 -507 -368 -793 -381 -178 -8 -232 3 -520 111 -326 123
-767 126 -1095 7 -264 -95 -509 -265 -697 -483 -103 -120 -222 -289 -261 -370
-27 -57 -29 -70 -25 -140 5 -89 29 -144 86 -199 82 -80 196 -104 305 -63 68
26 126 87 220 232 208 324 464 492 800 528 187 20 319 -2 578 -98 234 -87 361
-112 574 -112 248 0 490 57 707 166 67 34 286 168 298 183 3 3 32 28 65 56 62
51 104 88 210 186 194 180 367 283 649 389 107 40 353 113 357 106 1 -3 8
-441 8 -544 1 -103 3 -113 19 -108 46 14 189 21 412 21 202 -1 270 -5 388 -23
79 -12 146 -22 148 -22 3 0 3 153 2 340 -2 206 1 341 6 343 12 4 136 -25 245
-58 114 -34 180 -33 256 4 73 35 112 71 136 126 62 141 9 310 -119 374 -111
55 -300 108 -502 140 -126 20 -447 44 -530 39 -25 -1 -97 -5 -160 -9z"/>
<path d="M15022 9608 c-29 -4 -72 -18 -95 -29 -24 -12 -122 -101 -224 -202
-215 -213 -297 -276 -458 -356 -147 -73 -229 -99 -362 -113 -179 -19 -299 5
-578 112 -177 68 -306 92 -520 93 -191 2 -272 -7 -438 -49 -353 -88 -680 -309
-903 -610 -70 -95 -182 -268 -195 -301 -14 -37 -13 -156 2 -201 30 -93 106
-162 210 -188 128 -33 240 20 320 149 144 233 257 358 422 465 146 95 314 148
497 159 164 9 253 -7 508 -93 276 -94 382 -114 587 -114 257 0 454 46 700 164
212 101 307 173 582 441 241 234 263 267 263 399 0 119 -54 206 -155 251 -64
29 -98 34 -163 23z"/>
</g>
</svg>
