<?xml version="1.0" standalone="no"?>
<!DOCTYPE svg PUBLIC "-//W3C//DTD SVG 20010904//EN"
 "http://www.w3.org/TR/2001/REC-SVG-20010904/DTD/svg10.dtd">
<svg version="1.0" xmlns="http://www.w3.org/2000/svg"
 width="2048.000000pt" height="2048.000000pt" viewBox="0 0 2048.000000 2048.000000"
 preserveAspectRatio="xMidYMid meet">
<metadata>
Created by potrace 1.16, written by Peter Selinger 2001-2019
</metadata>
<g transform="translate(0.000000,2048.000000) scale(0.100000,-0.100000)"
fill="#18bcf2" stroke="none">
<path d="M10196 16189 c-126 -26 -276 -126 -406 -270 -91 -101 -131 -156 -212
-291 -39 -65 -76 -118 -82 -118 -6 1 -31 28 -56 62 -67 91 -233 256 -330 327
-156 115 -300 171 -435 171 -289 0 -516 -218 -701 -673 -25 -62 -50 -116 -54
-121 -5 -5 -40 20 -79 55 -158 141 -344 263 -500 327 -210 86 -395 65 -575
-66 -150 -109 -286 -377 -357 -702 -11 -52 -22 -96 -24 -99 -3 -2 -19 7 -37
21 -60 45 -242 154 -303 182 -359 164 -609 155 -813 -29 -74 -68 -133 -156
-173 -259 -17 -44 -32 -82 -34 -84 -1 -1 -33 18 -71 44 -38 25 -85 54 -105 64
-54 28 -150 50 -217 50 -136 0 -202 -28 -525 -222 -415 -248 -541 -331 -603
-393 -102 -101 -154 -228 -154 -375 0 -142 29 -228 128 -379 34 -51 59 -98 56
-104 -2 -7 -57 -44 -122 -83 -466 -282 -564 -342 -617 -377 -175 -118 -265
-283 -265 -487 0 -160 32 -238 238 -581 71 -118 151 -252 179 -299 27 -47 123
-209 213 -360 261 -440 407 -688 565 -955 82 -137 181 -304 220 -370 40 -66
115 -192 167 -280 52 -88 165 -277 250 -420 85 -143 189 -318 230 -390 141
-245 163 -277 233 -344 77 -73 133 -108 228 -143 53 -20 82 -23 192 -23 198 0
139 -28 839 396 110 66 191 109 193 102 14 -40 88 -144 147 -204 117 -118 240
-172 396 -172 132 -1 206 25 375 133 50 31 201 123 337 204 136 81 249 150
252 154 2 4 -2 32 -10 62 -24 88 -22 240 4 338 26 98 51 149 138 288 35 56 66
108 69 116 3 8 -77 154 -181 329 -103 173 -232 391 -287 484 -55 94 -152 256
-215 360 -103 171 -434 730 -660 1115 -46 80 -174 294 -282 475 -426 712 -675
1133 -852 1437 -76 131 -79 141 -82 205 -4 108 10 282 28 353 28 107 78 230
100 245 29 21 72 19 152 -9 146 -49 318 -147 487 -277 135 -103 183 -153 206
-213 11 -29 37 -95 59 -147 78 -185 181 -425 222 -519 23 -52 88 -205 145
-340 57 -135 139 -328 182 -430 44 -102 96 -223 116 -270 35 -85 309 -726 497
-1165 54 -126 131 -309 170 -405 40 -96 92 -222 117 -279 24 -57 64 -154 90
-215 67 -165 184 -430 194 -440 5 -6 55 35 121 100 101 97 163 153 236 211
l23 18 -101 240 c-56 132 -110 260 -120 285 -11 25 -70 167 -133 315 -63 149
-138 326 -167 395 -29 69 -75 177 -102 240 -27 63 -87 207 -134 320 -94 225
-174 413 -264 620 -33 74 -102 236 -154 360 -51 124 -124 295 -161 380 -37 85
-95 223 -130 305 -35 83 -113 267 -175 410 l-112 260 7 85 c23 312 121 641
222 748 28 30 37 34 65 28 62 -12 193 -83 293 -158 124 -94 361 -335 393 -400
21 -44 99 -339 186 -713 62 -261 273 -1114 330 -1335 30 -113 57 -222 60 -242
4 -21 9 -38 12 -38 3 0 19 9 34 20 91 65 236 110 353 110 70 0 78 2 73 18 -3
9 -31 123 -62 252 -31 129 -158 640 -281 1135 -259 1037 -240 890 -148 1170
82 251 157 397 254 498 56 58 77 60 159 10 135 -82 290 -248 441 -473 l97
-145 17 -220 c10 -121 26 -344 37 -495 27 -370 30 -419 35 -460 2 -19 7 -78
11 -130 3 -52 8 -102 9 -110 2 -8 6 -58 9 -110 4 -52 9 -111 11 -130 2 -19 7
-78 10 -130 7 -105 42 -530 52 -627 3 -35 9 -63 12 -63 3 0 17 12 31 27 71 75
258 169 363 182 l52 6 0 80 c0 92 -9 235 -30 455 -8 85 -24 283 -35 440 -29
414 -39 549 -44 605 -3 28 -17 199 -32 382 l-27 331 38 89 c133 312 316 581
438 644 35 18 40 19 71 4 37 -18 147 -125 201 -197 53 -71 140 -226 213 -378
76 -161 74 -129 38 -557 -14 -164 -30 -361 -36 -438 -6 -77 -20 -246 -30 -375
-22 -253 -50 -648 -50 -692 l0 -28 98 0 c111 0 196 -12 300 -42 40 -12 74 -19
76 -17 3 4 12 118 36 474 5 83 12 175 15 205 16 177 26 300 45 555 6 77 12
167 15 200 3 33 10 128 16 210 6 83 12 159 14 170 2 11 4 45 4 75 1 52 6 64
67 155 116 174 205 287 304 385 102 102 160 147 226 173 41 15 42 15 74 -8 69
-51 178 -229 243 -395 29 -75 103 -312 112 -362 6 -31 -64 -340 -155 -683 -27
-103 -85 -340 -309 -1255 -139 -568 -127 -505 -103 -581 49 -146 53 -335 12
-493 -11 -44 -20 -82 -20 -86 0 -14 217 19 300 46 l45 14 33 138 c37 156 38
164 17 264 -21 99 -25 255 -9 361 23 153 115 352 222 484 54 66 60 79 81 170
13 54 47 193 77 308 64 247 66 256 143 580 33 138 76 320 97 405 20 85 43 168
51 184 24 46 308 324 408 399 104 78 253 157 296 157 48 0 90 -58 156 -212 59
-141 112 -381 120 -550 5 -97 4 -111 -17 -155 -12 -26 -73 -169 -135 -318 -62
-148 -145 -346 -184 -438 -39 -93 -71 -172 -71 -176 0 -3 30 -15 68 -26 91
-26 202 -83 290 -150 40 -30 75 -55 77 -55 2 0 31 69 64 153 33 83 92 229 131
322 39 94 87 208 107 255 19 47 53 130 74 185 34 88 45 107 95 153 62 58 243
196 337 255 126 81 328 167 390 167 37 0 83 -59 106 -135 45 -144 56 -223 56
-410 l0 -180 -39 -65 c-22 -36 -63 -103 -92 -150 -28 -47 -156 -263 -284 -480
-128 -217 -315 -532 -415 -700 -194 -325 -219 -369 -212 -376 2 -3 60 -13 128
-24 523 -80 936 -275 1272 -600 230 -222 403 -475 443 -647 19 -84 19 -249 -1
-328 -28 -110 -91 -222 -169 -300 -57 -57 -91 -81 -176 -122 -59 -29 -133 -57
-168 -64 -78 -15 -228 -7 -305 16 -32 9 -61 14 -64 11 -4 -3 -1 -24 6 -46 45
-151 29 -500 -33 -700 -42 -135 -147 -356 -239 -502 l-55 -88 41 -32 c300
-233 381 -312 440 -431 21 -43 48 -82 60 -88 13 -8 51 -10 106 -6 219 15 376
127 522 370 40 67 78 129 85 137 11 14 142 238 234 400 20 36 71 121 112 190
41 69 148 249 238 400 90 151 197 331 238 400 42 69 84 140 94 159 29 51 148
251 173 291 12 19 41 69 65 110 24 41 69 118 100 170 32 52 67 111 78 130 49
86 199 340 295 500 277 460 346 575 373 629 85 169 86 362 3 540 -37 80 -81
135 -151 188 -49 38 -424 273 -663 416 -150 90 -143 76 -84 164 125 185 161
337 123 521 -26 129 -102 245 -212 325 -69 51 -701 435 -785 478 -168 86 -336
89 -497 8 -44 -22 -98 -55 -121 -75 -23 -19 -43 -33 -44 -32 -2 2 -15 34 -30
73 -40 109 -92 193 -160 260 -197 197 -443 217 -790 66 -100 -44 -290 -152
-354 -202 -31 -25 -41 -24 -41 4 0 35 -66 278 -96 353 -14 38 -51 118 -82 178
-45 89 -69 123 -136 191 -205 208 -425 228 -749 69 -112 -55 -210 -123 -347
-241 -60 -51 -112 -93 -114 -93 -2 0 -12 21 -22 48 -36 96 -144 314 -197 395
-204 313 -469 425 -747 315 -178 -71 -382 -241 -586 -491 l-31 -38 -48 83
c-189 324 -399 530 -604 594 -60 19 -193 26 -255 13z m-6300 -3478 c47 -79 84
-144 82 -146 -2 -1 -79 -48 -173 -104 -93 -56 -185 -115 -204 -132 -44 -42
-64 -92 -64 -164 -1 -74 38 -154 96 -196 46 -33 125 -53 174 -44 46 8 143 58
253 129 116 75 161 99 170 89 5 -4 41 -64 81 -132 68 -118 71 -125 53 -138
-10 -8 -80 -48 -154 -90 -225 -127 -249 -149 -271 -254 -29 -135 89 -279 228
-279 70 0 111 17 238 97 162 101 205 125 218 120 18 -7 159 -247 154 -261 -3
-6 -78 -52 -167 -101 -238 -132 -276 -177 -268 -312 4 -61 10 -81 34 -116 44
-62 112 -100 188 -105 57 -4 67 -1 151 44 50 26 139 76 199 112 91 54 110 62
121 51 25 -25 145 -224 145 -239 0 -9 -28 -30 -62 -49 -137 -74 -281 -165
-315 -199 -19 -19 -41 -50 -49 -68 -20 -47 -18 -148 3 -192 42 -89 147 -149
243 -140 62 6 144 49 368 191 34 22 64 38 66 36 9 -11 146 -248 151 -260 4
-11 -31 -35 -120 -84 -212 -118 -277 -164 -302 -215 -27 -52 -31 -151 -9 -204
44 -106 172 -174 275 -146 21 6 88 40 147 76 203 123 254 148 268 133 7 -8 50
-76 96 -152 69 -116 80 -141 69 -152 -15 -14 -636 -392 -687 -419 -17 -9 -49
-16 -72 -16 -78 0 -74 -7 -570 830 -90 151 -182 307 -205 345 -23 39 -106 180
-185 315 -79 135 -182 308 -230 385 -47 77 -105 174 -129 215 -25 41 -56 95
-71 120 -28 47 -289 489 -463 785 -55 94 -134 226 -175 295 -42 69 -92 154
-112 190 -21 36 -50 87 -65 113 -35 62 -37 118 -4 153 26 27 57 47 244 158
143 85 372 224 450 274 60 38 43 53 161 -147z"/>
<path d="M13049 12959 c-285 -42 -498 -289 -499 -579 -1 -306 273 -582 579
-583 103 -1 178 19 276 73 95 53 145 98 201 182 65 98 89 168 100 294 20 226
-114 460 -321 559 -70 33 -199 66 -252 64 -15 -1 -53 -5 -84 -10z"/>
<path d="M10623 12585 c-176 -48 -329 -187 -392 -357 l-10 -28 -52 27 c-118
59 -284 20 -368 -88 -58 -73 -74 -124 -69 -217 7 -129 68 -215 187 -270 94
-43 198 -33 303 29 27 16 50 29 52 29 1 0 24 -27 49 -59 64 -83 170 -155 274
-188 75 -23 95 -25 196 -20 175 7 269 50 394 177 117 119 170 261 159 425 -10
165 -61 283 -165 386 -123 121 -240 169 -403 168 -57 0 -127 -7 -155 -14z"/>
<path d="M8701 12023 c-123 -45 -186 -194 -130 -306 48 -95 231 -297 364 -402
249 -195 500 -315 874 -416 80 -21 151 -45 157 -51 31 -32 66 -416 45 -481
-11 -32 -17 -37 -54 -42 -263 -35 -338 -52 -568 -131 -252 -85 -456 -210 -708
-433 -112 -99 -112 -94 0 -207 207 -210 462 -377 824 -540 392 -177 777 -277
1195 -313 316 -27 678 5 935 83 92 27 232 84 240 96 3 5 -11 53 -30 107 -136
376 -413 748 -740 993 -72 54 -137 105 -144 114 -37 44 3 140 139 336 100 143
137 216 145 284 l7 53 196 6 c205 6 253 12 737 91 288 48 473 70 543 64 l44
-3 100 -270 c55 -148 101 -271 102 -272 2 -3 432 98 711 167 550 135 654 160
667 160 8 0 22 6 31 13 17 13 9 34 -116 312 -53 118 -54 117 80 85 175 -41
323 -106 448 -195 87 -62 223 -198 289 -287 67 -92 88 -113 138 -139 49 -25
148 -25 204 0 85 39 145 150 129 239 -16 91 -155 290 -307 439 -207 204 -374
310 -639 406 -234 85 -452 126 -719 134 -292 9 -542 -24 -804 -107 -176 -56
-904 -258 -1021 -283 -230 -51 -522 -76 -825 -71 -314 5 -464 13 -700 34 -767
72 -1213 246 -1504 589 -94 111 -154 151 -233 157 -38 2 -74 -2 -102 -13z"/>
<path d="M8690 10958 c0 -7 75 -313 106 -435 15 -57 31 -103 35 -103 5 0 60
25 122 57 61 31 159 75 217 98 l104 43 -114 57 c-122 61 -361 201 -407 238
-51 41 -63 49 -63 45z"/>
<path d="M14395 10440 c-38 -10 -187 -46 -330 -80 -143 -34 -404 -97 -580
-140 -176 -43 -348 -84 -382 -90 l-63 -13 0 -71 c-1 -153 -37 -255 -185 -526
-126 -231 -235 -452 -270 -550 -63 -176 -83 -414 -49 -591 24 -129 88 -354
160 -564 36 -104 92 -270 124 -367 32 -97 71 -200 86 -228 91 -167 315 -199
449 -65 79 78 93 172 56 370 -11 61 -25 146 -31 190 -7 44 -32 181 -57 305
-54 269 -63 385 -39 494 22 99 85 224 147 292 53 58 57 56 33 -21 -20 -67 -20
-251 0 -328 42 -155 143 -265 361 -393 39 -23 109 -64 158 -93 48 -28 89 -51
92 -51 2 0 93 -50 202 -110 109 -61 222 -118 252 -127 180 -52 353 83 354 276
0 73 -21 130 -74 193 -28 35 -142 126 -379 303 -159 120 -200 161 -200 202 0
45 28 105 105 222 157 241 219 350 268 472 51 125 69 216 75 370 7 212 -22
351 -125 589 -25 58 -49 115 -54 128 -10 26 -13 26 -104 2z"/>
<path d="M8383 9418 c-33 -35 -160 -240 -180 -289 -23 -58 -22 -143 2 -194 63
-131 389 -357 845 -586 85 -43 162 -83 170 -88 12 -8 -13 -38 -125 -151 -77
-77 -152 -159 -167 -182 -55 -81 -59 -155 -14 -254 45 -97 160 -156 264 -134
63 14 114 45 263 162 208 164 411 319 431 329 13 7 50 2 130 -16 62 -14 139
-31 171 -37 68 -14 71 -18 81 -123 11 -107 75 -626 82 -660 29 -142 184 -228
333 -185 71 20 143 92 160 159 7 28 20 480 21 704 l0 37 153 0 c279 0 543 31
739 85 110 31 132 42 179 88 60 58 73 107 66 245 -6 131 -26 272 -39 272 -4 0
-41 -13 -83 -30 -351 -139 -902 -190 -1370 -126 -542 75 -1068 259 -1518 533
-217 132 -301 197 -472 365 l-101 99 -21 -23z"/>
<path d="M6802 7443 c-44 -21 -78 -67 -92 -123 -8 -32 -10 -214 -8 -608 2
-309 0 -562 -4 -562 -4 0 -33 7 -65 15 -68 18 -181 19 -255 4 -170 -36 -302
-166 -315 -309 -14 -146 79 -279 237 -340 68 -27 211 -37 295 -21 136 25 264
117 321 228 l29 58 3 525 c2 352 6 527 14 531 17 10 88 -10 165 -47 138 -66
243 -194 259 -316 4 -27 11 -47 17 -45 21 7 77 100 92 152 23 78 25 93 26 185
0 102 -21 167 -84 257 -50 72 -95 111 -237 206 -58 39 -136 101 -175 137 -38
37 -80 72 -92 79 -31 16 -92 13 -131 -6z"/>
<path d="M3825 6936 c-72 -27 -136 -123 -138 -209 -2 -44 14 -112 34 -146 42
-72 136 -120 237 -121 82 0 200 -28 279 -66 91 -43 213 -135 289 -216 129
-140 293 -388 444 -673 29 -55 65 -122 80 -150 15 -27 47 -86 70 -130 272
-509 428 -737 647 -945 295 -280 589 -392 942 -359 480 44 852 352 1220 1009
30 52 70 124 91 160 20 36 84 153 140 260 258 489 368 664 531 842 176 193
330 273 524 272 84 -1 111 -5 170 -28 241 -93 462 -317 705 -711 62 -100 248
-424 305 -530 222 -413 535 -918 700 -1130 429 -549 876 -857 1397 -964 343
-71 762 -44 1066 68 216 80 437 206 621 354 148 119 362 337 482 492 29 39 60
76 67 84 21 22 222 307 293 416 36 55 112 181 169 280 294 512 455 784 518
880 25 39 57 88 71 110 116 180 370 457 492 537 148 97 220 125 363 138 129
13 192 41 235 107 56 84 62 170 19 256 -45 89 -112 127 -226 127 -333 0 -706
-198 -1000 -531 -187 -211 -350 -450 -587 -859 -40 -69 -132 -228 -205 -355
-289 -500 -465 -758 -707 -1035 -289 -330 -628 -537 -998 -606 -146 -28 -413
-26 -548 4 -137 30 -263 75 -392 140 -139 69 -197 106 -311 197 -294 236 -559
581 -875 1140 -97 170 -368 653 -402 715 -83 151 -261 415 -401 595 -85 111
-257 283 -350 352 -149 110 -336 198 -485 229 -115 23 -331 15 -446 -16 -226
-61 -396 -169 -600 -381 -206 -214 -350 -440 -675 -1059 -123 -233 -240 -436
-330 -570 -137 -203 -286 -349 -441 -433 -111 -60 -160 -72 -299 -72 -155 0
-231 21 -346 96 -242 158 -420 392 -689 904 -182 347 -394 717 -480 838 -272
383 -538 584 -890 673 -127 32 -320 42 -380 20z"/>
<path d="M13815 6509 c-274 -61 -782 -173 -859 -190 -153 -34 -224 -78 -267
-167 -22 -47 -22 -50 -25 -587 -2 -297 -4 -545 -4 -551 0 -8 -16 -6 -52 4 -29
8 -93 15 -143 15 -146 1 -247 -38 -341 -131 -60 -60 -86 -118 -92 -208 -4 -61
-1 -80 21 -127 33 -73 84 -127 155 -165 237 -126 559 -47 667 164 l30 59 3
530 c3 621 -4 577 107 612 39 12 149 38 245 58 96 20 255 55 353 76 98 22 199
40 224 42 39 2 48 -2 67 -26 20 -27 21 -40 24 -333 l4 -304 -59 21 c-68 23
-212 28 -283 9 -64 -17 -154 -65 -198 -105 -47 -42 -88 -122 -102 -196 -19
-101 34 -223 126 -288 70 -51 156 -81 248 -88 211 -15 400 74 476 223 l25 49
3 720 c3 766 3 770 -45 834 -54 71 -143 86 -308 50z"/>
</g>
</svg>
