<?xml version="1.0" standalone="no"?>
<!DOCTYPE svg PUBLIC "-//W3C//DTD SVG 20010904//EN"
 "http://www.w3.org/TR/2001/REC-SVG-20010904/DTD/svg10.dtd">
<svg version="1.0" xmlns="http://www.w3.org/2000/svg"
 width="2048.000000pt" height="2048.000000pt" viewBox="0 0 2048.000000 2048.000000"
 preserveAspectRatio="xMidYMid meet">
<metadata>
Created by potrace 1.16, written by Peter Selinger 2001-2019
</metadata>
<g transform="translate(0.000000,2048.000000) scale(0.100000,-0.100000)"
fill="#18bcf2" stroke="none">
<path d="M8350 17544 c-67 -24 -114 -67 -141 -126 l-24 -53 -3 -843 c-2 -549
1 -863 8 -899 37 -203 217 -352 428 -353 28 0 52 -3 52 -7 0 -5 -5 -26 -10
-48 -11 -43 -47 -204 -111 -490 -22 -99 -46 -205 -54 -235 -13 -50 -84 -215
-442 -1025 -64 -143 -165 -372 -225 -510 -60 -137 -147 -333 -193 -435 -45
-102 -131 -295 -190 -430 -59 -135 -124 -283 -145 -330 -21 -47 -73 -164 -115
-260 -42 -96 -97 -220 -122 -275 -98 -214 -266 -593 -286 -645 -88 -228 118
-446 328 -346 87 41 103 65 218 331 36 83 76 175 89 205 14 30 28 62 31 70 13
35 173 400 347 795 72 165 181 413 242 550 114 260 124 282 234 530 155 349
371 842 441 1005 42 96 79 179 83 183 4 5 39 -16 78 -45 181 -136 482 -257
792 -317 329 -63 600 -73 950 -35 415 46 805 184 1027 363 l63 51 14 -29 c8
-15 48 -106 89 -202 42 -96 159 -363 262 -594 103 -231 198 -445 210 -475 23
-56 66 -153 150 -340 71 -160 286 -647 400 -910 56 -129 125 -286 154 -347 28
-62 51 -115 51 -118 0 -3 18 -43 41 -88 68 -137 142 -197 242 -197 130 0 216
66 247 192 18 71 0 137 -98 355 -50 109 -122 272 -162 363 -110 253 -139 317
-185 420 -24 52 -87 194 -140 315 -223 508 -432 980 -497 1125 -79 176 -136
304 -268 605 -153 350 -177 407 -199 475 -19 56 -181 765 -181 790 0 6 17 10
39 10 154 0 319 89 384 207 58 108 57 90 57 1018 0 744 -2 857 -16 897 -42
125 -176 194 -308 157 -50 -14 -118 -78 -147 -137 l-22 -47 -1 -795 -1 -795
-47 -3 -47 -3 -11 43 c-5 24 -14 59 -20 78 -5 19 -34 141 -64 271 -61 261 -72
295 -128 388 -107 178 -276 317 -483 396 -462 177 -1027 187 -1466 25 -295
-109 -472 -252 -574 -465 -33 -67 -120 -386 -170 -623 -10 -46 -25 -90 -32
-98 -8 -8 -32 -14 -54 -14 l-39 0 0 788 c0 511 -4 800 -10 824 -15 52 -68 119
-117 146 -55 30 -144 37 -203 16z m2285 -2633 c393 -61 734 -221 828 -389 36
-64 32 -99 -18 -165 -127 -167 -477 -313 -870 -363 -261 -33 -622 -18 -864 36
-180 40 -435 143 -531 214 -117 87 -181 180 -166 239 17 68 151 188 288 258
190 97 476 170 753 193 120 10 453 -4 580 -23z"/>
<path d="M6320 14805 c-138 -44 -215 -214 -161 -355 11 -30 48 -88 81 -129
116 -142 130 -192 114 -406 -6 -91 -5 -105 16 -153 47 -109 170 -182 283 -168
186 25 266 169 267 482 0 233 -79 435 -239 606 -109 117 -241 162 -361 123z"/>
<path d="M14117 14648 c-120 -25 -216 -136 -217 -249 0 -98 65 -205 154 -251
57 -30 165 -30 222 0 128 66 190 227 135 348 -50 111 -178 177 -294 152z"/>
<path d="M4584 14249 c-29 -11 -72 -38 -97 -60 -101 -88 -132 -242 -74 -361
55 -111 161 -178 283 -178 91 0 160 26 214 80 70 69 95 128 95 226 0 70 -4 88
-30 139 -73 143 -245 211 -391 154z"/>
<path d="M15786 13949 c-168 -28 -322 -119 -444 -262 -72 -84 -104 -148 -110
-223 -7 -89 18 -155 82 -220 127 -126 282 -109 438 48 68 69 79 76 143 92 160
41 172 46 209 82 65 63 88 107 93 179 18 218 -156 347 -411 304z"/>
<path d="M13831 13255 c-134 -43 -242 -178 -257 -322 -16 -155 76 -312 224
-381 50 -24 69 -27 157 -27 89 0 107 4 157 28 66 32 135 103 174 178 26 49 28
63 29 164 0 97 -3 116 -24 160 -32 65 -127 160 -188 187 -61 28 -207 35 -272
13z"/>
<path d="M5622 13007 c-52 -16 -128 -90 -149 -145 -28 -73 -24 -165 12 -230
48 -88 123 -132 227 -132 108 0 204 63 246 159 22 51 21 167 -1 209 -29 53
-89 114 -132 133 -45 21 -148 24 -203 6z"/>
<path d="M3825 12637 c-145 -31 -227 -118 -241 -256 -12 -109 52 -223 152
-271 38 -19 64 -22 167 -24 115 -1 126 -3 187 -33 45 -21 90 -56 145 -110 91
-90 139 -113 239 -113 135 0 252 101 269 230 2 20 1 62 -4 95 -23 172 -289
396 -554 466 -100 26 -276 34 -360 16z"/>
<path d="M15705 12273 c-346 -30 -694 -164 -960 -371 -115 -89 -295 -266 -328
-323 -57 -97 -54 -196 6 -286 62 -91 177 -125 293 -86 40 13 71 39 169 138
150 151 257 232 399 300 210 101 336 130 591 138 161 5 193 15 251 79 48 53
64 95 64 165 -1 98 -53 184 -141 228 -44 23 -58 25 -176 23 -70 -1 -146 -3
-168 -5z"/>
<path d="M5748 11710 c-114 -29 -208 -106 -256 -209 -23 -49 -27 -69 -26 -161
0 -85 4 -114 21 -150 30 -67 112 -151 180 -185 53 -28 66 -30 163 -30 87 1
113 5 152 23 85 41 143 95 180 169 31 64 33 74 33 173 0 99 -2 109 -33 172
-38 78 -91 128 -179 170 -68 32 -170 44 -235 28z"/>
<path d="M9060 11334 c-140 -37 -253 -129 -314 -257 -33 -68 -39 -93 -61 -269
-14 -106 -32 -243 -41 -303 l-16 -111 -292 -146 c-275 -138 -296 -151 -348
-207 -31 -33 -65 -83 -78 -114 l-23 -54 -92 -6 c-113 -6 -247 -49 -358 -113
l-79 -45 -76 33 c-74 32 -82 33 -197 32 -99 -1 -165 -9 -370 -48 l-250 -47
-222 226 c-197 201 -229 229 -290 257 -61 30 -79 33 -180 36 -138 5 -218 -16
-310 -80 -127 -89 -185 -195 -208 -383 -35 -283 -55 -451 -55 -462 0 -6 -125
-74 -277 -150 -325 -162 -376 -201 -441 -331 l-37 -76 0 -130 c0 -130 0 -131
37 -208 41 -86 97 -153 166 -197 26 -16 157 -85 292 -154 237 -120 245 -125
252 -158 4 -19 21 -142 38 -274 34 -269 40 -296 82 -379 100 -197 349 -309
556 -250 131 38 155 57 484 402 66 70 124 122 135 122 10 0 131 -22 268 -50
286 -57 392 -64 487 -31 101 35 172 87 239 178 48 64 73 127 87 216 20 124 8
159 -153 484 -80 161 -145 301 -145 310 0 10 41 90 91 178 129 226 186 348
201 429 l13 70 60 38 c88 57 175 81 283 76 85 -3 89 -4 133 -41 25 -22 156
-94 307 -169 145 -73 265 -134 267 -138 6 -10 32 -179 55 -360 25 -197 39
-260 80 -341 122 -240 479 -326 697 -166 32 24 144 136 248 248 124 134 197
205 212 207 13 2 139 -19 281 -47 141 -27 276 -53 298 -56 100 -15 264 44 361
130 145 127 191 346 114 539 -16 40 -71 152 -122 247 -51 96 -105 200 -120
233 l-28 58 28 47 c74 123 241 453 257 506 24 82 22 210 -5 295 -52 167 -176
281 -353 326 -82 21 -170 15 -398 -30 -96 -19 -209 -40 -251 -47 l-76 -12
-216 219 c-132 134 -236 231 -268 251 -101 60 -241 79 -359 47z m424 -790
c157 -156 219 -196 333 -214 71 -12 106 -8 418 50 201 36 275 46 275 36 0 -2
-54 -106 -120 -231 -141 -265 -164 -318 -180 -404 -23 -130 -1 -191 227 -615
41 -76 72 -140 69 -143 -2 -3 -47 4 -98 16 -263 59 -430 83 -537 79 -176 -7
-224 -41 -521 -363 -84 -91 -155 -165 -159 -165 -6 0 -16 63 -46 275 -2 17
-11 86 -20 155 -19 150 -28 187 -65 260 -31 60 -82 117 -145 160 -22 15 -146
80 -276 144 -209 102 -272 139 -258 149 2 2 67 32 144 67 413 187 492 242 553
386 22 53 50 224 77 479 25 226 13 215 107 110 45 -50 145 -153 222 -231z
m-3485 -1088 c97 -98 194 -191 217 -206 50 -35 151 -70 202 -70 39 0 241 32
432 69 112 22 230 40 230 35 0 -2 -39 -72 -86 -156 -199 -356 -243 -469 -230
-585 10 -89 52 -178 275 -585 l43 -78 -29 5 c-15 3 -122 23 -238 45 -282 54
-349 61 -426 49 -115 -18 -179 -58 -324 -203 -71 -72 -170 -175 -219 -229 -68
-74 -92 -94 -98 -83 -4 8 -22 122 -38 253 -47 372 -64 426 -167 524 -64 62
-137 104 -396 228 -151 73 -214 108 -207 116 5 6 49 29 97 50 206 92 445 217
501 264 106 88 121 136 177 566 37 280 30 258 72 210 20 -22 115 -120 212
-219z"/>
<path d="M16155 10957 c-83 -33 -146 -89 -186 -167 -35 -68 -33 -185 5 -262
31 -65 99 -131 165 -160 67 -30 172 -28 244 5 242 110 251 449 15 566 -53 27
-71 31 -137 30 -42 0 -89 -6 -106 -12z"/>
<path d="M4256 10816 c-139 -52 -208 -224 -142 -354 71 -139 218 -189 354
-121 103 51 149 135 139 254 -7 96 -52 166 -132 207 -52 27 -165 34 -219 14z"/>
<path d="M11998 10483 c-9 -10 -30 -65 -48 -123 -87 -285 -184 -387 -445 -465
-226 -69 -233 -100 -31 -159 142 -41 251 -99 320 -170 67 -69 98 -130 146
-286 41 -131 55 -160 80 -160 27 0 45 32 68 120 52 203 149 350 277 418 17 9
97 39 179 67 89 30 154 59 160 69 17 27 -19 49 -147 91 -301 100 -381 186
-476 511 -18 61 -44 104 -63 104 -3 0 -12 -8 -20 -17z"/>
<path d="M13395 10150 c-150 -18 -296 -127 -346 -260 -25 -67 -78 -339 -165
-850 -35 -212 -73 -428 -84 -480 -11 -52 -31 -165 -45 -250 -14 -85 -28 -163
-31 -172 -4 -15 -13 -13 -77 13 -109 46 -189 61 -312 61 -222 1 -401 -66 -553
-207 -151 -140 -222 -297 -223 -490 0 -326 242 -586 606 -651 414 -73 842 185
928 561 23 100 60 297 102 538 19 115 54 313 76 440 22 128 54 309 70 402 16
94 34 193 39 220 5 28 12 70 15 95 4 24 9 48 11 52 3 5 360 8 794 8 l790 0 -5
-27 c-2 -16 -9 -62 -16 -103 -6 -41 -30 -183 -54 -315 -24 -132 -57 -320 -74
-419 -17 -98 -32 -180 -34 -182 -2 -2 -41 10 -88 27 -158 58 -291 71 -444 44
-171 -30 -316 -106 -437 -229 -78 -81 -122 -152 -158 -258 -36 -106 -43 -184
-25 -299 49 -327 365 -569 745 -569 135 0 315 52 444 129 81 48 215 184 264
268 67 114 81 175 197 863 15 85 44 250 65 365 22 116 57 318 80 450 40 235
62 356 116 640 18 93 28 175 28 245 1 98 -1 108 -28 158 -40 71 -110 134 -182
163 l-59 24 -935 1 c-514 0 -962 -3 -995 -6z"/>
<path d="M16316 9348 c-8 -24 -27 -79 -41 -123 -69 -209 -133 -271 -360 -345
-165 -54 -165 -72 -3 -125 62 -20 135 -49 162 -63 59 -32 119 -98 157 -174 29
-57 40 -86 74 -200 18 -57 32 -69 62 -50 7 4 24 48 38 97 35 123 75 201 132
259 59 59 92 76 241 126 85 29 118 44 124 59 9 27 1 32 -127 75 -232 79 -309
160 -370 387 -35 131 -61 153 -89 77z"/>
<path d="M8850 7154 c-186 -30 -316 -84 -480 -199 -100 -71 -196 -166 -436
-435 -278 -312 -391 -414 -634 -574 -106 -69 -135 -139 -90 -214 26 -43 40
-57 122 -120 93 -73 283 -274 421 -444 280 -348 549 -584 823 -721 168 -84
415 -156 669 -194 172 -25 630 -25 800 1 335 51 605 149 841 305 201 134 343
266 574 537 269 315 338 390 437 470 171 138 195 172 179 258 -10 52 -38 80
-160 161 -167 112 -357 280 -491 435 -16 19 -57 67 -90 105 -181 211 -359 387
-460 455 -171 116 -317 166 -507 177 -255 13 -473 -62 -675 -234 l-52 -44 -87
66 c-152 115 -269 169 -425 199 -68 13 -225 18 -279 10z m217 -303 c71 -33 94
-113 51 -178 -28 -40 -57 -50 -170 -56 -165 -9 -303 -100 -508 -337 -77 -87
-124 -103 -198 -67 -49 23 -66 100 -37 161 19 40 249 267 339 335 175 132 406
194 523 142z m483 -905 c75 -13 99 -12 203 2 146 20 211 11 347 -49 172 -75
275 -116 328 -129 29 -6 54 -15 56 -19 3 -4 -40 -22 -94 -39 -92 -31 -173 -63
-360 -142 -159 -67 -233 -83 -380 -84 -164 -1 -204 9 -489 123 -108 43 -233
91 -278 107 -46 15 -83 30 -83 34 0 3 33 16 73 28 41 11 143 51 228 87 222 96
286 107 449 81z m1525 -570 c37 -16 65 -59 65 -101 0 -66 -77 -168 -140 -185
-71 -19 -150 39 -150 110 0 50 57 136 115 171 36 23 64 24 110 5z m-325 -335
c59 -41 65 -128 14 -183 -114 -120 -415 -246 -677 -283 -97 -13 -170 52 -153
138 12 61 50 90 131 101 182 26 344 87 493 188 39 27 82 53 95 57 28 11 65 4
97 -18z"/>
<path d="M15275 6731 c-138 -24 -223 -151 -196 -295 6 -30 19 -73 30 -94 11
-22 29 -61 39 -88 11 -27 61 -143 112 -259 193 -441 234 -533 275 -630 23 -55
52 -122 65 -150 89 -197 116 -258 175 -395 37 -85 71 -159 76 -164 19 -21 9
-83 -19 -122 -122 -167 -464 -357 -912 -508 -494 -166 -1002 -284 -1675 -390
-336 -54 -556 -81 -1050 -131 -216 -22 -548 -44 -975 -65 -346 -18 -1289 -24
-1665 -11 -327 11 -810 35 -935 46 -30 2 -82 7 -115 10 -822 71 -1763 220
-2354 371 -437 112 -761 225 -1046 364 -181 88 -308 174 -395 267 -66 70 -78
100 -63 152 9 30 75 187 113 266 29 63 110 245 110 249 0 3 32 76 71 163 38
87 83 187 99 223 16 36 49 110 73 165 25 55 84 188 130 296 47 108 94 216 105
240 37 84 42 100 48 149 7 60 -16 147 -51 189 -86 101 -279 109 -367 15 -20
-22 -178 -340 -178 -359 0 -2 -16 -39 -36 -82 -34 -73 -83 -184 -239 -543 -35
-80 -118 -266 -185 -415 -198 -439 -223 -532 -186 -697 103 -464 722 -830
1911 -1132 261 -66 696 -156 975 -200 852 -136 1654 -209 2595 -236 281 -8
1279 -4 1360 5 22 2 130 7 240 10 110 3 223 8 250 10 28 2 88 7 135 10 720 47
1512 138 2000 230 443 84 651 130 965 212 841 220 1391 497 1634 821 93 124
150 300 136 421 -14 117 -34 178 -125 381 -137 305 -379 855 -452 1025 -77
180 -179 407 -229 513 -32 66 -49 89 -87 117 -26 18 -63 36 -82 40 -19 3 -42
7 -50 9 -8 2 -33 0 -55 -3z"/>
<path d="M13523 6592 c-6 -4 -31 -65 -53 -135 -77 -234 -137 -292 -387 -376
-89 -30 -109 -40 -111 -58 -3 -19 9 -25 110 -58 123 -40 225 -94 275 -147 39
-41 97 -155 124 -245 37 -124 44 -135 75 -115 7 4 24 48 39 97 36 120 88 224
137 273 44 45 152 101 243 127 100 29 135 46 135 65 0 26 -15 34 -125 70 -241
77 -312 149 -383 388 -17 56 -34 107 -37 112 -7 12 -25 13 -42 2z"/>
</g>
</svg>
