<?xml version="1.0" standalone="no"?>
<!DOCTYPE svg PUBLIC "-//W3C//DTD SVG 20010904//EN"
 "http://www.w3.org/TR/2001/REC-SVG-20010904/DTD/svg10.dtd">
<svg version="1.0" xmlns="http://www.w3.org/2000/svg"
 width="2048.000000pt" height="2048.000000pt" viewBox="0 0 2048.000000 2048.000000"
 preserveAspectRatio="xMidYMid meet">
<metadata>
Created by potrace 1.16, written by Peter Selinger 2001-2019
</metadata>
<g transform="translate(0.000000,2048.000000) scale(0.100000,-0.100000)"
fill="#18bcf2" stroke="none">
<path d="M10245 18341 c-69 -17 -118 -56 -150 -120 -26 -51 -15 -135 36 -276
42 -115 43 -124 43 -230 -1 -94 -5 -121 -28 -185 -33 -89 -99 -205 -176 -309
-150 -204 -239 -373 -276 -527 -37 -149 -37 -215 -1 -276 35 -60 96 -97 171
-105 47 -5 64 -2 110 21 66 32 90 68 112 162 32 139 54 201 101 281 26 45 56
92 66 105 107 139 221 322 264 428 62 149 77 229 77 400 0 141 -3 166 -31 275
-56 215 -99 299 -173 336 -43 21 -105 30 -145 20z"/>
<path d="M8700 18180 c-109 -20 -174 -97 -175 -211 0 -65 2 -69 57 -150 72
-106 112 -192 139 -299 41 -162 15 -287 -117 -552 -80 -161 -124 -272 -155
-398 -20 -81 -23 -119 -23 -260 1 -142 5 -181 27 -279 31 -131 33 -172 11
-232 -24 -69 -62 -234 -80 -349 -19 -128 -44 -173 -104 -191 -105 -32 -222 70
-298 258 l-27 68 -2 316 c-1 354 -5 382 -74 519 -73 149 -164 241 -373 383
-82 55 -177 128 -211 162 -78 77 -153 199 -200 324 -70 182 -122 234 -239 239
-59 2 -78 -1 -111 -20 -59 -35 -96 -93 -102 -165 -5 -52 -1 -70 32 -154 102
-255 184 -391 323 -533 79 -81 144 -132 268 -209 124 -78 177 -127 221 -205
l38 -67 2 -187 c2 -144 0 -188 -10 -188 -7 0 -62 36 -122 81 -387 285 -600
388 -940 456 -125 25 -451 25 -580 0 -339 -67 -572 -176 -815 -383 -209 -177
-348 -358 -478 -618 -134 -269 -199 -582 -190 -922 3 -129 6 -154 25 -189 91
-170 307 -163 386 14 16 38 18 57 12 135 -8 109 8 304 34 425 81 370 288 698
563 894 143 102 365 195 529 222 24 4 53 9 64 11 11 3 66 7 121 11 258 15 535
-71 802 -252 233 -157 545 -388 675 -499 129 -110 262 -205 405 -289 73 -43
139 -89 147 -101 31 -46 -21 -143 -99 -184 -46 -24 -61 -27 -156 -27 -89 0
-116 5 -178 27 -87 32 -153 71 -242 143 -112 89 -673 510 -754 564 -276 187
-548 242 -811 166 -105 -31 -180 -68 -263 -130 -193 -145 -324 -345 -389 -593
-74 -286 -11 -764 122 -927 l38 -46 -21 -87 c-12 -48 -26 -118 -32 -157 -14
-88 -49 -166 -87 -193 -77 -54 -258 -69 -385 -31 -166 49 -261 111 -498 327
-74 68 -173 148 -219 179 -116 77 -301 164 -461 217 -149 50 -407 106 -485
106 -152 -1 -248 -159 -183 -302 37 -79 79 -104 219 -129 218 -38 360 -83 523
-165 119 -60 178 -103 371 -269 271 -233 426 -322 674 -387 120 -31 372 -32
473 -1 l67 20 16 -56 c56 -194 129 -359 235 -531 80 -129 100 -185 100 -278 0
-138 -56 -268 -160 -372 -135 -135 -249 -186 -503 -225 -196 -30 -224 -37
-308 -81 -303 -159 -352 -614 -91 -845 125 -110 321 -148 501 -98 219 61 545
266 701 440 112 127 291 309 421 428 265 244 292 267 520 441 216 166 304 268
370 430 38 95 56 166 67 275 18 166 4 248 -83 475 -20 54 -15 121 13 177 64
123 220 151 317 56 69 -67 132 -229 160 -409 19 -121 17 -365 -4 -418 -6 -16
-10 -30 -8 -32 2 -2 100 43 218 100 291 141 597 260 884 346 132 40 241 73
242 74 1 1 -5 24 -13 51 -126 407 28 873 375 1139 142 108 278 169 517 231
190 49 260 72 324 108 151 83 275 239 315 394 42 162 -7 562 -93 758 -68 157
-161 260 -298 332 -111 58 -186 76 -319 77 -133 0 -218 -20 -325 -75 -107 -56
-161 -98 -229 -181 -100 -120 -138 -214 -171 -418 -53 -332 -63 -389 -86 -469
-98 -339 -223 -573 -433 -808 -113 -127 -189 -189 -297 -242 -257 -128 -534
-106 -778 61 -34 23 -102 76 -151 118 -207 175 -331 229 -497 216 -324 -24
-576 -301 -636 -698 -13 -92 -14 -127 -4 -221 21 -212 77 -328 279 -576 173
-211 207 -273 201 -361 -8 -114 -94 -193 -212 -194 -75 -1 -142 34 -177 91
-27 45 -162 232 -254 353 -119 157 -213 373 -248 570 -21 119 -16 335 12 460
64 287 162 471 369 698 63 69 121 140 128 158 19 44 18 126 -2 172 -18 44 -58
88 -98 109 -38 20 -132 19 -181 -1 -45 -19 -154 -129 -263 -264 -71 -88 -76
-93 -85 -71 -14 37 0 245 22 331 46 179 178 349 310 399 71 27 191 35 273 19
119 -23 195 -71 513 -325 225 -180 307 -234 437 -291 131 -57 215 -114 344
-231 198 -179 293 -218 442 -182 161 40 398 309 509 579 60 147 75 207 148
606 54 297 86 398 165 529 87 146 90 177 44 425 -22 117 -15 261 19 355 14 39
61 145 106 236 191 392 223 626 125 918 -60 181 -187 400 -260 450 -36 25
-106 39 -154 31z"/>
<path d="M11785 18161 c-51 -23 -101 -79 -116 -132 -10 -32 -10 -62 -1 -137
25 -199 7 -327 -64 -470 -49 -96 -127 -180 -298 -316 -317 -254 -448 -436
-520 -722 -50 -199 -56 -350 -20 -574 17 -107 48 -229 68 -269 37 -71 106
-113 182 -112 65 0 109 18 152 62 71 70 76 118 31 314 -18 81 -23 130 -23 260
-1 142 2 168 23 230 59 176 149 294 349 457 336 273 455 432 525 698 19 75 22
110 21 300 0 295 -19 355 -128 406 -61 29 -126 30 -181 5z"/>
<path d="M13630 17518 c-84 -24 -130 -84 -159 -209 -42 -179 -112 -304 -216
-385 -85 -67 -211 -114 -440 -165 -417 -93 -599 -213 -816 -536 -84 -124 -98
-158 -99 -231 -1 -191 242 -287 371 -145 14 15 50 71 80 123 56 100 146 201
229 257 83 55 151 78 440 143 165 37 261 72 387 142 109 59 231 171 297 270
53 80 131 242 151 313 10 33 21 71 26 83 17 43 22 165 9 212 -28 102 -146 161
-260 128z"/>
<path d="M14715 16404 c-246 -38 -485 -116 -690 -225 -144 -77 -457 -309 -582
-432 -73 -71 -94 -109 -95 -175 -2 -69 17 -115 67 -161 50 -46 109 -66 171
-56 52 7 82 27 220 146 170 147 341 267 484 339 90 46 273 106 383 127 123 22
344 23 457 0 602 -119 1073 -621 1171 -1248 17 -112 20 -162 16 -304 -3 -93
-8 -180 -11 -191 -8 -37 15 -101 50 -143 105 -122 277 -103 346 39 30 63 39
147 39 372 -1 211 -26 381 -82 563 -145 469 -439 851 -839 1092 -151 91 -327
170 -450 202 -169 43 -239 52 -430 56 -107 2 -208 1 -225 -1z"/>
<path d="M14805 15568 c-203 -23 -435 -140 -700 -353 -245 -197 -323 -242
-485 -280 -88 -20 -252 -28 -329 -15 -151 25 -381 114 -536 207 -190 114 -256
148 -363 184 -326 110 -704 62 -992 -126 -103 -68 -290 -251 -355 -350 -29
-44 -87 -151 -129 -239 -42 -87 -102 -197 -133 -245 -76 -114 -218 -260 -320
-328 -109 -72 -205 -112 -436 -179 -301 -87 -418 -144 -517 -252 -114 -124
-176 -287 -167 -437 4 -72 45 -227 65 -247 4 -3 90 4 192 17 514 66 933 58
1460 -26 756 -120 1580 -454 2270 -918 186 -125 470 -334 540 -398 l38 -34 79
48 c304 183 453 396 453 649 0 292 -189 530 -470 590 -97 21 -251 13 -415 -20
-198 -40 -263 -48 -379 -49 -136 0 -229 15 -366 59 -321 105 -586 320 -667
541 -62 170 -51 332 32 501 83 167 260 316 418 352 123 27 247 -72 247 -198 0
-96 -53 -171 -156 -218 -255 -118 -206 -360 106 -523 42 -22 115 -51 163 -65
169 -49 300 -45 575 18 287 66 443 77 757 51 115 -9 212 -18 215 -20 3 -2 66
-6 140 -10 260 -14 508 38 685 143 313 185 527 520 576 897 23 180 -8 446 -71
605 -61 154 -114 237 -223 349 -229 236 -519 351 -802 319z m522 -1149 c38
-14 81 -56 105 -103 49 -96 7 -227 -121 -373 -149 -171 -320 -248 -576 -260
-231 -10 -327 19 -378 117 -24 47 -28 64 -25 113 5 69 43 130 103 164 37 21
52 23 195 22 148 -1 227 8 274 33 52 27 99 75 137 139 49 84 98 135 142 148
44 13 110 13 144 0z"/>
<path d="M17370 13803 c-220 -35 -472 -112 -632 -195 -143 -73 -258 -157 -584
-424 -165 -135 -306 -217 -499 -289 -137 -51 -388 -112 -515 -126 -139 -14
-173 -24 -217 -62 -95 -84 -96 -225 -2 -314 19 -17 47 -37 62 -42 134 -51 717
81 1032 233 123 59 275 163 433 294 427 355 576 435 925 497 174 31 225 60
262 147 43 103 -13 229 -122 275 -31 12 -88 15 -143 6z"/>
<path d="M2912 12979 c-160 -27 -309 -111 -430 -244 -63 -69 -125 -192 -153
-305 -41 -164 -12 -371 73 -523 143 -254 439 -400 727 -358 138 20 218 54 407
172 61 38 149 84 195 101 80 31 90 32 229 33 143 0 147 -1 281 -42 157 -50
216 -54 315 -21 87 28 162 96 204 183 72 151 17 348 -124 443 -64 42 -122 58
-293 77 -304 34 -595 144 -833 315 -126 91 -221 134 -347 160 -107 21 -164 23
-251 9z"/>
<path d="M10060 12544 c-19 -2 -98 -9 -175 -14 -482 -37 -997 -157 -1454 -337
-687 -270 -1389 -731 -1955 -1283 -189 -184 -477 -504 -508 -564 -11 -21 -22
-63 -25 -92 -8 -77 24 -134 163 -289 607 -677 1205 -1139 1939 -1500 211 -104
311 -146 495 -212 619 -221 1148 -317 1725 -315 589 2 1201 127 1825 372 158
63 575 270 740 368 120 71 381 240 390 252 3 3 28 21 55 40 294 198 686 548
1015 905 225 244 256 292 247 381 -8 75 -35 118 -184 285 -447 504 -937 914
-1488 1244 -165 98 -241 139 -435 234 -421 205 -737 316 -1165 410 -349 76
-618 109 -950 115 -121 2 -236 3 -255 0z m125 -464 c357 -84 674 -292 898
-588 236 -314 328 -804 221 -1180 -74 -262 -244 -468 -479 -582 -198 -95 -367
-118 -525 -70 l-75 23 94 19 c173 35 274 89 396 212 79 80 97 106 148 206 80
161 99 239 104 430 7 244 -31 395 -152 598 -156 262 -456 484 -762 564 -104
27 -140 31 -295 35 -138 4 -199 2 -277 -11 -212 -36 -434 -117 -578 -211 -54
-35 -100 -62 -102 -59 -10 10 168 184 276 271 210 169 527 313 773 353 41 6
82 13 90 15 31 8 168 -6 245 -25z m-1748 -387 c-251 -314 -405 -664 -474
-1078 -25 -155 -26 -604 -1 -751 69 -398 205 -711 460 -1057 28 -37 49 -70 46
-72 -10 -10 -414 186 -528 257 -25 15 -65 38 -90 52 -136 73 -673 457 -750
536 -3 3 -41 36 -85 75 -178 155 -395 368 -519 507 l-68 78 28 37 c54 72 500
510 619 609 317 263 540 417 895 621 160 92 484 252 513 253 4 0 -16 -30 -46
-67z m3668 18 c446 -197 883 -479 1350 -870 111 -94 90 -74 235 -216 143 -140
360 -371 360 -385 0 -12 -160 -182 -314 -334 -136 -133 -394 -365 -472 -423
-29 -21 -98 -74 -155 -117 -190 -147 -547 -366 -803 -493 -136 -68 -307 -145
-312 -140 -2 1 29 43 68 92 164 208 265 392 352 644 99 284 131 501 123 831
-7 301 -39 478 -135 746 -72 201 -228 485 -346 629 -58 70 -69 85 -64 85 2 0
53 -22 113 -49z m-524 -138 c299 -308 476 -676 529 -1103 14 -106 9 -180 -21
-318 -108 -500 -426 -916 -889 -1164 -283 -152 -636 -211 -945 -158 -267 46
-484 147 -684 320 -104 90 -171 176 -236 301 -83 161 -100 233 -100 414 0 129
3 160 24 225 29 92 61 157 117 236 54 77 184 189 184 159 0 -3 -11 -27 -24
-54 -43 -85 -59 -165 -59 -301 1 -143 21 -239 77 -357 124 -261 351 -452 622
-524 113 -30 365 -38 487 -15 353 67 625 242 845 545 242 332 326 798 226
1251 -56 250 -130 437 -243 609 -15 23 -14 23 4 13 11 -6 50 -41 86 -79z
m-1657 -273 c297 -76 552 -300 610 -536 20 -80 30 -164 19 -164 -4 0 -23 22
-41 49 -46 68 -156 171 -227 213 -146 85 -283 121 -460 121 -145 0 -244 -20
-366 -72 -339 -146 -577 -462 -634 -841 -92 -602 240 -1185 845 -1487 203
-101 408 -160 649 -188 74 -9 137 -17 138 -19 12 -12 -69 -16 -257 -12 -183 4
-233 8 -340 31 -367 77 -681 241 -939 489 -203 197 -346 409 -446 665 -63 162
-68 196 -62 381 8 221 39 357 133 587 91 220 288 465 474 590 194 130 354 189
590 217 68 8 240 -5 314 -24z"/>
<path d="M15694 11979 c-334 -25 -711 -153 -989 -336 -140 -92 -331 -256 -357
-305 -67 -130 14 -281 164 -303 64 -10 109 13 249 126 225 182 512 314 809
374 125 26 367 31 494 10 184 -29 342 -79 561 -181 280 -129 425 -176 593
-193 270 -28 583 56 838 225 139 92 202 182 191 275 -13 105 -81 178 -176 187
-67 6 -123 -15 -218 -82 -174 -122 -340 -178 -528 -179 -144 0 -214 19 -470
132 -243 107 -412 172 -525 199 -188 46 -435 66 -636 51z"/>
<path d="M15515 11014 c-203 -31 -329 -67 -471 -134 -147 -69 -204 -134 -204
-233 0 -68 58 -154 124 -186 71 -33 127 -28 223 18 127 61 253 98 379 110 310
29 557 -57 874 -304 165 -128 298 -215 446 -290 227 -115 400 -157 644 -158
252 0 406 42 670 184 25 13 66 45 91 70 86 85 89 201 7 293 -73 83 -168 96
-264 37 -122 -76 -153 -92 -204 -112 -154 -58 -375 -64 -545 -14 -177 52 -358
154 -547 307 -136 110 -224 169 -355 236 -252 128 -416 172 -668 177 -93 2
-183 1 -200 -1z"/>
<path d="M2791 10640 c-198 -25 -437 -121 -590 -237 -38 -29 -81 -113 -81
-158 0 -97 74 -192 168 -215 67 -16 103 -7 185 45 87 55 199 102 291 122 108
23 280 20 396 -7 188 -45 300 -105 572 -308 179 -133 272 -194 396 -256 392
-197 829 -218 1244 -59 184 70 250 128 264 235 13 91 -36 177 -123 218 -68 32
-126 25 -248 -33 -55 -25 -145 -59 -200 -73 -136 -37 -343 -40 -478 -6 -214
53 -379 145 -656 364 -210 167 -506 310 -732 353 -103 19 -311 27 -408 15z"/>
<path d="M15356 10064 c-105 -23 -209 -68 -347 -151 -157 -93 -276 -182 -354
-264 -174 -184 -496 -501 -613 -602 -73 -64 -229 -191 -347 -282 -118 -92
-239 -193 -269 -225 -97 -106 -143 -215 -190 -460 -63 -329 -131 -453 -346
-626 -121 -98 -148 -123 -185 -174 -43 -58 -66 -142 -66 -231 0 -88 36 -171
102 -240 95 -98 345 -263 468 -310 192 -72 402 -34 552 100 65 58 98 115 133
233 31 104 71 150 147 173 62 18 110 10 167 -29 63 -42 96 -104 96 -177 -2
-90 -64 -253 -142 -367 -99 -147 -292 -283 -492 -347 -113 -36 -336 -47 -448
-21 -166 38 -298 100 -513 241 -288 189 -436 382 -479 622 -26 147 1 357 63
478 61 122 123 190 300 332 135 108 169 150 197 242 22 70 44 201 35 209 -3 3
-85 -33 -183 -81 -232 -112 -346 -163 -522 -230 -150 -58 -446 -157 -467 -157
-22 0 -22 -15 3 -110 23 -85 25 -109 21 -235 -3 -109 -10 -162 -30 -239 -68
-256 -229 -476 -455 -622 -161 -105 -277 -152 -522 -215 -199 -51 -296 -97
-397 -189 -267 -243 -314 -278 -456 -345 -52 -25 -130 -54 -173 -66 -509 -130
-1010 100 -1253 577 -22 45 -41 84 -41 87 0 18 -96 228 -123 266 -102 152
-186 214 -391 290 -172 64 -245 98 -317 148 -242 166 -378 403 -396 693 -11
176 32 369 112 510 69 119 67 113 47 131 -9 9 -69 51 -132 94 -134 91 -335
240 -470 349 -52 42 -100 76 -106 76 -48 0 -333 -258 -435 -393 -240 -319
-257 -680 -46 -992 50 -73 66 -92 199 -232 87 -92 115 -129 147 -196 100 -208
106 -422 17 -628 -43 -98 -77 -148 -173 -250 -139 -146 -211 -264 -248 -404
-90 -341 99 -715 425 -843 95 -37 142 -45 255 -45 126 0 201 17 314 69 112 52
180 111 321 279 172 204 297 294 495 352 88 26 283 24 395 -4 156 -39 319
-131 479 -271 60 -53 143 -150 313 -368 154 -199 318 -344 473 -420 138 -67
193 -79 375 -78 142 0 162 2 240 28 151 50 259 115 363 219 92 92 122 132 177
238 57 110 86 199 130 388 35 151 59 215 126 338 104 191 277 349 469 430 115
48 222 67 375 67 275 0 439 -63 810 -312 130 -88 352 -183 525 -226 250 -62
560 -48 775 35 86 33 247 124 335 189 95 70 260 236 315 317 141 208 209 429
197 645 -6 125 -25 198 -77 303 -81 164 -219 310 -418 443 -66 45 -146 106
-179 136 -138 127 -253 367 -253 526 0 110 92 201 202 201 121 0 175 -52 219
-213 39 -141 78 -195 202 -279 246 -168 405 -313 501 -459 159 -241 219 -437
219 -710 -1 -380 -144 -710 -444 -1026 -48 -50 -95 -106 -105 -125 -45 -85 -7
-209 80 -263 39 -25 58 -30 109 -30 37 0 74 7 92 16 40 22 231 216 297 303
195 258 297 481 365 792 24 115 27 148 28 331 l0 202 31 0 c105 0 313 -87 449
-189 290 -217 432 -296 684 -381 179 -60 457 -109 541 -96 97 14 161 85 168
186 5 70 -10 120 -51 166 -44 51 -71 61 -203 79 -203 26 -367 74 -530 153
-103 51 -171 95 -314 202 -173 130 -259 177 -438 240 -119 43 -207 60 -337 68
l-110 7 -45 86 c-109 207 -221 354 -385 504 -163 149 -200 188 -223 236 -103
213 4 500 239 640 123 74 238 108 434 129 186 21 284 66 396 184 35 37 86 139
105 210 34 129 6 317 -63 417 -123 178 -344 268 -547 223z"/>
<path d="M5873 9431 c-23 -11 -79 -52 -125 -92 -133 -115 -295 -213 -482 -289
-359 -146 -694 -170 -1044 -75 -113 30 -175 55 -392 153 -327 148 -411 172
-616 180 -289 10 -544 -65 -801 -237 -99 -66 -136 -104 -164 -166 -76 -166
108 -343 276 -266 22 10 76 44 120 76 44 31 106 70 137 86 153 77 378 109 534
74 80 -18 116 -32 419 -170 362 -164 592 -212 974 -203 161 4 219 10 323 32
250 52 570 184 777 319 138 91 309 241 332 291 54 119 -14 264 -137 295 -59
15 -82 14 -131 -8z"/>
<path d="M17290 9035 c-87 -21 -194 -75 -330 -165 -199 -132 -276 -160 -446
-160 -84 0 -127 6 -241 35 -175 44 -218 50 -281 36 -120 -25 -213 -95 -261
-194 -80 -166 -30 -352 122 -451 68 -45 135 -63 288 -75 149 -13 235 -29 386
-77 200 -62 331 -126 498 -244 168 -119 364 -162 568 -125 225 40 450 231 533
452 35 92 45 152 45 268 0 216 -90 410 -253 546 -72 60 -212 129 -309 153 -79
19 -241 20 -319 1z"/>
<path d="M7646 8133 c-101 -139 -137 -294 -100 -436 50 -195 166 -296 458
-402 191 -68 307 -138 413 -246 136 -138 216 -264 284 -444 85 -227 147 -315
280 -404 231 -155 509 -159 754 -10 30 18 118 90 195 161 247 224 303 252 745
378 257 73 442 207 533 386 35 69 62 183 62 262 0 70 -22 193 -39 220 -6 11
-40 8 -177 -12 -351 -52 -468 -61 -824 -61 -350 0 -451 7 -755 51 -238 35
-443 82 -710 164 -370 115 -613 210 -913 358 -86 42 -160 78 -164 80 -4 2 -23
-18 -42 -45z"/>
<path d="M5182 8110 c-158 -54 -373 -151 -490 -220 -180 -107 -295 -202 -532
-440 -242 -243 -341 -320 -505 -395 -134 -61 -346 -120 -504 -140 -72 -10
-109 -27 -148 -67 -100 -104 -78 -263 46 -336 65 -38 137 -34 341 16 205 50
337 95 460 157 248 124 346 199 615 470 183 184 250 244 325 294 168 110 371
205 603 281 123 40 175 113 164 229 -6 70 -37 122 -98 163 -62 41 -131 38
-277 -12z"/>
<path d="M5483 7350 c-114 -38 -308 -135 -428 -215 -124 -84 -323 -282 -415
-415 -143 -207 -214 -393 -285 -747 -50 -247 -61 -284 -112 -393 -30 -61 -55
-93 -143 -181 -96 -95 -109 -111 -118 -155 -40 -186 135 -323 304 -239 55 27
219 189 273 269 107 157 173 348 220 641 12 72 33 170 47 219 42 147 175 387
270 488 43 45 172 150 229 185 57 36 194 103 210 103 9 0 92 -89 109 -117 4
-8 -21 -44 -65 -95 -183 -210 -317 -477 -375 -748 -27 -124 -27 -498 0 -620
64 -293 196 -537 409 -757 93 -96 270 -243 293 -243 3 0 18 -8 32 -19 78 -54
245 -129 375 -168 166 -49 428 -61 622 -28 90 15 90 15 109 -8 34 -39 75 -140
87 -213 23 -134 -22 -251 -124 -319 -77 -51 -136 -71 -298 -100 -158 -29 -182
-38 -227 -89 -108 -123 -39 -315 125 -350 62 -14 410 67 515 119 205 102 349
255 408 435 27 82 38 276 21 372 -14 80 -54 204 -89 273 -23 47 -24 50 -7 60
163 93 306 215 524 448 35 37 69 67 76 67 22 0 129 -86 193 -154 70 -75 120
-169 128 -242 11 -89 -15 -147 -162 -360 -187 -273 -377 -621 -477 -874 -150
-380 -163 -445 -108 -531 89 -142 287 -134 363 14 11 23 44 107 73 187 138
379 258 607 520 985 159 230 215 376 215 561 0 236 -160 509 -410 699 -199
152 -368 187 -522 109 -64 -32 -101 -67 -226 -207 -287 -324 -532 -457 -872
-473 -367 -18 -721 149 -947 446 -137 179 -210 384 -220 611 -10 222 32 422
122 586 46 84 159 237 236 320 116 125 154 204 147 305 -6 96 -36 147 -167
283 -64 66 -145 161 -181 210 l-65 90 -60 2 c-44 2 -84 -5 -152 -27z"/>
<path d="M11643 5786 c-79 -18 -143 -47 -206 -92 -55 -40 -131 -118 -161 -168
-33 -54 -72 -176 -106 -326 -55 -248 -120 -396 -272 -613 -109 -157 -152 -253
-164 -375 -9 -92 15 -209 65 -315 37 -79 133 -228 182 -285 50 -57 151 -186
188 -240 54 -80 87 -148 121 -252 59 -174 75 -325 59 -538 -11 -137 -10 -156
5 -196 59 -154 277 -182 369 -48 38 54 47 106 54 314 7 211 -3 309 -47 483
-66 256 -152 418 -358 677 -125 156 -161 209 -189 278 -39 95 -31 131 56 244
171 225 271 449 351 793 41 176 58 209 116 235 62 27 103 18 208 -45 63 -38
86 -57 86 -72 0 -11 -11 -103 -25 -204 -29 -209 -31 -327 -10 -492 19 -159 47
-278 90 -395 81 -214 186 -391 305 -511 68 -69 108 -102 260 -215 196 -146
307 -298 368 -504 27 -89 55 -131 114 -167 37 -23 58 -29 105 -29 123 -1 213
86 213 207 0 76 -68 266 -138 385 -120 204 -220 309 -446 469 -187 132 -276
246 -361 461 -73 185 -95 307 -95 524 1 147 9 238 23 252 3 3 49 -15 103 -40
55 -25 152 -63 218 -85 l119 -40 37 -98 c44 -117 57 -144 125 -248 219 -340
451 -493 950 -629 254 -69 361 -130 500 -283 68 -76 118 -102 193 -103 158 0
248 157 177 309 -32 68 -181 219 -280 283 -147 95 -241 135 -515 217 -187 56
-339 117 -414 165 -89 57 -202 179 -245 263 -11 23 -21 44 -21 46 0 2 71 7
158 10 107 4 202 14 297 33 77 14 154 28 171 31 27 4 43 -5 120 -67 145 -117
309 -194 464 -219 102 -17 273 -13 375 8 210 44 374 138 560 325 67 67 141
145 165 175 153 187 261 281 323 281 68 0 129 -48 178 -140 55 -103 122 -150
216 -150 89 0 162 55 188 143 29 98 17 142 -73 273 -106 153 -188 223 -311
264 -261 87 -537 -21 -756 -295 -229 -286 -337 -382 -495 -439 -91 -33 -226
-45 -313 -26 -101 20 -221 89 -327 185 -116 105 -155 127 -240 133 -54 4 -79
0 -137 -21 -147 -53 -278 -72 -503 -71 -182 1 -219 4 -329 27 -254 54 -534
168 -711 288 -125 85 -264 170 -320 196 -131 61 -295 84 -407 59z"/>
<path d="M9846 4066 c-147 -55 -173 -232 -79 -545 35 -117 68 -186 159 -336
91 -148 149 -271 165 -346 7 -30 9 -102 7 -168 -4 -101 -9 -127 -38 -200 -42
-107 -43 -172 -5 -236 90 -154 307 -134 383 34 35 78 69 213 83 331 28 224
-39 504 -168 696 -143 215 -191 336 -212 543 -12 109 -37 162 -97 204 -50 35
-138 45 -198 23z"/>
<path d="M9164 3640 c-17 -6 -49 -29 -71 -53 -32 -35 -44 -59 -62 -128 -31
-118 -59 -181 -136 -305 -76 -121 -153 -277 -184 -373 -33 -103 -64 -279 -58
-332 14 -119 90 -189 204 -189 71 0 127 24 170 73 31 35 44 76 58 182 15 109
75 267 135 354 139 203 217 393 227 551 4 65 1 81 -19 119 -13 25 -40 58 -61
75 -33 26 -48 31 -105 33 -37 1 -81 -2 -98 -7z"/>
</g>
</svg>
