<?xml version="1.0" standalone="no"?>
<!DOCTYPE svg PUBLIC "-//W3C//DTD SVG 20010904//EN"
 "http://www.w3.org/TR/2001/REC-SVG-20010904/DTD/svg10.dtd">
<svg version="1.0" xmlns="http://www.w3.org/2000/svg"
 width="2048.000000pt" height="2048.000000pt" viewBox="0 0 2048.000000 2048.000000"
 preserveAspectRatio="xMidYMid meet">
<metadata>
Created by potrace 1.16, written by Peter Selinger 2001-2019
</metadata>
<g transform="translate(0.000000,2048.000000) scale(0.100000,-0.100000)"
fill="#18bcf2" stroke="none">
<path d="M8675 17041 c-84 -39 -117 -98 -163 -291 -44 -186 -144 -574 -149
-580 -2 -2 -8 2 -14 10 -6 10 -7 4 -3 -20 4 -19 3 -32 -1 -28 -4 4 -9 24 -11
45 -4 45 -96 414 -149 602 -60 209 -113 271 -232 271 -199 0 -724 -110 -1058
-222 -366 -123 -730 -299 -1030 -501 -184 -123 -336 -241 -499 -388 -171 -153
-205 -200 -213 -289 -5 -53 -2 -67 26 -122 28 -56 276 -398 446 -615 35 -46
62 -83 58 -83 -3 0 -160 78 -347 173 -357 182 -436 217 -489 217 -44 0 -126
-41 -163 -81 -107 -117 -330 -595 -428 -919 -31 -104 -109 -427 -131 -542 -24
-128 2 -212 85 -273 35 -26 38 -27 410 -166 135 -50 251 -94 259 -99 20 -11
-48 -24 -432 -85 -120 -19 -230 -41 -245 -49 -54 -28 -102 -96 -116 -163 -8
-36 6 -198 35 -413 25 -179 113 -624 135 -682 27 -69 62 -108 122 -136 52 -24
61 -25 176 -19 67 3 183 13 259 22 76 9 147 15 158 13 23 -3 -12 -33 -268
-228 -165 -125 -188 -158 -188 -270 1 -74 2 -78 74 -215 41 -77 92 -171 114
-210 68 -117 303 -477 342 -523 51 -59 102 -83 180 -84 72 -1 121 19 345 141
69 38 233 124 365 191 132 68 269 138 304 157 35 18 67 32 71 31 24 -9 138
-172 150 -213 16 -57 8 -259 -15 -385 -8 -47 -15 -86 -15 -87 0 -9 38 2 116
33 49 20 141 54 204 75 l115 38 13 43 c8 24 16 97 19 163 10 223 -46 365 -228
585 -470 565 -619 1108 -519 1890 49 384 186 723 409 1015 59 78 219 237 298
298 398 305 993 459 1613 417 562 -37 1025 -219 1360 -534 173 -163 321 -385
429 -646 l31 -76 143 0 c95 -1 168 -6 221 -18 43 -9 80 -15 83 -12 8 7 -45
180 -89 291 -45 115 -138 296 -197 385 -69 104 -69 92 -5 168 64 75 239 264
419 452 66 69 170 177 230 240 61 64 157 167 215 230 57 63 162 174 233 246
160 162 189 206 195 285 6 87 -16 123 -175 281 -210 208 -394 360 -646 532
-223 153 -300 154 -437 10 -94 -99 -466 -505 -522 -570 -27 -30 -48 -52 -48
-48 0 3 20 70 44 148 134 428 196 655 196 715 0 98 -36 163 -110 201 -61 31
-237 89 -445 146 -443 121 -818 172 -920 125z"/>
<path d="M15895 16659 c-4 -5 -34 -142 -66 -302 -57 -278 -61 -293 -91 -324
-18 -18 -40 -33 -51 -33 -10 0 -52 21 -93 48 -41 26 -120 77 -177 113 -138 88
-165 104 -172 97 -5 -4 -72 -335 -117 -572 -12 -63 -16 -70 -47 -87 -42 -22
-29 -28 -279 131 -103 66 -192 120 -199 120 -7 0 -15 -10 -17 -22 -3 -13 -33
-158 -66 -322 -33 -165 -62 -301 -63 -301 -1 -1 -36 -22 -77 -46 -125 -73
-174 -135 -206 -259 -17 -65 -17 -60 47 -290 32 -115 20 -250 -30 -349 -19
-37 -146 -182 -332 -378 -48 -51 -89 -93 -91 -93 -2 0 -56 29 -119 65 -326
187 -543 261 -738 253 -86 -3 -106 -8 -164 -36 -43 -21 -97 -61 -149 -111
l-83 -78 -105 49 c-147 69 -274 115 -425 154 -168 44 -216 44 -257 3 -30 -29
-31 -32 -25 -102 8 -114 148 -510 232 -659 l27 -48 -66 -72 c-89 -98 -128
-176 -134 -273 -6 -90 11 -208 44 -312 36 -115 143 -325 234 -459 l78 -118
-96 -105 c-53 -58 -100 -108 -103 -111 -7 -6 -365 -395 -438 -475 -100 -111
-286 -310 -323 -347 -44 -43 -60 -41 -152 12 -194 111 -277 290 -246 531 16
126 77 290 141 381 69 96 109 227 109 353 0 155 -48 274 -154 381 -186 187
-472 220 -794 93 -225 -89 -370 -187 -557 -374 -161 -161 -252 -288 -362 -505
-117 -229 -180 -388 -343 -865 -105 -308 -174 -452 -285 -600 -185 -245 -495
-415 -1034 -566 -376 -105 -654 -196 -863 -283 -646 -268 -1086 -652 -1329
-1161 -69 -146 -89 -203 -96 -276 -7 -68 9 -119 50 -165 66 -76 172 -98 261
-55 62 30 88 67 129 181 71 197 189 386 337 543 159 167 291 267 526 396 241
132 478 219 1074 395 424 125 561 177 771 292 377 207 600 459 764 864 27 67
159 435 245 685 56 162 172 428 227 518 153 254 331 425 565 543 166 84 339
98 408 34 24 -22 30 -37 30 -68 0 -40 -13 -70 -114 -254 -101 -185 -147 -367
-149 -583 -1 -112 3 -157 20 -225 26 -102 76 -216 131 -297 65 -96 212 -230
313 -286 l32 -18 -64 -67 c-35 -36 -71 -73 -79 -82 -9 -8 -74 -80 -146 -160
-72 -80 -233 -256 -357 -393 -194 -213 -228 -256 -250 -310 -49 -122 -45 -257
11 -377 33 -70 107 -146 480 -486 118 -107 228 -154 361 -154 169 0 233 40
467 293 200 216 323 350 440 480 43 48 81 87 84 87 3 0 20 -27 39 -60 37 -65
150 -183 221 -231 148 -100 299 -149 481 -156 260 -11 482 58 752 235 91 59
132 70 185 50 56 -21 64 -45 59 -173 -3 -85 -11 -128 -31 -190 -80 -238 -259
-465 -486 -617 -106 -72 -405 -223 -715 -363 -196 -88 -366 -179 -445 -238
-235 -175 -359 -315 -464 -524 -51 -101 -78 -179 -135 -376 -48 -168 -67 -261
-171 -814 -65 -346 -107 -524 -163 -693 -125 -377 -289 -670 -490 -875 -114
-115 -184 -172 -333 -268 -120 -77 -147 -112 -152 -202 -5 -84 33 -157 102
-200 65 -39 157 -42 226 -6 112 59 320 214 423 317 412 407 647 927 802 1774
144 787 189 963 302 1184 39 75 64 108 147 192 137 136 293 235 538 338 604
256 917 455 1148 731 206 245 324 531 337 815 11 239 -68 421 -235 534 -98 67
-192 96 -311 97 -128 0 -207 -28 -376 -131 -206 -125 -316 -162 -475 -163
-197 0 -340 86 -417 250 -34 74 -39 113 -16 138 10 11 70 76 133 145 63 69
142 154 176 190 33 36 125 135 204 220 79 85 199 214 266 285 66 72 156 170
199 218 45 51 84 86 91 83 7 -3 66 -45 131 -94 242 -183 531 -345 737 -413
116 -38 213 -53 309 -46 123 8 196 52 304 181 l32 38 43 -26 c175 -102 630
-244 707 -219 85 26 98 74 60 218 -39 150 -135 398 -215 557 l-35 69 80 86
c119 129 126 146 125 323 -1 158 -15 222 -84 381 -86 197 -298 532 -442 698
-21 24 -38 50 -38 57 0 7 51 66 113 132 61 65 165 175 229 244 100 107 127
130 190 161 100 49 193 64 308 49 48 -7 106 -12 129 -12 51 0 127 28 175 65
74 56 86 79 341 645 51 113 146 320 210 460 308 671 500 1091 527 1153 55 127
45 277 -27 423 -63 129 -171 223 -320 280 -86 33 -228 43 -349 25 l-82 -12
-81 53 c-126 82 -343 218 -348 218 -2 0 -7 -5 -10 -11z m763 -703 c78 -53 76
-73 -18 -271 -149 -314 -204 -432 -270 -580 -32 -71 -108 -238 -170 -370 -62
-132 -116 -250 -120 -262 -5 -11 -29 -67 -54 -122 -25 -56 -67 -147 -92 -203
-26 -57 -68 -148 -94 -204 -26 -55 -50 -109 -54 -120 -5 -18 -14 -19 -120 -16
-134 4 -254 -15 -366 -59 -41 -16 -79 -29 -84 -29 -6 0 -55 44 -110 98 -56 53
-179 169 -274 257 l-173 160 8 65 c4 36 7 121 6 190 -1 102 -6 141 -27 213
-14 48 -26 90 -26 92 0 11 154 104 162 99 4 -3 8 -16 8 -28 0 -27 41 -91 78
-120 79 -64 188 -60 271 10 81 68 94 176 36 290 -19 38 -35 74 -35 79 0 9 170
119 238 154 25 13 42 7 42 -15 0 -23 35 -86 62 -111 76 -72 215 -71 290 1 48
46 63 84 63 166 0 68 -3 81 -38 142 l-37 67 22 16 c35 25 158 104 206 132 24
14 47 22 51 17 4 -5 13 -27 19 -49 15 -51 66 -114 108 -131 43 -18 148 -18
183 0 44 23 99 91 111 137 16 59 5 134 -31 209 -16 34 -26 66 -23 71 3 5 26
21 52 34 64 34 143 31 200 -9z m-4583 -2132 c95 -27 285 -103 285 -114 0 -4
-24 -31 -52 -61 -29 -30 -84 -87 -121 -127 -38 -40 -70 -72 -72 -72 -7 0 -105
240 -118 290 -24 87 -28 110 -19 110 4 0 48 -12 97 -26z m2476 -82 c63 -60
136 -128 164 -153 27 -24 76 -70 109 -101 l61 -57 -30 -35 c-33 -39 -353 -389
-699 -765 -123 -134 -232 -248 -242 -254 -14 -8 -51 24 -231 205 -117 119
-213 220 -213 226 0 8 182 218 210 242 6 5 228 244 321 345 25 28 106 115 180
195 74 80 157 172 186 203 29 31 56 57 61 57 5 0 60 -49 123 -108z m-1346
-149 c55 -24 138 -65 184 -90 l83 -45 -84 -87 c-47 -47 -106 -110 -133 -138
-27 -29 -52 -53 -56 -53 -11 0 -112 164 -158 256 -44 89 -81 192 -81 223 0 20
0 20 73 0 39 -11 117 -41 172 -66z m-471 -615 c53 -16 109 -73 130 -133 9 -27
16 -80 16 -120 0 -94 -34 -164 -104 -217 -104 -77 -176 -75 -295 10 -122 87
-411 326 -411 339 0 11 15 16 185 63 118 33 312 68 379 69 32 1 77 -5 100 -11z
m2025 -743 c94 -139 177 -281 210 -357 32 -75 59 -175 51 -188 -17 -27 -244
64 -425 170 -121 71 -285 183 -314 214 l-24 25 33 38 c19 21 94 101 169 179
l135 141 39 -46 c21 -25 78 -104 126 -176z m-1377 5 c20 -6 59 -31 88 -57 92
-82 128 -193 96 -290 -28 -84 -67 -113 -239 -181 -188 -74 -395 -138 -408
-125 -11 11 12 94 85 310 64 189 91 246 139 291 58 56 151 76 239 52z m-763
-761 l221 -221 -73 -77 c-145 -151 -206 -217 -253 -272 -27 -31 -137 -151
-244 -265 -107 -115 -213 -229 -236 -254 -22 -25 -139 -151 -259 -280 -385
-415 -429 -463 -540 -585 -310 -342 -457 -495 -476 -495 -8 1 -35 20 -60 43
-309 283 -379 351 -379 368 0 10 24 44 53 76 195 214 419 458 471 513 34 36
84 90 111 120 28 31 106 116 176 190 69 74 145 158 170 185 25 28 135 147 245
265 109 119 240 260 289 315 50 54 153 167 230 250 77 83 180 194 229 248 49
53 92 97 97 97 4 0 107 -100 228 -221z m1589 82 c48 -25 97 -77 116 -123 20
-47 20 -142 1 -278 -23 -161 -66 -374 -79 -388 -10 -10 -28 4 -87 65 -151 159
-294 341 -322 411 -43 107 6 233 117 301 70 44 182 49 254 12z m907 -550 c32
-63 98 -231 118 -298 14 -45 14 -53 2 -53 -24 0 -246 76 -318 109 -38 17 -67
35 -65 41 5 16 221 250 230 250 4 0 19 -22 33 -49z"/>
<path d="M3875 10982 c-22 -11 -50 -30 -61 -43 -12 -13 -123 -175 -247 -360
-237 -355 -252 -385 -237 -468 8 -42 45 -111 82 -151 48 -52 166 -191 238
-280 41 -51 91 -111 111 -134 20 -23 111 -131 202 -241 l166 -200 -28 -30
c-15 -16 -57 -68 -92 -114 -35 -46 -121 -158 -190 -248 -144 -189 -168 -237
-150 -310 17 -67 46 -119 84 -148 36 -27 501 -250 544 -261 17 -5 23 -12 20
-23 -3 -9 -60 -149 -128 -311 -71 -173 -124 -314 -127 -340 -9 -94 37 -179
122 -222 23 -12 104 -47 181 -79 77 -31 143 -63 146 -71 4 -7 15 -71 24 -142
9 -71 24 -151 31 -178 30 -100 112 -154 223 -146 108 8 177 78 187 192 7 69
-66 501 -93 553 -26 51 -76 84 -207 137 -60 25 -111 47 -113 50 -3 2 25 78 62
168 163 397 185 457 185 500 0 53 -38 137 -75 166 -30 24 -244 130 -417 207
-60 26 -108 50 -108 53 0 3 26 39 58 81 32 42 96 126 142 186 46 61 89 115 95
121 6 6 31 42 55 80 43 64 45 72 45 139 -1 91 -13 114 -166 295 -67 80 -140
168 -163 196 -44 55 -326 392 -363 434 -55 63 -93 116 -93 131 0 9 15 36 33
60 57 75 306 454 317 483 31 82 -8 205 -79 252 -55 36 -157 44 -216 16z"/>
<path d="M14692 9904 c-91 -45 -141 -131 -127 -218 8 -48 43 -112 95 -176 20
-25 76 -99 123 -165 48 -66 121 -165 162 -219 42 -54 80 -107 86 -117 8 -15
-4 -33 -66 -101 -152 -167 -153 -211 -9 -517 30 -63 54 -119 54 -125 0 -6 -64
-51 -143 -100 -551 -347 -547 -345 -582 -394 -27 -39 -30 -52 -30 -115 0 -66
5 -82 52 -182 148 -316 323 -698 321 -701 -2 -1 -57 9 -123 23 -379 78 -642
124 -680 118 -84 -13 -152 -74 -176 -157 -9 -32 -22 -217 -55 -793 -9 -159
-18 -292 -20 -294 -1 -2 -163 2 -359 8 -268 8 -367 8 -402 -1 -66 -16 -126
-77 -147 -148 -17 -56 -99 -457 -111 -542 -4 -27 -12 -48 -18 -48 -5 0 -33 15
-61 34 -298 196 -364 234 -429 242 -49 6 -114 -14 -163 -51 -37 -28 -232 -315
-798 -1174 -180 -274 -180 -275 -184 -338 -5 -80 16 -140 65 -183 70 -62 156
-71 244 -27 52 26 59 35 203 255 116 176 634 957 668 1006 3 5 98 -51 210
-124 250 -165 334 -210 392 -210 96 0 177 53 213 139 9 20 25 90 38 156 67
363 108 571 114 577 3 4 177 2 387 -5 357 -10 384 -10 428 7 59 22 110 87 125
157 10 43 36 445 57 859 9 180 9 185 25 183 8 -1 93 -17 189 -37 856 -171
1110 -219 1115 -214 7 7 -28 89 -122 286 -36 75 -112 238 -170 362 -58 124
-125 268 -150 320 -124 261 -194 413 -191 415 25 19 226 149 263 169 47 27
226 141 361 229 97 64 136 144 120 250 -4 23 -45 128 -91 231 -49 108 -81 194
-77 201 4 7 21 28 37 47 105 118 152 192 161 255 12 96 -3 123 -264 480 -67
92 -162 222 -210 287 -107 146 -133 172 -196 191 -69 21 -94 19 -154 -11z"/>
<path d="M7570 9097 c-19 -6 -58 -34 -85 -62 -55 -55 -60 -65 -142 -320 l-48
-150 -60 -13 c-359 -76 -668 -212 -958 -419 -107 -77 -147 -112 -298 -264
-349 -351 -579 -819 -643 -1309 -20 -153 -29 -404 -19 -512 8 -76 7 -89 -7
-92 -8 -3 -96 -24 -195 -47 -237 -55 -272 -68 -328 -128 -59 -63 -79 -110 -80
-191 -1 -113 51 -197 155 -249 88 -44 138 -42 388 19 113 27 208 46 211 42 4
-4 24 -47 44 -97 88 -215 243 -455 425 -656 l69 -76 -89 -264 c-103 -310 -111
-351 -81 -442 26 -76 72 -129 146 -163 128 -61 297 -6 357 116 29 61 128 348
128 374 0 9 2 16 4 16 2 0 55 -27 118 -59 276 -145 598 -236 923 -262 440 -34
874 58 1273 270 60 32 95 45 98 38 2 -7 19 -57 38 -112 94 -283 120 -326 222
-375 143 -70 321 -5 373 136 38 100 31 142 -69 440 -49 147 -90 274 -90 281 0
8 36 54 79 101 79 86 197 240 258 337 140 222 269 568 319 855 18 108 28 500
15 590 -5 30 -7 57 -5 59 1 2 99 27 216 55 117 29 229 61 248 71 107 55 151
123 153 239 1 80 -11 118 -57 185 -42 60 -128 101 -211 101 -55 0 -258 -43
-416 -88 l-66 -19 -13 36 c-26 73 -138 298 -189 381 -135 216 -342 447 -543
607 -293 233 -659 404 -998 468 -46 8 -87 19 -91 23 -3 4 -34 94 -69 200 -69
214 -93 256 -175 307 -41 26 -59 30 -124 32 -42 1 -92 -3 -111 -10z m-505
-1249 c-13 -40 -83 -255 -155 -478 -72 -223 -135 -416 -140 -430 -5 -14 -57
-173 -115 -355 -59 -181 -108 -331 -109 -332 -7 -8 -658 -165 -662 -160 -10
10 -5 286 6 372 71 541 402 1039 873 1310 84 48 126 69 267 132 57 26 61 20
35 -59z m1266 51 c283 -111 594 -346 771 -580 115 -153 241 -385 215 -394 -49
-19 -682 -163 -687 -158 -4 5 -64 184 -135 398 -70 215 -154 470 -186 569 -33
98 -59 180 -59 182 0 9 33 2 81 -17z m-621 -136 c18 -60 106 -331 195 -603 90
-272 166 -505 170 -517 5 -18 1 -23 -17 -28 -86 -19 -353 -84 -578 -139 -146
-36 -268 -66 -272 -66 -17 0 -4 47 116 414 69 210 163 500 210 646 119 371
129 400 136 400 4 0 22 -48 40 -107z m1756 -1430 c4 -20 4 -100 1 -177 -10
-239 -71 -473 -179 -690 -70 -142 -140 -258 -150 -248 -5 5 -82 232 -172 505
l-163 496 61 16 c121 32 552 133 573 134 18 1 23 -6 29 -36z m-1105 -570 c57
-175 154 -469 215 -653 74 -222 108 -339 102 -347 -14 -17 -189 -116 -288
-162 -176 -81 -364 -129 -592 -151 -240 -23 -533 26 -802 136 -122 50 -325
159 -333 180 -2 7 38 142 91 301 52 158 123 376 156 483 34 107 66 202 70 210
9 18 -9 13 490 134 217 53 476 116 575 140 99 24 187 44 196 45 12 1 40 -72
120 -316z m-2082 -348 c-35 -110 -67 -194 -73 -192 -6 2 -23 21 -37 43 -44 64
-152 264 -146 270 7 7 311 83 316 79 2 -2 -25 -92 -60 -200z"/>
<path d="M9294 8975 c-56 -29 -99 -81 -115 -138 -24 -88 13 -171 119 -267 67
-62 179 -168 312 -294 87 -83 246 -231 394 -367 92 -85 110 -94 192 -94 60 0
76 4 112 28 24 15 55 49 72 80 28 46 31 59 27 112 -6 83 -26 117 -125 210 -47
44 -140 132 -206 195 -67 63 -177 167 -246 230 -69 63 -168 156 -220 207 -52
50 -112 99 -132 108 -56 23 -126 19 -184 -10z"/>
</g>
</svg>
