<?xml version="1.0" standalone="no"?>
<!DOCTYPE svg PUBLIC "-//W3C//DTD SVG 20010904//EN"
 "http://www.w3.org/TR/2001/REC-SVG-20010904/DTD/svg10.dtd">
<svg version="1.0" xmlns="http://www.w3.org/2000/svg"
 width="2048.000000pt" height="2048.000000pt" viewBox="0 0 2048.000000 2048.000000"
 preserveAspectRatio="xMidYMid meet">
<metadata>
Created by potrace 1.16, written by Peter Selinger 2001-2019
</metadata>
<g transform="translate(0.000000,2048.000000) scale(0.100000,-0.100000)"
fill="#18bcf2" stroke="none">
<path d="M10039 16771 c-267 -58 -488 -267 -554 -521 -68 -263 16 -564 243
-868 88 -118 345 -380 517 -528 44 -38 87 -75 95 -83 30 -29 237 -199 350
-287 152 -119 201 -154 215 -154 12 0 281 201 385 288 449 375 659 582 822
808 92 128 131 199 172 306 87 234 78 462 -27 673 -73 148 -236 285 -413 345
-187 65 -437 41 -599 -57 -129 -79 -228 -184 -304 -323 l-39 -73 -32 64 c-107
211 -267 347 -475 403 -96 26 -255 29 -356 7z"/>
<path d="M14020 16760 c-47 -47 -34 -104 43 -188 201 -219 346 -507 413 -822
35 -164 43 -418 19 -590 -41 -289 -160 -578 -329 -804 -240 -319 -595 -567
-949 -661 -386 -103 -802 -60 -1179 121 -109 52 -159 42 -174 -32 -7 -39 12
-84 77 -182 301 -448 757 -768 1263 -887 196 -45 338 -59 565 -52 250 7 454
45 655 124 752 292 1245 914 1347 1698 17 131 14 399 -5 539 -43 307 -161 615
-332 871 -91 137 -164 223 -284 338 -235 226 -475 370 -803 483 -191 66 -292
79 -327 44z"/>
<path d="M6380 15783 c-19 -1 -87 -8 -150 -14 -658 -63 -1356 -317 -1930 -703
-175 -117 -223 -163 -251 -235 -81 -210 50 -423 269 -438 107 -8 156 12 324
131 236 168 581 337 909 446 275 92 443 129 734 162 124 14 469 17 590 5 246
-24 392 -50 585 -102 678 -186 1244 -520 1770 -1045 69 -69 157 -161 195 -206
39 -44 95 -109 125 -144 30 -35 97 -118 149 -184 280 -360 468 -574 745 -851
486 -484 909 -797 1429 -1055 439 -219 914 -360 1367 -406 293 -29 712 -12
1010 42 691 125 1395 483 1944 988 72 66 148 139 169 161 153 163 111 427 -82
519 -57 27 -77 31 -146 30 -106 0 -139 -18 -285 -155 -585 -549 -1297 -889
-1981 -949 -172 -14 -523 -4 -684 20 -577 87 -1190 355 -1723 755 -398 299
-769 670 -1140 1142 -346 441 -507 625 -758 864 -383 364 -904 703 -1400 912
-373 157 -804 265 -1200 301 -151 14 -482 19 -584 9z"/>
<path d="M13315 15692 c-4 -9 -28 -75 -55 -147 -64 -175 -94 -240 -122 -268
-23 -23 -204 -98 -351 -147 -39 -12 -66 -27 -64 -33 2 -6 32 -22 68 -34 135
-49 295 -114 327 -133 39 -24 64 -76 142 -292 29 -82 58 -148 64 -148 6 0 33
62 59 138 60 168 114 280 148 305 14 10 108 49 208 87 101 38 186 71 188 74 7
6 -2 10 -211 90 -92 36 -179 72 -192 81 -13 8 -36 39 -50 68 -27 52 -134 338
-134 356 0 18 -18 21 -25 3z"/>
<path d="M6432 14490 c-395 -28 -770 -131 -1117 -308 -128 -65 -194 -122 -232
-201 -23 -47 -28 -69 -27 -132 1 -99 32 -167 109 -238 65 -58 127 -82 217 -82
75 0 117 14 223 75 206 119 484 204 775 237 127 14 415 6 545 -15 364 -59 687
-193 1015 -421 351 -244 646 -575 868 -973 56 -99 103 -150 180 -188 115 -57
263 -31 356 62 62 62 90 133 91 230 0 77 -3 86 -44 169 -110 216 -331 526
-529 741 -122 132 -137 147 -280 272 -298 262 -665 477 -1032 608 -359 127
-773 188 -1118 164z"/>
<path d="M6595 13024 c-309 -47 -495 -117 -730 -272 -129 -85 -335 -288 -429
-424 -187 -270 -286 -592 -286 -927 l0 -90 428 -3 c417 -3 428 -3 468 -25 148
-79 178 -277 60 -394 -64 -64 -59 -64 -526 -69 l-425 -5 0 -275 0 -274 420 -1
420 0 53 -29 c182 -100 175 -355 -12 -442 -51 -24 -51 -24 -469 -24 l-417 0 2
-277 3 -278 419 -2 420 -2 54 -27 c90 -44 138 -129 130 -233 -5 -66 -28 -119
-72 -162 -64 -64 -59 -64 -526 -69 l-425 -5 0 -285 c0 -369 20 -489 121 -742
163 -410 521 -753 943 -907 181 -66 451 -108 616 -97 409 29 727 168 1046 458
142 129 294 361 372 568 96 252 117 388 117 750 l0 260 -417 0 -418 0 -50 24
c-95 45 -145 121 -145 221 0 68 17 110 66 165 74 82 60 80 523 80 225 0 416 3
425 6 14 5 16 40 16 280 l0 274 -417 0 c-418 0 -418 0 -468 24 -97 45 -147
122 -146 226 0 85 46 161 129 212 37 23 41 23 467 28 l430 5 3 277 2 277 -433
3 -434 3 -49 30 c-30 19 -60 49 -79 79 -27 45 -30 58 -30 131 0 77 2 85 35
134 26 39 50 59 94 81 l59 30 419 0 418 0 0 108 c-1 355 -124 708 -345 998
-181 235 -462 437 -738 529 -175 58 -281 76 -482 80 -99 2 -193 1 -210 -1z"/>
<path d="M12875 10339 c-687 -60 -1306 -306 -1830 -725 -126 -101 -369 -340
-472 -464 -406 -489 -665 -1097 -740 -1735 -23 -201 -23 -598 0 -776 76 -574
277 -1086 610 -1553 193 -272 486 -564 762 -762 416 -298 932 -513 1390 -579
22 -4 67 -10 100 -15 199 -30 596 -37 795 -14 537 60 1048 251 1520 567 80 54
92 63 240 183 333 271 653 671 850 1064 115 230 198 452 265 714 147 572 121
1247 -70 1821 -170 514 -426 927 -814 1316 -176 176 -307 284 -496 408 -451
297 -927 472 -1455 536 -157 19 -510 27 -655 14z m331 -850 c62 -38 81 -131
40 -194 -30 -45 -70 -57 -225 -66 -275 -15 -477 -60 -710 -156 -294 -121 -545
-293 -766 -524 -248 -260 -414 -554 -529 -939 -41 -137 -76 -385 -76 -539 0
-43 -6 -78 -18 -101 -63 -126 -247 -96 -267 43 -6 36 6 230 21 337 60 451 257
905 548 1264 198 243 479 469 778 626 278 146 645 250 948 270 151 9 215 4
256 -21z m177 -1279 c461 -101 803 -435 917 -895 50 -202 48 -381 -5 -592 -28
-108 -102 -270 -172 -376 -61 -92 -218 -249 -308 -309 -198 -130 -395 -195
-626 -205 -211 -9 -380 24 -565 111 -349 165 -596 487 -669 870 -18 94 -21
313 -6 407 76 466 429 858 881 975 188 48 374 53 553 14z m2163 -1056 c58 -28
69 -61 68 -204 -5 -487 -204 -1029 -532 -1449 -435 -556 -1142 -923 -1829
-948 l-172 -6 -40 39 c-53 54 -62 99 -29 162 32 63 71 82 166 82 272 0 629 86
907 219 442 211 836 612 1040 1057 131 285 187 521 210 873 6 104 25 150 73
176 36 19 96 19 138 -1z"/>
<path d="M13040 7401 c-108 -35 -200 -113 -247 -209 -25 -51 -28 -67 -28 -162
0 -96 3 -110 29 -162 54 -108 163 -194 274 -217 69 -14 165 0 235 35 60 31
147 115 175 170 28 54 45 156 37 218 -9 74 -60 173 -119 230 -73 71 -141 99
-246 103 -47 1 -96 -1 -110 -6z"/>
<path d="M4264 9599 c-61 -14 -144 -68 -181 -117 -65 -86 -65 -81 -60 -789 4
-686 6 -714 62 -968 120 -539 378 -1005 766 -1381 129 -126 159 -152 285 -247
239 -180 546 -337 836 -426 107 -33 310 -76 406 -87 l62 -7 0 -618 0 -619
-632 -1 c-348 0 -646 -3 -663 -5 -92 -15 -187 -86 -230 -170 -27 -52 -30 -69
-30 -149 0 -85 2 -94 36 -155 39 -72 112 -132 182 -151 27 -7 550 -10 1656
-10 1601 0 1618 0 1672 20 99 37 168 114 195 216 19 69 17 112 -6 187 -25 82
-81 147 -158 185 l-57 28 -660 5 -660 5 0 615 0 614 85 12 c195 26 435 92 615
169 365 156 610 321 890 600 454 451 715 983 801 1630 15 111 17 218 17 740
-1 644 -2 662 -48 734 -60 95 -152 145 -270 145 -130 1 -225 -55 -286 -166
l-34 -63 -6 -640 c-5 -594 -7 -649 -27 -760 -47 -263 -136 -512 -258 -722
-289 -495 -755 -854 -1284 -988 -179 -45 -258 -56 -460 -62 -167 -5 -216 -3
-340 16 -272 40 -463 102 -690 224 -405 219 -699 524 -900 932 -104 211 -150
367 -211 705 -8 42 -14 280 -18 680 l-6 615 -28 57 c-65 132 -216 202 -363
167z"/>
</g>
</svg>
