<?xml version="1.0" standalone="no"?>
<!DOCTYPE svg PUBLIC "-//W3C//DTD SVG 20010904//EN"
 "http://www.w3.org/TR/2001/REC-SVG-20010904/DTD/svg10.dtd">
<svg version="1.0" xmlns="http://www.w3.org/2000/svg"
 width="2048.000000pt" height="2048.000000pt" viewBox="0 0 2048.000000 2048.000000"
 preserveAspectRatio="xMidYMid meet">
<metadata>
Created by potrace 1.16, written by Peter Selinger 2001-2019
</metadata>
<g transform="translate(0.000000,2048.000000) scale(0.100000,-0.100000)"
fill="#18bcf2" stroke="none">
<path d="M11557 16176 c-134 -48 -196 -207 -133 -341 28 -60 56 -87 118 -115
165 -73 348 44 348 222 -1 105 -51 185 -145 229 -47 22 -133 24 -188 5z"/>
<path d="M7773 16055 c-84 -42 -133 -123 -133 -220 0 -98 45 -173 131 -219 72
-40 164 -42 235 -5 55 28 107 95 125 162 28 104 -26 230 -120 279 -73 38 -164
39 -238 3z"/>
<path d="M6557 15805 c-726 -275 -1338 -756 -1779 -1400 -167 -244 -320 -541
-428 -830 -134 -362 -230 -871 -230 -1227 0 -141 7 -168 53 -217 91 -96 249
-95 334 2 44 50 51 81 57 262 29 855 385 1659 1003 2266 162 160 246 230 398
336 236 165 531 320 750 395 123 43 164 71 198 138 24 47 28 63 24 113 -7 75
-44 139 -105 178 -68 43 -126 40 -275 -16z"/>
<path d="M13803 15180 c-89 -19 -149 -68 -192 -159 -88 -190 49 -404 259 -404
160 0 280 121 280 282 0 79 -15 122 -60 180 -65 82 -181 123 -287 101z"/>
<path d="M7748 14928 c-692 -32 -1388 -368 -1842 -889 -190 -219 -291 -368
-401 -596 -110 -226 -169 -400 -229 -683 -53 -249 -51 -107 -50 -3650 l2
-3295 21 -90 c40 -167 136 -320 274 -436 80 -67 171 -117 287 -155 l85 -29
2140 0 c1984 0 2142 1 2171 17 81 44 131 139 118 225 -10 69 -61 143 -118 172
-46 24 -57 25 -250 27 -110 2 -209 3 -218 3 -17 1 -18 31 -18 494 l0 492 56
43 c43 34 63 58 87 110 l32 67 5 700 5 700 148 3 147 3 0 -690 c0 -676 0 -691
21 -746 27 -73 108 -156 186 -192 50 -24 70 -27 153 -27 74 1 105 5 142 22 54
24 122 82 153 132 51 82 50 59 55 800 l5 695 43 3 c38 3 42 5 36 24 -13 41 -6
302 11 381 60 289 273 583 539 743 416 250 1113 384 1998 384 162 0 585 -15
653 -23 19 -2 20 3 17 78 -14 356 -186 706 -470 957 -110 97 -305 205 -462
257 -158 51 -250 63 -565 71 -325 9 -436 23 -651 80 -331 88 -663 273 -912
509 l-53 49 22 44 c12 24 47 88 79 143 64 111 194 347 260 470 24 44 64 118
90 165 82 146 330 599 400 730 82 153 179 331 210 385 13 22 47 87 76 145 74
146 156 281 186 303 34 25 58 16 91 -35 25 -40 117 -249 173 -394 14 -38 41
-107 59 -154 18 -47 84 -220 148 -385 136 -355 235 -594 283 -690 100 -196
227 -305 393 -341 189 -40 321 8 475 174 91 97 93 101 484 904 133 274 171
326 271 375 l56 28 287 5 286 5 43 30 c24 17 57 52 73 79 25 39 30 58 30 109
-1 98 -41 161 -133 207 -43 21 -50 22 -340 17 -315 -4 -353 -9 -468 -62 -175
-80 -339 -255 -445 -475 -57 -118 -207 -427 -289 -597 -158 -323 -213 -393
-268 -341 -48 44 -100 168 -466 1103 -37 94 -92 233 -122 310 -127 324 -240
477 -409 557 -66 31 -75 33 -184 33 -104 0 -120 -3 -173 -27 -68 -32 -92 -50
-171 -126 -74 -73 -116 -138 -256 -397 -132 -246 -301 -556 -517 -950 -60
-110 -155 -283 -210 -385 -229 -422 -452 -828 -553 -1010 -26 -47 -94 -170
-150 -275 -117 -216 -137 -253 -230 -420 -36 -66 -104 -190 -150 -275 -102
-189 -223 -401 -260 -455 -42 -60 -129 -144 -188 -182 -86 -55 -154 -75 -257
-75 -105 -1 -177 21 -265 79 -82 54 -199 179 -251 269 -25 43 -160 304 -299
579 -139 275 -271 526 -292 558 -42 62 -103 127 -119 127 -17 0 -98 -81 -134
-136 -55 -82 -139 -244 -341 -653 -102 -205 -204 -403 -228 -440 -119 -182
-299 -318 -489 -367 -49 -13 -115 -16 -313 -16 -271 0 -300 3 -355 38 -104 65
-127 215 -49 322 52 72 71 76 370 82 263 5 265 5 315 32 59 31 130 103 172
173 16 28 129 249 251 493 122 244 252 493 289 555 129 214 279 331 444 346
175 15 287 -25 408 -146 130 -131 154 -172 451 -758 123 -242 240 -470 261
-506 54 -94 123 -175 159 -187 26 -9 34 -8 59 14 16 13 46 50 67 82 41 60 43
65 258 462 76 140 169 309 206 375 37 66 78 140 91 165 12 25 44 83 70 130
260 472 281 511 425 781 l83 156 -19 51 c-11 28 -33 104 -49 169 -68 267 -149
492 -254 702 -308 622 -852 1099 -1507 1322 -329 113 -633 154 -1002 137z
m-1611 -7443 c1 -368 4 -691 7 -717 8 -73 48 -141 115 -195 l60 -48 0 -492 1
-493 -177 6 c-200 6 -230 12 -293 52 -66 42 -107 89 -143 162 l-32 65 -3 1168
-2 1167 232 -2 233 -3 2 -670z m1010 -22 c1 -523 4 -701 14 -730 19 -59 53
-107 113 -159 l56 -48 0 -488 c0 -383 -3 -488 -12 -489 -46 -3 -636 -4 -648
-1 -13 3 -15 66 -15 493 l0 491 46 33 c66 48 105 99 123 164 14 50 16 144 16
744 l0 688 153 -3 152 -3 2 -692z m1205 680 c4 -45 2 -2593 -2 -2594 -7 0
-607 0 -647 0 l-33 1 0 490 0 489 43 30 c51 35 90 83 120 149 22 47 22 51 25
750 l3 702 244 0 c226 0 245 -1 247 -17z m838 -693 l5 -705 28 -57 c18 -37 49
-76 87 -110 l59 -53 2 -490 1 -490 -336 0 -336 0 0 1308 0 1307 243 -2 242 -3
5 -705z"/>
<path d="M15775 11881 c-136 -35 -225 -158 -212 -290 8 -78 29 -121 81 -174
125 -125 331 -96 427 60 31 50 37 166 13 234 -21 60 -73 118 -133 148 -45 23
-131 34 -176 22z"/>
<path d="M14339 11470 c-72 -38 -119 -116 -119 -198 0 -76 32 -126 135 -212
154 -128 249 -247 346 -436 90 -176 140 -351 159 -559 14 -146 44 -206 121
-245 50 -26 149 -27 205 -1 50 23 101 83 115 136 22 80 -21 376 -81 569 -97
305 -229 531 -436 742 -111 113 -176 168 -237 202 -54 29 -155 30 -208 2z"/>
<path d="M4279 11325 c-59 -19 -128 -80 -159 -141 -20 -39 -25 -64 -25 -119 1
-87 28 -148 91 -204 178 -157 444 -35 444 202 0 185 -178 318 -351 262z"/>
<path d="M13060 9239 c-577 -46 -972 -129 -1200 -252 -205 -111 -337 -248
-403 -415 -47 -121 -46 -188 8 -667 25 -225 50 -437 55 -470 6 -33 37 -303 70
-600 33 -297 74 -655 90 -795 16 -140 37 -325 45 -410 9 -85 20 -181 26 -214
6 -32 9 -60 7 -62 -8 -7 -90 42 -170 102 -114 84 -201 181 -244 273 -49 103
-91 151 -165 191 -79 42 -167 51 -254 25 -104 -30 -171 -89 -217 -191 -32 -73
-30 -195 5 -288 127 -327 516 -653 1026 -861 349 -142 745 -235 1241 -292 221
-26 926 -25 1145 0 579 68 1009 184 1397 378 246 122 396 226 551 377 143 140
246 289 293 424 68 193 -29 397 -215 452 -68 20 -120 20 -194 1 -111 -29 -183
-95 -230 -214 -33 -83 -120 -182 -236 -270 -83 -63 -165 -114 -172 -106 -6 5
21 270 57 560 35 290 38 313 94 815 27 245 61 540 75 655 14 116 27 230 30
255 3 25 20 167 37 315 23 189 33 314 33 415 -1 140 -2 147 -32 217 -169 392
-650 587 -1613 653 -170 12 -788 11 -940 -1z m-826 -3378 c217 -80 527 -145
834 -177 173 -18 642 -24 827 -11 311 22 682 94 930 181 55 19 101 33 103 31
7 -7 -77 -718 -86 -727 -13 -13 -193 -63 -330 -92 -308 -65 -582 -90 -967 -90
-453 0 -775 38 -1155 136 -138 35 -170 47 -170 62 0 16 -59 506 -70 584 -11
79 -13 132 -3 132 4 0 43 -13 87 -29z"/>
</g>
</svg>
