<?xml version="1.0" standalone="no"?>
<!DOCTYPE svg PUBLIC "-//W3C//DTD SVG 20010904//EN"
 "http://www.w3.org/TR/2001/REC-SVG-20010904/DTD/svg10.dtd">
<svg version="1.0" xmlns="http://www.w3.org/2000/svg"
 width="2048.000000pt" height="2048.000000pt" viewBox="0 0 2048.000000 2048.000000"
 preserveAspectRatio="xMidYMid meet">
<metadata>
Created by potrace 1.16, written by Peter Selinger 2001-2019
</metadata>
<g transform="translate(0.000000,2048.000000) scale(0.100000,-0.100000)"
fill="#18bcf2" stroke="none">
<path d="M10035 17060 c-366 -52 -648 -248 -805 -560 -98 -193 -141 -451 -92
-546 62 -121 201 -156 314 -79 59 40 77 79 92 207 17 134 45 211 110 302 86
121 208 204 351 241 97 25 245 21 340 -9 164 -52 294 -159 369 -306 58 -114
79 -199 78 -330 -3 -351 -235 -644 -609 -770 -123 -41 -259 -60 -430 -60 -221
0 -392 28 -953 155 -733 166 -961 199 -1395 199 -273 0 -393 -8 -625 -45 -375
-59 -812 -209 -1161 -398 -157 -85 -343 -206 -404 -262 -104 -96 -92 -253 26
-335 37 -25 51 -29 114 -29 l72 0 159 107 c621 418 1350 594 2158 523 253 -22
459 -60 981 -180 718 -166 1023 -194 1391 -130 275 48 553 191 745 384 136
137 212 250 274 409 63 164 78 247 79 432 0 155 -2 172 -31 281 -35 127 -98
272 -160 362 -95 140 -281 291 -441 357 -171 72 -387 103 -547 80z"/>
<path d="M13330 16870 c-167 -10 -246 -22 -428 -66 -189 -46 -318 -93 -487
-179 -233 -118 -445 -261 -591 -397 -52 -49 -64 -67 -74 -109 -24 -98 10 -183
89 -227 46 -26 146 -30 190 -8 15 8 78 58 140 110 158 135 249 196 407 275
308 154 630 222 989 207 697 -27 1318 -382 1701 -971 191 -294 314 -697 326
-1065 l3 -95 -175 -7 c-235 -8 -304 -32 -406 -140 -93 -98 -123 -193 -129
-401 -3 -86 -9 -143 -17 -156 -35 -56 -130 -51 -160 9 -16 32 -18 75 -18 450
0 458 -2 480 -62 592 -85 160 -292 260 -478 231 -195 -31 -358 -193 -390 -388
-6 -35 -10 -354 -10 -761 l0 -701 -23 -34 c-19 -29 -29 -34 -69 -37 -40 -3
-48 0 -72 28 -14 17 -27 41 -27 53 -1 12 -3 587 -4 1277 -2 900 -6 1269 -14
1303 -29 122 -128 255 -226 303 -247 120 -530 33 -643 -199 -65 -136 -62 -57
-62 -1422 0 -874 3 -1252 11 -1280 21 -74 107 -135 189 -135 34 0 102 33 129
61 53 57 51 -5 51 1346 l0 1254 24 24 c47 46 111 44 147 -5 17 -24 18 -86 21
-1290 3 -1364 2 -1343 56 -1444 39 -74 148 -181 217 -212 123 -56 274 -54 401
5 116 54 226 191 254 314 7 31 10 292 10 751 1 412 5 717 10 736 20 69 83 100
141 70 47 -26 49 -42 49 -482 0 -457 2 -478 63 -592 91 -170 286 -268 476
-239 174 27 307 136 373 305 17 43 22 85 27 215 8 225 -21 206 318 207 299 1
303 2 361 72 49 59 56 109 49 358 -9 304 -33 473 -103 705 -206 678 -657 1216
-1284 1527 -398 198 -810 280 -1270 254z"/>
<path d="M11205 14695 c-244 -44 -424 -169 -554 -384 -43 -72 -69 -140 -91
-239 -10 -46 -20 -85 -22 -87 -2 -2 -39 -11 -83 -20 -105 -22 -385 -22 -550 0
-277 36 -426 76 -933 245 -323 107 -607 189 -792 228 -763 162 -1540 42 -2344
-360 -220 -110 -375 -205 -700 -428 -216 -148 -719 -599 -764 -686 -20 -37
-18 -144 3 -188 20 -42 65 -83 115 -104 45 -18 139 -11 180 15 16 10 98 86
182 168 84 83 180 174 214 202 464 398 950 681 1479 861 202 68 429 117 695
148 173 20 489 15 640 -11 378 -62 555 -110 1080 -289 293 -101 650 -191 880
-222 206 -29 643 -22 761 12 11 3 27 -15 55 -63 48 -83 138 -181 219 -238 251
-178 555 -201 826 -65 83 42 239 163 226 176 -1 2 -38 -8 -81 -22 -232 -73
-481 -17 -661 148 -130 120 -199 247 -225 412 -52 336 191 677 530 743 44 9
77 20 72 25 -10 10 -195 38 -247 37 -22 0 -71 -7 -110 -14z"/>
<path d="M11687 14268 l-64 -93 -133 3 -133 3 17 -26 c10 -15 35 -50 57 -78
21 -29 45 -65 53 -81 16 -32 19 -20 -49 -184 -15 -35 -24 -66 -21 -69 3 -3 55
11 117 30 90 29 117 33 133 25 12 -6 57 -43 101 -82 l80 -70 3 124 c1 72 7
129 14 137 6 8 53 38 105 69 52 30 93 60 90 67 -2 6 -14 14 -28 18 -13 4 -63
19 -111 34 l-86 26 -33 120 c-18 65 -36 119 -40 119 -4 0 -36 -42 -72 -92z"/>
<path d="M7419 13509 c-349 -22 -743 -112 -1071 -244 -149 -61 -432 -199 -525
-258 -21 -13 -58 -35 -83 -49 -128 -72 -203 -123 -224 -151 -66 -90 -58 -203
20 -280 43 -43 79 -58 142 -59 67 -2 112 17 272 119 246 155 577 305 847 382
288 83 513 114 818 114 589 1 1048 -130 1760 -501 242 -126 674 -342 820 -409
595 -277 1078 -423 1645 -499 159 -22 626 -30 799 -15 447 40 747 92 1241 216
597 149 820 179 1070 140 167 -25 277 -61 378 -123 174 -105 297 -269 354
-469 32 -112 32 -279 -1 -383 -55 -180 -170 -319 -332 -401 -253 -129 -575
-70 -758 138 -67 76 -127 211 -146 323 -25 153 -90 221 -213 221 -125 1 -212
-84 -212 -207 0 -145 75 -371 171 -514 99 -147 292 -309 445 -373 197 -83 437
-106 644 -62 196 42 375 140 528 289 182 177 282 385 313 647 65 562 -284
1094 -837 1275 -155 50 -291 68 -519 68 -182 0 -233 -3 -380 -27 -233 -38
-330 -59 -623 -133 -1223 -309 -1972 -283 -2998 106 -178 68 -397 167 -681
308 -163 81 -454 232 -468 242 -18 14 -327 166 -445 220 -304 137 -497 201
-850 279 -280 62 -612 88 -901 70z"/>
<path d="M7660 12459 c-152 -7 -172 -9 -365 -40 -217 -36 -470 -109 -658 -189
-161 -69 -199 -111 -205 -219 -4 -82 22 -138 86 -184 34 -25 55 -32 105 -35
54 -4 74 1 152 33 227 93 391 142 585 175 216 36 316 43 545 37 186 -4 240 -9
350 -32 246 -51 489 -145 665 -258 283 -181 529 -460 650 -737 120 -274 190
-595 190 -868 0 -138 39 -212 132 -252 104 -45 213 -7 266 90 24 45 24 47 19
260 -5 191 -9 232 -37 365 -52 250 -108 419 -200 610 -54 113 -195 337 -257
409 -15 18 -40 48 -55 67 -44 56 -218 223 -301 289 -456 359 -983 510 -1667
479z"/>
<path d="M11550 11410 c-288 -51 -517 -172 -732 -386 -226 -225 -347 -492
-388 -856 -17 -144 17 -225 113 -273 85 -42 171 -29 237 35 40 39 56 80 65
160 16 163 63 346 92 357 20 8 288 -23 509 -57 329 -52 639 -128 849 -206 358
-135 554 -258 584 -368 13 -50 -1 -78 -71 -141 -103 -93 -240 -166 -473 -250
-572 -207 -1242 -305 -2083 -305 -447 0 -840 27 -1233 85 -438 65 -963 228
-1208 374 -118 71 -211 166 -211 218 0 38 68 119 142 171 260 179 732 334
1268 416 272 42 304 51 351 103 42 45 52 72 51 144 0 83 -25 134 -84 172 -58
37 -109 42 -255 22 -634 -84 -1214 -269 -1548 -493 -331 -222 -435 -500 -293
-781 32 -62 193 -228 282 -289 141 -98 402 -216 671 -303 387 -126 976 -223
1565 -259 232 -14 1006 -5 1210 14 544 50 1025 140 1359 252 419 141 639 259
816 438 237 238 234 548 -6 787 -219 218 -623 402 -1169 533 -190 46 -589 115
-666 116 -28 1 -28 1 -9 16 110 82 228 120 442 143 106 11 151 29 193 77 82
94 53 270 -55 331 -51 29 -163 30 -315 3z"/>
<path d="M7213 9074 c-25 -25 -26 -29 -19 -112 16 -220 152 -649 275 -864 136
-241 315 -469 510 -652 30 -28 72 -67 93 -87 21 -20 53 -47 70 -60 17 -13 36
-29 42 -34 21 -19 91 -72 149 -112 84 -58 263 -227 315 -298 130 -177 206
-411 216 -671 16 -405 -174 -998 -487 -1516 -170 -283 -191 -339 -185 -487 3
-82 8 -105 32 -151 72 -140 217 -260 425 -353 165 -74 472 -161 711 -202 304
-51 778 -74 1155 -56 400 20 569 41 860 111 260 63 436 126 580 208 233 133
335 274 335 463 0 130 -29 202 -185 469 -232 396 -384 775 -457 1135 -29 145
-36 430 -14 563 30 179 100 355 188 471 61 81 213 229 293 285 39 28 72 52 75
55 3 4 48 40 100 82 193 154 304 264 480 475 243 293 434 714 505 1114 27 153
17 218 -34 240 -34 14 -64 3 -134 -48 -98 -71 -184 -118 -388 -210 -291 -132
-801 -262 -1279 -326 -446 -60 -614 -70 -1175 -71 -418 0 -560 3 -725 18 -486
42 -917 109 -1182 182 -458 128 -712 232 -962 394 -60 39 -120 71 -133 71 -13
0 -36 -12 -50 -26z"/>
</g>
</svg>
