<?xml version="1.0" standalone="no"?>
<!DOCTYPE svg PUBLIC "-//W3C//DTD SVG 20010904//EN"
 "http://www.w3.org/TR/2001/REC-SVG-20010904/DTD/svg10.dtd">
<svg version="1.0" xmlns="http://www.w3.org/2000/svg"
 width="2048.000000pt" height="2048.000000pt" viewBox="0 0 2048.000000 2048.000000"
 preserveAspectRatio="xMidYMid meet">
<metadata>
Created by potrace 1.16, written by Peter Selinger 2001-2019
</metadata>
<g transform="translate(0.000000,2048.000000) scale(0.100000,-0.100000)"
fill="#18bcf2" stroke="none">
<path d="M5250 15760 c-118 -24 -190 -107 -190 -215 1 -71 59 -145 192 -243
91 -67 287 -229 358 -297 36 -34 89 -84 118 -110 107 -98 403 -447 390 -460
-2 -3 -47 14 -99 36 -134 59 -337 125 -455 148 -547 111 -1099 -25 -1535 -377
-114 -92 -345 -335 -376 -395 -51 -102 -23 -222 64 -277 64 -41 119 -45 264
-20 68 11 160 27 204 35 456 79 1027 79 1500 -1 125 -21 129 -23 60 -46 -101
-33 -354 -161 -470 -238 -202 -134 -377 -299 -502 -476 -246 -346 -356 -700
-355 -1145 1 -187 14 -271 50 -319 61 -80 114 -106 194 -97 82 10 136 53 235
186 160 214 385 475 577 667 211 210 376 351 598 509 81 58 150 110 153 115 9
14 25 12 25 -3 0 -7 -9 -31 -19 -53 -36 -75 -236 -619 -299 -814 -118 -365
-282 -984 -351 -1325 -49 -241 -98 -546 -156 -955 -62 -446 -130 -1427 -97
-1406 32 20 391 64 545 68 54 1 101 6 103 10 3 5 14 43 24 86 26 110 63 208
134 357 95 198 155 290 325 497 26 32 23 -9 35 473 11 398 51 840 122 1345 63
452 186 1025 300 1398 20 64 41 133 46 152 22 83 90 280 98 285 21 13 309
-313 495 -561 260 -346 430 -652 646 -1158 93 -219 121 -276 152 -307 96 -95
252 -85 336 22 23 30 79 194 116 339 68 268 74 594 15 878 -47 224 -164 493
-295 676 -122 169 -362 409 -529 527 l-48 34 83 3 c108 4 270 -12 489 -49 238
-39 460 -96 702 -179 186 -63 273 -97 533 -205 65 -27 109 -39 160 -42 66 -5
73 -3 120 28 131 88 124 212 -27 479 -145 259 -359 488 -599 643 -231 149
-495 246 -764 282 -223 30 -594 10 -780 -42 -18 -5 -17 -3 5 22 44 49 222 186
350 270 125 82 355 214 440 252 25 12 120 55 212 96 236 106 277 143 280 249
3 127 -70 191 -288 248 -475 124 -1023 26 -1390 -248 -119 -89 -298 -268 -368
-370 -32 -45 -62 -80 -67 -77 -4 3 -13 25 -20 48 -23 88 -142 304 -238 432
-63 84 -234 249 -327 316 -207 148 -492 258 -762 294 -115 15 -379 19 -442 5z"/>
<path d="M10709 15755 c-323 -53 -592 -183 -808 -390 -242 -233 -390 -517
-437 -839 -23 -165 -22 -171 56 -218 36 -22 106 -70 155 -108 356 -272 590
-571 732 -932 32 -82 37 -106 41 -206 5 -131 -4 -120 131 -156 282 -76 585
-53 884 64 190 75 347 181 494 334 277 287 417 630 417 1016 -1 405 -148 754
-435 1038 -196 193 -465 333 -741 387 -116 23 -380 28 -489 10z"/>
<path d="M15519 15747 c-46 -17 -83 -44 -136 -99 -93 -96 -98 -211 -13 -296
42 -42 80 -62 160 -81 58 -15 67 -20 87 -56 13 -22 23 -47 23 -55 0 -8 -30
-34 -67 -56 -38 -23 -127 -77 -199 -121 l-131 -80 -34 62 c-32 61 -33 63 -21
116 25 109 19 156 -26 220 -42 59 -94 84 -177 84 -92 0 -175 -37 -240 -107
-83 -88 -97 -165 -45 -255 35 -62 98 -103 188 -123 31 -6 65 -20 76 -29 16
-14 56 -82 56 -95 0 -12 -360 -215 -408 -230 -13 -4 -24 7 -46 45 -25 46 -27
55 -18 92 29 112 23 171 -23 237 -38 55 -102 83 -190 83 -85 1 -143 -22 -210
-84 -100 -92 -119 -213 -49 -306 31 -41 48 -50 159 -88 74 -25 93 -36 112 -64
33 -49 29 -65 -24 -97 -69 -40 -132 -102 -160 -157 -36 -73 -40 -138 -13 -254
27 -118 24 -212 -10 -290 -19 -45 -66 -95 -299 -320 -357 -345 -750 -729
-1316 -1283 -440 -431 -638 -625 -825 -806 -102 -98 -321 -313 -486 -476 -166
-164 -306 -298 -312 -298 -16 0 -73 71 -96 119 -17 38 -21 65 -21 156 1 140
14 174 155 390 212 325 257 461 216 656 -60 281 -338 437 -669 375 -312 -59
-617 -252 -861 -545 -169 -203 -243 -353 -491 -991 -105 -270 -174 -391 -304
-531 -119 -129 -244 -211 -441 -289 -109 -44 -419 -149 -575 -195 -150 -45
-442 -162 -554 -221 -178 -95 -348 -214 -470 -328 -126 -119 -283 -338 -365
-509 -58 -122 -121 -300 -113 -321 3 -7 38 -18 79 -25 40 -8 126 -28 190 -45
l117 -32 32 90 c41 118 113 263 174 351 72 104 257 282 372 358 201 132 381
207 843 351 413 129 572 197 762 323 293 195 472 440 628 858 207 558 302 749
472 947 81 94 112 123 183 176 136 102 265 160 403 183 116 19 176 -8 189 -85
8 -48 -15 -105 -81 -203 -29 -43 -76 -113 -105 -156 -68 -100 -146 -267 -173
-365 -27 -101 -33 -298 -13 -402 21 -107 80 -220 160 -305 36 -38 65 -70 65
-70 0 -3 -546 -542 -649 -641 -135 -130 -161 -170 -161 -249 0 -92 19 -116
325 -421 158 -156 301 -294 318 -306 26 -19 45 -23 102 -23 81 1 134 23 181
78 16 19 109 117 207 218 l179 183 50 -57 c92 -105 235 -190 376 -223 80 -19
243 -21 327 -4 33 6 134 43 225 82 235 100 270 101 270 4 0 -108 -56 -221
-167 -337 -109 -114 -234 -200 -397 -270 -161 -71 -396 -195 -495 -262 -329
-221 -509 -528 -615 -1047 -14 -69 -39 -197 -55 -286 -128 -672 -357 -1081
-743 -1327 -200 -128 -412 -187 -662 -187 -356 1 -741 135 -1136 399 l-105 70
-6 -67 c-11 -110 -46 -205 -116 -314 -9 -15 -15 -29 -13 -31 81 -63 420 -239
593 -308 492 -197 972 -211 1396 -40 137 55 177 76 303 160 139 91 267 206
371 334 164 200 231 315 325 553 97 245 140 405 217 803 72 372 105 484 192
651 100 191 212 284 513 427 364 175 419 204 530 284 143 104 249 209 327 326
164 246 201 546 90 735 -38 65 -128 145 -204 181 -64 30 -74 32 -183 32 -130
0 -152 -7 -375 -103 -130 -57 -130 -57 -230 -56 -82 0 -109 4 -150 23 -60 27
-110 72 -137 125 l-20 39 124 121 c68 67 203 204 299 305 96 101 226 236 289
301 63 64 164 168 224 231 60 63 278 287 485 499 207 212 450 462 541 555 91
94 304 312 474 485 169 173 374 383 455 465 584 599 629 643 693 674 88 43
194 61 341 58 164 -3 206 12 283 96 60 67 145 228 229 437 103 252 118 287
161 371 81 156 148 209 294 229 208 29 356 117 460 273 92 138 119 350 65 513
-37 111 -78 175 -168 260 -132 124 -285 182 -452 170 -87 -6 -156 -26 -253
-75 -73 -37 -77 -36 -112 39 -23 48 -23 53 -10 118 25 124 6 192 -72 253 -39
31 -48 34 -123 37 -48 1 -94 -3 -116 -11z"/>
<path d="M12345 9833 c-5 -5 -47 -47 -93 -94 l-83 -87 113 0 c125 0 213 -13
297 -44 70 -26 173 -85 239 -137 l51 -41 778 -2 c745 -3 779 -4 810 -22 17
-11 41 -36 52 -56 l21 -38 0 -2044 0 -2045 -23 -34 c-12 -19 -38 -42 -57 -52
-33 -16 -115 -17 -1400 -15 l-1365 3 -31 22 c-66 47 -62 -10 -63 1053 0 531 0
987 -1 1013 0 66 -13 54 -65 -57 -64 -136 -86 -219 -160 -581 -75 -372 -112
-527 -152 -635 l-27 -75 -1 -340 c0 -329 1 -343 23 -415 62 -198 213 -345 396
-385 92 -20 2813 -19 2905 1 190 41 348 181 404 359 l22 70 0 2100 c0 2306 4
2145 -62 2283 -62 126 -162 217 -299 270 l-69 27 -1075 3 c-591 1 -1079 -1
-1085 -5z"/>
<path d="M13085 9024 c14 -35 14 -285 0 -365 -33 -181 -98 -331 -222 -513 -81
-121 -82 -113 5 -146 211 -80 427 -24 588 152 153 168 175 421 55 632 -78 136
-233 241 -375 254 -55 5 -59 4 -51 -14z"/>
<path d="M8975 8791 c-61 -16 -103 -46 -211 -155 -128 -130 -154 -174 -154
-263 0 -118 15 -137 461 -584 219 -219 417 -410 438 -424 73 -46 185 -49 264
-8 17 8 88 72 157 142 138 137 150 159 150 263 0 108 -12 123 -466 575 -279
277 -428 418 -457 432 -47 23 -137 34 -182 22z"/>
<path d="M16079 8741 c-59 -12 -128 -70 -149 -126 -20 -52 -15 -129 10 -169
12 -20 28 -42 35 -50 7 -7 43 -52 79 -100 195 -258 317 -554 372 -901 24 -148
24 -450 0 -590 -24 -143 -64 -296 -104 -400 -74 -195 -196 -405 -312 -540 -72
-84 -90 -122 -90 -194 0 -50 5 -66 33 -107 55 -80 158 -116 241 -84 57 21 154
132 267 305 115 175 184 314 263 522 28 74 95 357 112 470 22 150 26 438 9
591 -50 426 -213 841 -464 1176 -78 104 -125 156 -161 178 -31 19 -94 28 -141
19z"/>
<path d="M15435 8171 c-94 -42 -148 -159 -114 -247 5 -16 41 -71 78 -124 105
-146 167 -280 208 -452 22 -92 25 -350 4 -453 -32 -163 -100 -321 -198 -456
-85 -119 -92 -131 -99 -182 -9 -66 16 -126 73 -177 50 -44 89 -55 164 -48 39
4 59 13 97 45 139 117 312 473 367 753 74 378 -18 809 -246 1160 -120 183
-215 235 -334 181z"/>
<path d="M5775 7924 c-279 -28 -409 -54 -613 -122 -501 -168 -916 -481 -1202
-908 -146 -217 -268 -515 -311 -761 -27 -153 -29 -366 -4 -473 21 -92 91 -240
142 -299 127 -147 343 -220 617 -209 l110 5 40 44 c86 95 279 233 506 363 574
328 1109 486 1755 521 212 12 592 -27 794 -80 52 -14 95 -24 96 -23 10 11 49
118 69 188 39 139 50 228 43 373 -8 183 -50 347 -129 502 -78 152 -239 345
-373 447 -275 207 -651 362 -1007 413 -100 15 -453 27 -533 19z"/>
<path d="M8050 7858 c-115 -32 -174 -172 -119 -280 30 -58 886 -910 943 -937
129 -63 278 19 293 160 4 45 1 63 -17 99 -21 42 -288 314 -758 772 -209 204
-233 217 -342 186z"/>
<path d="M13005 7593 c-393 -24 -737 -252 -918 -608 -72 -142 -120 -354 -116
-509 12 -404 246 -765 614 -949 153 -77 293 -110 465 -110 189 -1 324 31 495
114 254 124 443 338 545 618 93 254 75 583 -45 822 -65 130 -108 191 -200 288
-138 143 -328 254 -527 307 -63 16 -237 31 -313 27z m227 -428 c211 -55 397
-226 473 -435 37 -101 46 -262 21 -374 -45 -200 -182 -368 -383 -470 -127 -64
-334 -78 -478 -32 -278 88 -466 328 -482 617 -11 179 44 335 166 476 175 202
429 283 683 218z"/>
<path d="M12945 6756 c-54 -25 -98 -68 -136 -131 -20 -34 -24 -53 -24 -120 1
-70 4 -87 30 -134 75 -136 235 -187 373 -117 174 88 206 335 60 460 -62 53
-97 66 -180 66 -56 0 -85 -6 -123 -24z"/>
<path d="M9865 6796 c-66 -31 -110 -79 -130 -144 -61 -188 99 -366 290 -323
222 50 266 364 64 465 -70 35 -153 36 -224 2z"/>
<path d="M9435 6128 c-65 -23 -109 -62 -143 -128 -29 -56 -33 -73 -30 -120 8
-109 83 -204 182 -231 50 -14 142 -7 182 14 81 42 133 128 134 221 0 169 -171
298 -325 244z"/>
<path d="M6742 5790 c-442 -30 -937 -162 -1317 -353 -230 -115 -512 -288 -607
-371 -65 -58 -87 -151 -54 -230 39 -94 162 -150 253 -115 15 6 98 57 183 114
263 175 518 299 825 400 320 106 573 148 900 148 146 0 235 -5 330 -19 72 -10
162 -19 201 -19 61 0 76 4 113 28 50 33 91 110 91 173 0 53 -41 133 -82 161
-88 58 -535 103 -836 83z"/>
</g>
</svg>
