<?xml version="1.0" standalone="no"?>
<!DOCTYPE svg PUBLIC "-//W3C//DTD SVG 20010904//EN"
 "http://www.w3.org/TR/2001/REC-SVG-20010904/DTD/svg10.dtd">
<svg version="1.0" xmlns="http://www.w3.org/2000/svg"
 width="2048.000000pt" height="2048.000000pt" viewBox="0 0 2048.000000 2048.000000"
 preserveAspectRatio="xMidYMid meet">
<metadata>
Created by potrace 1.16, written by Peter Selinger 2001-2019
</metadata>
<g transform="translate(0.000000,2048.000000) scale(0.100000,-0.100000)"
fill="#18bcf2" stroke="none">
<path d="M9765 16836 c-56 -25 -95 -85 -95 -144 1 -47 35 -105 126 -212 48
-58 91 -107 94 -110 3 -3 39 -44 78 -92 l73 -88 126 0 c81 0 146 -5 186 -16
60 -15 171 -66 181 -82 3 -5 -19 -12 -48 -16 -79 -9 -181 -43 -214 -71 -57
-48 -47 -100 34 -190 73 -80 120 -145 172 -236 74 -129 75 -139 8 -77 -62 57
-209 156 -315 211 -124 65 -277 118 -411 143 -143 27 -372 25 -520 -5 -244
-48 -489 -168 -713 -349 -78 -63 -118 -123 -119 -180 0 -45 33 -116 65 -136
28 -19 120 -33 272 -41 66 -4 127 -8 135 -10 8 -2 58 -6 111 -10 l96 -7 69 62
c115 104 275 200 335 200 l21 0 -23 -37 c-91 -148 -110 -223 -66 -267 19 -19
38 -24 115 -30 51 -4 118 -11 150 -17 91 -16 284 -61 279 -65 -2 -2 -55 -11
-118 -18 -189 -24 -331 -66 -490 -146 -246 -124 -498 -378 -623 -629 -41 -81
-110 -289 -131 -394 -21 -105 -21 -206 -1 -246 24 -46 85 -83 139 -83 55 0 59
2 221 117 72 50 172 118 221 150 50 32 93 62 96 67 3 5 9 49 12 96 4 48 15
117 26 153 24 85 91 229 106 229 6 0 16 -36 23 -86 16 -106 36 -158 72 -184
47 -34 78 -26 186 46 144 96 540 284 574 272 6 -2 -20 -46 -57 -98 -317 -448
-545 -848 -771 -1355 -378 -847 -616 -1653 -811 -2750 -62 -350 -123 -881
-171 -1490 -13 -166 -26 -1006 -16 -1058 15 -79 109 -145 190 -133 61 10 104
40 126 90 18 39 20 72 21 397 2 324 6 464 23 744 50 812 156 1518 348 2310 33
138 76 302 95 365 19 63 60 196 90 295 99 327 314 887 458 1190 110 233 187
387 245 490 35 61 83 145 107 188 80 143 332 530 404 621 22 27 39 53 39 58 0
5 5 6 10 3 6 -3 10 -2 10 2 0 5 7 18 15 29 9 10 0 -12 -18 -51 -86 -176 -256
-580 -347 -825 -212 -571 -382 -1134 -520 -1725 -11 -49 -27 -117 -35 -150
-104 -434 -248 -1353 -300 -1915 -55 -606 -79 -1401 -56 -1872 6 -116 10 -142
27 -165 70 -94 208 -99 275 -10 29 39 27 2 34 747 2 322 7 608 10 635 3 28 12
151 20 275 23 332 52 615 111 1065 113 868 342 1842 617 2630 107 305 254 693
311 820 13 28 34 75 47 105 13 30 50 108 81 173 l56 118 17 -56 c8 -30 20 -77
25 -103 48 -234 52 -265 57 -455 l6 -198 26 -20 c40 -32 121 -21 222 29 43 23
79 36 79 30 0 -6 -10 -37 -21 -69 -25 -69 -93 -156 -169 -217 -30 -25 -69 -57
-86 -72 l-31 -28 -7 -178 c-4 -99 -13 -228 -20 -289 -15 -122 -12 -156 13
-200 41 -72 140 -97 219 -56 83 43 243 201 341 337 251 347 333 747 236 1154
-36 148 -61 222 -111 323 -52 103 -42 103 63 -5 85 -87 134 -144 188 -218 48
-67 55 -74 82 -88 30 -16 59 -15 99 4 27 13 44 36 91 127 l57 112 14 -45 c23
-68 21 -274 -2 -378 l-19 -83 29 -38 c16 -22 58 -77 94 -123 36 -45 81 -105
100 -133 63 -92 130 -171 163 -190 45 -27 127 -26 164 1 55 40 72 90 89 251
41 387 -33 708 -233 1006 -170 253 -417 437 -748 558 -49 18 -94 36 -99 41
-18 15 222 8 336 -9 62 -10 146 -18 187 -18 69 0 75 2 94 27 19 26 20 31 7
100 -7 40 -21 97 -31 127 -11 30 -17 57 -14 60 12 12 84 -38 150 -104 39 -38
98 -110 131 -160 51 -76 65 -91 94 -97 130 -27 495 -88 531 -88 107 0 173 97
137 201 -13 38 -25 57 -122 184 -246 322 -592 530 -966 580 -379 52 -769 -48
-1069 -272 -24 -18 -47 -33 -50 -33 -3 0 -4 50 -3 112 8 261 -56 518 -188 758
-46 84 -163 242 -207 279 -116 100 -147 124 -213 168 -134 90 -260 144 -442
192 -179 48 -409 65 -473 37z"/>
<path d="M4947 15244 c-127 -30 -151 -47 -770 -509 -297 -222 -346 -269 -402
-382 -60 -123 -56 106 -60 -3178 -3 -1959 -1 -3049 6 -3103 12 -100 47 -197
94 -263 l35 -49 -223 0 c-283 -1 -317 -11 -353 -106 -31 -82 9 -185 85 -216
18 -8 693 -12 2121 -14 1757 -2 2107 -1 2175 11 224 39 401 210 464 450 8 28
11 1079 11 3465 0 3280 -1 3428 -18 3491 -49 176 -193 327 -372 391 l-65 23
-1335 2 c-1120 1 -1344 -1 -1393 -13z m1515 -648 c314 -67 533 -401 474 -726
-72 -399 -504 -623 -872 -451 -128 60 -218 148 -284 280 -114 224 -82 489 82
691 87 106 214 180 363 213 44 10 174 6 237 -7z m88 -1701 c163 -42 307 -123
423 -240 81 -81 111 -122 167 -234 106 -211 127 -480 54 -698 -141 -423 -580
-692 -1009 -618 -135 23 -237 62 -341 130 -271 176 -429 463 -427 775 1 165
36 292 124 457 113 208 306 355 563 428 120 35 312 35 446 0z m24 -2256 c119
-24 198 -50 291 -97 241 -120 453 -325 563 -545 114 -227 162 -506 129 -743
-68 -483 -404 -883 -863 -1027 -319 -100 -705 -57 -985 110 -320 190 -530 493
-605 873 -22 112 -15 368 14 481 38 149 86 266 151 373 129 210 310 373 536
481 244 118 500 149 769 94z"/>
<path d="M6275 14218 c-59 -13 -128 -68 -156 -125 -33 -66 -33 -169 -1 -231
47 -89 161 -137 269 -113 45 11 65 22 102 60 78 78 97 177 54 281 -40 97 -155
152 -268 128z"/>
<path d="M6234 12377 c-144 -37 -252 -160 -273 -309 -13 -93 6 -194 49 -263
35 -57 126 -132 188 -155 85 -32 215 -26 295 15 84 42 159 126 187 210 50 150
18 298 -85 400 -94 92 -238 133 -361 102z"/>
<path d="M6270 9909 c-158 -22 -297 -114 -377 -249 -50 -84 -69 -214 -48 -331
19 -111 55 -181 134 -259 204 -202 491 -200 697 5 240 238 173 639 -130 785
-72 35 -101 43 -196 54 -14 1 -50 -1 -80 -5z"/>
<path d="M14103 13654 c-50 -18 -160 -113 -334 -291 -131 -133 -146 -152 -149
-193 -6 -73 25 -122 91 -141 78 -24 89 -17 360 248 58 57 111 103 116 103 6 0
14 -30 18 -67 26 -256 95 -399 218 -453 100 -44 181 -38 391 31 124 41 146 45
146 30 0 -6 -25 -65 -56 -133 -74 -162 -85 -199 -85 -287 0 -63 4 -83 31 -138
51 -103 95 -129 353 -208 64 -19 117 -39 117 -44 0 -4 -26 -25 -57 -46 -89
-59 -252 -184 -310 -239 -58 -54 -77 -97 -68 -149 15 -76 99 -121 172 -92 17
7 60 35 95 63 34 27 117 86 183 132 237 164 270 206 270 346 0 72 -3 86 -30
129 -43 70 -92 99 -240 146 -176 55 -235 79 -235 94 0 27 44 153 75 215 77
155 99 285 61 362 -26 55 -79 106 -132 130 -90 39 -195 23 -446 -67 -69 -25
-123 -32 -132 -17 -5 8 -21 91 -51 262 -28 155 -72 230 -160 271 -49 23 -152
24 -212 3z"/>
<path d="M13455 12725 c-148 -29 -283 -88 -393 -170 -34 -26 -62 -53 -62 -60
0 -26 58 -192 96 -275 183 -401 601 -837 991 -1034 91 -45 192 -86 214 -86 27
0 131 131 182 230 84 160 114 303 104 494 -12 235 -104 445 -275 628 -102 110
-287 216 -447 258 -104 27 -311 35 -410 15z"/>
<path d="M12791 12243 c-105 -179 -140 -444 -87 -655 109 -428 475 -737 905
-764 54 -4 131 -1 174 5 88 12 247 62 298 93 l33 20 -105 52 c-223 110 -441
277 -649 493 -227 236 -383 472 -489 741 -18 45 -35 82 -37 82 -2 0 -21 -30
-43 -67z"/>
<path d="M12394 11512 c-49 -53 -132 -142 -185 -197 -52 -55 -194 -206 -314
-335 -121 -129 -247 -264 -281 -300 -382 -403 -1027 -1098 -1048 -1129 -39
-56 -55 -107 -55 -176 -1 -62 20 -157 38 -179 8 -9 -37 -59 -175 -197 -195
-194 -251 -258 -303 -350 -156 -278 -124 -671 75 -913 115 -139 280 -243 459
-288 l90 -23 3206 0 3205 0 41 27 c103 68 94 230 -17 286 -39 20 -59 22 -180
22 l-135 0 -3 683 -3 682 -40 82 c-51 105 -87 136 -235 197 -66 27 -218 91
-339 142 -121 50 -274 114 -340 141 l-120 48 -2 333 c-2 331 -3 334 -27 387
-30 66 -95 133 -161 166 l-50 24 -510 0 -510 0 -65 -36 c-43 -23 -78 -52 -102
-85 -69 -90 -68 -80 -68 -651 0 -282 -1 -513 -2 -514 -2 0 -56 -3 -120 -6
l-116 -5 -4 198 c-3 179 -5 202 -24 234 -55 95 -127 102 -349 35 -293 -89
-911 -298 -953 -322 -57 -33 -108 -95 -132 -160 -19 -50 -20 -78 -20 -391 l0
-338 -127 -49 c-71 -27 -187 -75 -260 -107 -72 -32 -134 -58 -137 -58 -3 0 -6
85 -6 188 0 178 -1 191 -23 232 -32 62 -65 83 -136 88 -71 5 -116 -17 -156
-76 l-25 -37 0 -287 0 -287 -92 -63 c-106 -70 -388 -280 -464 -345 l-51 -43
-154 0 c-172 0 -226 11 -327 61 -69 35 -169 133 -201 197 -60 119 -72 280 -31
401 34 103 78 159 271 349 l182 180 46 -30 c121 -76 265 -76 370 0 44 32 216
169 401 320 30 25 104 84 164 131 60 47 137 109 171 136 188 151 311 251 321
260 6 5 69 55 139 110 71 55 153 121 184 146 106 87 286 232 420 338 256 204
344 276 348 288 2 6 -25 20 -63 33 -158 51 -312 147 -448 279 -107 105 -162
176 -224 291 -43 80 -99 238 -109 308 -3 23 -9 45 -13 47 -4 2 -47 -39 -96
-93z m97 -734 c62 -35 87 -115 55 -176 -14 -26 -252 -257 -324 -314 -27 -22
-45 -28 -83 -28 -42 0 -53 5 -88 38 -46 43 -60 95 -41 143 15 35 305 315 353
341 43 23 82 22 128 -4z m2909 -1373 c0 -498 -2 -905 -4 -905 -2 0 -45 15 -94
34 -411 157 -838 248 -1250 265 -382 17 -751 -12 -1085 -84 -79 -17 -110 -20
-113 -11 -2 6 -3 124 -2 261 l3 250 80 27 c45 15 216 70 380 121 165 52 310
97 323 101 l22 7 0 -151 c0 -194 16 -237 102 -281 34 -17 63 -19 360 -19 316
0 324 1 363 23 22 12 50 38 62 56 25 37 26 82 23 989 l-1 222 416 0 415 0 0
-905z m517 -104 c264 -108 402 -166 486 -205 l77 -36 0 -601 0 -601 -42 34
c-41 33 -121 91 -233 169 -84 58 -233 151 -354 219 l-116 66 -3 512 c-1 326 1
512 8 512 5 0 85 -31 177 -69z"/>
<path d="M14777 10112 c-15 -16 -17 -48 -17 -235 0 -261 -8 -247 143 -247 93
0 133 9 149 34 4 6 8 104 8 219 0 261 8 247 -153 247 -98 0 -116 -3 -130 -18z"/>
<path d="M16120 8983 c-36 -2 -74 -5 -86 -8 -37 -8 -44 -45 -44 -248 0 -251
-9 -237 153 -237 67 0 129 5 137 10 12 8 16 47 18 228 l3 220 -27 21 c-16 13
-39 20 -58 19 -17 -1 -60 -3 -96 -5z"/>
<path d="M5535 6881 c-49 -22 -99 -77 -115 -127 -42 -126 94 -696 265 -1109
55 -133 226 -478 282 -570 240 -390 538 -766 648 -816 145 -67 314 46 315 209
0 72 -17 107 -97 198 -305 348 -576 782 -732 1175 -103 260 -181 529 -225 778
-20 117 -30 152 -53 185 -58 85 -193 121 -288 77z"/>
<path d="M6555 6886 c-85 -37 -138 -120 -138 -216 0 -57 54 -287 99 -425 208
-637 632 -1240 1204 -1711 490 -403 1114 -698 1750 -828 269 -54 439 -70 775
-70 327 -1 361 2 672 54 203 35 331 66 503 122 272 88 522 193 715 301 372
207 635 406 946 716 423 424 710 888 889 1436 42 129 83 292 95 378 19 137
-84 256 -223 257 -61 0 -103 -15 -150 -55 -47 -39 -59 -69 -108 -255 -70 -270
-137 -443 -261 -674 -266 -494 -654 -920 -1123 -1230 -410 -272 -825 -442
-1325 -541 -258 -52 -667 -71 -955 -45 -943 86 -1859 583 -2439 1326 -296 380
-499 792 -597 1216 -30 131 -53 178 -104 213 -65 45 -162 59 -225 31z"/>
<path d="M7570 6889 c-81 -33 -140 -123 -140 -216 0 -161 247 -667 444 -908
86 -106 278 -313 343 -370 491 -435 1007 -672 1658 -761 179 -25 560 -25 735
-1 520 73 970 249 1376 538 482 344 853 825 1024 1328 61 179 52 262 -38 343
-70 63 -163 75 -250 32 -65 -32 -93 -69 -122 -159 -202 -624 -710 -1165 -1350
-1437 -529 -225 -1082 -273 -1608 -137 -646 166 -1161 525 -1506 1047 -106
162 -154 258 -227 456 -62 170 -82 201 -154 236 -45 22 -141 26 -185 9z"/>
<path d="M8612 6879 c-111 -55 -155 -196 -96 -313 71 -142 258 -362 426 -502
283 -236 581 -375 953 -446 160 -30 535 -33 685 -5 465 87 850 303 1169 658
101 112 168 204 215 293 64 122 4 280 -123 324 -112 39 -221 -11 -291 -133
-44 -76 -180 -234 -272 -316 -317 -279 -756 -428 -1152 -391 -227 21 -362 60
-581 168 -234 115 -433 281 -565 473 -87 127 -127 171 -175 192 -55 26 -139
24 -193 -2z"/>
<path d="M14743 6875 c-85 -43 -113 -94 -142 -260 -122 -707 -469 -1416 -949
-1940 -82 -89 -104 -133 -104 -204 -1 -68 18 -115 63 -160 96 -96 231 -94 334
5 162 156 433 521 589 793 228 398 375 772 475 1211 73 318 78 403 30 477 -43
64 -100 97 -178 101 -56 3 -74 -1 -118 -23z"/>
</g>
</svg>
