<?xml version="1.0" standalone="no"?>
<!DOCTYPE svg PUBLIC "-//W3C//DTD SVG 20010904//EN"
 "http://www.w3.org/TR/2001/REC-SVG-20010904/DTD/svg10.dtd">
<svg version="1.0" xmlns="http://www.w3.org/2000/svg"
 width="2048.000000pt" height="2048.000000pt" viewBox="0 0 2048.000000 2048.000000"
 preserveAspectRatio="xMidYMid meet">
<metadata>
Created by potrace 1.16, written by Peter Selinger 2001-2019
</metadata>
<g transform="translate(0.000000,2048.000000) scale(0.100000,-0.100000)"
fill="#18bcf2" stroke="none">
<path d="M6452 16568 c-172 -17 -353 -98 -487 -219 -146 -132 -217 -238 -298
-446 -25 -65 -83 -212 -128 -328 -45 -115 -138 -352 -206 -525 -69 -173 -173
-439 -233 -590 -60 -151 -130 -329 -156 -395 -25 -66 -85 -217 -131 -335 -47
-118 -117 -300 -158 -405 -40 -104 -124 -320 -187 -480 -63 -159 -152 -384
-197 -500 -45 -115 -140 -356 -211 -535 -171 -434 -165 -413 -165 -550 0 -112
1 -117 37 -193 44 -91 132 -186 214 -229 114 -61 62 -59 1312 -60 628 0 1145
-5 1148 -9 3 -5 0 -9 -5 -9 -6 0 -11 -6 -11 -14 0 -8 -53 -144 -119 -303 -160
-390 -173 -424 -167 -431 3 -3 23 2 43 11 42 18 374 127 386 127 11 0 165 61
276 110 285 124 434 272 546 543 48 116 104 247 160 377 117 268 235 487 388
715 113 169 326 398 502 540 256 208 564 364 825 421 101 22 341 22 430 0 247
-59 459 -194 585 -371 53 -75 121 -209 130 -258 4 -20 10 -37 14 -37 13 0 271
398 304 467 44 94 50 220 17 324 -54 168 -182 291 -345 334 -52 13 -229 15
-1412 15 -744 0 -1353 3 -1353 8 0 7 93 142 295 429 49 71 109 156 132 191 24
34 60 86 80 115 21 29 101 144 178 257 78 113 165 239 194 280 29 41 157 226
286 410 420 602 462 664 518 755 81 132 100 195 95 325 -3 97 -6 111 -40 183
-63 131 -171 225 -315 274 -43 14 -183 16 -1368 17 -726 1 -1358 -2 -1403 -6z"/>
<path d="M15702 15685 c-126 -28 -179 -53 -477 -220 -110 -61 -267 -149 -350
-195 -1251 -695 -1208 -668 -1272 -798 -30 -61 -30 -67 -25 -332 4 -182 -34
-279 -162 -405 -44 -45 -155 -151 -246 -236 -90 -85 -219 -206 -285 -270 -66
-63 -165 -158 -220 -210 -94 -89 -203 -193 -515 -494 -75 -71 -169 -162 -210
-200 -41 -39 -197 -187 -345 -330 -374 -360 -719 -690 -850 -815 -60 -57 -164
-156 -230 -220 -203 -195 -289 -270 -307 -270 -37 0 -149 60 -197 105 -95 89
-137 211 -129 375 6 108 21 150 114 320 129 236 139 267 139 421 0 114 0 116
-39 195 -53 106 -129 182 -232 231 -69 33 -87 37 -178 41 -72 3 -121 -1 -171
-12 -143 -34 -343 -135 -528 -267 -100 -71 -295 -259 -379 -364 -154 -195
-338 -515 -463 -810 -37 -88 -90 -212 -116 -275 -177 -414 -387 -635 -781
-824 -188 -90 -494 -199 -833 -296 -352 -102 -818 -344 -1088 -567 -577 -477
-820 -1094 -705 -1793 76 -463 251 -883 555 -1330 175 -256 333 -443 608 -715
538 -535 1088 -893 1664 -1081 310 -102 511 -136 807 -136 149 0 219 5 319 22
302 51 612 193 860 395 389 316 673 757 870 1350 57 172 156 538 185 690 17
85 112 365 159 468 73 158 176 279 318 373 45 30 159 91 255 135 346 159 478
235 650 374 161 129 299 291 405 475 160 277 185 488 80 684 -85 161 -245 257
-427 257 -109 0 -152 -10 -281 -65 -161 -68 -228 -86 -328 -86 -175 0 -304 66
-385 198 -31 50 -56 139 -56 202 0 42 5 51 58 106 31 33 242 255 467 494 402
426 492 521 726 764 63 67 189 200 279 296 90 96 252 267 360 380 240 252 583
610 710 744 52 55 149 157 215 226 66 68 165 172 220 230 213 223 322 336 368
379 62 59 202 146 281 173 65 23 107 25 381 17 126 -4 132 -3 187 24 113 55
208 199 374 568 71 159 200 414 233 463 60 87 126 120 265 131 109 8 186 32
291 88 176 95 295 313 295 540 -1 295 -206 568 -500 667 -85 28 -294 37 -388
15z m-6235 -5206 c77 -37 141 -134 177 -267 l17 -63 -162 -167 c-201 -208
-232 -252 -237 -345 -4 -61 -1 -75 28 -133 28 -57 72 -106 324 -358 349 -350
364 -361 501 -361 78 0 97 4 145 27 30 15 79 48 108 74 29 25 54 45 56 43 1
-2 15 -30 31 -63 35 -70 181 -228 269 -291 132 -94 295 -155 472 -177 109 -13
308 1 424 31 83 21 88 17 66 -47 -33 -93 -131 -197 -276 -293 -70 -47 -131
-78 -520 -267 -385 -187 -586 -380 -753 -722 -77 -159 -137 -338 -218 -660
-87 -340 -107 -411 -163 -575 -152 -449 -352 -779 -501 -828 -118 -39 -205
-29 -301 35 -104 70 -127 124 -195 445 -66 319 -124 499 -218 678 -82 159
-160 245 -773 853 -325 323 -609 612 -632 642 -175 228 -208 504 -92 755 103
222 287 401 572 555 620 333 761 423 966 618 142 135 296 350 477 667 56 99
78 126 133 169 78 58 185 68 275 25z"/>
<path d="M8033 8656 c-60 -29 -121 -86 -148 -141 -29 -59 -28 -194 2 -255 16
-32 153 -175 470 -491 420 -419 451 -448 502 -464 73 -24 157 -22 221 6 65 28
133 103 156 171 24 72 16 182 -18 238 -13 23 -220 237 -459 476 -326 326 -446
441 -483 459 -69 35 -170 35 -243 1z"/>
<path d="M15160 11240 c-87 -10 -170 -67 -218 -150 -24 -40 -27 -55 -27 -135
0 -103 6 -119 119 -290 73 -109 251 -461 314 -620 240 -605 328 -1331 236
-1960 -47 -324 -131 -637 -249 -924 -42 -103 -185 -401 -205 -426 -4 -5 -22
-37 -40 -70 -46 -84 -172 -275 -244 -370 -158 -211 -420 -490 -581 -620 -162
-130 -196 -180 -203 -296 -4 -62 -1 -84 17 -123 34 -77 76 -122 146 -157 60
-29 70 -31 144 -27 71 4 86 9 133 40 123 82 491 436 654 629 294 348 567 804
724 1209 192 494 290 935 319 1431 34 581 -74 1266 -290 1836 -36 95 -87 211
-169 386 -81 175 -309 540 -361 580 -60 45 -141 67 -219 57z"/>
<path d="M14177 10476 c-59 -22 -113 -61 -145 -108 -43 -64 -55 -110 -50 -198
4 -68 9 -86 41 -137 182 -294 287 -549 357 -864 45 -203 61 -342 61 -549 1
-302 -36 -528 -135 -832 -142 -436 -440 -879 -808 -1201 -96 -85 -131 -149
-131 -247 0 -39 6 -81 17 -104 67 -158 258 -233 405 -160 96 48 418 377 587
599 112 147 261 390 322 525 16 36 39 85 50 110 130 280 228 672 263 1054 22
239 -3 635 -56 891 -72 353 -205 705 -368 980 -85 143 -135 200 -202 231 -58
27 -147 31 -208 10z"/>
<path d="M13250 9725 c-73 -24 -132 -74 -170 -146 -29 -56 -34 -73 -34 -139 0
-69 3 -82 48 -175 112 -235 155 -414 156 -655 0 -320 -107 -632 -307 -892 -24
-31 -85 -99 -136 -150 -76 -77 -96 -103 -110 -147 -38 -117 -14 -215 72 -302
64 -64 124 -89 210 -89 99 0 145 24 253 132 232 234 386 476 486 763 91 261
117 416 116 690 0 173 -4 220 -27 347 -45 249 -168 573 -258 681 -65 79 -198
115 -299 82z"/>
<path d="M4501 5948 c-5 -13 -32 -79 -61 -148 -28 -69 -76 -183 -105 -255 -29
-71 -97 -236 -150 -365 -54 -129 -113 -273 -132 -320 -19 -47 -63 -148 -96
-225 l-62 -140 0 -110 c1 -98 4 -118 30 -184 49 -123 142 -211 280 -266 64
-25 77 -27 175 -23 93 4 115 8 172 35 86 40 133 85 259 244 57 72 129 162 159
199 79 96 310 385 344 431 l29 38 -74 78 c-111 117 -277 308 -345 398 -106
141 -253 360 -312 467 -10 18 -35 63 -56 101 -21 37 -40 67 -42 67 -3 0 -8
-10 -13 -22z"/>
</g>
</svg>
