<?xml version="1.0" standalone="no"?>
<!DOCTYPE svg PUBLIC "-//W3C//DTD SVG 20010904//EN"
 "http://www.w3.org/TR/2001/REC-SVG-20010904/DTD/svg10.dtd">
<svg version="1.0" xmlns="http://www.w3.org/2000/svg"
 width="2048.000000pt" height="2048.000000pt" viewBox="0 0 2048.000000 2048.000000"
 preserveAspectRatio="xMidYMid meet">
<metadata>
Created by potrace 1.16, written by Peter Selinger 2001-2019
</metadata>
<g transform="translate(0.000000,2048.000000) scale(0.100000,-0.100000)"
fill="#18bcf2" stroke="none">
<path d="M10290 17041 c-19 -11 -85 -70 -146 -133 -157 -160 -253 -296 -330
-464 -142 -308 -171 -577 -113 -1019 33 -247 41 -397 30 -511 -22 -218 -70
-366 -170 -524 -55 -87 -190 -254 -199 -246 -2 3 3 35 11 73 73 321 33 725
-101 1013 -79 171 -212 344 -287 376 -75 31 -171 11 -233 -49 -39 -38 -52 -80
-52 -174 0 -40 -9 -116 -19 -170 -66 -336 -238 -579 -706 -994 -403 -357 -606
-594 -780 -909 -124 -225 -200 -450 -241 -710 -14 -87 -18 -172 -18 -345 0
-252 12 -353 65 -571 55 -228 86 -290 163 -325 105 -48 235 9 264 115 12 41 8
62 -35 206 -96 323 -109 706 -33 1005 48 189 135 396 231 548 104 164 310 403
484 562 55 50 128 117 164 151 37 33 112 103 169 156 256 237 445 481 537 696
26 61 42 88 47 78 23 -41 40 -206 35 -336 -10 -233 -54 -381 -192 -662 -89
-178 -99 -218 -74 -285 24 -65 109 -122 181 -123 52 0 113 22 253 90 193 94
409 257 529 400 215 257 325 497 377 825 18 110 15 421 -6 565 -45 321 -47
347 -42 485 5 154 30 286 75 384 l25 56 22 -85 c33 -126 51 -173 114 -300 61
-124 128 -228 226 -355 98 -126 224 -322 267 -413 74 -160 116 -360 105 -502
-4 -41 -15 -119 -26 -172 -25 -128 -14 -178 49 -231 68 -57 139 -59 267 -6
189 79 353 230 457 420 46 85 72 160 100 288 l22 104 41 -64 c55 -84 138 -262
173 -369 50 -154 64 -257 64 -460 0 -165 -3 -197 -27 -300 -34 -143 -34 -180
-2 -239 38 -70 83 -96 166 -96 60 0 71 3 106 31 53 42 80 103 110 241 34 163
43 448 19 611 -67 457 -276 860 -631 1218 -138 139 -195 168 -286 144 -58 -16
-123 -81 -139 -139 -10 -37 -8 -59 12 -150 18 -83 22 -136 22 -246 0 -163 -20
-253 -81 -373 -41 -80 -51 -78 -52 9 -1 60 -49 250 -90 354 -45 117 -139 280
-254 443 -224 315 -271 391 -323 520 -75 188 -88 374 -39 587 16 70 25 133 21
153 -8 55 -53 120 -96 142 -50 26 -132 26 -180 1z"/>
<path d="M7820 16067 c-567 -242 -983 -477 -1405 -792 -393 -294 -685 -565
-1039 -965 -287 -324 -630 -848 -841 -1285 -135 -280 -175 -378 -175 -431 0
-53 26 -119 56 -146 57 -51 161 -62 226 -26 48 27 59 44 148 243 194 429 370
728 658 1113 345 463 715 833 1187 1189 97 73 369 258 445 303 263 156 503
278 725 369 223 91 256 109 282 156 46 82 21 205 -54 262 -50 38 -137 42 -213
10z"/>
<path d="M6203 16030 c-35 -14 -196 -124 -323 -221 -537 -408 -1042 -918
-1401 -1417 -102 -141 -123 -185 -123 -248 1 -62 23 -104 77 -148 35 -28 45
-31 111 -31 64 0 77 3 109 28 21 16 59 61 87 100 67 98 216 292 312 407 350
417 802 834 1203 1110 155 107 184 134 192 185 19 107 -14 183 -98 225 -40 21
-108 25 -146 10z"/>
<path d="M12603 16011 c-53 -25 -92 -82 -100 -148 -13 -111 29 -159 208 -237
508 -220 1025 -548 1476 -933 207 -177 566 -554 774 -813 55 -68 250 -346 317
-452 335 -527 622 -1188 761 -1755 41 -168 58 -196 134 -228 79 -33 182 -9
226 53 11 16 26 50 33 75 11 43 9 59 -31 219 -175 705 -546 1506 -972 2098
-361 501 -767 923 -1254 1302 -124 96 -407 298 -481 343 -256 154 -545 313
-707 387 -252 114 -301 126 -384 89z"/>
<path d="M14677 15626 c-99 -36 -148 -139 -116 -237 16 -46 24 -55 178 -187
145 -125 430 -404 559 -547 101 -112 348 -422 427 -535 204 -292 333 -501 465
-755 112 -216 137 -252 186 -275 48 -24 133 -26 173 -6 42 22 89 81 97 121 11
63 -3 114 -70 249 -127 256 -266 486 -489 811 -160 232 -382 512 -556 700
-210 227 -618 607 -693 646 -51 26 -115 32 -161 15z"/>
<path d="M7169 14837 c-218 -132 -581 -420 -835 -662 -184 -175 -556 -613
-610 -716 -25 -50 -16 -147 19 -193 57 -74 161 -98 242 -55 46 24 63 41 130
129 144 191 278 344 449 516 243 243 442 408 718 598 70 48 136 99 148 113 94
119 -2 303 -158 303 -37 0 -61 -8 -103 -33z"/>
<path d="M13181 14838 c-56 -12 -127 -81 -137 -133 -10 -58 1 -122 29 -158 14
-18 94 -81 179 -139 215 -148 461 -353 653 -542 430 -426 739 -862 1001 -1416
147 -309 142 -301 204 -333 46 -24 63 -28 105 -23 98 11 171 94 169 191 -1 60
-73 228 -223 521 -124 241 -209 381 -367 605 -171 241 -331 434 -531 639 -240
247 -464 440 -730 628 -222 158 -266 178 -352 160z"/>
<path d="M13155 13861 c-95 -57 -131 -181 -77 -263 9 -14 51 -56 92 -94 476
-437 757 -806 1007 -1324 57 -118 120 -248 140 -288 43 -89 87 -123 166 -130
89 -7 170 48 197 132 17 54 7 103 -52 241 -250 589 -668 1179 -1119 1582 -166
148 -190 163 -264 163 -41 0 -70 -6 -90 -19z"/>
<path d="M10885 13350 c-249 -39 -439 -167 -534 -360 -53 -109 -71 -194 -71
-350 0 -340 90 -631 250 -804 127 -137 277 -206 451 -206 172 0 325 68 476
213 194 187 303 452 303 741 0 313 -154 585 -396 701 -126 60 -331 88 -479 65z"/>
<path d="M9135 12700 c-89 -13 -212 -55 -283 -97 -128 -76 -256 -217 -308
-339 l-26 -61 -45 8 c-82 16 -217 -16 -317 -75 -100 -59 -191 -195 -217 -324
-51 -267 139 -537 408 -575 140 -21 309 26 395 110 l37 36 82 -53 c161 -103
302 -149 480 -158 263 -12 463 85 582 280 54 90 78 174 84 300 14 276 -94 556
-291 754 -151 150 -370 224 -581 194z"/>
<path d="M6023 12685 c-17 -7 -73 -51 -125 -96 -521 -464 -802 -930 -922
-1532 -69 -347 -55 -726 40 -1062 41 -146 74 -208 128 -240 121 -71 272 2 284
138 3 41 -5 84 -36 194 -54 185 -73 323 -74 508 0 308 53 563 173 835 75 172
153 312 232 420 l62 85 7 -195 c13 -414 95 -661 316 -954 153 -205 429 -428
558 -452 115 -21 227 96 211 219 -9 66 -47 109 -169 190 -174 116 -325 281
-410 451 -89 177 -128 352 -128 575 0 213 28 380 100 606 41 127 39 195 -6
252 -17 21 -46 46 -65 55 -41 22 -131 23 -176 3z"/>
<path d="M12831 12506 c-90 -30 -165 -96 -224 -199 -33 -56 -83 -97 -267 -220
-74 -49 -187 -128 -252 -173 -203 -146 -714 -471 -861 -549 -307 -162 -732
-277 -1412 -380 -298 -45 -375 -64 -495 -122 -216 -105 -332 -301 -318 -542 7
-106 40 -207 99 -297 50 -77 102 -125 195 -179 135 -78 218 -157 287 -268 50
-81 68 -143 74 -249 10 -166 -48 -315 -169 -437 -58 -59 -180 -124 -256 -136
-51 -8 -75 -27 -283 -225 -169 -161 -236 -247 -299 -385 -50 -108 -84 -227
-110 -388 -21 -133 -54 -243 -92 -305 -102 -170 -301 -347 -536 -477 -68 -38
-132 -79 -143 -93 -13 -17 -19 -40 -19 -75 0 -46 3 -54 43 -91 45 -44 231
-144 361 -196 396 -156 875 -181 1340 -68 100 25 88 12 209 218 30 52 93 150
139 217 157 231 333 484 404 581 39 53 118 167 176 253 l105 157 -12 268 c-25
529 -37 875 -39 1100 -1 269 -1 272 111 457 87 143 107 210 101 334 -7 128
-42 208 -128 294 l-66 67 201 66 c370 123 699 265 885 384 223 141 529 402
978 829 106 102 199 183 206 181 21 -5 122 -124 180 -213 57 -87 114 -187 159
-279 30 -62 62 -174 53 -183 -7 -8 -159 18 -399 68 -104 21 -198 39 -211 39
-13 0 -38 -17 -61 -41 -62 -64 -446 -392 -548 -468 -301 -222 -482 -319 -864
-461 -76 -29 -142 -56 -147 -60 -4 -4 -1 -40 8 -78 22 -99 21 -259 -3 -354
-21 -80 -64 -174 -113 -246 -16 -23 -41 -68 -55 -99 l-26 -56 6 -311 c7 -372
22 -739 42 -1049 l15 -228 -24 -47 c-14 -26 -48 -82 -78 -124 -29 -43 -89
-131 -133 -195 -43 -65 -108 -158 -144 -208 -150 -208 -417 -604 -496 -735
-121 -201 -226 -433 -310 -690 -158 -483 -505 -1421 -557 -1508 -71 -117 -185
-189 -493 -311 -220 -87 -276 -115 -326 -163 -145 -140 -98 -335 96 -395 168
-52 396 -55 995 -13 190 13 275 32 363 78 129 67 183 150 297 460 37 103 85
230 105 282 20 52 50 133 67 180 16 47 52 140 79 206 27 67 91 240 143 385
107 301 135 374 201 514 26 55 64 141 85 191 96 230 271 443 720 880 91 88
226 216 300 284 209 192 286 268 364 360 239 281 339 527 339 835 0 191 -27
337 -138 749 -50 188 -61 300 -46 460 24 249 46 375 161 916 15 67 55 144 86
165 55 36 157 37 519 5 144 -13 436 -13 550 0 277 32 446 123 526 285 32 66
34 75 34 175 0 92 -4 116 -33 200 -35 103 -139 323 -217 460 -75 131 -297 465
-406 610 -31 41 -80 111 -109 154 -70 104 -123 155 -206 196 -59 29 -81 34
-154 37 -54 2 -101 -2 -129 -11z"/>
<path d="M4381 11555 c-63 -20 -106 -65 -124 -133 -9 -32 -27 -129 -41 -218
-83 -516 -96 -935 -41 -1348 12 -88 19 -115 41 -143 73 -96 195 -107 284 -26
58 51 67 91 50 216 -18 143 -25 624 -11 810 13 159 37 344 72 537 24 133 20
182 -20 237 -47 65 -132 92 -210 68z"/>
<path d="M15230 11238 c-123 -64 -149 -149 -110 -358 31 -164 38 -409 15 -558
-48 -328 -185 -650 -427 -1011 -65 -96 -261 -355 -368 -486 -45 -55 -116 -143
-158 -195 -41 -52 -81 -101 -88 -109 -11 -12 -26 -3 -96 54 -51 42 -82 74 -80
84 13 73 13 94 2 120 -22 54 -91 78 -160 56 -25 -8 -176 -187 -202 -241 -26
-53 -18 -102 23 -144 37 -37 96 -41 147 -10 18 11 35 20 37 20 3 0 29 -22 59
-49 30 -28 66 -57 80 -67 15 -9 26 -20 26 -24 0 -10 -240 -310 -248 -310 -3 0
-33 26 -66 58 -34 32 -71 65 -84 74 -22 15 -23 18 -11 57 9 32 10 50 0 80 -16
56 -52 81 -115 81 -51 0 -52 -1 -127 -79 -131 -135 -167 -204 -139 -271 28
-67 108 -91 175 -51 l37 22 52 -45 c28 -24 69 -59 91 -79 l39 -34 -199 -247
c-110 -136 -274 -338 -363 -449 -90 -111 -215 -266 -277 -344 -63 -77 -118
-144 -123 -147 -5 -3 -31 2 -57 10 -92 32 -183 3 -236 -74 -19 -28 -24 -48
-24 -97 0 -79 28 -123 126 -203 40 -31 106 -85 148 -120 111 -92 153 -115 214
-115 111 -1 188 76 189 189 1 44 -5 64 -31 105 -17 28 -31 56 -31 63 0 6 22
37 48 67 50 57 217 267 245 308 l16 23 11 -43 c35 -141 91 -243 183 -337 141
-145 301 -218 497 -229 140 -7 244 13 365 72 173 84 207 118 665 681 57 71
111 136 119 144 8 8 103 125 210 259 405 506 447 566 493 711 20 64 23 96 23
220 0 133 -2 152 -29 234 -53 162 -179 321 -321 406 -32 19 -101 49 -152 66
l-94 31 78 70 c307 278 619 459 925 539 123 31 226 45 399 53 187 9 242 23
298 74 72 67 94 217 45 315 -27 54 -111 139 -245 247 -41 33 -135 110 -209
171 -74 61 -173 142 -220 180 -48 38 -217 177 -378 309 -161 132 -318 253
-349 270 -43 23 -72 31 -127 33 -65 4 -77 1 -136 -30z m542 -705 c134 -109
321 -263 416 -343 l172 -144 -97 -17 c-187 -32 -353 -83 -538 -165 -133 -58
-289 -141 -339 -179 -42 -32 -50 -31 -33 3 22 43 73 189 97 277 60 222 85 431
78 632 -3 73 -4 133 -3 133 2 0 113 -89 247 -197z m-618 -1932 c126 -58 206
-175 214 -311 7 -130 -28 -206 -183 -395 -89 -109 -119 -146 -425 -525 -113
-140 -241 -298 -284 -350 -43 -52 -120 -147 -171 -211 -51 -63 -111 -131 -133
-150 -122 -104 -272 -126 -408 -59 -162 79 -239 262 -185 437 22 73 46 111
159 250 73 90 353 439 518 645 318 398 431 538 468 576 123 128 280 162 430
93z"/>
<path d="M8816 9859 c-165 -184 -193 -497 -60 -667 137 -174 348 -234 507
-144 123 70 170 237 106 382 -29 65 -69 103 -198 187 -128 84 -204 151 -267
235 l-42 58 -46 -51z"/>
<path d="M6620 9859 c-250 -12 -529 -77 -697 -163 -115 -58 -233 -202 -233
-284 0 -51 15 -69 72 -87 82 -27 272 -119 346 -169 37 -25 99 -78 138 -119
l70 -74 80 -12 c381 -57 794 -30 1084 71 208 73 337 173 374 292 32 101 6 184
-87 283 -172 182 -630 286 -1147 262z m540 -283 c214 -41 400 -114 430 -170
14 -26 14 -28 -15 -52 -269 -220 -1230 -229 -1564 -15 -60 39 -66 52 -39 86
46 58 254 127 488 160 133 19 582 13 700 -9z"/>
<path d="M4665 9169 c-585 -55 -931 -230 -962 -487 -29 -247 286 -447 832
-528 146 -22 473 -29 640 -15 497 43 847 189 941 393 36 77 40 181 10 238
-114 217 -441 357 -931 399 -139 12 -400 12 -530 0z m520 -284 c309 -22 615
-122 666 -216 15 -29 -18 -62 -106 -104 -213 -101 -557 -155 -915 -142 -322
11 -583 67 -767 165 -77 40 -87 83 -29 126 184 137 651 206 1151 171z"/>
<path d="M7837 8950 c-66 -51 -201 -116 -316 -152 -155 -49 -142 -38 -125
-100 21 -80 37 -273 31 -367 l-6 -84 48 -46 c58 -54 76 -105 68 -196 -7 -99
-66 -185 -149 -219 -81 -34 -177 -7 -223 62 -78 117 -71 267 16 347 l42 39 -6
180 c-4 100 -13 208 -19 241 -12 55 -15 60 -38 59 -14 -1 -90 -8 -170 -14
-141 -13 -387 -8 -522 9 l-56 7 -5 -71 c-2 -38 -10 -96 -18 -127 -12 -55 -12
-63 29 -225 77 -306 121 -622 129 -913 12 -451 -53 -955 -188 -1445 -21 -79
-39 -150 -39 -159 0 -18 86 -47 218 -73 160 -31 433 -20 592 24 121 34 125 37
181 137 96 169 178 276 311 408 70 70 128 132 128 138 0 5 -31 30 -69 55 -85
56 -135 110 -170 184 -23 50 -26 68 -26 166 0 106 1 112 33 167 48 84 123 146
261 218 67 34 125 70 130 79 8 16 28 126 55 306 43 285 46 687 7 980 -25 182
-67 405 -78 415 -5 4 -30 -9 -56 -30z"/>
<path d="M6120 8194 c-105 -83 -231 -144 -410 -200 -86 -27 -105 -36 -103 -51
2 -10 10 -61 18 -113 9 -58 15 -164 15 -269 l0 -174 44 -43 c68 -65 90 -114
90 -204 0 -98 -28 -164 -96 -225 -59 -53 -104 -69 -170 -62 -132 16 -219 123
-221 271 -1 95 16 140 77 204 l51 54 0 192 c0 178 -13 300 -35 335 -6 11 -31
11 -131 1 -150 -14 -532 -14 -659 0 -51 6 -101 8 -111 5 -29 -9 -40 -84 -46
-317 l-6 -217 50 -48 c63 -61 88 -134 81 -232 -8 -109 -58 -183 -153 -227 -63
-30 -117 -30 -180 0 -95 44 -146 129 -153 253 -4 75 -2 88 23 138 18 37 40 65
66 82 l39 26 0 126 c1 143 13 307 31 398 7 35 10 65 7 69 -4 3 -37 14 -75 23
-151 40 -335 126 -434 203 -20 15 -39 28 -42 28 -18 0 -69 -264 -99 -508 -27
-214 -32 -656 -10 -837 72 -592 167 -992 367 -1541 179 -490 197 -522 339
-615 144 -95 325 -138 607 -146 220 -6 324 6 480 56 215 69 332 176 402 366 8
22 33 87 55 145 163 424 324 969 377 1272 101 581 106 1016 19 1533 -14 83
-29 166 -34 185 -5 19 -10 50 -12 68 -1 17 -5 32 -8 31 -3 0 -25 -16 -50 -35z"/>
<path d="M15802 7249 c-46 -23 -69 -53 -147 -189 -104 -183 -358 -549 -534
-770 -219 -274 -590 -651 -891 -905 -95 -80 -343 -269 -463 -352 -26 -18 -56
-47 -66 -64 -97 -159 77 -351 242 -268 132 67 503 357 767 600 547 502 985
1046 1321 1638 24 42 44 92 47 116 16 150 -141 261 -276 194z"/>
<path d="M11470 6337 c-276 -273 -430 -454 -514 -608 -49 -90 -49 -121 1 -206
73 -122 133 -188 498 -545 487 -479 664 -659 671 -686 12 -45 -24 -111 -104
-186 -201 -190 -228 -220 -245 -270 -34 -101 -15 -208 49 -268 53 -50 119 -72
214 -71 72 0 101 6 190 38 145 51 248 102 360 175 227 150 429 363 548 579 35
62 37 71 37 156 0 154 -41 233 -215 412 -58 60 -161 169 -230 243 -69 74 -190
203 -270 285 -662 682 -687 715 -760 1030 -13 55 -26 103 -29 107 -4 4 -94
-79 -201 -185z"/>
<path d="M7979 6253 c-75 -62 -218 -205 -278 -278 -121 -146 -208 -310 -319
-600 -80 -209 -169 -411 -235 -535 -67 -125 -85 -145 -309 -353 -155 -143
-239 -247 -305 -375 -84 -161 -120 -301 -110 -427 13 -170 104 -269 247 -268
215 1 454 257 850 913 133 221 391 607 528 789 163 218 273 343 518 591 117
118 234 242 260 275 50 65 78 114 71 122 -3 3 -45 7 -94 9 -139 8 -319 32
-433 59 -123 30 -317 93 -325 106 -10 15 -19 11 -66 -28z"/>
<path d="M10770 5318 c0 -3 -27 -77 -61 -164 -33 -88 -92 -242 -129 -344 -38
-102 -94 -250 -125 -330 -31 -80 -83 -216 -116 -303 l-60 -158 39 -57 c22 -31
65 -97 97 -147 149 -234 298 -315 581 -315 157 0 245 33 283 107 15 30 14 117
-3 156 -20 49 -79 113 -148 164 -131 95 -185 165 -233 300 -80 230 -72 361 45
728 38 119 37 124 -12 180 -24 28 -65 77 -92 110 -65 79 -66 80 -66 73z"/>
</g>
</svg>
