<?xml version="1.0" standalone="no"?>
<!DOCTYPE svg PUBLIC "-//W3C//DTD SVG 20010904//EN"
 "http://www.w3.org/TR/2001/REC-SVG-20010904/DTD/svg10.dtd">
<svg version="1.0" xmlns="http://www.w3.org/2000/svg"
 width="2048.000000pt" height="2048.000000pt" viewBox="0 0 2048.000000 2048.000000"
 preserveAspectRatio="xMidYMid meet">
<metadata>
Created by potrace 1.16, written by Peter Selinger 2001-2019
</metadata>
<g transform="translate(0.000000,2048.000000) scale(0.100000,-0.100000)"
fill="#18bcf2" stroke="none">
<path d="M6055 16383 c-120 -25 -184 -43 -325 -90 -327 -110 -466 -208 -554
-393 -29 -60 -31 -73 -31 -175 0 -127 -14 -85 222 -680 191 -484 210 -528 250
-574 47 -56 144 -124 236 -166 54 -24 80 -42 90 -62 8 -15 166 -485 352 -1043
185 -558 354 -1064 375 -1125 85 -249 350 -1061 350 -1070 -1 -5 -78 -48 -172
-95 -409 -203 -671 -436 -815 -725 -159 -319 -146 -640 39 -985 56 -104 118
-193 244 -352 201 -253 274 -423 274 -638 0 -103 -16 -186 -90 -490 -90 -371
-113 -518 -113 -725 1 -329 89 -703 220 -930 273 -473 696 -737 1292 -805 155
-18 552 -8 711 19 294 48 517 104 808 201 281 93 475 173 712 294 501 254 817
506 1043 829 83 118 181 308 215 417 54 168 67 264 67 475 -1 229 -16 321 -86
530 -155 459 -401 761 -924 1131 -276 196 -419 358 -479 539 -31 96 -37 152
-45 430 -12 379 -41 537 -132 717 -165 328 -439 529 -809 594 -222 40 -624 10
-903 -66 l-68 -19 -16 37 c-20 49 -141 376 -315 852 -77 212 -165 453 -195
535 -30 83 -92 254 -138 380 -46 127 -115 318 -155 425 -39 107 -89 242 -110
300 -21 58 -61 166 -88 240 -63 171 -131 362 -148 419 -13 42 -13 46 15 91 16
25 41 82 57 126 24 68 28 93 28 184 -1 102 -3 112 -73 335 -40 127 -86 275
-102 330 -60 201 -162 511 -182 550 -47 95 -182 188 -318 220 -60 14 -168 18
-214 8z m2395 -6553 c139 -39 259 -121 359 -246 152 -188 201 -418 136 -639
-66 -224 -188 -371 -390 -470 -286 -139 -601 -83 -830 149 -221 224 -271 546
-129 830 107 212 308 359 542 396 83 13 226 4 312 -20z m1215 -2099 c74 -34
135 -126 135 -203 0 -79 -50 -162 -119 -198 -21 -10 -121 -48 -222 -83 -101
-36 -292 -104 -424 -152 -391 -142 -788 -275 -821 -275 -118 0 -224 109 -224
230 0 32 39 121 67 152 23 26 86 52 331 139 425 150 477 168 797 282 176 63
327 117 335 120 33 12 107 6 145 -12z"/>
<path d="M8875 16359 c-146 -55 -197 -238 -101 -363 44 -58 100 -78 219 -77
128 2 441 -15 657 -35 764 -69 1484 -260 1935 -512 222 -124 319 -191 474
-331 101 -90 143 -117 196 -126 90 -13 131 6 246 111 120 110 243 200 404 294
139 81 160 92 345 175 164 74 456 172 665 224 436 108 1119 191 1576 191 190
0 247 12 298 62 102 100 99 244 -8 341 -61 55 -95 60 -346 53 -726 -20 -1412
-125 -1943 -297 -421 -137 -875 -365 -1119 -563 -39 -31 -73 -56 -77 -56 -4 0
-58 38 -121 85 -441 331 -1132 601 -1845 719 -221 37 -513 73 -740 91 -261 21
-675 29 -715 14z"/>
<path d="M8917 15270 c-99 -13 -162 -70 -187 -172 -25 -100 18 -196 110 -248
44 -24 53 -25 320 -31 665 -18 1230 -100 1730 -251 216 -65 368 -123 553 -212
273 -131 442 -241 616 -400 52 -47 113 -95 136 -106 91 -44 193 -16 300 81
198 180 334 273 579 396 172 86 275 129 465 193 521 176 1186 281 1871 296
146 3 282 10 303 15 47 12 102 60 129 112 16 32 19 54 16 111 -5 85 -35 140
-100 183 l-42 28 -255 0 c-280 0 -432 -7 -676 -30 -999 -95 -1819 -367 -2384
-791 l-111 -84 -54 43 c-157 129 -342 243 -571 353 -254 122 -437 190 -753
279 -373 104 -781 175 -1207 209 -294 24 -703 37 -788 26z"/>
<path d="M8917 14179 c-72 -8 -127 -43 -163 -105 -70 -119 -22 -269 103 -321
43 -19 78 -21 353 -27 384 -7 707 -34 1038 -87 131 -20 421 -85 537 -120 328
-97 530 -174 725 -275 257 -134 412 -238 556 -373 103 -96 165 -125 246 -118
69 6 120 37 228 138 319 300 899 562 1545 698 394 83 963 139 1427 142 168 1
180 2 227 25 112 56 158 193 101 304 -21 42 -79 96 -119 112 -38 15 -516 10
-741 -8 -191 -15 -475 -47 -590 -65 -675 -110 -1089 -233 -1533 -455 -172 -87
-409 -235 -520 -327 l-48 -40 -37 35 c-76 71 -281 207 -444 292 -203 107 -508
233 -733 303 -474 147 -1172 257 -1710 269 -121 3 -258 6 -305 7 -47 1 -111
-1 -143 -4z"/>
<path d="M12165 12284 c-86 -20 -118 -30 -171 -54 -234 -104 -400 -328 -429
-577 l-7 -61 159 -4 c133 -2 164 -6 186 -21 87 -57 88 -194 2 -247 -29 -18
-49 -20 -189 -20 l-156 0 0 -105 c0 -77 3 -105 13 -105 6 -1 70 -1 141 -1 150
0 201 -15 236 -71 30 -47 24 -137 -11 -174 -42 -46 -76 -54 -232 -54 -79 0
-146 -2 -148 -4 -2 -2 -3 -50 -1 -105 l3 -101 156 1 c139 1 158 -1 182 -18 94
-70 94 -195 -1 -253 -29 -18 -51 -20 -185 -20 l-153 0 0 -43 c0 -69 36 -191
82 -279 87 -167 237 -289 443 -359 60 -21 89 -24 205 -24 113 0 147 4 210 24
140 43 291 143 372 245 77 97 136 245 153 380 l7 56 -154 0 c-130 0 -159 3
-188 19 -75 39 -102 130 -60 198 37 61 57 67 235 73 l160 5 3 103 3 102 -153
0 c-130 0 -159 3 -188 19 -109 57 -107 211 3 261 35 16 66 20 190 20 l148 0
-3 103 -3 102 -158 2 c-178 2 -205 10 -238 73 -37 68 -19 147 43 192 31 21 44
23 194 26 l160 4 -7 57 c-21 178 -123 367 -257 475 -70 56 -179 116 -260 142
-46 15 -294 28 -337 18z"/>
<path d="M10975 10886 c-46 -20 -94 -64 -115 -107 -18 -35 -20 -60 -20 -316 0
-193 5 -308 15 -375 65 -434 324 -811 715 -1040 135 -80 269 -129 473 -172
l27 -6 -2 -1583 -3 -1582 -325 -5 c-363 -6 -355 -4 -423 -79 -77 -86 -76 -204
3 -294 73 -82 13 -78 978 -77 843 0 856 0 898 21 91 43 142 134 131 231 -7 57
-26 96 -69 138 -58 59 -67 60 -418 60 l-320 0 -1 1548 c-1 851 -2 1562 -2
1581 0 21 5 38 14 42 8 4 65 19 128 33 228 52 457 176 635 345 58 55 187 208
221 260 93 149 168 334 207 513 20 93 22 132 22 413 l1 310 -27 46 c-38 65
-96 102 -168 107 -73 5 -122 -11 -173 -57 -69 -62 -71 -71 -77 -396 -7 -320
-15 -369 -83 -532 -127 -302 -411 -526 -742 -588 -120 -23 -315 -16 -435 15
-99 26 -242 90 -326 148 -72 48 -211 192 -258 264 -77 121 -132 256 -157 383
-10 54 -18 262 -19 510 0 84 -2 95 -33 145 -42 72 -107 110 -187 109 -30 0
-68 -6 -85 -13z"/>
<path d="M13152 6790 c-118 -51 -170 -192 -111 -306 29 -56 93 -109 147 -122
20 -5 147 -22 282 -37 286 -31 548 -66 710 -95 558 -97 642 -114 930 -188 212
-55 426 -123 578 -183 147 -58 206 -65 275 -29 60 31 77 48 103 105 53 113 11
240 -97 295 -48 25 -273 108 -429 158 -289 93 -739 199 -1070 251 -821 130
-1252 179 -1318 151z"/>
<path d="M5680 6574 c-14 -3 -77 -16 -140 -30 -63 -14 -137 -30 -165 -36 -249
-54 -799 -236 -880 -291 -145 -99 -130 -308 29 -389 68 -35 128 -28 296 35
300 113 605 201 875 253 106 20 152 41 190 86 40 47 55 89 55 150 -1 88 -49
167 -123 201 -37 17 -100 27 -137 21z"/>
<path d="M4566 5249 c-85 -20 -146 -83 -165 -171 -17 -76 8 -155 66 -210 51
-48 246 -133 478 -207 264 -85 881 -226 1230 -281 416 -66 848 -121 1260 -160
395 -37 933 -75 1210 -85 88 -3 183 -8 210 -10 28 -2 264 -10 525 -16 698 -17
1974 -4 2520 26 192 11 869 58 990 70 1383 130 2324 311 2938 562 206 84 258
137 256 263 -1 81 -28 138 -86 180 -86 62 -149 62 -293 -2 -197 -88 -366 -144
-660 -217 -884 -221 -2127 -364 -3680 -423 -598 -23 -2221 -12 -2645 17 -36 2
-117 7 -180 10 -409 21 -1091 76 -1485 121 -919 103 -1742 273 -2156 445 -245
101 -260 105 -333 88z"/>
</g>
</svg>
