<?xml version="1.0" standalone="no"?>
<!DOCTYPE svg PUBLIC "-//W3C//DTD SVG 20010904//EN"
 "http://www.w3.org/TR/2001/REC-SVG-20010904/DTD/svg10.dtd">
<svg version="1.0" xmlns="http://www.w3.org/2000/svg"
 width="2048.000000pt" height="2048.000000pt" viewBox="0 0 2048.000000 2048.000000"
 preserveAspectRatio="xMidYMid meet">
<metadata>
Created by potrace 1.16, written by Peter Selinger 2001-2019
</metadata>
<g transform="translate(0.000000,2048.000000) scale(0.100000,-0.100000)"
fill="#18bcf2" stroke="none">
<path d="M10164 17060 c-136 -29 -244 -140 -273 -281 -13 -63 -11 -97 63
-1054 25 -319 57 -731 71 -915 14 -184 30 -353 36 -375 41 -152 202 -193 312
-81 40 42 52 85 62 211 3 44 8 96 10 115 2 19 6 69 9 110 4 41 17 217 31 390
13 173 34 441 45 595 11 154 30 393 41 530 38 489 39 486 -31 595 -81 124
-235 190 -376 160z"/>
<path d="M7860 16383 c-91 -31 -187 -128 -218 -222 -17 -48 -15 -168 3 -229 9
-29 35 -80 59 -114 47 -70 247 -330 366 -478 42 -52 107 -135 145 -185 157
-206 206 -269 355 -460 86 -110 194 -249 241 -310 245 -320 279 -359 330 -386
76 -38 193 -16 233 45 9 14 21 48 28 75 14 61 -2 115 -71 239 -27 48 -78 141
-113 207 -141 259 -565 1026 -693 1255 -23 41 -87 154 -141 250 -116 206 -174
274 -267 308 -70 27 -189 29 -257 5z"/>
<path d="M12372 16381 c-108 -40 -162 -103 -287 -331 -37 -69 -94 -170 -125
-225 -62 -109 -166 -297 -310 -560 -51 -93 -113 -206 -138 -250 -49 -85 -57
-102 -177 -325 -43 -80 -113 -208 -155 -285 -91 -164 -104 -199 -98 -270 8
-94 76 -155 172 -155 57 0 109 25 157 77 47 50 297 367 509 648 95 126 181
237 265 341 44 55 101 127 126 160 126 163 268 346 314 404 205 259 230 305
230 435 -1 78 -4 99 -28 147 -34 70 -110 148 -174 178 -69 33 -206 38 -281 11z"/>
<path d="M5169 15906 c-2 -2 -69 -6 -149 -9 -287 -12 -393 -66 -613 -312 -117
-131 -141 -181 -135 -284 5 -85 26 -135 146 -352 35 -63 118 -215 184 -339
210 -395 247 -445 359 -484 101 -35 173 -75 196 -108 12 -18 86 -177 163 -353
78 -176 159 -358 180 -405 21 -47 135 -303 253 -570 118 -267 236 -530 262
-585 25 -55 74 -163 107 -240 33 -77 89 -206 124 -287 35 -80 64 -149 64 -151
0 -3 -24 -20 -52 -38 -242 -152 -487 -407 -590 -614 -121 -243 -143 -517 -59
-758 64 -183 157 -312 398 -555 106 -106 212 -220 237 -255 80 -113 116 -230
116 -376 -1 -82 -6 -128 -44 -381 -35 -232 -52 -498 -34 -516 21 -21 685 -199
983 -263 356 -77 864 -163 1205 -205 395 -49 1003 -96 1241 -96 l106 0 79 85
c169 183 286 401 353 659 94 358 19 759 -210 1129 -73 118 -133 191 -250 308
-138 138 -261 229 -515 381 -287 171 -386 259 -453 403 -44 92 -59 172 -76
391 -17 231 -33 327 -77 457 -60 179 -126 294 -232 405 -292 305 -777 379
-1330 202 -83 -27 -90 -28 -102 -12 -8 9 -14 21 -14 25 0 9 -176 376 -353 737
-101 206 -245 504 -552 1140 -78 162 -169 350 -203 416 -34 67 -70 150 -82
184 -23 69 -20 109 20 238 24 76 27 167 10 233 -7 24 -73 195 -147 379 -74
184 -157 394 -184 465 -65 169 -117 248 -184 279 -44 21 -136 41 -146 32z
m2465 -5456 c145 -37 261 -118 353 -247 65 -92 96 -185 101 -308 7 -168 -33
-292 -130 -408 -130 -155 -277 -229 -458 -230 -171 0 -300 54 -426 178 -66 65
-89 96 -123 165 -68 142 -80 282 -38 428 31 106 77 182 164 269 149 149 353
206 557 153z m1193 -1721 c89 -55 107 -185 37 -269 -39 -45 -82 -67 -689 -355
-49 -23 -153 -72 -229 -109 -153 -73 -196 -84 -249 -67 -140 47 -171 221 -56
313 19 15 129 71 244 126 116 55 314 150 440 212 286 140 332 161 370 170 42
10 94 2 132 -21z"/>
<path d="M14515 14680 c-76 -13 -145 -40 -317 -125 -143 -71 -163 -78 -231
-83 -50 -3 -91 1 -128 11 -77 23 -500 27 -544 6 -38 -18 -60 -58 -52 -91 9
-34 106 -99 264 -177 216 -107 245 -115 418 -115 170 -1 195 5 385 84 179 74
243 82 316 39 40 -24 59 -69 58 -139 -1 -60 -38 -162 -164 -455 -103 -241
-302 -709 -343 -805 -110 -265 -177 -423 -282 -670 -64 -151 -163 -385 -220
-520 -56 -135 -126 -299 -155 -365 -166 -381 -190 -467 -197 -710 -6 -202 10
-298 76 -459 121 -296 384 -530 679 -605 345 -88 655 -35 896 154 198 154 267
246 481 645 190 354 291 503 422 619 71 64 172 113 241 119 51 4 55 3 95 -36
54 -51 76 -62 127 -62 53 0 93 23 119 70 42 75 36 90 -214 530 -67 118 -153
271 -192 340 -38 69 -107 190 -153 270 -46 80 -103 181 -127 225 -70 131 -129
165 -216 127 -30 -13 -55 -34 -73 -61 -26 -39 -26 -44 -15 -98 26 -130 13
-165 -95 -259 -389 -338 -573 -633 -811 -1302 -30 -87 -66 -178 -79 -203 -46
-91 -120 -127 -191 -93 -89 44 -98 132 -36 329 67 210 209 680 248 815 19 69
37 131 40 138 3 10 14 5 35 -17 76 -75 188 -52 240 49 20 40 50 154 50 191 0
43 -20 96 -46 122 -29 29 -88 43 -126 28 -14 -5 -28 -8 -31 -5 -5 5 50 198 73
259 l11 29 23 -38 c42 -71 104 -84 173 -39 49 31 84 91 107 179 21 80 20 110
-3 161 -32 70 -112 94 -179 53 -31 -19 -33 -19 -28 -3 3 10 19 70 36 133 16
63 35 132 42 153 l12 39 22 -44 c33 -65 58 -83 113 -83 36 0 56 6 82 27 79 60
132 244 96 330 -30 71 -107 96 -180 59 l-37 -19 0 22 c0 12 11 55 24 96 47
145 115 396 127 473 17 109 7 284 -21 367 -53 159 -151 274 -285 335 -108 50
-256 73 -360 55z"/>
<path d="M13008 12915 c-34 -19 -68 -75 -68 -113 0 -67 -40 -122 -150 -206
-124 -95 -253 -156 -462 -220 -217 -66 -410 -94 -672 -99 -138 -2 -138 -2
-155 23 -33 51 -66 77 -109 84 -83 13 -156 -24 -169 -84 -5 -27 -9 -30 -47
-32 -22 0 -54 -2 -71 -3 -49 -2 -59 4 -76 45 -26 60 -69 78 -171 72 -39 -3
-86 -47 -94 -88 l-6 -34 -82 0 -81 1 -20 41 c-11 23 -32 49 -45 60 -29 21
-100 29 -147 16 -38 -10 -83 -61 -83 -93 0 -24 0 -24 -137 -27 -358 -9 -810
-8 -839 2 -16 6 -54 37 -82 70 -61 69 -98 82 -155 55 -60 -28 -68 -50 -74
-208 -10 -252 10 -327 93 -343 51 -9 75 0 134 56 30 28 66 56 80 62 25 11 316
16 326 6 3 -4 -8 -32 -24 -65 -74 -145 -95 -277 -68 -412 28 -139 91 -256 185
-346 119 -114 260 -173 441 -183 l115 -7 6 -67 c8 -94 53 -139 140 -140 87 -1
156 75 147 162 l-4 40 87 0 87 0 4 -65 c3 -55 8 -69 33 -95 59 -62 139 -63
206 -3 37 34 39 38 39 98 l0 62 53 7 c28 3 69 6 90 6 l37 0 0 -57 c0 -74 25
-117 83 -143 54 -25 71 -25 125 1 50 25 68 57 77 140 l6 55 107 12 c186 19
311 73 422 182 62 61 142 189 166 265 21 67 29 236 15 305 -6 30 -23 82 -36
115 -14 33 -21 63 -17 66 9 9 179 -42 307 -92 171 -66 381 -202 430 -277 13
-21 29 -64 35 -97 10 -47 20 -68 50 -97 33 -33 44 -38 83 -38 63 0 93 14 117
52 19 32 20 51 20 761 0 792 2 760 -56 806 -32 25 -105 28 -146 6z m-2708
-1320 l0 -365 -44 0 c-170 0 -331 93 -394 228 -23 49 -27 70 -26 147 0 78 3
97 27 143 74 142 188 210 355 211 l82 1 0 -365z m456 -2 l-1 -368 -85 0 -85 1
-1 367 -2 367 88 0 88 0 -2 -367z m464 -1 l0 -369 -77 2 c-43 2 -84 3 -90 4
-10 1 -13 81 -13 366 l0 365 90 0 90 0 0 -368z m405 357 c129 -24 233 -99 286
-207 20 -40 24 -62 24 -147 0 -118 -20 -171 -95 -246 -73 -74 -156 -105 -295
-112 l-40 -2 -3 350 c-1 192 0 356 3 362 5 16 43 16 120 2z"/>
<path d="M4763 12823 c-92 -72 -217 -169 -313 -242 -90 -69 -228 -175 -347
-267 -102 -79 -124 -134 -83 -213 23 -47 55 -67 180 -115 155 -60 143 -53 137
-89 -4 -18 -18 -79 -32 -137 -80 -328 -100 -503 -99 -865 0 -302 10 -416 55
-645 104 -531 336 -1038 670 -1466 173 -221 237 -273 322 -260 91 14 158 83
165 171 6 73 -9 109 -78 190 -455 536 -705 1141 -761 1835 -24 306 25 761 112
1037 l10 31 126 -60 c75 -35 144 -61 172 -64 64 -7 109 18 139 76 26 50 25 66
-9 250 -10 58 -41 257 -68 442 -28 185 -56 349 -64 365 -26 50 -53 66 -115 70
-55 4 -59 3 -119 -44z"/>
<path d="M10309 12677 c-57 -44 -60 -108 -7 -152 27 -23 37 -25 133 -25 57 0
115 5 129 11 23 11 56 62 56 89 0 24 -30 67 -55 78 -35 16 -235 15 -256 -1z"/>
<path d="M10753 12666 c-22 -19 -28 -32 -28 -66 0 -35 6 -47 33 -71 31 -28 37
-29 126 -29 110 0 146 10 169 49 25 43 21 78 -12 112 -29 29 -31 29 -145 29
-107 0 -117 -2 -143 -24z"/>
<path d="M11229 12675 c-32 -17 -52 -63 -43 -98 3 -15 20 -38 36 -52 27 -23
37 -25 131 -25 110 0 138 9 170 52 18 24 19 32 8 68 -17 58 -47 70 -173 70
-69 -1 -112 -5 -129 -15z"/>
<path d="M11915 10597 c-17 -8 -48 -35 -69 -61 -55 -67 -70 -80 -137 -116 -76
-40 -160 -69 -389 -131 -374 -102 -516 -157 -595 -230 -120 -111 -126 -261
-15 -383 86 -93 167 -122 615 -222 246 -54 416 -98 444 -114 11 -6 10 -10 -7
-19 -40 -21 -257 -79 -507 -135 -297 -66 -320 -73 -414 -121 -218 -109 -277
-325 -129 -475 81 -82 218 -133 553 -204 283 -61 447 -104 495 -131 l25 -13
-30 -12 c-58 -23 -274 -79 -481 -125 -251 -56 -347 -85 -436 -132 -143 -75
-208 -162 -208 -281 0 -115 72 -210 213 -278 l72 -36 165 6 c91 4 179 8 195
11 17 2 71 6 122 10 131 8 465 43 471 49 11 11 -20 19 -533 140 -250 59 -360
90 -360 102 0 5 13 15 29 23 29 14 380 101 566 141 376 81 539 193 540 372 0
112 -60 212 -166 274 -90 53 -337 122 -766 214 -53 11 -127 31 -164 44 l-69
23 55 20 c51 19 244 66 525 128 264 59 441 132 514 213 113 125 94 302 -45
413 -55 44 -94 62 -219 102 -111 35 -158 46 -470 112 -201 42 -323 74 -331 86
-9 14 63 39 296 99 124 33 251 66 282 74 84 23 326 122 379 157 168 108 239
300 144 389 -30 29 -115 37 -160 17z"/>
<path d="M13019 9801 c-36 -35 -39 -43 -39 -93 0 -138 173 -352 419 -518 35
-23 125 -76 200 -116 75 -41 126 -74 114 -74 -12 0 -115 14 -230 31 -264 38
-435 59 -497 59 -192 0 -311 -81 -308 -211 3 -142 136 -247 607 -474 284 -138
285 -138 170 -130 -49 3 -180 18 -290 32 -252 33 -463 36 -548 10 -64 -20
-128 -70 -147 -117 -7 -17 -11 -53 -8 -85 6 -69 42 -123 123 -183 68 -50 302
-168 460 -232 98 -40 108 -41 157 -32 88 16 332 74 347 82 18 9 -63 51 -358
186 -113 52 -210 99 -215 105 -8 7 4 9 39 4 384 -44 687 -68 776 -62 230 15
316 187 173 346 -65 73 -141 120 -393 243 -207 102 -397 206 -389 213 4 4 188
-19 308 -39 286 -46 537 -54 635 -19 44 15 99 63 121 105 22 42 17 107 -11
165 -43 86 -144 155 -373 254 -173 75 -247 116 -354 196 -112 83 -193 170
-251 271 -59 101 -84 122 -150 122 -44 0 -53 -4 -88 -39z"/>
<path d="M15530 8029 c-59 -6 -162 -38 -246 -75 -79 -35 -422 -166 -599 -229
-264 -94 -829 -259 -1125 -329 -58 -14 -152 -36 -210 -50 -179 -42 -484 -101
-710 -136 -41 -7 -109 -18 -150 -25 -41 -8 -145 -23 -230 -35 -85 -11 -186
-25 -225 -30 -38 -5 -133 -16 -210 -24 -579 -63 -939 -81 -1595 -81 -657 0
-1018 20 -1635 91 -811 93 -1512 230 -2195 429 -209 61 -488 149 -600 190 -41
15 -111 39 -155 55 -44 16 -184 69 -311 118 -127 50 -262 100 -299 111 -74 23
-198 28 -275 11 -115 -26 -232 -90 -309 -169 -92 -94 -80 -62 -614 -1651 -75
-223 -146 -439 -157 -480 -64 -236 29 -490 233 -634 146 -103 801 -432 1238
-621 85 -36 163 -70 174 -75 162 -72 667 -260 910 -339 381 -125 819 -248
1085 -306 58 -13 179 -39 270 -59 507 -110 1266 -218 1700 -241 63 -4 125 -8
137 -10 96 -15 892 -25 1258 -15 170 4 493 22 640 35 262 25 420 41 520 55
888 124 1434 241 2190 471 496 151 1106 389 1650 642 153 71 654 325 770 390
155 87 240 169 299 290 73 149 85 279 40 433 -48 169 -620 1869 -657 1956 -94
221 -354 365 -607 337z m-9460 -788 c230 -74 724 -207 1023 -275 26 -6 28 -10
22 -34 -13 -52 -107 -501 -166 -797 -68 -340 -76 -375 -88 -375 -12 0 -196 48
-451 116 -232 63 -696 201 -781 233 l-57 22 30 97 c16 53 53 180 83 282 30
102 82 277 116 390 33 113 69 234 79 270 28 98 38 120 52 116 7 -3 69 -22 138
-45z m8586 -252 c47 -156 121 -405 164 -554 43 -148 81 -277 85 -286 7 -19
-21 -32 -195 -89 -292 -94 -1084 -309 -1097 -297 -3 3 -47 212 -98 464 -123
605 -144 703 -150 714 -10 14 24 25 340 103 310 77 522 136 730 204 66 21 124
36 128 32 4 -4 46 -135 93 -291z m-6026 -269 c243 -29 555 -54 820 -66 80 -3
148 -9 151 -13 3 -3 3 -89 -2 -191 -4 -102 -10 -264 -13 -360 -4 -96 -9 -213
-11 -260 -3 -47 -8 -165 -11 -262 l-6 -178 83 -1 c46 -1 95 -3 109 -5 48 -6
847 -5 1007 1 133 6 164 5 167 -6 2 -8 7 -97 10 -199 3 -102 10 -300 16 -440
5 -140 10 -313 11 -385 l3 -130 -190 -6 c-201 -6 -1125 -2 -1159 5 -11 3 -38
5 -59 5 l-39 1 7 183 c3 100 9 247 12 327 2 80 9 257 14 394 6 137 9 250 7
252 -1 2 -81 8 -177 14 -250 15 -588 45 -835 76 -66 8 -137 16 -158 19 -21 2
-67 8 -103 11 -35 4 -67 11 -70 15 -3 5 7 102 21 216 14 115 28 228 31 253 9
86 18 161 40 335 8 66 19 158 25 205 5 47 11 96 14 110 2 14 7 45 10 69 l7 44
52 -7 c28 -3 125 -15 216 -26z m3490 26 c0 -2 11 -85 24 -183 46 -330 111
-854 122 -980 6 -64 5 -73 -10 -73 -9 0 -130 -13 -269 -30 -342 -40 -310 -37
-607 -59 -451 -33 -448 -33 -454 -13 -3 9 -8 112 -12 227 -3 116 -8 217 -9
225 -2 8 -6 116 -10 240 -4 124 -9 228 -11 231 -4 8 -7 310 -2 313 1 2 74 6
161 10 86 4 163 8 170 11 6 2 66 6 132 10 66 3 138 8 160 10 22 2 114 12 205
20 91 9 208 22 260 29 105 15 150 18 150 12z m-7638 -217 c79 -35 312 -128
533 -214 90 -35 285 -103 423 -148 l124 -40 -5 -31 c-2 -17 -27 -107 -55 -201
-27 -93 -96 -327 -152 -520 -56 -192 -105 -353 -109 -357 -11 -13 -568 180
-906 314 -260 103 -280 120 -280 247 0 71 10 105 148 521 81 245 149 451 152
458 7 19 28 15 127 -29z m11641 24 c3 -10 70 -211 150 -448 80 -236 150 -450
156 -475 19 -87 -19 -179 -92 -216 -121 -63 -932 -364 -1068 -397 -29 -7 -35
2 -58 83 -5 19 -41 143 -79 275 -155 534 -214 746 -211 749 2 1 94 33 204 70
267 91 682 249 890 340 93 40 101 42 108 19z m-8898 -871 c353 -72 468 -92
753 -136 117 -18 216 -36 219 -40 6 -6 -131 -1134 -139 -1141 -3 -3 -394 54
-508 74 -320 57 -888 177 -902 190 -3 3 11 89 32 191 21 102 72 349 114 550
42 200 76 369 76 373 0 11 -16 14 355 -61z m6399 -4 c143 -670 220 -1047 214
-1054 -13 -13 -702 -153 -953 -194 -231 -38 -450 -67 -457 -61 -4 3 -23 130
-43 281 -20 151 -38 291 -40 310 -26 188 -65 536 -61 546 2 6 33 15 68 19 35
3 88 10 118 16 30 5 141 23 245 39 105 17 226 38 270 46 131 26 476 96 535
109 90 21 86 23 104 -57z"/>
</g>
</svg>
