<?xml version="1.0" standalone="no"?>
<!DOCTYPE svg PUBLIC "-//W3C//DTD SVG 20010904//EN"
 "http://www.w3.org/TR/2001/REC-SVG-20010904/DTD/svg10.dtd">
<svg version="1.0" xmlns="http://www.w3.org/2000/svg"
 width="1024.000000pt" height="1024.000000pt" viewBox="0 0 1024.000000 1024.000000"
 preserveAspectRatio="xMidYMid meet">
<metadata>
Created by potrace 1.16, written by Peter Selinger 2001-2019
</metadata>
<g transform="translate(0.000000,1024.000000) scale(0.100000,-0.100000)"
fill="#18bcf2" stroke="none">
<path d="M6743 8031 c-37 -23 -63 -68 -63 -108 0 -31 10 -49 92 -155 151 -195
268 -439 338 -702 82 -311 80 -729 -6 -1044 -73 -269 -224 -553 -402 -756 -94
-109 -112 -135 -112 -168 0 -89 98 -146 178 -104 52 28 213 229 317 396 285
461 388 1042 284 1602 -47 255 -133 484 -271 720 -42 73 -204 294 -231 316
-29 24 -89 25 -124 3z"/>
<path d="M6283 7681 c-42 -26 -67 -75 -60 -117 4 -21 32 -67 72 -119 152 -194
254 -422 290 -651 20 -123 20 -353 0 -469 -48 -279 -162 -514 -349 -723 -54
-60 -61 -77 -56 -132 3 -37 17 -59 53 -80 72 -44 119 -22 220 102 180 223 281
424 340 673 41 171 50 271 44 455 -11 325 -99 592 -286 872 -101 151 -146 198
-196 204 -29 4 -49 0 -72 -15z"/>
<path d="M3642 7629 c-77 -38 -160 -127 -207 -222 -19 -39 -35 -75 -35 -82 0
-20 -51 -65 -75 -65 -28 0 -55 30 -55 61 0 51 75 181 155 268 l40 44 -44 -7
c-123 -19 -296 -139 -371 -256 -31 -48 -100 -211 -100 -235 0 -8 43 -19 113
-31 89 -15 117 -23 136 -42 43 -43 5 -122 -58 -122 -14 0 -66 7 -116 15 -139
23 -129 27 -160 -66 -15 -44 -25 -82 -24 -84 2 -2 49 -11 104 -20 55 -10 110
-21 124 -26 53 -21 66 -71 28 -115 -29 -34 -55 -35 -195 -10 -59 11 -107 15
-112 10 -12 -12 -61 -156 -55 -162 2 -2 75 -18 162 -34 134 -24 164 -27 198
-18 51 15 128 63 159 101 16 19 65 152 146 396 67 203 140 405 162 450 49 101
136 199 212 239 62 32 56 42 -25 43 -32 1 -64 -8 -107 -30z"/>
<path d="M3952 7575 c-89 -45 -185 -144 -234 -242 -19 -38 -90 -235 -158 -439
l-123 -369 11 -54 c13 -60 49 -122 86 -146 13 -9 113 -40 222 -70 222 -60 298
-88 527 -198 l158 -76 14 32 c21 52 49 146 44 151 -13 12 -364 171 -444 201
-52 19 -157 51 -232 71 -82 21 -143 42 -150 51 -23 29 -16 79 13 102 36 29 70
27 216 -13 170 -47 282 -90 482 -186 93 -44 171 -79 173 -76 11 11 61 172 55
177 -16 15 -402 189 -462 208 -36 12 -126 38 -200 57 -148 39 -174 55 -172
106 1 35 39 78 68 78 26 0 248 -58 346 -91 51 -17 176 -71 277 -120 101 -49
189 -89 195 -89 7 0 34 66 60 148 42 126 49 162 53 252 8 167 -21 274 -94 345
-43 42 -180 111 -250 125 -59 13 -151 0 -219 -29 -69 -31 -167 -132 -213 -221
-23 -44 -52 -86 -64 -95 -55 -38 -116 1 -103 66 8 43 59 130 116 198 53 64
122 113 196 138 l49 17 -40 12 c-73 23 -126 17 -203 -21z"/>
<path d="M5893 7365 c-41 -17 -73 -69 -73 -116 0 -30 11 -50 65 -114 209 -252
259 -622 126 -935 -36 -85 -88 -167 -153 -242 -59 -68 -72 -105 -55 -155 15
-45 52 -73 105 -80 38 -5 44 -2 91 42 149 139 264 365 306 598 25 141 17 366
-18 493 -37 130 -72 213 -133 311 -72 113 -131 183 -171 199 -40 17 -49 17
-90 -1z"/>
<path d="M4893 7223 c29 -57 40 -134 34 -237 -7 -129 -8 -130 -187 -651 -122
-354 -148 -441 -138 -451 17 -16 282 -154 296 -154 14 0 67 159 56 170 -5 5
-47 30 -94 55 -96 52 -120 75 -120 115 0 38 35 80 67 80 14 0 63 -22 110 -50
47 -27 88 -50 92 -50 8 0 65 169 59 175 -2 2 -42 25 -88 50 -99 54 -130 84
-130 126 0 33 38 79 66 79 9 0 56 -22 105 -50 49 -27 93 -50 98 -50 13 0 38
85 52 175 35 217 -48 457 -219 638 -60 62 -80 73 -59 30z"/>
<path d="M5502 7062 c-33 -31 -49 -85 -36 -124 4 -12 27 -48 52 -78 48 -59 67
-96 88 -175 37 -138 -5 -317 -100 -423 -43 -48 -56 -74 -56 -112 0 -69 53
-120 125 -120 83 0 218 189 262 368 23 92 22 267 -1 352 -25 91 -99 231 -155
290 -45 47 -50 50 -98 50 -42 0 -56 -5 -81 -28z"/>
<path d="M3236 6359 c-101 -27 -123 -169 -34 -212 31 -15 44 -17 71 -8 85 28
119 137 61 194 -28 29 -58 36 -98 26z"/>
<path d="M2629 6183 c-13 -43 -24 -82 -24 -87 0 -5 54 -20 119 -33 69 -13 127
-30 138 -39 27 -25 24 -79 -7 -109 -29 -30 -37 -30 -156 -6 -164 34 -148 39
-180 -58 -16 -47 -27 -86 -26 -88 2 -1 59 -14 128 -27 131 -27 159 -42 159
-91 0 -26 -33 -71 -58 -79 -10 -3 -71 5 -137 19 -66 14 -125 25 -132 25 -23 0
-64 -158 -70 -265 -10 -182 40 -311 171 -440 45 -44 96 -88 113 -98 l32 -18
-38 83 c-54 117 -65 170 -59 303 4 83 10 118 23 138 21 32 55 43 84 28 29 -16
36 -52 22 -118 -33 -167 6 -328 114 -466 34 -43 55 -59 97 -75 105 -39 104
-40 41 36 -105 125 -143 222 -143 363 0 99 30 216 151 584 102 311 107 346 70
432 -40 90 -76 111 -252 143 -163 29 -151 33 -180 -57z"/>
<path d="M3427 6075 c-42 -16 -119 -69 -155 -107 -22 -24 -135 -359 -224 -663
-35 -122 -41 -153 -41 -240 0 -156 41 -259 154 -380 65 -68 134 -109 206 -120
l42 -7 -88 89 c-128 128 -172 231 -170 401 0 96 15 143 51 160 23 11 32 10 57
-2 16 -9 31 -21 34 -28 3 -7 3 -61 -1 -120 -6 -131 12 -210 67 -296 73 -111
211 -212 292 -212 56 0 159 36 211 75 66 48 142 144 187 233 45 91 211 542
211 574 0 8 -60 38 -295 145 -116 53 -263 102 -413 138 -88 21 -122 45 -122
86 0 41 39 79 82 79 44 0 280 -63 382 -102 44 -17 150 -64 235 -104 85 -41
155 -74 156 -74 2 0 6 20 9 45 4 24 18 65 32 90 l24 46 -108 50 c-257 121
-389 168 -669 238 -94 24 -95 24 -146 6z m143 -561 c190 -52 477 -169 507
-206 25 -29 26 -72 3 -101 -26 -33 -64 -35 -118 -8 -107 54 -275 118 -427 162
-180 51 -205 66 -205 118 0 40 53 84 90 76 8 -2 76 -20 150 -41z"/>
<path d="M4459 5767 c-69 -46 -84 -86 -114 -297 -62 -441 -120 -804 -136 -854
-58 -170 -232 -320 -373 -318 -51 0 -522 94 -666 133 -86 23 -155 68 -200 131
-26 35 -44 47 -113 73 -118 45 -219 100 -274 149 -28 23 -28 18 -7 -77 52
-237 228 -436 442 -500 l74 -22 -6 -33 c-3 -19 -13 -106 -22 -194 -15 -132
-16 -167 -5 -206 18 -70 72 -120 147 -136 l31 -7 5 151 c6 178 11 190 89 190
26 0 60 -5 74 -12 22 -10 25 -15 19 -46 -4 -19 -7 -72 -7 -116 -1 -107 22
-153 96 -196 94 -53 183 -49 254 13 51 45 70 96 103 273 16 84 32 158 35 164
3 5 21 10 38 10 98 0 254 72 351 161 82 75 131 141 180 237 58 116 73 180 182
822 61 354 64 414 26 467 -45 64 -157 84 -223 40z"/>
<path d="M4775 5518 c-14 -40 -31 -179 -23 -184 5 -4 13 -2 18 2 10 12 50 134
50 156 0 22 -38 45 -45 26z"/>
<path d="M4705 5150 c-4 -12 -5 -24 -2 -27 3 -2 8 5 12 17 4 12 5 24 2 27 -3
2 -8 -5 -12 -17z"/>
<path d="M5362 5096 c-13 -7 -32 -26 -43 -42 -18 -28 -19 -56 -19 -936 l0
-908 -49 30 c-216 133 -502 94 -686 -93 -118 -121 -172 -259 -162 -422 13
-245 188 -453 429 -510 82 -19 208 -19 282 0 196 51 362 213 410 401 14 54 16
176 16 995 0 551 4 929 9 923 9 -9 165 -284 451 -794 326 -580 393 -696 412
-717 47 -51 129 -51 176 0 12 13 56 117 98 233 43 115 109 297 148 404 l72
195 265 3 266 2 18 -40 c10 -22 41 -62 69 -88 164 -155 430 -111 541 90 28 49
30 60 30 158 0 91 -3 111 -23 149 -38 71 -106 135 -175 167 -86 39 -196 40
-278 2 -73 -33 -134 -89 -165 -150 l-24 -48 -323 0 c-369 0 -371 -1 -400 -82
-9 -23 -59 -160 -110 -303 -52 -143 -101 -275 -108 -293 l-14 -33 -114 203
c-355 628 -398 705 -714 1268 -38 69 -80 144 -93 167 -35 61 -68 83 -123 83
-25 -1 -56 -6 -69 -14z"/>
<path d="M4075 4616 c-84 -87 -170 -140 -247 -152 -21 -4 -38 -10 -38 -14 0
-8 114 -30 157 -30 60 0 153 108 192 223 11 31 19 57 18 56 -1 0 -38 -38 -82
-83z"/>
<path d="M3222 2887 l3 -563 28 -43 c39 -58 91 -80 187 -81 91 0 132 18 175
79 l30 43 0 561 0 562 -213 3 -213 2 3 -563z"/>
</g>
</svg>
