<?xml version="1.0" standalone="no"?>
<!DOCTYPE svg PUBLIC "-//W3C//DTD SVG 20010904//EN"
 "http://www.w3.org/TR/2001/REC-SVG-20010904/DTD/svg10.dtd">
<svg version="1.0" xmlns="http://www.w3.org/2000/svg"
 width="2048.000000pt" height="2048.000000pt" viewBox="0 0 2048.000000 2048.000000"
 preserveAspectRatio="xMidYMid meet">
<metadata>
Created by potrace 1.16, written by Peter Selinger 2001-2019
</metadata>
<g transform="translate(0.000000,2048.000000) scale(0.100000,-0.100000)"
fill="#18bcf2" stroke="none">
<path d="M13113 16980 c-61 -25 -147 -98 -172 -149 -10 -20 -51 -139 -91 -266
-39 -126 -98 -312 -130 -412 -72 -221 -84 -284 -70 -347 37 -164 158 -268 314
-270 103 -1 167 24 236 93 61 60 81 101 136 286 14 50 59 194 99 320 40 127
83 266 95 310 53 188 -5 345 -155 423 -70 36 -188 41 -262 12z"/>
<path d="M11090 15831 c-37 -12 -109 -59 -138 -90 -33 -35 -80 -134 -88 -187
-4 -28 4 -94 26 -205 90 -467 97 -492 162 -558 139 -141 357 -129 496 28 46
54 75 150 66 226 -14 116 -108 556 -129 602 -29 65 -95 131 -160 162 -54 26
-186 38 -235 22z"/>
<path d="M8225 15354 c-141 -19 -311 -71 -439 -136 -190 -94 -269 -158 -591
-482 -269 -269 -396 -392 -655 -636 -520 -488 -1018 -1018 -1286 -1369 l-107
-141 -423 0 c-441 0 -511 -5 -671 -45 -431 -110 -787 -467 -918 -922 -59 -207
-59 -195 -60 -1313 -1 -564 2 -1077 6 -1140 17 -254 99 -500 238 -713 65 -98
192 -231 301 -313 160 -121 395 -220 580 -244 41 -5 267 -10 501 -10 324 0
429 -3 441 -12 9 -7 51 -58 94 -113 70 -91 184 -230 231 -280 10 -11 45 -51
77 -90 89 -106 315 -344 572 -600 217 -217 290 -288 724 -709 96 -94 276 -269
400 -390 283 -277 300 -293 400 -361 162 -110 320 -171 521 -201 407 -60 765
112 1001 482 153 240 302 731 378 1249 41 281 91 667 105 805 8 91 17 180 20
198 6 51 -14 141 -43 195 -35 66 -111 132 -175 153 -125 42 -267 6 -352 -88
-62 -69 -81 -130 -100 -310 -9 -84 -27 -232 -40 -328 -14 -96 -28 -195 -31
-220 -10 -80 -74 -442 -95 -540 -29 -132 -104 -407 -140 -515 -45 -134 -132
-295 -198 -365 -50 -53 -61 -60 -94 -60 -152 0 -336 484 -467 1230 -86 494
-161 1125 -185 1565 -4 61 -8 124 -10 140 -2 17 -7 93 -10 170 -4 77 -9 154
-10 170 -26 223 -25 1881 0 2290 3 44 14 235 26 425 27 461 60 817 115 1230
109 819 299 1497 460 1639 53 47 82 51 133 20 39 -24 45 -30 87 -84 161 -209
318 -814 443 -1707 23 -160 42 -210 108 -276 56 -56 102 -80 178 -92 189 -31
359 99 380 291 9 72 -99 832 -156 1099 -53 251 -135 541 -195 694 -174 436
-410 671 -748 745 -78 17 -245 25 -321 15z"/>
<path d="M14854 15160 c-67 -27 -130 -83 -174 -156 -34 -56 -35 -62 -35 -154
1 -153 24 -189 240 -375 329 -283 629 -629 909 -1050 193 -290 274 -438 453
-830 112 -244 253 -665 322 -957 136 -576 187 -1092 162 -1636 -6 -147 -14
-280 -16 -297 -2 -16 -9 -79 -15 -140 -21 -204 -72 -485 -141 -775 -21 -89
-130 -445 -181 -590 -92 -261 -284 -668 -430 -910 -106 -175 -264 -415 -353
-535 -188 -254 -489 -579 -715 -774 -168 -144 -175 -151 -206 -214 -31 -61
-41 -148 -25 -213 41 -163 142 -252 296 -262 128 -8 187 20 355 168 125 110
407 390 499 494 284 324 347 405 558 721 102 154 314 524 389 680 235 493 379
911 504 1467 68 305 96 477 119 718 100 1042 -9 1946 -354 2930 -152 435 -394
921 -660 1325 -71 108 -287 401 -369 500 -276 336 -743 788 -884 857 -66 31
-180 35 -248 8z"/>
<path d="M12490 14916 c-94 -25 -164 -88 -208 -185 -91 -204 -122 -387 -83
-492 29 -77 77 -129 157 -169 60 -31 76 -35 144 -34 59 0 88 6 132 26 117 54
176 151 244 403 34 127 30 198 -15 290 -66 133 -223 201 -371 161z"/>
<path d="M13747 14050 c-96 -24 -175 -88 -218 -175 -27 -56 -31 -74 -31 -143
1 -139 41 -212 169 -308 322 -242 638 -596 888 -995 352 -561 563 -1205 620
-1888 38 -467 -21 -1012 -160 -1469 -106 -349 -218 -608 -395 -912 -154 -264
-307 -474 -529 -725 -80 -89 -265 -268 -361 -349 -142 -119 -169 -146 -198
-201 -23 -43 -27 -62 -27 -135 0 -76 3 -92 33 -152 59 -120 166 -188 297 -188
115 0 174 33 394 224 121 104 348 329 406 402 22 27 57 69 80 94 105 119 183
222 305 404 134 202 219 347 323 556 104 208 115 233 197 450 188 499 290
1005 309 1535 30 872 -191 1777 -618 2525 -251 439 -582 851 -941 1170 -98 88
-174 153 -207 180 -33 28 -107 76 -136 88 -38 16 -154 23 -200 12z"/>
<path d="M12599 12907 c-85 -32 -157 -96 -201 -179 -18 -36 -22 -59 -23 -138
0 -84 3 -101 28 -152 31 -63 88 -118 207 -200 476 -328 843 -879 974 -1464 81
-360 81 -707 1 -1064 -49 -219 -106 -376 -211 -585 -126 -250 -290 -471 -496
-670 -124 -120 -181 -166 -308 -252 -142 -95 -200 -188 -200 -318 0 -92 31
-167 94 -230 76 -76 132 -99 236 -100 78 0 92 3 152 33 146 74 537 410 678
582 25 30 48 57 51 60 13 11 216 288 245 335 269 436 431 918 479 1420 18 181
5 537 -26 720 -128 766 -497 1423 -1079 1919 -138 118 -300 237 -359 264 -67
31 -186 40 -242 19z"/>
<path d="M9436 12039 c-61 -15 -156 -64 -218 -114 -183 -144 -299 -384 -413
-850 -89 -366 -125 -474 -190 -572 -52 -78 -96 -103 -202 -115 -48 -5 -107
-18 -130 -28 -64 -28 -127 -92 -159 -163 -25 -53 -29 -74 -29 -147 0 -72 5
-94 28 -142 76 -155 244 -212 482 -163 277 57 495 235 637 520 80 160 100 221
199 623 49 200 96 380 105 400 19 47 23 42 75 -118 60 -183 146 -568 249
-1110 57 -302 138 -686 171 -810 104 -391 276 -686 462 -794 111 -65 269 -89
396 -62 109 23 188 64 268 139 164 156 236 315 357 794 67 269 90 337 132 411
52 88 108 135 199 165 16 5 145 12 285 16 246 6 257 7 310 32 74 34 125 81
158 143 24 45 27 62 27 151 0 86 -3 107 -24 147 -39 76 -77 115 -149 150 l-66
33 -206 3 c-309 5 -464 -16 -647 -89 -246 -97 -429 -301 -553 -615 -27 -67
-80 -262 -125 -459 -20 -88 -74 -267 -84 -278 -26 -27 -147 440 -241 933 -134
698 -239 1157 -307 1340 -76 205 -202 416 -298 498 -49 42 -136 93 -193 114
-65 23 -242 33 -306 17z"/>
<path d="M12529 6126 c-171 -46 -274 -201 -248 -371 10 -64 79 -276 110 -336
26 -52 102 -115 168 -139 62 -24 146 -28 212 -10 128 35 225 160 234 303 3 44
-6 83 -50 215 -29 88 -62 177 -74 196 -38 61 -108 114 -179 136 -73 23 -107
24 -173 6z"/>
<path d="M11195 5768 c-57 -21 -133 -77 -162 -120 -42 -61 -48 -83 -87 -273
-19 -93 -44 -213 -56 -265 -27 -121 -24 -194 14 -278 54 -117 164 -186 296
-187 66 0 85 5 143 33 87 43 137 103 171 203 28 83 108 513 107 575 -1 148
-88 271 -218 310 -54 16 -165 17 -208 2z"/>
<path d="M13002 4625 c-105 -24 -215 -127 -244 -228 -22 -79 -13 -145 47 -344
120 -401 140 -445 221 -508 174 -132 443 -50 513 158 26 76 26 113 0 213 -23
91 -121 413 -151 495 -55 156 -226 250 -386 214z"/>
</g>
</svg>
