<?xml version="1.0" standalone="no"?>
<!DOCTYPE svg PUBLIC "-//W3C//DTD SVG 20010904//EN"
 "http://www.w3.org/TR/2001/REC-SVG-20010904/DTD/svg10.dtd">
<svg version="1.0" xmlns="http://www.w3.org/2000/svg"
 width="2048.000000pt" height="2048.000000pt" viewBox="0 0 2048.000000 2048.000000"
 preserveAspectRatio="xMidYMid meet">
<metadata>
Created by potrace 1.16, written by Peter Selinger 2001-2019
</metadata>
<g transform="translate(0.000000,2048.000000) scale(0.100000,-0.100000)"
fill="#18bcf2" stroke="none">
<path d="M12890 17137 c-56 -27 -93 -62 -116 -111 l-24 -51 0 -490 c0 -328 4
-503 11 -530 16 -56 91 -129 148 -145 91 -24 198 15 249 92 l27 42 0 525 0
526 -25 45 c-14 24 -44 58 -68 74 -36 25 -54 31 -110 33 -38 1 -78 -3 -92 -10z"/>
<path d="M11361 16718 c-24 -11 -56 -39 -72 -60 -32 -45 -54 -134 -44 -181 8
-33 85 -180 185 -347 31 -52 107 -185 170 -295 136 -239 157 -267 220 -294
152 -65 310 34 310 194 0 71 -10 94 -124 283 -78 131 -212 361 -338 582 -34
59 -65 93 -108 119 -48 29 -139 29 -199 -1z"/>
<path d="M14395 16726 c-65 -28 -87 -60 -260 -361 -29 -49 -103 -178 -165
-285 -62 -107 -123 -216 -136 -241 -46 -91 -24 -204 51 -266 75 -62 194 -69
269 -16 40 29 60 61 261 410 50 86 112 193 138 237 27 45 69 120 93 168 38 74
44 95 44 147 0 94 -50 175 -126 207 -42 17 -129 17 -169 0z"/>
<path d="M10249 15607 c-24 -13 -57 -43 -74 -66 -28 -39 -30 -50 -30 -126 0
-78 2 -86 30 -122 33 -41 124 -103 287 -197 57 -33 213 -125 348 -205 l245
-146 87 0 c81 0 88 2 123 30 54 43 86 111 86 179 0 62 -25 129 -62 163 -13 12
-109 71 -214 131 -104 60 -275 160 -380 222 -104 62 -214 124 -243 136 -70 32
-144 32 -203 1z"/>
<path d="M15503 15616 c-17 -8 -141 -79 -275 -157 -134 -78 -299 -175 -368
-215 -237 -137 -270 -172 -270 -288 0 -67 23 -119 74 -163 45 -41 96 -56 165
-51 50 4 75 15 231 107 96 57 240 142 320 188 266 156 301 178 342 212 117 99
98 289 -34 357 -44 23 -145 28 -185 10z"/>
<path d="M12717 15484 c-324 -50 -621 -200 -858 -434 -285 -280 -442 -608
-480 -1004 -26 -275 17 -516 143 -794 35 -77 57 -137 52 -142 -5 -5 -65 -39
-134 -75 -356 -191 -409 -231 -429 -323 -30 -142 67 -265 209 -265 63 0 91 11
300 126 122 67 299 164 570 312 52 28 149 81 215 117 66 36 195 106 287 157
202 111 237 124 302 116 56 -7 101 -28 257 -123 162 -97 206 -114 315 -120
173 -9 229 17 658 302 541 359 591 392 681 447 50 30 106 62 125 69 38 16 148
20 192 7 27 -7 383 -259 855 -604 209 -153 632 -462 717 -525 50 -37 107 -79
127 -93 77 -55 179 -56 260 -3 77 51 111 184 70 274 -24 52 -52 77 -221 200
-74 54 -216 157 -315 229 -99 72 -205 149 -235 170 -30 22 -59 43 -65 48 -13
11 -512 372 -729 528 -249 179 -353 221 -551 222 -155 0 -263 -31 -418 -121
-32 -19 -61 -32 -63 -29 -3 3 -12 38 -20 79 -52 253 -177 502 -362 722 -225
265 -578 467 -925 527 -131 23 -394 25 -530 3z m348 -424 c148 -16 294 -59
428 -126 367 -184 627 -594 627 -990 l0 -81 -112 -72 c-62 -40 -185 -119 -273
-177 -88 -58 -178 -116 -201 -130 l-41 -24 -134 80 c-232 140 -301 167 -449
176 -179 11 -248 -15 -699 -260 -128 -70 -234 -126 -236 -124 -14 14 -78 159
-98 223 -39 119 -45 150 -57 266 -25 250 66 562 224 773 67 88 210 227 290
280 159 106 401 181 621 194 11 1 61 -3 110 -8z"/>
<path d="M5790 14600 c-200 -13 -515 -55 -725 -96 -497 -97 -1094 -308 -1610
-569 -89 -45 -102 -55 -122 -95 l-23 -45 -2 -1870 c-3 -2093 -10 -1903 69
-1958 30 -21 51 -27 90 -27 44 0 79 14 274 109 673 329 1269 505 1944 576 681
71 1344 25 1975 -136 487 -125 1018 -308 1480 -512 69 -30 181 -80 250 -110
69 -30 178 -80 244 -111 65 -31 124 -56 132 -56 7 0 24 26 39 58 14 31 47 90
72 130 25 40 44 74 42 76 -7 6 -346 160 -454 206 -60 26 -172 75 -247 109
-363 161 -961 376 -1298 466 -138 37 -488 115 -620 139 -80 14 -408 58 -530
70 -133 14 -673 18 -840 7 -453 -31 -982 -128 -1375 -252 -281 -89 -449 -153
-762 -289 -87 -37 -160 -67 -162 -65 -2 2 -4 99 -5 216 l-2 212 45 19 c25 11
69 30 96 43 28 12 103 46 168 75 114 51 117 53 117 85 0 41 -55 152 -80 160
-23 7 -148 -34 -257 -85 l-83 -39 -2 180 c-1 98 -2 205 -3 236 l0 57 200 89
c208 92 378 160 575 229 63 22 121 46 129 53 16 16 16 182 -1 202 -6 7 -26 13
-44 13 -52 0 -413 -135 -716 -268 -117 -52 -138 -58 -142 -44 -3 9 -5 113 -5
230 l1 213 60 30 c190 96 594 268 763 324 44 15 83 32 87 39 4 6 8 50 8 98 0
83 -1 88 -26 104 -24 16 -29 16 -122 -15 -221 -73 -453 -165 -668 -266 -52
-24 -95 -43 -95 -42 -1 1 -2 109 -3 239 l-2 237 120 57 c522 247 1047 416
1576 508 486 84 1028 95 1445 31 186 -29 182 -29 199 -3 18 28 26 111 14 155
-5 18 -19 39 -31 47 -22 14 -149 34 -362 58 -169 19 -694 16 -901 -5 -652 -66
-1276 -238 -1942 -535 l-111 -49 -3 211 c-2 116 -2 216 0 222 3 11 185 95 342
159 36 14 79 32 95 40 227 102 671 240 995 311 601 130 1280 152 1820 59 46
-8 88 -11 92 -7 4 4 10 52 14 108 7 110 -4 167 -36 184 -25 13 -240 47 -385
60 -163 15 -610 20 -775 10z"/>
<path d="M7240 14542 c-19 -9 -43 -33 -55 -52 -20 -34 -20 -50 -22 -920 l-3
-885 -95 -2 c-167 -3 -264 -38 -368 -133 -76 -70 -110 -141 -110 -235 -1 -118
56 -196 191 -262 75 -37 78 -38 191 -38 100 0 126 4 190 27 124 45 218 124
268 225 l28 58 -3 823 c-2 452 -1 822 3 822 4 0 47 -21 96 -46 97 -50 154
-104 201 -191 46 -84 59 -153 58 -315 0 -158 3 -166 50 -143 95 49 160 214
160 405 0 119 -18 206 -56 283 -37 73 -115 175 -167 219 -90 76 -203 182 -242
227 -68 79 -117 123 -151 137 -46 19 -122 17 -164 -4z"/>
<path d="M10185 14130 c-274 -5 -292 -6 -331 -27 -167 -90 -161 -315 11 -394
37 -17 77 -19 543 -19 431 0 508 2 540 15 51 22 81 52 108 110 50 105 19 218
-79 287 -31 22 -42 23 -267 28 -129 3 -365 3 -525 0z"/>
<path d="M8253 13630 c-39 -16 -63 -68 -63 -133 0 -98 7 -104 245 -222 201
-100 410 -220 615 -353 52 -33 142 -91 200 -128 58 -37 194 -128 303 -203 916
-629 1194 -802 1697 -1058 461 -234 841 -373 1287 -473 164 -37 192 -37 323
-1 209 57 580 169 570 171 -3 1 -25 3 -50 6 -413 41 -664 88 -1023 190 -660
188 -1353 542 -2187 1117 -69 47 -195 134 -280 192 -85 58 -186 128 -225 154
-264 183 -606 398 -830 524 -322 180 -508 249 -582 217z"/>
<path d="M5965 13403 c-188 -43 -786 -204 -1020 -275 -149 -45 -181 -62 -205
-112 -20 -41 -20 -58 -20 -704 l0 -662 -98 0 c-162 0 -266 -38 -361 -132 -143
-141 -148 -318 -13 -439 68 -61 144 -90 257 -96 201 -12 390 87 472 247 l28
55 3 662 c2 616 4 663 20 672 9 5 69 23 132 39 144 38 280 75 539 146 113 31
206 56 207 56 2 0 3 -183 4 -407 l1 -408 -103 -1 c-121 -1 -204 -24 -295 -83
-115 -74 -174 -166 -174 -270 -1 -121 42 -195 150 -262 96 -59 291 -74 410
-31 113 41 222 128 269 217 l27 50 3 820 c3 918 6 870 -68 907 -33 17 -116 22
-165 11z"/>
<path d="M6404 13099 c-25 -31 -27 -161 -4 -200 9 -13 49 -17 387 -35 l132 -7
30 31 c28 28 31 36 31 95 0 41 -5 69 -13 75 -19 16 -230 42 -402 49 -122 5
-152 3 -161 -8z"/>
<path d="M7691 12921 c-51 -13 -78 -119 -46 -181 16 -30 17 -31 215 -90 96
-29 456 -162 608 -225 35 -14 66 -23 71 -21 4 3 7 55 7 117 l-1 112 -80 34
c-106 46 -362 141 -500 186 -163 54 -247 74 -274 68z"/>
<path d="M8813 12713 c-33 -6 -79 -57 -87 -94 -3 -17 -6 -296 -6 -619 l0 -588
-57 5 c-76 7 -189 -11 -265 -42 -207 -84 -304 -278 -224 -447 44 -94 131 -150
270 -175 229 -40 472 77 548 265 l23 57 1 528 c1 290 3 530 6 533 11 10 141
-70 197 -122 31 -29 69 -74 83 -101 57 -103 82 -263 64 -399 -7 -53 -5 -62 9
-68 25 -9 74 23 112 72 66 87 99 225 90 382 -10 185 -80 317 -247 470 -58 52
-157 148 -221 213 -93 95 -124 120 -155 128 -40 9 -101 10 -141 2z"/>
<path d="M7568 12173 c-28 -30 -48 -89 -48 -137 0 -44 0 -44 48 -60 26 -8 85
-24 132 -36 120 -30 299 -89 564 -186 125 -46 234 -84 242 -84 28 0 44 43 44
122 0 63 -4 82 -19 97 -52 52 -742 284 -886 298 -51 4 -63 2 -77 -14z"/>
<path d="M9753 11994 c-8 -22 5 -202 17 -224 5 -10 58 -48 117 -85 60 -36 149
-91 198 -122 318 -198 820 -469 1046 -566 57 -25 136 -59 174 -77 157 -72 450
-173 484 -168 22 4 319 89 360 104 8 2 -98 42 -235 88 -371 124 -663 245 -999
414 -129 64 -508 278 -639 361 -50 31 -116 72 -146 89 -30 18 -86 53 -125 78
-108 68 -211 124 -229 124 -9 0 -19 -7 -23 -16z"/>
<path d="M6373 11628 c-24 -26 -58 -97 -67 -144 -11 -50 12 -61 144 -68 468
-26 832 -80 1251 -187 264 -67 237 -63 275 -34 43 33 64 73 64 124 0 35 -4 43
-30 56 -97 50 -607 168 -945 219 -142 21 -277 33 -570 52 -96 6 -101 5 -122
-18z"/>
<path d="M15940 11520 c-92 -20 -361 -95 -750 -210 -135 -39 -283 -82 -330
-96 -112 -31 -135 -38 -705 -203 -269 -78 -596 -173 -725 -210 -129 -38 -320
-94 -425 -124 -104 -31 -341 -99 -525 -152 -184 -53 -506 -146 -715 -207 -209
-60 -477 -137 -595 -170 -587 -162 -637 -182 -789 -311 -197 -168 -302 -468
-257 -737 13 -84 152 -603 175 -655 5 -12 79 -62 167 -114 88 -52 179 -109
203 -128 24 -18 47 -33 51 -33 5 0 6 18 3 40 l-6 40 593 0 592 0 -54 -62
c-100 -115 -304 -359 -362 -433 -22 -28 -55 -67 -75 -88 l-35 -37 106 -108
c96 -97 168 -180 327 -375 l55 -67 2433 0 2433 0 0 -1442 c0 -1216 -3 -1454
-15 -1511 -33 -158 -147 -284 -304 -337 -60 -20 -77 -20 -1680 -20 -1157 0
-1635 -3 -1672 -11 -75 -16 -142 -84 -159 -161 -23 -100 29 -206 123 -255 29
-15 164 -16 1679 -16 1254 1 1664 4 1720 13 112 19 247 75 348 143 61 42 173
150 227 220 74 96 144 267 168 412 4 22 6 1023 5 2223 l-1 2184 -20 44 c-22
46 -75 99 -115 114 -14 6 -1054 10 -2526 10 -1377 1 -2496 5 -2488 10 16 9
223 69 450 132 80 22 213 60 295 84 169 50 706 206 1200 348 612 176 849 244
1060 306 218 63 913 263 1285 370 531 152 644 192 694 249 42 47 49 162 17
266 -5 17 -43 147 -84 290 -41 143 -90 292 -108 330 -159 344 -520 525 -889
445z m287 -440 c147 -51 204 -143 292 -465 44 -160 46 -146 -27 -168 -34 -10
-74 -16 -87 -13 -20 5 -553 357 -748 494 -67 47 -67 48 49 81 38 11 108 31
155 45 179 53 271 60 366 26z m-1516 -447 c384 -260 499 -338 603 -407 95 -64
115 -81 100 -87 -11 -4 -118 -35 -239 -69 -121 -35 -284 -82 -362 -106 -78
-24 -151 -44 -161 -44 -19 0 -88 44 -367 238 -88 61 -221 152 -295 203 -74 50
-136 95 -138 99 -1 4 89 33 200 65 112 33 284 82 383 111 99 29 183 53 186 53
4 1 44 -24 90 -56z m-1770 -506 c41 -29 217 -151 392 -272 209 -143 314 -221
305 -225 -7 -4 -123 -40 -258 -79 -135 -39 -297 -87 -360 -106 -63 -19 -122
-35 -130 -35 -16 0 -189 113 -530 345 -102 69 -206 140 -232 158 -26 17 -44
35 -40 38 4 4 45 18 92 32 173 50 537 157 595 176 33 10 67 20 76 20 9 1 49
-23 90 -52z m-1735 -530 c168 -112 333 -226 401 -276 34 -25 114 -79 178 -120
l117 -74 -89 -28 c-286 -90 -1141 -335 -1147 -328 -10 10 -104 365 -110 414
-13 112 29 238 106 314 50 49 115 82 219 111 41 11 103 29 139 39 36 11 68 20
71 20 3 1 55 -32 115 -72z m2507 -1371 c-10 -13 -95 -115 -190 -227 -290 -345
-347 -413 -373 -447 l-26 -32 -408 2 -408 3 109 130 c59 72 159 193 222 270
63 77 130 158 150 181 20 22 57 65 82 95 l46 54 407 -3 407 -2 -18 -24z m1845
15 c-1 -5 -33 -45 -70 -88 -36 -43 -106 -126 -155 -184 -48 -59 -153 -183
-231 -278 l-144 -171 -405 0 c-297 0 -402 3 -397 11 8 13 390 475 443 535 20
23 62 74 95 113 l59 71 404 0 c242 0 403 -4 401 -9z m1172 -356 l0 -365 -370
0 c-203 0 -370 3 -370 6 0 4 53 70 118 148 65 77 158 190 207 250 50 59 107
127 127 150 21 22 61 71 90 108 l53 67 73 1 72 0 0 -365z"/>
<path d="M9593 11375 c-44 -19 -66 -58 -67 -116 -1 -70 -12 -62 309 -234 50
-26 95 -51 100 -55 28 -21 263 -145 430 -228 292 -145 511 -242 544 -242 15 0
211 59 289 87 45 17 56 33 21 33 -26 0 -244 91 -475 198 -208 96 -555 274
-803 411 -201 112 -296 161 -308 161 -4 -1 -22 -7 -40 -15z"/>
<path d="M9140 10904 c-60 -51 -82 -137 -43 -174 10 -10 86 -49 168 -88 203
-95 799 -377 856 -405 l45 -23 90 53 c49 30 109 63 134 75 l44 20 -59 23 c-94
34 -310 133 -550 250 -121 59 -251 122 -290 140 -38 18 -115 54 -170 80 -97
46 -169 75 -185 75 -5 0 -22 -12 -40 -26z"/>
<path d="M7600 8640 c-787 -58 -1431 -268 -2125 -694 -459 -282 -958 -754
-1298 -1227 -516 -720 -812 -1577 -857 -2486 -5 -106 -8 -219 -5 -250 2 -32 7
-132 10 -223 6 -177 18 -260 42 -300 28 -45 67 -82 115 -106 l48 -24 4355 0
c4237 -1 4357 0 4398 18 61 27 123 99 141 164 34 124 42 720 12 963 -3 22 -8
67 -11 100 -10 93 -53 334 -85 473 -101 446 -231 792 -445 1192 -117 219 -295
500 -389 615 -420 515 -806 857 -1301 1153 -685 409 -1436 623 -2235 636 -135
3 -301 1 -370 -4z m640 -677 c313 -35 508 -127 670 -315 84 -97 158 -239 192
-368 18 -70 22 -112 23 -237 0 -83 -3 -154 -7 -158 -3 -4 -37 7 -75 23 -185
81 -522 177 -734 207 -154 23 -529 31 -700 16 -272 -25 -589 -106 -896 -229
l-51 -21 -5 22 c-25 104 -15 290 23 414 88 287 331 527 611 602 67 18 240 45
344 54 103 9 492 3 605 -10z m-2815 -1498 c109 -10 243 -59 363 -132 l24 -15
-89 -91 c-169 -175 -279 -314 -409 -518 -292 -462 -446 -961 -471 -1531 -7
-163 0 -153 -82 -127 -202 66 -422 265 -521 471 -68 142 -84 219 -85 403 0
144 3 170 27 260 74 271 191 542 346 800 72 119 114 178 167 231 144 144 325
231 526 252 77 8 88 8 204 -3z m5212 -9 c239 -51 429 -187 581 -415 157 -238
351 -715 391 -961 27 -166 4 -383 -56 -527 -71 -168 -238 -350 -401 -436 -80
-42 -201 -92 -207 -85 -2 2 -5 59 -9 128 -23 426 -113 809 -281 1185 -76 170
-121 255 -190 360 -147 222 -319 437 -443 551 -31 29 -52 56 -48 62 9 16 119
76 183 101 126 49 341 66 480 37z m-3271 -1335 c138 -63 182 -248 87 -362 -38
-45 -116 -79 -181 -79 -64 0 -106 16 -157 61 -122 108 -90 298 64 379 47 25
133 25 187 1z m1253 -12 c47 -26 97 -95 107 -146 21 -110 -21 -203 -115 -256
-176 -99 -382 56 -340 255 9 42 21 62 64 104 29 29 68 57 86 63 54 17 151 7
198 -20z m-576 -677 c119 -53 212 -156 249 -276 37 -122 12 -280 -58 -364
l-19 -22 -324 0 c-370 0 -349 -5 -391 92 -71 165 -34 354 95 479 62 60 85 74
165 101 75 25 215 20 283 -10z m-1127 -451 c49 -23 107 -88 122 -140 23 -76
39 -71 -223 -71 l-236 0 7 38 c14 79 67 147 139 178 44 19 143 17 191 -5z
m2143 -6 c73 -37 111 -87 126 -169 l7 -36 -237 0 -237 0 7 37 c29 157 194 240
334 168z"/>
</g>
</svg>
