<?xml version="1.0" standalone="no"?>
<!DOCTYPE svg PUBLIC "-//W3C//DTD SVG 20010904//EN"
 "http://www.w3.org/TR/2001/REC-SVG-20010904/DTD/svg10.dtd">
<svg version="1.0" xmlns="http://www.w3.org/2000/svg"
 width="2048.000000pt" height="2048.000000pt" viewBox="0 0 2048.000000 2048.000000"
 preserveAspectRatio="xMidYMid meet">
<metadata>
Created by potrace 1.16, written by Peter Selinger 2001-2019
</metadata>
<g transform="translate(0.000000,2048.000000) scale(0.100000,-0.100000)"
fill="#18bcf2" stroke="none">
<path d="M12155 16383 c-44 -2 -161 -10 -260 -18 -1143 -92 -2026 -480 -2583
-1133 -339 -396 -555 -905 -641 -1507 -11 -77 -23 -178 -26 -225 -4 -47 -9
-96 -12 -110 -2 -14 -6 -140 -8 -280 -6 -490 58 -927 196 -1326 87 -255 233
-535 380 -730 168 -224 344 -389 659 -622 54 -39 69 -57 87 -102 56 -141 71
-431 33 -622 -39 -195 -80 -314 -180 -528 -80 -170 -91 -222 -64 -307 14 -45
31 -71 73 -114 48 -47 66 -58 123 -74 79 -21 112 -16 318 42 307 87 526 198
894 453 11 8 71 55 131 104 149 122 286 260 430 435 54 66 72 82 90 83 11 0
101 -4 200 -8 462 -23 978 1 1330 61 50 9 104 18 120 21 143 24 540 135 706
198 456 172 807 387 1108 680 366 356 582 741 719 1281 93 366 117 573 117
1015 0 448 -26 682 -115 1047 -191 774 -629 1358 -1316 1751 -447 256 -945
412 -1569 491 -278 36 -662 54 -940 44z m610 -553 c260 -20 571 -67 770 -116
502 -124 951 -343 1274 -623 194 -168 417 -475 513 -706 106 -253 173 -511
212 -815 24 -188 30 -293 29 -535 -3 -535 -118 -1061 -310 -1415 -53 -97 -176
-274 -259 -370 -266 -312 -757 -600 -1274 -749 -292 -84 -637 -141 -1005 -166
-157 -11 -573 -8 -787 5 -380 23 -391 19 -561 -203 -169 -222 -408 -442 -662
-610 -118 -78 -233 -142 -241 -134 -2 2 5 44 15 93 42 192 50 271 47 504 -2
124 -6 241 -10 260 -45 217 -78 317 -138 415 -55 90 -98 134 -201 204 -363
248 -589 505 -752 856 -52 109 -136 352 -170 484 -26 105 -71 382 -80 501 -4
41 -9 82 -11 90 -9 27 -5 454 6 575 28 321 65 517 144 757 68 206 93 266 169
406 350 643 1040 1068 1997 1231 426 73 862 93 1285 61z"/>
<path d="M13645 15079 c-138 -20 -321 -87 -440 -161 -249 -156 -481 -438 -651
-793 -137 -287 -258 -641 -335 -980 -25 -114 -50 -224 -88 -396 -37 -165 -110
-434 -149 -549 -129 -377 -273 -560 -438 -560 -98 0 -158 44 -197 146 -33 87
-30 257 6 414 29 124 123 451 187 646 126 388 155 634 100 849 -59 229 -236
405 -452 449 -96 20 -145 20 -245 1 -157 -30 -316 -136 -417 -279 -88 -124
-138 -231 -228 -486 -49 -140 -114 -262 -174 -329 -58 -65 -127 -98 -224 -106
-86 -8 -121 -21 -169 -61 -88 -74 -96 -218 -16 -311 52 -61 103 -77 223 -71
107 6 215 37 316 91 72 38 202 159 260 241 89 125 121 194 231 486 54 144 121
274 166 318 126 127 274 86 310 -86 24 -119 -23 -350 -152 -735 -184 -551
-226 -865 -152 -1142 63 -235 270 -429 503 -471 288 -52 548 71 752 357 70 98
179 334 237 510 56 172 121 427 176 684 52 246 112 493 151 623 79 260 238
620 346 781 221 331 402 460 675 485 34 3 76 11 95 19 144 61 173 275 52 376
-61 49 -125 59 -259 40z"/>
<path d="M14505 14275 c-5 -2 -27 -6 -47 -9 -58 -10 -134 -85 -154 -152 -22
-77 -8 -132 64 -252 163 -270 262 -613 262 -907 0 -297 -110 -674 -262 -898
-54 -80 -68 -117 -68 -184 1 -73 38 -145 96 -186 51 -36 94 -45 158 -35 104
16 165 89 286 342 87 179 130 305 174 503 46 207 60 350 52 543 -7 176 -7 180
-42 350 -36 171 -91 336 -167 493 -118 246 -193 354 -262 377 -40 13 -76 19
-90 15z"/>
<path d="M13819 13847 c-83 -44 -138 -146 -124 -232 3 -22 30 -83 60 -135 112
-196 149 -328 149 -530 0 -201 -44 -356 -147 -523 -24 -40 -50 -89 -57 -111
-29 -91 27 -208 123 -257 42 -22 126 -27 170 -10 74 29 141 112 212 264 101
218 134 353 142 582 6 172 -4 286 -38 418 -45 178 -160 414 -244 503 -6 7 -30
21 -53 33 -57 29 -135 28 -193 -2z"/>
<path d="M13243 13455 c-48 -21 -108 -87 -126 -138 -20 -58 -14 -106 22 -176
75 -149 77 -220 9 -354 -32 -64 -42 -93 -42 -132 0 -133 137 -242 270 -215 77
16 125 63 179 174 62 128 78 198 78 336 0 133 -22 228 -78 340 -43 86 -88 138
-140 161 -47 22 -127 24 -172 4z"/>
<path d="M5847 13928 c-625 -39 -1190 -427 -1464 -1005 -52 -109 -114 -296
-138 -413 -19 -91 -34 -295 -24 -312 4 -6 133 -10 355 -11 349 -2 349 -2 399
-27 70 -34 139 -108 161 -172 55 -160 -14 -318 -173 -391 -47 -21 -57 -22
-396 -22 l-347 0 -1 -464 c0 -254 1 -465 3 -467 3 -2 160 -4 350 -4 l345 -1
59 -28 c60 -28 120 -85 148 -139 36 -69 37 -203 3 -269 -28 -51 -84 -108 -138
-138 l-54 -30 -358 -5 -358 -5 1 -497 c0 -521 5 -600 46 -763 37 -148 70 -236
140 -375 103 -203 201 -337 346 -475 226 -215 423 -335 703 -426 310 -101 700
-108 1010 -17 155 45 353 138 493 232 180 119 381 317 489 479 157 237 259
507 293 778 8 67 15 692 11 1006 l-1 62 -362 3 -363 3 -54 30 c-217 120 -210
425 13 543 l51 27 360 5 c279 4 360 8 359 18 -1 6 -2 216 -2 465 l-2 452 -347
0 -348 0 -55 26 c-77 36 -121 77 -156 146 -25 49 -29 69 -29 133 1 130 64 224
191 282 48 22 57 23 394 24 l345 0 -2 111 c-5 249 -98 546 -247 788 -177 288
-418 514 -706 660 -298 150 -581 205 -943 183z"/>
<path d="M16466 12418 c-3 -7 -12 -60 -21 -118 -10 -58 -28 -158 -41 -222 -29
-141 -29 -148 -5 -148 30 0 78 -46 92 -88 10 -29 12 -618 12 -2759 -1 -2681
-1 -2723 -20 -2760 -38 -72 -112 -94 -209 -61 -345 118 -908 252 -1249 298
-44 6 -93 13 -110 16 -281 39 -772 53 -1020 29 -624 -61 -1129 -245 -1550
-563 l-80 -61 -5 1582 c-5 1718 -1 1597 -60 1676 -34 47 -130 91 -195 91 -90
-1 -182 -59 -228 -145 l-22 -40 -3 -1577 c-1 -868 -4 -1578 -6 -1578 -3 0 -51
33 -108 74 -698 500 -1555 657 -2673 490 -390 -58 -736 -139 -1150 -269 -175
-55 -204 -60 -229 -42 -17 12 -33 7 -160 -59 -235 -121 -455 -200 -720 -259
l-29 -6 6 -202 c4 -171 9 -212 27 -267 50 -151 179 -300 315 -365 143 -69 15
-65 2109 -65 l1893 0 35 -52 c127 -192 371 -341 658 -404 129 -29 459 -26 587
4 277 66 502 206 628 392 l37 55 1971 5 1972 5 74 27 c184 67 334 227 393 418
l23 75 1 2760 c1 1518 -2 2810 -6 2871 -6 95 -11 120 -40 183 -53 114 -144
186 -278 220 l-64 17 -3 149 c-3 173 -16 232 -75 350 -50 100 -109 169 -197
229 -94 64 -268 123 -277 94z"/>
<path d="M15120 10124 c-460 -322 -1001 -537 -1630 -650 -160 -29 -422 -64
-488 -65 -87 -2 -95 -8 -114 -79 -50 -184 -59 -379 -27 -586 42 -275 150 -493
342 -689 170 -172 410 -300 687 -364 188 -45 275 -53 549 -53 l264 0 76 -81
c122 -129 267 -236 431 -318 201 -101 291 -103 306 -8 5 29 -2 54 -29 115 -64
143 -72 177 -72 314 0 184 2 191 85 245 332 217 517 567 537 1017 21 469 -177
891 -526 1123 -99 65 -253 145 -280 145 -9 0 -59 -30 -111 -66z m-1375 -953
c75 -34 115 -87 135 -176 30 -135 -89 -275 -236 -275 -94 0 -191 76 -219 172
-36 127 30 244 165 291 34 12 117 6 155 -12z m821 -17 c30 -18 60 -48 79 -78
25 -42 30 -59 30 -115 0 -133 -84 -224 -219 -238 -58 -6 -130 19 -175 60 -39
36 -71 115 -71 177 0 140 99 234 241 227 53 -2 76 -9 115 -33z m747 22 c87
-31 142 -104 154 -203 10 -91 -48 -185 -142 -229 -180 -85 -370 87 -315 286
32 116 183 189 303 146z"/>
<path d="M3309 9997 c-102 -29 -166 -84 -211 -183 -23 -48 -23 -54 -23 -444 1
-478 17 -637 95 -935 87 -331 197 -573 404 -893 179 -276 526 -618 830 -819
323 -214 753 -380 1136 -438 63 -9 121 -19 128 -21 10 -3 12 -164 10 -781 l-3
-778 -520 -5 -520 -5 -50 -27 c-106 -56 -158 -144 -158 -265 0 -84 12 -119 64
-190 28 -37 55 -59 100 -82 l62 -31 1328 0 c1311 0 1329 0 1383 20 37 14 69
36 101 71 56 60 74 100 82 183 11 125 -45 229 -158 291 l-54 30 -522 3 -523 3
0 779 0 780 23 5 c12 2 67 12 122 20 383 59 803 225 1134 447 159 107 157 106
286 214 205 172 419 413 557 625 47 73 147 250 177 314 93 198 140 317 176
450 110 402 124 526 122 1055 -2 370 -3 387 -23 431 -31 66 -87 124 -151 155
-45 22 -69 27 -127 27 -107 -1 -178 -37 -242 -124 -60 -83 -63 -103 -64 -497
0 -360 -9 -489 -46 -662 -128 -608 -479 -1127 -995 -1469 -337 -224 -613 -324
-1039 -377 -67 -8 -374 -8 -444 1 -182 22 -400 72 -549 125 -371 135 -746 404
-996 715 -256 318 -402 626 -480 1010 -36 176 -42 273 -43 600 0 466 -7 505
-106 604 -68 67 -178 95 -273 68z"/>
</g>
</svg>
