<?xml version="1.0" standalone="no"?>
<!DOCTYPE svg PUBLIC "-//W3C//DTD SVG 20010904//EN"
 "http://www.w3.org/TR/2001/REC-SVG-20010904/DTD/svg10.dtd">
<svg version="1.0" xmlns="http://www.w3.org/2000/svg"
 width="2048.000000pt" height="2048.000000pt" viewBox="0 0 2048.000000 2048.000000"
 preserveAspectRatio="xMidYMid meet">
<metadata>
Created by potrace 1.16, written by Peter Selinger 2001-2019
</metadata>
<g transform="translate(0.000000,2048.000000) scale(0.100000,-0.100000)"
fill="#18bcf2" stroke="none">
<path d="M4150 15779 c-129 -21 -285 -135 -336 -245 -54 -116 -52 -219 9 -364
27 -66 31 -86 30 -170 0 -57 -9 -139 -22 -205 -48 -245 -40 -316 54 -450 84
-121 87 -139 75 -400 -6 -121 -17 -371 -25 -555 -44 -987 -67 -1446 -74 -1453
-4 -4 -47 -19 -97 -34 -272 -80 -507 -217 -692 -403 -293 -293 -445 -621 -498
-1073 -18 -150 -20 -409 -6 -509 18 -117 71 -184 166 -209 121 -31 145 -41
189 -79 81 -71 136 -225 137 -381 0 -74 -25 -214 -51 -283 -31 -84 -96 -166
-158 -199 -43 -24 -69 -30 -154 -36 -60 -5 -114 -14 -132 -23 -77 -41 -120
-116 -199 -348 -53 -153 -136 -461 -165 -610 -125 -641 -8 -1236 324 -1649 56
-70 204 -219 270 -272 124 -99 285 -189 462 -260 186 -74 503 -150 686 -164
l87 -7 0 -249 c0 -281 7 -334 53 -386 107 -121 325 -81 367 67 5 19 10 150 10
290 0 140 4 260 8 266 4 6 41 14 82 18 333 32 773 170 995 311 154 98 348 276
452 415 181 241 284 501 328 830 17 122 19 425 5 555 -39 350 -231 1004 -333
1139 -41 53 -106 77 -223 85 -96 6 -104 8 -155 43 -88 61 -139 155 -174 321
-42 194 9 413 120 521 43 42 66 53 185 81 111 27 167 100 180 239 10 102 4
374 -10 486 -31 244 -85 439 -166 605 -130 267 -317 487 -549 644 -177 120
-276 168 -465 225 l-105 32 -6 45 c-4 24 -10 134 -13 244 -4 110 -9 214 -11
230 -2 17 -6 95 -10 175 -3 80 -8 177 -10 215 -3 39 -10 171 -15 295 -5 124
-12 272 -15 330 -3 58 -10 200 -16 316 -17 342 -16 401 10 459 12 27 40 73 62
101 85 110 97 205 55 439 -33 188 -34 274 -1 366 44 121 46 131 46 210 0 158
-92 304 -236 377 -48 24 -178 52 -232 51 -21 -1 -63 -5 -93 -10z m-310 -4386
c0 -49 -4 -160 -9 -248 -6 -88 -12 -218 -16 -290 -3 -71 -8 -182 -11 -245 -2
-63 -11 -245 -19 -405 -27 -543 -29 -609 -16 -647 21 -63 68 -118 124 -144 51
-24 55 -24 361 -24 294 0 312 1 353 21 24 11 58 39 77 61 48 55 60 115 52 252
-3 61 -13 251 -21 421 -8 171 -17 346 -20 390 -2 44 -7 134 -10 200 -3 66 -10
194 -15 285 -24 437 -25 464 -4 456 10 -4 42 -16 69 -27 184 -69 419 -258 535
-429 148 -218 226 -475 236 -775 l6 -160 -92 -43 c-220 -104 -375 -353 -411
-662 -58 -505 201 -968 592 -1056 41 -9 79 -21 86 -26 31 -25 122 -324 169
-557 83 -412 83 -618 -1 -926 -96 -349 -298 -606 -609 -771 -156 -83 -490
-184 -645 -196 l-43 -3 1 115 c5 329 30 515 153 1113 20 100 28 161 23 185
-16 84 -81 162 -152 181 -23 7 -160 11 -341 11 -334 0 -347 -2 -410 -63 -48
-46 -72 -98 -72 -155 0 -27 22 -152 49 -278 80 -368 103 -529 116 -799 3 -66
8 -164 11 -217 l6 -98 -25 0 c-40 0 -224 39 -334 70 -284 82 -489 202 -663
387 -215 230 -327 522 -344 903 -12 245 89 760 205 1047 19 48 25 54 63 63
167 43 245 81 351 173 132 115 227 301 272 532 23 123 23 351 0 462 -37 175
-133 359 -239 459 -52 49 -141 107 -205 133 l-33 13 0 124 c0 196 40 411 109
581 115 289 359 539 634 654 51 21 95 39 100 39 4 0 7 -39 7 -87z"/>
<path d="M4203 8490 l-461 -5 -43 -30 c-55 -39 -90 -105 -91 -172 0 -57 20
-102 66 -151 63 -68 43 -66 551 -68 347 -2 471 0 507 10 100 27 158 102 158
206 0 117 -73 198 -190 211 -19 3 -243 2 -497 -1z"/>
<path d="M14683 15778 c-357 -29 -735 -154 -1047 -346 -246 -151 -482 -367
-664 -607 -123 -162 -142 -197 -142 -260 0 -120 95 -215 216 -215 82 0 122 27
202 135 211 288 466 511 745 654 150 77 255 116 417 156 219 54 268 60 485 59
162 0 224 -5 325 -23 360 -65 603 -155 936 -347 226 -129 496 -336 691 -530
l132 -131 -19 -59 c-11 -32 -24 -78 -30 -101 -23 -93 -138 -221 -279 -311
-155 -99 -408 -191 -656 -237 -127 -23 -458 -55 -576 -55 l-59 0 -24 48 c-45
88 -107 132 -186 132 -80 0 -164 -67 -189 -151 l-12 -39 -102 0 -102 0 -13 43
c-41 130 -176 186 -284 118 -54 -34 -72 -58 -94 -123 l-16 -48 -486 0 -487 0
-130 35 c-120 32 -133 37 -165 74 -80 90 -197 104 -281 34 -57 -49 -59 -58
-59 -339 0 -296 5 -317 82 -367 76 -49 168 -34 250 41 43 39 80 55 208 88 61
16 320 35 320 24 0 -3 -16 -36 -35 -75 -59 -118 -78 -216 -72 -375 5 -154 23
-226 89 -352 44 -86 138 -194 229 -264 117 -90 284 -150 450 -161 l87 -6 4
-77 c3 -56 11 -88 29 -120 62 -113 204 -143 299 -64 54 46 74 91 80 179 l5 80
95 0 95 0 5 -82 c5 -70 10 -88 36 -125 74 -105 191 -126 292 -51 50 38 71 88
73 180 l2 80 111 11 c226 24 395 110 532 270 130 153 186 290 200 495 7 92
-12 248 -38 316 -5 13 -7 25 -5 28 6 5 226 -72 328 -116 165 -72 311 -174 385
-272 55 -72 61 -85 73 -159 19 -115 104 -185 217 -178 110 7 175 73 184 188 3
37 5 356 4 708 0 353 3 639 7 637 27 -17 207 -367 269 -525 247 -622 334
-1198 265 -1745 -34 -265 -135 -627 -248 -883 -122 -277 -382 -651 -593 -852
-80 -77 -123 -115 -288 -252 -58 -49 -86 -105 -86 -173 0 -126 87 -205 225
-205 85 1 104 14 405 282 316 281 603 701 793 1163 61 147 151 459 181 625 3
19 8 46 11 60 20 96 38 310 42 507 11 453 -35 810 -155 1208 -113 375 -230
634 -465 1031 -174 295 -558 721 -882 979 -342 273 -753 497 -1135 617 -351
110 -655 145 -1007 116z m267 -3058 l0 -400 -100 0 -100 0 0 393 c0 217 3 397
7 400 3 4 48 7 100 7 l93 0 0 -400z m-602 -7 l2 -393 -27 0 c-57 0 -146 20
-198 44 -240 110 -299 436 -113 624 65 66 201 122 288 119 l45 -2 3 -392z
m1175 370 c47 -15 124 -66 160 -107 10 -12 33 -50 50 -86 30 -61 32 -72 32
-170 0 -98 -3 -110 -32 -171 -39 -78 -111 -150 -186 -185 -50 -22 -173 -47
-189 -37 -5 2 -8 176 -8 387 0 210 3 386 8 390 10 10 106 -2 165 -21z"/>
<path d="M15081 14132 c-65 -2 -91 -7 -113 -23 -80 -57 -77 -173 5 -216 37
-18 214 -29 302 -18 48 6 65 13 92 40 28 28 33 40 33 83 0 52 -21 91 -63 114
-27 15 -142 24 -256 20z"/>
<path d="M14364 14120 c-59 -23 -87 -107 -58 -166 36 -73 55 -79 232 -79 139
0 160 2 186 20 54 36 71 115 36 172 -33 55 -61 63 -227 62 -81 0 -158 -4 -169
-9z"/>
<path d="M7046 13740 c-43 -14 -104 -59 -125 -94 -23 -38 -267 -583 -323 -721
-22 -55 -80 -211 -129 -348 -123 -344 -128 -405 -45 -572 68 -136 200 -305
521 -665 221 -248 259 -303 301 -435 24 -74 27 -102 36 -365 19 -553 2 -633
-200 -943 -213 -325 -275 -480 -302 -753 -18 -182 11 -515 71 -819 31 -154
119 -478 150 -551 56 -133 166 -182 464 -204 83 -7 217 -18 299 -25 165 -15
182 -22 192 -86 5 -32 2 -38 -43 -75 -50 -42 -421 -308 -607 -435 -266 -182
-460 -327 -488 -365 -19 -27 -33 -62 -40 -105 -16 -95 6 -165 75 -233 57 -57
104 -76 183 -76 72 1 97 13 349 162 127 75 295 174 375 221 80 46 200 117 267
157 69 40 129 70 137 67 8 -3 25 -25 37 -48 20 -40 184 -571 306 -989 29 -102
69 -232 87 -290 19 -58 49 -152 66 -209 37 -122 66 -170 127 -210 61 -41 124
-54 192 -41 105 20 179 83 207 176 22 73 18 110 -42 377 -82 372 -334 1598
-333 1627 0 9 45 40 107 74 141 78 251 156 301 213 109 123 135 282 71 426
l-19 41 35 64 c27 52 34 76 34 121 0 91 -35 153 -210 371 -41 52 -103 131
-137 175 -34 44 -98 125 -143 180 -154 189 -337 478 -389 615 -84 217 -87 425
-11 598 48 107 225 333 249 317 6 -3 62 -70 126 -150 175 -218 264 -309 344
-348 l66 -32 175 -1 c96 -1 291 6 433 14 l258 15 52 -56 c29 -30 76 -67 105
-82 82 -41 245 -58 552 -58 285 0 418 13 651 64 77 17 142 29 145 26 8 -7 -15
-220 -41 -384 -54 -337 -92 -407 -656 -1205 -375 -532 -426 -624 -731 -1338
-50 -117 -90 -207 -158 -360 -21 -47 -89 -200 -150 -340 -62 -140 -151 -340
-198 -445 -84 -185 -87 -192 -90 -277 -10 -238 135 -404 364 -416 61 -3 96 0
135 13 71 23 148 73 189 122 18 21 224 421 459 888 252 503 432 851 441 853
10 1 28 -19 50 -55 56 -95 88 -138 505 -657 220 -274 433 -539 473 -590 40
-50 119 -147 175 -215 56 -68 127 -155 158 -193 66 -82 121 -121 208 -148 162
-51 331 2 433 136 52 68 72 132 73 234 0 122 -18 165 -143 334 -442 596 -1014
1396 -1058 1479 -31 60 -36 79 -41 162 -10 168 44 350 149 496 18 26 53 75 77
110 58 83 166 195 316 327 66 58 133 119 148 136 16 17 52 56 81 86 67 69 175
228 220 323 161 338 199 883 112 1617 -65 549 -179 997 -335 1315 -150 306
-319 425 -604 425 -135 0 -231 -28 -342 -101 -141 -92 -228 -207 -284 -374
-52 -157 -62 -311 -35 -525 24 -194 6 -344 -58 -479 -40 -84 -150 -197 -228
-233 -159 -74 -243 -88 -590 -97 -294 -8 -295 -8 -360 -36 -65 -29 -66 -29
-319 -33 -294 -4 -477 8 -524 35 -64 37 -268 338 -593 877 -100 165 -152 225
-268 305 -147 102 -338 174 -621 236 -269 59 -301 74 -525 253 -237 191 -380
337 -455 465 -42 73 -36 103 118 587 41 129 94 287 117 350 133 364 145 417
117 492 -20 50 -55 91 -99 114 -37 19 -132 27 -172 14z"/>
<path d="M11412 13359 c-156 -19 -283 -82 -402 -199 -166 -163 -240 -372 -212
-595 36 -285 226 -514 502 -604 250 -82 564 11 736 218 115 139 174 299 174
472 0 123 -20 210 -72 319 -56 116 -194 256 -314 318 -126 65 -267 89 -412 71z"/>
<path d="M8361 12940 c-212 -57 -374 -187 -466 -375 -60 -120 -75 -186 -75
-320 0 -133 15 -199 72 -315 34 -70 58 -102 137 -181 79 -79 111 -103 181
-137 47 -23 112 -49 145 -57 79 -20 263 -20 340 0 302 79 498 303 535 615 16
125 5 213 -41 340 -69 186 -246 352 -446 417 -109 36 -277 42 -382 13z"/>
<path d="M14860 11023 c-70 -8 -161 -33 -213 -59 -79 -39 -184 -125 -262 -213
-38 -44 -84 -87 -102 -95 -19 -10 -80 -21 -145 -27 -177 -15 -206 -23 -351
-93 -305 -147 -290 -219 61 -293 108 -22 152 -27 287 -26 148 0 166 2 240 27
113 39 184 86 292 193 51 51 108 100 126 110 41 21 113 21 154 0 68 -36 99
-168 89 -372 -3 -60 -8 -195 -11 -300 -3 -104 -7 -257 -10 -340 -10 -326 -15
-475 -20 -600 -6 -158 -13 -387 -20 -635 -3 -102 -7 -246 -10 -320 -3 -74 -7
-247 -10 -385 -3 -137 -10 -396 -15 -575 -5 -179 -10 -523 -11 -765 -1 -360 1
-459 14 -543 48 -306 171 -565 339 -717 159 -143 327 -229 543 -276 125 -28
399 -35 510 -13 240 46 420 138 588 303 108 105 165 185 228 316 85 182 119
356 119 622 0 378 37 739 96 948 44 156 146 357 191 378 18 8 30 5 61 -16 89
-58 180 -60 255 -4 71 54 99 133 80 228 -8 40 -60 94 -308 320 -93 84 -208
190 -255 235 -47 44 -148 138 -225 209 -77 71 -165 152 -195 181 -107 100
-225 206 -247 221 -63 43 -179 34 -238 -18 -45 -40 -75 -104 -75 -163 0 -54
16 -90 72 -160 28 -36 37 -55 32 -70 -3 -12 -37 -84 -74 -161 -92 -188 -134
-300 -175 -457 -52 -199 -74 -351 -87 -578 -10 -182 -9 -252 11 -626 13 -232
22 -452 20 -490 -7 -121 -61 -184 -157 -184 -55 0 -95 21 -120 62 -25 40 -27
58 -57 493 -8 121 -24 330 -35 465 -21 262 -68 896 -73 970 l-2 44 76 12 c79
12 128 32 167 68 85 76 82 237 -4 318 -49 46 -98 60 -189 56 l-80 -3 -7 50
c-3 28 -7 73 -7 102 l-1 52 48 6 c85 11 100 16 144 45 64 43 99 106 99 176 0
92 -34 157 -106 200 -39 22 -56 25 -135 25 -62 0 -90 4 -90 12 0 7 -3 54 -7
105 l-6 92 56 0 c73 0 150 40 192 99 25 36 30 54 33 115 3 55 0 82 -13 107
-45 88 -101 119 -218 119 l-84 0 -7 83 c-3 45 -9 116 -12 157 -16 222 -56 627
-70 705 -18 104 -58 213 -104 285 -66 103 -208 205 -340 244 -56 17 -176 26
-240 19z"/>
</g>
</svg>
