<?xml version="1.0" standalone="no"?>
<!DOCTYPE svg PUBLIC "-//W3C//DTD SVG 20010904//EN"
 "http://www.w3.org/TR/2001/REC-SVG-20010904/DTD/svg10.dtd">
<svg version="1.0" xmlns="http://www.w3.org/2000/svg"
 width="2048.000000pt" height="2048.000000pt" viewBox="0 0 2048.000000 2048.000000"
 preserveAspectRatio="xMidYMid meet">
<metadata>
Created by potrace 1.16, written by Peter Selinger 2001-2019
</metadata>
<g transform="translate(0.000000,2048.000000) scale(0.100000,-0.100000)"
fill="#18bcf2" stroke="none">
<path d="M13445 16565 c-66 -36 -100 -90 -84 -132 5 -13 44 -64 87 -113 52
-59 96 -123 127 -185 27 -52 50 -95 50 -95 1 0 46 18 100 39 54 22 110 51 124
65 45 45 27 123 -34 146 -11 4 -54 11 -95 15 -83 8 -124 24 -141 56 -16 31 8
51 70 57 86 8 156 -6 208 -42 73 -50 93 -86 93 -167 l0 -69 53 1 c55 1 80 7
111 25 25 15 27 95 3 140 -41 78 -161 156 -262 170 -27 3 -59 15 -70 25 -11
10 -47 30 -80 45 -76 35 -212 45 -260 19z"/>
<path d="M13174 16432 c-6 -4 -10 -49 -10 -112 0 -97 -4 -114 -42 -227 -49
-142 -59 -215 -42 -298 23 -112 84 -207 176 -276 31 -23 54 -47 54 -58 0 -10
-13 -49 -28 -87 -16 -38 -41 -107 -57 -153 -27 -83 -60 -131 -88 -131 -11 0
-16 22 -21 88 -13 159 -88 272 -233 349 -32 18 -79 37 -103 42 -61 14 -70 0
-70 -103 0 -138 36 -231 123 -323 28 -30 68 -63 89 -75 21 -12 38 -27 38 -33
0 -6 -25 -22 -56 -34 -30 -13 -126 -73 -212 -134 -434 -306 -639 -447 -756
-521 -60 -38 -62 -39 -106 -27 -72 19 -128 50 -242 134 -129 95 -150 127 -156
252 -4 67 2 103 32 225 57 232 68 308 68 474 1 106 -4 171 -15 218 -49 201
-147 360 -288 466 -201 150 -477 195 -759 123 -433 -111 -526 -148 -639 -259
-81 -80 -105 -129 -106 -217 0 -72 16 -110 76 -186 19 -24 20 -30 8 -115 -15
-115 -6 -262 20 -338 28 -78 27 -103 -10 -232 -17 -60 -33 -135 -36 -166 -5
-54 -4 -59 25 -86 16 -15 49 -34 71 -41 23 -6 50 -21 60 -33 20 -21 116 -236
133 -296 13 -45 62 -98 105 -113 50 -16 153 -6 246 25 103 34 127 23 127 -60
0 -68 -54 -120 -222 -217 -97 -56 -199 -106 -308 -152 -180 -75 -273 -141
-341 -241 -48 -71 -50 -73 -106 -84 -100 -19 -196 -41 -262 -61 -73 -22 -85
-17 -101 40 -14 52 -12 170 4 225 24 79 34 86 212 151 95 34 157 69 185 101
27 31 28 73 8 179 -57 294 -56 283 -20 352 17 32 31 66 31 75 0 17 -26 41
-145 130 -90 67 -103 85 -142 187 -39 104 -75 162 -178 288 -108 133 -149 170
-225 205 -110 50 -176 61 -340 55 -157 -5 -254 -26 -396 -85 -149 -62 -290
-178 -375 -309 -45 -69 -47 -70 -159 -76 -110 -6 -183 -37 -251 -108 -101
-103 -136 -212 -126 -402 8 -180 54 -301 156 -410 102 -108 223 -154 339 -128
114 26 107 27 164 -24 80 -73 159 -120 276 -166 124 -48 127 -50 153 -101 60
-117 14 -323 -102 -468 -153 -191 -205 -274 -241 -390 -20 -65 -23 -94 -22
-215 1 -151 10 -194 79 -407 20 -59 38 -127 41 -150 6 -47 -6 -69 -105 -197
-100 -130 -141 -247 -141 -406 0 -220 74 -364 244 -474 79 -52 119 -59 164
-32 70 45 68 115 -6 181 -109 98 -126 118 -154 177 -24 50 -29 74 -29 136 0
93 5 116 47 197 67 128 237 310 278 297 38 -12 43 -107 11 -197 -43 -122 11
-165 239 -190 122 -13 241 -37 283 -57 96 -45 98 -193 4 -331 -22 -33 -41 -65
-41 -71 0 -17 43 -41 72 -41 72 0 939 205 1000 236 28 15 48 63 48 118 0 78
66 237 150 361 67 99 81 124 100 180 30 86 36 185 16 265 -22 87 -46 133 -111
219 -30 40 -55 76 -55 81 0 5 43 23 96 40 l97 33 30 -34 c172 -196 216 -479
111 -717 -13 -29 -56 -107 -95 -174 -71 -120 -125 -249 -114 -276 3 -8 13 -12
23 -9 531 153 1179 422 1547 644 176 105 404 275 514 381 l90 87 54 230 c31
127 58 249 62 273 15 96 67 115 219 82 46 -10 202 -37 347 -59 145 -22 316
-48 379 -58 155 -24 522 -24 625 -1 105 24 198 72 264 137 91 88 112 148 112
306 -1 182 -54 346 -236 720 -117 240 -341 632 -413 720 -31 38 -129 195 -124
199 3 3 18 6 33 6 94 0 306 121 370 211 21 29 21 31 3 51 -29 32 -172 95 -260
113 -161 34 -291 -5 -415 -123 -33 -31 -53 -43 -70 -40 -14 2 -23 9 -22 18 1
8 28 80 61 159 l59 144 70 -2 c87 -3 184 14 236 41 53 26 129 99 166 156 16
26 48 94 72 152 37 90 53 115 111 176 79 83 85 108 33 130 -80 33 -281 2 -419
-65 -112 -54 -131 -78 -140 -177 -9 -98 -35 -163 -66 -164 -3 0 -5 55 -6 123
-2 244 -58 380 -231 563 -44 47 -117 104 -132 104 -3 0 -11 -4 -17 -8z m222
-1581 c69 -32 138 -95 184 -168 40 -63 39 -102 -2 -149 -67 -76 -156 -91 -323
-53 -112 25 -183 26 -232 3 -21 -10 -83 -63 -138 -119 -792 -804 -927 -934
-1090 -1055 -188 -139 -263 -179 -582 -314 -525 -220 -1287 -498 -1568 -571
-223 -58 -396 -22 -498 103 -53 66 -72 129 -72 237 0 78 4 97 28 147 37 74
109 139 211 187 108 51 210 74 696 156 402 68 593 116 975 247 292 100 331
119 528 266 142 106 268 196 427 308 74 52 151 106 170 119 134 95 386 271
438 307 34 24 120 85 190 135 257 186 295 207 429 237 88 20 151 14 229 -23z
m-181 -586 c88 -23 109 -45 166 -170 57 -124 119 -300 119 -338 0 -24 -2 -24
-37 -16 -70 15 -491 173 -606 227 l-38 17 113 119 c117 123 179 176 207 176 9
0 44 -7 76 -15z"/>
<path d="M13033 12495 c-13 -9 -65 -68 -117 -133 -102 -126 -325 -350 -446
-448 -228 -184 -512 -366 -792 -506 -97 -48 -179 -88 -181 -88 -3 0 -43 -18
-89 -39 -128 -60 -280 -123 -423 -175 -71 -26 -159 -58 -195 -71 -83 -31 -306
-102 -485 -155 -77 -23 -169 -51 -205 -61 -272 -82 -992 -250 -1515 -353 -408
-81 -844 -170 -970 -200 -708 -163 -1004 -243 -1345 -363 -411 -144 -784 -321
-1040 -493 -268 -180 -535 -451 -677 -685 -42 -70 -109 -222 -143 -324 -82
-246 -82 -586 1 -811 36 -100 149 -314 190 -363 33 -38 47 -47 73 -47 65 0 69
29 27 181 -44 158 -51 201 -58 349 -14 312 65 577 248 835 136 192 351 379
617 539 279 168 693 336 1182 481 30 9 93 28 140 41 311 92 1056 257 2060 454
148 30 574 126 685 155 354 94 458 122 605 166 593 179 1181 422 1610 667 276
158 623 414 800 592 201 203 347 394 438 575 82 164 99 260 51 285 -22 13 -21
13 -46 -5z"/>
<path d="M15605 11555 c-185 -138 -413 -239 -664 -292 -117 -25 -143 -27 -376
-27 -218 0 -275 3 -450 27 -357 49 -448 58 -600 58 -226 1 -420 -24 -600 -76
-167 -48 -189 -70 -188 -190 0 -76 32 -258 63 -358 28 -93 114 -445 144 -587
28 -136 41 -223 51 -343 4 -42 10 -79 14 -81 3 -2 40 7 81 20 103 34 290 62
445 68 147 5 266 -6 634 -58 319 -45 437 -56 626 -56 249 0 448 31 665 103
223 73 498 227 623 347 51 50 57 60 57 95 0 22 -8 50 -18 62 -9 13 -78 55
-152 94 -157 82 -314 184 -376 243 l-43 42 53 135 c95 240 226 685 226 768 0
12 -13 36 -29 52 -47 46 -73 40 -186 -46z m-1489 -674 c38 -17 98 -69 137
-119 l17 -23 43 29 c86 59 129 76 192 76 118 -1 212 -83 231 -202 19 -119 -81
-272 -271 -417 -86 -65 -242 -155 -270 -155 -27 0 -202 173 -276 273 -109 146
-157 287 -130 379 33 109 121 178 226 178 37 0 76 -8 101 -19z"/>
<path d="M7064 11025 c-415 -96 -850 -235 -1159 -370 -681 -297 -1168 -688
-1371 -1099 -59 -119 -57 -166 6 -166 34 0 59 18 181 128 428 387 984 667
1794 906 154 45 512 138 636 165 117 25 144 35 188 68 72 55 93 180 46 272
-27 54 -62 84 -126 106 -54 19 -74 18 -195 -10z"/>
<path d="M12255 10977 c-165 -114 -327 -208 -600 -347 -379 -192 -772 -351
-1255 -505 -197 -63 -194 -61 -187 -144 3 -36 11 -80 17 -98 10 -28 17 -33 58
-38 166 -22 263 -63 361 -152 69 -62 155 -183 166 -233 9 -41 25 -37 55 11 38
62 162 175 230 209 83 42 176 61 289 61 168 -1 299 -57 422 -180 79 -78 119
-144 150 -241 9 -30 19 -55 23 -55 3 0 40 33 81 73 123 119 268 176 441 171
41 -1 76 0 79 2 2 3 8 22 13 44 24 109 -21 408 -114 758 -72 269 -112 445
-134 592 -14 93 -19 115 -28 114 -4 0 -34 -19 -67 -42z"/>
<path d="M10142 9429 c-48 -24 -81 -64 -105 -127 -16 -39 -17 -209 -17 -2073
0 -2204 -4 -2057 56 -2128 80 -95 241 -95 331 0 17 19 37 48 43 64 16 41 15
4069 -1 4127 -12 47 -69 113 -120 139 -52 26 -132 25 -187 -2z"/>
<path d="M9015 9331 c-53 -24 -111 -90 -126 -143 -12 -46 3 -188 56 -553 28
-188 42 -295 95 -705 59 -462 70 -540 80 -600 5 -30 19 -127 30 -215 12 -88
25 -187 30 -220 4 -33 18 -132 29 -220 12 -88 37 -272 56 -410 39 -292 63
-468 105 -805 43 -333 49 -359 97 -405 62 -59 132 -81 208 -65 67 14 128 57
155 109 31 62 26 144 -40 611 -33 234 -80 580 -105 770 -25 190 -59 440 -75
555 -16 116 -50 368 -75 560 -38 294 -63 473 -90 660 -2 17 -13 98 -24 180
-75 558 -104 754 -119 785 -52 109 -181 159 -287 111z"/>
<path d="M11283 9329 c-47 -23 -89 -67 -109 -114 -7 -17 -24 -118 -38 -225
-67 -495 -88 -654 -106 -775 -11 -71 -31 -218 -45 -325 -14 -107 -34 -260 -45
-340 -11 -80 -29 -215 -39 -300 -11 -85 -40 -308 -66 -495 -47 -354 -54 -400
-60 -450 -3 -16 -16 -115 -30 -220 -14 -104 -30 -219 -35 -255 -5 -36 -14
-101 -20 -146 -6 -44 -12 -89 -14 -100 -20 -110 -47 -381 -42 -417 22 -145
200 -229 328 -154 96 56 105 84 153 462 19 154 42 332 51 395 8 63 17 133 20
155 3 22 11 83 19 135 8 52 17 111 19 130 3 19 24 177 46 350 22 173 42 326
45 340 3 14 16 113 30 220 14 107 27 206 29 220 3 14 9 63 15 110 7 47 14 99
16 115 6 37 31 230 51 390 22 179 61 465 93 690 50 343 56 419 36 474 -47 126
-188 187 -302 130z"/>
<path d="M7934 9108 c-52 -11 -121 -69 -145 -122 -25 -56 -24 -124 6 -231 55
-199 148 -539 240 -880 54 -198 117 -432 141 -520 24 -88 53 -191 63 -230 11
-38 31 -110 45 -160 13 -49 59 -218 101 -375 43 -157 103 -379 135 -495 32
-115 74 -273 95 -350 20 -77 50 -187 66 -245 15 -58 53 -197 84 -310 61 -223
80 -264 147 -306 74 -47 163 -45 239 6 55 36 89 94 96 163 5 49 -26 199 -72
347 -7 25 -30 106 -50 180 -20 74 -50 182 -65 240 -16 58 -45 166 -65 240 -20
74 -47 171 -60 215 -13 44 -35 123 -49 175 -109 408 -208 770 -256 940 -21 74
-79 288 -130 475 -51 187 -112 412 -136 500 -24 88 -67 244 -94 347 -78 294
-99 337 -183 376 -53 25 -101 31 -153 20z"/>
<path d="M12441 9109 c-51 -11 -112 -59 -138 -109 -12 -25 -45 -126 -72 -225
-27 -99 -68 -247 -91 -330 -23 -82 -57 -206 -75 -275 -39 -143 -174 -639 -239
-875 -25 -88 -66 -239 -92 -335 -25 -96 -82 -305 -126 -465 -43 -159 -128
-470 -188 -690 -134 -488 -135 -492 -161 -584 -34 -121 -36 -170 -6 -233 26
-58 67 -97 130 -123 78 -32 186 -8 237 53 38 45 27 8 276 927 30 110 74 272
99 360 24 88 65 239 90 335 25 96 62 229 81 295 20 66 51 179 69 250 18 72 51
195 73 275 23 80 62 224 87 320 26 96 66 245 90 330 24 85 67 243 94 350 28
107 69 264 91 348 22 84 40 167 40 184 0 140 -132 246 -269 217z"/>
<path d="M6700 8891 c-119 -39 -797 -325 -817 -345 -10 -9 17 -84 128 -356 77
-190 183 -448 234 -575 52 -126 138 -336 191 -465 150 -367 263 -644 439
-1080 157 -389 278 -686 347 -855 38 -93 135 -332 215 -530 164 -406 231 -566
242 -578 8 -8 59 8 131 41 25 12 187 78 360 147 366 147 377 153 429 204 69
67 86 112 86 221 0 68 -5 105 -17 130 -23 48 -90 209 -155 370 -30 74 -70 171
-88 215 -18 44 -80 197 -138 340 -58 143 -140 343 -182 445 -42 102 -108 264
-146 360 -39 96 -81 200 -94 230 -13 30 -55 134 -94 230 -38 96 -93 231 -121
300 -29 69 -107 262 -175 430 -342 845 -398 978 -424 1015 -33 47 -107 100
-159 115 -55 15 -130 11 -192 -9z"/>
<path d="M13590 8901 c-71 -22 -146 -84 -179 -150 -16 -32 -91 -212 -236 -571
-24 -58 -93 -229 -155 -380 -154 -376 -183 -450 -293 -720 -52 -129 -141 -347
-197 -485 -56 -137 -135 -331 -175 -430 -182 -446 -260 -638 -302 -740 -258
-631 -256 -625 -256 -705 0 -89 21 -146 79 -210 49 -54 91 -75 440 -215 159
-65 314 -128 344 -142 50 -23 127 -53 136 -53 9 0 31 50 159 360 12 30 65 161
118 290 52 129 120 296 150 370 30 74 103 254 162 400 59 146 123 303 142 350
20 47 53 128 75 180 21 52 52 129 67 170 16 42 65 163 109 270 44 107 119 292
166 410 81 200 118 290 151 365 7 17 71 176 143 355 120 301 205 510 252 620
54 125 120 291 120 299 0 5 -6 11 -12 14 -372 161 -732 311 -807 338 -55 19
-153 24 -201 10z"/>
<path d="M5515 8401 c-69 -24 -91 -37 -152 -83 -69 -53 -103 -106 -159 -252
-26 -66 -71 -177 -99 -246 -105 -252 -102 -295 49 -655 25 -60 46 -117 46
-125 0 -8 -28 -31 -62 -50 -178 -100 -339 -323 -400 -550 -30 -115 -32 -337
-4 -450 23 -90 259 -692 316 -805 86 -170 216 -310 378 -404 39 -23 119 -58
179 -78 98 -33 121 -37 243 -41 98 -3 158 0 219 12 47 8 86 15 87 13 1 -1 14
-31 27 -67 101 -261 142 -343 203 -409 65 -70 96 -87 364 -199 249 -103 297
-117 389 -109 86 7 231 63 231 88 0 10 -27 85 -60 166 -34 81 -148 364 -255
628 -208 516 -289 715 -465 1145 -62 151 -149 367 -195 480 -46 113 -108 268
-140 345 -31 77 -88 217 -126 310 -37 94 -82 204 -99 245 -40 95 -115 278
-242 590 -55 135 -120 294 -145 354 -42 104 -71 166 -76 166 -1 -1 -25 -9 -52
-19z m-58 -1991 c79 -196 184 -453 291 -710 35 -85 81 -200 102 -255 21 -55
59 -151 85 -214 36 -89 43 -116 33 -122 -26 -16 -190 -3 -248 20 -137 55 -219
143 -294 314 -81 186 -237 572 -252 624 -38 130 -6 318 72 424 44 60 102 111
121 107 10 -2 44 -74 90 -188z"/>
<path d="M14904 8408 c-5 -7 -46 -105 -92 -218 -167 -409 -266 -649 -359 -880
-218 -537 -255 -627 -358 -880 -59 -146 -143 -350 -185 -455 -43 -104 -140
-343 -215 -530 -75 -187 -176 -437 -225 -555 -115 -278 -236 -577 -310 -763
-58 -146 -58 -148 -37 -156 12 -5 51 -21 87 -35 83 -34 178 -43 250 -23 61 16
434 164 519 205 64 32 150 114 176 168 10 22 51 120 92 218 40 99 75 182 78
185 3 2 46 -3 95 -14 131 -26 322 -18 440 20 283 91 493 286 607 564 24 58 64
158 89 221 25 63 74 185 109 270 92 226 99 255 99 450 0 139 -3 178 -22 249
-40 152 -130 309 -239 419 -60 60 -163 134 -204 147 -10 4 -19 12 -19 18 0 7
21 62 46 122 127 308 118 281 119 390 0 112 -7 139 -85 325 -26 63 -58 142
-71 175 -42 111 -97 210 -141 252 -23 23 -77 58 -118 77 -97 45 -116 50 -126
34z m283 -1860 c101 -104 152 -244 139 -384 -8 -85 -20 -123 -111 -339 -37
-88 -93 -224 -125 -303 -32 -78 -73 -167 -91 -198 -86 -143 -267 -236 -432
-221 -32 3 -61 7 -64 10 -2 3 7 34 22 69 14 34 61 151 105 258 181 449 212
526 225 555 8 17 55 131 104 255 104 260 133 330 144 348 11 16 32 4 84 -50z"/>
</g>
</svg>
