<?xml version="1.0" standalone="no"?>
<!DOCTYPE svg PUBLIC "-//W3C//DTD SVG 20010904//EN"
 "http://www.w3.org/TR/2001/REC-SVG-20010904/DTD/svg10.dtd">
<svg version="1.0" xmlns="http://www.w3.org/2000/svg"
 width="2048.000000pt" height="2048.000000pt" viewBox="0 0 2048.000000 2048.000000"
 preserveAspectRatio="xMidYMid meet">
<metadata>
Created by potrace 1.16, written by Peter Selinger 2001-2019
</metadata>
<g transform="translate(0.000000,2048.000000) scale(0.100000,-0.100000)"
fill="#18bcf2" stroke="none">
<path d="M8665 17400 c-43 -13 -95 -71 -106 -116 -4 -22 -9 -139 -9 -261 l0
-223 -285 0 c-264 0 -288 -1 -340 -21 -78 -29 -164 -114 -196 -194 l-24 -60
-5 -1300 -5 -1300 -255 0 -255 0 -5 690 -5 690 -26 56 c-37 78 -90 133 -164
170 l-63 31 -478 -1 c-533 0 -524 1 -616 -68 -52 -40 -86 -84 -115 -148 -16
-35 -19 -82 -23 -410 l-5 -370 -367 -2 c-344 -2 -369 -4 -422 -23 -74 -28
-157 -105 -193 -178 l-28 -57 -3 -1800 c-1 -990 0 -1814 3 -1832 12 -68 84
-124 164 -127 61 -1 104 18 138 63 l28 36 5 1780 5 1780 450 5 c326 4 456 8
471 17 12 7 35 28 53 48 17 20 32 37 33 38 1 1 5 205 8 452 l5 450 395 0 395
0 1 -750 c1 -748 1 -750 22 -792 28 -54 76 -90 138 -103 34 -7 200 -10 486 -8
l435 3 48 30 c32 20 56 45 72 74 l23 44 0 1369 0 1368 670 0 669 0 3 -1047 c3
-1121 1 -1065 52 -1121 52 -58 28 -56 686 -59 333 -2 628 0 656 3 61 6 123 43
150 88 17 28 19 57 22 304 l3 272 182 1 c100 0 313 2 472 2 l290 2 5 -585 c5
-550 6 -587 24 -623 58 -117 240 -128 308 -19 l23 37 1 1030 c1 567 2 1040 3
1053 l1 22 650 0 650 0 0 -1037 c0 -1170 -6 -1076 79 -1141 l43 -33 442 3 443
3 36 28 c73 56 77 74 77 362 l0 255 388 -2 387 -3 5 -1797 5 -1797 21 -28 c70
-94 197 -106 271 -25 18 20 35 49 38 66 3 17 4 852 3 1856 l-3 1825 -26 55
c-32 69 -99 139 -164 170 l-50 25 -471 3 c-460 2 -473 2 -528 -19 -68 -25
-152 -102 -184 -169 -33 -68 -42 -137 -42 -307 l0 -153 -207 2 -208 3 -5 965
c-4 710 -8 974 -17 998 -40 111 -130 201 -232 232 -64 20 -88 20 -776 18
l-710 -3 -67 -33 c-79 -39 -129 -92 -172 -181 l-31 -66 -5 -320 -5 -320 -525
-5 c-512 -5 -526 -6 -572 -27 -63 -29 -128 -96 -164 -169 -29 -58 -29 -61 -32
-261 l-4 -203 -429 0 -429 0 0 438 c0 240 -1 676 -3 967 -2 525 -2 531 -25
585 -46 113 -130 192 -235 220 -20 6 -161 12 -315 13 l-277 2 -3 240 c-3 265
-4 271 -72 326 -39 32 -106 44 -155 29z"/>
<path d="M8384 16170 c-25 -12 -49 -35 -62 -59 -20 -36 -22 -52 -22 -212 0
-162 2 -177 23 -213 53 -94 186 -101 248 -15 23 33 24 39 24 226 0 178 -1 193
-21 219 -50 68 -122 89 -190 54z"/>
<path d="M12654 15560 c-41 -13 -91 -70 -99 -113 -4 -19 -5 -94 -3 -168 3
-121 5 -137 26 -167 71 -99 224 -81 267 31 14 37 16 71 13 185 -3 123 -6 144
-24 168 -46 62 -111 85 -180 64z"/>
<path d="M8930 15461 c-19 -10 -45 -33 -57 -51 -22 -31 -23 -43 -23 -218 0
-172 2 -187 22 -220 22 -36 85 -71 127 -72 40 0 109 39 131 74 18 30 20 50 20
210 0 204 -9 235 -78 274 -48 27 -96 28 -142 3z"/>
<path d="M13059 14924 c-14 -9 -36 -32 -49 -51 -22 -32 -23 -44 -24 -186 -1
-167 7 -196 67 -241 40 -29 134 -30 173 0 63 47 69 63 72 220 4 129 2 148 -17
186 -29 61 -74 88 -142 88 -31 0 -65 -7 -80 -16z"/>
<path d="M6751 13184 c-18 -10 -45 -35 -60 -57 l-26 -40 -3 -330 c-3 -319 -2
-330 19 -373 11 -25 37 -56 57 -69 70 -48 177 -23 223 52 24 38 24 39 24 373
0 307 -2 338 -19 373 -10 20 -32 47 -49 59 -40 29 -121 34 -166 12z"/>
<path d="M9230 13182 c-20 -11 -46 -38 -60 -63 l-25 -44 0 -335 c0 -328 0
-336 22 -370 64 -102 203 -105 277 -6 20 26 21 42 24 364 3 334 2 337 -20 382
-43 84 -137 115 -218 72z"/>
<path d="M11714 13181 c-17 -10 -42 -34 -55 -53 l-24 -33 -3 -340 c-2 -337 -2
-340 21 -380 63 -110 204 -116 281 -12 20 28 21 39 21 375 l0 347 -24 39 c-13
21 -38 47 -55 57 -41 25 -121 25 -162 0z"/>
<path d="M14201 13183 c-18 -9 -45 -34 -60 -56 l-26 -40 -3 -330 c-3 -319 -2
-330 19 -373 28 -59 80 -94 139 -94 57 0 117 33 144 80 20 33 21 50 21 370 0
334 0 335 -24 376 -43 75 -134 104 -210 67z"/>
<path d="M6150 12843 c-24 -9 -70 -55 -88 -88 -11 -22 -17 -68 -20 -177 -4
-136 -3 -150 18 -192 58 -120 218 -128 285 -15 18 30 20 52 20 194 0 148 -2
163 -23 203 -29 55 -74 82 -132 81 -25 0 -52 -3 -60 -6z"/>
<path d="M7363 12828 c-18 -13 -42 -41 -55 -63 -21 -37 -22 -52 -23 -200 0
-144 2 -164 21 -195 62 -105 202 -109 278 -7 19 26 21 44 24 192 4 179 -4 210
-62 265 -39 36 -138 41 -183 8z"/>
<path d="M7987 12832 c-16 -11 -40 -36 -55 -56 -25 -36 -26 -44 -30 -194 -3
-148 -2 -159 20 -202 34 -67 79 -93 151 -88 69 5 103 27 135 88 20 39 22 59
22 180 0 157 -9 199 -54 248 -31 33 -39 36 -97 39 -51 3 -70 0 -92 -15z"/>
<path d="M8625 12840 c-29 -12 -62 -45 -82 -83 -14 -25 -18 -63 -21 -182 -3
-140 -2 -153 20 -194 32 -62 66 -84 135 -89 48 -3 64 0 92 20 73 50 76 60 76
251 0 193 -7 219 -75 264 -34 24 -105 30 -145 13z"/>
<path d="M9849 12827 c-18 -12 -44 -40 -56 -62 -21 -37 -23 -52 -23 -206 0
-156 1 -168 23 -199 64 -95 212 -93 275 3 27 40 27 42 24 200 -2 144 -4 164
-25 201 -46 84 -145 112 -218 63z"/>
<path d="M10484 12840 c-33 -13 -82 -77 -94 -122 -7 -25 -10 -97 -8 -177 3
-150 13 -178 72 -223 44 -33 147 -33 192 -1 56 40 64 72 64 255 0 152 -2 165
-23 201 -33 55 -72 77 -132 76 -27 0 -59 -4 -71 -9z"/>
<path d="M11089 12827 c-18 -12 -44 -40 -57 -62 -21 -38 -22 -49 -20 -212 l3
-173 42 -42 c39 -39 47 -42 105 -46 53 -3 68 0 98 20 19 13 45 43 58 68 22 43
23 53 19 196 -3 135 -6 154 -27 193 -32 56 -74 81 -137 81 -36 0 -60 -7 -84
-23z"/>
<path d="M12345 12831 c-40 -24 -71 -60 -84 -94 -6 -16 -11 -97 -11 -181 0
-143 2 -155 23 -187 12 -18 38 -44 57 -57 30 -20 44 -23 97 -20 53 3 68 9 94
33 52 49 59 78 59 243 0 133 -2 152 -22 192 -13 25 -38 55 -57 67 -43 29 -114
31 -156 4z"/>
<path d="M12955 12826 c-22 -14 -51 -43 -63 -65 -22 -39 -23 -49 -20 -205 3
-149 5 -167 24 -193 37 -49 82 -73 138 -73 69 0 115 26 144 81 22 42 23 52 20
204 -3 148 -5 163 -27 199 -48 77 -137 99 -216 52z"/>
<path d="M13580 12828 c-33 -17 -51 -35 -68 -68 -22 -42 -23 -55 -20 -212 l3
-168 42 -42 c39 -39 47 -42 105 -46 53 -3 68 0 97 20 73 49 76 60 76 246 0
143 -3 172 -19 205 -40 80 -132 108 -216 65z"/>
<path d="M6165 11954 c-156 -30 -321 -146 -414 -289 -30 -45 -81 -158 -145
-320 -54 -138 -361 -909 -683 -1715 -705 -1763 -789 -1978 -808 -2050 -18 -68
-23 -734 -6 -816 33 -166 152 -332 296 -415 27 -16 85 -40 128 -54 l78 -25
586 0 c647 0 628 -2 677 64 40 52 50 101 37 163 -15 64 -50 109 -106 134 -37
17 -78 19 -590 19 l-550 0 -51 24 c-53 24 -75 49 -114 126 -23 44 -24 50 -21
315 1 148 4 271 6 273 2 2 420 3 928 3 l926 0 104 69 c57 38 133 81 169 94
221 83 482 42 683 -109 33 -25 73 -47 90 -50 16 -2 175 -3 352 -2 l321 2 44
30 c49 34 88 102 88 152 0 67 -50 147 -112 179 -24 12 -270 15 -1665 16 -901
1 -1677 3 -1725 6 l-87 3 21 57 c12 31 82 208 156 392 74 184 158 396 187 470
30 74 82 207 118 295 86 211 129 318 360 900 400 1005 456 1148 571 1447 44
116 92 175 174 215 l57 28 4000 0 4000 0 50 -27 c55 -28 109 -78 130 -118 7
-14 29 -68 50 -120 20 -52 72 -183 115 -290 43 -107 194 -485 335 -840 141
-355 279 -701 307 -770 27 -69 99 -249 160 -400 165 -412 200 -500 271 -675
120 -295 218 -557 212 -564 -4 -3 -1299 -7 -2878 -8 -1580 -2 -2882 -5 -2894
-8 -30 -7 -90 -61 -109 -96 -18 -35 -18 -120 0 -162 19 -46 77 -97 120 -107
20 -4 1088 -8 2374 -9 1285 0 2601 0 2925 -1 l587 0 0 -282 c0 -312 -3 -330
-66 -391 -67 -67 36 -61 -1309 -67 -1177 -5 -1221 -6 -1259 -24 -109 -54 -136
-199 -54 -292 61 -69 -40 -64 1320 -64 1360 0 1282 -3 1418 63 135 66 264 225
314 385 19 63 20 88 19 445 -1 351 -3 383 -22 446 -27 88 -107 292 -723 1831
-283 707 -588 1470 -677 1695 -90 226 -176 435 -191 465 -80 159 -210 272
-397 343 l-58 22 -4040 2 c-3403 1 -4051 -1 -4110 -13z"/>
<path d="M10115 11310 c-120 -15 -207 -50 -281 -114 -64 -55 -77 -91 -85 -243
-4 -73 -13 -159 -20 -193 -16 -82 0 -137 56 -194 87 -89 237 -136 437 -136
186 0 329 44 412 127 69 69 79 111 57 243 -5 36 -13 113 -17 172 -4 60 -12
114 -18 122 -9 13 -37 7 -186 -40 -96 -29 -182 -54 -191 -54 -24 0 -59 43 -59
73 0 34 27 52 115 78 117 34 200 62 209 70 13 11 -85 57 -156 73 -83 19 -198
26 -273 16z"/>
<path d="M11725 11295 c-84 -23 -142 -52 -191 -97 -72 -66 -80 -91 -93 -273
-6 -88 -14 -181 -17 -207 -27 -220 383 -365 729 -258 174 54 267 170 237 295
-6 22 -14 106 -19 186 -8 115 -14 156 -30 187 -45 88 -176 166 -302 179 l-59
6 0 -91 c0 -50 -3 -98 -6 -107 -11 -27 -62 -45 -97 -33 -38 14 -47 42 -47 144
l0 84 -27 -1 c-16 0 -50 -6 -78 -14z"/>
<path d="M13415 11296 c-122 -30 -217 -95 -250 -169 -18 -42 -24 -77 -29 -185
-4 -73 -11 -144 -16 -158 -16 -42 -11 -111 11 -159 91 -194 515 -267 785 -135
91 44 133 85 159 155 17 44 17 51 2 143 -9 53 -18 142 -21 198 -5 116 -21 159
-84 216 -63 57 -186 107 -263 108 -26 0 -26 0 -31 -95 -4 -73 -10 -100 -23
-115 -23 -25 -75 -26 -105 -2 -20 16 -23 30 -28 115 -5 97 -5 97 -31 96 -14 0
-48 -6 -76 -13z"/>
<path d="M6630 11211 c-100 -21 -175 -90 -223 -205 -101 -242 -171 -443 -172
-492 0 -66 36 -123 98 -153 l44 -21 1034 2 c967 3 1036 4 1066 21 51 27 102
77 123 118 20 38 100 489 100 558 -1 57 -33 116 -81 148 l-43 28 -955 1 c-526
1 -972 -1 -991 -5z"/>
<path d="M8157 9956 c-46 -17 -64 -32 -83 -68 -11 -21 -134 -612 -134 -642 0
-2 -40 -5 -88 -8 -58 -4 -104 -12 -135 -26 -98 -43 -122 -158 -54 -256 26 -37
90 -66 150 -66 31 0 47 -4 47 -13 0 -7 -22 -125 -50 -262 -27 -138 -53 -277
-56 -311 -6 -60 -6 -62 30 -102 60 -66 138 -78 214 -31 46 27 68 69 82 157 14
89 88 506 95 540 5 21 10 22 99 22 116 0 167 23 203 90 43 80 24 165 -49 223
-31 25 -49 30 -108 35 l-70 5 6 36 c3 20 26 139 50 265 47 247 53 311 29 356
-28 53 -112 80 -178 56z"/>
<path d="M9538 9958 c-48 -13 -114 -70 -127 -111 -12 -38 -51 -377 -51 -444 0
-60 29 -106 83 -132 39 -19 65 -21 427 -25 212 -3 411 -1 443 4 66 10 117 43
145 93 15 28 17 63 17 277 0 276 0 275 -80 322 -40 23 -42 23 -430 25 -234 1
-405 -3 -427 -9z"/>
<path d="M10927 9960 c-44 -13 -98 -59 -113 -96 -11 -27 -13 -79 -7 -271 l6
-237 34 -37 c63 -69 70 -70 529 -72 l409 -2 49 25 c35 18 55 37 70 65 l20 39
-26 233 c-29 263 -36 284 -116 331 l-47 27 -390 2 c-214 1 -403 -2 -418 -7z"/>
<path d="M12307 9960 c-46 -14 -94 -57 -107 -95 -9 -27 -8 -55 4 -132 9 -54
25 -155 35 -225 21 -142 36 -176 96 -219 64 -46 116 -50 541 -45 350 5 390 7
418 24 39 23 76 77 76 112 0 37 -99 438 -116 471 -21 42 -91 96 -139 108 -52
13 -765 14 -808 1z"/>
<path d="M13683 9959 c-39 -11 -91 -62 -100 -97 -8 -33 3 -82 66 -293 60 -205
71 -229 124 -266 75 -53 85 -55 530 -55 360 -1 416 1 443 15 60 31 81 90 59
165 -31 102 -157 418 -180 447 -12 17 -47 44 -76 60 l-54 30 -390 2 c-221 1
-404 -2 -422 -8z"/>
<path d="M6320 9634 c-284 -34 -508 -133 -610 -268 -72 -96 -78 -128 -82 -496
l-3 -325 27 -52 c65 -122 226 -239 403 -291 238 -71 473 -76 720 -17 211 51
398 180 459 316 l28 60 -4 322 c-4 306 -5 325 -27 379 -12 31 -30 67 -39 78
l-17 21 -225 -75 c-353 -118 -376 -121 -398 -58 -21 62 -10 69 255 157 133 44
245 83 248 87 10 10 -150 86 -239 113 -44 13 -110 29 -146 35 -73 11 -297 20
-350 14z m677 -917 l6 -95 -42 -44 c-54 -60 -139 -103 -258 -134 -136 -36
-365 -38 -493 -7 -159 40 -277 99 -305 154 -17 32 -21 219 -6 219 5 0 43 -13
84 -30 128 -51 228 -71 393 -77 210 -8 406 24 554 90 30 14 56 24 58 22 2 -1
6 -45 9 -98z"/>
<path d="M9670 8989 c0 -6 9 -24 20 -39 35 -49 78 -143 94 -205 13 -52 96
-562 96 -593 0 -9 52 -12 188 -12 214 0 269 11 329 63 61 54 63 65 63 382 0
306 -1 315 -52 362 -54 50 -74 53 -418 53 -225 0 -320 -3 -320 -11z"/>
<path d="M10919 8972 c-30 -15 -64 -43 -76 -61 -23 -33 -23 -40 -23 -323 0
-323 2 -333 66 -387 72 -59 94 -61 554 -61 346 0 425 3 468 15 65 20 118 70
128 122 4 22 -5 147 -24 312 -30 261 -33 277 -59 315 -17 24 -50 51 -82 68
l-53 28 -423 0 -423 0 -53 -28z"/>
<path d="M12435 8981 c-50 -22 -92 -71 -100 -114 -3 -18 12 -156 34 -307 46
-314 51 -328 151 -384 l55 -31 420 -3 c231 -2 443 -1 472 3 60 7 108 36 140
84 29 42 29 84 2 181 -11 41 -43 163 -70 270 -55 220 -70 247 -159 293 l-54
27 -425 0 c-392 0 -429 -2 -466 -19z"/>
<path d="M13954 8989 c-18 -5 -48 -27 -68 -49 -44 -49 -46 -82 -12 -201 13
-46 45 -163 71 -259 26 -96 53 -187 61 -201 18 -36 79 -88 133 -113 45 -20 59
-21 506 -21 459 0 460 0 502 23 86 45 95 106 39 249 -19 48 -64 167 -101 263
-36 96 -73 186 -82 200 -21 33 -58 65 -108 93 -40 22 -45 22 -475 24 -244 1
-449 -2 -466 -8z"/>
<path d="M9010 8954 c-73 -20 -126 -52 -182 -112 -80 -85 -94 -127 -143 -408
-20 -115 -42 -238 -50 -274 -8 -36 -30 -159 -50 -275 -20 -115 -58 -331 -85
-480 -26 -148 -65 -364 -85 -480 -20 -115 -52 -298 -72 -405 -83 -462 -144
-806 -248 -1400 -88 -506 -123 -695 -137 -730 l-10 -25 -13 25 c-17 33 -97
320 -184 660 -39 151 -109 421 -156 600 -47 179 -112 432 -145 564 -140 552
-198 745 -254 840 -35 60 -127 143 -193 174 -50 23 -71 27 -153 27 -86 0 -101
-3 -160 -31 -81 -39 -161 -116 -201 -195 -16 -33 -86 -225 -155 -427 -69 -202
-137 -396 -151 -432 -36 -88 -124 -177 -208 -211 l-60 -24 -845 -5 c-935 -6
-875 -1 -934 -70 -77 -92 -44 -235 67 -289 43 -21 50 -21 876 -21 720 0 842 2
909 16 238 49 437 212 546 448 15 32 74 203 133 380 58 176 119 356 135 399
36 93 54 100 86 30 23 -51 108 -363 240 -883 45 -173 112 -434 150 -580 39
-146 103 -391 142 -545 40 -154 87 -338 106 -410 43 -166 88 -257 165 -330
103 -99 226 -135 343 -101 115 34 195 109 257 241 41 87 62 179 129 570 17 99
44 250 60 335 16 85 43 238 60 340 17 102 54 311 81 465 27 154 70 393 94 530
24 138 60 340 80 450 20 110 65 364 100 565 35 201 78 439 95 530 31 167 86
461 97 514 4 21 8 25 13 15 8 -14 107 -613 135 -819 8 -63 33 -230 55 -370 22
-140 55 -364 74 -496 71 -484 124 -778 155 -861 43 -111 96 -197 167 -268 105
-107 204 -151 372 -165 93 -7 108 -11 140 -37 62 -48 97 -134 146 -358 25
-110 61 -267 80 -350 43 -186 197 -859 260 -1137 59 -261 78 -317 131 -398 83
-125 191 -191 321 -198 181 -10 307 75 404 273 42 84 67 182 201 775 33 146
80 348 104 450 25 102 65 273 89 380 150 656 191 835 232 1010 144 611 169
702 200 714 24 9 67 -41 97 -114 14 -36 76 -202 138 -370 61 -168 166 -453
234 -635 67 -181 149 -404 183 -495 127 -346 175 -468 214 -548 147 -309 526
-386 758 -153 90 89 103 116 362 736 111 265 185 371 296 423 l57 27 775 5
c845 5 803 2 856 62 36 39 47 70 47 129 0 67 -28 123 -80 159 l-37 25 -815 0
-816 0 -83 -32 c-112 -43 -184 -89 -268 -170 -126 -122 -152 -170 -329 -593
-59 -140 -123 -293 -143 -340 -75 -178 -130 -226 -195 -166 -50 46 -32 2 -603
1541 -79 215 -159 428 -176 475 -78 211 -154 311 -285 373 -63 30 -76 32 -173
32 -99 0 -109 -2 -174 -34 -115 -56 -203 -163 -251 -306 -9 -27 -39 -144 -65
-260 -63 -269 -159 -683 -255 -1095 -41 -179 -86 -372 -100 -430 -13 -58 -35
-152 -48 -210 -14 -58 -64 -276 -112 -485 -134 -584 -152 -660 -175 -709 -33
-70 -45 -75 -69 -28 -20 39 -95 333 -147 572 -14 69 -52 235 -84 370 -32 135
-63 268 -69 295 -67 306 -158 688 -182 759 -90 270 -296 445 -524 446 -107 0
-150 22 -214 110 -17 24 -38 67 -46 94 -8 28 -42 224 -75 436 -33 212 -69 441
-80 510 -11 69 -40 260 -64 425 -159 1065 -172 1137 -210 1221 -52 114 -143
195 -256 228 -65 19 -98 19 -170 0z"/>
<path d="M10286 6639 c-152 -36 -187 -249 -55 -336 l43 -28 555 -3 c306 -2
571 0 589 3 43 8 101 60 124 113 41 92 -11 203 -114 246 -32 14 -110 16 -570
15 -293 -1 -550 -5 -572 -10z"/>
</g>
</svg>
