<?xml version="1.0" standalone="no"?>
<!DOCTYPE svg PUBLIC "-//W3C//DTD SVG 20010904//EN"
 "http://www.w3.org/TR/2001/REC-SVG-20010904/DTD/svg10.dtd">
<svg version="1.0" xmlns="http://www.w3.org/2000/svg"
 width="2048.000000pt" height="2048.000000pt" viewBox="0 0 2048.000000 2048.000000"
 preserveAspectRatio="xMidYMid meet">
<metadata>
Created by potrace 1.16, written by Peter Selinger 2001-2019
</metadata>
<g transform="translate(0.000000,2048.000000) scale(0.100000,-0.100000)"
fill="#18bcf2" stroke="none">
<path d="M15030 17055 c-282 -79 -461 -297 -460 -561 1 -141 37 -237 126 -333
176 -190 455 -177 454 21 0 64 -35 117 -95 146 -106 50 -120 60 -143 103 -59
109 31 250 187 296 138 40 293 -37 355 -178 59 -129 57 -278 -4 -437 -54 -139
-186 -298 -357 -426 -90 -68 -289 -165 -408 -201 -133 -39 -162 -54 -175 -85
-16 -38 -10 -59 23 -84 42 -31 177 -28 317 8 357 89 645 281 825 552 180 270
204 628 60 869 -72 120 -204 231 -341 286 -70 29 -92 33 -194 36 -81 2 -131
-2 -170 -12z"/>
<path d="M11163 16790 c-77 -14 -190 -56 -252 -93 -29 -17 -86 -64 -126 -104
-138 -137 -187 -295 -188 -603 -1 -352 66 -614 201 -786 34 -43 59 -63 109
-86 59 -28 71 -30 135 -25 l69 6 19 -45 c22 -51 88 -151 118 -177 24 -21 85
-25 107 -7 8 6 28 36 44 65 61 107 133 166 296 244 44 21 96 52 115 69 l35 30
6 113 c5 104 11 127 58 264 29 83 64 193 77 245 55 220 12 467 -111 622 -91
116 -240 217 -377 254 -66 18 -266 26 -335 14z"/>
<path d="M12968 15910 c-100 -16 -140 -47 -163 -128 -9 -30 -38 -100 -65 -156
-26 -55 -62 -150 -80 -211 -17 -60 -42 -126 -55 -146 -28 -43 -178 -182 -276
-256 -64 -49 -74 -53 -108 -47 -60 11 -133 41 -191 80 -75 49 -116 54 -158 19
-39 -32 -105 -166 -169 -338 -24 -66 -51 -132 -59 -147 -18 -30 -229 -161
-344 -214 -82 -37 -160 -60 -285 -82 -119 -21 -145 -19 -145 9 0 32 45 204 84
322 58 172 57 240 -5 265 -37 16 -80 7 -177 -34 -42 -18 -151 -59 -242 -91
-91 -31 -196 -74 -235 -94 -88 -45 -180 -131 -311 -292 -57 -70 -111 -129
-119 -133 -21 -8 -323 -8 -352 0 -42 11 -112 215 -86 250 4 6 43 28 87 48 160
77 193 140 183 348 -5 102 -11 134 -47 240 -89 268 -258 518 -425 631 -33 23
-96 53 -140 69 -70 24 -95 28 -201 28 -144 0 -237 -21 -363 -83 -84 -40 -189
-131 -252 -214 -24 -32 -27 -33 -111 -37 -148 -7 -258 -77 -318 -200 -60 -125
-60 -266 0 -409 68 -159 180 -248 328 -262 137 -13 140 -13 210 -77 71 -65
157 -112 267 -148 99 -32 120 -44 143 -84 65 -109 68 -235 16 -543 -30 -181
-35 -233 -30 -303 10 -149 72 -324 195 -548 45 -82 45 -76 -13 -208 -97 -219
-69 -444 73 -584 89 -88 216 -140 341 -140 58 0 80 -21 80 -76 0 -60 -30 -97
-155 -190 -226 -166 -358 -299 -671 -674 -201 -242 -400 -451 -527 -554 -319
-258 -662 -408 -1122 -487 -111 -20 -166 -23 -375 -23 -223 0 -259 2 -400 27
-335 59 -548 17 -704 -138 -147 -147 -206 -327 -207 -635 0 -318 53 -592 172
-892 84 -213 184 -379 353 -587 206 -254 486 -450 813 -570 186 -68 271 -70
337 -8 45 43 62 103 46 165 -13 54 -31 80 -124 187 -151 174 -246 352 -246
460 0 97 108 114 255 41 161 -79 305 -209 550 -491 348 -402 541 -561 880
-726 280 -136 473 -186 760 -196 344 -12 670 51 1100 213 478 180 682 232 855
221 148 -10 256 -59 306 -138 l24 -39 160 80 160 80 -15 38 c-60 144 -216 265
-422 324 -68 20 -101 23 -253 23 -147 0 -192 -4 -280 -23 -128 -29 -411 -121
-656 -212 -214 -81 -424 -142 -584 -172 -157 -29 -464 -32 -590 -5 -191 41
-368 113 -564 232 -215 129 -390 288 -613 555 -183 219 -350 384 -476 469 -27
18 -47 34 -45 36 2 2 73 38 158 80 496 246 883 526 1265 916 238 243 415 467
588 744 123 198 168 290 175 354 3 40 0 52 -23 79 -23 28 -33 32 -76 32 -44 0
-54 -5 -93 -41 -25 -22 -110 -126 -189 -232 -213 -282 -334 -422 -528 -612
-305 -298 -601 -526 -956 -737 -181 -107 -566 -292 -811 -389 -177 -70 -242
-103 -293 -148 -56 -50 -108 -136 -125 -209 -16 -67 -18 -209 -3 -271 5 -24 8
-46 5 -48 -3 -3 -50 39 -105 92 -248 240 -425 594 -497 990 -26 145 -26 508 0
579 65 177 165 214 440 162 206 -39 347 -50 551 -43 259 9 476 43 726 115 314
90 554 212 838 424 227 169 473 427 816 851 89 112 307 321 457 441 170 135
194 162 249 271 85 171 76 369 -29 598 l-35 78 101 102 c134 135 179 192 245
312 56 100 137 316 137 367 0 40 23 55 92 62 35 4 92 12 128 18 100 16 110 12
145 -56 28 -55 30 -67 30 -165 -1 -102 -2 -110 -47 -223 -72 -184 -73 -191
-73 -488 1 -253 2 -270 27 -370 50 -198 122 -394 217 -595 59 -125 105 -206
401 -705 203 -344 190 -320 318 -575 201 -400 350 -791 461 -1210 105 -394
183 -873 211 -1303 6 -92 14 -199 18 -239 l7 -71 135 55 c74 30 154 61 178 70
40 14 42 17 42 57 0 153 -60 693 -105 941 -20 113 -28 171 -21 165 10 -11 170
-266 255 -410 48 -80 112 -183 143 -230 30 -47 94 -145 141 -217 58 -90 92
-133 104 -133 10 0 97 18 193 39 292 66 530 101 690 101 59 0 80 3 80 13 0 16
-141 256 -277 472 -333 530 -587 1004 -726 1355 -90 228 -157 430 -143 430 4
0 434 -435 577 -585 248 -259 309 -337 415 -529 63 -113 99 -146 160 -146 94
0 165 63 211 189 26 71 28 85 27 231 0 123 -4 172 -21 240 -84 334 -252 601
-702 1115 -422 481 -614 758 -778 1123 -226 499 -301 987 -217 1400 46 222
162 572 219 655 19 29 26 32 70 31 28 0 129 -19 225 -41 230 -54 367 -79 525
-98 235 -27 490 -15 611 28 93 34 178 107 222 191 25 47 27 60 27 171 -1 158
-33 265 -147 490 -85 168 -166 295 -377 595 -69 98 -105 127 -182 151 -38 12
-76 27 -84 35 -7 8 -16 44 -19 81 -32 356 -115 529 -285 594 -64 25 -218 34
-313 19z m32 -475 c48 -25 74 -79 73 -155 -1 -95 -27 -147 -134 -265 -20 -22
-82 -92 -139 -155 -158 -177 -470 -489 -624 -624 -207 -180 -232 -201 -338
-277 -180 -129 -297 -180 -563 -249 -345 -90 -602 -136 -1136 -205 -191 -24
-359 -49 -375 -55 -43 -17 -93 -69 -100 -106 -8 -41 25 -116 60 -140 22 -14
41 -16 106 -11 44 3 80 4 80 2 0 -10 -34 -94 -69 -169 -77 -164 -231 -360
-290 -368 -20 -2 -33 10 -79 77 -72 104 -232 366 -272 444 -44 88 -87 225 -95
303 -18 178 70 340 225 415 121 59 178 65 635 65 589 1 883 20 1154 74 247 50
396 123 836 409 44 28 121 78 170 109 382 245 645 458 722 586 17 28 60 153
90 265 6 20 22 45 30 45 2 0 17 -7 33 -15z m220 -537 c0 -7 35 -80 77 -163
162 -320 178 -355 165 -355 -26 0 -104 30 -212 80 -69 32 -169 79 -223 104
l-99 46 106 117 c58 65 118 132 133 150 29 33 53 42 53 21z m-1914 -1560 c-53
-283 -45 -651 19 -903 44 -175 100 -255 180 -255 18 0 93 25 166 56 74 30 167
64 207 75 99 28 123 18 152 -59 12 -31 19 -65 16 -76 -4 -14 -45 -42 -125 -84
-65 -35 -172 -95 -237 -134 -165 -98 -247 -138 -284 -138 -34 0 -75 37 -228
207 -45 50 -92 95 -103 98 -27 9 -56 -19 -144 -140 -39 -52 -73 -95 -77 -95
-11 0 -37 101 -59 231 -17 99 -20 154 -17 293 3 165 5 174 37 261 69 188 83
257 78 390 -3 84 -11 140 -26 185 -11 36 -21 70 -21 76 0 6 51 21 113 33 61
13 168 37 237 55 92 23 126 28 128 19 2 -7 -4 -50 -12 -95z"/>
<path d="M15370 14959 c-62 -11 -161 -54 -217 -96 -132 -97 -206 -242 -207
-399 0 -70 3 -87 24 -117 32 -46 69 -67 120 -67 89 0 132 43 141 144 12 121
62 190 157 216 144 38 286 -67 308 -228 7 -58 -12 -127 -57 -207 -103 -183
-379 -363 -728 -476 -144 -47 -168 -64 -155 -114 4 -15 21 -36 38 -47 27 -17
42 -18 121 -13 115 9 278 38 381 69 256 77 493 237 610 413 121 181 152 377
87 556 -34 96 -77 160 -151 229 -128 118 -294 166 -472 137z"/>
<path d="M6075 14328 c-27 -5 -88 -27 -135 -50 -69 -33 -101 -57 -171 -127
-140 -141 -201 -295 -201 -506 -1 -216 69 -377 233 -546 241 -245 638 -387
1008 -359 197 15 347 54 542 140 159 70 249 138 249 187 0 30 -42 73 -72 73
-13 0 -86 -18 -163 -40 -194 -57 -320 -80 -460 -87 -339 -16 -648 89 -848 288
-137 137 -187 329 -127 490 28 75 95 155 155 184 150 74 355 -6 380 -147 11
-60 -4 -98 -60 -158 -63 -67 -75 -88 -75 -135 0 -51 21 -95 64 -133 32 -28 44
-32 92 -32 74 0 115 19 177 83 151 155 180 381 74 581 -43 81 -155 193 -236
235 -122 64 -282 86 -426 59z"/>
<path d="M14775 12988 c-420 -35 -874 -360 -1084 -776 -78 -155 -141 -351
-141 -439 0 -71 56 -112 111 -83 10 6 40 52 65 103 160 317 304 501 529 672
71 54 251 144 350 175 89 28 260 38 336 20 76 -18 164 -64 219 -116 171 -160
149 -433 -42 -530 -94 -47 -176 -42 -243 18 -39 34 -52 70 -54 152 -1 72 -27
119 -82 146 -80 41 -176 17 -216 -55 -53 -95 -52 -230 3 -343 41 -85 153 -193
245 -237 342 -161 761 67 835 453 36 191 -2 375 -112 529 -156 218 -427 336
-719 311z"/>
<path d="M5446 12525 c-293 -61 -492 -224 -551 -452 -24 -93 -20 -240 10 -330
64 -191 218 -327 418 -370 169 -36 338 14 462 136 128 125 145 259 42 321 -71
44 -158 13 -223 -79 -38 -53 -92 -75 -174 -69 -115 8 -198 99 -208 226 -6 91
21 154 94 221 94 86 216 121 444 128 173 5 240 -2 512 -58 100 -21 108 -21
132 -5 33 21 43 62 25 95 -31 54 -325 181 -524 226 -99 23 -370 29 -459 10z"/>
<path d="M9980 10097 c-43 -21 -57 -70 -84 -297 -32 -273 -65 -456 -127 -695
-83 -327 -164 -545 -304 -825 -65 -130 -220 -405 -265 -470 -37 -54 -71 -134
-72 -169 -1 -105 108 -167 199 -111 73 44 305 375 421 600 159 309 263 607
333 949 52 256 70 431 72 696 2 232 1 241 -20 276 -35 55 -97 74 -153 46z"/>
<path d="M14005 7394 c-22 -2 -98 -9 -170 -15 -506 -41 -1078 -195 -1675 -452
-391 -168 -677 -315 -1120 -574 -537 -315 -679 -399 -865 -510 -664 -397
-1179 -674 -1586 -851 -162 -70 -573 -224 -714 -267 -275 -83 -580 -150 -853
-186 -203 -27 -569 -36 -753 -19 -501 46 -945 200 -1379 478 -121 78 -163 95
-221 90 -121 -12 -188 -139 -135 -255 27 -60 143 -148 360 -273 378 -217 833
-357 1331 -409 50 -6 223 -8 385 -7 235 3 329 8 460 25 403 54 731 133 1131
270 l177 61 83 -86 c110 -113 371 -345 495 -441 55 -42 101 -77 103 -79 10 -9
-13 -17 -140 -49 -294 -73 -586 -83 -913 -31 -201 33 -223 33 -271 0 -53 -35
-72 -62 -85 -114 -18 -76 20 -160 91 -199 39 -22 165 -51 319 -72 139 -20 533
-17 685 4 225 32 506 114 769 224 371 156 778 403 1286 783 85 63 160 119 167
123 7 4 36 -5 70 -21 98 -50 371 -167 506 -218 70 -26 127 -50 127 -53 0 -10
-154 -128 -257 -197 -119 -80 -326 -183 -448 -223 -156 -51 -256 -65 -490 -65
l-210 -1 -135 -81 c-74 -44 -174 -102 -222 -128 -49 -26 -88 -51 -88 -56 0 -5
24 -15 53 -24 311 -89 704 -107 1015 -46 451 89 909 381 1384 883 93 99 244
265 336 370 353 403 638 690 833 836 248 186 477 293 733 342 155 30 375 23
521 -15 132 -35 305 -115 443 -205 121 -79 167 -93 224 -71 84 34 128 94 128
174 0 91 -35 136 -181 231 -112 74 -263 151 -409 210 -591 238 -1278 242
-1936 12 -541 -189 -1030 -474 -1790 -1043 l-230 -173 -271 137 -271 136 -103
-64 c-57 -35 -141 -86 -187 -113 l-83 -50 38 -17 c49 -22 516 -270 525 -278
12 -12 -441 -332 -635 -448 -165 -99 -335 -193 -399 -220 l-57 -24 -78 48
c-117 70 -248 163 -343 242 -109 91 -320 289 -320 300 0 5 51 32 113 62 193
91 467 228 582 290 328 180 846 480 1171 679 321 197 703 416 997 574 679 363
1308 601 1849 700 713 129 1325 82 1872 -147 210 -87 362 -170 551 -299 208
-142 427 -336 551 -490 72 -88 127 -122 199 -122 115 0 201 111 172 223 -24
94 -341 421 -588 607 -583 438 -1221 653 -1979 666 -113 2 -223 3 -245 1z
m-660 -1466 c-56 -35 -90 -61 -255 -198 -205 -170 -385 -354 -715 -730 -181
-206 -246 -279 -337 -375 l-57 -60 -88 29 c-97 32 -554 213 -565 224 -4 4 54
52 128 107 75 55 175 129 222 164 133 98 501 339 649 425 222 127 507 265 683
329 83 31 355 115 375 116 6 0 -12 -13 -40 -31z"/>
<path d="M5980 6793 c-526 -51 -878 -146 -1270 -343 -329 -165 -601 -362 -858
-621 -176 -178 -214 -248 -183 -342 18 -54 89 -114 144 -122 80 -12 101 2 294
193 267 266 447 398 742 547 244 123 450 186 702 215 153 18 467 8 588 -18
308 -68 670 -251 961 -486 106 -86 275 -238 339 -305 29 -31 102 -105 160
-166 120 -124 279 -297 300 -327 11 -17 21 -19 55 -15 59 8 326 116 326 132 0
13 -20 37 -155 190 -121 137 -443 472 -547 570 -127 119 -313 268 -459 365
-66 45 -119 84 -116 87 10 10 338 -69 535 -128 387 -117 862 -314 1350 -560
l253 -128 112 58 c62 32 136 73 165 90 29 17 56 31 60 31 4 0 18 9 31 19 l25
19 -35 22 c-19 11 -182 95 -364 185 -1066 528 -1763 755 -2539 830 -142 13
-513 19 -616 8z"/>
<path d="M16215 5156 c-16 -7 -84 -59 -150 -116 -146 -125 -250 -200 -392
-286 -762 -459 -1610 -611 -2578 -463 -132 20 -434 77 -446 85 -4 2 -30 -22
-60 -54 -29 -31 -80 -86 -113 -122 -33 -36 -75 -81 -94 -101 l-33 -36 148 -37
c208 -51 414 -88 713 -127 209 -27 712 -38 937 -20 753 60 1488 344 2043 791
225 180 278 249 266 344 -6 56 -46 120 -87 142 -35 17 -114 18 -154 0z"/>
</g>
</svg>
