<?xml version="1.0" standalone="no"?>
<!DOCTYPE svg PUBLIC "-//W3C//DTD SVG 20010904//EN"
 "http://www.w3.org/TR/2001/REC-SVG-20010904/DTD/svg10.dtd">
<svg version="1.0" xmlns="http://www.w3.org/2000/svg"
 width="2048.000000pt" height="2048.000000pt" viewBox="0 0 2048.000000 2048.000000"
 preserveAspectRatio="xMidYMid meet">
<metadata>
Created by potrace 1.16, written by Peter Selinger 2001-2019
</metadata>
<g transform="translate(0.000000,2048.000000) scale(0.100000,-0.100000)"
fill="#18bcf2" stroke="none">
<path d="M10167 17064 c-1 -2 -59 -4 -127 -5 -301 -5 -629 -47 -977 -124 -169
-38 -383 -94 -473 -125 -476 -163 -744 -286 -1135 -520 -247 -148 -529 -350
-700 -501 -16 -14 -57 -50 -90 -79 -124 -109 -402 -390 -509 -515 -312 -364
-544 -712 -744 -1115 -53 -108 -103 -209 -110 -225 -7 -17 -28 -64 -47 -106
-42 -95 -51 -153 -35 -221 18 -77 42 -118 98 -170 67 -63 111 -81 202 -82 63
-1 84 3 132 27 81 40 126 96 183 229 112 264 301 608 462 843 219 318 558 696
839 932 27 23 59 50 70 60 12 10 36 29 54 43 18 14 69 54 114 88 124 99 344
240 566 365 447 251 940 424 1470 516 332 58 522 72 895 67 291 -4 450 -17
713 -57 365 -55 837 -195 1147 -339 479 -222 826 -442 1190 -755 156 -134 409
-386 513 -510 41 -49 92 -110 112 -135 226 -270 465 -663 639 -1050 29 -63 59
-130 68 -149 22 -47 88 -117 142 -149 40 -24 56 -27 126 -26 132 2 228 63 280
177 55 119 46 172 -68 422 -115 254 -189 393 -316 595 -12 19 -43 70 -69 112
-162 265 -447 621 -693 867 -142 143 -313 300 -394 362 -16 13 -39 32 -50 42
-80 73 -422 317 -585 416 -455 278 -894 469 -1379 601 -259 71 -685 152 -866
165 -49 4 -101 9 -115 11 -40 6 -528 23 -533 18z"/>
<path d="M10100 15697 c-3 -2 -63 -7 -135 -11 -71 -3 -157 -11 -190 -16 -33
-5 -82 -12 -110 -15 -88 -11 -316 -55 -445 -87 -474 -116 -976 -355 -1390
-661 -177 -131 -249 -195 -475 -421 -325 -326 -553 -650 -755 -1071 -122 -254
-125 -263 -125 -375 0 -111 16 -151 88 -217 65 -60 100 -75 193 -81 72 -4 88
-2 135 20 101 46 138 92 214 268 106 243 169 358 306 560 238 353 609 718 954
941 107 69 134 85 209 125 39 20 86 46 105 58 33 20 98 51 251 119 181 81 625
198 855 227 353 44 676 39 1005 -16 498 -82 949 -260 1364 -537 76 -51 278
-208 356 -276 123 -109 315 -312 406 -431 210 -272 311 -439 477 -790 81 -170
109 -205 195 -246 119 -56 255 -26 347 79 59 68 78 126 73 225 -3 65 -11 94
-52 187 -301 683 -746 1246 -1311 1657 -711 516 -1498 773 -2405 787 -75 1
-138 0 -140 -2z"/>
<path d="M9990 14323 c-368 -37 -674 -129 -999 -299 -220 -116 -486 -307 -475
-342 5 -14 4 -14 -4 -3 -9 12 -25 2 -87 -54 -80 -71 -235 -243 -319 -353 -123
-162 -276 -431 -351 -617 -71 -179 -5 -356 163 -433 72 -33 172 -28 251 12 71
35 103 73 154 181 125 268 231 439 370 597 201 230 393 377 662 507 289 141
493 190 821 198 345 9 570 -31 862 -153 393 -164 768 -496 984 -869 26 -44 78
-145 116 -225 75 -159 120 -213 209 -252 97 -43 238 -11 322 73 61 62 85 121
86 214 0 95 -12 129 -120 345 -292 583 -762 1026 -1360 1280 -230 98 -498 167
-740 189 -87 8 -474 11 -545 4z"/>
<path d="M10150 12871 c-48 -15 -95 -44 -200 -124 -142 -109 -481 -449 -614
-617 -646 -815 -986 -1839 -928 -2797 42 -686 237 -1304 611 -1933 98 -164
324 -475 447 -613 14 -16 23 -31 20 -34 -6 -6 -387 32 -475 47 -30 6 -59 17
-67 27 -60 79 -200 289 -279 418 -231 379 -403 790 -519 1237 -53 207 -83 379
-111 633 -22 193 -26 532 -10 745 13 179 75 541 130 757 30 118 40 103 -135
201 -328 182 -602 289 -1001 391 -513 131 -1001 170 -1463 115 -148 -17 -206
-37 -267 -92 -90 -81 -115 -167 -145 -505 -19 -212 -14 -551 11 -762 102 -865
430 -1645 957 -2275 129 -155 341 -369 488 -495 695 -595 1605 -958 2626
-1046 197 -18 649 -16 809 1 164 19 247 19 410 0 160 -18 629 -19 830 -1 322
28 626 83 940 171 404 113 823 294 1155 500 144 89 155 97 325 222 364 268
733 665 960 1033 37 61 75 121 85 135 66 98 198 361 289 576 157 374 271 852
310 1299 30 351 -8 929 -69 1047 -51 100 -142 161 -269 183 -137 24 -408 38
-587 31 -418 -15 -734 -68 -1146 -190 -248 -74 -411 -139 -653 -261 -231 -116
-305 -162 -305 -188 0 -10 11 -62 24 -115 62 -246 113 -542 123 -717 16 -264
9 -635 -16 -840 -84 -697 -345 -1388 -754 -2000 -33 -49 -60 -95 -60 -102 0
-7 -4 -10 -8 -7 -4 2 -22 -17 -39 -42 -25 -37 -29 -49 -18 -56 10 -8 10 -9 -2
-5 -8 2 -20 -2 -26 -8 -12 -11 -290 -48 -462 -62 l-84 -6 130 165 c171 216
250 330 362 518 142 238 257 481 368 775 82 217 168 573 209 865 25 180 25
722 0 900 -81 574 -212 987 -466 1475 -172 329 -365 605 -622 890 -195 216
-511 489 -607 525 -54 21 -162 26 -212 11z"/>
<path d="M5585 6213 c-263 -9 -549 -41 -826 -92 -412 -76 -1080 -273 -1202
-354 -110 -74 -160 -185 -139 -307 28 -156 141 -258 297 -267 63 -4 82 0 185
37 606 218 1043 315 1585 350 314 20 614 8 925 -36 354 -51 554 -105 1255
-339 662 -221 854 -275 1245 -349 542 -102 865 -132 1395 -130 288 1 573 19
775 49 52 7 115 17 140 20 335 46 745 137 1080 240 134 41 364 117 595 197
392 135 684 220 920 267 319 65 619 91 975 86 568 -8 1051 -99 1699 -321 205
-70 229 -76 282 -71 116 10 218 78 266 175 24 49 28 69 28 142 -1 72 -5 93
-27 136 -28 54 -86 112 -140 140 -87 45 -494 175 -778 248 -506 131 -958 186
-1460 180 -650 -8 -1168 -108 -1915 -369 -1106 -386 -1750 -508 -2600 -492
-419 8 -725 40 -1110 118 -429 86 -729 173 -1330 384 -536 188 -1008 300
-1435 340 -153 14 -521 24 -685 18z"/>
<path d="M6405 4853 c-155 -34 -266 -181 -252 -334 9 -101 68 -195 152 -244
23 -14 118 -47 211 -74 93 -27 311 -98 484 -156 645 -219 730 -246 950 -309
548 -157 1112 -260 1652 -300 374 -28 959 -26 1348 4 650 51 1390 213 2125
465 475 163 808 273 933 306 144 39 173 51 224 97 96 86 128 250 73 367 -28
59 -91 122 -157 156 -35 19 -59 23 -123 23 -71 -1 -110 -10 -330 -77 -137 -42
-426 -137 -641 -211 -609 -210 -1043 -328 -1530 -416 -631 -114 -1391 -138
-2099 -65 -592 60 -1283 226 -1997 479 -294 104 -529 181 -771 250 -146 43
-200 51 -252 39z"/>
</g>
</svg>
