<?xml version="1.0" encoding="UTF-8" standalone="no"?>
<svg
   viewBox="0 0 20.039139 20.039139"
   version="1.1"
   id="svg6"
   sodipodi:docname="icon_monochrome.svg"
   inkscape:version="1.3.2 (091e20e, 2023-11-25, custom)"
   width="512"
   height="512"
   xmlns:inkscape="http://www.inkscape.org/namespaces/inkscape"
   xmlns:sodipodi="http://sodipodi.sourceforge.net/DTD/sodipodi-0.dtd"
   xmlns="http://www.w3.org/2000/svg"
   xmlns:svg="http://www.w3.org/2000/svg">
  <defs
     id="defs6" />
  <sodipodi:namedview
     id="namedview6"
     pagecolor="#ffffff"
     bordercolor="#000000"
     borderopacity="0.25"
     inkscape:showpageshadow="2"
     inkscape:pageopacity="0.0"
     inkscape:pagecheckerboard="0"
     inkscape:deskcolor="#d1d1d1"
     inkscape:zoom="1.7324219"
     inkscape:cx="256"
     inkscape:cy="256"
     inkscape:window-width="1920"
     inkscape:window-height="1129"
     inkscape:window-x="-8"
     inkscape:window-y="-8"
     inkscape:window-maximized="1"
     inkscape:current-layer="svg6" />
  <g
     id="surface1"
     transform="translate(-2.637486,-2.9780951)">
    <path
       style="fill:#000000;fill-opacity:0;fill-rule:nonzero;stroke:none"
       d="m 1.5,0 h 22 C 24.328125,0 25,0.671875 25,1.5 v 22 C 25,24.328125 24.328125,25 23.5,25 H 1.5 C 0.671875,25 0,24.328125 0,23.5 V 1.5 C 0,0.671875 0.671875,0 1.5,0 Z m 0,0"
       id="path1" />
    <path
       style="fill:#ffffff;fill-opacity:1;fill-rule:nonzero;stroke:none"
       d="M 10.386719,18.875 14.8125,7.125 h 1.300781 L 11.6875,18.875 Z m 0,0"
       id="path2" />
    <path
       style="fill:#ffffff;fill-opacity:1;fill-rule:nonzero;stroke:none"
       d="M 21.371094,18.875 16.945312,7.125 h 1.300782 l 4.425781,11.75 z m 0,0"
       id="path3" />
    <path
       style="fill:#ffffff;fill-opacity:1;fill-rule:nonzero;stroke:none"
       d="M 2.636719,18.875 V 7.125 H 3.875 v 11.75 z m 0,0"
       id="path4" />
    <path
       style="fill:#ffffff;fill-opacity:1;fill-rule:nonzero;stroke:none"
       d="M 5.445312,18.875 V 7.125 h 1.238282 v 11.75 z m 0,0"
       id="path5" />
    <path
       style="fill:#ffffff;fill-opacity:1;fill-rule:nonzero;stroke:none"
       d="M 8.253906,18.875 V 7.125 h 1.238282 v 11.75 z m 0,0"
       id="path6" />
  </g>
</svg>
