<svg version="1.1" xmlns="http://www.w3.org/2000/svg" viewBox="0 0 246 246">
<path d="M0 0 C40.92 0 81.84 0 124 0 C124 81.18 124 162.36 124 246 C83.08 246 42.16 246 0 246 C0 164.82 0 83.64 0 0 Z " fill="#F96306" transform="translate(133,0)"/>
<path d="M0 0 C20.13 0 40.26 0 61 0 C61 58.08 61 116.16 61 176 C40.87 176 20.74 176 0 176 C0 117.92 0 59.84 0 0 Z " fill="#D24716" transform="translate(53,35)"/>
<path d="M0 0 C29 0 29 0 36.0390625 6.40234375 C37.55207825 8.58152771 37.55207825 8.58152771 38.45629883 10.51342773 C38.81156647 11.23585663 39.16683411 11.95828552 39.53286743 12.7026062 C40.07347305 13.80887863 40.07347305 13.80887863 40.625 14.9375 C41.46155558 16.4357899 42.30893703 17.92808387 43.16674805 19.41430664 C44.81809451 22.30474288 46.41228354 25.21454604 47.95556641 28.1640625 C50.29739934 32.61749918 52.98252804 36.781317 55.8125 40.9375 C56.62778354 42.19266816 57.43890401 43.45054904 58.24609375 44.7109375 C58.66745605 45.36674805 59.08881836 46.02255859 59.52294922 46.69824219 C60.01037598 47.45782227 60.49780273 48.21740234 61 49 C61.63309082 49.98645508 62.26618164 50.97291016 62.91845703 51.98925781 C65.07183384 55.34624063 67.22390594 58.70405421 69.375 62.0625 C70.05409424 63.12267334 70.73318848 64.18284668 71.43286133 65.27514648 C72.08150146 66.28907471 72.7301416 67.30300293 73.3984375 68.34765625 C73.97255371 69.24492432 74.54666992 70.14219238 75.13818359 71.06665039 C77.44393667 74.69943602 79.71954884 78.35127814 82 82 C82.33 54.94 82.66 27.88 83 0 C91.91 0 100.82 0 110 0 C110 41.91 110 83.82 110 127 C100.76 127 91.52 127 82 127 C77.4770198 120.53859972 73.14882058 114.15403531 69.0625 107.4375 C58.27916117 89.87696731 47.08191373 72.57895062 35.78369141 55.34619141 C35.19894043 54.45335449 34.61418945 53.56051758 34.01171875 52.640625 C33.50084717 51.86235352 32.98997559 51.08408203 32.46362305 50.28222656 C30.92664047 47.88561053 29.46483039 45.44138398 28 43 C27.67 70.72 27.34 98.44 27 127 C18.09 127 9.18 127 0 127 C0 85.09 0 43.18 0 0 Z " fill="#F96200" transform="translate(681,59)"/>
<path d="M0 0 C66.86713287 0 66.86713287 0 80 6 C80.76570312 6.34804687 81.53140625 6.69609375 82.3203125 7.0546875 C94.73623948 13.32754259 103.311796 23.64104686 108.3125 36.5 C114.73801775 56.1902132 113.9027032 78.30912251 105.43359375 97.2578125 C98.51758461 110.48680001 87.148533 119.46219886 73.0703125 123.9296875 C48.86004443 130.81878817 27.30838495 127 0 127 C0 85.09 0 43.18 0 0 Z M28 25 C28 50.74 28 76.48 28 103 C52.40663425 104.27591851 52.40663425 104.27591851 73 94 C82.14040784 83.35623561 83.6087693 70.56914735 83 57 C82.00520824 47.123139 78.24741015 38.27216573 70.8984375 31.46875 C58.03573794 21.51736104 44.88355312 25 28 25 Z " fill="#FA6200" transform="translate(810,59)"/>
<path d="M0 0 C13.50189423 10.57779214 22.49444844 24.53716973 24.7890625 41.80761719 C26.83365224 63.05809847 24.75820761 83.91143261 11 101 C0.18793549 113.68338336 -13.75857293 120.21871321 -30.27807617 121.72631836 C-48.8768807 123.00689179 -66.67485008 119.10204993 -81.125 106.875 C-94.71289686 94.12976341 -100.20677308 76.55462857 -100.96484375 58.39453125 C-101.36960791 39.46435061 -96.72746105 20.30953398 -83.453125 6.19921875 C-61.38638411 -13.58354418 -24.75755405 -17.02081841 0 0 Z M-63 25 C-69.5000722 34.17857964 -71.55440271 44.23735951 -71.4375 55.3125 C-71.42992676 56.31998291 -71.42235352 57.32746582 -71.41455078 58.36547852 C-71.12054921 71.69533829 -67.68474169 81.1597992 -58.3125 90.75 C-50.36278022 96.82556304 -40.70905808 98.14711161 -31 97 C-23.35635029 95.31140287 -17.00661351 92.10215257 -12 86 C-3.79457655 73.0431064 -2.23291929 58.49247383 -4.53515625 43.51953125 C-6.8946546 33.34661212 -10.68140507 24.58920695 -19.6875 18.8125 C-33.58963047 10.87134177 -52.3356557 12.18252206 -63 25 Z " fill="#FA6200" transform="translate(520,67)"/>
<path d="M0 0 C9.57 0 19.14 0 29 0 C29.00410889 2.58312012 29.00821777 5.16624023 29.01245117 7.82763672 C29.02969543 16.38926844 29.07427513 24.95060353 29.13209057 33.51205254 C29.16629257 38.6998249 29.19145999 43.88730489 29.19555664 49.07519531 C29.19985414 54.08754945 29.22843704 59.0992448 29.27343178 64.11139297 C29.28636047 66.01777424 29.29073097 67.92423453 29.28615379 69.83065414 C29.17392729 85.94063457 29.17392729 85.94063457 37.3125 99.4375 C46.30338754 104.6647602 55.74033597 105.66792865 65.875 103 C70.86260224 101.03796529 74.27581969 97.55912041 77 93 C79.45927507 87.0470143 80.44458554 81.67619323 80.43237305 75.26733398 C80.44766052 74.03641273 80.44766052 74.03641273 80.46325684 72.78062439 C80.49314576 70.10237589 80.50261546 67.42448641 80.51171875 64.74609375 C80.52858336 62.87564427 80.54673598 61.00520599 80.56611633 59.13478088 C80.61342896 54.23749292 80.64335919 49.34025042 80.66955566 44.44281006 C80.69945615 39.43508936 80.7459537 34.42752503 80.79101562 29.41992188 C80.8768355 19.61334548 80.94273918 9.80678477 81 0 C90.24 0 99.48 0 109 0 C109.06808816 10.71044252 109.12299507 21.42073858 109.15543652 32.13134956 C109.17101578 37.10604086 109.19211066 42.08057493 109.22631836 47.05517578 C109.25919037 51.86627599 109.27691103 56.67722607 109.28463173 61.48843002 C109.29012572 63.31341791 109.30085231 65.13839866 109.31719017 66.96332169 C109.46064869 83.66943406 108.22958544 99.54604737 97.625 113.375 C86.99318478 124.00681522 73.94810407 129.13657161 59 130 C58.30648437 130.04125 57.61296875 130.0825 56.8984375 130.125 C41.36695593 130.57682492 26.10187219 126.49010701 14.6171875 115.77734375 C-0.66230876 99.86750523 -0.16474645 79.81328448 -0.09765625 59.08203125 C-0.09578737 57.37139426 -0.09436569 55.66075674 -0.09336853 53.95011902 C-0.08958037 49.48353556 -0.0797824 45.01698547 -0.06866455 40.55041504 C-0.05837015 35.97827607 -0.05385383 31.40613163 -0.04882812 26.83398438 C-0.03815621 17.88930602 -0.02059011 8.94466103 0 0 Z " fill="#FA6200" transform="translate(556,59)"/>
<path d="M0 0 C0.999104 0.00161133 1.99820801 0.00322266 3.02758789 0.00488281 C15.83527406 0.2129223 26.56036035 2.62393018 38.0625 8.375 C38.0625 16.625 38.0625 24.875 38.0625 33.375 C35.87625 32.446875 33.69 31.51875 31.4375 30.5625 C17.42227223 24.87020381 1.79996042 21.34178301 -12.94140625 26.44921875 C-16.36368736 28.03646067 -18.27416585 30.0483317 -19.9375 33.375 C-20.20796812 36.95870253 -20.19688588 39.67790045 -18.9375 43.0625 C-13.64803466 49.1784443 -4.68165862 50.76853198 2.8125 52.8125 C32.85977834 61.32449615 32.85977834 61.32449615 40.87109375 74.12890625 C45.52070093 82.89455914 46.23191459 93.38792393 43.84765625 103.00390625 C40.36071456 113.5341232 35.1479651 120.43370665 25.3125 125.625 C4.68657671 135.15051876 -18.58491581 133.99956593 -39.73046875 126.69140625 C-42.79715821 125.4326068 -45.30255754 124.38544122 -47.9375 122.375 C-48.50512695 119.73950195 -48.50512695 119.73950195 -48.42578125 116.61328125 C-48.40966797 115.49501953 -48.39355469 114.37675781 -48.37695312 113.22460938 C-48.31411133 111.47374023 -48.31411133 111.47374023 -48.25 109.6875 C-48.22744141 108.50865234 -48.20488281 107.32980469 -48.18164062 106.11523438 C-48.12263901 103.20055452 -48.04036341 100.28840839 -47.9375 97.375 C-45.11997963 98.49659273 -42.31513673 99.63674821 -39.51953125 100.8125 C-28.95990777 105.22585243 -19.87715505 107.51255386 -8.375 107.6875 C-7.18729004 107.71432861 -7.18729004 107.71432861 -5.97558594 107.74169922 C0.21365272 107.73271443 6.58794713 106.8859829 11.72900391 103.1706543 C15.2019077 99.6364068 15.62054973 96.3091001 15.62890625 91.62109375 C14.61881943 87.61557704 12.27901576 85.10741343 8.78515625 83.00390625 C3.08790369 80.71998562 -2.55152534 78.89257613 -8.47436523 77.29516602 C-23.26294166 73.30159831 -37.96989839 69.03678638 -46.23046875 55.2109375 C-50.62768966 46.23640472 -50.41309789 34.74193228 -47.3125 25.375 C-42.70147801 14.6587921 -35.59578857 8.62663741 -24.9375 4.125 C-16.78258182 0.89701155 -8.7150721 -0.01477006 0 0 Z " fill="#FA6200" transform="translate(367.9375,56.625)"/>
<path d="M0 0 C1 1 1 1 1.11352539 3.40844727 C1.10567017 4.97163696 1.10567017 4.97163696 1.09765625 6.56640625 C1.09282227 8.2534668 1.09282227 8.2534668 1.08789062 9.97460938 C1.07532227 11.75061523 1.07532227 11.75061523 1.0625 13.5625 C1.05798828 14.75037109 1.05347656 15.93824219 1.04882812 17.16210938 C1.03699675 20.10812226 1.02051287 23.05403681 1 26 C0.24025879 25.69513672 -0.51948242 25.39027344 -1.30224609 25.07617188 C-16.88823569 18.858702 -33.33778174 13.37757216 -49.96875 19.07421875 C-53.41627345 20.64549386 -55.32987586 22.65975172 -57 26 C-57.35213732 30.2960753 -57.55573015 32.88853969 -55.625 36.75 C-48.24885217 43.07241243 -36.99998054 44.82890719 -27.83398438 47.35546875 C-15.28526766 50.89957916 -3.44526733 55.24846847 3.80859375 66.65625 C8.73380669 76.34519348 8.80300834 89.82136778 5.5 100.125 C0.7421235 110.85517602 -8.30489188 117.52218818 -19 121.75 C-41.15640516 128.30330294 -64.67433796 125.16283102 -85 115 C-85 106.75 -85 98.5 -85 90 C-82.17577989 91.12968804 -79.355046 92.26848764 -76.546875 93.4375 C-75.28130335 93.95846296 -74.01567726 94.47929367 -72.75 95 C-72.13253906 95.26039063 -71.51507812 95.52078125 -70.87890625 95.7890625 C-62.64098771 99.15217151 -54.81159784 100.34644835 -45.9375 100.3125 C-45.09123047 100.32861328 -44.24496094 100.34472656 -43.37304688 100.36132812 C-35.48987666 100.36740613 -28.84065311 98.66366363 -23 93 C-21.42162668 88.26488005 -21.40638704 84.56213937 -23.1875 79.875 C-27.86354582 73.84703618 -37.51046064 72.42238131 -44.51171875 70.37890625 C-75.45479165 61.34502781 -75.45479165 61.34502781 -83.875 46.75 C-87.38927273 38.15955555 -87.66380413 26.1849002 -84.375 17.4375 C-78.35707503 5.08712436 -69.73329828 -0.25813288 -57.11328125 -5.01953125 C-39.02679293 -10.71552695 -17.07851453 -7.36200044 0 0 Z " fill="#FA6200" transform="translate(1017,64)"/>
<path d="M0 0 C11.22 0 22.44 0 34 0 C34 23.1 34 46.2 34 70 C22.78 70 11.56 70 0 70 C0 46.9 0 23.8 0 0 Z " fill="#A03207" transform="translate(0,88)"/>
</svg>
