<svg xmlns="http://www.w3.org/2000/svg" viewBox="0 0 136 114" fill="none">
<path fill-rule="evenodd" clip-rule="evenodd" d="M48.7607 97.7319C49.0433 99.0974 49.1846 99.7802 48.7574 100.26C48.3302 100.739 47.6179 100.676 46.1934 100.549C38.2181 99.8389 33.7579 98.3769 30.2694 96.9319C24.4665 94.5283 19.8561 89.9179 17.4525 84.115C16.0074 80.6263 14.5451 76.1657 13.8348 68.1904C13.708 66.7659 13.6445 66.0536 14.1241 65.6264C14.6036 65.1992 15.2864 65.3405 16.6519 65.6231C32.7503 68.955 45.4288 81.6335 48.7607 97.7319ZM64.1757 100.843C63.0678 100.895 62.5139 100.92 62.1333 100.605C61.7527 100.29 61.6712 99.7138 61.5083 98.562C58.1651 74.9212 39.4626 56.2187 15.8218 52.8754C14.67 52.7125 14.0941 52.6311 13.7788 52.2505C13.4634 51.8699 13.4893 51.3159 13.541 50.2081C13.7574 45.5683 14.1963 41.9224 14.7602 38.9493C14.9458 37.9711 15.0386 37.482 15.4254 37.1854C15.8122 36.8888 16.3133 36.9265 17.3154 37.0018C49.3774 39.4121 74.9719 65.0067 77.382 97.0688C77.4573 98.0709 77.495 98.572 77.1983 98.9589C76.9017 99.3457 76.4126 99.4384 75.4344 99.6239C72.4612 100.188 68.8153 100.626 64.1757 100.843ZM92.9167 91.0299C91.6555 92.4096 91.0249 93.0995 90.2572 92.8701C89.4894 92.6407 89.325 91.6203 88.9961 89.5796C83.6933 56.675 57.7098 30.6911 24.8053 25.3879C22.7646 25.059 21.7442 24.8945 21.5148 24.1267C21.2854 23.3589 21.9753 22.7284 23.3551 21.4672C25.3678 19.6276 27.7019 18.132 30.2694 17.0685C35.1293 15.0555 41.8751 13.0093 57.3835 13.0093C71.9998 13.0093 78.8337 14.8269 83.6399 16.7211C79.1968 19.9213 76.3042 25.1395 76.3042 31.0333C76.3042 40.768 84.1957 48.6596 93.9305 48.6596H101.144C101.292 51.1234 101.374 53.8851 101.374 57.0002C101.374 72.5094 99.3287 79.2556 97.3159 84.115C96.2523 86.6827 94.7566 89.017 92.9167 91.0299ZM113.584 48.6596C113.722 51.1909 113.795 53.958 113.795 57.0002C113.795 73.8224 111.54 82.2335 108.791 88.8683C105.127 97.7146 98.0986 104.743 89.2522 108.407C82.6174 111.156 74.2057 113.412 57.3835 113.412C40.5614 113.412 32.1509 111.156 25.5161 108.407C16.6697 104.743 9.64131 97.7146 5.97701 88.8683C3.22879 82.2335 0.97168 73.8224 0.97168 57.0002C0.97168 40.1781 3.22879 31.767 5.97701 25.1322C9.64131 16.2858 16.6697 9.25737 25.5161 5.59307C32.1509 2.84485 40.5614 0.588379 57.3835 0.588379C74.2057 0.588379 82.6174 2.84485 89.2522 5.59307C93.6699 7.42294 97.6342 10.0917 100.953 13.4069H117.576C127.311 13.4069 135.203 21.2985 135.203 31.0333C135.203 40.768 127.311 48.6596 117.576 48.6596H113.584Z" fill="#00d17d"/>
</svg>
