<?xml version="1.0" encoding="UTF-8" standalone="no"?>
<svg
   width="200"
   height="200"
   viewBox="0 0 200 200"
   fill="none"
   version="1.1"
   id="svg20"
   sodipodi:docname="icon.svg"
   inkscape:version="1.4 (e7c3feb100, 2024-10-09)"
   xmlns:inkscape="http://www.inkscape.org/namespaces/inkscape"
   xmlns:sodipodi="http://sodipodi.sourceforge.net/DTD/sodipodi-0.dtd"
   xmlns="http://www.w3.org/2000/svg"
   xmlns:svg="http://www.w3.org/2000/svg">
  <defs
     id="defs20" />
  <sodipodi:namedview
     id="namedview20"
     pagecolor="#ffffff"
     bordercolor="#111111"
     borderopacity="1"
     inkscape:showpageshadow="0"
     inkscape:pageopacity="0"
     inkscape:pagecheckerboard="1"
     inkscape:deskcolor="#d1d1d1"
     inkscape:zoom="1.1748311"
     inkscape:cx="0"
     inkscape:cy="3.8303379"
     inkscape:window-width="1536"
     inkscape:window-height="792"
     inkscape:window-x="0"
     inkscape:window-y="0"
     inkscape:window-maximized="1"
     inkscape:current-layer="svg20" />
  <mask
     id="mask0_813_105"
     maskUnits="userSpaceOnUse"
     x="0"
     y="0"
     width="148"
     height="35">
    <path
       fill-rule="evenodd"
       clip-rule="evenodd"
       d="M 0,34.4854 H 148 V 0 H 0 Z"
       fill="#ffffff"
       id="path1" />
  </mask>
  <g
     mask="url(#mask0_813_105)"
     id="g20"
     transform="matrix(5.2340353,0,0,5.2340353,12.93915,9.5049533)"
     inkscape:transform-center-x="22.832585"
     inkscape:transform-center-y="-7.2393385">
    <mask
       id="mask1_813_105"
       maskUnits="userSpaceOnUse"
       x="0"
       y="0"
       width="34"
       height="35">
      <path
         fill-rule="evenodd"
         clip-rule="evenodd"
         d="M 0,0.204056 H 33.2672 V 34.3754 H 0 Z"
         fill="#ffffff"
         id="path2" />
    </mask>
    <g
       mask="url(#mask1_813_105)"
       id="g3">
      <path
         fill-rule="evenodd"
         clip-rule="evenodd"
         d="m 0,17.2903 c 0,9.4363 7.44629,17.0852 16.6326,17.0852 9.1867,0 16.6346,-7.6489 16.6346,-17.0852 C 33.2672,7.8537 25.8193,0.204056 16.6326,0.204056 7.44629,0.204056 0,7.8537 0,17.2903 Z"
         fill="#ff0000"
         id="path3" />
    </g>
    <path
       fill-rule="evenodd"
       clip-rule="evenodd"
       d="M 26.5848,9.52843 C 26.3701,7.92496 25.4683,6.47596 24.2031,5.65872 22.9674,4.85841 21.0915,5.04043 19.7249,5.17776 19.0467,5.24571 18.3296,5.40018 17.6138,5.6026 16.5045,5.62239 15.2633,6.0854 14.2466,6.41189 13.436,6.6741 12.0526,7.05058 11.368,7.55521 10.8966,7.90353 10.607,8.32532 10.428,8.79261 9.4762,10.4626 9.49825,11.9155 9.38144,14.0789 c -0.04073,0.7462 -1.20347,3.836 0.30196,4.378 0.15674,0.0553 0.3224,0.1024 0.4943,0.1349 0.1803,0.4471 0.4012,0.8758 0.6758,1.2743 0.0272,0.0424 0.0618,0.0775 0.0904,0.1179 0.1549,0.4039 0.0177,0.0094 0.1549,0.4039 0.6153,1.7755 -1.15337,2.2813 1.7476,2.4784 0.8151,0.0551 1.5748,0.028 2.2796,-0.0465 1.8324,-0.0647 3.6454,-0.4599 4.4923,0.9885 0.3574,2.1642 -1.3573,2.6778 -3.4684,3.0324 -1.3189,0.1545 -2.9052,0.2347 -4.8218,0.2347 H 2.99976 l 1.21499,1.6231 h 7.11335 c 11.0603,0 12.4801,-2.8003 13.5049,-7.4089 l 0.0191,-0.0898 V 21.077 c 0.8435,-1.3772 2.9266,-2.5379 2.9916,-4.3646 -0.6691,0.6701 -1.2349,-7.00216 -1.2589,-7.18397 z"
       fill="#000000"
       id="path4" />
    <path
       fill-rule="evenodd"
       clip-rule="evenodd"
       d="m 23.7345,24.0365 c 0.0194,-0.1188 0.0178,-0.2445 -0.003,-0.3706 -0.0046,0.1231 -0.0046,0.2471 0.003,0.3706 z"
       fill="#000000"
       id="path5" />
    <path
       fill-rule="evenodd"
       clip-rule="evenodd"
       d="m 9.23315,14.351 c 1.11605,-0.2462 2.30765,-0.5846 3.21845,-1.36 0.4102,-0.3487 1.1479,-1.2533 1.7408,-1.1594 1.0857,0.171 0.4395,1.4708 -0.2296,1.7208 -0.4575,0.1695 -0.9899,0.041 -1.4576,0.1436 -0.461,0.1014 -0.8945,0.3445 -1.3381,0.5177 -0.5541,0.2159 -1.35069,0.6477 -1.93395,0.3261"
       fill="#ffffff"
       id="path6" />
    <path
       fill-rule="evenodd"
       clip-rule="evenodd"
       d="M 15.8761,4.80792 C 15.12,4.97933 14.5892,5.42927 14.2141,6.28019 l 0.0068,0.13182 c 2.2355,-0.11387 6.092,0.91886 7.271,3.4967 l 1.484,-0.71604 C 21.694,6.38772 18.4394,5.12992 15.8761,4.80792 Z"
       fill="#a8a8a8"
       id="path7" />
    <path
       fill-rule="evenodd"
       clip-rule="evenodd"
       d="m 28.8575,13.3662 c 0,2.6592 -1.954,4.8138 -4.3653,4.8138 -2.4107,0 -4.3645,-2.1546 -4.3645,-4.8138 0,-2.6583 1.9538,-4.81371 4.3645,-4.81371 2.4113,0 4.3653,2.15541 4.3653,4.81371 z"
       fill="#ffffff"
       id="path8" />
    <path
       fill-rule="evenodd"
       clip-rule="evenodd"
       d="m 24.4935,9.03566 c -2.1473,0 -3.8943,1.94264 -3.8943,4.33044 0,2.3879 1.747,4.3305 3.8943,4.3305 2.1477,0 3.8947,-1.9426 3.8947,-4.3305 0,-2.3878 -1.747,-4.33044 -3.8947,-4.33044 z m 3e-4,9.62734 c -2.6662,0 -4.8351,-2.3763 -4.8351,-5.2971 0,-2.9209 2.1689,-5.2969 4.8351,-5.2969 2.6664,0 4.8357,2.376 4.8357,5.2969 0,2.9208 -2.1693,5.2971 -4.8357,5.2971 z"
       fill="#000000"
       id="path9" />
    <path
       fill-rule="evenodd"
       clip-rule="evenodd"
       d="m 26.9848,13.4421 c 0,0.8811 -0.6484,1.5961 -1.4474,1.5961 -0.7988,0 -1.4471,-0.715 -1.4471,-1.5961 0,-0.8814 0.6483,-1.5956 1.4471,-1.5956 0.799,0 1.4474,0.7142 1.4474,1.5956 z"
       fill="#000000"
       id="path10" />
    <mask
       id="mask2_813_105"
       maskUnits="userSpaceOnUse"
       x="0"
       y="0"
       width="151"
       height="35">
      <path
         fill-rule="evenodd"
         clip-rule="evenodd"
         d="m 0,34.4853 150.714,-0.11 V -9.15527e-5 H 0 Z"
         fill="#ffffff"
         id="path15" />
    </mask>
  </g>
</svg>
