<svg xmlns="http://www.w3.org/2000/svg" xml:space="preserve" viewBox="0 0 512 512">
<g transform="translate(0,512) scale(0.1,-0.1)" style="fill:#fff">
<path d="M1350 4684 c-19 -9 -46 -21 -60 -28 -23 -10 -102 -85 -125 -117 -41
-58 -49 -95 -53 -247 -3 -103 -8 -154 -16 -156 -6 -2 -45 -11 -86 -21 -284
-66 -507 -170 -616 -287 -104 -110 -168 -251 -216 -475 -21 -101 -23 -129 -22
-453 1 -241 6 -398 17 -520 32 -330 66 -586 97 -730 12 -52 25 -115 30 -140
10 -53 35 -148 50 -193 62 -189 90 -261 145 -372 73 -147 135 -229 227 -302
82 -64 135 -94 233 -134 200 -80 171 -79 1602 -79 798 0 1280 4 1330 10 164
22 225 40 373 113 89 44 118 65 190 137 107 106 188 244 258 439 71 197 72
200 125 431 37 156 51 246 86 535 19 153 40 421 52 642 20 387 -17 685 -112
898 -44 100 -190 268 -259 298 -14 7 -27 14 -30 17 -13 15 -185 85 -260 107
-47 13 -94 28 -105 33 -29 12 -150 40 -175 40 -19 0 -20 6 -20 127 0 70 -5
143 -11 162 -41 129 -104 205 -207 252 -79 36 -117 36 -201 3 -144 -58 -231
-193 -231 -360 l0 -74 -787 1 c-434 0 -795 -2 -803 -5 -13 -5 -14 4 -12 60 8
155 -76 309 -195 360 -21 9 -50 23 -65 30 -35 19 -105 17 -148 -2z m2052
-1274 c48 -90 87 -129 170 -170 77 -39 144 -40 223 -5 54 24 165 117 165 139
0 6 9 28 20 49 11 20 20 45 20 54 0 14 4 12 17 -7 20 -29 25 -146 7 -158 -6
-4 -14 -19 -17 -33 -14 -57 -139 -148 -224 -163 -83 -15 -145 -18 -156 -7 -6
6 -24 11 -41 11 -32 0 -152 61 -173 88 -44 56 -67 118 -67 182 0 36 6 76 14
90 l14 25 7 -35 c4 -19 14 -46 21 -60z m-2259 -10 c23 -53 112 -142 159 -159
18 -7 41 -17 50 -22 10 -5 45 -9 78 -9 95 0 195 56 252 141 32 46 58 103 58
125 0 17 1 17 16 3 16 -16 23 -101 12 -149 -22 -99 -151 -210 -243 -210 -19 0
-37 -4 -40 -10 -13 -20 -111 -8 -213 27 -48 17 -116 70 -150 117 -34 49 -48
132 -32 191 13 46 14 47 23 24 5 -13 19 -44 30 -69z m2032 -444 c380 -30 652
-78 895 -156 225 -72 333 -199 375 -440 27 -155 18 -598 -16 -800 -47 -277
-161 -443 -389 -567 -46 -24 -283 -126 -300 -129 -29 -3 -70 -17 -70 -24 0 -4
-9 -6 -20 -3 -11 3 -20 0 -20 -6 0 -15 -30 -14 -31 2 0 6 0 86 1 177 2 236
-22 314 -129 420 -99 98 -194 128 -399 125 -135 -2 -185 -10 -248 -41 -50 -24
-53 -45 -20 -138 15 -41 26 -94 26 -122 0 -51 -28 -134 -63 -185 -20 -30 -14
-55 14 -64 11 -4 43 -30 72 -58 54 -53 95 -125 104 -184 l6 -33 -52 0 c-45 0
-51 2 -51 21 0 28 -43 100 -81 133 -66 59 -110 71 -264 71 -125 0 -145 -2
-190 -23 -81 -37 -155 -124 -155 -181 0 -27 -12 -32 -59 -25 -48 8 -49 14 -19
97 22 59 86 136 164 193 l28 21 -25 39 c-68 104 -78 210 -30 316 56 124 135
178 272 185 72 5 93 2 136 -17 56 -24 73 -21 73 13 0 22 -55 77 -77 77 -7 0
-13 3 -13 8 0 13 -96 42 -201 61 -73 13 -161 19 -315 20 -203 2 -218 1 -297
-23 -45 -14 -103 -39 -129 -56 -69 -46 -160 -148 -192 -216 -55 -115 -58 -135
-63 -366 -5 -198 -6 -216 -21 -208 -10 4 -66 27 -127 51 -60 23 -127 53 -147
66 -21 13 -40 23 -43 23 -8 0 -96 60 -113 77 -7 7 -21 18 -30 25 -49 36 -132
169 -171 273 -22 58 -41 125 -41 146 0 13 -6 56 -14 94 -18 91 -29 495 -17
645 19 232 87 366 234 461 160 104 624 199 1117 229 96 6 195 12 220 14 102 9
728 -4 905 -18z M2031 2654 c-191 -51 -321 -219 -321 -415 0 -115 44 -216 130
-301 88 -86 169 -120 290 -121 168 -2 318 93 389 246 29 63 32 76 32 175 0 73
-5 117 -14 137 -8 17 -23 47 -32 68 -30 64 -108 141 -178 175 -105 52 -196 63
-296 36z M3001 2300 c-111 -40 -186 -113 -221 -215 -77 -223 83 -454 314 -455
76 0 129 16 193 58 178 116 205 369 55 525 -41 43 -74 63 -147 89 -63 23 -126
22 -194 -2z M2468 1480 c-77 -14 -133 -74 -162 -169 -14 -48 -14 -56 4 -114
32 -104 101 -157 205 -157 118 0 200 75 212 194 7 68 -9 124 -52 173 -53 62
-128 89 -207 73z"/>
</g>
</svg>
